<svg width="678" height="417" viewBox="0 0 678 417" fill="none" xmlns="http://www.w3.org/2000/svg">
<g opacity="0.75" clip-path="url(#clip0_1707_3793)">
<path d="M93.2533 44.1336C171.572 -18.3758 272.961 3.52168 277.187 4.49239C341.247 19.3691 338.377 52.7345 408.222 77.7699C510.176 114.318 563.752 60.2519 622.231 101.789C667.921 134.252 687.082 204.143 673.931 256.742C649.618 354.039 510.244 410.544 404.629 397.27C303.805 384.605 277.232 313.811 165.38 315.594C93.0499 316.746 68.3748 346.928 40.3555 327.604C-13.4687 290.469 -4.85956 122.4 93.2533 44.1336Z" fill="#E3E5FF"/>
<path d="M550.625 64.2928H133.228C121.247 64.2928 111.535 73.9955 111.535 85.9645V353.768C111.535 365.737 121.247 375.44 133.228 375.44H550.625C562.606 375.44 572.318 365.737 572.318 353.768V85.9645C572.318 73.9955 562.606 64.2928 550.625 64.2928Z" fill="white"/>
<path d="M554.557 65.3538H132.256C121.252 64.9249 112.168 72.4422 112.485 85.1292V92.0145L571.369 91.5856V83.7522C571.369 73.9999 563.686 65.3538 554.535 65.3538H554.557Z" fill="#E6E6E6"/>
<path d="M306.428 231.278H154.581C151.674 231.278 149.316 233.633 149.316 236.538V283.471C149.316 286.376 151.674 288.731 154.581 288.731H306.428C309.336 288.731 311.693 286.376 311.693 283.471V236.538C311.693 233.633 309.336 231.278 306.428 231.278Z" fill="#3943B3"/>
<path d="M197.513 260.828C197.513 269.429 190.531 276.427 181.899 276.427C173.267 276.427 166.285 269.452 166.285 260.828C166.285 252.205 173.267 245.229 181.899 245.229C190.531 245.229 197.513 252.205 197.513 260.828Z" fill="white"/>
<path d="M210.645 262.476H292.804" stroke="white" stroke-miterlimit="10"/>
<path d="M210.645 251.843H250.007" stroke="white" stroke-miterlimit="10"/>
<path d="M210.645 272.319H292.804" stroke="white" stroke-miterlimit="10"/>
<path d="M546.559 125.854V118.021C546.559 113.077 542.56 109.081 537.611 109.081H366.671C361.722 109.081 357.723 113.077 357.723 118.021V194.549L546.559 125.877V125.854Z" fill="#FFB939"/>
<path d="M425.04 110.539L393.02 123.321L420.126 191.095L452.146 178.313L425.04 110.539Z" fill="#FFB939"/>
<path d="M534.742 109.081H369.54C363.014 109.081 357.723 114.367 357.723 120.888V316.949C357.723 323.469 363.014 328.755 369.54 328.755H534.742C541.268 328.755 546.559 323.469 546.559 316.949V120.888C546.559 114.367 541.268 109.081 534.742 109.081Z" stroke="#B3B3B3" stroke-miterlimit="10"/>
<path d="M413.298 135.308L381.277 148.09L408.383 215.864L440.404 203.082L413.298 135.308Z" fill="#FFB939"/>
<path d="M402.321 161.083L370.301 173.865L383.095 205.855L415.115 193.073L402.321 161.083Z" fill="#FFB939"/>
<path d="M525.056 118.837L493.035 131.619L511.246 177.151L543.266 164.369L525.056 118.837Z" fill="#FFB939"/>
<path d="M311.694 109.081H149.859V132.559H311.694V109.081Z" fill="#E6E6E6"/>
<path d="M311.694 303.494H149.859V312.547H311.694V303.494Z" fill="#E6E6E6"/>
<path d="M311.694 320.38H149.859V329.433H311.694V320.38Z" fill="#E6E6E6"/>
<path d="M306.428 159.061H154.581C151.674 159.061 149.316 161.416 149.316 164.321V211.254C149.316 214.159 151.674 216.514 154.581 216.514H306.428C309.336 216.514 311.693 214.159 311.693 211.254V164.321C311.693 161.416 309.336 159.061 306.428 159.061Z" stroke="#B3B3B3" stroke-miterlimit="10"/>
<path d="M530.829 83.6167C532.901 83.6167 534.58 81.939 534.58 79.8693C534.58 77.7997 532.901 76.1219 530.829 76.1219C528.758 76.1219 527.078 77.7997 527.078 79.8693C527.078 81.939 528.758 83.6167 530.829 83.6167Z" fill="#FFA320"/>
<path d="M543.368 83.6167C545.44 83.6167 547.119 81.939 547.119 79.8693C547.119 77.7997 545.44 76.1219 543.368 76.1219C541.297 76.1219 539.617 77.7997 539.617 79.8693C539.617 81.939 541.297 83.6167 543.368 83.6167Z" fill="#EB4334"/>
<path d="M555.935 83.6167C558.006 83.6167 559.686 81.939 559.686 79.8693C559.686 77.7997 558.006 76.1219 555.935 76.1219C553.863 76.1219 552.184 77.7997 552.184 79.8693C552.184 81.939 553.863 83.6167 555.935 83.6167Z" fill="#3943B3"/>
<path d="M510.334 86.0548H131.034C126.944 86.0548 123.645 82.7589 123.645 78.6729C123.645 74.5869 126.944 71.291 131.034 71.291H510.334C514.424 71.291 517.723 74.5869 517.723 78.6729C517.723 82.7589 514.424 86.0548 510.334 86.0548Z" fill="white"/>
<path d="M550.625 64.2928H133.228C121.247 64.2928 111.535 73.9955 111.535 85.9645V353.768C111.535 365.737 121.247 375.44 133.228 375.44H550.625C562.606 375.44 572.318 365.737 572.318 353.768V85.9645C572.318 73.9955 562.606 64.2928 550.625 64.2928Z" stroke="#B3B3B3" stroke-miterlimit="10"/>
<path d="M245.643 159.061H93.7962C90.8884 159.061 88.5312 161.416 88.5312 164.321V211.254C88.5312 214.159 90.8884 216.514 93.7962 216.514H245.643C248.551 216.514 250.908 214.159 250.908 211.254V164.321C250.908 161.416 248.551 159.061 245.643 159.061Z" fill="#3943B3"/>
<path d="M136.728 188.612C136.728 197.213 129.746 204.211 121.114 204.211C112.482 204.211 105.5 197.235 105.5 188.612C105.5 179.988 112.482 173.013 121.114 173.013C129.746 173.013 136.728 179.988 136.728 188.612Z" fill="white"/>
<path d="M149.859 190.26H232.019" stroke="white" stroke-miterlimit="10"/>
<path d="M149.859 179.627H189.222" stroke="white" stroke-miterlimit="10"/>
<path d="M149.859 200.102H232.019" stroke="white" stroke-miterlimit="10"/>
<path d="M71.3135 398.827C71.3135 398.827 81.4818 401.717 86.4981 404.494C90.4977 406.729 90.9948 408.58 86.0462 408.58C79.7193 408.58 72.1947 408.467 67.6981 407.767C64.6476 407.293 65.913 400.137 66.4327 398.895L71.3361 398.827H71.3135Z" fill="#FFA320"/>
<path d="M70.4317 398.827L71.4485 394.877L66.1836 395.486L66.4321 398.895L70.4317 398.827Z" fill="#FFC69A"/>
<path d="M89.5695 407.632C84.0786 407.451 72.5545 406.977 69.5266 406.255C67.7415 405.826 66.5439 405.058 65.7305 404.313C65.8434 406.029 66.3406 407.541 67.6737 407.744C72.193 408.444 79.6949 408.58 86.0219 408.557C88.1685 408.557 89.2757 408.196 89.5469 407.632H89.5695Z" fill="#3943B3"/>
<path d="M47.2028 260.851C47.2028 260.851 45.9374 254.868 56.6028 246.9C67.2682 238.931 73.0303 233.152 73.0303 233.152L83.1534 198.161L86.6558 199.809C86.6558 199.809 86.8818 227.26 85.3452 235.432C83.8087 243.581 49.9821 278.933 47.2028 260.873V260.851Z" fill="#DAA184"/>
<path d="M74.9277 224.528L86.4066 226.199L85.9773 235.793C85.9773 235.793 69.1883 261.957 58.2743 266.088C47.3377 270.219 40.7848 263.853 43.4738 259.293C46.1401 254.733 71.2671 233.468 71.2671 233.468L74.9503 224.573L74.9277 224.528Z" fill="#FFA320"/>
<path d="M86.6793 228.721L87.5742 223.057L73.9814 220.914L73.0865 226.578L86.6793 228.721Z" fill="#FFB939"/>
<path d="M86.6544 207.778C86.6544 207.778 80.0111 191.569 81.977 189.695C81.977 189.695 88.1684 200.147 90.0439 204.549" fill="#DAA184"/>
<path d="M8.40555 388.895C8.40555 388.895 15.5686 396.683 18.3705 401.649C20.6075 405.645 20.0652 407.474 15.8397 404.9C10.4392 401.604 4.11226 397.563 0.632442 394.606C-1.71757 392.597 3.11803 387.156 4.20265 386.389L8.40555 388.895Z" fill="#FFB939"/>
<path d="M7.63775 388.42L10.5979 385.599L5.76227 383.364L4.20312 386.389L7.63775 388.42Z" fill="#FFC69A"/>
<path d="M67.9679 301.688L47.0664 290.04C47.0664 290.04 50.5688 334.106 63.9458 353.565C63.9458 353.565 64.0588 389.007 66.3862 396.66L71.267 396.547C71.267 396.547 78.7463 356.229 78.0458 349.795C76.7579 337.989 75.5151 320.945 67.9905 301.688H67.9679Z" fill="#3943B3"/>
<path d="M45.8015 220.555C45.8015 220.555 37.4409 224.664 36.7631 240.037C36.1078 255.433 33.4414 255.997 33.4414 255.997C33.4414 255.997 44.7621 262.589 57.4386 255.997L45.8241 220.555H45.8015Z" fill="#411809"/>
<path d="M55.9029 222C59.2698 225.07 60.8741 230.036 61.0549 234.732C61.2357 239.834 53.3948 240.534 48.9433 238.05C44.989 235.861 42.187 230.917 42.9553 226.718C43.9269 221.277 51.4289 217.891 55.9029 222Z" fill="#FFC69A"/>
<path d="M51.3375 228.253L43.0898 229.54L46.1855 249.451C46.6375 252.295 49.3038 254.259 52.1509 253.807C55.224 253.333 57.2125 250.308 56.399 247.306L51.3149 228.253H51.3375Z" fill="#FFC69A"/>
<path d="M52.2201 220.961C52.2201 220.961 54.2538 232.113 43.0913 234.845C35.2956 236.764 35.5215 217.372 46.5259 216.966C61.9817 216.401 58.5019 225.273 58.5019 225.273C58.5019 225.273 54.7735 219.833 52.2201 220.961Z" fill="#411809"/>
<path d="M54.7505 241.053L48.4688 238.299L54.3212 239.36L54.7505 241.053Z" fill="#DAA184"/>
<path d="M64.0385 292.568L38.5725 299.341C38.5725 299.341 31.4095 309.048 34.0307 346.86C34.0307 346.86 11.796 365.552 5.58203 383.725L9.69455 386.411C9.69455 386.411 41.0129 358.464 45.4192 353.723C50.7067 348.034 60.9202 329.094 64.0385 292.591V292.568Z" fill="#3943B3"/>
<path d="M61.3278 249.247C60.8081 246.967 59.1585 245.116 56.9667 244.304C52.2441 242.588 40.7878 242.498 40.6748 257.984C40.4715 288.46 38.5508 299.318 38.5508 299.318C38.5508 299.318 44.6744 304.623 67.9485 301.688L64.8754 282.432L67.5869 276.518C69.3269 271.822 69.1687 266.63 67.0898 262.07L61.2826 249.225L61.3278 249.247Z" fill="#FFB939"/>
<path d="M51.8825 262.092C51.8825 262.092 50.6171 256.11 61.2825 248.141C71.9479 240.172 77.71 234.393 77.71 234.393L87.8331 199.402L91.3355 201.05C91.3355 201.05 91.5615 228.501 90.0249 236.673C88.4884 244.823 54.6618 280.175 51.8825 262.115V262.092Z" fill="#FFC69A"/>
<path d="M87.0177 202.653C87.0177 202.653 84.6903 192.788 86.6336 190.937C86.6336 190.937 88.5317 195.023 90.4072 199.448C90.9947 200.825 96.9601 205.136 93.887 204.662C90.8139 204.211 87.0177 202.653 87.0177 202.653Z" fill="#FFC69A"/>
<path d="M57.4375 223.896C57.4375 223.896 59.9683 226.537 61.9793 227.034C61.9793 227.034 61.55 228.84 60.0361 229.72L57.4375 223.896Z" fill="#FFC69A"/>
<path d="M19.342 405.938C14.755 402.913 5.19674 396.48 3.00491 394.29C1.71692 393.003 1.08423 391.716 0.790479 390.655C-0.0229854 392.168 -0.384525 393.726 0.654902 394.583C4.13472 397.541 10.4617 401.582 15.8622 404.877C17.6925 405.984 18.8223 406.277 19.342 405.916V405.938Z" fill="#3943B3"/>
<path d="M4.58594 386.614C4.58594 386.614 10.1446 396.231 12.6302 393.748L8.51768 387.608L4.58594 386.614Z" fill="#FFC69A"/>
<path d="M67.0195 398.737C67.0195 398.737 76.7811 404.2 77.4816 400.769L70.6575 397.902L67.0195 398.737Z" fill="#FFC69A"/>
<path d="M80.4433 224.957L90.928 226.876L90.2953 238.953C90.2953 238.953 74.7265 262.363 63.7899 266.494C52.8533 270.626 46.3004 264.26 48.9894 259.7C51.6557 255.139 76.7827 233.874 76.7827 233.874L80.4659 224.98L80.4433 224.957Z" fill="#FFB939"/>
<path d="M92.1754 229.152L93.0703 223.488L79.4775 221.344L78.5826 227.008L92.1754 229.152Z" fill="#FFB939"/>
<path d="M67.9699 301.688L70.704 309.364L53.1016 328.756L54.7511 302.569C54.7511 302.569 60.355 302.749 67.9699 301.688Z" fill="#3943B3"/>
<path d="M47.544 343.971C43.9512 347.673 42.8213 349.344 42.3016 351.511C41.8949 353.272 42.3242 353.52 41.8497 354.581C40.4939 357.516 36.6752 356.906 31.9977 359.051C28.5857 360.608 26.3261 363.114 21.8294 368.126C19.5924 370.609 19.7958 370.744 16.1352 375.35C11.7967 380.813 9.15295 383.567 7.91016 385.237L9.69526 386.389C9.69526 386.389 41.0136 358.441 45.4199 353.701C47.7925 351.15 51.1368 345.935 54.4132 337.65C53.8031 337.515 51.7017 339.704 47.544 343.948V343.971Z" fill="#4753DE"/>
<path d="M64.5358 396.886H72.7383V393.658H64.5358V396.886Z" fill="#3943B3"/>
<path d="M3.33008 383.879L10.4336 387.977L12.0492 385.181L4.9457 381.084L3.33008 383.879Z" fill="#3943B3"/>
<path d="M36.4263 232.971L55.2264 218.139C51.1364 212.947 43.5893 212.067 38.4148 216.175C33.2176 220.261 32.3364 227.801 36.4489 232.971" fill="#FFB939"/>
<path d="M42.436 214.076C41.0125 214.505 39.6341 215.182 38.3913 216.153C33.1942 220.239 32.3129 227.779 36.4255 232.948L41.3062 229.088C38.0524 224.415 38.5721 218.139 42.4135 214.076H42.436Z" fill="#FFA320"/>
<path d="M57.4594 214.679L35.1992 231.268L37.2393 234L59.4994 217.412L57.4594 214.679Z" fill="#FFA320"/>
<path d="M67.6295 276.54C69.1208 272.567 69.1886 268.21 67.9232 264.214C60.828 266.788 54.7496 266.291 50.1626 264.869C46.3212 251.121 52.3544 244.981 53.9362 243.649C52.4222 243.491 50.7275 243.559 49.078 244.01C46.6828 247.464 44.1972 253.649 46.2761 263.334C42.7058 261.596 40.6948 259.677 40.6948 259.677C40.4236 288.843 37.8477 300.65 37.8477 300.65C37.8477 300.65 44.6943 304.623 67.991 301.688L64.9179 282.432L67.6295 276.518V276.54Z" fill="#3943B3"/>
<path d="M78.0237 349.795C76.7357 337.989 75.4929 320.945 67.9684 301.688L64.8953 282.432L67.6068 276.518C69.0982 272.544 69.166 268.188 67.9006 264.192C66.6804 264.643 65.5054 264.959 64.353 265.23C64.6919 268.639 64.8501 273.109 62.6131 277.827C61.8448 279.452 60.6472 281.394 60.1501 284.599C59.5626 288.392 60.3083 291.417 60.7602 293.223C63.3813 303.404 66.0025 310.763 66.0025 310.763C69.6405 321.012 71.4482 326.114 71.5386 328.597C71.9001 337.921 67.6294 343.158 71.2222 347.967C72.9622 350.292 75.3799 351.014 75.5381 353.497C75.6737 355.868 73.5948 356.68 72.1487 359.66C70.1828 363.724 71.9227 366.658 72.1487 372.573C72.3746 378.578 70.7025 379.3 70.002 385.802C69.6179 389.278 69.6405 393.184 69.9568 396.57H71.2448C71.2448 396.57 78.7242 356.206 78.0237 349.795Z" fill="#4753DE"/>
<path d="M202.958 403.545H162.691L175.82 337.266H189.852L202.958 403.545Z" fill="#EB4334"/>
<path d="M210.642 400.25H153.18V407.112H210.642V400.25Z" fill="#EB4334"/>
<path d="M202.958 403.545H162.691L175.82 337.266H189.852L202.958 403.545Z" fill="#EB4334"/>
<path d="M170.262 365.349H195.411L193.355 354.965H172.318L170.262 365.349Z" fill="white"/>
<path d="M165.449 389.639H200.202L198.169 379.255H167.505L165.449 389.639Z" fill="white"/>
<path d="M634.84 393.68C634.84 393.68 619.068 402.349 613.894 402.417C608.696 402.484 612.538 404.697 618.187 405.239C622.661 405.645 631.609 404.381 636.851 403.365C637.258 403.297 638.501 402.01 638.501 402.01L638.862 403.229C639.36 403.342 641.574 403.004 641.574 403.004C641.777 400.362 640.467 393.635 640.467 393.635L634.863 393.68H634.84Z" fill="#3943B3"/>
<path d="M634.84 393.68L635.043 389.481L640.647 389.752L640.444 393.658L634.84 393.68Z" fill="#FFB780"/>
<path d="M634.659 267.51L653.324 270.693C653.324 270.693 647.629 320.538 641.732 339.953C641.732 339.953 645.596 373.341 641.461 391.4L634.072 391.761C634.072 391.761 627.767 349.073 626.073 341.871C624.016 333.225 626.57 312.321 634.659 267.533V267.51Z" fill="#3943B3"/>
<path d="M632.445 387.54L632.988 392.371L642.252 392.145L642.749 387.811L632.445 387.54Z" fill="#3943B3"/>
<path d="M656.872 395.396C656.872 395.396 641.099 404.065 635.925 404.132C630.728 404.2 634.569 406.413 640.218 406.954C644.692 407.361 653.64 406.096 658.883 405.081C659.289 405.013 660.532 403.726 660.532 403.726L660.894 404.945C661.391 405.058 663.605 404.719 663.605 404.719C663.809 402.078 662.498 395.351 662.498 395.351L656.894 395.396H656.872Z" fill="#3943B3"/>
<path d="M656.871 395.396L657.074 391.175L662.678 391.468L662.475 395.351L656.871 395.396Z" fill="#FFB780"/>
<path d="M643.72 270.445L663.514 285.841C663.514 285.841 670.022 295.435 660.079 340.494C660.079 340.494 668.711 365.281 663.198 392.981L655.876 394.087C655.876 394.087 647.041 348.17 644.601 341.172C641.663 332.774 639.313 309.454 643.742 270.445H643.72Z" fill="#3943B3"/>
<path d="M654 389.64L654.949 394.425L664.146 393.455L664.304 389.098L654 389.64Z" fill="#3943B3"/>
<path d="M642.274 285.548L631.518 285.254L629.801 295.571L645.37 322.209L642.274 285.548Z" fill="#3943B3"/>
<path d="M653.704 230.014C653.704 230.014 646.36 223.399 637.412 236.718C628.464 250.038 622.611 256.313 622.611 256.313L588.649 237.599L585.102 244.8C585.102 244.8 615.697 279.768 625.436 277.421C635.152 275.073 675.645 232.226 653.704 230.014Z" fill="#FFB939"/>
<path d="M585.329 245.071C585.329 245.071 568.879 232.407 576.72 234.642C580.268 235.657 583.408 238.344 584.651 237.238C585.871 236.154 583.273 235.138 582.821 232.723C582.414 230.533 590.142 238.75 590.142 238.75L585.329 245.071Z" fill="#FFB780"/>
<g opacity="0.1">
<path d="M596.806 248.525L610.906 261.686L594.953 254.236L596.806 248.525Z" fill="black"/>
</g>
<g opacity="0.1">
<path d="M621.527 269.136L638.52 253.762V257.826L630.024 271.416L621.527 269.136Z" fill="black"/>
</g>
<path d="M583.227 244.823L586.729 247.464L593.214 239.54L589.712 236.922L583.227 244.823Z" fill="#FFB939"/>
<path d="M646.634 224.664C652.306 222.587 668.395 221.232 670.88 234.958C673.14 247.487 668.372 258.39 666.497 267.285C665.163 273.628 664.44 283.177 664.44 283.177C664.44 283.177 653.91 295.616 634.297 290.04L635.562 268.752L636.895 256.968C635.811 243.581 636.127 241.933 638.522 235.206C639.517 232.384 643.177 226.334 645.866 225.002C646.115 224.867 646.386 224.754 646.657 224.664H646.634Z" fill="#FFB939"/>
<path d="M637.981 246.538L636.309 245.274C636.309 236.718 639.834 224.889 653.617 223.828H654.047C636.309 227.26 637.981 246.313 637.981 246.538Z" fill="#3943B3"/>
<path d="M651.698 202.427L661.889 202.36L660.669 223.603C660.624 224.235 660.488 224.98 659.923 225.363C655.743 228.366 652.195 226.898 652.195 226.898C648.761 226.086 651.246 224.506 651.766 220.645L651.721 202.405L651.698 202.427Z" fill="#FFB780"/>
<path d="M650.409 197.642C645.46 203.85 644.896 209.313 645.054 215.002C645.257 222.203 654.838 222.293 660.939 218.501C666.362 215.137 668.893 208.952 667.56 203.082C665.82 195.474 655.719 190.937 650.386 197.642H650.409Z" fill="#FFB780"/>
<g opacity="0.1">
<path d="M651.242 222.767L657.049 220.419L651.694 220.961L651.242 222.767Z" fill="black"/>
</g>
<path d="M647.133 204.482C647.133 204.482 645.032 206.152 642.953 208.884C642.953 208.884 643.834 210.735 645.665 211.344L647.133 204.482Z" fill="#FFB780"/>
<path d="M668.668 201.953C668.284 192.133 651.223 192.224 649.167 193.849C645.19 196.942 648.399 200.441 648.399 200.441L649.235 199.809C649.37 199.741 649.529 199.673 649.709 199.606C652.218 199.967 661.008 201.773 658.319 208.703C657.641 210.441 659.132 211.254 660.917 211.344C661.075 213.444 661.075 215.701 660.714 217.959C660.465 219.584 669.255 217.914 668.645 201.976L668.668 201.953Z" fill="#411809"/>
<path d="M561.291 227.914L562.774 226.24L597.512 256.956L595.086 259.695L561.397 229.907C560.821 229.398 560.767 228.506 561.276 227.931L561.291 227.914Z" fill="#3943B3"/>
<path d="M596.042 247.035C597.036 247.915 597.601 249.18 597.579 250.489L597.511 256.945L562.758 226.221L572.768 227.779C573.943 227.959 575.028 228.479 575.931 229.269L596.019 247.035H596.042Z" fill="white"/>
<path d="M655.152 212.676C655.942 213.873 657.954 213.918 659.671 212.789C661.388 211.661 662.134 209.787 661.343 208.59C660.552 207.394 658.541 207.349 656.824 208.477C655.106 209.606 654.361 211.48 655.152 212.676Z" fill="#FFB780"/>
<path d="M664.529 288.663C664.529 288.663 665.162 273.628 666.495 267.285C667.24 263.718 668.461 259.835 669.5 255.659C656.846 254.507 644.667 249.338 636.329 244.958C636.238 247.69 636.442 251.257 636.894 256.945L634.295 268.729L630.68 290.311C650.271 295.887 664.529 288.663 664.529 288.663Z" fill="#3943B3"/>
<path d="M658.273 302.32L651.675 300.537C660.194 269.158 664.352 239.766 660.736 236.38C658.386 234.258 656.85 234.371 655.923 234.642C650.93 236.019 646.094 246.9 644.557 251.956L639.383 249.947C639.993 248.006 644.173 230.804 654.116 228.05C656.759 227.327 660.849 227.282 665.346 231.3C674.226 239.269 663.38 283.629 658.318 302.32H658.273Z" fill="#3943B3"/>
<path d="M656.486 232.339C656.486 232.339 649.82 232.339 642.59 246.651C635.359 260.964 631.585 264.779 631.585 264.779L597.51 249.767L591.59 257.442C591.59 257.442 628.038 288.505 636.534 283.245C652.396 273.447 678.518 231.865 656.486 232.362V232.339Z" fill="#FFB939"/>
<path d="M591.591 257.419C591.591 257.419 583.818 258.051 581.965 253.446C580.79 250.489 576.633 243.942 580.745 246.99C583.321 248.886 586.846 252.43 587.908 250.94C588.947 249.496 583.547 248.931 584.948 246.087L594.099 251.211L591.614 257.442L591.591 257.419Z" fill="#FFB780"/>
<path d="M588.902 259.383L592.766 261.415L599.251 249.947L595.387 247.915L588.902 259.383Z" fill="#FFB939"/>
<path d="M669.842 205.182L648.488 194.346C651.494 188.454 658.702 186.106 664.577 189.108C670.474 192.111 672.824 199.312 669.819 205.182" fill="#FFB939"/>
<path d="M660.237 187.867C661.706 188.002 663.198 188.409 664.599 189.108C670.496 192.111 672.846 199.312 669.841 205.182L664.282 202.36C666.564 197.145 664.802 191.095 660.215 187.844L660.237 187.867Z" fill="#FFA320"/>
<path d="M645.614 191.397L644.152 194.477L669.247 206.36L670.708 203.28L645.614 191.397Z" fill="#FFA320"/>
<path d="M612.856 403.545H572.59L585.696 337.266H599.728L612.856 403.545Z" fill="#EB4334"/>
<path d="M620.517 400.25H563.055V407.112H620.517V400.25Z" fill="#EB4334"/>
<path d="M612.856 403.545H572.59L585.696 337.266H599.728L612.856 403.545Z" fill="#EB4334"/>
<path d="M580.137 365.349H605.286L603.23 354.965H582.193L580.137 365.349Z" fill="white"/>
<path d="M575.348 389.639H610.101L608.044 379.255H577.404L575.348 389.639Z" fill="white"/>
<path d="M311.784 417C312.597 417 313.32 416.436 313.501 415.6L343.961 267.104C344.164 266.156 343.554 265.23 342.605 265.027C341.656 264.824 340.73 265.433 340.526 266.382L310.066 414.878C309.863 415.826 310.473 416.752 311.422 416.955C311.535 416.977 311.671 417 311.784 417Z" fill="#3943B3"/>
<path d="M340.821 281.394H384.793C385.765 281.394 386.556 280.604 386.556 279.633C386.556 278.662 385.765 277.872 384.793 277.872H340.821C339.849 277.872 339.059 278.662 339.059 279.633C339.059 280.604 339.849 281.394 340.821 281.394Z" fill="#4753DE"/>
<path d="M336.528 300.492H380.5C381.472 300.492 382.263 299.702 382.263 298.731C382.263 297.76 381.472 296.97 380.5 296.97H336.528C335.556 296.97 334.766 297.76 334.766 298.731C334.766 299.702 335.556 300.492 336.528 300.492Z" fill="#4753DE"/>
<path d="M332.845 319.59H376.817C377.788 319.59 378.579 318.8 378.579 317.829C378.579 316.859 377.788 316.069 376.817 316.069H332.845C331.873 316.069 331.082 316.859 331.082 317.829C331.082 318.8 331.873 319.59 332.845 319.59Z" fill="#4753DE"/>
<path d="M328.868 338.711H372.84C373.812 338.711 374.603 337.921 374.603 336.95C374.603 335.979 373.812 335.189 372.84 335.189H328.868C327.896 335.189 327.105 335.979 327.105 336.95C327.105 337.921 327.896 338.711 328.868 338.711Z" fill="#4753DE"/>
<path d="M325.114 357.809H369.086C370.058 357.809 370.849 357.019 370.849 356.048C370.849 355.078 370.058 354.288 369.086 354.288H325.114C324.142 354.288 323.352 355.078 323.352 356.048C323.352 357.019 324.142 357.809 325.114 357.809Z" fill="#4753DE"/>
<path d="M321.388 376.907H365.36C366.331 376.907 367.122 376.117 367.122 375.147C367.122 374.176 366.331 373.386 365.36 373.386H321.388C320.416 373.386 319.625 374.176 319.625 375.147C319.625 376.117 320.416 376.907 321.388 376.907Z" fill="#4753DE"/>
<path d="M317.591 396.006H361.563C362.535 396.006 363.325 395.215 363.325 394.245C363.325 393.274 362.535 392.484 361.563 392.484H317.591C316.619 392.484 315.828 393.274 315.828 394.245C315.828 395.215 316.619 396.006 317.591 396.006Z" fill="#4753DE"/>
<path d="M358.831 417C359.644 417 360.367 416.436 360.548 415.6L391.008 267.104C391.211 266.156 390.601 265.23 389.652 265.027C388.703 264.824 387.776 265.433 387.573 266.382L357.113 414.878C356.91 415.826 357.52 416.752 358.469 416.955C358.582 416.977 358.695 417 358.831 417Z" fill="#3943B3"/>
<path d="M503.715 171.794L512.708 194.662" stroke="#3943B3" stroke-width="2" stroke-miterlimit="10" stroke-linecap="round"/>
<path d="M480.008 166.308L482.968 171.432L503.327 170.733L518.263 157.436L516.026 149.941" stroke="#3943B3" stroke-miterlimit="10" stroke-linecap="round"/>
<path d="M517.723 148.542L478.066 166.06" stroke="#3943B3" stroke-miterlimit="10" stroke-linecap="round"/>
<path d="M512.209 158.881L489.025 168.611C485.681 170.01 481.794 168.43 480.393 165.089C478.992 161.748 480.574 157.865 483.918 156.465L507.102 146.736C510.446 145.336 514.333 146.916 515.734 150.257C517.135 153.598 515.553 157.481 512.209 158.881Z" fill="#FFA320"/>
<path d="M487.692 166.014L510.876 156.285C513.904 155.021 515.463 151.702 514.694 148.609C512.887 146.442 509.814 145.584 507.08 146.713L483.896 156.443C480.868 157.707 479.309 161.025 480.077 164.118C481.885 166.285 484.958 167.143 487.692 166.014Z" fill="#FFB939"/>
<path d="M482.587 378.42H452.489L446.953 337.266H488.123L482.587 378.42Z" fill="#3943B3"/>
<path d="M449.641 338.282C449.641 328.417 457.662 320.403 467.537 320.403C477.411 320.403 485.433 328.417 485.433 338.282" stroke="#3943B3" stroke-miterlimit="10"/>
<path d="M479.742 338.598C480.013 338.327 480.058 337.831 479.968 337.244H455.157C454.682 340.043 455.835 343.113 456.852 343.248C458.094 343.406 458.953 339.072 460.49 339.162C461.778 339.253 463.54 342.187 462.32 349.208C461.235 355.394 464.986 356.703 465.416 356.613C469.28 355.89 466.771 341.759 470.183 340.765C471.471 340.381 472.759 342.3 474.477 341.555C475.9 340.946 475.968 339.275 477.685 338.801C478.747 338.508 479.312 338.982 479.719 338.575L479.742 338.598Z" fill="#FFB939"/>
<path d="M505.775 300.244L525.163 303.675L539.76 296.135C539.76 296.135 538.313 285.841 538.381 282.974C538.585 276.066 541.906 260.535 537.003 249.451C533.388 241.301 526.654 245.003 518.158 247.69L508.577 248.728C508.577 248.728 493.211 239.45 503.945 282.206C505.165 287.083 505.798 300.221 505.798 300.221L505.775 300.244Z" fill="#FFB939"/>
<path d="M513.77 218.094C509.973 221.977 508.369 228.027 508.482 233.648C508.595 239.743 518.018 240.059 523.147 236.809C527.712 233.919 530.717 227.847 529.542 222.88C528.005 216.446 518.854 212.902 513.77 218.094Z" fill="#FFC69A"/>
<path d="M511.782 220.871C511.782 220.871 509.455 223.58 507.512 224.189C507.512 224.189 508.031 225.928 509.568 226.718L511.782 220.894V220.871Z" fill="#FFC69A"/>
<path d="M500.102 252.34L495.176 271.145L492.08 280.875L473.258 313.946L479.133 317.874L502.881 284.577L506.519 274.215L520.642 246.764C521.772 243.536 514.88 243.671 511.671 242.543C508.44 241.414 502.407 245.635 500.08 252.363L500.102 252.34Z" fill="#FFB939"/>
<path d="M474.07 312.547C474.07 312.547 466.953 320.403 471.833 319.884C475.245 319.5 472.782 319.003 472.782 319.003C472.782 319.003 467.924 323.27 470.071 323.18C472.218 323.112 476.737 325.008 477.821 322.073C479.155 318.529 479.765 316.452 479.765 316.452L474.07 312.524V312.547Z" fill="#FFC69A"/>
<path d="M474.92 308.833L472.363 312.583L480.749 318.29L483.305 314.539L474.92 308.833Z" fill="#FFB939"/>
<path d="M522.039 229.359L509.25 193.533L515.735 190.689L533.36 227.598L535.145 238.434L523.395 239.473L522.039 229.359Z" fill="#FFB939"/>
<path d="M533.179 264.44C529.812 265.005 526.626 262.724 526.061 259.361L523.395 239.473L535.145 238.434L538.896 255.794C539.46 259.158 536.568 263.876 533.179 264.44Z" fill="#FFB939"/>
<path d="M511.24 194.143C511.24 194.143 503.919 186.354 506.992 184.819L509.251 188.544C509.251 188.544 506.585 178.995 508.664 179.446C510.765 179.898 515.352 182.562 514.878 185.654C514.313 189.357 513.997 192.427 513.997 192.427L511.217 194.165L511.24 194.143Z" fill="#FFC69A"/>
<path d="M518.181 194.248L516.496 190.034L508.292 193.31L509.977 197.523L518.181 194.248Z" fill="#FFB939"/>
<path d="M512.305 233.829L513.209 253.988L524.235 250.466L519.038 232.068L512.305 233.829Z" fill="#FFC69A"/>
<path d="M515.852 291.281C516.44 268.188 513.479 249.902 511.627 242.52C510.271 242.091 508.463 242.565 506.633 243.739C508.395 250.647 511.333 267.285 510.723 291.146L515.852 291.281Z" fill="#3943B3"/>
<path d="M542.922 313.202C545.362 295.684 538.606 283.832 538.606 283.832C527.263 290.13 504.915 288.685 504.915 288.685L501.752 318.281L500.012 351.082C500.012 351.082 500.757 369.435 508.485 393.838L517.23 392.439C517.23 392.439 518.812 375.124 515.852 350.427C515.852 350.427 520.235 332.774 522.631 323.676C522.789 323.067 525.387 322.119 525.523 321.622C525.523 321.622 538.561 320.922 542.945 313.224L542.922 313.202Z" fill="#3943B3"/>
<path d="M528.168 393.567L535.805 392.439C535.805 392.439 539.376 374.537 535.828 350.946C535.828 350.946 541.906 337.537 542.403 316.294C542.607 315.256 542.765 314.217 542.901 313.224C538.517 320.922 525.479 321.622 525.479 321.622L519.875 352.594C519.875 352.594 522.18 367.471 528.145 393.59L528.168 393.567Z" fill="#3943B3"/>
<path d="M529.838 320.967C527.33 321.486 525.522 321.577 525.522 321.577L519.918 352.549C519.918 352.549 522.2 367.268 528.098 393.093C528.979 392.506 529.725 391.784 530.086 390.926C530.855 389.143 529.68 387.992 528.233 382.303C527.33 378.758 527.804 379.278 526.38 372.144C525.296 366.681 524.754 363.949 524.234 362.618C522.765 358.87 521.296 357.29 522.087 355.236C522.833 353.272 524.844 352.956 524.867 351.24C524.867 349.795 523.443 349.208 522.72 347.854C520.957 344.626 524.482 339.591 525.499 338.011C527.601 334.738 529.657 329.523 529.883 320.945L529.838 320.967Z" fill="#4753DE"/>
<path d="M508.461 393.838L510.11 399.211L516.211 398.737L516.189 392.687L508.461 393.838Z" fill="#FFC69A"/>
<path d="M499.039 407.225C499.039 407.225 499.107 403.613 505.908 402.484C509.501 401.898 507.648 399.234 507.648 399.234L514.337 397.179L507.965 408.422L499.039 407.225Z" fill="#FFB939"/>
<path d="M515.424 397.112C510.905 397.112 511.244 400.949 510.566 403.365C510.566 403.365 507.38 407.925 500.578 407.406C502.205 407.632 504.804 407.993 506.86 408.264C508.939 408.557 511.04 408.422 513.074 407.88L516.87 406.864C519.062 405.668 521.48 397.36 515.808 397.112C515.695 397.112 515.559 397.112 515.424 397.112Z" fill="#3943B3"/>
<path d="M499.47 407.293C499.854 407.361 500.216 407.383 500.577 407.406C499.221 407.225 498.543 407.135 499.47 407.293Z" fill="#FFA320"/>
<path d="M528.164 393.567L529.746 398.963L535.847 398.489L535.824 392.439L528.164 393.567Z" fill="#FFC69A"/>
<path d="M518.652 406.977C518.652 406.977 518.72 403.365 525.522 402.236C529.114 401.649 527.262 398.985 527.262 398.985L533.973 396.931L527.6 408.173L518.675 406.977H518.652Z" fill="#FFB939"/>
<path d="M535.037 396.863C530.518 396.863 530.857 400.701 530.179 403.117C530.179 403.117 526.993 407.677 520.191 407.157C521.818 407.383 524.417 407.744 526.473 408.015C528.552 408.309 530.653 408.173 532.687 407.632L536.483 406.616C538.675 405.419 541.093 397.112 535.421 396.863C535.308 396.863 535.173 396.863 535.037 396.863Z" fill="#3943B3"/>
<path d="M519.083 407.045C519.467 407.112 519.829 407.135 520.19 407.157C518.835 406.977 518.157 406.887 519.083 407.045Z" fill="#FFA320"/>
<path d="M517.774 389.646L506.43 390.881L506.951 395.661L518.295 394.426L517.774 389.646Z" fill="#3943B3"/>
<path d="M537.422 388.54L526.078 389.775L526.6 394.556L537.944 393.32L537.422 388.54Z" fill="#3943B3"/>
<path d="M512.122 241.278L511.941 244.665C511.941 244.665 516.393 246.222 519.195 245.387C521.974 244.552 522.946 241.956 522.946 241.956L522.019 239.45C522.019 239.45 519.511 243.401 512.122 241.278Z" fill="white"/>
<path d="M514.293 213.331C514.293 213.331 507.763 219.223 515.762 225.273C515.762 225.273 518.722 227.44 514.338 232.678C513.434 233.739 513.434 235.319 514.338 236.38C517.004 239.495 522.834 244.078 529.026 234.416C531.895 229.946 532.279 224.686 529.884 221.571C527.579 218.591 525.478 216.92 521.93 215.679C518.699 214.573 517.004 214.956 514.27 213.308L514.293 213.331Z" fill="#411809"/>
<path d="M514.315 232.678C506.61 239.337 507.039 248.502 507.062 249.925C507.13 257.284 514.519 263.199 514.677 264.914C515.129 269.655 507.514 279.633 508.598 284.577C510.18 291.733 522.902 294.329 535.397 289.114C549.678 283.155 551.531 264.169 538.764 251.121C533.115 245.342 534.968 234.032 533.883 225.792C533.228 220.803 531.759 226.063 529.364 222.383C525.771 216.875 516.914 215.002 515.535 216.672C514.247 218.252 519.896 222.338 518.654 227.147C518.021 229.54 517.253 230.081 514.293 232.655L514.315 232.678Z" fill="#411809"/>
<path d="M518.134 227.124C518.654 228.117 518.066 229.427 516.846 230.059C515.626 230.691 514.202 230.397 513.705 229.404C513.186 228.411 513.773 227.102 514.993 226.469C516.213 225.837 517.637 226.131 518.134 227.124Z" fill="#FFC69A"/>
<path d="M533.206 229.359L514.406 214.527C518.496 209.335 526.043 208.455 531.218 212.563C536.415 216.65 537.296 224.189 533.184 229.359" fill="#FFB939"/>
<path d="M527.195 210.464C528.619 210.893 529.997 211.57 531.24 212.541C536.437 216.627 537.318 224.167 533.206 229.336L528.325 225.476C531.579 220.803 531.059 214.527 527.218 210.464H527.195Z" fill="#FFA320"/>
<path d="M512.173 211.109L510.133 213.841L532.39 230.433L534.431 227.701L512.173 211.109Z" fill="#FFA320"/>
</g>
<defs>
<clipPath id="clip0_1707_3793">
<rect width="678" height="417" fill="white"/>
</clipPath>
</defs>
</svg>
