<svg width="4229" height="4314" viewBox="0 0 4229 4314" fill="none" xmlns="http://www.w3.org/2000/svg">
<path d="M425.911 2694.4L294.212 2697.21L227.359 2698.31C204.975 2698.31 182.49 2698.31 160.105 2698.81H155.688V2694.3L155.086 2581.97V2576.95H160.105L293.008 2577.56C337.376 2577.56 381.643 2578.66 425.911 2579.16H428.722V2581.87C428.722 2600.94 427.818 2619.82 427.417 2638.59L425.911 2694.4ZM425.911 2694.4L424.506 2637.58C424.506 2618.91 423.401 2600.44 423.201 2582.07L425.911 2584.78C381.643 2585.28 337.376 2586.39 293.008 2586.39L160.105 2587.09L165.124 2582.07V2694.4L160.607 2689.88C182.49 2689.88 204.372 2689.88 226.356 2690.48L292.406 2691.59L425.911 2694.4Z" fill="#EBEBEB"/>
<path d="M277.653 2836.03L145.955 2838.84L79.1016 2839.95C56.7169 2839.95 34.2318 2839.95 11.8471 2840.45H7.43042V2835.93L6.82812 2723.61V2718.49H11.8471L144.75 2719.09C189.018 2719.09 233.385 2720.19 277.653 2720.7H280.464V2723.41C280.464 2742.48 279.661 2761.35 279.159 2780.12L277.653 2836.03ZM277.653 2836.03L276.248 2779.22C275.746 2760.55 275.144 2742.08 274.943 2723.71L277.653 2726.42C233.385 2726.92 189.018 2728.02 144.75 2728.02L11.8471 2728.73L16.8661 2723.71L16.3642 2836.03L11.8471 2831.52C33.7299 2831.52 55.6127 2831.52 77.5959 2832.12L143.646 2833.22L277.653 2836.03Z" fill="#EBEBEB"/>
<path d="M2278.12 673.95L2146.32 676.76L2079.47 677.864C2057.19 677.864 2034.7 677.864 2012.32 678.467H2007.8V673.95L2007.3 562.126V557.107H2012.42L2145.32 557.81C2189.59 557.81 2233.85 558.914 2278.22 559.416H2280.93V562.126C2280.93 581.199 2280.03 600.17 2279.63 618.941L2278.12 673.95ZM2278.12 673.95L2277.02 617.235C2277.02 598.564 2275.91 580.094 2275.71 561.624L2278.52 564.435C2234.16 564.435 2189.89 566.041 2145.62 566.041L2012.72 566.643L2017.74 561.624L2017.13 673.95L2012.72 669.533C2034.6 669.533 2056.38 669.533 2078.37 669.533L2144.42 670.637L2278.12 673.95Z" fill="#EBEBEB"/>
<path d="M2129.86 815.586L1998.06 818.397L1931.21 819.501C1908.83 819.501 1886.44 819.501 1863.96 820.103H1859.54V815.586L1858.94 703.261V698.242H1863.96L1996.86 698.945C2041.23 698.945 2085.49 700.049 2129.76 700.551H2132.57V703.261C2132.57 722.333 2131.67 741.305 2131.27 760.076L2129.86 815.586ZM2129.86 815.586L2128.36 758.872C2128.36 740.201 2127.25 721.631 2127.05 703.261L2129.76 706.072C2085.49 706.072 2041.23 707.678 1996.86 707.678L1863.96 708.28L1868.98 703.261V815.586L1864.46 811.17C1886.44 811.17 1908.22 811.17 1930.21 811.17L1995.96 813.077L2129.86 815.586Z" fill="#EBEBEB"/>
<path d="M1982.11 673.95L1850.41 676.76L1783.55 677.864C1761.17 677.864 1738.68 677.864 1716.3 678.467H1711.88V673.95L1711.28 562.126V557.107H1716.3L1849.2 557.81C1893.47 557.81 1937.84 558.914 1982.11 559.416H1984.92V562.126C1984.92 581.199 1984.11 600.17 1983.61 618.941L1982.11 673.95ZM1982.11 673.95L1980.7 617.235C1980.7 598.564 1979.6 580.094 1979.4 561.624L1982.11 564.435C1937.84 564.435 1893.47 566.041 1849.2 566.041L1716.3 566.643L1721.32 561.624V673.95L1716.8 669.533C1738.68 669.533 1760.57 669.533 1782.55 669.533L1848.6 670.637L1982.11 673.95Z" fill="#EBEBEB"/>
<path d="M4200.9 2836.03L4069.1 2838.84L4002.25 2839.95C3979.97 2839.95 3957.48 2839.95 3935.1 2840.45H3930.58V2835.93L3930.08 2723.61V2718.49H3935.1L4068 2719.09C4112.27 2719.09 4156.64 2720.19 4200.9 2720.7H4203.61V2723.41C4203.61 2742.48 4202.81 2761.35 4202.31 2780.12L4200.9 2836.03ZM4200.9 2836.03L4199.5 2779.22C4199.5 2760.55 4198.29 2742.08 4198.19 2723.71L4200.9 2726.42C4156.64 2726.92 4112.27 2728.02 4068 2728.02L3935.1 2728.73L3940.12 2723.71L3939.51 2836.03L3935.1 2831.52C3956.98 2831.52 3978.86 2831.52 4000.75 2832.12L4066.8 2833.22L4200.9 2836.03Z" fill="#EBEBEB"/>
<path d="M4052.64 117.043L3920.84 119.753L3853.99 120.958C3831.7 120.958 3809.22 120.958 3786.83 121.46H3782.72V116.943V4.71787V0H3787.84L3920.74 0.602293C3965.01 0.602293 4009.28 1.70647 4053.64 2.20837H4056.35V4.91863C4056.35 23.8904 4055.45 42.8622 4055.05 61.6332L4052.64 117.043ZM4052.64 117.043L4051.23 60.2279C4050.73 41.5573 4050.03 23.0874 4049.83 4.71787L4052.64 7.42813C4008.27 7.42813 3964 9.0342 3919.74 9.0342L3786.83 10.038L3791.85 5.11936L3791.25 117.344L3786.83 112.927C3808.72 112.927 3830.5 112.927 3852.48 112.927L3918.53 114.132L4052.64 117.043Z" fill="#EBEBEB"/>
<path d="M4200.9 258.578L4069.1 260.987L4002.25 262.191C3979.97 262.191 3957.48 262.191 3935.1 262.693H3930.58V258.176L3930.08 145.951V140.832H3935.1L4068 141.434C4112.27 141.434 4156.64 142.539 4200.9 143.04H4203.61V145.751C4203.61 164.722 4202.81 183.694 4202.31 202.465L4200.9 258.578ZM4200.9 258.578L4199.5 201.863C4199.5 183.192 4198.29 164.722 4198.19 146.353L4200.9 149.063C4156.64 149.063 4112.27 150.669 4068 150.669L3935.1 151.272L3940.12 146.353L3939.51 258.578L3935.1 254.161C3956.98 254.161 3978.86 254.161 4000.75 254.161L4066.8 255.365L4200.9 258.578Z" fill="#EBEBEB"/>
<path d="M2556.78 2456.8L2424.98 2459.61L2358.13 2460.71C2335.84 2460.71 2313.36 2460.71 2290.97 2461.21H2286.45V2456.7L2285.95 2344.37V2339.25H2291.07L2423.98 2339.85C2468.24 2339.85 2512.51 2340.96 2556.88 2341.46H2559.59V2344.17C2559.59 2363.24 2558.68 2382.11 2558.28 2400.89L2556.78 2456.8ZM2556.78 2456.8L2555.37 2399.98C2554.87 2381.31 2554.17 2362.84 2553.97 2344.47L2556.78 2347.18C2512.41 2347.68 2468.14 2348.79 2423.87 2348.79L2290.97 2349.49L2295.99 2344.47L2295.39 2456.8L2290.97 2452.28C2312.85 2452.28 2334.64 2452.28 2356.62 2452.88L2422.67 2453.99L2556.78 2456.8Z" fill="#EBEBEB"/>
<path d="M2705.04 2598.43L2573.24 2601.14L2506.39 2602.35C2484.11 2602.35 2461.62 2602.35 2439.24 2602.85H2434.72V2598.33V2486.01V2480.89H2439.74L2572.64 2481.49C2616.91 2481.49 2661.28 2482.6 2705.54 2483.1H2708.25V2485.81C2708.25 2504.88 2707.45 2523.75 2706.95 2542.52L2705.04 2598.43ZM2705.04 2598.43L2703.64 2541.62C2703.13 2522.95 2702.43 2504.48 2702.33 2486.11L2705.04 2488.82C2660.77 2489.32 2616.41 2490.42 2572.14 2490.42L2439.24 2491.13L2444.25 2486.11L2443.65 2598.43L2439.24 2593.92C2461.12 2593.92 2483 2593.92 2504.88 2594.52L2570.93 2595.62L2705.04 2598.43Z" fill="#EBEBEB"/>
<path d="M425.911 117.043L294.212 119.753L227.359 120.958C204.975 120.958 182.49 120.958 160.105 121.46H155.688V116.943L155.086 4.71787V0H160.105H293.008C337.376 0 381.643 1.10418 425.911 1.60608H428.722V4.31634C428.722 23.2881 427.818 42.2599 427.417 61.031L425.911 117.043ZM425.911 117.043L424.506 60.2279C424.506 41.5573 423.401 23.0874 423.201 4.71787L425.911 7.42813C381.643 7.42813 337.376 9.0342 293.008 9.0342L160.105 10.038L165.124 5.11936V117.344L160.607 112.927C182.49 112.927 204.372 112.927 226.356 112.927L292.406 114.132L425.911 117.043Z" fill="#EBEBEB"/>
<path d="M1663.3 867.984H132.102V931.123H1663.3V867.984Z" fill="#EBEBEB"/>
<path d="M276.146 931.225H212.906V1140.12H276.146V931.225Z" fill="#EBEBEB"/>
<path d="M276.146 931.225H212.906V995.769H276.146V931.225Z" fill="#DBDBDB"/>
<path d="M1582.59 931.225H1519.35V1140.12H1582.59V931.225Z" fill="#EBEBEB"/>
<path d="M1582.59 931.225H1519.35V995.769H1582.59V931.225Z" fill="#DBDBDB"/>
<path d="M663.716 656.484L651.37 688.907L643.942 708.581L631.595 741.104L583.714 868.085H324.533L276.451 741.104L264.205 708.581L256.776 688.907L244.43 656.484L340.092 517.157L290.504 425.209H617.843L568.054 517.157L663.716 656.484Z" fill="#DBDBDB"/>
<path d="M663.716 656.484L651.37 688.907H256.776L244.43 656.484H663.716Z" fill="#A6A6A6"/>
<path d="M643.94 708.582L631.593 741.105H276.449L264.203 708.582H643.94Z" fill="#A6A6A6"/>
<path d="M1475.69 264.4H977.305V868.888H1475.69V264.4Z" fill="#DBDBDB"/>
<path d="M1418.67 319.51H1034.22V813.68H1418.67V319.51Z" fill="white"/>
<path d="M1049.18 319.51H1034.22V813.68H1049.18V319.51Z" fill="#C7C7C7"/>
<path d="M1490.64 264.4H1475.69V868.888H1490.64V264.4Z" fill="#C7C7C7"/>
<path d="M1108.8 868.387H730.062L811.069 409.049H1189.8L1108.8 868.387Z" fill="#DBDBDB"/>
<path d="M1072.86 826.427H780.758L847.009 451.006H1139.11L1072.86 826.427Z" fill="white"/>
<path d="M792.201 826.427H780.758L847.009 451.006H858.351L792.201 826.427Z" fill="#C7C7C7"/>
<path d="M1120.14 868.387H1108.8L1189.8 409.049H1201.15L1120.14 868.387Z" fill="#C7C7C7"/>
<path d="M4191.67 2229.54H4122.41V3955.57H4191.67V2229.54Z" fill="#C7C7C7"/>
<path d="M4122.4 2229.54H3001.26V3955.57H4122.4V2229.54Z" fill="#DBDBDB"/>
<path d="M4016.8 3839.53C3931.68 3907.99 3878.08 3817.65 3719.98 3817.65C3561.88 3817.65 3561.88 3836.92 3403.68 3836.92C3245.49 3836.92 3195.6 3978.86 3082.47 3868.44C2972.05 3760.93 3108.37 3709.14 3108.37 3555.05C3108.37 3400.97 3057.67 3400.87 3057.67 3246.79C3057.67 3092.7 3045.93 3092.6 3045.93 2938.52C3045.93 2784.44 3126.23 2784.34 3126.23 2630.25C3126.23 2476.17 3004.57 2457.3 3114.99 2349.69C3228.22 2239.27 3245.99 2280.63 3404.19 2280.63C3562.38 2280.63 3562.28 2304.42 3720.48 2304.42C3878.68 2304.42 3898.76 2236.86 4012.09 2347.28C4122.5 2454.79 4003.96 2476.07 4003.96 2630.15C4003.96 2784.24 4081.65 2784.24 4081.65 2938.42C4081.65 3092.6 4051.54 3092.5 4051.54 3246.69C4051.54 3400.87 4025.64 3399.26 4060.47 3549.43C4098.82 3715.56 4097.01 3774.99 4016.8 3839.53Z" fill="#C7C7C7"/>
<path d="M4042.7 2295.08C4042.7 2298.52 4043.72 2301.89 4045.64 2304.74C4047.55 2307.6 4050.27 2309.83 4053.45 2311.14C4056.63 2312.45 4060.12 2312.79 4063.49 2312.11C4066.87 2311.43 4069.96 2309.77 4072.38 2307.33C4074.81 2304.89 4076.45 2301.79 4077.11 2298.41C4077.77 2295.04 4077.41 2291.54 4076.08 2288.37C4074.75 2285.2 4072.51 2282.49 4069.64 2280.6C4066.77 2278.7 4063.41 2277.7 4059.97 2277.72C4057.69 2277.72 4055.44 2278.17 4053.34 2279.04C4051.24 2279.92 4049.33 2281.2 4047.72 2282.81C4046.12 2284.43 4044.85 2286.34 4043.99 2288.45C4043.13 2290.55 4042.69 2292.81 4042.7 2295.08Z" fill="#C7C7C7"/>
<path d="M3046.33 2295.08C3046.33 2298.52 3047.35 2301.88 3049.25 2304.73C3051.16 2307.59 3053.88 2309.81 3057.05 2311.13C3060.22 2312.44 3063.71 2312.79 3067.08 2312.12C3070.45 2311.45 3073.54 2309.79 3075.97 2307.36C3078.4 2304.94 3080.06 2301.84 3080.73 2298.47C3081.4 2295.1 3081.05 2291.61 3079.74 2288.44C3078.42 2285.27 3076.2 2282.55 3073.34 2280.65C3070.49 2278.74 3067.13 2277.72 3063.69 2277.72C3061.41 2277.71 3059.15 2278.15 3057.03 2279.01C3054.92 2279.88 3053 2281.16 3051.38 2282.78C3049.77 2284.39 3048.49 2286.31 3047.62 2288.42C3046.75 2290.54 3046.32 2292.8 3046.33 2295.08Z" fill="#C7C7C7"/>
<path d="M4042.7 3890.12C4042.68 3893.56 4043.69 3896.94 4045.59 3899.81C4047.49 3902.68 4050.2 3904.92 4053.38 3906.25C4056.55 3907.57 4060.05 3907.92 4063.43 3907.26C4066.81 3906.59 4069.91 3904.94 4072.35 3902.5C4074.78 3900.07 4076.44 3896.96 4077.11 3893.58C4077.77 3890.21 4077.42 3886.71 4076.09 3883.53C4074.77 3880.35 4072.53 3877.64 4069.65 3875.74C4066.78 3873.84 4063.41 3872.84 4059.97 3872.86C4057.7 3872.86 4055.46 3873.3 4053.36 3874.17C4051.27 3875.04 4049.36 3876.31 4047.76 3877.91C4046.16 3879.52 4044.89 3881.42 4044.02 3883.51C4043.15 3885.61 4042.7 3887.85 4042.7 3890.12Z" fill="#C7C7C7"/>
<path d="M3046.33 3890.12C3046.31 3893.56 3047.31 3896.93 3049.21 3899.8C3051.1 3902.67 3053.81 3904.91 3056.98 3906.24C3060.15 3907.57 3063.64 3907.92 3067.02 3907.27C3070.4 3906.61 3073.5 3904.96 3075.94 3902.54C3078.38 3900.11 3080.04 3897.02 3080.72 3893.65C3081.4 3890.28 3081.06 3886.78 3079.75 3883.6C3078.44 3880.42 3076.21 3877.7 3073.35 3875.79C3070.49 3873.88 3067.13 3872.86 3063.69 3872.86C3061.42 3872.84 3059.16 3873.28 3057.06 3874.14C3054.95 3875 3053.03 3876.27 3051.42 3877.88C3049.81 3879.48 3048.53 3881.39 3047.65 3883.49C3046.78 3885.59 3046.33 3887.85 3046.33 3890.12Z" fill="#C7C7C7"/>
<path d="M3649.01 3954.16H2797.19L2979.38 2642.7H3831.2L3649.01 3954.16Z" fill="#EBEBEB"/>
<path d="M3726.21 3954.16H3649.02L3831.21 2642.7H3908.4L3726.21 3954.16Z" fill="#DBDBDB"/>
<path d="M2826.4 166.229H2302.02V802.235H2826.4V166.229Z" fill="#DBDBDB"/>
<path d="M2766.47 224.248H2361.94V744.216H2766.47V224.248Z" fill="white"/>
<path d="M2377.7 224.248H2361.94V744.216H2377.7V224.248Z" fill="#C7C7C7"/>
<path d="M2842.16 166.229H2826.4V802.235H2842.16V166.229Z" fill="#C7C7C7"/>
<path d="M2573.24 628.578H2668.6V344.403H2573.24V628.578Z" fill="#DBDBDB"/>
<path d="M2715.28 440.166H2450.88V291.102H2715.28V440.166ZM2460.91 430.128H2705.24V301.14H2460.91V430.128Z" fill="#EBEBEB"/>
<path d="M4175.91 514.848H3651.52V1150.85H4175.91V514.848Z" fill="#DBDBDB"/>
<path d="M4115.98 572.969H3711.45V1092.94H4115.98V572.969Z" fill="white"/>
<path d="M3727.21 572.969H3711.45V1092.94H3727.21V572.969Z" fill="#C7C7C7"/>
<path d="M4191.67 514.848H4175.91V1150.85H4191.67V514.848Z" fill="#C7C7C7"/>
<path d="M3942.32 693.123H3846.96V977.298H3942.32V693.123Z" fill="#DBDBDB"/>
<path d="M4064.78 788.886H3800.38V639.621H4064.78V788.886ZM3810.42 778.848H4054.75V649.659H3810.42V778.848Z" fill="#EBEBEB"/>
<path d="M3501.15 340.488H2976.77V976.495H3501.15V340.488Z" fill="#DBDBDB"/>
<path d="M3441.23 398.609H3036.7V918.577H3441.23V398.609Z" fill="white"/>
<path d="M3052.46 398.609H3036.7V918.577H3052.46V398.609Z" fill="#C7C7C7"/>
<path d="M3516.92 340.488H3501.16V976.495H3516.92V340.488Z" fill="#C7C7C7"/>
<path d="M3281.52 533.018H3199.81V739.599H3281.52V533.018Z" fill="#EBEBEB"/>
<path d="M3372.57 806.051H3143V653.574H3372.57V806.051ZM3153.04 796.013H3362.53V663.612H3153.04V796.013Z" fill="#DBDBDB"/>
<path d="M2.3125 3955.57L528.403 3953.16L1054.39 3952.26L2106.38 3950.55L3158.36 3952.26L3684.35 3953.16L4210.44 3955.57L3684.35 3958.08L3158.36 3958.98L2106.38 3960.59L1054.39 3958.88L528.403 3958.08L2.3125 3955.57Z" fill="#263238"/>
<path d="M1790.37 4313.93C2641.24 4313.93 3331 4266.06 3331 4207.02C3331 4147.98 2641.24 4100.12 1790.37 4100.12C939.506 4100.12 249.742 4147.98 249.742 4207.02C249.742 4266.06 939.506 4313.93 1790.37 4313.93Z" fill="#EBEBEB"/>
<path d="M1965.24 2098.64C1965.24 2098.64 1704.25 2062.1 1765.58 1747.31C1765.58 1747.51 2056.79 1812.86 1965.24 2098.64Z" fill="#AF1EE0"/>
<path opacity="0.1" d="M1965.24 2098.64C1965.24 2098.64 1704.25 2062.1 1765.58 1747.31C1765.58 1747.51 2056.79 1812.86 1965.24 2098.64Z" fill="black"/>
<path d="M1952.09 2032.89C1947 2016.96 1941.07 2001.32 1934.32 1986.01C1934.32 1984.01 1933.82 1982 1933.72 1980.09C1933.72 1975.78 1932.91 1971.46 1932.61 1967.14C1931.91 1957.71 1931.31 1948.27 1930.71 1938.94C1929.6 1920.17 1928.4 1901.29 1928.1 1882.52C1928.14 1882.4 1928.16 1882.27 1928.14 1882.14C1928.12 1882.01 1928.08 1881.89 1928 1881.79C1927.93 1881.68 1927.83 1881.59 1927.72 1881.53C1927.6 1881.47 1927.47 1881.44 1927.34 1881.44C1927.21 1881.44 1927.09 1881.47 1926.97 1881.53C1926.86 1881.59 1926.76 1881.68 1926.68 1881.79C1926.61 1881.89 1926.56 1882.01 1926.55 1882.14C1926.53 1882.27 1926.55 1882.4 1926.59 1882.52C1926.59 1901.39 1926.09 1920.17 1926.59 1939.04C1926.59 1948.37 1927.49 1957.81 1928.2 1967.24C1928.2 1969.25 1928.2 1971.36 1928.2 1973.47C1913.58 1942.13 1896.07 1912.22 1875.9 1884.13C1867.02 1871.61 1857.5 1859.54 1847.39 1847.99C1837.35 1836.05 1826.11 1824.7 1815.57 1812.96C1814.87 1812.16 1813.76 1812.96 1814.47 1814.16C1833.19 1834.84 1849.99 1857.19 1864.66 1880.92C1872.59 1892.86 1880.11 1905.21 1887.24 1917.66L1885.53 1917.25C1882.42 1915.95 1879.31 1914.64 1876.2 1913.54L1854.92 1905.41C1840.97 1900.29 1826.91 1895.37 1812.96 1889.85C1812.16 1889.85 1811.55 1890.96 1812.96 1891.36C1826.81 1896.88 1840.46 1902.7 1854.22 1908.62L1874.29 1917.25C1877.6 1918.76 1881.02 1920.07 1884.33 1921.47C1886.53 1922.55 1888.86 1923.36 1891.26 1923.88C1896.48 1933.32 1901.29 1942.85 1906.51 1952.49C1918.62 1976.85 1929.25 2001.93 1938.33 2027.57C1939.04 2029.38 1939.64 2031.19 1940.24 2032.99C1933.38 2029.11 1926.23 2025.75 1918.86 2022.95L1891.96 2010.71C1873.69 2002.28 1855.52 1993.74 1837.95 1983.91C1837.77 1983.8 1837.55 1983.77 1837.34 1983.83C1837.13 1983.89 1836.96 1984.02 1836.85 1984.21C1836.74 1984.39 1836.72 1984.62 1836.77 1984.82C1836.83 1985.03 1836.97 1985.21 1837.15 1985.31C1855.12 1995.35 1872.69 2005.39 1890.55 2015.43C1899.59 2020.24 1908.62 2024.96 1917.76 2029.48C1925.34 2034.09 1933.61 2037.48 1942.25 2039.52C1950.93 2063.39 1956.66 2088.23 1959.31 2113.5C1962.23 2149.03 1961.92 2184.97 1962.73 2220.6C1962.73 2221.2 1963.63 2221.2 1963.73 2220.6C1966.24 2188.28 1967.75 2155.56 1967.85 2123.13C1967.59 2092.39 1962.26 2061.9 1952.09 2032.89Z" fill="#263238"/>
<path d="M1911.94 1847.89C1909.45 1866.28 1908.61 1884.86 1909.43 1903.4H1910.13C1911.24 1884.93 1911.44 1866.66 1913.54 1848.29C1913.65 1846.99 1912.14 1846.99 1911.94 1847.89Z" fill="#263238"/>
<path d="M1837.45 1863.65C1825.8 1859.18 1814.58 1853.67 1803.92 1847.19C1803.12 1846.59 1802.32 1847.99 1803.12 1848.6C1813.58 1855.61 1825.01 1861.06 1837.05 1864.76C1837.65 1864.96 1838.05 1863.95 1837.45 1863.65Z" fill="#263238"/>
<path d="M1973.57 2598.13C1973.57 2569.32 1972.87 2540.62 1972.57 2511.81C1971.96 2416.14 1971.16 2320.48 1969.45 2224.82C1968.12 2148.87 1966.34 2072.95 1964.13 1997.06C1964.13 1996.85 1964.07 1996.65 1963.96 1996.48C1963.86 1996.3 1963.71 1996.16 1963.53 1996.05C1963.53 1975.28 1963.53 1954.6 1963.53 1933.82C1963.53 1933.32 1962.93 1933.02 1962.33 1933.02C1961.72 1933.02 1961.12 1933.02 1961.12 1933.92C1961.12 1954.6 1961.12 1975.34 1961.12 1996.15C1961.12 1996.15 1960.52 1996.15 1960.52 1997.06C1956.71 2132.27 1953.29 2267.38 1952.49 2402.59C1952.49 2430.1 1952.49 2457.6 1952.49 2485C1951.62 2573.14 1951.29 2661.27 1951.49 2749.41C1951.49 2763.46 1951.49 2777.51 1951.49 2791.56C1951.49 2871.87 1952.29 2952.77 1952.29 3033.48C1952.29 3037.8 1957.11 3039.9 1962.33 3040.11C1967.55 3040.31 1974.47 3038 1974.47 3033.08C1974.47 2944.14 1975.08 2855.21 1975.08 2766.37C1973.87 2710.26 1974.07 2654.24 1973.57 2598.13Z" fill="#263238"/>
<path d="M1864.76 2510.7C1864.76 2510.7 1739.38 2417.75 1620.43 2480.59C1501.48 2543.43 1482.71 2785.24 1482.71 2785.24C1482.71 2785.24 1657.47 2810.24 1767.49 2705.54C1873.49 2604.56 1864.76 2510.7 1864.76 2510.7Z" fill="#AF1EE0"/>
<path d="M1898.88 2516.42C1875.85 2507.29 1850.92 2504.01 1826.31 2506.89C1821.23 2506.04 1816.1 2505.53 1810.95 2505.38L1793.28 2504.08C1781.04 2503.17 1768.89 2502.47 1756.75 2501.47C1731.95 2499.66 1707.16 2498.15 1682.47 2495.64C1681.56 2495.64 1681.46 2497.15 1682.47 2497.25C1706.96 2500.36 1731.25 2503.88 1755.74 2506.28C1768.39 2507.59 1780.94 2508.89 1793.59 2509.8L1802.82 2510.7C1799.01 2511.5 1795.29 2512.41 1791.68 2513.41C1772 2519.14 1752.96 2526.88 1734.86 2536.5C1724.83 2538.31 1714.79 2541.02 1705.45 2543.32C1689.89 2547.04 1674.54 2550.95 1659.08 2555.07C1628.96 2563 1598.85 2572.03 1568.73 2580.77C1568.61 2580.72 1568.48 2580.71 1568.35 2580.72C1568.23 2580.74 1568.1 2580.79 1568 2580.86C1567.89 2580.93 1567.8 2581.03 1567.74 2581.15C1567.68 2581.26 1567.65 2581.39 1567.65 2581.52C1567.65 2581.65 1567.68 2581.78 1567.74 2581.89C1567.8 2582.01 1567.89 2582.11 1568 2582.18C1568.1 2582.25 1568.23 2582.3 1568.35 2582.32C1568.48 2582.33 1568.61 2582.32 1568.73 2582.27C1598.85 2574.94 1628.96 2568.12 1659.58 2560.89C1674.23 2557.38 1688.99 2553.97 1703.65 2550.35L1715.19 2547.64C1681.51 2568.52 1651.41 2594.68 1626.05 2625.13C1601.6 2655.11 1580.81 2687.9 1564.12 2722.8C1564.12 2723.71 1564.92 2724.61 1565.42 2723.71C1586.01 2687.78 1611.22 2654.71 1640.41 2625.34C1639.9 2627.04 1639.3 2628.65 1638.8 2630.35C1636.39 2637.68 1634.08 2645.11 1631.77 2652.44C1627.16 2667.29 1622.44 2681.95 1618.02 2696.81C1618.02 2697.81 1619.23 2698.11 1619.63 2696.81C1624.85 2682.55 1629.67 2668.1 1634.99 2653.74C1637.39 2646.62 1639.9 2639.59 1642.41 2632.56C1643.72 2628.85 1644.92 2625.24 1646.13 2621.52L1647.33 2618.21C1661.32 2604.62 1676.18 2591.94 1691.8 2580.26C1712.47 2565.07 1734.8 2552.28 1758.35 2542.12L1757.15 2548.54C1755.84 2554.27 1754.64 2559.99 1753.43 2565.71C1750.92 2577.55 1748.62 2589.5 1746.31 2601.34C1741.59 2625.64 1738.68 2650.23 1734.16 2674.42C1734.16 2675.42 1735.47 2675.83 1735.67 2674.42C1741.29 2650.03 1748.52 2626.04 1754.04 2601.55C1756.75 2589.3 1759.46 2577.15 1761.97 2564.91C1763.17 2559.08 1764.38 2553.36 1765.48 2547.64C1766.18 2544.43 1766.88 2541.32 1767.29 2538.11C1769.49 2537.2 1771.8 2536.1 1774.11 2535.29C1806.94 2523.05 1843.27 2514.22 1878.41 2520.94C1894.95 2524.02 1910.48 2531.12 1923.63 2541.63C1936.78 2552.13 1947.14 2565.71 1953.79 2581.17C1955 2583.88 1959.31 2582.17 1958.61 2579.36C1951.58 2550.35 1926.49 2527.97 1898.88 2516.42Z" fill="#263238"/>
<path d="M1706.96 2619.91L1696.42 2667.59C1692.46 2682.84 1689.54 2698.33 1687.69 2713.97C1687.69 2714.57 1688.49 2714.57 1688.69 2713.97C1693.29 2698.67 1696.85 2683.08 1699.33 2667.29C1702.44 2651.53 1705.45 2635.87 1708.57 2620.22C1708.59 2620.11 1708.59 2620 1708.56 2619.9C1708.54 2619.79 1708.5 2619.69 1708.44 2619.6C1708.38 2619.51 1708.3 2619.44 1708.21 2619.38C1708.12 2619.32 1708.02 2619.28 1707.91 2619.26C1707.81 2619.24 1707.7 2619.24 1707.6 2619.27C1707.49 2619.29 1707.39 2619.33 1707.3 2619.39C1707.21 2619.45 1707.14 2619.53 1707.08 2619.62C1707.02 2619.71 1706.98 2619.81 1706.96 2619.91Z" fill="#263238"/>
<path d="M1585.7 2660.07C1569.74 2668.2 1554.28 2677.43 1537.62 2684.06C1537.5 2684.09 1537.39 2684.14 1537.3 2684.22C1537.21 2684.3 1537.14 2684.39 1537.09 2684.5C1537.04 2684.61 1537.01 2684.73 1537.02 2684.85C1537.02 2684.97 1537.05 2685.09 1537.1 2685.19C1537.15 2685.3 1537.23 2685.39 1537.32 2685.47C1537.42 2685.54 1537.53 2685.59 1537.65 2685.62C1537.76 2685.64 1537.88 2685.64 1538 2685.62C1538.12 2685.59 1538.23 2685.54 1538.32 2685.46C1554.68 2678.06 1570.63 2669.78 1586.1 2660.67C1586.1 2660.67 1586.1 2660.07 1585.7 2660.07Z" fill="#263238"/>
<path d="M1892.96 2340.06C1892.96 2340.06 1739.68 2350.09 1668.41 2248.81C1597.14 2147.53 1613.11 2003.48 1613.11 2003.48C1613.11 2003.48 1773.71 2023.06 1838.06 2095.63C1902.4 2168.21 1892.96 2340.06 1892.96 2340.06Z" fill="#AF1EE0"/>
<path d="M1964.83 2491.23C1959.51 2474.87 1952.99 2458.7 1946.77 2442.54C1940.54 2426.38 1934.42 2411.83 1927.69 2396.67C1914.04 2365.75 1898.72 2335.6 1881.82 2306.33C1870.98 2287.66 1859.43 2269.59 1847.49 2251.82C1847.49 2249.11 1846.69 2246.4 1846.29 2243.59C1845.58 2238.87 1844.88 2234.16 1844.08 2229.44C1842.57 2219.4 1840.86 2210.06 1839.26 2200.33C1835.75 2179.15 1831.43 2158.17 1828.02 2136.99C1828.02 2135.98 1826.31 2135.98 1826.41 2136.99C1829.52 2157.97 1831.63 2178.95 1834.54 2199.93C1836.05 2209.96 1837.35 2220.5 1838.96 2230.74C1838.96 2234.46 1840.06 2238.17 1840.66 2241.88C1817.27 2207.69 1791.97 2174.85 1764.88 2143.51L1753.63 2130.96C1753.24 2129.77 1752.77 2128.59 1752.23 2127.45L1748.92 2118.72L1742.29 2100.45C1737.98 2088.4 1734.16 2076.36 1730.85 2064.01C1730.85 2063.01 1729.14 2064.01 1729.34 2064.51C1732.45 2077.06 1735.67 2089.61 1739.38 2102.06C1741.19 2107.98 1743.09 2113.9 1745.2 2119.82C1745.2 2120.83 1746.01 2121.83 1746.31 2122.83C1726.73 2101.45 1706.15 2080.87 1686.08 2060.5C1685.38 2059.8 1684.27 2061 1684.97 2061.7C1724.63 2103.11 1760.94 2147.58 1793.59 2194.71C1789.87 2193.51 1786.08 2192.54 1782.24 2191.79C1770.4 2189.49 1758.55 2187.88 1746.61 2186.37C1721.61 2183.16 1696.42 2180.05 1671.93 2176.34C1670.92 2176.34 1670.52 2177.74 1671.93 2177.94C1695.61 2182.56 1719.2 2187.98 1742.79 2193.4C1753.84 2195.91 1765.08 2198.12 1776.22 2200.33C1785.34 2202.3 1794.32 2204.85 1803.12 2207.96L1810.65 2218.6C1821.89 2234.96 1832.63 2251.62 1843.27 2268.79L1827.61 2265.77C1815.77 2263.47 1803.92 2261.26 1791.98 2259.35C1768.59 2255.44 1745.2 2251.42 1721.71 2246.2C1721.56 2246.26 1721.43 2246.36 1721.33 2246.49C1721.24 2246.63 1721.19 2246.79 1721.19 2246.95C1721.19 2247.12 1721.24 2247.28 1721.33 2247.41C1721.43 2247.55 1721.56 2247.65 1721.71 2247.71C1745.2 2253.23 1768.39 2259.65 1791.98 2265.77C1803.12 2268.79 1814.46 2271.6 1825.81 2274.01L1842.87 2277.72C1845.14 2278.35 1847.46 2278.75 1849.8 2278.92C1872.08 2315.16 1893.16 2352.4 1912.64 2390.25C1921.2 2406.91 1929.43 2423.64 1937.33 2440.44C1945.56 2457.8 1952.59 2475.57 1960.12 2493.24C1960.52 2496.55 1965.84 2495.14 1964.83 2491.23Z" fill="#263238"/>
<path d="M1808.05 2139.1C1805.14 2124.54 1802.02 2109.88 1798.81 2095.33C1798.81 2094.33 1797.1 2094.83 1797.31 2095.33C1800.12 2109.68 1802.93 2124.04 1805.54 2138.49C1807.7 2152.95 1810.62 2167.3 1814.27 2181.46C1813.23 2167.2 1811.15 2153.04 1808.05 2139.1Z" fill="#263238"/>
<path d="M1718.61 2134.88C1711.44 2131.4 1704.1 2128.28 1696.62 2125.54L1684.78 2121.03L1678.86 2118.62C1676.59 2117.99 1674.43 2117.05 1672.43 2115.81C1671.23 2114.9 1670.53 2117.01 1671.63 2117.21C1673.94 2117.78 1676.17 2118.66 1678.25 2119.82L1683.98 2122.43L1695.22 2127.45C1702.58 2130.84 1710.12 2133.82 1717.8 2136.38C1718 2136.49 1718.24 2136.51 1718.45 2136.45C1718.67 2136.38 1718.85 2136.23 1718.96 2136.03C1719.07 2135.83 1719.09 2135.6 1719.02 2135.38C1718.96 2135.17 1718.81 2134.98 1718.61 2134.88Z" fill="#263238"/>
<path d="M2049.76 2219.6C2049.76 2219.6 2142.51 2046.34 2283.64 2019.54C2424.78 1992.74 2511 2138.09 2511 2138.09C2511 2138.09 2408.11 2269.49 2278.62 2292.48C2149.13 2315.46 2049.76 2219.6 2049.76 2219.6Z" fill="#AF1EE0"/>
<path d="M2378.2 2097.14C2341.53 2092.21 2304.33 2092.69 2267.79 2098.54C2269.89 2097.34 2272 2096.13 2274.11 2095.13L2305.43 2078.97C2327.11 2067.72 2348.99 2055.68 2371.68 2046.64C2371.79 2046.61 2371.9 2046.56 2371.99 2046.48C2372.09 2046.4 2372.16 2046.31 2372.21 2046.2C2372.26 2046.09 2372.28 2045.97 2372.28 2045.85C2372.28 2045.73 2372.25 2045.62 2372.19 2045.51C2372.14 2045.4 2372.06 2045.31 2371.97 2045.23C2371.88 2045.16 2371.77 2045.11 2371.65 2045.08C2371.53 2045.06 2371.41 2045.06 2371.3 2045.09C2371.18 2045.11 2371.07 2045.16 2370.98 2045.24C2348.89 2055.28 2326.11 2064.11 2303.92 2074.25C2292.88 2079.37 2281.94 2084.29 2271.2 2090.41C2264.27 2094.12 2256.54 2097.54 2249.72 2101.95C2218.7 2108.35 2188.57 2118.46 2159.98 2132.07C2165.9 2125.64 2171.82 2119.32 2177.64 2112.9C2190.79 2098.44 2203.74 2083.38 2217.8 2070.23C2218.5 2069.53 2217.8 2068.43 2216.59 2069.13C2201.84 2082.58 2186.48 2094.93 2171.92 2109.28C2165 2116.11 2158.37 2123.03 2151.85 2130.26C2148.63 2133.87 2145.42 2137.59 2142.31 2141.4C2093.85 2167.34 2051.75 2203.71 2019.04 2247.88C1986.34 2292.06 1963.85 2342.95 1953.2 2396.87C1953.2 2397.87 1954.4 2398.38 1954.7 2397.37C1974.53 2331.34 2010.12 2271.13 2058.39 2221.91C2110.31 2168.97 2175.65 2131.15 2247.41 2112.49C2290 2101.64 2334.05 2097.64 2377.9 2100.65C2378.37 2100.69 2378.83 2100.54 2379.19 2100.24C2379.55 2099.94 2379.77 2099.51 2379.81 2099.04C2379.85 2098.58 2379.7 2098.11 2379.4 2097.76C2379.1 2097.4 2378.67 2097.18 2378.2 2097.14Z" fill="#263238"/>
<path opacity="0.1" d="M2511.11 2138.09C2511.11 2138.09 2408.12 2269.49 2278.63 2292.48C2179.85 2309.94 2098.64 2258.45 2065.62 2233.05L2058.49 2221.41C2058.49 2221.41 2125.35 2165.09 2251.62 2132.57C2377.9 2100.05 2511.11 2138.09 2511.11 2138.09Z" fill="black"/>
<path d="M2296.19 2035.4C2285.41 2041.77 2274.96 2048.67 2264.87 2056.08C2255.08 2063.55 2245.97 2071.88 2237.67 2080.98C2237.59 2081.14 2237.56 2081.33 2237.59 2081.52C2237.62 2081.7 2237.71 2081.87 2237.84 2082C2237.97 2082.14 2238.14 2082.22 2238.33 2082.25C2238.51 2082.29 2238.7 2082.26 2238.87 2082.18C2248.21 2074.05 2257.64 2065.92 2267.38 2058.19C2276.94 2050.41 2287 2043.27 2297.49 2036.81C2297.68 2036.64 2297.79 2036.4 2297.8 2036.14C2297.81 2035.89 2297.72 2035.64 2297.54 2035.45C2297.37 2035.27 2297.13 2035.16 2296.88 2035.15C2296.62 2035.14 2296.37 2035.23 2296.19 2035.4Z" fill="#263238"/>
<path d="M2373.68 2064.71C2368.47 2066.92 2363.04 2068.83 2357.82 2070.94L2342.17 2077.46C2341.06 2077.46 2341.56 2079.77 2342.67 2079.37L2358.43 2072.94C2363.75 2070.84 2368.47 2068.43 2374.09 2066.22C2375.09 2065.92 2374.59 2064.31 2373.68 2064.71Z" fill="#263238"/>
<path d="M2031.29 2437.62C2031.29 2437.62 2056.18 2609.88 2185.27 2669.5C2314.36 2729.13 2472.06 2669.5 2472.06 2669.5C2472.06 2669.5 2410.02 2297.8 2031.29 2437.62Z" fill="#AF1EE0"/>
<path d="M2383.02 2557.78C2371.08 2556.37 2359.23 2554.37 2347.39 2552.26L2330.02 2548.95C2327.11 2548.34 2324.1 2547.64 2320.99 2547.14L2310.95 2537.1C2286.45 2515.62 2260 2496.47 2231.95 2479.89C2216.65 2470.82 2200.83 2462.68 2184.57 2455.49H2186.68L2229.24 2457.4C2257.55 2458.71 2285.95 2459.31 2314.26 2461.11C2315.26 2461.11 2315.26 2459.61 2314.26 2459.51C2285.75 2457.6 2257.45 2454.49 2229.04 2452.08L2187.68 2449.27L2166.4 2447.46L2160.88 2446.86C2153.55 2444.05 2146.13 2441.54 2138.6 2439.13C2103.38 2427.08 2065.51 2424.99 2029.18 2433.11C1996.66 2441.44 1964.24 2463.22 1955.8 2497.05C1955.8 2498.25 1957.31 2499.06 1957.81 2497.85C1969.96 2469.14 2001.78 2454.79 2030.49 2448.87C2049.79 2445.16 2069.57 2444.75 2089.01 2447.66C2090.29 2456.53 2092.48 2465.24 2095.53 2473.66C2099.05 2485.71 2102.56 2497.85 2106.27 2509.9C2113.6 2534.09 2121.63 2557.98 2128.76 2582.17C2128.85 2582.34 2128.99 2582.48 2129.17 2582.55C2129.35 2582.62 2129.55 2582.63 2129.73 2582.57C2129.91 2582.51 2130.06 2582.38 2130.16 2582.22C2130.26 2582.05 2130.3 2581.86 2130.26 2581.67C2124.34 2557.58 2119.22 2533.19 2113.4 2509.1C2110.59 2497.15 2107.58 2485.41 2104.67 2473.56C2102.97 2465.28 2100.79 2457.1 2098.14 2449.07C2109.46 2451.09 2120.65 2453.74 2131.67 2457C2151.63 2462.87 2171.18 2470.05 2190.19 2478.48C2192.1 2490.73 2194.91 2502.87 2197.72 2514.92C2201.23 2530.08 2205.15 2545.03 2209.97 2559.99C2210.03 2560.17 2210.17 2560.33 2210.35 2560.41C2210.53 2560.5 2210.73 2560.51 2210.92 2560.44C2211.11 2560.37 2211.26 2560.24 2211.34 2560.06C2211.43 2559.88 2211.44 2559.67 2211.37 2559.49C2211.32 2558.55 2211.32 2557.61 2211.37 2556.68C2208.46 2542.62 2205.45 2528.57 2202.44 2514.52C2200.03 2503.27 2197.82 2491.83 2195.41 2480.59C2211.5 2487.75 2227.21 2495.72 2242.49 2504.48C2242.49 2507.89 2243.69 2511.5 2244.2 2514.52C2245.1 2520.44 2246.2 2526.26 2247.21 2532.18C2249.72 2545.43 2252.33 2558.58 2255.54 2571.73C2261.33 2597.08 2268.74 2622.02 2277.72 2646.42C2277.61 2646.56 2277.55 2646.73 2277.55 2646.92C2277.55 2647.1 2277.61 2647.28 2277.72 2647.42L2278.43 2648.32C2278.55 2648.43 2278.72 2648.5 2278.89 2648.52C2279.06 2648.53 2279.23 2648.49 2279.37 2648.4C2279.52 2648.31 2279.63 2648.18 2279.7 2648.02C2279.76 2647.86 2279.77 2647.69 2279.73 2647.52C2273.81 2622.02 2266.98 2596.73 2261.36 2571.23C2258.55 2558.48 2255.74 2545.73 2253.23 2532.89C2251.93 2526.46 2250.72 2520.04 2249.52 2513.61C2249.52 2511.81 2249.22 2509.9 2248.61 2507.89C2265.94 2518.15 2282.69 2529.34 2298.8 2541.42C2326.63 2562.35 2352.41 2585.88 2375.79 2611.68C2376.7 2612.69 2378.5 2611.68 2377.7 2610.08C2367.66 2597.13 2357.63 2584.48 2346.88 2572.54C2340.36 2565.61 2333.63 2558.88 2326.81 2552.46H2329.02C2335.04 2553.46 2341.06 2554.37 2347.19 2555.17C2359.13 2556.78 2371.18 2557.98 2383.12 2559.29C2383.62 2559.69 2384.03 2557.88 2383.02 2557.78Z" fill="#263238"/>
<path d="M2292.18 2616C2292.18 2614.49 2292.18 2613.09 2291.48 2611.58C2290.77 2610.08 2290.17 2607.87 2289.87 2605.96C2287.16 2594.52 2284.95 2582.97 2282.84 2571.33C2282.84 2570.53 2281.44 2570.73 2281.44 2571.33C2282.35 2586.73 2285.74 2601.88 2291.48 2616.2C2291.48 2616.7 2292.48 2616.2 2292.38 2616.2L2292.18 2616Z" fill="#263238"/>
<path d="M2184.07 2613.29C2184.04 2613.09 2183.95 2612.91 2183.8 2612.79C2183.65 2612.66 2183.46 2612.58 2183.26 2612.59C2179.65 2597.33 2176.14 2582.47 2173.23 2566.81C2171.52 2558.68 2169.91 2550.65 2168.31 2542.62L2165.9 2529.57C2165.57 2525.71 2164.65 2521.92 2163.19 2518.33C2163.11 2518.21 2162.99 2518.1 2162.86 2518.03C2162.73 2517.96 2162.58 2517.93 2162.44 2517.93C2162.29 2517.93 2162.14 2517.96 2162.01 2518.03C2161.88 2518.1 2161.76 2518.21 2161.68 2518.33C2161.55 2526.11 2162.64 2533.87 2164.89 2541.32C2166.5 2549.75 2168.11 2558.08 2170.01 2566.41C2173.73 2583.38 2177.94 2600.34 2182.76 2616.6C2182.76 2617.51 2184.57 2617.3 2184.47 2616.6C2184.37 2615.9 2184.17 2614.49 2184.07 2613.29Z" fill="#263238"/>
<path d="M2371.17 2508.29C2347.58 2505.08 2323.99 2501.67 2300.4 2498.76C2299.4 2498.76 2299 2500.16 2300.4 2500.26C2323.99 2503.77 2347.58 2506.69 2371.27 2509.8C2371.77 2509.5 2372.17 2508.39 2371.17 2508.29Z" fill="#263238"/>
<path d="M1965.03 2034.6C1965.03 2034.6 1886.03 1687.69 2258.74 1547.36C2258.74 1547.36 2362.04 2003.98 1965.03 2034.6Z" fill="#AF1EE0"/>
<path d="M2045.54 1837.85L2049.55 1835.45L2070.63 1823.7L2113.8 1799.51C2142.3 1783.55 2170.31 1766.99 2199.02 1751.43C2199.92 1751.43 2199.02 1749.62 2198.12 1750.12C2169.51 1765.68 2140.3 1780.24 2111.39 1795.59L2068.73 1818.18L2051.26 1827.31C2063.71 1803.83 2076.96 1780.64 2091.41 1758.35C2110.89 1728.24 2132.27 1700.33 2154.45 1672.73C2154.61 1672.48 2154.69 1672.18 2154.66 1671.88C2154.63 1671.58 2154.49 1671.3 2154.28 1671.09C2154.07 1670.88 2153.79 1670.75 2153.49 1670.72C2153.19 1670.69 2152.89 1670.76 2152.64 1670.92C2119.83 1702.72 2090.83 1738.23 2066.22 1776.72C2066.22 1775.42 2066.22 1774.21 2066.22 1773.11C2066.22 1764.48 2066.82 1755.84 2066.92 1747.21C2066.92 1730.25 2066.42 1713.28 2066.92 1696.42C2066.92 1696.21 2066.83 1696 2066.68 1695.85C2066.53 1695.7 2066.33 1695.62 2066.12 1695.62C2065.9 1695.62 2065.7 1695.7 2065.55 1695.85C2065.4 1696 2065.31 1696.21 2065.31 1696.42C2064.61 1713.08 2062.6 1729.64 2061.7 1746.61C2061.7 1754.94 2060.8 1763.27 2060.59 1771.6C2060.59 1776.12 2059.99 1781.64 2060.59 1786.16C2052.87 1798.3 2045.54 1810.75 2038.61 1823.3C2026.08 1846.02 2014.95 1869.49 2005.29 1893.57C2005.29 1884.93 2004.38 1876.3 2003.88 1867.67C2002.78 1848.7 2000.47 1829.72 1999.66 1810.75C1999.66 1809.75 1998.06 1809.75 1998.06 1810.75C1998.06 1829.82 1997.56 1848.8 1998.06 1867.77C1998.06 1877.3 1998.66 1886.74 1999.26 1896.28L1999.86 1906.31C1988.03 1937.32 1978.64 1969.21 1971.76 2001.67C1965.34 2036.34 1960.71 2071.32 1957.91 2106.47C1961.88 2074.8 1968.6 2043.53 1977.98 2013.02C1982.6 1996.66 1987.42 1980.39 1992.64 1964.23C2008.2 1956.9 2022.75 1947.77 2038.01 1939.44L2084.79 1913.94C2115.8 1896.88 2146.92 1879.51 2178.94 1864.46C2179.95 1863.95 2178.94 1862.65 2178.14 1863.05C2145.62 1877.81 2112.89 1891.76 2080.97 1907.82C2065.11 1915.75 2049.45 1924.28 2033.99 1933.01C2021.05 1940.34 2007.79 1947.67 1995.45 1956C1999.06 1945.26 2002.78 1934.42 2006.89 1923.88C2018.3 1894.56 2031.2 1865.85 2045.54 1837.85Z" fill="#263238"/>
<path d="M2014.12 1758.56C2014.12 1757.55 2012.41 1757.55 2012.51 1758.56C2013.82 1778.63 2014.52 1798.21 2016.63 1817.88C2016.63 1818.98 2018.43 1818.98 2018.33 1817.88C2017.73 1798 2016.03 1778.33 2014.12 1758.56Z" fill="#263238"/>
<path d="M2192.8 1824.81C2169.51 1834.14 2145.92 1843.07 2122.53 1852.81C2121.93 1852.81 2122.53 1854.12 2122.53 1853.92C2146.12 1845.08 2169.31 1835.45 2192.8 1826.31C2194.2 1825.91 2193.8 1824.4 2192.8 1824.81Z" fill="#263238"/>
<path d="M2228.23 1664.8C2205.44 1675.27 2183.31 1687.14 2161.98 1700.33C2160.88 1701.04 2161.98 1702.74 2162.99 1702.04C2184.57 1689.39 2206.65 1677.25 2229.04 1666.21C2230.04 1665.7 2229.14 1664.4 2228.23 1664.8Z" fill="#263238"/>
<path d="M2222.61 2784.74H1685.08V3351.28H2222.61V2784.74Z" fill="#37474F"/>
<path d="M1675.64 2985.2H1648.14V3955.67H1675.64V2985.2Z" fill="#263238"/>
<path d="M2256.74 2985.2H2229.23V3955.67H2256.74V2985.2Z" fill="#263238"/>
<path d="M1980.79 2985.2H1953.29V3955.67H1980.79V2985.2Z" fill="#263238"/>
<path d="M2242.99 3314.95H1661.89V3393.34H2242.99V3314.95Z" fill="#263238"/>
<path d="M3072.03 3198.1H2231.34V3237.85H3072.03V3198.1Z" fill="#AF1EE0"/>
<path opacity="0.3" d="M3072.03 3198.1H2231.34V3237.85H3072.03V3198.1Z" fill="black"/>
<path d="M2048.05 4149.9H2223.81L2750.91 312.482L2689.57 318.505L2048.05 4149.9Z" fill="#AF1EE0"/>
<path opacity="0.3" d="M2048.05 4149.9H2223.81L2750.91 312.482L2689.57 318.505L2048.05 4149.9Z" fill="black"/>
<path d="M2627.54 2542.22H2770.98L2943.33 35.4336L2892.04 40.9545L2627.54 2542.22Z" fill="#AF1EE0"/>
<path opacity="0.3" d="M2627.54 2542.22H2770.98L2943.33 35.4336L2892.04 40.9545L2627.54 2542.22Z" fill="black"/>
<path d="M3018.42 4149.9H3190.17L3094.41 274.438L3034.18 280.46L3018.42 4149.9Z" fill="#AF1EE0"/>
<g opacity="0.3">
<path d="M3018.42 4149.9H3190.17L3094.41 274.438L3034.18 280.46L3018.42 4149.9Z" fill="black"/>
</g>
<path opacity="0.3" d="M2460.61 2425.88L2452.38 2486.11H2326.6L2336.74 2425.88H2460.61Z" fill="black"/>
<path opacity="0.3" d="M2779.01 2425.88L2775.1 2486.11H2633.46L2639.89 2425.88H2779.01Z" fill="black"/>
<path opacity="0.3" d="M3149.11 2486.11H3025.24L3025.44 2425.88H3147.61L3149.11 2486.11Z" fill="black"/>
<path d="M3315.55 1148.24V1451.49L3799.38 3855.19H3937.9L3315.55 1148.24Z" fill="#AF1EE0"/>
<g opacity="0.3">
<path d="M3315.55 1148.24V1451.49L3799.38 3855.19H3937.9L3315.55 1148.24Z" fill="black"/>
</g>
<path opacity="0.3" d="M3529.26 2077.36L3500.15 2368.46L3315.55 1451.49V1148.24L3529.26 2077.36Z" fill="black"/>
<path d="M3415.52 2353.91H2081.67L2282.53 588.828H3460.99L3415.52 2353.91Z" fill="white"/>
<path d="M3420.44 2358.93H2076.26L2278.12 583.809H3466.12V589.028L3420.44 2358.93ZM2087.3 2348.89H3410.61L3455.78 593.847H2287.06L2087.3 2348.89Z" fill="#E9E9E9"/>
<path d="M3467.12 583.105L3515.5 667.425L3482.38 2353.91H3419.64L3467.12 583.105Z" fill="#DBDBDB"/>
<path d="M2012.31 2433.41H3545.82L3535.78 2353.91H2022.35L2012.31 2433.41Z" fill="#AF1EE0"/>
<path opacity="0.3" d="M2012.31 2433.41H3545.82L3535.78 2353.91H2022.35L2012.31 2433.41Z" fill="black"/>
<path d="M2493.94 599.067H3284.63L3274.59 519.566H2503.98L2493.94 599.067Z" fill="#AF1EE0"/>
<path opacity="0.3" d="M2493.94 599.067H3284.63L3274.59 519.566H2503.98L2493.94 599.067Z" fill="black"/>
<path d="M1767.19 4208.33C1744.81 4215.35 1108.4 4201.7 1084.61 4185.84C1075.57 4179.92 1072.16 4087.07 1071.26 3975.04C1071.26 3950.75 1071.26 3925.86 1071.26 3900.36C1071.26 3870.25 1071.26 3840.13 1071.86 3810.02C1073.57 3677.12 1077.58 3560.07 1077.58 3560.07L1491.85 3567.8L1487.03 3817.75L1485.22 3908.09L1481.71 3982.77C1481.71 3982.77 1722.62 4097 1747.42 4117.18C1772.21 4137.36 1789.58 4201.5 1767.19 4208.33Z" fill="#EB9481"/>
<path d="M1767.19 4208.33C1744.81 4215.35 1108.4 4201.7 1084.61 4185.84C1075.57 4179.92 1072.16 4087.07 1071.26 3975.04C1071.26 3950.75 1071.26 3925.86 1071.26 3900.36C1071.26 3870.25 1071.26 3840.13 1071.86 3810.02L1487.03 3817.75L1485.22 3908.09L1481.71 3982.77C1481.71 3982.77 1722.62 4097.01 1747.42 4117.18C1772.21 4137.36 1789.58 4201.5 1767.19 4208.33Z" fill="white"/>
<path d="M1769.1 4209.33C1754.54 4213.85 1483.41 4209.83 1286.17 4202C1240.49 4200.19 1198.74 4198.19 1165.11 4196.08C1118.63 4193.07 1087.62 4189.96 1082.6 4186.64C1071.45 4179.31 1068.64 4043.1 1068.74 3899.36L1485.12 3907.08L1481.61 3982.17C1481.61 3982.17 1724.23 4097 1748.82 4117.28C1773.41 4137.56 1791.58 4202.2 1769.1 4209.33Z" fill="#AF1EE0"/>
<path d="M1760.46 4183.53C1653.25 4178.61 1220.42 4168.88 1114.01 4172.09C1113.11 4172.09 1113.11 4172.69 1114.01 4172.79C1220.22 4180.02 1653.15 4186.24 1760.46 4185.34C1762.67 4185.24 1762.77 4183.63 1760.46 4183.53Z" fill="#263238"/>
<path d="M1497.27 3958.68C1455.21 3949.85 1403.51 3955.27 1370.59 3984.58C1369.28 3985.78 1370.59 3987.59 1372.29 3987.19C1412.9 3975.01 1454.7 3967.24 1496.96 3964C1497.59 3963.92 1498.17 3963.62 1498.6 3963.16C1499.03 3962.7 1499.29 3962.1 1499.32 3961.47C1499.36 3960.83 1499.17 3960.21 1498.8 3959.7C1498.42 3959.19 1497.88 3958.83 1497.27 3958.68Z" fill="#263238"/>
<path d="M1527.38 3977.65C1485.32 3968.82 1433.53 3974.24 1400.6 4003.65C1399.4 4004.76 1400.6 4006.56 1402.41 4006.16C1443.01 3993.97 1484.81 3986.2 1527.08 3982.97C1527.71 3982.89 1528.29 3982.59 1528.72 3982.13C1529.15 3981.67 1529.41 3981.07 1529.44 3980.44C1529.48 3979.81 1529.29 3979.18 1528.91 3978.67C1528.54 3978.17 1528 3977.8 1527.38 3977.65Z" fill="#263238"/>
<path d="M1557.4 3996.62C1515.34 3987.89 1463.64 3993.21 1430.72 4022.62C1429.41 4023.83 1430.72 4025.53 1432.42 4025.13C1473.09 4013.04 1514.91 4005.27 1557.2 4001.94C1557.82 4001.85 1558.39 4001.54 1558.81 4001.07C1559.23 4000.6 1559.47 4000 1559.5 3999.37C1559.52 3998.74 1559.32 3998.12 1558.94 3997.62C1558.56 3997.12 1558.01 3996.77 1557.4 3996.62Z" fill="#263238"/>
<path d="M1587.51 4015.7C1545.45 4006.86 1493.65 4012.29 1460.83 4041.7C1459.52 4042.8 1460.83 4044.61 1462.53 4044.21C1503.14 4032.03 1544.94 4024.25 1587.21 4021.02C1587.83 4020.94 1588.41 4020.64 1588.84 4020.18C1589.28 4019.71 1589.53 4019.11 1589.57 4018.48C1589.6 4017.85 1589.42 4017.23 1589.04 4016.72C1588.66 4016.21 1588.12 4015.85 1587.51 4015.7Z" fill="#263238"/>
<path d="M1577.37 3862.72C1561.21 3839.53 1530.09 3849.07 1512.22 3863.52C1481.85 3888.86 1458.69 3921.75 1445.07 3958.88C1445.07 3959.69 1445.07 3960.19 1446.07 3960.39C1446.02 3961.21 1446.15 3962.04 1446.48 3962.81C1446.81 3963.57 1447.31 3964.24 1447.95 3964.77C1448.58 3965.3 1449.34 3965.67 1450.15 3965.85C1450.96 3966.03 1451.8 3966.02 1452.6 3965.81C1487.73 3953.66 1526.78 3945.03 1557.09 3922.44C1574.86 3909.19 1592.53 3884.7 1577.37 3862.72ZM1502.09 3936.5C1484.92 3942.82 1467.56 3948.34 1450.69 3955.37C1463.14 3936.47 1476.54 3918.21 1490.84 3900.66C1497.9 3892.23 1505.55 3884.32 1513.73 3876.97C1526.48 3865.73 1576.77 3842.54 1568.34 3888.62C1564.32 3914.11 1522.46 3928.87 1502.09 3936.5Z" fill="#263238"/>
<path d="M1338.06 3945.53C1372.49 3961.09 1412.55 3961.19 1449.49 3965.61C1450.31 3965.62 1451.13 3965.44 1451.87 3965.09C1452.62 3964.73 1453.27 3964.2 1453.78 3963.55C1454.28 3962.9 1454.63 3962.14 1454.79 3961.33C1454.95 3960.52 1454.92 3959.68 1454.7 3958.88C1454.86 3958.82 1455.01 3958.72 1455.13 3958.6C1455.24 3958.47 1455.33 3958.33 1455.39 3958.17C1455.45 3958 1455.47 3957.83 1455.46 3957.66C1455.44 3957.49 1455.39 3957.33 1455.31 3957.18C1434.05 3923.85 1404.42 3896.68 1369.38 3878.38C1348.8 3868.34 1316.28 3865.43 1305.54 3891.53C1294.8 3917.63 1317.89 3936.4 1338.06 3945.53ZM1319.59 3915.42C1301.53 3872.15 1355.63 3884.1 1370.49 3892.23C1379.99 3897.75 1389.14 3903.85 1397.89 3910.5C1415.72 3924.6 1432.8 3939.61 1449.08 3955.47C1431.12 3952.16 1412.95 3950.45 1394.88 3947.84C1373.6 3944.93 1329.63 3938.91 1319.59 3914.82V3915.42Z" fill="#263238"/>
<path opacity="0.2" d="M1443.86 4207.02C1390.36 4205.72 1336.15 4203.91 1286.57 4202C1240.99 4200.3 1199.24 4198.19 1165.61 4196.08C1119.23 4193.07 1088.02 4190.06 1083.1 4186.64C1073.06 4180.22 1069.95 4074.92 1069.45 3952.36C1163.4 4015.2 1349 4142.38 1443.86 4207.02Z" fill="black"/>
<path d="M1522.26 3977.25H1049.47C1049.47 3977.25 1075.37 2682.35 1070.25 2657.86C1058.11 2598.63 789.188 1660.28 789.188 1660.28L1162.6 1666.71L1267.3 1669.02C1267.3 1669.02 1279.04 1825.21 1283.56 1841.77C1345.89 2069.43 1467.76 2458.1 1492.55 2602.25C1535.61 2852.49 1522.26 3977.25 1522.26 3977.25Z" fill="#263238"/>
<path d="M1506.91 3898.25C1433.23 3896.35 1171.94 3888.21 1073.57 3895.94C1072.86 3895.94 1072.86 3897.25 1073.57 3897.35C1107.29 3902.87 1433.13 3901.26 1506.91 3900.26C1507.04 3900.26 1507.17 3900.23 1507.29 3900.18C1507.41 3900.13 1507.52 3900.06 1507.62 3899.97C1507.71 3899.87 1507.78 3899.76 1507.83 3899.64C1507.88 3899.52 1507.91 3899.39 1507.91 3899.26C1507.91 3899.12 1507.88 3898.99 1507.83 3898.87C1507.78 3898.75 1507.71 3898.64 1507.62 3898.55C1507.52 3898.45 1507.41 3898.38 1507.29 3898.33C1507.17 3898.28 1507.04 3898.25 1506.91 3898.25Z" fill="#37474F"/>
<path d="M1107.4 2634.87C1093.24 2577.35 987.943 2218.9 955.721 2105.67C923.499 1992.44 893.285 1878.81 865.38 1764.38C861.866 1749.92 858.353 1735.47 854.438 1721.01C854.438 1719.81 852.431 1720.41 852.631 1721.01C863.272 1778.63 877.325 1835.65 890.776 1892.56C904.227 1949.48 918.782 2006.29 933.939 2063.21C964.454 2176.97 997.747 2289.8 1033.82 2401.69C1051.89 2457.5 1081.6 2572.33 1097.46 2628.65C1113.32 2684.96 1087.42 3842.24 1089.03 3857.2C1089.16 3857.99 1089.58 3858.71 1090.19 3859.22C1090.81 3859.74 1091.58 3860.03 1092.39 3860.03C1093.19 3860.03 1093.97 3859.74 1094.59 3859.22C1095.2 3858.71 1095.61 3857.99 1095.75 3857.2C1097.96 3748.28 1121.35 2691.69 1107.4 2634.87Z" fill="#37474F"/>
<path d="M1162.8 1667.21C1162.8 1667.21 1071.56 2663.18 1070.45 2658.36C1058.71 2601.04 805.953 1718.6 790.093 1663.5C790.093 1661.69 789.391 1660.79 789.391 1660.79L1162.8 1667.21Z" fill="#37474F"/>
<path d="M1264.78 4262.93C1242.3 4269.86 605.891 4256.21 582.201 4240.45C573.167 4234.53 569.653 4141.57 568.75 4029.65C568.75 4005.46 568.75 3980.46 568.75 3954.97C568.75 3924.85 568.75 3894.74 569.352 3864.63C571.059 3731.62 584.71 3614.68 584.71 3614.68L989.342 3622.31L984.524 3872.25L982.817 3962.6L979.304 4037.28C979.304 4037.28 1220.22 4151.51 1244.91 4171.79C1269.6 4192.06 1287.07 4256.11 1264.78 4262.93Z" fill="#EB9481"/>
<path d="M1264.78 4262.93C1242.3 4269.86 605.891 4256.21 582.201 4240.45C573.167 4234.52 569.653 4141.57 568.75 4029.65C568.75 4005.46 568.75 3980.46 568.75 3954.97C568.75 3924.85 568.75 3894.74 569.352 3864.62L984.524 3872.25L982.817 3962.6L979.304 4037.28C979.304 4037.28 1220.22 4151.51 1244.91 4171.79C1269.6 4192.06 1287.07 4256.11 1264.78 4262.93Z" fill="white"/>
<path d="M1266.7 4263.84C1252.04 4268.35 981.015 4264.34 783.668 4256.61C737.995 4254.8 696.237 4252.69 662.61 4250.69C616.234 4247.67 585.116 4244.56 580.097 4241.25C569.056 4233.82 566.145 4097.61 566.345 3953.96L982.721 3961.59L979.107 4036.68C979.107 4036.68 1221.83 4151.51 1246.32 4171.89C1270.81 4192.26 1289.08 4256.81 1266.7 4263.84Z" fill="#AF1EE0"/>
<path d="M1258.06 4238.04C1150.76 4233.12 717.919 4223.38 611.516 4226.7C610.713 4226.7 610.713 4227.3 611.516 4227.3C717.718 4234.53 1150.66 4240.85 1257.96 4239.85C1260.27 4239.85 1260.27 4238.24 1258.06 4238.04Z" fill="#263238"/>
<path d="M994.765 4013.19C952.806 4004.35 901.01 4009.78 868.086 4039.19C866.781 4040.29 868.086 4042.1 869.792 4041.7C910.43 4029.51 952.262 4021.74 994.564 4018.51C995.188 4018.41 995.758 4018.1 996.178 4017.63C996.597 4017.16 996.84 4016.56 996.864 4015.93C996.888 4015.3 996.691 4014.68 996.308 4014.18C995.925 4013.68 995.379 4013.33 994.765 4013.19Z" fill="#263238"/>
<path d="M1024.88 4032.16C982.823 4023.42 931.027 4028.75 898.203 4058.16C896.898 4059.26 898.203 4061.07 899.909 4060.67C940.526 4048.54 982.319 4040.76 1024.58 4037.48C1025.21 4037.4 1025.79 4037.1 1026.22 4036.64C1026.65 4036.17 1026.91 4035.57 1026.94 4034.94C1026.98 4034.31 1026.79 4033.69 1026.41 4033.18C1026.04 4032.67 1025.5 4032.31 1024.88 4032.16Z" fill="#263238"/>
<path d="M1054.99 4051.23C1012.93 4042.4 961.136 4047.82 928.211 4077.23C927.007 4078.33 928.211 4080.14 930.018 4079.74C970.621 4067.55 1012.42 4059.78 1054.69 4056.55C1055.32 4056.47 1055.9 4056.17 1056.33 4055.71C1056.76 4055.25 1057.01 4054.65 1057.05 4054.02C1057.09 4053.38 1056.9 4052.76 1056.52 4052.25C1056.15 4051.74 1055.61 4051.38 1054.99 4051.23Z" fill="#263238"/>
<path d="M1085.01 4070.2C1042.95 4061.47 991.252 4066.79 958.328 4096.2C957.023 4097.31 958.328 4099.11 960.034 4098.71C1000.65 4086.55 1042.44 4078.74 1084.71 4075.42C1085.29 4075.3 1085.81 4074.99 1086.2 4074.54C1086.59 4074.09 1086.81 4073.52 1086.85 4072.93C1086.88 4072.33 1086.72 4071.75 1086.39 4071.25C1086.06 4070.76 1085.57 4070.39 1085.01 4070.2Z" fill="#263238"/>
<path d="M1074.87 3917.22C1058.81 3894.04 1027.69 3903.67 1009.72 3918.03C979.374 3943.37 956.245 3976.26 942.666 4013.39C942.577 4013.54 942.53 4013.72 942.531 4013.9C942.533 4014.08 942.582 4014.25 942.674 4014.41C942.767 4014.56 942.898 4014.69 943.056 4014.77C943.213 4014.86 943.391 4014.9 943.57 4014.89C943.57 4018.11 946.481 4021.62 950.094 4020.31C985.227 4008.17 1024.27 3999.53 1054.69 3976.95C1072.46 3963.8 1090.12 3939.21 1074.87 3917.22ZM999.582 3991C982.417 3997.43 965.151 4002.95 948.187 4009.97C960.611 3991.02 974.014 3972.73 988.339 3955.17C995.397 3946.74 1003.04 3938.82 1011.23 3931.48C1023.97 3920.34 1074.26 3897.05 1065.83 3943.22C1061.52 3968.62 1020.06 3983.37 999.582 3991Z" fill="#263238"/>
<path d="M835.56 4000.04C870.091 4015.6 910.042 4015.7 946.982 4020.11C950.797 4020.62 952.804 4016.6 952.202 4013.39C952.373 4013.34 952.53 4013.25 952.66 4013.13C952.79 4013.01 952.888 4012.86 952.947 4012.69C953.006 4012.52 953.024 4012.34 952.999 4012.17C952.974 4011.99 952.907 4011.83 952.804 4011.68C931.568 3978.36 901.933 3951.22 866.879 3932.98C846.803 3922.95 813.878 3919.93 803.037 3946.03C792.196 3972.13 815.484 3991 835.56 4000.04ZM817.191 3969.92C799.022 3926.66 853.127 3938.6 867.983 3946.84C877.546 3952.26 886.704 3958.36 895.387 3965.11C913.236 3979.14 930.325 3994.12 946.581 4009.97C928.613 4006.66 910.444 4005.06 892.375 4002.45C870.794 3998.93 827.128 3993.41 817.191 3969.52V3969.92Z" fill="#263238"/>
<path d="M1006.71 4025.23L547.977 4016.8C547.977 4016.8 666.626 2133.27 660.904 2044.34C653.677 1935.32 656.989 1736.97 726.05 1659.28L1173.04 1667.51C1173.04 1667.51 1161.2 1812.46 1146.64 1858.23C1146.64 1858.23 1089.63 1892.76 1069.05 1904.11L1006.71 4025.23Z" fill="#263238"/>
<path d="M994.064 3944.03C924.501 3940.91 944.577 3940.81 874.913 3938.51C840.885 3937.3 617.038 3930.07 585.117 3934.59C584.93 3934.59 584.752 3934.66 584.62 3934.8C584.488 3934.93 584.414 3935.11 584.414 3935.29C584.414 3935.48 584.488 3935.66 584.62 3935.79C584.752 3935.92 584.93 3936 585.117 3936C616.837 3942.02 840.684 3945.43 874.713 3946.03C944.376 3946.94 924.903 3946.03 994.064 3946.03C994.331 3946.03 994.586 3945.93 994.774 3945.74C994.962 3945.55 995.068 3945.3 995.068 3945.03C995.068 3944.76 994.962 3944.51 994.774 3944.32C994.586 3944.13 994.331 3944.03 994.064 3944.03Z" fill="#37474F"/>
<path d="M1160.19 1847.59C1115.9 1868.01 1073.42 1892.15 1033.21 1919.76C1032.88 1919.95 1032.63 1920.26 1032.53 1920.63C1032.43 1921 1032.47 1921.39 1032.66 1921.72C1032.85 1922.05 1033.16 1922.3 1033.52 1922.4C1033.89 1922.51 1034.28 1922.46 1034.62 1922.27C1077.58 1899.59 1121.55 1877.5 1163.1 1852.51C1166.42 1850.6 1163.61 1846.09 1160.19 1847.59Z" fill="#37474F"/>
<path d="M1103.38 1840.16C1100.59 1848.77 1098.41 1857.56 1096.85 1866.46C1094.89 1873.38 1094.31 1880.61 1095.15 1887.74C1095.15 1889.05 1097.25 1889.05 1097.96 1887.74C1101.45 1881.06 1103.92 1873.88 1105.28 1866.46C1107.59 1858.33 1110 1850.2 1112.11 1841.97C1113.41 1836.95 1105.18 1834.84 1103.38 1840.16Z" fill="#37474F"/>
<path d="M1100.16 1796.8C1101.57 1789.37 1102.87 1781.94 1104.38 1774.51C1105.88 1767.09 1107.99 1759.16 1108.89 1751.43C1108.89 1750.22 1111 1750.52 1110.8 1751.43C1109.5 1758.86 1109.2 1766.58 1108.49 1774.11C1107.79 1781.64 1106.89 1789.27 1105.98 1796.8C1104.28 1810.85 1101.67 1825.01 1098.55 1838.86C1105.97 1837.73 1113.03 1834.95 1119.23 1830.73C1125.21 1824.99 1129.21 1817.5 1130.68 1809.35C1133.09 1800.91 1135.09 1792.28 1137.5 1783.85C1140.71 1774.58 1143.1 1765.04 1144.63 1755.34C1144.63 1754.14 1146.64 1754.54 1146.54 1755.34C1144.37 1775.79 1140.17 1795.96 1133.99 1815.57C1132.71 1823.44 1128.6 1830.58 1122.45 1835.65C1114.62 1839.69 1106.04 1842.05 1097.25 1842.57C1096.25 1843.07 1094.74 1842.57 1094.84 1841.37C1096.05 1826.91 1097.55 1811.66 1100.16 1796.8Z" fill="#37474F"/>
<path d="M733.478 2039.92C730.868 2007 726.15 1974.27 723.44 1941.45C717.954 1875.52 723.209 1809.14 738.999 1744.9C739.015 1744.67 738.949 1744.44 738.813 1744.25C738.677 1744.06 738.479 1743.92 738.253 1743.86C738.027 1743.8 737.788 1743.82 737.576 1743.92C737.364 1744.02 737.192 1744.19 737.092 1744.4C725.147 1801.32 714.607 1858.33 716.414 1916.75C718.22 1975.17 727.355 2032.09 727.154 2090.21C726.953 2148.33 721.332 2207.75 716.514 2266.28L701.858 2443.15C681.782 2680.04 663.714 3147.31 644.843 3384.31C639.623 3450.49 634.537 3516.64 629.585 3582.76C624.466 3650.11 616.636 3816.14 612.922 3883.9C612.922 3889.72 621.253 3889.42 621.856 3883.9C634.202 3765.15 644.04 3547.02 653.877 3427.97C663.714 3308.92 672.648 3192.18 681.983 3074.33C691.319 2956.49 700.654 2608.27 709.889 2490.32C714.506 2431.37 718.99 2372.44 723.34 2313.56C727.857 2254.83 733.378 2196.11 735.285 2137.29C736.455 2104.82 735.852 2072.32 733.478 2039.92Z" fill="#37474F"/>
<path d="M897.293 1743.7C897.211 1743.53 897.082 1743.39 896.923 1743.29C896.763 1743.19 896.578 1743.13 896.389 1743.13C896.201 1743.13 896.016 1743.19 895.856 1743.29C895.697 1743.39 895.568 1743.53 895.486 1743.7C892.663 1751.39 891.104 1759.5 890.869 1767.69C889.372 1776.49 887.156 1785.15 884.243 1793.59C879.036 1810.63 869.489 1826.02 856.539 1838.26C827.93 1864.05 790.087 1873.09 753.649 1881.32C752.244 1881.32 752.746 1883.43 753.649 1883.53C775.166 1884.85 796.73 1881.88 817.089 1874.8C835.261 1869.58 852.126 1860.58 866.577 1848.4C880.27 1835.75 889.764 1819.22 893.78 1801.02C895.89 1791.51 897.1 1781.84 897.393 1772.11C897.393 1767.49 897.393 1762.77 897.393 1758.15C898.294 1753.37 898.26 1748.47 897.293 1743.7Z" fill="#37474F"/>
<path d="M978.704 495.576C1017.95 466.165 1115.72 451.509 1178.06 516.756C1271.21 614.426 1222.03 930.723 1199.04 974.689C1199.04 974.689 983.121 1018.25 803.742 911.45C803.742 911.45 912.454 702.459 932.028 597.161C943.672 534.222 956.32 511.938 978.704 495.576Z" fill="#263238"/>
<path d="M909.34 680.375C908.437 682.382 907.634 684.29 906.73 686.197C894.978 710.597 881.034 733.881 865.073 755.76C850.445 777.072 832.833 796.172 812.775 812.475C812.775 812.475 811.47 812.475 812.072 811.672C831.758 794.06 848.469 773.383 861.559 750.44C875.289 728.569 887.724 705.911 898.8 682.583C921.608 635.363 938.466 585.494 948.99 534.121C948.99 533.118 950.897 533.419 950.797 534.121C949.894 541.349 948.89 548.576 947.685 555.703C947.831 555.683 947.979 555.698 948.118 555.748C948.256 555.798 948.38 555.881 948.479 555.99C948.578 556.099 948.649 556.23 948.685 556.373C948.722 556.515 948.723 556.664 948.689 556.807C941.319 604.772 929.076 651.859 912.151 697.339C893.903 742.32 869.659 784.628 840.078 823.115C823.876 844.669 806.377 865.218 787.68 884.648C839.654 824.042 880.808 754.942 909.34 680.375Z" fill="#263238"/>
<path d="M1151.36 503.506C1248.92 580.999 1263.88 711.693 1249.33 824.721C1241.67 869.911 1230.67 914.469 1216.4 958.026C1216.4 958.628 1215.2 958.026 1215.4 958.026C1230.05 898.902 1247.42 808.46 1244.71 747.228C1242.2 690.513 1234.07 631.289 1208.17 579.393C1194.55 550.877 1174.85 525.693 1150.45 505.614C1149.55 504.208 1150.45 502.702 1151.36 503.506Z" fill="#263238"/>
<path d="M1110.3 993.761C1128.07 1060.71 1266.6 1376.61 1400.6 1432.32C1480.91 1465.85 1760.46 1303.73 1806.34 1257.96C1827.42 1236.88 1699.43 1030.9 1670.42 1044.15C1637.3 1059.31 1452.1 1188.5 1438.75 1184.68C1415.86 1177.76 1275.03 1008.52 1173.84 938.05C1113.92 895.689 1097.76 946.281 1110.3 993.761Z" fill="#EB9481"/>
<path d="M1716.9 1300.02C1736.97 1296.51 1817.28 1283.56 1873.99 1220.22C1880.01 1168.02 1899.69 1058.31 1905.91 1031.2C1907.82 999.784 1919.56 953.71 1922.57 954.413C1928.2 955.818 1948.07 960.435 1972.76 964.451C2005.29 969.369 2045.94 972.782 2073.14 964.952C2079.58 963.871 2085.59 961.043 2090.53 956.777C2095.47 952.511 2099.14 946.971 2101.15 940.761C2106.37 918.577 2058.29 905.026 2002.68 883.846C1926.99 855.036 1840.36 815.888 1801.92 836.968C1745.6 868.186 1716.8 952.104 1701.54 977.5C1679.65 1013.64 1645.02 1059.51 1645.02 1059.51C1651.15 1215.7 1703.14 1302.53 1716.9 1300.02Z" fill="#EB9481"/>
<path d="M2152.95 990.749C2152.95 990.749 2052.57 971.576 1950.38 947.284C1848.19 922.992 1616.92 915.564 1611.7 922.591C1606.48 929.617 1835.34 983.722 1939.04 995.366C2042.73 1007.01 2147.73 1012.33 2147.73 1012.33L2152.95 990.749Z" fill="#AF1EE0"/>
<path d="M2155.35 989.947L2087.1 973.686L2081.98 1011.33L2150.94 1015.34L2155.35 989.947Z" fill="#DBDBDB"/>
<path d="M2155.36 989.947C2163.42 986.536 2172.18 985.094 2180.9 985.74C2189.63 986.386 2198.08 989.101 2205.55 993.661C2211.68 997.673 2218.57 1000.38 2225.79 1001.6C2233.01 1002.83 2240.4 1002.55 2247.51 1000.79C2247.51 1000.79 2198.82 1047.46 2150.74 1015.34L2155.36 989.947Z" fill="#263238"/>
<path d="M2250.32 1000.08C2246.71 998.378 2230.24 1004.4 2216.69 997.977C2203.14 991.553 2187.38 1031.5 2206.65 1026.38C2228.44 1020.56 2256.94 1003.8 2250.32 1000.08Z" fill="#455A64"/>
<path d="M1840.16 1246.92C1860.24 1234.77 1985.51 1125.66 1999.57 1090.73C2013.62 1055.8 2111.49 1000.39 2053.07 979.507C1994.65 958.628 1920.37 1057.6 1908.42 1046.16C1905.84 1041.63 1904.95 1036.33 1905.91 1031.2C1899.69 1058.3 1846.19 1194.52 1840.16 1246.92Z" fill="#EB9481"/>
<path d="M1268.6 1346.19L1374.4 1099.56C1374.4 1099.56 1275.73 998.077 1177.16 930.923C1078.58 863.768 1070.15 966.256 1141.62 1111C1213.09 1255.75 1268.6 1346.19 1268.6 1346.19Z" fill="#AF1EE0"/>
<path d="M1238.79 1277.63C1259.37 1223.43 1283.86 1170.63 1309.06 1118.33C1316.22 1103.54 1323.75 1088.95 1331.64 1074.57C1331.64 1074.57 1332.55 1074.57 1332.34 1074.57C1321.4 1101.47 1309.46 1127.87 1297.61 1154.87C1285.77 1181.87 1273.72 1207.87 1261.07 1234.07C1253.95 1248.93 1246.92 1264.18 1239.49 1278.34C1239.49 1278.64 1238.49 1278.34 1238.79 1277.63Z" fill="#263238"/>
<path opacity="0.1" d="M1346.9 1163.8L1268.6 1346.3C1268.6 1346.3 1212.99 1255.95 1141.62 1111.11C1102.78 1032.31 1087.52 966.057 1097.56 932.73C1156.38 1000.79 1277.84 1104.18 1346.9 1163.8Z" fill="black"/>
<path d="M656.783 1753.03C658.289 1754.84 1337.66 1749.52 1343.78 1743C1352.32 1732.96 1190.9 998.78 1120.24 908.538C1105.08 889.265 1055.79 884.447 1014.04 890.068C1003.15 891.456 992.403 893.773 981.914 896.995H980.809C972.382 899.625 964.446 903.627 957.321 908.839C841.984 1003 747.527 1328.83 725.744 1426.6C689.607 1587.41 650.861 1746.61 656.783 1753.03Z" fill="#AF1EE0"/>
<path d="M959.232 994.363C926.508 1090.23 726.351 1443.66 725.247 1462.64C725.247 1462.64 502.202 1568.54 486.142 1444.67C470.081 1320.8 723.942 1076.37 850.822 979.608C914.964 930.723 986.033 916.167 959.232 994.363Z" fill="#EB9481"/>
<path d="M600.672 1192.41L866.779 1227.85C866.779 1227.85 937.848 1105.38 975.992 992.355C1014.14 879.327 913.054 898.901 792.899 1006.71C672.745 1114.52 600.672 1192.41 600.672 1192.41Z" fill="#AF1EE0"/>
<path d="M836.069 1223.03L866.183 1225.24C867.387 1221.92 891.579 1169.83 897.602 1158.58C909.747 1135.8 923.198 1113.51 936.348 1091.23C936.388 1091.16 936.441 1091.09 936.505 1091.04C936.57 1090.99 936.644 1090.95 936.723 1090.93C936.802 1090.9 936.885 1090.9 936.967 1090.91C937.049 1090.91 937.129 1090.94 937.201 1090.98C937.274 1091.02 937.338 1091.07 937.39 1091.14C937.442 1091.2 937.48 1091.27 937.504 1091.35C937.527 1091.43 937.534 1091.52 937.526 1091.6C937.517 1091.68 937.492 1091.76 937.452 1091.83C928.117 1111.31 919.083 1130.98 909.446 1150.45C911.855 1147.84 914.164 1145.23 916.373 1142.52C920.99 1137.1 925.206 1131.28 929.522 1125.66C929.522 1125.66 930.727 1125.66 930.426 1126.26C926.198 1134.37 920.934 1141.9 914.766 1148.65C912.132 1151.57 909.316 1154.32 906.335 1156.88L903.925 1161.7C898.103 1173.04 868.893 1228.95 867.889 1228.75C866.885 1228.55 838.478 1225.34 835.466 1224.84C835.266 1224.63 835.366 1222.93 836.069 1223.03Z" fill="#263238"/>
<path d="M651.665 1148.34C709.484 1153.56 766.901 1162.9 824.117 1173.34C840.279 1176.25 856.339 1179.56 872.4 1183.38C872.4 1183.38 872.4 1184.18 872.4 1184.08C843.591 1180.87 814.983 1176.45 786.274 1172.24C757.566 1168.02 728.757 1163.5 700.148 1158.38C683.987 1155.57 667.826 1152.66 651.665 1149.55C650.862 1149.25 650.862 1148.24 651.665 1148.34Z" fill="#263238"/>
<path d="M924.398 918.576C924.398 918.576 931.123 1226.94 925.502 1254.95C894.886 1407.93 870.193 1582.99 870.193 1595.04C870.193 1600.96 659.395 1659.08 659.395 1659.08L655.781 1685.58L776.237 1692.81C776.237 1692.81 738.896 2236.56 711.793 2414.44C704.967 2458.8 655.781 2741.68 655.781 2741.68C655.781 2741.68 858.749 2835.23 1079.28 2828C1167.12 2825.09 1546.75 2723 1546.75 2723C1546.75 2723 1568.33 2482.59 1516.64 2270.39C1443.16 1968.25 1327.62 1621.54 1296.71 1432.12C1266.59 1244.71 1158.08 913.456 1158.08 913.456L1122.65 898.299L1176.95 1121.44C1118.37 1128.36 1059.21 1129 1000.49 1123.35L965.052 903.418L924.398 918.576Z" fill="#455A64"/>
<path d="M936.346 1971.66C936.346 1971.66 943.172 2063.61 954.415 2158.47C965.657 2253.33 948.191 2461.72 941.265 2465.63C934.339 2469.55 909.746 2257.85 909.947 2163.69C910.147 2069.53 916.371 1974.17 916.371 1974.17L936.346 1971.66Z" fill="#37474F"/>
<path d="M937.247 1969.65L944.775 2032.69L910.445 2033.4L913.959 1970.96L937.247 1969.65Z" fill="#DBDBDB"/>
<path d="M937.247 1969.65C941.19 1962.73 943.429 1954.97 943.778 1947.01C944.127 1939.05 942.577 1931.12 939.254 1923.88C936.281 1917.98 934.559 1911.53 934.197 1904.93C933.834 1898.33 934.838 1891.73 937.146 1885.54C937.146 1885.54 890.068 1924.38 913.959 1970.96L937.247 1969.65Z" fill="#AF1EE0"/>
<g opacity="0.2">
<path d="M937.247 1969.65C941.19 1962.73 943.429 1954.97 943.778 1947.01C944.127 1939.05 942.577 1931.12 939.254 1923.88C936.281 1917.98 934.559 1911.53 934.197 1904.93C933.834 1898.33 934.838 1891.73 937.146 1885.54C937.146 1885.54 890.068 1924.38 913.959 1970.96L937.247 1969.65Z" fill="black"/>
</g>
<path d="M1086.01 2057.79C1086.01 2057.79 1045.86 2122.13 1000.89 2186.78C955.916 2251.42 888.36 2409.62 891.773 2415.14C895.186 2420.66 994.863 2276.21 1031.1 2207.55C1067.34 2138.89 1099.56 2067.02 1099.56 2067.02L1086.01 2057.79Z" fill="#A6A6A6"/>
<path d="M1086.21 2055.88L1056.3 2098.84L1081.09 2112.7L1102.57 2065.82L1086.21 2055.88Z" fill="#DBDBDB"/>
<path d="M1086.21 2055.88C1097.55 2017.54 1135.5 1992.74 1135.5 1992.74C1135.5 1992.74 1138.01 2041.23 1102.57 2065.82L1086.21 2055.88Z" fill="#AF1EE0"/>
<g opacity="0.2">
<path d="M1086.21 2055.88C1097.55 2017.54 1135.5 1992.74 1135.5 1992.74C1135.5 1992.74 1138.01 2041.23 1102.57 2065.82L1086.21 2055.88Z" fill="black"/>
</g>
<path d="M1029.39 1949.18C1029.39 1949.18 1022.97 2024.86 1019.36 2103.46C1015.74 2182.06 975.088 2349.19 969.165 2351.6C963.243 2354.01 970.37 2178.54 982.716 2101.95C995.063 2025.36 1012.83 1948.57 1012.83 1948.57L1029.39 1949.18Z" fill="#263238"/>
<path d="M1030.4 1947.67L1028.4 1999.97L1000.39 1996.05L1011.33 1945.66L1030.4 1947.67Z" fill="#DBDBDB"/>
<path d="M1011.33 1945.66C1011.33 1945.66 1029.29 1947.87 1030.4 1947.67C1039.69 1931.69 1047.93 1915.13 1055.09 1898.08C1054.29 1896.48 994.161 1891.76 993.258 1897.28C992.354 1902.8 1011.33 1945.66 1011.33 1945.66Z" fill="#AF1EE0"/>
<path opacity="0.2" d="M1011.33 1945.66C1011.33 1945.66 1029.29 1947.87 1030.4 1947.67C1039.69 1931.69 1047.93 1915.13 1055.09 1898.08C1054.29 1896.48 994.161 1891.76 993.258 1897.28C992.354 1902.8 1011.33 1945.66 1011.33 1945.66Z" fill="black"/>
<path d="M822.113 2169.21L1099.56 2165.8C1099.56 2165.8 1115.62 2427.59 1113.22 2433.01C1110.81 2438.43 991.153 2499.76 960.437 2492.33C929.721 2484.9 829.341 2447.86 823.619 2432.1C817.898 2416.35 822.113 2169.21 822.113 2169.21Z" fill="#37474F"/>
<path d="M1000.99 1157.28C1000.99 1160.83 999.937 1164.31 997.962 1167.26C995.988 1170.22 993.182 1172.52 989.899 1173.88C986.616 1175.24 983.003 1175.59 979.517 1174.9C976.032 1174.21 972.83 1172.5 970.317 1169.98C967.805 1167.47 966.093 1164.27 965.4 1160.78C964.707 1157.3 965.062 1153.69 966.422 1150.4C967.782 1147.12 970.085 1144.31 973.04 1142.34C975.995 1140.36 979.469 1139.31 983.023 1139.31C987.788 1139.31 992.358 1141.2 995.728 1144.57C999.098 1147.94 1000.99 1152.51 1000.99 1157.28Z" fill="#AF1EE0"/>
<path d="M1213 1139.91C1212.83 1142.59 1211.92 1145.18 1210.37 1147.36C1208.81 1149.55 1206.67 1151.26 1204.2 1152.3C1201.72 1153.33 1199 1153.65 1196.35 1153.21C1193.7 1152.78 1191.22 1151.61 1189.21 1149.84C1187.19 1148.07 1185.7 1145.77 1184.93 1143.2C1184.15 1140.63 1184.11 1137.9 1184.81 1135.3C1185.51 1132.71 1186.92 1130.37 1188.89 1128.54C1190.86 1126.71 1193.29 1125.47 1195.93 1124.96C1203.56 1123.45 1211.19 1130.08 1213 1139.91Z" fill="#AF1EE0"/>
<path d="M1104.69 1001.99C1067.64 1013.03 999.989 959.531 971.782 914.561C969.875 911.449 972.786 877.621 974.392 836.365C975.295 811.27 975.597 783.364 974.392 757.868C974.392 752.648 1136.71 787.279 1136.71 787.279C1129.32 819.701 1125.94 852.908 1126.67 886.153C1126.98 889.538 1127.55 892.894 1128.37 896.191C1128.41 896.76 1128.41 897.329 1128.37 897.898C1133.19 917.974 1140.42 991.251 1104.69 1001.99Z" fill="#EB9481"/>
<path d="M984.023 757.969C994.061 800.63 1026.89 903.218 1112.41 900.107C1117.87 899.958 1123.31 899.354 1128.67 898.3C1128.74 897.733 1128.74 897.16 1128.67 896.593C1127.85 893.296 1127.28 889.94 1126.96 886.555C1126.24 853.31 1129.61 820.103 1137 787.681C1137 787.681 1019.06 762.185 984.023 757.969Z" fill="#263238"/>
<path d="M964.754 552.992C942.971 608.301 959.936 773.828 997.377 813.98C1051.58 871.497 1146.74 884.246 1197.33 817.493C1246.22 752.848 1220.32 536.931 1177.96 500.192C1115.52 446.088 996.875 471.785 964.754 552.992Z" fill="#EB9481"/>
<path d="M1111.01 669.232C1111.01 669.232 1110.1 669.935 1110.2 670.337C1111.61 681.479 1111.41 694.528 1101.67 699.246C1101.67 699.246 1101.67 699.949 1101.67 699.848C1114.02 696.937 1114.12 679.572 1111.01 669.232Z" fill="#263238"/>
<path d="M1099.86 658.592C1081.69 658.592 1083.8 695.13 1100.57 694.829C1117.33 694.528 1115.02 658.291 1099.86 658.592Z" fill="#263238"/>
<path d="M1176.05 664.414C1176.05 664.414 1176.95 664.414 1176.95 665.317C1176.95 676.56 1179.46 689.409 1189.8 692.52V693.223C1177.25 692.621 1174.54 675.155 1176.05 664.414Z" fill="#263238"/>
<path d="M1185.39 652.469C1203.35 650.06 1206.87 686.196 1190.2 688.405C1173.54 690.613 1170.33 654.175 1185.39 652.469Z" fill="#263238"/>
<path d="M1086.72 648.454C1091.69 648.939 1096.68 649.173 1101.67 649.157C1106.85 650.143 1112.21 649.402 1116.93 647.049C1118.27 645.996 1119.23 644.535 1119.67 642.886C1120.1 641.237 1119.99 639.492 1119.34 637.915C1117.57 635.012 1115.05 632.64 1112.05 631.05C1109.05 629.46 1105.67 628.71 1102.28 628.88C1095.37 628.114 1088.43 629.938 1082.8 634C1081.59 635.008 1080.69 636.343 1080.21 637.848C1079.74 639.352 1079.7 640.962 1080.11 642.485C1080.53 644.008 1081.37 645.381 1082.54 646.439C1083.71 647.498 1085.16 648.197 1086.72 648.454Z" fill="#263238"/>
<path d="M1200.54 618.943C1195.59 619.244 1190.63 619.244 1185.69 618.943C1180.44 619.737 1175.08 618.784 1170.43 616.232C1169.13 615.122 1168.24 613.619 1167.87 611.952C1167.51 610.285 1167.7 608.545 1168.42 606.997C1170.32 604.2 1172.93 601.956 1175.98 600.493C1179.03 599.029 1182.41 598.399 1185.79 598.666C1192.71 598.141 1199.58 600.217 1205.06 604.488C1206.34 605.511 1207.27 606.895 1207.75 608.459C1208.23 610.024 1208.22 611.696 1207.73 613.257C1207.25 614.818 1206.3 616.196 1205.02 617.21C1203.73 618.224 1202.17 618.828 1200.54 618.943Z" fill="#263238"/>
<path d="M1103.98 772.926C1106.79 775.435 1109.7 778.949 1114.01 779.049C1118.16 778.709 1122.2 777.513 1125.86 775.536C1125.86 775.536 1126.66 775.536 1126.46 775.536C1125.05 777.922 1123.02 779.876 1120.57 781.186C1118.13 782.495 1115.38 783.11 1112.61 782.964C1110.29 782.491 1108.17 781.341 1106.51 779.662C1104.85 777.982 1103.72 775.848 1103.27 773.528C1102.57 772.926 1103.58 772.926 1103.98 772.926Z" fill="#263238"/>
<path d="M1113.81 738.795C1116.93 743.067 1120.89 746.653 1125.45 749.33C1130.01 752.006 1135.07 753.717 1140.31 754.354C1144.87 755.006 1149.51 755.006 1154.07 754.354C1154.93 754.458 1155.81 754.458 1156.68 754.354C1157.51 754.439 1158.35 754.439 1159.19 754.354C1159.76 754.19 1160.28 753.851 1160.65 753.383C1161.03 752.916 1161.25 752.344 1161.29 751.744C1161.34 751.378 1161.34 751.006 1161.29 750.64V749.636C1161.29 741.004 1159.39 727.854 1159.39 727.854C1162.7 729.259 1179.46 735.583 1178.66 731.066C1175.4 692.193 1168.2 653.751 1157.18 616.332C1157.11 616.107 1156.97 615.911 1156.78 615.771C1156.59 615.632 1156.36 615.557 1156.12 615.557C1155.89 615.557 1155.66 615.632 1155.47 615.771C1155.28 615.911 1155.14 616.107 1155.07 616.332C1157.88 652.268 1167.01 687.501 1170.43 723.537C1164.53 721.245 1158.35 719.759 1152.06 719.121C1150.85 719.121 1155.67 744.416 1155.47 748.331C1148.45 749.431 1141.27 749.109 1134.38 747.385C1127.48 745.661 1121 742.569 1115.32 738.293C1113.91 737.089 1113.11 737.892 1113.81 738.795Z" fill="#263238"/>
<path d="M1148.85 750.742C1144.19 756.966 1138 761.877 1130.88 764.995C1126.94 766.645 1122.58 766.996 1118.43 765.999C1109.4 763.791 1109.1 755.961 1110.6 748.433C1111.49 744.681 1112.8 741.043 1114.52 737.592C1124.25 745.549 1136.29 750.16 1148.85 750.742Z" fill="#263238"/>
<path d="M1130.88 764.994C1126.94 766.644 1122.58 766.995 1118.43 765.998C1109.4 763.79 1109.1 755.96 1110.6 748.432C1115.34 748.538 1119.92 750.225 1123.59 753.226C1127.26 756.227 1129.83 760.369 1130.88 764.994Z" fill="#FF99BA"/>
<path d="M1098.36 782.963C1101.13 785.996 1104.64 788.257 1108.55 789.524C1112.45 790.791 1116.62 791.021 1120.65 790.19C1120.26 793.762 1119.18 797.223 1117.46 800.375C1115.73 803.527 1113.41 806.309 1110.61 808.56L1112.72 801.533C1109.15 808.892 1103.8 815.241 1097.16 820.003C1095.28 814.858 1094.93 809.281 1096.15 803.942L1093.54 812.374C1092.08 807.426 1091.75 802.21 1092.58 797.117C1093.42 792.023 1095.39 787.185 1098.36 782.963Z" fill="#263238"/>
<path d="M980.714 696.535C990.752 689.509 1009.32 636.91 1009.32 636.91C1009.32 636.91 1116.63 610.008 1140.82 519.164C1140.82 519.164 1174.55 583.709 1215.9 601.375C1215.9 601.375 1221.73 500.293 1144.43 478.912C1144.43 478.912 1067.34 433.038 983.826 505.211C900.31 577.385 954.415 695.13 954.415 695.13L980.714 696.535Z" fill="#263238"/>
<path d="M1140.52 501.296C1141.74 517.189 1138.62 533.117 1131.48 547.37C1125.16 561.881 1116.77 575.404 1106.59 587.522C1096.57 600.026 1084.6 610.838 1071.15 619.544C1055.09 628.283 1037.8 634.543 1019.86 638.114C1019.86 638.114 1019.86 639.218 1019.86 639.118C1038.54 635.917 1056.71 630.21 1073.86 622.153C1088.46 613.817 1101.56 603.095 1112.61 590.433C1124.37 578.391 1133.44 563.986 1139.21 548.173C1143.84 532.922 1144.83 516.8 1142.12 501.095C1142.72 499.991 1140.32 500.091 1140.52 501.296Z" fill="#263238"/>
<path d="M989.143 689.108C989.143 689.108 955.214 633.999 930.421 645.744C905.627 657.488 928.915 736.085 956.519 748.231C959.955 750.036 963.721 751.124 967.59 751.432C971.458 751.74 975.349 751.26 979.027 750.021C982.705 748.783 986.094 746.811 988.988 744.226C991.883 741.641 994.223 738.496 995.868 734.981L989.143 689.108Z" fill="#EB9481"/>
<path d="M937.65 668.129C937.65 668.129 937.048 668.129 937.65 668.832C957.024 677.966 966.359 696.938 972.482 716.412C971.448 714.371 969.986 712.579 968.194 711.157C966.403 709.735 964.325 708.718 962.103 708.174C959.882 707.631 957.569 707.574 955.323 708.008C953.078 708.443 950.953 709.357 949.094 710.69C948.986 710.737 948.895 710.814 948.831 710.912C948.766 711.01 948.732 711.125 948.732 711.242C948.732 711.359 948.766 711.474 948.831 711.572C948.895 711.67 948.986 711.747 949.094 711.794C952.64 710.905 956.375 711.131 959.788 712.442C963.202 713.754 966.127 716.086 968.166 719.122C971.547 724.227 974.374 729.678 976.598 735.383C977.401 737.19 980.613 736.488 980.111 734.38C982.119 708.682 964.653 672.546 937.65 668.129Z" fill="#263238"/>
<path d="M978.805 508.524C992.859 503.204 1006.31 424.305 954.413 386.663C902.517 349.021 835.965 391.983 864.071 456.929C881.738 497.583 948.892 519.666 978.805 508.524Z" fill="#263238"/>
<path d="M881.735 382.045C866.279 394.861 855.656 412.566 851.621 432.235C849.553 441.355 849.92 450.858 852.687 459.791C855.453 468.724 860.521 476.772 867.381 483.127C881.954 496.082 899.799 504.796 918.976 508.323C928.711 510.473 938.624 511.716 948.588 512.037C958.744 512.767 968.948 511.644 978.702 508.724C969.424 513.818 959.148 516.832 948.588 517.558C938.131 518.595 927.589 518.427 917.169 517.056C895.696 514.63 875.499 505.619 859.351 491.258C851.195 483.549 845.296 473.763 842.286 462.951C839.569 452.184 839.776 440.887 842.888 430.227C845.706 419.958 850.609 410.379 857.293 402.089C863.977 393.8 872.297 386.976 881.735 382.045Z" fill="#263238"/>
<path d="M964.652 1397.79C997.074 1407.83 965.455 1679.56 915.967 1671.83C711.996 1640.11 553.395 1543.54 518.262 1504.8C473.894 1455.91 477.408 1407.43 504.912 1378.42C544.662 1336.26 932.53 1387.45 964.652 1397.79Z" fill="#EB9481"/>
<path d="M767.908 1368.68C727.394 1361.04 686.058 1358.71 644.942 1361.75C644.039 1361.75 643.938 1363.26 644.942 1363.26C709.687 1366.07 747.531 1370.89 768.209 1372.39C774.533 1372.8 780.054 1371.59 767.908 1368.68Z" fill="#263238"/>
<path d="M872.703 1660.89C969.77 1693.41 1088.72 1739.68 1201.65 1715.69C1214.27 1713.35 1225.74 1706.8 1234.17 1697.12C1284.96 1687.08 1295.6 1660.28 1295.6 1660.28C1340.07 1636.59 1347.2 1607.58 1347.2 1607.58C1347.2 1607.58 1406.72 1595.34 1405.32 1558.1C1403.81 1516.34 1320.5 1541.73 1266.19 1527.98C1141.62 1495.66 955.015 1410.14 920.384 1397.49L872.703 1660.89Z" fill="#EB9481"/>
<path d="M1112.61 1585.4C1148.88 1595.21 1185.77 1602.58 1223.03 1607.48C1264.18 1610.16 1305.48 1609.83 1346.59 1606.48C1346.86 1606.48 1347.12 1606.59 1347.3 1606.77C1347.49 1606.96 1347.6 1607.22 1347.6 1607.48C1347.6 1607.75 1347.49 1608.01 1347.3 1608.19C1347.12 1608.38 1346.86 1608.49 1346.59 1608.49C1267.81 1622.98 1186.55 1615.55 1111.71 1587.01C1110 1586 1110.3 1584.9 1112.61 1585.4Z" fill="#263238"/>
<path d="M1081.7 1657.67C1118.03 1664.2 1182.08 1675.34 1295.61 1658.98C1295.61 1658.98 1296.21 1658.98 1295.61 1659.58C1225.52 1679.51 1151.28 1679.51 1081.19 1659.58C1079.19 1658.88 1079.29 1657.27 1081.7 1657.67Z" fill="#263238"/>
<path d="M1066.14 1696.92C1128.27 1705.65 1168.63 1703.35 1234.07 1696.92C1234.07 1696.92 1234.68 1697.52 1234.07 1697.62C1160.4 1712.88 1131.89 1710.07 1065.34 1699.13C1063.23 1698.63 1063.63 1696.42 1066.14 1696.92Z" fill="#263238"/>
<path d="M1148.75 1452.5C1306.05 1407.13 1758.46 1433.53 1760.47 1541.63C1762.88 1670.42 1064.23 1665 1064.03 1577.87C1064.03 1529.39 1225.24 1536.41 1224.64 1508.11C1224.34 1486.53 1093.14 1468.56 1148.75 1452.5Z" fill="#AF1EE0"/>
<path opacity="0.3" d="M1148.75 1452.5C1306.05 1407.13 1758.46 1433.53 1760.47 1541.63C1762.88 1670.42 1064.23 1665 1064.03 1577.87C1064.03 1529.39 1225.24 1536.41 1224.64 1508.11C1224.34 1486.53 1093.14 1468.56 1148.75 1452.5Z" fill="black"/>
<path d="M1148.75 1441.15C1306.05 1395.78 1758.46 1422.18 1760.47 1530.29C1762.88 1659.08 1064.23 1653.66 1064.03 1566.53C1064.03 1518.04 1225.24 1525.07 1224.64 1496.86C1224.34 1475.58 1093.14 1457.21 1148.75 1441.15Z" fill="#AF1EE0"/>
<path opacity="0.2" d="M1148.75 1441.15C1306.05 1395.78 1758.46 1422.18 1760.47 1530.29C1762.88 1659.08 1064.23 1653.66 1064.03 1566.53C1064.03 1518.04 1225.24 1525.07 1224.64 1496.86C1224.34 1475.58 1093.14 1457.21 1148.75 1441.15Z" fill="black"/>
<path d="M1285.06 1546.35C1294.71 1547.71 1303.68 1552.1 1310.66 1558.9C1312.53 1560.65 1313.97 1562.81 1314.87 1565.22C1315.76 1567.62 1316.08 1570.2 1315.81 1572.75C1315.54 1575.3 1314.68 1577.75 1313.3 1579.91C1311.91 1582.07 1310.05 1583.88 1307.85 1585.2C1287.77 1598.15 1235.18 1595.84 1229.45 1566.13C1224.33 1539.12 1260.87 1540.13 1285.06 1546.35Z" fill="#455A64"/>
<path d="M1409.23 1584.8L1406.32 1583.59C1403.14 1582.57 1400.13 1581.08 1397.39 1579.18C1394.63 1577.28 1392.39 1574.73 1390.86 1571.75C1389.63 1569.92 1389.03 1567.73 1389.16 1565.52C1389.22 1562.39 1390.2 1559.35 1391.99 1556.78C1393.78 1554.2 1396.28 1552.22 1399.2 1551.07C1408.55 1547.76 1418.38 1546 1428.31 1545.85C1442.56 1543.64 1452.7 1535.11 1467.56 1536.31C1483.92 1537.72 1503.09 1546.35 1506.4 1561.21C1515.14 1600.56 1431.22 1592.83 1409.23 1584.8Z" fill="#263238"/>
<path d="M1294.5 1475.58C1300.02 1490.24 1316.08 1490.14 1329.33 1489.64C1342.58 1489.13 1355.73 1488.83 1368.88 1488.23C1377.44 1489.14 1386.06 1487.27 1393.48 1482.91L1394.58 1481.61C1396.88 1480.33 1398.69 1478.33 1399.73 1475.91C1400.76 1473.49 1400.97 1470.8 1400.3 1468.26C1398.39 1456.61 1386.45 1453.5 1375.51 1451.29C1371.64 1450.1 1367.68 1449.23 1363.66 1448.68C1345.8 1443.86 1325.62 1435.13 1307.75 1444.57C1302.19 1447.29 1297.79 1451.91 1295.36 1457.61C1292.92 1463.3 1292.62 1469.68 1294.5 1475.58Z" fill="#C7C7C7"/>
<path d="M1464.54 1456.31C1448.38 1476.39 1478.49 1491.55 1494.65 1493.25C1510.81 1494.96 1555.99 1497.47 1553.68 1473.18C1552.47 1458.42 1536.71 1453.6 1521.56 1453.1C1501.68 1446.07 1475.48 1442.66 1464.54 1456.31Z" fill="#AF1EE0"/>
<path d="M1679.35 1504.49C1698.33 1526.58 1672.73 1551.17 1651.05 1555.29C1633.96 1557.78 1616.64 1558.22 1599.45 1556.59C1593.95 1556.96 1588.49 1555.5 1583.91 1552.43C1579.33 1549.36 1575.9 1544.86 1574.16 1539.63C1569.24 1516.24 1592.22 1507.2 1613.61 1503.79C1636.39 1493.55 1664.7 1486.83 1679.35 1504.49Z" fill="#EBEBEB"/>
<path d="M1118.53 1479.3C1103.98 1468.66 1109.5 1460.93 1141.52 1459.83C1173.54 1458.72 1301.22 1481.31 1305.34 1436.14C1309.45 1390.96 1129.17 1370.29 1075.77 1367.48C1019.56 1365.45 963.64 1376.41 912.352 1399.5C946.28 1412.25 1052.38 1453.4 1118.53 1479.3Z" fill="#EB9481"/>
</svg>
