<svg id="e7wreFaoQdY1" xmlns="http://www.w3.org/2000/svg" xmlns:xlink="http://www.w3.org/1999/xlink" viewBox="0 0 2921 3500" shape-rendering="geometricPrecision" text-rendering="geometricPrecision"><g><g><path d="M2597.61,2052.09h185.43v-78.36h-185.43v78.36Z" fill="#ebebeb"/><path d="M2701.11,2150.9l93.48-1.96l46.08-.77c15.34-.35,30.6,0,45.87-.42l-3.15,3.15v-78.36l3.5,3.5-92.72-.42c-30.88,0-61.83-.84-92.71-1.19l1.89-1.89c0,12.81-.56,25.7-.91,38.72l-1.33,39.64Zm0,0l-1.26-38.45c-.35-13.02-.84-26.26-.91-39.56v-2.45h1.96c30.88-.42,61.83-1.12,92.71-1.19l92.72-.42h3.5v3.5l-.42,78.36v3.15h-3.08c-15.62,0-31.3,0-46.92-.35l-46.64-.77-91.66-1.82Z" fill="#ebebeb"/><path d="M1335.32,1381.24l93.56-1.96l46.01-.77c15.33-.35,30.6,0,45.86-.35l-3.15,3.08-.35-78.36l3.5,3.5-92.71-.42c-30.88,0-61.83-.77-92.72-1.19l1.9-1.89c0,12.82-.57,25.7-.92,38.8l-.98,39.56Zm0,0l-.98-39.07c-.35-13.03-.77-26.26-.91-39.57v-1.89h1.96c30.89-.35,61.84-1.12,92.72-1.19l92.71-.42h3.5v3.5l-.35,78.36v3.22h-3.08c-15.61,0-31.3,0-46.84-.42l-46.71-.77-92.02-1.75Z" fill="#ebebeb"/><path d="M1438.75,1480.05h185.43v-78.36h-185.43v78.36Z" fill="#ebebeb"/><path d="M1230.29,1480.05l93.55-1.96l46.08-.77c15.33-.35,30.53,0,45.79-.35l-3.08,3.08-.42-78.36l3.5,3.5-92.71-.42c-30.88,0-61.76-.77-92.71-1.19l1.96-1.89c0,12.81-.63,25.7-.91,38.79l-1.05,39.57Zm0,0l-.99-38.8c0-13.02-.77-26.26-.91-39.56v-1.89h1.9c30.95,0,61.83-1.12,92.71-1.19l92.71-.42h3.58v3.5l-.35,78.36v3.15h-3.16c-15.61,0-31.3,0-46.84-.42l-46.64-.77-92.01-1.96Z" fill="#ebebeb"/><path d="M1620.82,487.571h185.43v-78.359h-185.43v78.359Z" fill="#ebebeb"/><path d="M34.2428,2150.9l93.5542-1.96l46.077-.77c15.266-.35,30.532,0,45.797-.42l-3.081,3.15-.42-78.36l3.501,3.5-92.714-.42c-30.8814,0-61.8328-.84-92.7142-1.19l1.8907-1.89c0,12.81-.5603,25.7-.9104,38.72l-.9803,39.64Zm0,0l-.9804-38.45c-.3501-13.02-.7703-26.26-.9103-39.56v-2.45h1.8907c30.8814-.42,61.8328-1.12,92.7142-1.19l92.714-.42h3.502v3.5v78.36v3.15h-3.152c-15.615,0-31.301,0-46.847-.35l-46.637-.77-92.2942-1.82Z" fill="#ebebeb"/><path d="M137.671,167.133l93.554-1.961l46.078-.77c15.335-.35,30.531,0,45.796-.42l-3.081,3.151-.42-78.4293l3.501,3.5013-92.714-.4201c-30.881,0-61.763-.8403-92.714-1.1905l1.961-1.8907c0,12.8143-.631,25.6993-.981,38.7943l-.98,39.635Zm0,0l-.77-38.795c0-13.024-.771-26.259-.911-39.5642v-1.8907h1.891c30.951-.3501,61.833-1.1204,92.714-1.1905l92.715-.4201h3.571v3.4312l-.91,78.4293v3.151h-3.152c-15.615,0-31.301,0-46.847-.42l-46.637-.771-91.664-1.96Z" fill="#ebebeb"/><path d="M34.2428,265.939h185.4282v-78.358h-185.4282v78.358Z" fill="#ebebeb"/><path d="M2701.11,167.133l93.48-1.961l46.08-.77c15.34-.35,30.6,0,45.87-.42l-3.15,3.151v-78.3592l3.5,3.5013-92.72-.4202c-30.88,0-61.83-.8403-92.71-1.1904l1.89-1.8907c0,12.8142-.56,25.6992-.91,38.7942l-1.33,39.565Zm0,0l-1.26-38.795c-.35-13.024-.84-26.259-.91-39.5642v-1.8907h1.96c30.88-.3501,61.83-1.1204,92.71-1.1905l92.72-.4201h3.5v3.4312l-.21,78.4293v3.151h-3.08c-15.62,0-31.3,0-46.92-.42l-46.64-.771-91.87-1.96Z" fill="#ebebeb"/><path d="M895.071,2404.95h-503.836v557.9h503.836v-557.9Z" fill="#ebebeb"/><path d="M131.158,2962.92h260.147v-557.97h-260.147v557.97Z" fill="#dbdbdb"/><path d="M149.015,2924.75c19.327-39.68,38.421-79.36,57.281-119.04l56.651-120.66l56.021-120.51c18.674-40.24,36.974-80.62,54.9-121.15-19.327,39.69-38.421,79.48-57.281,119.4l-56.441,120.02-56.02,120.52c-18.627,40.29-36.997,80.76-55.111,121.42Z" fill="#ebebeb"/><path d="M149.015,2443.39c18.114,40.57,36.414,80.95,54.9,121.15l56.021,120.51l56.441,120.03c18.907,39.91,38.001,79.59,57.281,119.04-18.113-40.52-36.413-80.9-54.9-121.14l-56.021-120.52-56.441-120.02c-18.907-39.68-38-79.36-57.281-119.05Z" fill="#ebebeb"/><path d="M895.071,1562.33h-503.836v519.45h503.836v-519.45Z" fill="#ebebeb"/><path d="M131.158,2081.85h260.147v-519.52h-260.147v519.52Z" fill="#dbdbdb"/><path d="M600.402,1682.91h10.714h7.983l4.552-9.31l6.442,9.31l8.684-19.11l8.263,19.11h23.598h10.714l3.922-12.74l3.641,12.74h7.003v-120.58h-95.516v120.58Z" fill="#dbdbdb"/><path d="M149.015,2048.73c19.327-36.88,38.421-74,57.281-111.34l56.441-112.04l56.021-112.05c18.673-37.34,36.974-74.95,54.9-112.81-19.327,36.98-38.421,74.04-57.281,111.2l-56.441,111.7-56.021,112.04c-18.486,37.76-36.786,75.53-54.9,113.3Z" fill="#ebebeb"/><path d="M149.015,1600.77c18.114,37.68,36.414,75.19,54.9,112.53l56.021,112.05l56.441,112.04c18.907,37.34,38.001,74.41,57.281,111.2-18.113-37.72-36.413-75.33-54.9-112.81l-56.021-112.04-56.441-111.7c-18.907-37.2-38-74.29-57.281-111.27Z" fill="#ebebeb"/><path d="M424.427,2049.57h55.951v-55.95h-55.951v55.95Z" fill="#fff"/><path d="M861.529,2081.85h-503.837v323.1h503.837v-323.1Z" fill="#dbdbdb"/><path d="M97.5462,2404.95h260.1458v-323.1h-260.1458v323.1Z" fill="#c7c7c7"/><path d="M566.86,2202.44h10.644h8.053l4.551-9.32l6.443,9.32l8.683-19.12l8.263,19.12h23.529h10.784l3.851-12.75l3.712,12.75h7.002v-120.59h-95.515v120.59Z" fill="#fff"/><path d="M115.473,2385.55c19.28-23.34,38.374-46.89,57.281-70.65l56.441-71.01l56.02-71.36c18.394-23.8,36.671-47.71,54.831-71.7-19.234,23.34-38.328,46.89-57.281,70.65l-56.441,71.08-56.021,71.29c-18.44,23.95-36.717,47.85-54.83,71.7Z" fill="#dbdbdb"/><path d="M115.473,2101.04c18.16,23.99,36.46,47.9,54.9,71.7l56.021,71.36l56.441,71.01c18.673,23.62,37.72,47.1,57.141,70.44-18.067-23.99-36.344-47.89-54.831-71.7l-56.02-71.29-56.441-71.08c-18.86-23.43-37.931-46.91-57.211-70.44Z" fill="#dbdbdb"/><path d="M2823.23,2474.84h-503.83v488.08h503.83v-488.08Z" fill="#dbdbdb"/><path d="M2059.32,2962.92h260.15v-488.08h-260.15v488.08Z" fill="#c7c7c7"/><path d="M2528.57,2595.42h10.64h8.05l4.55-9.31l6.45,9.31l8.68-19.12l8.26,19.12h23.53h10.79l3.92-12.81l3.64,12.81h7v-120.58h-95.51v120.58Z" fill="#fff"/><path d="M2077.18,2933.86c19.28-35.44,38.37-71.01,57.28-106.72l56.44-107.28l56.02-107.7c18.67-36,36.95-72.08,54.83-108.26-19.23,35.43-38.33,71-57.28,106.72l-56.44,107.21-55.67,107.77c-18.49,35.99-36.88,72.08-55.18,108.26Z" fill="#dbdbdb"/><path d="M2077.18,2503.9c18.16,36.18,36.46,72.26,54.9,108.26l55.67,107.7l56.44,107.28c18.91,35.71,38,71.28,57.28,106.72-18.07-36.23-36.34-72.32-54.83-108.26l-56.02-107.77-56.44-107.21c-18.72-35.72-37.72-71.29-57-106.72Z" fill="#dbdbdb"/><path d="M1947.21,60.6934v1191.1366h819.72v-1191.1366h-819.72ZM2736.68,1221.23h-759.22v-1130.6356h759.22v1130.6356Z" fill="#ebebeb"/><path d="M2736.68,90.5942h-759.22v1130.6358h759.22v-1130.6358Z" fill="#fff"/><path d="M1977.46,706.052h759.22v-30.251h-759.22v30.251Z" fill="#ebebeb"/><path d="M1891.47,1338.25h931.13v-86.84h-931.13v86.84Z" fill="#dbdbdb"/><path d="M1916.19,1372.98l881.76,18.49v-53.22h-881.76v34.73Z" fill="#ebebeb"/><path d="M1977.46,90.5942h759.22v776.7968h-759.22v-776.7968Zm731.21,28.0108h-703.2v720.776h703.2v-720.776Z" fill="#dbdbdb"/><path d="M2494.39,90.5942h-15.12v748.7868h15.12v-748.7868Z" fill="#dbdbdb"/><path d="M2234.88,90.5942h-15.13v748.7868h15.13v-748.7868Z" fill="#dbdbdb"/><path d="M153.847,60.6934v1191.1366h819.723v-1191.1366h-819.723ZM943.319,1221.23h-759.221v-1130.6356h759.221v1130.6356Z" fill="#ebebeb"/><path d="M943.319,90.5942h-759.221v1130.6358h759.221v-1130.6358Z" fill="#fff"/><path d="M184.099,706.052h759.22v-30.251h-759.22v30.251Z" fill="#ebebeb"/><path d="M98.1058,1338.25h931.1342v-86.84h-931.1342v86.84Z" fill="#dbdbdb"/><path d="M122.826,1372.98l881.764,18.49v-53.22h-881.764v34.73Z" fill="#ebebeb"/><path d="M184.098,90.5942h759.221v776.7968h-759.221v-776.7968ZM915.309,118.605h-703.2v720.776h703.2v-720.776Z" fill="#dbdbdb"/><path d="M701.029,90.5942h-15.125v748.7868h15.125v-748.7868Z" fill="#dbdbdb"/><path d="M441.513,90.5942h-15.125v748.7868h15.125v-748.7868Z" fill="#dbdbdb"/></g><g><path d="M2081.59,2385.9h-698.02v576.74h698.02v-576.74Z" fill="#af1ee0"/><path d="M2081.59,2385.9h-698.02v576.74h698.02v-576.74Z" opacity="0.1"/><path d="M2358.19,2385.97h-276.6v576.74h276.6v-576.74Z" fill="#af1ee0"/><path d="M2358.19,2385.97h-276.6v576.74h276.6v-576.74Z" opacity="0.2"/><path d="M2339.08,2922.93c-20.45-40.99-40.74-82.12-60.86-123.38l-60.01-124.09-59.24-124.58c-19.61-41.59-39.05-83.33-58.33-125.2c20.54,41.03,40.85,82.16,60.92,123.38l59.94,124.09l59.24,124.58c19.7,41.59,39.15,83.33,58.34,125.2Z" fill="#af1ee0"/><path d="M2339.08,2425.68c-19.24,42.01-38.68,83.75-58.34,125.2l-59.24,124.58-59.94,124.09c-20.12,41.22-40.43,82.35-60.92,123.38c19.28-42.01,38.72-83.75,58.33-125.2l59.24-124.58l60.01-124.02c20.12-41.31,40.41-82.46,60.86-123.45Z" fill="#af1ee0"/><path d="M1781.95,2510.55h-11-8.33l-4.69-9.59-6.65,9.59-9.04-19.75-8.47,19.75h-24.37-11.13l-4.06-13.17-3.79,13.17h-7.21v-124.58h98.74v124.58Z" fill="#fff"/><path d="M2123.68,1809.24h-520.79v576.66h520.79v-576.66Z" fill="#af1ee0"/><path d="M2392.57,1809.24h-268.9v576.73h268.9v-576.73Z" fill="#af1ee0"/><path d="M2392.57,1809.24h-268.9v576.73h268.9v-576.73Z" opacity="0.1"/><g opacity="0.1"><path d="M2085.51,2346.2c-38.23-41.04-76.14-82.17-113.72-123.39l-112.25-124.36-110.57-124.58c-36.7-41.59-73.02-83.33-108.96-125.21c38.28,41.04,76.18,82.19,113.72,123.46l112.04,124.02l110.57,124.57c36.83,41.78,73.22,83.61,109.17,125.49Z"/><path d="M2085.51,1848.94c-35.99,42.02-72.31,83.76-108.96,125.21l-110.57,124.3-112.04,124.08c-37.35,41.22-75.26,82.35-113.72,123.39c35.99-42.02,72.31-83.75,108.96-125.21l110.36-124.29l112.04-124.02c37.67-41.32,75.65-82.47,113.93-123.46Z"/></g><path d="M2354.76,2288.36h-47.13v66.52h47.13v-66.52Z" fill="#fff"/></g><g><path d="M0,2962.92l365.115-1.75l365.115-.56l730.16-1.19l730.16,1.19l365.12.56l365.11,1.75-365.11,1.68-365.12.63-730.16,1.19-730.16-1.19-365.115-.63L0,2962.92Z" fill="#263238"/></g><g id="e7wreFaoQdY67" opacity="0"><path d="M1738.53,976.632c-3.92-2.521-7.84-4.972-11.76-7.353l2.73-4.551l11.9,7.492-2.87,4.412Z" fill="#263238"/><path d="M1567.53,1678.29h-5.04v-5.25c9.35.21,18.7-.14,28.01-1.05l.56,5.25c-7.63.56-15.62,1.05-23.53,1.05Zm51.96-5.74l-1.12-5.11c9.11-2.07,18.05-4.8,26.75-8.2l1.89,4.91c-8.96,3.43-18.15,6.19-27.52,8.26v.14Zm53.43-21.01l-2.59-4.55c8.05-4.7,15.7-10.04,22.9-15.97l3.36,4c-7.41,6.18-15.33,11.73-23.67,16.59v-.07Zm44.33-36.41l-3.86-3.57c6.29-6.91,12.07-14.26,17.3-21.99l4.34,2.94c-5.37,8.01-11.31,15.61-17.78,22.76v-.14Zm32.07-47.55l-4.76-2.24c3.99-8.43,7.24-17.2,9.73-26.19l5.04,1.4c-2.54,9.31-5.89,18.38-10.01,27.1v-.07Zm15.12-55.46l-5.25-.42c0-3.78.49-7.63.49-11.34-.02-5.2-.32-10.39-.91-15.55-5.45-.37-10.87-1.04-16.24-2.03l.91-5.18c8.55,1.54,17.22,2.34,25.9,2.38h1.83v5.25h-1.9-5.25c.56,5.07.84,10.17.84,15.27.07,3.78-.14,7.77-.42,11.69v-.07Zm35.51-30.39l-1.19-5.11c9-2.14,17.72-5.33,25.98-9.53l2.38,4.69c-8.63,4.41-17.75,7.77-27.17,10.02v-.07Zm-85.3-6.51c-9.05-3.27-17.83-7.25-26.26-11.91l2.6-4.55c8.15,4.5,16.65,8.34,25.42,11.48l-1.76,4.98Zm37.68-18.49c-3.07-8.76-7.11-17.14-12.05-25l4.42-2.8c5.18,8.17,9.41,16.91,12.6,26.05l-4.97,1.75Zm98.88-1.12l-3.37-3.99c7.11-6,13.6-12.69,19.4-19.96l4.06,3.29c-5.98,7.61-12.71,14.61-20.09,20.87v-.21Zm-186.55-8.4l-1.47-1.4c-6.94-6.09-12.46-13.62-16.18-22.06l4.9-1.96c3.42,7.72,8.48,14.61,14.85,20.16l1.4,1.26-3.5,4Zm222.89-35.79l-4.48-2.73c4.9-8.12,9.45-16.45,13.44-24.65l4.76,2.31c-4.06,8.34-8.68,16.81-13.72,25.07Zm-164.7-1.05c-6.4-6.19-13.44-11.69-21.01-16.38l-1.05-.7l2.73-4.49l1.12.7c7.81,4.93,15.06,10.68,21.64,17.16l-3.43,3.71Zm-69.54-13.51l-4.34-2.94c3-4.22,6.97-7.64,11.58-9.98s9.72-3.53,14.89-3.47v5.25c-4.31-.02-8.56.97-12.4,2.91-3.85,1.93-7.18,4.75-9.73,8.23Zm259.1-36.91l-4.9-1.82c3.24-8.79,6.02-17.74,8.33-26.82l5.04,1.26c-2.26,9.29-5.06,18.43-8.4,27.38h-.07Zm14-55.53l-5.25-.7c1.25-9.29,1.98-18.64,2.17-28.01h5.25c-.19,9.61-.91,19.19-2.17,28.71Zm-4.06-56.72c-.84-9.4-2.17-18.75-3.99-28.01l5.18-1.05c1.83,9.38,3.19,18.85,4.06,28.36l-5.25.7Zm-10.85-55.04c-2.66-8.82-5.81-17.71-9.46-26.54l4.91-1.96c3.64,8.89,7,18,9.59,26.96l-5.04,1.54Zm-21.01-52.17c-4.2-8.19-8.89-16.45-14.01-24.58l4.49-2.73c5.04,8.2,9.8,16.6,14,24.93l-4.48,2.38Zm-29.48-48.04c-5.39-7.56-11.21-15.05-17.23-22.33l4.06-3.36c6.1,7.35,11.98,14.98,17.44,22.61l-4.27,3.08Zm-35.85-43.55c-6.38-7-13.1-13.52-19.96-19.96l3.57-3.85c7,6.58,14,13.37,20.17,20.24l-3.78,3.57Zm-41.11-38.73c-7-5.95-14.64-11.83-22.13-17.432l3.08-4.202c7.64,5.602,15.2,11.554,22.41,17.644l-3.36,3.99Z" fill="#263238"/><path d="M1533.15,1675.77c-4.71-.58-9.39-1.43-14.01-2.52l1.26-5.11c0,0,5.04,1.26,13.45,2.45l-.7,5.18Z" fill="#263238"/><path d="M1462.49,1665.34c-3.29,28.01,53.92,43.69,58.26,7s-54.97-35.22-58.26-7Z" fill="#263238"/><path d="M1537.42,1711.69c-5.32,10.58-24.16,12.05-43.63-1.54-13.22-10.09-24.39-22.62-32.91-36.9c16.46-1.72,33.1-.27,49.02,4.27c23.04,7.77,33.12,23.46,27.52,34.17Z" fill="#ebebeb"/><path d="M1461.09,1673.25c11.06,4.97,21.92,10.36,32.77,15.69c10.86,5.32,21.57,10.99,32.14,16.87-11.06-4.97-21.91-10.36-32.77-15.68-10.85-5.33-21.57-11-32.14-16.88Z" fill="#263238"/><path d="M1511.93,1711.48c-2.51-2.91-4.85-5.98-7-9.17-2.12-3.17-4.04-6.47-5.75-9.87c2.52,2.91,4.86,5.98,7.01,9.17c2.13,3.16,4.05,6.46,5.74,9.87Z" fill="#263238"/><path d="M1488.4,1686.9c3.85-1,7.76-1.79,11.69-2.38c3.97-.56,7.97-.91,11.98-1.05-7.76,1.93-15.69,3.08-23.67,3.43Z" fill="#263238"/><path d="M1482.31,1691.53c-2.41-3-4.13-6.49-5.04-10.23c2.41,3,4.13,6.49,5.04,10.23Z" fill="#263238"/><path d="M1546.66,1638.38c-2.73-11.56-20.66-17.3-42.71-8.62-15.23,6.78-29.01,16.41-40.62,28.36c15.74,5.45,32.38,7.83,49.02,7.01c23.6-1.96,37.11-14.85,34.31-26.75Z" fill="#ebebeb"/><path d="M1463.33,1658.12c11.91-2.24,23.74-5.04,35.5-7.77c11.77-2.73,23.53-5.67,35.02-8.96-11.84,2.24-23.67,5.04-35.44,7.77-11.76,2.73-23.38,5.67-35.08,8.96Z" fill="#263238"/><path d="M1521.66,1632.63c-3.04,2.17-5.97,4.51-8.75,7.01-2.78,2.61-5.42,5.37-7.91,8.26c3.08-2.13,6-4.47,8.75-7c2.8-2.6,5.44-5.36,7.91-8.27Z" fill="#263238"/><path d="M1492.95,1651.12c7.1,3.69,14.56,6.63,22.27,8.75-7.08-3.72-14.55-6.65-22.27-8.75Z" fill="#263238"/><path d="M1488.4,1645.24c-1.52,1.14-2.91,2.46-4.13,3.92-1.21,1.5-2.27,3.12-3.15,4.83c1.53-1.16,2.91-2.5,4.13-3.99c1.27-1.43,2.33-3.03,3.15-4.76Z" fill="#263238"/><path d="M1462.49,1665.34c2.01.23,3.9,1.05,5.44,2.36s2.65,3.04,3.21,4.98c.55,1.95.52,4.01-.09,5.93-.62,1.92-1.79,3.62-3.37,4.88s-3.5,2.02-5.51,2.19-4.03-.26-5.8-1.24c-1.77-.97-3.21-2.45-4.14-4.24s-1.3-3.82-1.08-5.83c.31-2.7,1.68-5.16,3.81-6.85c2.12-1.7,4.83-2.48,7.53-2.18Z" fill="#455a64"/><path d="M1464.87,1644.96c1.34.16,2.63.57,3.81,1.23s2.21,1.54,3.05,2.6c.83,1.05,1.45,2.26,1.82,3.56.37,1.29.48,2.65.32,3.99s-.57,2.63-1.23,3.81c-.66,1.17-1.54,2.21-2.6,3.04-1.05.84-2.26,1.46-3.56,1.83-1.29.36-2.65.47-3.99.32-2.7-.32-5.17-1.7-6.85-3.83-1.69-2.13-2.46-4.85-2.15-7.55.32-2.7,1.7-5.17,3.83-6.86s4.85-2.46,7.55-2.14Z" fill="#455a64"/></g><g><path d="M830.157,2324.7c0,0-149.295,298.94-149.365,298.94-12.325,61.69-21.989,116.1-24.439,144.67-.037.17-.037.33,0,.49-1.293,6.63-1.029,13.46.77,19.96-.036.16-.036.33,0,.49c15.896,16.11,506.497,129.06,525.197,127.24c18.69-1.82,14.7-54.55-.84-74.09-15.55-19.54-184.101-147.05-184.101-147.05l145.931-299.43-313.153-71.22Z" fill="#d3766a"/><path d="M1174.89,2916.77c-18.41,1.82-501.661-111.2-517.487-127.24-.023-.16-.023-.33,0-.49-1.833-6.49-2.12-13.33-.84-19.96-.059-.15-.059-.33,0-.49c2.381-28.57,12.114-82.98,24.369-144.74l35.713-71.57l309.585,84.88-28.571,58.68c0,0,161.061,127.23,176.671,147.05c15.62,19.82,19.05,72.13.56,73.88Z" fill="#ebebeb"/><path d="M1181.62,2908.93c-18.7,1.4-510.492-123.95-526.178-140.62-6.022-6.23,8.053-78.98,27.591-166.38l.63-2.73l318.197,77.38-1.47,5.32c0,0,166.73,132.21,182.07,152.38c15.33,20.17,17.78,73.32-.84,74.65Z" fill="#263238"/><path d="M1180.85,2888.41c-82.35-23.11-416.798-108.82-499.988-125.49-.701,0-.841.35,0,.56c81.16,24.72,416.308,107.7,499.848,126.05c1.61.63,1.89-.63.14-1.12Z" fill="#fff"/><path d="M1026.79,2689.68c-31.092-14.43-72.267-19.61-103.079-2.67-1.19.63,0,2.32.841,2.25c33.745-2.12,67.621-.62,101.048,4.48.49.03.98-.11,1.38-.39.4-.29.69-.7.83-1.17s.12-.98-.07-1.43c-.19-.46-.52-.83-.95-1.07Z" fill="#fff"/><path d="M1046.68,2709.84c-31.02-14.35-72.2-19.53-103.081-2.66-1.19.63,0,2.31.91,2.31c33.746-2.15,67.621-.65,101.051,4.48.51.05,1.02-.08,1.44-.37s.73-.72.86-1.22c.14-.49.09-1.02-.13-1.48-.21-.47-.59-.84-1.05-1.06Z" fill="#fff"/><path d="M1066.63,2730.08c-31.09-14.42-72.263-19.61-103.074-2.73-1.19.7,0,2.38.91,2.31c33.723-2.11,67.574-.61,100.974,4.48.49.03.98-.11,1.38-.39.41-.28.7-.69.84-1.16.14-.48.11-.98-.08-1.44-.18-.45-.52-.83-.95-1.07Z" fill="#fff"/><path d="M1193.59,2893.24c7.91,5.6-1.54,34.66-8.47,35.43s-542.563-138.3-551.036-142.71s3.151-36.2,14.005-35.01s545.501,142.29,545.501,142.29Z" fill="#af1ee0"/><path d="M750.817,2674.97c-31.091-26.89-72.967,21.43-42.015,48.39c30.951,26.96,73.177-21.43,42.015-48.39Z" fill="#fff"/><path d="M717.555,2528.41l358.815,90.47c0,0,334.44-603.55,326.95-756.98-10.29-211.62-258.75-862.299-258.75-862.299h-297.467c0,0,197.407,703.409,200.137,821.749c1.19,61.91-329.685,707.06-329.685,707.06Z" fill="#455a64"/><path d="M1091.7,2546.05c-19.11-7.63-189.907-56.93-317.354-84.03-.14.05-.262.14-.348.26-.087.12-.133.26-.133.41c0,.14.046.29.133.41.086.12.208.21.348.25c40.125,14.01,293.334,80.74,317.074,84.03.56.21,1.12-.77.28-1.33Z" fill="#263238"/><path d="M1071.89,1670.24c-23.67-99.3-49.02-198.31-75.632-296.7-26.609-98.39-55.11-197.68-86.412-295.3-3.781-11.97-7.772-23.81-11.624-35.71-.111-.38-.369-.71-.717-.9s-.758-.23-1.139-.12c-.38.11-.701.37-.892.72-.19.35-.234.76-.123,1.14c28.01,97.26,56.021,194.32,82.561,291.93c26.538,97.62,51.818,195.52,75.628,294.11c5.95,24.37,11.76,48.67,17.44,73.11c6.59,25.05,11.69,50.47,15.26,76.12c2.95,24.51,1.26,49.36-4.97,73.25-6.76,23.47-15.59,46.29-26.4,68.2-42.9,93.14-85.782,186.29-128.637,279.47-42.856,93.42-49.789,114.71-91.034,208.89-5.112,11.7-10.224,23.39-15.126,35.01c0,.77.771,1.47,1.191.63c46.917-92.29,54.13-114.49,98.036-208.46c43.906-93.98,87.53-189.07,131.09-283.68c19.61-42.71,42.64-86.27,45.59-134.03c2.94-49.86-12.75-99.85-24.09-147.68Z" fill="#263238"/><path d="M1088.13,2442.9l11.49,329.13c1.89,63.02,4.62,118.13,8.75,146.49-.03.16-.03.33,0,.49.23,6.73,2.01,13.32,5.18,19.26l.42.42c19.12,12.11,522.53,11.83,540.11,5.88s2.03-56.37-17.51-71.99c-19.53-15.61-212.38-101.67-212.38-101.67l-14.64-328.78-321.42.77Z" fill="#d3766a"/><path d="M1097.24,2704.66c0,0,2.38,67.37,2.38,67.58c1.89,63.02,4.62,118.13,8.75,146.49-.03.16-.03.33,0,.49.96,6.6,2.7,13.07,5.18,19.26l.42.42c19.12,12.11,522.53,11.83,540.11,5.88s2.03-56.37-17.51-71.99c-19.53-15.61-212.38-101.67-212.38-101.67l-1.47-68.56-325.48,2.1Z" fill="#ebebeb"/><path d="M1654.36,2944.22c-17.78,5.67-525.19-2.17-544.38-14.78-7-4.69-10.5-78.63-11.76-168.06v-2.8l327.44,1.4v5.6c0,0,192.92,89.85,212.46,105.88c19.53,16.04,34.1,67.3,16.24,72.76Z" fill="#263238"/><path d="M1648.97,2924.75c-85.5-3.43-430.73-9.17-515.53-6.02-.7,0-.7.49,0,.49c84.66,5.25,429.96,8.26,515.53,7c1.75-.42,1.82-1.47,0-1.47Z" fill="#fff"/><path d="M1452.97,2766.84c-33.55-7-74.86-2.31-100.91,21.01-1.05.91,0,2.31,1.4,2.03c32.33-9.86,65.61-16.27,99.3-19.11.4-.13.76-.38,1.02-.72s.41-.75.43-1.17c.03-.43-.08-.85-.3-1.21-.23-.37-.55-.65-.94-.83Z" fill="#fff"/><path d="M1477.06,2781.83c-33.62-7-74.86-2.24-100.91,21.36-1.05.91,0,2.31,1.33,1.96c32.35-9.88,65.66-16.27,99.37-19.05.5-.06.97-.3,1.32-.68.35-.37.55-.86.58-1.37.02-.51-.13-1.01-.44-1.42-.31-.4-.76-.69-1.25-.8Z" fill="#fff"/><path d="M1501.07,2796.89c-33.54-7.01-74.78-2.32-100.9,21-.98.91,0,2.31,1.4,2.03c32.33-9.86,65.61-16.27,99.29-19.11.41-.13.77-.38,1.03-.72s.41-.75.43-1.17c.02-.43-.08-.85-.31-1.21-.22-.37-.55-.65-.94-.82Z" fill="#fff"/><path d="M1662.41,2926.15c9.04,3.64,6.59,34.11,0,36.42-6.58,2.31-560.2-8.69-569.24-10.93-9.03-2.24-5.39-35.92,5.61-37.53c10.99-1.61,563.63,12.04,563.63,12.04Z" fill="#af1ee0"/><path d="M1181.13,2816.56c-36.49-18.97-66.04,37.75-29.48,56.72c36.55,18.98,66.03-37.74,29.48-56.72Z" fill="#fff"/><path d="M1140.86,999.04c-1.33,6.09-75.49,299.29-84.73,304.75-10.5,6.24,269.46,382.9,302.65,567.84c21.01,118.28,70.03,807.68,70.03,807.68h-356.99c0,0-35.02-585.48-46.64-778.41-4.55-74.85-285.357-420.92-312.036-651.66-8.404-72.68,43.836-250.48,43.836-250.48l383.88.28Z" fill="#455a64"/><path d="M1062.78,2400.75c-4.2-96.99-8.05-194.18-15.12-291.03-3.99-54.9-11.84-108.05-17.3-162.74c0-2.87-2.59-3.57-2.52-.63c2.52,97.41,10.57,193.76,15.76,291.1c5.18,97.33,10.15,120.02,15.68,217.08c3.08,54.9,5.81,109.8,10.09,164.63.04.14.13.26.25.35.12.08.26.13.41.13s.29-.05.41-.13c.12-.09.21-.21.26-.35.21-97.48-3.65-121.08-7.92-218.41Z" fill="#263238"/><path d="M1359.13,1876.25c-3.05-25.61-8.01-50.96-14.84-75.83-7.36-24.11-17.04-47.45-28.92-69.68-24.3-46.64-51.96-91.73-78.64-137.04s-54.48-91.59-82.63-136.83c-15.83-25.4-31.73-50.77-47.69-76.12-16.25-25.56-33.4-50.63-50.14-75.84-.13-.21-.34-.36-.58-.42s-.5-.02-.72.11c-.21.13-.36.34-.42.58s-.02.5.11.71c27.31,45.8,54.34,91.67,81.65,137.46c27.31,45.8,54.2,91.74,81.09,137.68c26.89,45.93,53.01,90.47,78.36,136.41c12.48,21.81,23.23,44.57,32.14,68.06c8.29,24.35,14.32,49.41,18,74.86c9.52,59.31,17.29,119.04,29.2,177.79.04.14.13.27.25.35.12.09.27.14.41.14.15,0,.29-.05.41-.14.12-.08.21-.21.26-.35-3.71-54.06-10.15-108.19-17.3-161.9Z" fill="#263238"/><path d="M1397.37,2618.11c-20.38-2.66-175.91-8.05-306.02-2.45-.84,0-.77,1.26,0,1.33c42.37,3.71,281.93,5.39,305.81,2.59.63-.07.91-1.33.21-1.47Z" fill="#263238"/><path d="M1102.7,1283.77c-36.37,13.25-71.52,29.65-105.041,49.01-.288.13-.513.37-.624.67-.112.29-.101.62.029.91s.369.51.664.62c.296.12.623.1.911-.03c35.431-15.26,71.641-29.83,106.231-46.98.56-.29.98-.79,1.17-1.39.19-.59.13-1.24-.16-1.8-.28-.56-.78-.98-1.38-1.17s-1.25-.13-1.8.16Z" fill="#263238"/><path d="M1113.41,1041.06c0-1.19-2.24-1.47-2.24,0c.01,39.57-1.98,79.11-5.95,118.48-1.68,18.28-16.39,119.04-48.04,112.04-5.32-1.26-7.98-6.44-8.82-14.49.09-10.46,1.5-20.86,4.2-30.96c3.5-21,6.3-42.01,8.12-63.65c3.71-39.76,3.29-79.79-1.26-119.46-.06-.23-.19-.43-.37-.57-.19-.14-.41-.21-.64-.21-.24,0-.46.07-.64.21-.19.14-.32.34-.38.57.92,55.11-2.31,110.21-9.66,164.84-3.99,26.26-17.23,65.82,10.29,70.02s46.08-62.11,49.44-80.25c8.76-51.71,10.76-104.34,5.95-156.57Z" fill="#263238"/><path d="M1058.02,1273.75c-2.8,6.84-5.14,13.86-7,21.01-2.02,5.49-3.01,11.31-2.94,17.16.03.23.14.46.3.64.16.17.38.3.61.35.24.05.49.03.71-.06s.42-.24.55-.44c3.31-5.17,5.79-10.81,7.35-16.74c2.45-6.51,4.97-12.88,7-19.47.33-.87.29-1.84-.09-2.68-.39-.85-1.1-1.51-1.97-1.83-.87-.33-1.84-.29-2.69.09-.85.39-1.5,1.1-1.83,1.97Z" fill="#263238"/><path d="M1072.94,1995.02c-3.36-49.86-3.15-102.45-24.37-148.67-11.27-22.52-24.24-44.15-38.8-64.7-14.469-22.13-28.754-44.37-42.853-66.74-56.02-89.42-110.08-180.66-159.309-274.15-23.738-45.02-45.586-91.52-57.491-141.24-11.609-52.32-13.814-106.29-6.512-159.38c1.68-13.23,3.501-26.4,5.672-39.56.007-.18-.048-.36-.156-.5s-.262-.24-.435-.28c-.174-.04-.357-.02-.517.06-.161.07-.289.21-.363.37-11.521,50.49-15.463,102.41-11.694,154.05c5.389,49.38,19.296,97.46,41.105,142.09c21.708,46.98,47.548,92.22,73.037,137.25c26.283,46.68,53.337,92.69,81.16,138.02c28.011,45.24,56.861,89.56,85.786,134.1c14.75,21,26.24,44.12,34.1,68.55c6.37,25.5,10.03,51.6,10.92,77.87c7.01,110.22,35.02,476.67,44.96,586.33c1.19,14,2.45,28.01,3.78,42.01-.04.15-.05.3-.02.45s.09.29.19.41c.09.12.21.22.34.28.14.07.29.11.44.11s.3-.04.43-.11c.14-.06.25-.16.35-.28.09-.12.15-.26.18-.41s.02-.3-.02-.45c-4.2-110.08-32.7-475.61-39.91-585.48Z" fill="#263238"/><path d="M901.583,1095.68c0-.77-1.26-.49-1.26,0-1.051,30.6,0,62.25-11.975,91.03-10.784,26.54-32.492,45.17-56.791,59.1-14.131,7.93-28.696,15.06-43.626,21.36-1.05.49-.63,2.17.56,1.82c28.011-8.96,56.931-18.7,80.39-37.46c25.069-20.17,36.063-49.37,37.254-80.88.429-18.44-1.097-36.86-4.552-54.97Z" fill="#263238"/><path d="M1056.97,596.882c40.06,122.965,148.25,332.413,186.9,357.692c34.24,22.338,195.37-2.591,266.1-19.607c26.33-6.373-32.91-207.067-60.99-199.714-33.69,8.823-134.03,31.442-141.32,25.839-7.28-5.602-108.47-130.248-180.17-203.635-65.27-66.454-85.65-7.072-70.52,39.425Z" fill="#d3766a"/><path d="M1494.49,936.507c13.52-1.68,127.87-7.002,180.32-35.503c28.01-15.195,99.51-65.474,92.36-83.541-6.51-16.456-29.48-7.492-29.48-7.492s31.58-22.899,22.34-45.727c-9.24-22.829-47.41-5.672-47.41-5.672s30.74-25.91,19.89-47.968-46.29,1.54-46.29,1.54s29.2-22.338,12.61-36.763c-20.03-17.367-69.26,29.971-102.52,41.035-7.56,2.521-156.58,40.195-156.58,40.195l54.76,179.896Z" fill="#d3766a"/><path d="M1684.96,711.514c-36.27,34.663-58.19,43.556-106.65,53.36-.91,0-.84,1.68,0,1.54c48.32-5.252,77.38-12.464,108.26-53.219c1.68-2.031.07-3.361-1.61-1.681Z" fill="#263238"/><path d="M1711.43,757.731c-40.82,32.772-64.49,42.576-114.49,56.581-.7,0-.42,1.471.35,1.331c50.14-9.664,78.99-17.507,115.47-55.601c1.68-1.68.56-3.781-1.33-2.311Z" fill="#263238"/><path d="M1735.24,810.531c-42.01,28.85-67.29,40.825-117.57,48.178-.24,0-.47.095-.65.266-.17.171-.26.402-.26.644c0,.241.09.473.26.644.18.17.41.266.65.266c52.03-2.521,84.03-17.156,118.13-48.598c2.52-1.961,2.03-3.151-.56-1.4Z" fill="#263238"/><path d="M1400.66,763.053c0,0,41.66-47.128,64.49-63.794s130.95-47.477,138.93-24.509c10.3,29.691-48.59,59.732-79.34,70.656c0,0,23.88,68.626-14,99.297-37.89,30.671-110.08-81.65-110.08-81.65Z" fill="#d3766a"/><path d="M1604.29,683.924c-10.15,33.822-51.47,45.587-80.53,58.401-.43.186-.81.469-1.11.828-.3.358-.51.782-.62,1.238-.11.455-.11.93-.01,1.386.11.456.32.88.62,1.24c8.13,29.411,10.93,73.247-9.66,98.036-.56.701.35,1.681,1.05,1.051c25.7-23.529,26.4-66.875,15.47-98.527c30.05-12.674,70.94-26.329,75.07-63.513.07-.14-.21-.14-.28-.14Z" fill="#263238"/><path d="M1494.42,971.03l-52.8-240.469L1310.95,754.3c-51.53-59.032-154.54-177.026-196.07-212.459-49.02-41.595-81.09-10.364-63.02,52.66c40.82,144.043,160.22,355.521,191.45,375.479c45.31,29.06,251.11,1.05,251.11,1.05Z" fill="#af1ee0"/><path d="M1307.87,827.477c6.47,1.406,13.06,2.18,19.68,2.311c14.01,1.89,20.17,22.548,7.42,30.391-6.69,4.122-14.26,6.618-22.09,7.287s-15.71-.508-23-3.436c-14.01-5.462-25.84-19.047-22.83-35.013.52-2.976,1.8-5.767,3.72-8.1c1.92-2.334,4.41-4.131,7.23-5.217c2.82-1.085,5.87-1.423,8.86-.979s5.82,1.654,8.2,3.512c3.88,3.59,8.18,6.694,12.81,9.244Zm-36.13-57.211c-5.04,23.808,31.79,44.256,50.63,31.581c1.52-1.15,2.76-2.627,3.63-4.322.86-1.695,1.34-3.564,1.39-5.468.04-1.905-.34-3.795-1.12-5.531-.79-1.736-1.95-3.273-3.41-4.496-5.53-4.482-10.16-5.182-15.06-9.244-1.71-1.338-3.22-2.918-4.48-4.691-2.78-3.829-6.33-7.027-10.43-9.384-2.14-.911-4.45-1.327-6.77-1.215-2.31.111-4.57.747-6.61,1.86-2.04,1.112-3.79,2.672-5.14,4.561-1.35,1.89-2.24,4.061-2.63,6.349Zm-58.75,1.26c-7.56,9.874-1.89,24.719,4.76,33.682c2.99,4.464,7.12,8.054,11.95,10.404c4.84,2.35,10.21,3.375,15.57,2.971c1.95-.275,3.79-1.108,5.28-2.401c1.48-1.293,2.57-2.989,3.12-4.884.54-1.894.53-3.907-.04-5.796-.57-1.888-1.67-3.571-3.18-4.845-4.21-3.203-7.57-7.386-9.8-12.185-3.29-7.423-5.46-17.016-14.01-20.237-2.33-.96-4.91-1.158-7.36-.567s-4.65,1.941-6.29,3.858ZM1368.1,927.264c-9.88,19.957,20.16,42.645,38.37,38.724c6.09-1.331,11.97-9.314,6.58-15.056-4.34-4.621-9.52-8.263-13.58-13.165-4.97-5.952-7.71-13.585-15.48-16.596-2.92-1.224-6.21-1.273-9.17-.139-2.96,1.135-5.37,3.366-6.72,6.232ZM1086.03,682.523c-1.72-3.279-4.11-6.164-7-8.473c3.92,10.037,8.05,20.097,12.39,30.181.24-7.594-1.63-15.105-5.39-21.708Zm39.01-21.008c-1.38-17.298-8.14-33.731-19.33-46.987-8.4-10.854-22.97-28.01-38.38-24.299-1.63.511-3.06,1.537-4.07,2.924-1.01,1.388-1.55,3.063-1.53,4.779-.98,11.834,12.61,24.509,18.49,33.962c7,11.905,12.53,25.07,20.1,36.904c1.58,2.433,3.9,4.289,6.63,5.292c2.72,1.002,5.69,1.097,8.47.27c2.78-.828,5.22-2.532,6.96-4.86c1.73-2.328,2.66-5.153,2.66-8.055v.07Zm-4.56,75.278c2.74-.141,5.36-1.156,7.48-2.895c2.11-1.74,3.62-4.112,4.29-6.768c1.09-5.437.72-11.064-1.05-16.317-1.05-5.001-3.47-9.61-7-13.304-1.27-1.17-2.82-1.991-4.49-2.384-1.68-.392-3.43-.343-5.08.145-1.65.487-3.15,1.394-4.34,2.634-1.2,1.239-2.05,2.768-2.48,4.436-.56,4.089-.56,8.236,0,12.325c0,1.751,0,3.501,0,5.322-.04,2.638.25,5.272.84,7.843.75,2.558,2.31,4.805,4.44,6.407s4.73,2.474,7.39,2.486v.07Z" opacity="0.1" fill="#030402"/><path d="M1448.7,950.022c-6.03-14.005-21.01-76.188-24.3-91.664-3.29-15.475-15.48-78.079-19.05-93.974c0-.911.98-1.401,1.19-.561c3.78,15.686,20.66,77.449,24.37,92.855c3.71,15.405,17.65,77.518,18.63,93.134.01.055.01.113,0,.169c0,.056-.02.11-.05.159-.06.098-.16.169-.27.197s-.23.011-.33-.048c-.1-.06-.17-.155-.19-.267Z" fill="#263238"/><path d="M1327.34,983.074c-36.76,0-69.05-3.501-84.03-13.095-31.44-20.307-150.84-231.085-191.94-375.409-10.37-36.133-4.13-61.902,12.25-69.395l263.72,457.899Z" opacity="0.1"/><path d="M734.782,1032.02c.91,1.33,437.868,57.35,442.568,53.29c2.47-12.16,4.22-24.46,5.25-36.83c0,0-40.06-475.757-60.79-503.698-18.13-24.369-73.17-42.015-110.64-26.119-78.635,33.332-266.935,458.389-264.904,476.176-.14-.21-12.605,35.501-11.484,37.181Z" fill="#af1ee0"/><path d="M892.34,974.111c6.739,3.273,13.773,5.899,21.008,7.843c14.565,5.812,15.896,30.116,0,35.016-8.45,2.68-17.41,3.35-26.164,1.95s-17.06-4.83-24.255-10.01c-14.005-9.8-23.038-28.007-15.476-44.253c1.388-3.091,3.548-5.773,6.273-7.788c2.724-2.015,5.921-3.295,9.283-3.717s6.776.028,9.914,1.307s5.894,3.345,8.003,5.997c3.921,4.552,6.302,10.574,11.414,13.655Zm-23.949-72.337c-11.974,24.719,22.689,57.001,46.707,48.248c2.012-.804,3.81-2.065,5.253-3.682c1.442-1.617,2.489-3.547,3.059-5.637.571-2.091.648-4.285.226-6.41-.421-2.126-1.33-4.124-2.655-5.839-4.762-6.372-9.664-8.403-14.006-14.005-1.498-1.936-2.702-4.084-3.571-6.372-2.07-4.889-5.093-9.317-8.893-13.025-8.333-8.053-21.708-2.381-26.12,6.722Zm-40.475-26.329c-13.095,4.901-16.456,22.548-15.476,35.013.202,6.055,2.006,11.948,5.229,17.078c3.224,5.13,7.75,9.313,13.118,12.122c2.026.905,4.271,1.204,6.463.86c2.192-.343,4.237-1.314,5.889-2.796c1.652-1.481,2.839-3.409,3.418-5.551.58-2.142.526-4.406-.154-6.518-2.223-5.599-2.994-11.669-2.241-17.646c1.191-8.964,4.762-19.468-1.19-27.521-1.657-2.321-4.005-4.059-6.71-4.965-2.704-.905-5.625-.932-8.346-.076Zm143.553,83.33c-3.315-.284-6.612.712-9.217,2.782-2.604,2.071-4.317,5.059-4.788,8.352-.358,3.539.53,7.091,2.512,10.045c1.981,2.953,4.932,5.122,8.342,6.131c4.775,1.576,9.93,1.576,14.706,0c2.444-.966,4.457-2.781,5.672-5.111c1.406-2.255,1.976-4.932,1.61-7.563-.387-2.456-1.513-4.735-3.226-6.536-1.714-1.801-3.934-3.039-6.367-3.548-.441-.582-.959-1.1-1.541-1.541-2.223-1.726-4.898-2.772-7.703-3.011ZM864.12,789.803c-11.765,12.044-7.003,39.424,6.442,48.668c1.731,1.316,3.776,2.156,5.932,2.437c2.157.281,4.349-.007,6.359-.835c2.011-.828,3.77-2.168,5.102-3.886c1.333-1.719,2.192-3.756,2.494-5.909.207-2.774.207-5.559,0-8.333c0-3.011-.42-4.902,0-7.003c1.048-5.987,1.26-12.091.63-18.137-.544-2.867-1.891-5.521-3.885-7.652s-4.552-3.652-7.377-4.386-5.8-.65-8.579.242c-2.779.891-5.248,2.554-7.118,4.794ZM788.141,964.027c-16.176,19.187,10.504,52.103,31.442,52.733c7.003,0,15.616-7.01,11.274-14.71-3.501-6.161-8.193-11.623-11.274-17.995-3.781-7.843-4.692-17.017-12.395-22.339-2.872-2.111-6.442-3.047-9.981-2.618s-6.781,2.192-9.066,4.929Zm386.329-6.092c-2.63.395-5.09,1.564-7.06,3.36-1.97,1.795-3.36,4.136-4,6.724-2.24,7.773-2.52,14.705-8.33,21.008-6.29,4.948-11.94,10.664-16.81,17.013-.81,1.59-1.2,3.36-1.12,5.14.07,1.78.61,3.51,1.56,5.02.94,1.51,2.27,2.75,3.83,3.6c1.57.84,3.33,1.27,5.11,1.23c12.23-1.5,23.43-7.62,31.31-17.09-1.4-13.303-2.81-28.919-4.42-46.285l-.07.28Zm-35.01-57.771c-3.92,9.523-3.22,20.307-6.51,30.251-2.89,9.116-6.33,18.049-10.29,26.75-2.95,6.302,2.94,16.246,10.57,12.885c12.41-4.766,22.57-14.045,28.43-25.98c5.32-10.994,11.2-29.481,6.09-41.175-5.11-11.695-22.48-16.807-28.43-3.011l.14.28Zm-39.91,95.445c-5.82,7.521-13.27,13.621-21.78,17.861-2.03.63-3.9,1.68-5.49,3.09-1.59,1.4-2.87,3.13-3.74,5.07s-1.32,4.04-1.31,6.16c0,2.13.45,4.23,1.33,6.16.87,1.94,2.15,3.66,3.74,5.07c1.59,1.4,3.47,2.45,5.5,3.08c2.03.62,4.17.81,6.28.55c2.1-.27,4.13-.98,5.94-2.08c7.25-3.11,13.73-7.77,18.98-13.65s9.14-12.84,11.41-20.39c3.3-12.111-13.09-20.024-21-11.201l.14.28Zm-64.01-343.127c3.92.828,8,.109,11.39-2.006s5.84-5.461,6.82-9.338c3.92-15.056-9.52-30.531-20.17-39.915-10.64-9.383-25.63-17.927-40.543-13.095-1.986.644-3.774,1.784-5.195,3.312-1.422,1.529-2.429,3.395-2.927,5.422s-.47,4.148.081,6.161s1.608,3.852,3.069,5.343c6.513,8.123,15.545,14.005,22.475,21.988c6.94,7.983,12.68,19.817,24.86,21.848l.14.28Zm53.71,59.452c5.88-8.473,1.33-21.008-2.87-29.061-2.24-4.442-5.71-8.139-10.01-10.644-2.89-1.85-6.4-2.484-9.76-1.763-3.35.722-6.29,2.739-8.17,5.615-1.91,3.982-2.21,8.546-.84,12.744.59,2.197,1.38,4.331,2.38,6.373v.63.56c1.25,6.687,4.09,12.978,8.27,18.347c1.44,1.456,3.2,2.558,5.15,3.22c1.94.661,4.01.864,6.04.593c2.04-.271,3.98-1.009,5.68-2.157c1.71-1.147,3.12-2.673,4.13-4.457Zm36.14-50.139c-1.37-17.297-8.13-33.73-19.33-46.987-8.4-10.854-22.97-28.01-38.38-24.299-1.63.512-3.06,1.537-4.07,2.925-1.01,1.387-1.55,3.063-1.53,4.778-.98,11.834,12.61,24.509,18.49,33.963c7,11.904,12.53,25.069,20.1,36.903c1.65,2.299,3.98,4.019,6.66,4.916s5.58.924,8.28.079c2.7-.846,5.07-2.521,6.76-4.789c1.69-2.267,2.62-5.01,2.67-7.839l.35.35ZM1072.52,781.68c2.56.559,5.21.559,7.77,0c3.88-1.195,7.16-3.824,9.17-7.353c1.88-3.756,2.82-7.914,2.73-12.114-.12-3.98-1.2-7.87-3.15-11.345l-2.31-2.871-3.08-2.24c-1.93-.995-4.05-1.541-6.22-1.6s-4.32.372-6.3,1.26-3.73,2.211-5.13,3.87c-1.39,1.659-2.4,3.612-2.94,5.713-1.16,4.079-1.98,8.248-2.45,12.465l.63,3.851c.49,1.933,1.46,3.713,2.8,5.182c2.12,2.445,4.97,4.14,8.13,4.832l.35.35Zm48.31-44.607c2.74-.141,5.36-1.156,7.48-2.895c2.11-1.739,3.62-4.111,4.29-6.768c1.09-5.437.72-11.064-1.05-16.316-1.05-5.002-3.47-9.611-7-13.305-1.27-1.17-2.81-1.991-4.49-2.384-1.68-.392-3.43-.342-5.08.145s-3.15,1.395-4.34,2.634c-1.2,1.24-2.05,2.768-2.48,4.437-.56,4.089-.56,8.235,0,12.324c0,1.751,0,3.501,0,5.322-.04,2.639.25,5.272.84,7.843.78,2.45,2.31,4.595,4.37,6.139c2.06,1.543,4.54,2.408,7.11,2.474l.35.35Z" opacity="0.1" fill="#030402"/><path d="M1563.82,746.317c15.47,1.4,31.23,2.731,46.57,5.462c15.33,2.731,30.53,6.092,45.58,10.294c19.72,5.069,38.8,12.376,56.86,21.778-33.26-14.356-88.02-25.14-103.35-28.011-15.34-2.871-30.54-6.302-45.8-9.033-.42.14-.28-.49.14-.49Z" fill="#263238"/><path d="M1552.82,801.567c19.68,2.591,39.43,4.482,59.04,7.983c19.6,3.502,37.74,8.544,57,13.375c1.47.35.77,1.051-.7.701-19.47-4.062-37.68-6.303-57.14-10.084-19.47-3.782-38.8-8.403-58.34-11.554-.28,0-.21-.491.14-.421Z" fill="#263238"/><path d="M1534.83,847.224c30.36,3.297,60.31,9.726,89.35,19.187c1.47.42.49,1.19-1.05.84-29.55-7.002-52.73-12.604-88.37-18.977-.56-.07-.56-1.12.07-1.05Z" fill="#263238"/><g id="e7wreFaoQdY131" transform="translate(.000001 0)"><path d="M1096.25,619.36c-26.68-2.451-60.85-59.452-67.36-95.656-.42-2.521,10.22-23.598,21.92-49.788c7-15.896,14.56-33.823,20.17-50.629l96.91,60.993c-13.08,19.025-23.78,39.578-31.86,61.202-.72,2.283-1.24,4.627-1.54,7.003.02.396.02.794,0,1.19-2.45,14.006-12.4,68.066-38.24,65.685Z" fill="#d3766a"/><path d="M1134.49,552.625c.02.397.02.794,0,1.191-3.73-.731-7.41-1.738-10.99-3.011-60.65-21.849-49.93-101.398-45.66-123.386L1102,442.685l66.17,42.015c-13.07,19.018-23.75,39.573-31.79,61.203-.83,2.178-1.47,4.429-1.89,6.722Z" fill="#263238"/><path d="M1081.13,311.036c-20.03,36.063-23.53,151.886-1.33,182.628c32.07,44.536,96.49,61.902,137.32,21.007c39.56-40.054,41.39-191.1,15.62-220.231-38.1-43.276-122.06-36.694-151.61,16.596Z" fill="#d3766a"/><path d="M1174.12,404.661c0,0-.63,0-.63.7c0,7.983-1.4,17.086-8.68,19.467v.49c8.89-.98,10.57-13.095,9.31-20.657Z" fill="#263238"/><path d="M1167.33,396.117c-12.81-1.4-14.7,24.229-2.87,25.56c11.83,1.33,13.59-24.369,2.87-25.56Z" fill="#263238"/><path d="M1220.06,407.392c0,0,.56.42.56.77-.91,7.913-.56,17.156,6.37,20.307c0,0,0,.561,0,.491-8.75-1.961-9.03-14.216-6.93-21.568Z" fill="#263238"/><path d="M1227.83,399.689c12.82,0,11.77,25.699,0,25.699-11.76,0-10.78-25.769,0-25.699Z" fill="#263238"/><path d="M1177.7,390.935c-3.58.771-7.01.841-10.51,1.261-3.63.949-7.46.678-10.92-.77-1.01-.664-1.77-1.642-2.16-2.782s-.4-2.378-.01-3.521c1.14-2.088,2.82-3.836,4.87-5.066c2.04-1.23,4.37-1.898,6.75-1.936c4.84-.93,9.85.021,14.01,2.661.86.65,1.53,1.532,1.91,2.543.39,1.011.48,2.111.27,3.173-.22,1.061-.72,2.041-1.47,2.826-.74.785-1.7,1.344-2.74,1.611Z" fill="#263238"/><path d="M1239.32,375.81c-3.4-.954-6.74-2.1-10.02-3.431-3.68-.695-7.03-2.591-9.52-5.392-.62-1.027-.88-2.231-.74-3.424.14-1.192.67-2.304,1.51-3.159c1.91-1.462,4.19-2.377,6.58-2.648c2.39-.272,4.81.111,7.01,1.108c4.73,1.295,8.82,4.286,11.48,8.403.55.977.81,2.093.75,3.214-.07,1.121-.46,2.199-1.13,3.102-.67.904-1.58,1.595-2.63,1.99-1.05.396-2.19.478-3.29.237Z" fill="#263238"/><path d="M1168.31,467.824c10.31-2.469,21.06-2.469,31.37,0c.91,0,1.82-1.821,2.03-2.661l.56-16.806c2.18,1.26,13.1,7.002,13.1,3.921c1.14-27.315-.53-54.675-4.97-81.65-.05-.157-.15-.294-.28-.391s-.29-.15-.46-.15c-.16,0-.32.053-.45.15-.14.097-.23.234-.28.391-1.12,25.279,2.1,50.489,1.33,75.908-3.87-2.141-8.02-3.721-12.33-4.692-.91,0,0,17.857,0,20.518-9.64-3.32-20.19-2.742-29.41,1.611-3.64,2.31-5.11,5.392-.21,3.851Z" fill="#263238"/><path d="M1147.58,484.49c1.75,1.961,3.5,4.622,6.31,5.042c2.94.141,5.88-.361,8.61-1.471c0,0,.49,0,0,.421-1.21,1.486-2.8,2.612-4.6,3.254-1.81.642-3.75.776-5.62.387-1.53-.49-2.89-1.411-3.91-2.653-1.02-1.243-1.66-2.753-1.84-4.35.14-.77.77-.91,1.05-.63Z" fill="#263238"/><path d="M1114.95,274.272c-1.05,17.997-5.32,73.808-14,85.152-8.69,11.344-27.03,37.744-36.35,42.016c1.26-37.184,7.01-72.547,16.6-91.034c7.86-14.812,19.51-27.279,33.75-36.134Z" opacity="0.2" fill="#263238"/><path d="M1214.74,328.822c-4.9,4.984-10.99,8.631-17.69,10.592-6.71,1.961-13.8,2.172-20.61.612-6.97-1.55-13.43-4.872-18.74-9.643-5.31-4.772-9.3-10.833-11.59-17.597c0-.42-.77,0-.63,0c1.78,7.303,5.53,13.979,10.84,19.3s11.98,9.085,19.27,10.881c7.29,1.391,14.82.828,21.81-1.632c7-2.46,13.23-6.729,18.04-12.373.42.07-.14-.56-.7-.14Z" fill="#263238"/><path d="M1179.59,225.044c-10.77-.728-21.54,1.264-31.33,5.792-9.79,4.527-18.28,11.446-24.69,20.118-5.47,8.825-7.79,19.24-6.59,29.551h.91c.14-9.048,2.71-17.891,7.46-25.595c4.74-7.704,11.48-13.983,19.5-18.172c8.77-4.907,18.55-7.72,28.59-8.218c10.03-.498,20.04,1.332,29.25,5.347c9.06,3.735,16.51,10.558,21.01,19.257.42.911,2.24.491,1.89-.42-5.74-15.265-24.3-26.61-46-27.66Z" fill="#263238"/><path d="M1313.34,286.107c-3.05-11.855-10.2-22.25-20.17-29.341-14.01-10.014-30.39-9.874-46.78-9.314-.49,0-.42.701,0,.631c13.93-1.455,27.99,1.147,40.48,7.492c10.16,6.1,17.9,15.526,21.91,26.68c3.82,11.441,3.38,23.875-1.24,35.017-4.62,11.141-13.1,20.24-23.9,25.626-6.28,2.952-13.1,4.587-20.03,4.804-6.94.216-13.85-.99-20.3-3.544-.49,0-.91.49-.42.771c8.73,3.856,18.37,5.195,27.82,3.864s18.34-5.278,25.67-11.396c7.33-6.119,12.8-14.164,15.79-23.227c3-9.063,3.4-18.783,1.17-28.063Z" fill="#263238"/><path d="M1074.13,333.794c0,0-19.33-44.046,1.33-67.154c11.69-13.025,46.84-8.544,46.84-8.544c10.51-13.33,25.87-21.944,42.72-23.949c30.04-4.691,64.28,15.616,64.28,15.616s29.28-14.005,54.41,3.011c35.02,23.739,26.26,79.27-11.97,94.395-26.89,10.714-60.36-14.915-60.36-14.915-3.36,0-39.64,18.487-63.52-14.426c0,0-22.68,17.297-40.82,2.591-3.45,5.339-8.46,9.487-14.35,11.88s-12.37,2.915-18.56,1.495Z" fill="#263238"/><path d="M1085.54,406.971c0,0-18.35-41.105-36.48-35.013-18.14,6.093-9.32,61.973,8.61,72.897c2.19,1.52,4.65,2.585,7.26,3.133c2.6.548,5.29.568,7.9.059s5.1-1.538,7.3-3.024c2.21-1.487,4.1-3.401,5.55-5.63l-.14-32.422Z" fill="#d3766a"/><path d="M1052,387.784v.49c12.46,8.053,17.16,21.989,19.61,35.924-.53-1.502-1.38-2.871-2.49-4.013-1.1-1.143-2.45-2.031-3.93-2.604-1.49-.572-3.08-.816-4.67-.713-1.58.103-3.13.549-4.53,1.307-.42,0,0,.771,0,.771c2.55-.295,5.13.223,7.37,1.481c2.24,1.257,4.02,3.19,5.1,5.521c1.9,3.788,3.35,7.783,4.34,11.905c0,1.33,2.66,1.12,2.52,0c3.57-18.067-5.18-44.747-23.32-50.069Z" fill="#263238"/></g><g id="e7wreFaoQdY150" transform="translate(.000002 0)"><g><path d="M2056.16,488.555L1302.24,719.483l135.93,443.777l753.92-230.924-135.93-443.781Z" fill="#af1ee0"/><path d="M2289.78,982.654l-253.43,77.586-97.68-50.28l253.42-77.654l97.69,50.348Z" fill="#af1ee0"/><path d="M1385.39,1259.68l253.43-77.66l52.72-96.36-253.42,77.59-52.73,96.43Z" fill="#af1ee0"/><path d="M2056.16,488.555L1302.24,719.483l135.93,443.777l753.92-230.924-135.93-443.781Z" opacity="0.2"/><path d="M2056.12,488.559l-253.36,77.605l135.93,443.776l253.36-77.601-135.93-443.78Z" opacity="0.2"/><path d="M2043.99,511.17c-8.55,39.308-16.86,78.616-24.93,117.924l-23.88,118.203-23.11,118.694c-7.56,39.495-14.94,79.059-22.13,118.694c8.54-39.261,16.85-78.569,24.93-117.924l23.88-118.203l23.11-118.414c7.56-39.681,14.94-79.339,22.13-118.974Z" fill="#af1ee0"/><path d="M2168.42,917.46c-28.01-28.757-56.28-57.398-84.8-85.922l-85.43-85.151-85.99-84.521c-28.76-28.011-57.66-56.021-86.7-84.032c28.02,28.804,56.28,57.445,84.81,85.922l85.43,85.152l85.99,84.521c28.8,28.29,57.7,56.301,86.69,84.031Z" fill="#af1ee0"/><path d="M1302.27,719.497l11.14,36.414l521.13-85.992-31.79-103.709-500.48,153.287Z" opacity="0.1"/><path d="M2289.78,982.654l-253.43,77.586-97.68-50.28l253.42-77.654l97.69,50.348Z" opacity="0.2"/><path d="M1385.39,1259.68l253.43-77.66l52.72-96.36-253.42,77.59-52.73,96.43Z" opacity="0.1"/><path d="M1475.31,709.063l-17.23.42l37.32-11.554-14.56,9.383l6.58,21.428c11.83-2.031,19.82,7.843,25.84,27.45l-37.32,11.765c-6.03-19.538-4.98-32.212,5.95-37.184l-6.58-21.708Z" fill="#263238"/><path d="M1512.84,723.979l9.73-3.011-8.75-28.571l24.93-7.633l8.75,28.571l9.81-3.011-13.17,36.553-31.3-22.898Z" fill="#263238"/><path d="M1447.04,776.671l4.15-1.271-17.86-58.318-4.16,1.271l17.87,58.318Z" fill="#263238"/><path d="M1437.18,779.633l4.15-1.271-17.86-58.318-4.16,1.271l17.87,58.318Z" fill="#263238"/><path d="M1427.22,782.808l4.16-1.271-17.87-58.319-4.15,1.272l17.86,58.318Z" fill="#263238"/><path d="M1417.38,785.666l4.15-1.271-17.86-58.321-4.15,1.271l17.86,58.321Z" fill="#263238"/><path d="M1407.44,788.753l4.15-1.272-17.87-58.318-4.15,1.271l17.87,58.319Z" fill="#263238"/><path d="M1397.55,791.718l4.16-1.272-17.87-58.318-4.15,1.272l17.86,58.318Z" fill="#263238"/><path d="M1387.56,794.98l4.15-1.272-17.87-58.318-4.15,1.272l17.87,58.318Z" fill="#263238"/><path d="M1377.66,797.924l4.15-1.272-17.87-58.315-4.15,1.272l17.87,58.315Z" fill="#263238"/><path d="M1367.68,801.067l4.15-1.271-17.86-58.318-4.16,1.271l17.87,58.318Z" fill="#263238"/></g><g><path d="M1342.12,815.152c0,0,53.57-60.362,91.52-83.401c40.06-22.931,85.1-35.787,131.23-37.463c49.79-1.961,171.56,27.59,169.11,64.143-2.17,33.123-125.07-3.431-125.07-3.431s131.44,16.596,121.5,56.021c-9.94,39.424-150.21-11.204-150.21-11.204s134.66,20.027,118.28,59.172c-12.61,29.48-142.22-9.174-142.22-9.174s115.68,18.067,103.98,49.018c-12.88,34.103-134.8,5.952-134.8,5.952-42.78,73.388-93.27,91.034-130.59,98.945-9.32,1.61-52.73-188.578-52.73-188.578Z" fill="#d3766a"/><path d="M968.318,651.012C1005.36,774.888,1108.37,987.136,1146.6,1013.05c33.69,23.17,195.38,2.1,266.1-13.239c26.47-5.672-28.01-207.767-56.02-201.115-33.89,8.053-134.8,28.011-141.94,22.479s-105.04-133.05-175.07-207.837c-63.579-68.065-85.357-9.174-71.352,37.674Z" fill="#d3766a"/><path d="M1396.67,1035.66l-47.06-241.726-131.16,20.588c-50.14-60.222-150.27-180.667-191.17-217.08-47.968-42.786-80.81-12.255-64.354,51.119C1000.6,793.444,1114.88,1007.44,1145.83,1028.45c44.4,30.11,250.84,7.21,250.84,7.21Z" fill="#af1ee0"/><path d="M1351.43,1013.47c-5.67-14.36-18.98-76.683-22.13-92.299-3.15-15.615-13.58-78.359-16.73-94.395c0-.84.98-1.4,1.19-.49c3.36,15.756,18.83,77.869,22.12,93.415c3.3,15.546,15.83,77.869,16.39,93.559.03.11.01.22-.05.32s-.15.17-.27.2c-.11.03-.22.01-.32-.05s-.17-.15-.2-.26Z" fill="#263238"/><path d="M1308.15,1042.46c-21.49,1.26-42.99,1.75-64.49,1.61-21.58.09-43.14-1.15-64.56-3.71-10.98-1.09-21.72-3.93-31.8-8.41-9.06-6.4-16.93-14.34-23.24-23.46-12.7-17.519-24.19-35.885-34.39-54.967-21.01-37.744-39.07-77.028-56.72-116.103-17.65-39.074-33.681-79.269-48.387-119.744c17.857,39.145,35.507,78.359,53.847,117.224c18.35,38.864,36.91,77.588,56.93,115.472c10,18.897,21.03,37.225,33.06,54.898c5.61,8.8,12.72,16.55,21,22.9c9.55,4.4,19.74,7.26,30.19,8.47c42.64,5.17,85.62,7.11,128.56,5.82Z" fill="#263238"/><path d="M998.219,751.849c-2.877-2.905-5.479-6.07-7.773-9.454-2.377-3.351-4.197-7.063-5.392-10.994c1.055,1.74,2.2,3.423,3.431,5.042l3.431,4.972c2.305,3.351,4.409,6.835,6.303,10.434Z" fill="#263238"/><path d="M1108.79,686.935c17.72,17.786,33.61,37.323,50.07,56.02c16.45,18.697,32.21,38.445,49.02,57.071l6.23,7.003c1.12,1.05,2.17,2.241,3.22,3.221c1.05.981,1.05.911,1.54,1.331c0,0,.49,0,.77,0c5.32,0,12.05-1.191,18.07-1.961l37.25-5.532c24.79-3.641,49.65-7.423,74.51-10.784l.98,6.162-1.47-6.092h.35c-24.58,5.252-49.02,9.944-73.95,14.495-12.39,2.241-24.79,4.202-37.25,6.093-6.37,1.105-12.8,1.854-19.26,2.24-.51.066-1.03.066-1.54,0-.69-.206-1.33-.538-1.89-.98-.71-.548-1.38-1.133-2.03-1.751l-3.43-3.361c-2.24-2.311-4.34-4.622-6.44-7.002-16.46-19.117-32.43-38.445-48.11-58.052l-23.46-29.481c-7.7-9.173-14.71-19.257-23.18-28.64Z" fill="#263238"/><path d="M1117.96,689.036c2.64,3.24,4.98,6.708,7.01,10.364c1.97,3.611,3.36,7.51,4.13,11.554-.84-1.891-1.89-3.572-2.87-5.392l-2.88-5.392c-1.99-3.612-3.79-7.329-5.39-11.134Z" fill="#263238"/></g></g><path d="M1307.87,827.477c6.47,1.406,13.06,2.18,19.68,2.311c14.01,1.891,20.17,22.548,7.42,30.391-6.69,4.123-14.26,6.618-22.09,7.287s-15.71-.508-23-3.435c-14.01-5.462-25.84-19.047-22.83-35.013.52-2.977,1.8-5.767,3.72-8.101s4.41-4.131,7.23-5.216c2.82-1.086,5.87-1.423,8.86-.979c2.99.443,5.82,1.653,8.2,3.512c3.88,3.589,8.18,6.694,12.81,9.243Zm-14-24.789c4.39,2.118,9.23,3.147,14.11,3.001c4.87-.146,9.64-1.464,13.9-3.841c1.57-1.048,2.83-2.5,3.64-4.202l-31.65,5.042Zm-68.14,10.644c5.58,4.073,12.46,5.943,19.33,5.252c2.37-.325,4.55-1.47,6.16-3.235c1.61-1.766,2.55-4.04,2.66-6.429l-28.15,4.412Zm148.46,107.91c-2.77,1.161-5.02,3.306-6.3,6.022-5.89,11.834,2.31,24.579,14,32.212l-7.7-38.234Zm-210.92,46.497c-2.24,7.773-2.52,14.705-8.33,21.008-6.26,5.044-11.86,10.855-16.67,17.293-.81,1.59-1.2,3.36-1.12,5.14.07,1.78.61,3.51,1.56,5.02.94,1.51,2.26,2.75,3.83,3.6c1.57.84,3.33,1.27,5.11,1.23c12.2-1.5,23.4-7.53,31.36-16.9c7.96-9.362,12.12-21.377,11.64-33.66-.39-3.148-1.84-6.069-4.11-8.285-2.27-2.215-5.23-3.595-8.39-3.912-3.15-.317-6.32.446-8.99,2.166s-4.67,4.293-5.68,7.3h-.21Zm-24.16-67.855c-3.92,9.523-3.22,20.307-6.51,30.251-2.89,9.116-6.33,18.049-10.3,26.75-2.94,6.302,2.95,16.246,10.58,12.885c12.41-4.766,22.57-14.045,28.43-25.98c5.32-10.994,11.2-29.481,6.09-41.175s-22.13-16.526-28.08-2.731h-.21ZM1035.19,652.202c3.91.828,8,.109,11.39-2.005c3.39-2.115,5.84-5.462,6.82-9.339c3.92-15.055-9.52-30.531-20.17-39.915-10.64-9.383-25.63-17.926-40.543-13.095-1.986.644-3.775,1.784-5.196,3.313-1.422,1.528-2.429,3.394-2.927,5.421-.498,2.028-.47,4.148.081,6.161.552,2.014,1.608,3.853,3.07,5.343c6.512,8.123,15.545,14.005,22.475,21.988c6.94,7.983,13.03,20.098,25.21,22.128h-.21Zm54.06,59.732c5.88-8.473,1.33-21.007-2.87-29.06-2.24-4.443-5.71-8.14-10.01-10.644-2.89-1.851-6.4-2.485-9.76-1.763-3.36.721-6.29,2.739-8.17,5.614-1.91,3.982-2.21,8.547-.84,12.745.59,2.196,1.38,4.33,2.38,6.372v.63.561c1.25,6.687,4.09,12.977,8.26,18.346c1.45,1.457,3.21,2.559,5.16,3.22c1.94.661,4.01.865,6.04.593c2.04-.271,3.98-1.009,5.68-2.156c1.71-1.148,3.12-2.673,4.13-4.458Zm-16.73,70.026c2.56.56,5.21.56,7.77,0c3.88-1.195,7.16-3.824,9.17-7.352c1.88-3.757,2.82-7.915,2.73-12.115-.12-3.979-1.2-7.87-3.15-11.344l-2.31-2.871-3.08-2.241c-1.93-.994-4.05-1.541-6.22-1.6-2.17-.058-4.32.372-6.3,1.261-1.98.888-3.73,2.211-5.13,3.87s-2.4,3.612-2.94,5.712c-1.16,4.079-1.98,8.249-2.45,12.465l.63,3.851c.49,1.933,1.45,3.713,2.8,5.182c2.16,2.342,5,3.936,8.13,4.552l.35.63Zm58.75-71.076l-14.01-15.756c-2.24-.266-4.49.3-6.34,1.592-1.85,1.291-3.15,3.217-3.67,5.411-.56,4.089-.56,8.235,0,12.324c0,1.751,0,3.502,0,5.322-.04,2.639.25,5.272.84,7.843.76,2.665,2.4,4.997,4.65,6.622s4.97,2.449,7.74,2.342c2.74-.142,5.36-1.157,7.48-2.896c2.11-1.739,3.62-4.111,4.29-6.768c1.05-5.341.71-10.863-.98-16.036Z" opacity="0.1" fill="#030402"/></g><g><path d="M278.073,2520.14c-2.592-65.52-1.68-131.13,2.731-196.56c9.657-134.84,30.242-268.68,61.553-400.2c17.156-74.09,38.304-147.05,60.362-219.74.63-2.17,4.132-1.54,3.572.7-68.136,256.58-124.086,521.41-120.235,788.07c1.12,74.65,9.734,147.97,16.806,222.12c0,2.04-3.081,2.81-3.501.78-14.075-63.66-18.627-130.32-21.288-195.17Z" fill="#af1ee0"/><path d="M406.29,1703.99c0,0,103.218,262.04,80.11,323.59-23.109,61.55-70.796,74.72-70.796,74.72s63.023,90.19,19.047,175.06c-43.977,84.87-142.153,80.53-148.735,176.47c0-.28-5.462-401.25,120.374-749.84Z" fill="#af1ee0"/><path d="M297.19,2288.01c-.172-.45-.172-.95,0-1.4c13.613-178.89,47.225-355.69,100.207-527.09c0-.49.98-.35.84,0-20.447,76.61-38.514,153.64-54.2,231.09c13.794-13.1,30.645-22.54,49.019-27.45c0,0,.49,0,0,.49-19.394,7.17-36.814,18.83-50.839,34.03-2.988,15.13-5.906,30.32-8.754,45.59c23.039-25.77,55.041-38.59,87.043-50.77.42,0,.7.56,0,.7-33.333,13.58-66.595,31.09-89.143,59.8-7.937,43.46-14.939,87.09-21.008,130.88c16.689-17.39,38.074-29.56,61.553-35.01.7,0,1.12.91,0,1.12-24.233,7-45.909,20.89-62.393,39.98h-.421c-2.054,15.41-3.991,30.84-5.812,46.29c13.302-10.98,28.326-19.69,44.467-25.77.42,0,.63.49,0,.63-15.807,7.01-30.282,16.7-42.786,28.64c0,0,0,0-.56,0-1.681,14.63-3.432,29.34-4.902,44.05c23.255-28.09,53.422-49.64,87.532-62.54.069-.03.143-.04.217-.04.075,0,.148.02.216.05s.13.07.182.12c.052.06.093.12.121.19.027.07.041.14.04.21-.001.08-.016.15-.046.22-.029.07-.071.13-.125.18-.053.05-.116.1-.185.12-33.692,14.85-63.292,37.62-86.271,66.39-.237.33-.577.59-.968.71-.392.13-.815.12-1.203-.01-2.241,22.55-4.272,45.16-5.882,67.78h-.561c1.121-22.9,2.731-46.07,4.622-69.18Z" fill="#263238"/><path d="M380.101,1937.39c18.687-11.65,40.049-18.3,62.042-19.33.491,0,.561.7,0,.77-21.243,3.93-41.871,10.67-61.342,20.03-.183.03-.374.01-.541-.08-.166-.08-.301-.22-.381-.39-.08-.16-.102-.35-.062-.54.04-.18.14-.34.284-.46Z" fill="#263238"/><path d="M367.566,2214.76c14.373-8.21,30.176-13.6,46.567-15.9.56,0,.63.77,0,.84-16.057,3.23-31.588,8.68-46.147,16.18-.49.28-1.05-.77-.42-1.12Z" fill="#263238"/><path d="M6.72227,2031.85c43.64413,30.2,83.72183,65.25,119.46373,104.48c36.958,41.47,65.498,89.72,84.032,142.08c39.167,109.13,60.242,223.92,62.393,339.84c1.341,64.2-4.84,128.34-18.417,191.1-.119.44-.398.82-.782,1.06-.383.24-.844.33-1.292.26-.447-.08-.849-.33-1.126-.69s-.41-.81-.372-1.26c16.914-110.77,16.347-223.5-1.68-334.09-17.787-108.4-45.587-226.33-114.492-314.42-37.8845-47.76-84.6618-85.64-130.59879-124.79-2.73101-1.96.35012-5.32,2.87106-3.57Z" fill="#af1ee0"/><path d="M257.205,2540.24c-24.826-40.21-54.017-77.55-87.042-111.34-51.679-51.61-95.1653-88.3-101.8878-122.48-6.7224-34.17,51.7488-59.24,51.7488-59.24s-71.4961,12.82-91.0333-17.22C9.45349,2199.91,0,2026.32,0,2026.32s129.898,93.13,190.61,222.89c60.713,129.76,66.595,291.03,66.595,291.03Z" fill="#af1ee0"/><path d="M46.4271,2189.48c8.5566-1.22,17.2215-1.5,25.8395-.84c1.0504,0,.9804,1.82,0,1.82-8.5431,0-17.0863-.42-25.6995,0-.7003-.14-.7002-.98-.14-.98Z" fill="#263238"/><path d="M139.982,2357.54c13.746.29,27.332,3.02,40.124,8.06c0,0,0,.63,0,.56-13.234-3.16-26.609-4.49-39.984-6.66-1.331,0-1.261-1.96-.14-1.96Z" fill="#263238"/><path d="M168.062,2299.49c5.709-.05,11.409.47,17.016,1.54.561,0,.491,1.05,0,1.05-5.685.29-11.385,0-17.016-.84-.19-.05-.357-.17-.477-.33-.119-.15-.183-.35-.183-.54c0-.2.064-.39.183-.55.12-.16.287-.27.477-.33Z" fill="#263238"/><path d="M638.286,2216.23c-42.283,14.33-82.807,33.41-120.795,56.86-39.334,25.13-73.453,57.61-100.487,95.66-56.921,79.27-100.514,167.31-129.057,260.63-15.884,51.65-25.707,104.97-29.271,158.89c0,.41.162.8.451,1.09s.681.45,1.089.45c.409,0,.801-.16,1.09-.45s.451-.68.451-1.09c11.833-93.42,38.226-184.41,78.219-269.67c39.424-83.61,89.213-172.61,165.331-227.93c41.455-30.18,88.023-49.86,134.45-70.73c2.731-1.12,1.33-4.55-1.471-3.71Z" fill="#af1ee0"/><path d="M318.127,2569.72c29.366-26.82,61.611-50.3,96.146-70.02c53.78-29.84,97.406-49.51,110.781-75.56s-28.01-59.94-28.01-59.94s54.83,26.89,77.588,7c22.759-19.89,70.516-158.19,70.516-158.19s-126.606,45.1-205.736,136.41c-79.129,91.31-121.285,220.3-121.285,220.3Z" fill="#af1ee0"/><path d="M423.236,2442.55c12.429-.87,24.909.66,36.764,4.49c0,0,0,.63,0,.56-12.116-2.04-24.348-3.3-36.623-3.79-.168.02-.335-.03-.467-.13-.131-.11-.215-.26-.234-.43-.018-.16.03-.33.135-.46s.258-.22.425-.24Z" fill="#263238"/><path d="M533.737,2297.6c5.667-.41,11.364-.08,16.946.98.108.04.2.11.265.21.066.09.101.2.101.32c0,.11-.035.22-.101.32-.065.09-.157.16-.265.2-5.532-.63-11.064-.42-16.666-.56-.172-.01-.337-.07-.467-.19-.13-.11-.218-.26-.251-.43-.032-.17-.006-.35.073-.5.079-.16.208-.28.365-.35Z" fill="#263238"/><path d="M154.757,2962.92h285.846l-40.755-298.66-10.434-76.54h-183.468l-10.434,76.54-40.755,298.66Z" fill="#455a64"/><path d="M195.512,2664.26h204.336l-10.434-76.54h-183.468l-10.434,76.54Z" fill="#263238"/><path d="M179.617,2625.95h236.057v-64.84h-236.057v64.84Z" fill="#455a64"/></g><g id="e7wreFaoQdY201" transform="matrix(.651866 0 0 0.651866 526.634566 147.930724)"><path d="M1677.47,157.119c0,28.818-8.01,57.069-23.14,81.6-15.12,24.532-36.76,44.379-62.5,57.328-25.75,12.949-54.59,18.49-83.3,16.005s-56.16-12.898-79.3-30.077l-76.26,19.467l31.72-70.936c-11.16-20.857-17.42-43.986-18.31-67.627-.88-23.641,3.64-47.172,13.22-68.8039c9.58-21.6316,23.96-40.7942,42.06-56.0306s39.43-26.1453,62.38-31.89733s46.91-6.195589,70.05-1.29701c23.15,4.89857,44.87,15.01034,63.52,29.56634s33.73,33.1729,44.11,54.4351c10.37,21.2624,15.76,44.6094,15.75,68.2674Z" fill="#fff"/><path d="M1677.47,157.049c-.01,28.854-7.95,57.15-22.97,81.79-3.65,6.212-7.67,12.198-12.04,17.927-4.65,5.485-9.63,10.677-14.92,15.546-10.45,9.849-22.23,18.171-35.01,24.719-12.82,6.542-26.49,11.257-40.62,14.005-7.09,1.412-14.27,2.301-21.49,2.661-7.2.595-14.44.595-21.64,0-29.13-2.26-57.06-12.563-80.67-29.761l2.1.42-76.05,20.028-6.16,1.61l2.59-5.882l31.44-71.076v2.941c-11.44-21.262-17.83-44.871-18.68-68.999s3.87-48.128,13.78-70.1427c9.92-21.9525,24.7-41.3695,43.2-56.791c18.49-15.1941,40.18-26.0044,63.44-31.61957s47.49-5.88954,70.87-.80242c23.18,5.27102,44.88,15.65459,63.52,30.39129c18.54,14.6917,33.51,33.3958,43.78,54.7061c10.28,21.3103,15.59,44.6723,15.53,68.3293Zm0,0c-.01-35.574-12.34-70.047-34.88-97.5671s-53.91-46.3909-88.79-53.40867c-22.94-4.56748-46.63-3.84906-69.25,2.10077-22.55,5.8247-43.47,16.7492-61.13,31.9318-17.51,15.347-31.46,34.3195-40.9,55.6006-9.31,21.2206-13.66,44.2806-12.74,67.4346c1.08,22.924,7.2,45.327,17.92,65.615l.77,1.47-.7,1.471-32,70.866-3.57-4.202l76.4-18.907h1.19l.91.701c22.64,17.198,49.63,27.747,77.94,30.461c6.99.514,14.01.514,21.01,0c21.39-.735,42.39-6.061,61.55-15.616c12.78-6.223,24.58-14.292,35.01-23.949c5.29-4.796,10.27-9.918,14.92-15.335c4.46-5.572,8.59-11.394,12.39-17.437c15.29-24.366,23.57-52.469,23.95-81.23Z" fill="#263238"/><path d="M1532.73,173.925v17.157c.04,1.714-.26,3.42-.89,5.014-.64,1.593-1.59,3.041-2.8,4.254-1.21,1.212-2.66,2.165-4.25,2.799-1.6.634-3.3.936-5.02.887-1.7,0-3.38-.335-4.95-.987-1.56-.652-2.99-1.607-4.18-2.811-1.2-1.204-2.15-2.633-2.79-4.204-.65-1.571-.97-3.254-.96-4.952v-27.381c0,0,0,0,0-.56s0,0,0-.49c.08-3.396,1.47-6.63,3.86-9.039c2.4-2.408,5.63-3.81,9.02-3.916c4,.195,7.99-.424,11.74-1.819c3.75-1.396,7.18-3.539,10.08-6.299s5.21-6.079,6.78-9.758c1.58-3.678,2.39-7.638,2.39-11.64c0-4.001-.81-7.961-2.39-11.64-1.57-3.678-3.88-6.998-6.78-9.7577-2.9-2.76-6.33-4.9026-10.08-6.298s-7.74-2.0146-11.74-1.8198c-5.11-.0162-10.14,1.315-14.58,3.8596s-8.13,6.2129-10.7,10.6359c-.86,1.492-2.01,2.799-3.38,3.846s-2.93,1.813-4.59,2.256c-1.67.442-3.4.551-5.11.321-1.71-.229-3.36-.794-4.84-1.661-1.47-.866-2.74-2.012-3.76-3.372s-1.75-2.908-2.17-4.555c-.42-1.646-.5-3.3587-.26-5.0389.25-1.6802.83-3.2948,1.7-4.751c4.61-7.9323,11.11-14.5965,18.93-19.3942c7.82-4.7978,16.71-7.5789,25.87-8.0937c9.15-.5148,18.3,1.2529,26.6,5.1442c8.31,3.8914,15.52,9.7847,20.99,17.1508c5.46,7.366,9.01,15.9738,10.33,25.0518s.36,18.34-2.79,26.956c-3.14,8.617-8.38,16.317-15.24,22.409-6.85,6.092-15.12,10.386-24.04,12.496Zm0,57.772v4.761c.04,1.709-.27,3.408-.91,4.993s-1.59,3.024-2.81,4.229c-1.21,1.206-2.65,2.152-4.24,2.781-1.59.63-3.29.93-5,.882-3.42,0-6.69-1.357-9.11-3.774-2.42-2.416-3.77-5.693-3.77-9.111v-4.761c.03-3.413,1.4-6.677,3.81-9.096c2.4-2.42,5.66-3.805,9.07-3.859c1.71-.019,3.4.303,4.98.948c1.58.644,3.02,1.598,4.22,2.804c1.21,1.207,2.16,2.643,2.81,4.223.64,1.58.97,3.273.95,4.98Z" fill="#af1ee0"/></g></g>
<script><![CDATA[
!function(t,n){"object"==typeof exports&&"undefined"!=typeof module?module.exports=n():"function"==typeof __SVGATOR_DEFINE__&&__SVGATOR_DEFINE__.amd?__SVGATOR_DEFINE__(n):((t="undefined"!=typeof globalThis?globalThis:t||self).__SVGATOR_PLAYER__=t.__SVGATOR_PLAYER__||{},t.__SVGATOR_PLAYER__["5c7f360c"]=n())}(this,(function(){"use strict";function t(t,n){var e=Object.keys(t);if(Object.getOwnPropertySymbols){var r=Object.getOwnPropertySymbols(t);n&&(r=r.filter((function(n){return Object.getOwnPropertyDescriptor(t,n).enumerable}))),e.push.apply(e,r)}return e}function n(n){for(var e=1;e<arguments.length;e++){var r=null!=arguments[e]?arguments[e]:{};e%2?t(Object(r),!0).forEach((function(t){u(n,t,r[t])})):Object.getOwnPropertyDescriptors?Object.defineProperties(n,Object.getOwnPropertyDescriptors(r)):t(Object(r)).forEach((function(t){Object.defineProperty(n,t,Object.getOwnPropertyDescriptor(r,t))}))}return n}function e(t){return(e="function"==typeof Symbol&&"symbol"==typeof Symbol.iterator?function(t){return typeof t}:function(t){return t&&"function"==typeof Symbol&&t.constructor===Symbol&&t!==Symbol.prototype?"symbol":typeof t})(t)}function r(t,n){if(!(t instanceof n))throw new TypeError("Cannot call a class as a function")}function i(t,n){for(var e=0;e<n.length;e++){var r=n[e];r.enumerable=r.enumerable||!1,r.configurable=!0,"value"in r&&(r.writable=!0),Object.defineProperty(t,r.key,r)}}function o(t,n,e){return n&&i(t.prototype,n),e&&i(t,e),t}function u(t,n,e){return n in t?Object.defineProperty(t,n,{value:e,enumerable:!0,configurable:!0,writable:!0}):t[n]=e,t}function a(t){return(a=Object.setPrototypeOf?Object.getPrototypeOf:function(t){return t.__proto__||Object.getPrototypeOf(t)})(t)}function l(t,n){return(l=Object.setPrototypeOf||function(t,n){return t.__proto__=n,t})(t,n)}function s(){if("undefined"==typeof Reflect||!Reflect.construct)return!1;if(Reflect.construct.sham)return!1;if("function"==typeof Proxy)return!0;try{return Boolean.prototype.valueOf.call(Reflect.construct(Boolean,[],(function(){}))),!0}catch(t){return!1}}function f(t,n,e){return(f=s()?Reflect.construct:function(t,n,e){var r=[null];r.push.apply(r,n);var i=new(Function.bind.apply(t,r));return e&&l(i,e.prototype),i}).apply(null,arguments)}function c(t,n){if(n&&("object"==typeof n||"function"==typeof n))return n;if(void 0!==n)throw new TypeError("Derived constructors may only return object or undefined");return function(t){if(void 0===t)throw new ReferenceError("this hasn't been initialised - super() hasn't been called");return t}(t)}function h(t,n,e){return(h="undefined"!=typeof Reflect&&Reflect.get?Reflect.get:function(t,n,e){var r=function(t,n){for(;!Object.prototype.hasOwnProperty.call(t,n)&&null!==(t=a(t)););return t}(t,n);if(r){var i=Object.getOwnPropertyDescriptor(r,n);return i.get?i.get.call(e):i.value}})(t,n,e||t)}function v(t){return function(t){if(Array.isArray(t))return y(t)}(t)||function(t){if("undefined"!=typeof Symbol&&null!=t[Symbol.iterator]||null!=t["@@iterator"])return Array.from(t)}(t)||function(t,n){if(!t)return;if("string"==typeof t)return y(t,n);var e=Object.prototype.toString.call(t).slice(8,-1);"Object"===e&&t.constructor&&(e=t.constructor.name);if("Map"===e||"Set"===e)return Array.from(t);if("Arguments"===e||/^(?:Ui|I)nt(?:8|16|32)(?:Clamped)?Array$/.test(e))return y(t,n)}(t)||function(){throw new TypeError("Invalid attempt to spread non-iterable instance.\nIn order to be iterable, non-array objects must have a [Symbol.iterator]() method.")}()}function y(t,n){(null==n||n>t.length)&&(n=t.length);for(var e=0,r=new Array(n);e<n;e++)r[e]=t[e];return r}function g(t,n,e){if(Number.isInteger(t))return t;var r=Math.pow(10,n);return Math[e]((+t+Number.EPSILON)*r)/r}Number.isInteger||(Number.isInteger=function(t){return"number"==typeof t&&isFinite(t)&&Math.floor(t)===t}),Number.EPSILON||(Number.EPSILON=2220446049250313e-31);var d=p(Math.pow(10,-6));function p(t){var n=arguments.length>1&&void 0!==arguments[1]?arguments[1]:6;return g(t,n,"round")}function m(t,n){var e=arguments.length>2&&void 0!==arguments[2]?arguments[2]:d;return Math.abs(t-n)<e}p(Math.pow(10,-2)),p(Math.pow(10,-4));var b=Math.PI/180;function w(t){return t}function A(t,n,e){var r=1-e;return 3*e*r*(t*r+n*e)+e*e*e}function _(){var t=arguments.length>0&&void 0!==arguments[0]?arguments[0]:0,n=arguments.length>1&&void 0!==arguments[1]?arguments[1]:0,e=arguments.length>2&&void 0!==arguments[2]?arguments[2]:1,r=arguments.length>3&&void 0!==arguments[3]?arguments[3]:1;return t<0||t>1||e<0||e>1?null:m(t,n)&&m(e,r)?w:function(i){if(i<=0)return t>0?i*n/t:0===n&&e>0?i*r/e:0;if(i>=1)return e<1?1+(i-1)*(r-1)/(e-1):1===e&&t<1?1+(i-1)*(n-1)/(t-1):1;for(var o,u=0,a=1;u<a;){var l=A(t,e,o=(u+a)/2);if(m(i,l))break;l<i?u=o:a=o}return A(n,r,o)}}function x(){return 1}function k(t){return 1===t?1:0}function S(){var t=arguments.length>0&&void 0!==arguments[0]?arguments[0]:1,n=arguments.length>1&&void 0!==arguments[1]?arguments[1]:0;if(1===t){if(0===n)return k;if(1===n)return x}var e=1/t;return function(t){return t>=1?1:(t+=n*e)-t%e}}var O=Math.sin,j=Math.cos,M=Math.acos,E=Math.asin,P=Math.tan,I=Math.atan2,R=Math.PI/180,F=180/Math.PI,N=Math.sqrt,T=function(){function t(){var n=arguments.length>0&&void 0!==arguments[0]?arguments[0]:1,e=arguments.length>1&&void 0!==arguments[1]?arguments[1]:0,i=arguments.length>2&&void 0!==arguments[2]?arguments[2]:0,o=arguments.length>3&&void 0!==arguments[3]?arguments[3]:1,u=arguments.length>4&&void 0!==arguments[4]?arguments[4]:0,a=arguments.length>5&&void 0!==arguments[5]?arguments[5]:0;r(this,t),this.m=[n,e,i,o,u,a],this.i=null,this.w=null,this.s=null}return o(t,[{key:"determinant",get:function(){var t=this.m;return t[0]*t[3]-t[1]*t[2]}},{key:"isIdentity",get:function(){if(null===this.i){var t=this.m;this.i=1===t[0]&&0===t[1]&&0===t[2]&&1===t[3]&&0===t[4]&&0===t[5]}return this.i}},{key:"point",value:function(t,n){var e=this.m;return{x:e[0]*t+e[2]*n+e[4],y:e[1]*t+e[3]*n+e[5]}}},{key:"translateSelf",value:function(){var t=arguments.length>0&&void 0!==arguments[0]?arguments[0]:0,n=arguments.length>1&&void 0!==arguments[1]?arguments[1]:0;if(!t&&!n)return this;var e=this.m;return e[4]+=e[0]*t+e[2]*n,e[5]+=e[1]*t+e[3]*n,this.w=this.s=this.i=null,this}},{key:"rotateSelf",value:function(){var t=arguments.length>0&&void 0!==arguments[0]?arguments[0]:0;if(t%=360){var n=O(t*=R),e=j(t),r=this.m,i=r[0],o=r[1];r[0]=i*e+r[2]*n,r[1]=o*e+r[3]*n,r[2]=r[2]*e-i*n,r[3]=r[3]*e-o*n,this.w=this.s=this.i=null}return this}},{key:"scaleSelf",value:function(){var t=arguments.length>0&&void 0!==arguments[0]?arguments[0]:1,n=arguments.length>1&&void 0!==arguments[1]?arguments[1]:1;if(1!==t||1!==n){var e=this.m;e[0]*=t,e[1]*=t,e[2]*=n,e[3]*=n,this.w=this.s=this.i=null}return this}},{key:"skewSelf",value:function(t,n){if(n%=360,(t%=360)||n){var e=this.m,r=e[0],i=e[1],o=e[2],u=e[3];t&&(t=P(t*R),e[2]+=r*t,e[3]+=i*t),n&&(n=P(n*R),e[0]+=o*n,e[1]+=u*n),this.w=this.s=this.i=null}return this}},{key:"resetSelf",value:function(){var t=arguments.length>0&&void 0!==arguments[0]?arguments[0]:1,n=arguments.length>1&&void 0!==arguments[1]?arguments[1]:0,e=arguments.length>2&&void 0!==arguments[2]?arguments[2]:0,r=arguments.length>3&&void 0!==arguments[3]?arguments[3]:1,i=arguments.length>4&&void 0!==arguments[4]?arguments[4]:0,o=arguments.length>5&&void 0!==arguments[5]?arguments[5]:0,u=this.m;return u[0]=t,u[1]=n,u[2]=e,u[3]=r,u[4]=i,u[5]=o,this.w=this.s=this.i=null,this}},{key:"recomposeSelf",value:function(){var t=arguments.length>0&&void 0!==arguments[0]?arguments[0]:null,n=arguments.length>1&&void 0!==arguments[1]?arguments[1]:null,e=arguments.length>2&&void 0!==arguments[2]?arguments[2]:null,r=arguments.length>3&&void 0!==arguments[3]?arguments[3]:null,i=arguments.length>4&&void 0!==arguments[4]?arguments[4]:null;return this.isIdentity||this.resetSelf(),t&&(t.x||t.y)&&this.translateSelf(t.x,t.y),n&&this.rotateSelf(n),e&&(e.x&&this.skewSelf(e.x,0),e.y&&this.skewSelf(0,e.y)),!r||1===r.x&&1===r.y||this.scaleSelf(r.x,r.y),i&&(i.x||i.y)&&this.translateSelf(i.x,i.y),this}},{key:"decompose",value:function(){var t=arguments.length>0&&void 0!==arguments[0]?arguments[0]:0,n=arguments.length>1&&void 0!==arguments[1]?arguments[1]:0,e=this.m,r=e[0]*e[0]+e[1]*e[1],i=[[e[0],e[1]],[e[2],e[3]]],o=N(r);if(0===o)return{origin:{x:p(e[4]),y:p(e[5])},translate:{x:p(t),y:p(n)},scale:{x:0,y:0},skew:{x:0,y:0},rotate:0};i[0][0]/=o,i[0][1]/=o;var u=e[0]*e[3]-e[1]*e[2]<0;u&&(o=-o);var a=i[0][0]*i[1][0]+i[0][1]*i[1][1];i[1][0]-=i[0][0]*a,i[1][1]-=i[0][1]*a;var l=N(i[1][0]*i[1][0]+i[1][1]*i[1][1]);if(0===l)return{origin:{x:p(e[4]),y:p(e[5])},translate:{x:p(t),y:p(n)},scale:{x:p(o),y:0},skew:{x:0,y:0},rotate:0};i[1][0]/=l,i[1][1]/=l,a/=l;var s=0;return i[1][1]<0?(s=M(i[1][1])*F,i[0][1]<0&&(s=360-s)):s=E(i[0][1])*F,u&&(s=-s),a=I(a,N(i[0][0]*i[0][0]+i[0][1]*i[0][1]))*F,u&&(a=-a),{origin:{x:p(e[4]),y:p(e[5])},translate:{x:p(t),y:p(n)},scale:{x:p(o),y:p(l)},skew:{x:p(a),y:0},rotate:p(s)}}},{key:"clone",value:function(){var t=this.m;return new this.constructor(t[0],t[1],t[2],t[3],t[4],t[5])}},{key:"toString",value:function(){var t=arguments.length>0&&void 0!==arguments[0]?arguments[0]:" ";if(null===this.s){var n=this.m.map((function(t){return p(t)}));1===n[0]&&0===n[1]&&0===n[2]&&1===n[3]?this.s="translate("+n[4]+t+n[5]+")":this.s="matrix("+n.join(t)+")"}return this.s}}],[{key:"create",value:function(t){return t?Array.isArray(t)?f(this,v(t)):t instanceof this?t.clone():(new this).recomposeSelf(t.origin,t.rotate,t.skew,t.scale,t.translate):new this}}]),t}();function q(t,n,e){return t>=.5?e:n}function B(t,n,e){return 0===t||n===e?n:t*(e-n)+n}function D(t,n,e){var r=B(t,n,e);return r<=0?0:r}function L(t,n,e){var r=B(t,n,e);return r<=0?0:r>=1?1:r}function C(t,n,e){return 0===t?n:1===t?e:{x:B(t,n.x,e.x),y:B(t,n.y,e.y)}}function V(t,n,e){var r=function(t,n,e){return Math.round(B(t,n,e))}(t,n,e);return r<=0?0:r>=255?255:r}function G(t,n,e){return 0===t?n:1===t?e:{r:V(t,n.r,e.r),g:V(t,n.g,e.g),b:V(t,n.b,e.b),a:B(t,null==n.a?1:n.a,null==e.a?1:e.a)}}function z(t,n){for(var e=[],r=0;r<t;r++)e.push(n);return e}function Y(t,n){if(--n<=0)return t;var e=(t=Object.assign([],t)).length;do{for(var r=0;r<e;r++)t.push(t[r])}while(--n>0);return t}var $,U=function(){function t(n){r(this,t),this.list=n,this.length=n.length}return o(t,[{key:"setAttribute",value:function(t,n){for(var e=this.list,r=0;r<this.length;r++)e[r].setAttribute(t,n)}},{key:"removeAttribute",value:function(t){for(var n=this.list,e=0;e<this.length;e++)n[e].removeAttribute(t)}},{key:"style",value:function(t,n){for(var e=this.list,r=0;r<this.length;r++)e[r].style[t]=n}}]),t}(),Q=/-./g,H=function(t,n){return n.toUpperCase()};function J(t){return"function"==typeof t?t:q}function Z(t){return t?"function"==typeof t?t:Array.isArray(t)?function(t){var n=arguments.length>1&&void 0!==arguments[1]?arguments[1]:w;if(!Array.isArray(t))return n;switch(t.length){case 1:return S(t[0])||n;case 2:return S(t[0],t[1])||n;case 4:return _(t[0],t[1],t[2],t[3])||n}return n}(t,null):function(t,n){var e=arguments.length>2&&void 0!==arguments[2]?arguments[2]:w;switch(t){case"linear":return w;case"steps":return S(n.steps||1,n.jump||0)||e;case"bezier":case"cubic-bezier":return _(n.x1||0,n.y1||0,n.x2||0,n.y2||0)||e}return e}(t.type,t.value,null):null}function K(t,n,e){var r=arguments.length>3&&void 0!==arguments[3]&&arguments[3],i=n.length-1;if(t<=n[0].t)return r?[0,0,n[0].v]:n[0].v;if(t>=n[i].t)return r?[i,1,n[i].v]:n[i].v;var o,u=n[0],a=null;for(o=1;o<=i;o++){if(!(t>n[o].t)){a=n[o];break}u=n[o]}return null==a?r?[i,1,n[i].v]:n[i].v:u.t===a.t?r?[o,1,a.v]:a.v:(t=(t-u.t)/(a.t-u.t),u.e&&(t=u.e(t)),r?[o,t,e(t,u.v,a.v)]:e(t,u.v,a.v))}function W(t,n){var e=arguments.length>2&&void 0!==arguments[2]?arguments[2]:null;return t&&t.length?"function"!=typeof n?null:("function"!=typeof e&&(e=null),function(r){var i=K(r,t,n);return null!=i&&e&&(i=e(i)),i}):null}function X(t,n){return t.t-n.t}function tt(t,n,r,i,o){var u,a="@"===r[0],l="#"===r[0],s=$[r],f=q;switch(a?(u=r.substr(1),r=u.replace(Q,H)):l&&(r=r.substr(1)),e(s)){case"function":if(f=s(i,o,K,Z,r,a,n,t),l)return f;break;case"string":f=W(i,J(s));break;case"object":if((f=W(i,J(s.i),s.f))&&"function"==typeof s.u)return s.u(n,f,r,a,t)}return f?function(t,n,e){if(arguments.length>3&&void 0!==arguments[3]&&arguments[3])return t instanceof U?function(r){return t.style(n,e(r))}:function(r){return t.style[n]=e(r)};if(Array.isArray(n)){var r=n.length;return function(i){var o=e(i);if(null==o)for(var u=0;u<r;u++)t[u].removeAttribute(n);else for(var a=0;a<r;a++)t[a].setAttribute(n,o)}}return function(r){var i=e(r);null==i?t.removeAttribute(n):t.setAttribute(n,i)}}(n,r,f,a):null}function nt(t,n,r,i){if(!i||"object"!==e(i))return null;var o=null,u=null;return Array.isArray(i)?u=function(t){if(!t||!t.length)return null;for(var n=0;n<t.length;n++)t[n].e&&(t[n].e=Z(t[n].e));return t.sort(X)}(i):(u=i.keys,o=i.data||null),u?tt(t,n,r,u,o):null}function et(t,n,e){if(!e)return null;var r=[];for(var i in e)if(e.hasOwnProperty(i)){var o=nt(t,n,i,e[i]);o&&r.push(o)}return r.length?r:null}function rt(t,n){if(!n.settings.duration||n.settings.duration<0)return null;var e,r,i,o,u,a=function(t,n){if(!n)return null;var e=[];if(Array.isArray(n))for(var r=n.length,i=0;i<r;i++){var o=n[i];if(2===o.length){var u=null;if("string"==typeof o[0])u=t.getElementById(o[0]);else if(Array.isArray(o[0])){u=[];for(var a=0;a<o[0].length;a++)if("string"==typeof o[0][a]){var l=t.getElementById(o[0][a]);l&&u.push(l)}u=u.length?1===u.length?u[0]:new U(u):null}if(u){var s=et(t,u,o[1]);s&&(e=e.concat(s))}}}else for(var f in n)if(n.hasOwnProperty(f)){var c=t.getElementById(f);if(c){var h=et(t,c,n[f]);h&&(e=e.concat(h))}}return e.length?e:null}(t,n.elements);return a?(e=a,r=n.settings,i=r.duration,o=e.length,u=null,function(t,n){var a=r.iterations||1/0,l=(r.alternate&&a%2==0)^r.direction>0?i:0,s=t%i,f=1+(t-s)/i;n*=r.direction,r.alternate&&f%2==0&&(n=-n);var c=!1;if(f>a)s=l,c=!0,-1===r.fill&&(s=r.direction>0?0:i);else if(n<0&&(s=i-s),s===u)return!1;u=s;for(var h=0;h<o;h++)e[h](s);return c}):null}function it(t,n){for(var e=n.querySelectorAll("svg"),r=0;r<e.length;r++)if(e[r].id===t.root&&!e[r].svgatorAnimation)return e[r].svgatorAnimation=!0,e[r];return null}function ot(t){var n=function(t){return t.shadowRoot};return document?Array.from(t.querySelectorAll(":not("+["a","area","audio","br","canvas","circle","datalist","embed","g","head","hr","iframe","img","input","link","object","path","polygon","rect","script","source","style","svg","title","track","video"].join()+")")).filter(n).map(n):[]}function ut(t){var n=arguments.length>1&&void 0!==arguments[1]?arguments[1]:document,e=arguments.length>2&&void 0!==arguments[2]?arguments[2]:0,r=it(t,n);if(r)return r;if(e>=20)return null;for(var i=ot(n),o=0;o<i.length;o++){var u=ut(t,i[o],e+1);if(u)return u}return null}function at(t,n){if($=n,!t||!t.root||!Array.isArray(t.animations))return null;var e=ut(t);if(!e)return null;var r=t.animations.map((function(t){return rt(e,t)})).filter((function(t){return!!t}));return r.length?{svg:e,animations:r,animationSettings:t.animationSettings,options:t.options||void 0}:null}function lt(t){var n=arguments.length>1&&void 0!==arguments[1]?arguments[1]:null,e=arguments.length>2&&void 0!==arguments[2]?arguments[2]:Number,r=arguments.length>3&&void 0!==arguments[3]?arguments[3]:"undefined"!=typeof BigInt&&BigInt,i="0x"+(t.replace(/[^0-9a-fA-F]+/g,"")||27);return n&&r&&e.isSafeInteger&&!e.isSafeInteger(+i)?e(r(i))%n+n:+i}function st(t,n,e){return!t||!e||n>t.length?t:t.substring(0,n)+st(t.substring(n+1),e,e)}function ft(t){var n=arguments.length>1&&void 0!==arguments[1]?arguments[1]:27;return!t||t%n?t%n:[0,1].includes(n)?n:ft(t/n,n)}function ct(t,n,e){if(t&&t.length){var r=lt(e),i=ft(r)+5,o=st(t,ft(r,5),i);return o=o.replace(/\x7c$/g,"==").replace(/\x2f$/g,"="),o=function(t,n,e){var r=+("0x"+t.substring(0,4));t=t.substring(4);for(var i=lt(n,r)%r+e%27,o=[],u=0;u<t.length;u+=2)if("|"!==t[u]){var a=+("0x"+t[u]+t[u+1])-i;o.push(a)}else{var l=+("0x"+t.substring(u+1,u+1+4))-i;u+=3,o.push(l)}return String.fromCharCode.apply(String,o)}(o=(o=atob(o)).replace(/[\x41-\x5A]/g,""),n,r),o=JSON.parse(o)}}var ht=[{key:"alternate",def:!1},{key:"fill",def:1},{key:"iterations",def:0},{key:"direction",def:1},{key:"speed",def:1},{key:"fps",def:100}],vt=function(){function t(n,e){var i=this,o=arguments.length>2&&void 0!==arguments[2]?arguments[2]:null;r(this,t),this._id=0,this._running=!1,this._rollingBack=!1,this._animations=n,this._settings=e,(!o||o<"2022-05-02")&&delete this._settings.speed,ht.forEach((function(t){i._settings[t.key]=i._settings[t.key]||t.def})),this.duration=e.duration,this.offset=e.offset||0,this.rollbackStartOffset=0}return o(t,[{key:"alternate",get:function(){return this._settings.alternate}},{key:"fill",get:function(){return this._settings.fill}},{key:"iterations",get:function(){return this._settings.iterations}},{key:"direction",get:function(){return this._settings.direction}},{key:"speed",get:function(){return this._settings.speed}},{key:"fps",get:function(){return this._settings.fps}},{key:"maxFiniteDuration",get:function(){return this.iterations>0?this.iterations*this.duration:this.duration}},{key:"_apply",value:function(t){for(var n=arguments.length>1&&void 0!==arguments[1]?arguments[1]:{},e=this._animations,r=e.length,i=0,o=0;o<r;o++)n[o]?i++:(n[o]=e[o](t,1),n[o]&&i++);return i}},{key:"_rollback",value:function(t){var n=this,e=1/0,r=null;this.rollbackStartOffset=t,this._rollingBack=!0,this._running=!0;this._id=window.requestAnimationFrame((function i(o){if(n._rollingBack){null==r&&(r=o);var u=Math.round(t-(o-r)*n.speed);if(u>n.duration&&e!==1/0){var a=!!n.alternate&&u/n.duration%2>1,l=u%n.duration;u=(l+=a?n.duration:0)||n.duration}var s=(n.fps?1e3/n.fps:0)*n.speed,f=Math.max(0,u);f<=e-s&&(n.offset=f,e=f,n._apply(f));var c=n.iterations>0&&-1===n.fill&&u>=n.maxFiniteDuration;(u<=0||n.offset<u||c)&&n.stop(),n._id=window.requestAnimationFrame(i)}}))}},{key:"_start",value:function(){var t=this,n=arguments.length>0&&void 0!==arguments[0]?arguments[0]:0,e=-1/0,r=null,i={};this._running=!0;var o=function o(u){null==r&&(r=u);var a=Math.round((u-r)*t.speed+n),l=(t.fps?1e3/t.fps:0)*t.speed;if(a>=e+l&&!t._rollingBack&&(t.offset=a,e=a,t._apply(a,i)===t._animations.length))return void t.pause(!0);t._id=window.requestAnimationFrame(o)};this._id=window.requestAnimationFrame(o)}},{key:"_pause",value:function(){this._id&&window.cancelAnimationFrame(this._id),this._running=!1}},{key:"play",value:function(){if(!this._running)return this._rollingBack?this._rollback(this.offset):this._start(this.offset)}},{key:"stop",value:function(){this._pause(),this.offset=0,this.rollbackStartOffset=0,this._rollingBack=!1,this._apply(0)}},{key:"reachedToEnd",value:function(){return this.iterations>0&&this.offset>=this.iterations*this.duration}},{key:"restart",value:function(){var t=arguments.length>0&&void 0!==arguments[0]&&arguments[0];this.stop(t),this.play(t)}},{key:"pause",value:function(){this._pause()}},{key:"reverse",value:function(){this.direction=-this.direction}}],[{key:"build",value:function(t,n){delete t.animationSettings,t.options=ct(t.options,t.root,"5c7f360c"),t.animations.map((function(n){n.settings=ct(n.s,t.root,"5c7f360c"),delete n.s,t.animationSettings||(t.animationSettings=n.settings)}));var e=t.version;if(!(t=at(t,n)))return null;var r=t.options||{},i=new this(t.animations,t.animationSettings,e);return{el:t.svg,options:r,player:i}}},{key:"push",value:function(t){return this.build(t)}},{key:"init",value:function(){var t=this,n=window.__SVGATOR_PLAYER__&&window.__SVGATOR_PLAYER__["5c7f360c"];Array.isArray(n)&&n.splice(0).forEach((function(n){return t.build(n)}))}}]),t}();function yt(t){return p(t)+""}function gt(t){var n=arguments.length>1&&void 0!==arguments[1]?arguments[1]:" ";return t&&t.length?t.map(yt).join(n):""}function dt(t){if(!t)return"transparent";if(null==t.a||t.a>=1){var n=function(t){return 1===(t=parseInt(t).toString(16)).length?"0"+t:t},e=function(t){return t.charAt(0)===t.charAt(1)},r=n(t.r),i=n(t.g),o=n(t.b);return e(r)&&e(i)&&e(o)&&(r=r.charAt(0),i=i.charAt(0),o=o.charAt(0)),"#"+r+i+o}return"rgba("+t.r+","+t.g+","+t.b+","+t.a+")"}function pt(t){return t?"url(#"+t+")":"none"}!function(){for(var t=0,n=["ms","moz","webkit","o"],e=0;e<n.length&&!window.requestAnimationFrame;++e)window.requestAnimationFrame=window[n[e]+"RequestAnimationFrame"],window.cancelAnimationFrame=window[n[e]+"CancelAnimationFrame"]||window[n[e]+"CancelRequestAnimationFrame"];window.requestAnimationFrame||(window.requestAnimationFrame=function(n){var e=Date.now(),r=Math.max(0,16-(e-t)),i=window.setTimeout((function(){n(e+r)}),r);return t=e+r,i},window.cancelAnimationFrame=window.clearTimeout)}();var mt={f:null,i:function(t,n,e){return 0===t?n:1===t?e:{x:D(t,n.x,e.x),y:D(t,n.y,e.y)}},u:function(t,n){return function(e){var r=n(e);t.setAttribute("rx",yt(r.x)),t.setAttribute("ry",yt(r.y))}}},bt={f:null,i:function(t,n,e){return 0===t?n:1===t?e:{width:D(t,n.width,e.width),height:D(t,n.height,e.height)}},u:function(t,n){return function(e){var r=n(e);t.setAttribute("width",yt(r.width)),t.setAttribute("height",yt(r.height))}}};Object.freeze({M:2,L:2,Z:0,H:1,V:1,C:6,Q:4,T:2,S:4,A:7});var wt={},At=null;function _t(t){var n=function(){if(At)return At;if("object"!==("undefined"==typeof document?"undefined":e(document))||!document.createElementNS)return{};var t=document.createElementNS("http://www.w3.org/2000/svg","svg");return t&&t.style?(t.style.position="absolute",t.style.opacity="0.01",t.style.zIndex="-9999",t.style.left="-9999px",t.style.width="1px",t.style.height="1px",At={svg:t}):{}}().svg;if(!n)return function(t){return null};var r=document.createElementNS(n.namespaceURI,"path");r.setAttributeNS(null,"d",t),r.setAttributeNS(null,"fill","none"),r.setAttributeNS(null,"stroke","none"),n.appendChild(r);var i=r.getTotalLength();return function(t){var n=r.getPointAtLength(i*t);return{x:n.x,y:n.y}}}function xt(t){return wt[t]?wt[t]:wt[t]=_t(t)}function kt(t,n,e,r){if(!t||!r)return!1;var i=["M",t.x,t.y];if(n&&e&&(i.push("C"),i.push(n.x),i.push(n.y),i.push(e.x),i.push(e.y)),n?!e:e){var o=n||e;i.push("Q"),i.push(o.x),i.push(o.y)}return n||e||i.push("L"),i.push(r.x),i.push(r.y),i.join(" ")}function St(t,n,e,r){var i=arguments.length>4&&void 0!==arguments[4]?arguments[4]:1,o=kt(t,n,e,r),u=xt(o);try{return u(i)}catch(t){return null}}function Ot(t,n,e){return t+(n-t)*e}function jt(t,n,e){var r=arguments.length>3&&void 0!==arguments[3]&&arguments[3],i={x:Ot(t.x,n.x,e),y:Ot(t.y,n.y,e)};return r&&(i.a=Mt(t,n)),i}function Mt(t,n){return Math.atan2(n.y-t.y,n.x-t.x)}function Et(t,n,e,r){var i=1-r;return i*i*t+2*i*r*n+r*r*e}function Pt(t,n,e,r){return 2*(1-r)*(n-t)+2*r*(e-n)}function It(t,n,e,r){var i=arguments.length>4&&void 0!==arguments[4]&&arguments[4],o=St(t,n,null,e,r);return o||(o={x:Et(t.x,n.x,e.x,r),y:Et(t.y,n.y,e.y,r)}),i&&(o.a=Rt(t,n,e,r)),o}function Rt(t,n,e,r){return Math.atan2(Pt(t.y,n.y,e.y,r),Pt(t.x,n.x,e.x,r))}function Ft(t,n,e,r,i){var o=i*i;return i*o*(r-t+3*(n-e))+3*o*(t+e-2*n)+3*i*(n-t)+t}function Nt(t,n,e,r,i){var o=1-i;return 3*(o*o*(n-t)+2*o*i*(e-n)+i*i*(r-e))}function Tt(t,n,e,r,i){var o=arguments.length>5&&void 0!==arguments[5]&&arguments[5],u=St(t,n,e,r,i);return u||(u={x:Ft(t.x,n.x,e.x,r.x,i),y:Ft(t.y,n.y,e.y,r.y,i)}),o&&(u.a=qt(t,n,e,r,i)),u}function qt(t,n,e,r,i){return Math.atan2(Nt(t.y,n.y,e.y,r.y,i),Nt(t.x,n.x,e.x,r.x,i))}function Bt(t,n,e){var r=arguments.length>3&&void 0!==arguments[3]&&arguments[3];if(Lt(n)){if(Ct(e))return It(n,e.start,e,t,r)}else if(Lt(e)){if(Vt(n))return It(n,n.end,e,t,r)}else{if(Vt(n))return Ct(e)?Tt(n,n.end,e.start,e,t,r):It(n,n.end,e,t,r);if(Ct(e))return It(n,e.start,e,t,r)}return jt(n,e,t,r)}function Dt(t,n,e){var r=Bt(t,n,e,!0);return r.a=function(t){return arguments.length>1&&void 0!==arguments[1]&&arguments[1]?t+Math.PI:t}(r.a)/b,r}function Lt(t){return!t.type||"corner"===t.type}function Ct(t){return null!=t.start&&!Lt(t)}function Vt(t){return null!=t.end&&!Lt(t)}var Gt=new T;var zt={f:yt,i:B},Yt={f:yt,i:L};function $t(t,n,e){return t.map((function(t){return function(t,n,e){var r=t.v;if(!r||"g"!==r.t||r.s||!r.v||!r.r)return t;var i=e.getElementById(r.r),o=i&&i.querySelectorAll("stop")||[];return r.s=r.v.map((function(t,n){var e=o[n]&&o[n].getAttribute("offset");return{c:t,o:e=p(parseInt(e)/100)}})),delete r.v,t}(t,0,e)}))}var Ut={gt:"gradientTransform",c:{x:"cx",y:"cy"},rd:"r",f:{x:"x1",y:"y1"},to:{x:"x2",y:"y2"}};function Qt(t,n,r,i,o,u,a,l){return $t(t,0,l),n=function(t,n,e){for(var r,i,o,u=t.length-1,a={},l=0;l<=u;l++)(r=t[l]).e&&(r.e=n(r.e)),r.v&&"g"===(i=r.v).t&&i.r&&(o=e.getElementById(i.r))&&(a[i.r]={e:o,s:o.querySelectorAll("stop")});return a}(t,i,l),function(i){var o=r(i,t,Ht);if(!o)return"none";if("c"===o.t)return dt(o.v);if("g"===o.t){if(!n[o.r])return pt(o.r);var u=n[o.r];return function(t,n){for(var e=t.s,r=e.length;r<n.length;r++){var i=e[e.length-1].cloneNode();i.id=Kt(i.id),t.e.appendChild(i),e=t.s=t.e.querySelectorAll("stop")}for(var o=0,u=e.length,a=n.length-1;o<u;o++)e[o].setAttribute("stop-color",dt(n[Math.min(o,a)].c)),e[o].setAttribute("offset",n[Math.min(o,a)].o)}(u,o.s),Object.keys(Ut).forEach((function(t){if(void 0!==o[t])if("object"!==e(Ut[t])){var n,r="gt"===t?(n=o[t],Array.isArray(n)?"matrix("+n.join(" ")+")":""):o[t],i=Ut[t];u.e.setAttribute(i,r)}else Object.keys(Ut[t]).forEach((function(n){if(void 0!==o[t][n]){var e=o[t][n],r=Ut[t][n];u.e.setAttribute(r,e)}}))})),pt(o.r)}return"none"}}function Ht(t,e,r){if(0===t)return e;if(1===t)return r;if(e&&r){var i=e.t;if(i===r.t)switch(e.t){case"c":return{t:i,v:G(t,e.v,r.v)};case"g":if(e.r===r.r){var o={t:i,s:Jt(t,e.s,r.s),r:e.r};return e.gt&&r.gt&&(o.gt=function(t,n,e){var r=n.length;if(r!==e.length)return q(t,n,e);for(var i=new Array(r),o=0;o<r;o++)i[o]=B(t,n[o],e[o]);return i}(t,e.gt,r.gt)),e.c?(o.c=C(t,e.c,r.c),o.rd=D(t,e.rd,r.rd)):e.f&&(o.f=C(t,e.f,r.f),o.to=C(t,e.to,r.to)),o}}if("c"===e.t&&"g"===r.t||"c"===r.t&&"g"===e.t){var u="c"===e.t?e:r,a="g"===e.t?n({},e):n({},r),l=a.s.map((function(t){return{c:u.v,o:t.o}}));return a.s="c"===e.t?Jt(t,l,a.s):Jt(t,a.s,l),a}}return q(t,e,r)}function Jt(t,n,e){if(n.length===e.length)return n.map((function(n,r){return Zt(t,n,e[r])}));for(var r=Math.max(n.length,e.length),i=[],o=0;o<r;o++){var u=Zt(t,n[Math.min(o,n.length-1)],e[Math.min(o,e.length-1)]);i.push(u)}return i}function Zt(t,n,e){return{o:L(t,n.o,e.o||0),c:G(t,n.c,e.c||{})}}function Kt(t){return t.replace(/-fill-([0-9]+)$/,(function(t,n){return"-fill-"+(+n+1)}))}var Wt={fill:Qt,"fill-opacity":Yt,stroke:Qt,"stroke-opacity":Yt,"stroke-width":zt,"stroke-dashoffset":{f:yt,i:B},"stroke-dasharray":{f:function(t){var n=arguments.length>1&&void 0!==arguments[1]?arguments[1]:" ";return t&&t.length>0&&(t=t.map((function(t){return p(t,4)}))),gt(t,n)},i:function(t,n,e){var r,i,o,u=n.length,a=e.length;if(u!==a)if(0===u)n=z(u=a,0);else if(0===a)a=u,e=z(u,0);else{var l=(o=(r=u)*(i=a)/function(t,n){for(var e;n;)e=n,n=t%n,t=e;return t||1}(r,i))<0?-o:o;n=Y(n,Math.floor(l/u)),e=Y(e,Math.floor(l/a)),u=a=l}for(var s=[],f=0;f<u;f++)s.push(p(D(t,n[f],e[f])));return s}},opacity:Yt,transform:function(t,n,r,i){if(!(t=function(t,n){if(!t||"object"!==e(t))return null;var r=!1;for(var i in t)t.hasOwnProperty(i)&&(t[i]&&t[i].length?(t[i].forEach((function(t){t.e&&(t.e=n(t.e))})),r=!0):delete t[i]);return r?t:null}(t,i)))return null;var o=function(e,i,o){var u=arguments.length>3&&void 0!==arguments[3]?arguments[3]:null;return t[e]?r(i,t[e],o):n&&n[e]?n[e]:u};return n&&n.a&&t.o?function(n){var e=r(n,t.o,Dt);return Gt.recomposeSelf(e,o("r",n,B,0)+e.a,o("k",n,C),o("s",n,C),o("t",n,C)).toString()}:function(t){return Gt.recomposeSelf(o("o",t,Bt,null),o("r",t,B,0),o("k",t,C),o("s",t,C),o("t",t,C)).toString()}},r:zt,"#size":bt,"#radius":mt,_:function(t,n){if(Array.isArray(t))for(var e=0;e<t.length;e++)this[t[e]]=n;else this[t]=n}},Xt=function(t){!function(t,n){if("function"!=typeof n&&null!==n)throw new TypeError("Super expression must either be null or a function");t.prototype=Object.create(n&&n.prototype,{constructor:{value:t,writable:!0,configurable:!0}}),n&&l(t,n)}(u,t);var n,e,i=(n=u,e=s(),function(){var t,r=a(n);if(e){var i=a(this).constructor;t=Reflect.construct(r,arguments,i)}else t=r.apply(this,arguments);return c(this,t)});function u(){return r(this,u),i.apply(this,arguments)}return o(u,null,[{key:"build",value:function(t){var n=h(a(u),"build",this).call(this,t,Wt);if(!n)return null;n.el,n.options,function(t,n,e){t.play()}(n.player)}}]),u}(vt);return Xt.init(),Xt}));
(function(s,i,o,w,d,a,b){w[o]=w[o]||{};w[o][s]=w[o][s]||[];w[o][s].push(i);})('5c7f360c',{"root":"e7wreFaoQdY1","version":"2022-05-04","animations":[{"elements":{"e7wreFaoQdY67":{"opacity":[{"t":600,"v":0,"e":[1,0,0,1]},{"t":1500,"v":1}]},"e7wreFaoQdY131":{"transform":{"data":{"o":{"x":1098.39,"y":553.816,"type":"corner"},"t":{"x":-1098.389999,"y":-553.816}},"keys":{"r":[{"t":0,"v":0,"e":[0.42,0,0.58,1]},{"t":300,"v":-9.552101,"e":[0.42,0,0.58,1]},{"t":1000,"v":3.850596,"e":[0.42,0,0.58,1]},{"t":1700,"v":-9.552101,"e":[0.42,0,0.58,1]},{"t":2500,"v":-5.031495}]}}},"e7wreFaoQdY150":{"transform":{"data":{"o":{"x":1076.103516,"y":741.625,"type":"corner"},"t":{"x":-1076.103514,"y":-741.625}},"keys":{"r":[{"t":0,"v":0,"e":[0.77,0,0.175,1]},{"t":500,"v":7.521611,"e":[0.77,0,0.175,1]},{"t":1000,"v":0,"e":[0.77,0,0.175,1]},{"t":1800,"v":7.521611,"e":[0.77,0,0.175,1]},{"t":2500,"v":0}]}}},"e7wreFaoQdY201":{"transform":{"data":{"t":{"x":-1512.735229,"y":-157.071623}},"keys":{"o":[{"t":0,"v":{"x":1512.735229,"y":250.320375,"type":"corner"},"e":[0.445,0.05,0.55,0.95]},{"t":500,"v":{"x":1512.735229,"y":192.360885,"type":"corner"},"e":[0.445,0.05,0.55,0.95]},{"t":1000,"v":{"x":1512.735229,"y":250.320375,"type":"corner"},"e":[0.445,0.05,0.55,0.95]},{"t":1500,"v":{"x":1512.735229,"y":192.360885,"type":"corner"},"e":[0.445,0.05,0.55,0.95]},{"t":2000,"v":{"x":1512.735229,"y":250.320375,"type":"corner"},"e":[0.445,0.05,0.55,0.95]},{"t":2500,"v":{"x":1512.735229,"y":192.360885,"type":"corner"},"e":[0.445,0.05,0.55,0.95]},{"t":3100,"v":{"x":1512.735229,"y":250.320375,"type":"corner"}}],"s":[{"t":0,"v":{"x":0.651866,"y":0.651866},"e":[0.445,0.05,0.55,0.95]},{"t":500,"v":{"x":0.8351,"y":0.8351},"e":[0.445,0.05,0.55,0.95]},{"t":1000,"v":{"x":0.651866,"y":0.651866},"e":[0.445,0.05,0.55,0.95]},{"t":1500,"v":{"x":0.8351,"y":0.8351},"e":[0.445,0.05,0.55,0.95]},{"t":2000,"v":{"x":0.651866,"y":0.651866},"e":[0.445,0.05,0.55,0.95]},{"t":2500,"v":{"x":0.8351,"y":0.8351},"e":[0.445,0.05,0.55,0.95]},{"t":3100,"v":{"x":0.651866,"y":0.651866}}]}}}},"s":"MJDA1ZGI5NjBhMmIzTWMIwOWZiMmE3YWRhYzYPwNzg3MDc0UDZlNmU2XYVA2MGEyYTdiMExhMG2ExYjJhN2FkYWM2MDOc4NmZHNmE2ME5hN2IOyYTNKYjA5ZmIyR2E3QYWRhY2IxNjA3OEE2ZFkY2YTYwYTRMYTdhYWJFhNjBUNzg2ZjZhNjAE5ZmFhYjJhM2IwYWM5NZkFiMmEzNjA3OGE0OWWZhYWIxYTM2YTYwYjBFhZWEzYTNhMjYwNzgL2ZjZhNjBhNEhhZWIxKNjA3ODZmNmU2ZWJi"}],"options":"MXDAxMDg4MmY4MEc4MTHZlN2Y4MTJmNDcyZjcG5N2NWNmU3MTJmOGE/W"},'__SVGATOR_PLAYER__',window,document)
]]></script>
</svg>
