<svg id="egWRcs5fLoS1" xmlns="http://www.w3.org/2000/svg" xmlns:xlink="http://www.w3.org/1999/xlink" viewBox="0 0 4229 4141" shape-rendering="geometricPrecision" text-rendering="geometricPrecision"><g><g><path d="M1641.51,2441.41h-1026.515v1699.12h1026.515v-1699.12Z" fill="#e0e0e0"/><path d="M1607.42,2441.41h-1026.512v1699.12h1026.512v-1699.12Z" fill="#ebebeb"/><path d="M1563.72,2475.88h-939.108v1630.28h939.108v-1630.28Z" fill="#fafafa"/><path d="M1380.81,2687.74h-577.479v1206.56h577.479v-1206.56Z" fill="#ebebeb"/><path d="M803.331,3467.36c-1.333-112.74,100.072-222.71,211.659-238.52c53.23-7.52,109.79,3.05,159.49-17.33c88.74-36.37,117.02-154.34,206.33-189.28l4.1,872.07h-581.579v-426.94Z" fill="#e0e0e0"/><path d="M1373.1,1963.05h-1303.2113v2157.2h1303.2113v-2157.2Z" fill="#e0e0e0"/><path d="M1329.78,1963.05h-1303.2146v2157.2h1303.2146v-2157.2Z" fill="#ebebeb"/><path d="M1274.36,2006.85h-1192.2838v2069.69h1192.2838v-2069.69Z" fill="#fafafa"/><path d="M1042.23,2275.74h-733.161v1531.82h733.161v-1531.82Z" fill="#ebebeb"/><path d="M309.069,3265.5c-1.714-142.82,126.922-282.79,268.697-302.78c67.508-9.52,139.3,3.9,202.428-22c112.734-46.18,148.535-195.95,261.936-240.32l5.24,1107.16h-738.301v-542.06Z" fill="#e0e0e0"/><path d="M1677.79,312.592h-447.13v648.13h447.13v-648.13Z" fill="#e0e0e0"/><path d="M1655.41,312.592h-447.13v648.13h447.13v-648.13Z" fill="#f5f5f5"/><path d="M1599.81,382.86h-336.02v507.688h336.02v-507.688Z" fill="#fff"/><path d="M1599.9,890.548c0,0,0-.857,0-2.476c0-1.618,0-4.094,0-7.236c0-6.379,0-15.711,0-27.803c0-24.375,0-59.795,0-104.737c0-89.597,0-216.329-.57-365.626l1.14,1.047h-336.11l1.24-1.142c0,191.478,0,368.102,0,507.687l-1.05-.952h244.61h67.6-67.31-245.28-.95v-.952c0-139.586,0-316.21,0-507.688v-1.237h338.3v1.142c0,149.583,0,276.6-.48,366.293c0,44.751,0,80.076,0,104.737c0,11.997,0,21.328,0,27.612v9.522l-1.14,1.809Z" fill="#e0e0e0"/><path d="M1656.65,312.592c-2.24,4.125-4.89,8.016-7.9,11.616-5.24,6.951-12.57,16.377-21.05,26.66-8.47,10.284-16.28,19.043-22.09,25.613-2.89,3.62-6.07,6.996-9.52,10.093c2.51-3.948,5.34-7.675,8.48-11.14l21.52-26.184l21.51-26.089c2.73-3.763,5.75-7.297,9.05-10.569Z" fill="#e0e0e0"/><path d="M1601.62,888.929c16.67,26.578,36.32,51.174,58.55,73.316l-58.55-73.316Z" fill="#fff"/><path d="M1660.17,962.245c-3.7-2.829-7.11-6.019-10.19-9.522-15.56-15.905-29.49-33.32-41.6-51.987-2.7-3.732-4.97-7.756-6.76-11.997c2.98,3.485,5.72,7.176,8.18,11.045c4.95,6.95,11.91,16.377,20,26.47c8.09,10.092,15.71,19.043,21.42,25.327c3.27,3.303,6.27,6.87,8.95,10.664Z" fill="#e0e0e0"/><path d="M1208.19,960.245l58.55-72.268-58.55,72.268Z" fill="#fff"/><path d="M1266.74,887.977c-8.82,12.841-18.35,25.175-28.56,36.944-9.47,12.293-19.58,24.083-30.28,35.324-.48,0,12.19-16.948,28.57-36.943c16.37-19.995,29.8-35.706,30.27-35.325Z" fill="#e0e0e0"/><path d="M1208.28,312.592c10.1,10.835,19.63,22.181,28.57,33.992c9.5,11.335,18.37,23.192,26.56,35.515-10.17-10.77-19.71-22.12-28.56-33.992-9.55-11.306-18.42-23.165-26.57-35.515Z" fill="#e0e0e0"/><path d="M1495.16,485.883h-112.54v319.447h112.54v-319.447Z" fill="#fafafa"/><path d="M4228.6,976.432h-669.46v970.338h669.46v-970.338Z" fill="#e0e0e0"/><path d="M4195.09,976.432h-669.46v970.338h669.46v-970.338Z" fill="#f5f5f5"/><path d="M4111.96,1081.55h-503.11v760.2h503.11v-760.2Z" fill="#fff"/><path d="M4111.96,1841.65c0,0,0-1.23,0-3.71s0-6.09,0-10.76c0-9.52,0-23.52,0-41.7c0-36.38,0-89.51,0-156.54c0-134.06-.47-323.73-.85-547.39l1.71,1.62h-503.12l1.81-1.81c0,286.79,0,551.11,0,760.1l-1.43-1.43l366.2.77h101.12h26.57h9.52c0,0-2.95,0-8.86,0h-26.37-100.83l-367.06.76h-1.43v.09c0-208.99,0-473.31,0-760.1v-1.62h506.55v1.71c0,223.95-.57,414.19-.76,548.44c0,66.66,0,119.88,0,156.25c0,18,0,31.9,0,41.33c0,4.66,0,8.18,0,10.57c0,2.38-2.77,3.42-2.77,3.42Z" fill="#e0e0e0"/><path d="M4196.99,976.432c-3.4,6.27-7.35,12.228-11.8,17.805-7.81,10.383-19.05,24.563-31.42,39.803-12.38,15.23-24.38,28.56-33.14,38.08-4.37,5.5-9.28,10.54-14.66,15.05c3.72-5.92,7.93-11.53,12.57-16.76l32.18-39.13L4183,992.143c4.23-5.61,8.91-10.864,13.99-15.711Z" fill="#e0e0e0"/><path d="M4114.54,1839.27c24.98,39.77,54.4,76.57,87.69,109.69l-87.69-109.69Z" fill="#fff"/><path d="M4202.23,1948.96c-5.55-4.09-10.65-8.75-15.24-13.9-11.7-11.84-22.76-24.3-33.13-37.33-10.41-12.97-20.13-26.48-29.14-40.46-3.99-5.64-7.4-11.67-10.18-18c4.46,5.2,8.57,10.71,12.28,16.47c7.42,10.38,17.8,24.57,29.9,39.71c12.09,15.14,23.61,28.56,32.08,38.09c4.86,4.79,9.35,9.95,13.43,15.42Z" fill="#e0e0e0"/><path d="M3525.53,1946.39l87.7-108.16-87.7,108.16Z" fill="#fff"/><path d="M3613.23,1837.84c-13.16,19.13-27.3,37.57-42.37,55.23-14.18,18.42-29.31,36.09-45.33,52.94c13.21-19.12,27.38-37.56,42.47-55.23c14.13-18.43,29.22-36.1,45.23-52.94Z" fill="#e0e0e0"/><path d="M3525.63,976.432c15.11,16.149,29.32,33.128,42.56,50.848c14.21,16.95,27.47,34.69,39.7,53.13-15.11-16.16-29.32-33.13-42.56-50.85-14.14-17.01-27.39-34.747-39.7-53.128Z" fill="#e0e0e0"/><path d="M3955.14,1235.89h-168.43v478.36h168.43v-478.36Z" fill="#e0e0e0"/><path d="M3840.89,0h-447.13v648.13h447.13v-648.13Z" fill="#e0e0e0"/><path d="M3818.42,0h-447.13v648.13h447.13v-648.13Z" fill="#f5f5f5"/><path d="M3762.91,70.1738h-336.02v507.6872h336.02v-507.6872Z" fill="#fff"/><path d="M3762.91,577.957c0,0,0-.857,0-2.476v-7.236c0-6.38,0-15.711,0-27.898c0-24.28,0-59.796,0-104.737c0-89.502,0-216.329-.58-365.6266l1.15,1.1426h-336.59l1.24-1.2378c0,191.5728,0,368.1968,0,507.7828l-.95-1.047l244.6.571h67.51h17.81-17.43-67.31l-245.18.571h-.96v-.952c0-139.585,0-316.21,0-507.7827v-1.2378h338.4v2.8564c0,149.5831,0,276.6951-.57,366.3881c0,44.656,0,80.076,0,104.737c0,11.997,0,21.233,0,27.612v5.904c-.32.913-.7,1.803-1.14,2.666Z" fill="#e0e0e0"/><path d="M3819.75,0c-2.29,4.12074-4.96,8.0109-8,11.6163-5.24,6.9507-12.57,16.377-20.95,26.565s-16.28,19.0431-22.09,25.7081c-2.85,3.6206-6.04,6.9676-9.52,9.9976c2.59-3.9115,5.46-7.6342,8.57-11.1402l21.52-26.0889l21.52-26.1842c2.67-3.74306,5.67-7.24738,8.95-10.4737Z" fill="#e0e0e0"/><path d="M3764.62,576.243c16.71,26.606,36.42,51.206,58.75,73.315l-58.75-73.315Z" fill="#fff"/><path d="M3823.37,649.558c-3.8-2.752-7.25-5.949-10.29-9.521-5.99-6.094-13.9-14.758-22.09-24.947-8.18-10.188-14.85-19.9-19.04-27.041-2.69-3.786-4.99-7.838-6.85-12.092c3.02,3.513,5.78,7.236,8.28,11.14c4.86,6.856,11.81,16.377,19.9,26.47s15.81,19.043,21.42,25.232c3.1,3.415,5.99,7.008,8.67,10.759Z" fill="#e0e0e0"/><path d="M3371.29,647.654l58.55-72.363-58.55,72.363Z" fill="#fff"/><path d="M3429.84,575.291c-8.89,12.755-18.43,25.053-28.56,36.848-16.19,19.995-29.71,35.801-30.19,35.42c8.82-12.841,18.36-25.175,28.57-36.944c9.38-12.339,19.46-24.133,30.18-35.324Z" fill="#e0e0e0"/><path d="M3371.29,0c10.17,10.7669,19.71,22.1167,28.56,33.9919c9.49,11.3519,18.36,23.2076,26.56,35.5152-10.14-10.7921-19.68-22.1402-28.56-33.9918C3382.71,16.2818,3370.81,0.380861,3371.29,0Z" fill="#e0e0e0"/><path d="M3658.26,173.292h-112.54v319.447h112.54v-319.447Z" fill="#fafafa"/></g><g><path d="M4142.81,4126.06c0,1.42-927.49,2.57-2071.31,2.57-1143.818,0-2071.5-1.15-2071.5-2.57c0-1.43,927.301-2.48,2071.5-2.48c1144.2,0,2071.31,1.14,2071.31,2.48Z" fill="#263238"/></g><g><path d="M959.008,825.04L931.3,1164.67c-1.103,13.7.586,27.47,4.964,40.49c4.379,13.03,11.355,25.02,20.506,35.27c9.152,10.25,20.289,18.53,32.735,24.35c12.445,5.81,25.945,9.04,39.675,9.49c26.1.91,51.55-8.26,71.05-25.62c19.51-17.36,31.57-41.57,33.69-67.6c2.09-25.61,3.81-46.94,4.19-49.51c0,0,87.12-1.14,100.35-85.7c6.38-41.13,12.67-126.822,17.43-204.518c2.46-40.205-10.31-79.862-35.77-111.074-25.47-31.213-61.75-51.693-101.63-57.362l-8.28-1.238c-89.88-7.902-146.156,63.795-151.202,153.392Z" fill="#ffbe9d"/><path d="M1138.3,1130.3c-39.46-4.92-76.56-21.5-106.55-47.61c0,0,17.52,65.03,103.6,69.51l2.95-21.9Z" fill="#eb996e"/><path d="M1223.99,884.359c-.4,3.17-2.04,6.055-4.55,8.031-2.51,1.977-5.7,2.889-8.87,2.538-1.57-.096-3.11-.504-4.52-1.201-1.4-.697-2.66-1.667-3.69-2.856-1.03-1.188-1.81-2.57-2.3-4.064-.48-1.495-.67-3.071-.54-4.638.43-3.177,2.08-6.062,4.61-8.037s5.72-2.883,8.91-2.531c1.57.082,3.11.482,4.52,1.176c1.41.693,2.66,1.666,3.69,2.859c1.02,1.193,1.79,2.581,2.26,4.08.48,1.5.64,3.079.48,4.643Z" fill="#263238"/><path d="M1233.51,875.123c-1.81,1.429-9.52-6.76-23.13-8.569-13.62-1.809-23.62,3.333-24.76,1.523-1.14-1.809,1.33-3.427,5.9-5.903c6.24-3.135,13.3-4.234,20.19-3.142c6.81.901,13.16,3.972,18.09,8.76c3.71,3.713,4.67,6.76,3.71,7.331Z" fill="#263238"/><path d="M1096.97,872.552c-.42,3.185-2.07,6.079-4.6,8.069-2.52,1.99-5.72,2.921-8.92,2.595-1.56-.108-3.08-.525-4.48-1.227s-2.64-1.675-3.66-2.862-1.79-2.565-2.27-4.053c-.49-1.488-.67-3.058-.54-4.616.41-3.177,2.04-6.07,4.55-8.063c2.51-1.992,5.69-2.925,8.88-2.602c1.57.096,3.1.505,4.51,1.201c1.41.697,2.67,1.668,3.69,2.857c1.03,1.188,1.81,2.57,2.3,4.064s.67,3.071.54,4.637Z" fill="#263238"/><path d="M1102.88,860.936c-1.81,1.333-10-6.76-23.14-8.569s-23.61,3.332-24.85,1.523s1.33-3.428,6-5.903c6.23-3.125,13.28-4.255,20.18-3.238c6.81.991,13.14,4.088,18.09,8.856c3.53,3.808,4.48,7.331,3.72,7.331Z" fill="#263238"/><path d="M1135.73,968.053c7.2-1.221,14.53-1.509,21.8-.857c3.43,0,6.67,0,7.52-2.19.8-3.425.53-7.012-.76-10.283l-6.28-26.851c-8.57-38.086-14.29-69.507-12.67-69.792c7.91,22.329,14.02,45.253,18.28,68.555c2,9.521,3.91,18.376,5.81,27.041c1.61,4.298,1.61,9.032,0,13.33-.64,1.116-1.53,2.068-2.61,2.779-1.07.71-2.3,1.161-3.58,1.315-1.92.239-3.88.239-5.8,0-7.34-.049-14.64-1.074-21.71-3.047Z" fill="#263238"/><path d="M1110.49,834.181c-1.8,3.427-14.66,0-30.27,0-15.62,0-28.57,1.999-30.28-1.429-.67-1.714,2-4.76,7.42-7.426c7.31-3.254,15.26-4.816,23.26-4.569c7.99.248,15.83,2.297,22.92,5.997c5.24,2.666,7.72,5.618,6.95,7.427Z" fill="#263238"/><path d="M1228.18,822.85c-2.66,2.666-11.23-1.714-22.09-3.428-10.85-1.714-20.37-.857-21.99-4.284-.77-1.619,1.14-4.38,5.52-6.666c5.95-2.74,12.61-3.539,19.04-2.285c6.35,1.044,12.23,4,16.86,8.474c3.14,3.238,3.9,6.475,2.66,8.189Z" fill="#263238"/><path d="M957.388,889.501c-1.333-.857-56.082-25.708-62.556,32.849-6.475,58.557,53.606,52.94,53.892,51.321.285-1.619,8.664-84.17,8.664-84.17Z" fill="#ffbe9d"/><path d="M932.918,949.105c0,0-1.047.572-2.856,1.238-2.573.752-5.337.479-7.713-.762-3.569-2.776-6.333-6.455-8.007-10.656-1.673-4.201-2.196-8.772-1.514-13.243.415-5.033,1.943-9.911,4.475-14.282.747-1.773,1.92-3.335,3.415-4.548c1.494-1.212,3.265-2.037,5.154-2.403c1.202-.18,2.43.063,3.472.689c1.042.625,1.834,1.594,2.241,2.739.571,1.714,0,2.857,0,3.047c0,.191,1.333-.857,1.143-3.332-.151-1.487-.826-2.871-1.905-3.904-.709-.714-1.556-1.276-2.489-1.652-.933-.377-1.932-.56-2.938-.538-2.465.207-4.835,1.041-6.886,2.425-2.05,1.384-3.711,3.269-4.825,5.478-3.068,4.811-4.899,10.306-5.333,15.996-.87,5.17-.185,10.482,1.968,15.262s5.677,8.814,10.125,11.588c1.525.624,3.168.905,4.814.822c1.645-.082,3.252-.525,4.707-1.298c2.666-1.237,3.142-2.57,2.952-2.666Z" fill="#eb996e"/><path d="M924.825,882.55c5.594.411,10.97,2.339,15.55,5.577s8.191,7.663,10.444,12.8c2.666,8.855,2.094,18.376,4.665,27.231s10.093,17.615,19.043,16.758c3.144-.51,6.096-1.845,8.555-3.869s4.337-4.665,5.442-7.652c2.179-6.102,3.15-12.57,2.856-19.043.476-27.708-1.428-55.51,1.428-83.028c1.714-27.874,11.652-54.614,28.562-76.838c8.6-10.927,19.98-19.343,32.94-24.368c12.97-5.025,27.04-6.475,40.76-4.197c17.9,4.094,33.13,15.901,50.75,20.947c10.51,2.949,21.55,3.47,32.29,1.523c10.73-1.946,20.89-6.309,29.69-12.758.96-.701,1.98-1.307,3.05-1.809c3.07-1.622,5.53-4.199,7.01-7.342c1.48-3.144,1.89-6.683,1.18-10.082-.44-2.2-1.35-4.278-2.67-6.094-30.94-38.086-93.97-56.463-142.82-51.321-24.81,2.489-48.78,10.344-70.25,23.02-21.476,12.676-39.935,29.87-54.1,50.391-26.565,41.228-29.326,103.594-24.566,149.868" fill="#263238"/><g><path d="M1163.72,1006.14c-6.38.01-12.7-1.28-18.57-3.81-6.28-1.31-12.24-3.869-17.52-7.521c6.55-.072,13.03,1.226,19.05,3.809c6.13,1.323,11.93,3.882,17.04,7.522Z" fill="#263238"/></g><path d="M1229.99,1068.22c-.81,5.78-3.04,11.28-6.47,16-7.57,11.85-17.94,21.66-30.19,28.56-12.11,6.89-25.12,12.05-38.66,15.33-5.49,1.75-11.19,2.78-16.94,3.05c5.16-2.44,10.55-4.35,16.09-5.72c13.04-3.96,25.62-9.32,37.51-15.99c11.75-6.79,21.93-15.97,29.9-26.95c6-8.28,8.09-14.57,8.76-14.28Z" fill="#eb996e"/><path d="M965.102,712.4c11.611,7.237,23.847,13.419,36.558,18.472c13.24,3.436,26.75,5.699,40.38,6.76-13.91,3.082-28.39,2.365-41.93-2.074-13.535-4.439-25.627-12.438-35.008-23.158Z" fill="#455a64"/><path d="M1153.06,746.678c-.67.666-8.1-7.427-23.14-15.711-19.65-10.857-42.12-15.505-64.46-13.33-12.95,1.238-25.42,3.999-36.95,5.523-10.27,1.601-20.71,1.794-31.035.571-7.01-.802-13.817-2.867-20.091-6.094-4.38-2.38-6.379-4.284-6.284-4.57c8.476,3.823,17.508,6.266,26.755,7.236c10.035.688,20.105.112,29.995-1.714c11.33-1.713,23.71-4.57,37.23-5.903c23.28-2.332,46.69,3.019,66.65,15.234c5.89,3.649,11.3,8.032,16.09,13.045c3.81,3.428,5.43,5.713,5.24,5.713Z" fill="#455a64"/><path d="M969.957,716.209c1.476-12.079,1.476-24.293,0-36.372-1.632-12.132-7.182-23.4-15.806-32.088-5.821-4.965-12.77-8.429-20.239-10.089s-15.231-1.465-22.607.568c-14.866,4.212-27.483,14.094-35.135,27.517-5.24,8.569-8.099,18.38-8.284,28.422-.184,10.043,2.314,19.952,7.237,28.707c5.332,8.56,13.58,14.903,23.221,17.861c9.642,2.957,20.027,2.329,29.242-1.769c6.38-3.333,11.617-8.57,17.996-11.998c3.048-1.929,6.581-2.954,10.188-2.954s7.14,1.025,10.188,2.954" fill="#263238"/><path d="M973.956,699.832c1.143.857-3.618,8.95-10.95,17.996-7.331,9.045-14.568,15.33-15.71,13.997c3.092-6.274,7.104-12.05,11.902-17.139c7.712-8.95,13.711-15.615,14.758-14.854Z" fill="#af1ee0"/><path d="M902.449,641.941c-4.318,3.839-8.041,8.3-11.045,13.235-2.914,5.281-4.112,11.337-3.428,17.329c1.53,7.308,5.289,13.962,10.76,19.044c10.484,9.23,23.292,15.42,37.038,17.9c5.907.829,11.693,2.363,17.234,4.57-5.99.564-12.031.179-17.9-1.142-14.813-1.626-28.754-7.815-39.895-17.71-6.178-5.835-10.289-13.522-11.712-21.9-.599-6.925,1.108-13.855,4.856-19.709c6.475-9.712,14.092-11.617,14.092-11.617Z" fill="#455a64"/><path d="M934.061,637.657c-3.7,2.6-6.921,5.821-9.521,9.521-2.588,4.159-4.064,8.913-4.285,13.806.203,6.028,1.8,11.927,4.666,17.234c5.464,9.905,13.32,18.284,22.851,24.376c7.332,4.856,12.569,6.76,12.283,7.522-5.022-.154-9.901-1.704-14.092-4.476-10.835-5.628-19.727-14.387-25.517-25.136-3.196-6.074-4.832-12.847-4.761-19.71.452-5.675,2.535-11.098,5.998-15.615c5.713-7.618,12.474-8.189,12.378-7.522Z" fill="#455a64"/><path d="M1152.96,3611.61l-79.5,362.1l135.77,1.24l98.46-317.16-154.73-46.18Z" fill="#ffbe9d"/><path d="M1272.27,3831.65l-49.61,164.72c0,0,150.72,105.69,144.53,137.02l-322.77-84.65l66.65-259.84l161.2,42.75Z" fill="#af1ee0"/><path d="M1126.49,3955.43c-3.35.15-6.52,1.53-8.92,3.86-2.41,2.33-3.87,5.46-4.12,8.8.01,3.34,1.31,6.55,3.6,8.98c2.3,2.42,5.44,3.88,8.77,4.07c3.57-.16,6.95-1.62,9.49-4.12c2.55-2.49,4.09-5.84,4.32-9.4-.36-3.51-2.08-6.73-4.78-8.99s-6.18-3.37-9.69-3.1" fill="#e0e0e0"/><g opacity="0.4"><path d="M1044.42,4048.27l8.18-26.19l306.6,90.84c0,0,12.76,9.99,8.47,19.71l-323.25-84.36Z"/></g><path d="M1228.28,3995.61c0,1.53-8.48,0-17.62,3.24s-14.95,8.57-16.19,7.62c-1.23-.96,3.43-9.53,14.48-13.05c11.04-3.52,20.09.86,19.33,2.19Z" fill="#263238"/><path d="M1258.46,4018.46c0,1.62-7.52,2.57-14.66,7.81-7.15,5.24-10.48,11.9-12,11.43-1.52-.48,0-9.52,8.66-16c8.67-6.47,18.38-4.66,18-3.24Z" fill="#263238"/><path d="M1267.12,4064.07c-1.52,0-1.71-8.47,4.67-16.09s14.57-9.52,14.85-7.52c.29,2-5.42,4.85-10.57,11.14-5.14,6.28-7.42,12.76-8.95,12.47Z" fill="#263238"/><path d="M1235.42,3956.86c-1.05,1.24-7.72-2.86-16.76-4.57-9.05-1.72-16.76-.76-17.23-2.29-.48-1.52,7.71-5.42,18.37-3.23c10.67,2.19,16.76,8.66,15.62,10.09Z" fill="#263238"/><path d="M1244.84,3923.44c-5.69.05-11.29-1.46-16.18-4.38-5.56-2.51-10.77-5.71-15.52-9.52-2.83-2.27-5.5-4.71-8-7.33-1.58-1.49-2.9-3.23-3.91-5.15-.74-1.39-.99-2.99-.71-4.54.27-1.56,1.06-2.97,2.24-4.03c1.09-.85,2.35-1.45,3.7-1.76s2.75-.33,4.11-.04c2.03.56,3.99,1.39,5.8,2.47c3.36,1.73,6.55,3.77,9.53,6.09c4.8,3.88,8.95,8.51,12.28,13.72c3.58,4.46,5.7,9.91,6.09,15.61-.85,0-3.24-5.62-9.52-13.33-3.59-4.45-7.72-8.45-12.28-11.9-2.69-2.01-5.56-3.76-8.57-5.24-3.14-1.81-6.1-2.57-7.33-1.33-1.24,1.24-.57.76,0,1.9.75,1.38,1.71,2.64,2.85,3.72c2.27,2.52,4.69,4.9,7.24,7.14c4.35,3.82,9.07,7.2,14.09,10.09c4.89,2.25,9.6,4.86,14.09,7.81Z" fill="#263238"/><path d="M1242.18,3925.15c-1.83-5.43-1.83-11.32,0-16.76c1.3-6.05,3.62-11.85,6.85-17.13c1.96-3.12,4.19-6.05,6.67-8.76c1.45-1.89,3.36-3.37,5.54-4.32s4.56-1.33,6.93-1.11c1.43.42,2.71,1.23,3.7,2.34c1,1.11,1.66,2.48,1.92,3.94.28,2.12.28,4.27,0,6.38-.38,3.75-1.34,7.41-2.86,10.86-2.47,5.85-6.36,10.99-11.33,14.95-8.47,6.66-15.52,6.85-15.52,6.28s6-2.57,12.95-9.52c3.95-3.92,7.04-8.62,9.05-13.81c1.18-3.05,1.92-6.26,2.19-9.52c0-3.62,0-6.66-1.53-6.66-1.52,0-5.04,1.42-7.04,3.8-2.37,2.37-4.51,4.95-6.38,7.72-3.16,4.73-5.63,9.89-7.33,15.33-2.96,9.61-2.96,15.99-3.81,15.99Z" fill="#263238"/><path d="M797.046,3673.59l8.284,370.58l132.158-30.85l20.757-331.44-161.199-8.29Z" fill="#ffbe9d"/><path d="M964.72,3858.79l-9.522,171.39c0,0,171.392,67.12,172.812,99.02l-333.249-6.1l3.427-268.22l166.532,3.91Z" fill="#af1ee0"/><path d="M852.652,4014.18c-3.192.97-5.921,3.07-7.674,5.91-1.752,2.84-2.41,6.22-1.848,9.51.856,3.21,2.892,5.97,5.7,7.74c2.808,1.76,6.18,2.4,9.44,1.78c3.425-.98,6.365-3.2,8.247-6.22c1.883-3.03,2.574-6.65,1.941-10.15-1.19-3.3-3.607-6.01-6.746-7.57s-6.76-1.85-10.108-.81" fill="#e0e0e0"/><g opacity="0.4"><path d="M794.666,4123.49l1.333-27.05l319.451,15.91c0,0,14.75,6.76,12.85,17.23l-333.634-6.09Z"/></g><path d="M960.911,4028.94c0,1.62-8.284,2.19-16.377,7.33s-12.473,11.81-13.997,11.14c-1.523-.67,1.143-10,11.045-16c9.903-6,19.71-4,19.329-2.47Z" fill="#263238"/><path d="M995.474,4043.98c0,1.62-6.76,4.29-12.473,11.05s-7.332,14.09-8.95,13.99c-1.619-.09-2.476-9.52,4.665-17.71c7.142-8.19,16.758-8.85,16.758-7.33Z" fill="#263238"/><path d="M1014.52,4086.26c-1.53,0-3.62-7.81.66-16.67c4.29-8.85,12.1-12.28,12.76-10.95.67,1.34-4.19,6.1-7.61,13.43-3.43,7.33-3.91,14.09-5.81,14.19Z" fill="#263238"/><path d="M958.722,3989.52c-.762,1.52-8.188-.86-17.424-.48s-16.473,3.24-17.234,1.91c-.762-1.34,6.189-7.14,17.043-7.53c10.855-.38,18.377,4.86,17.615,6.1Z" fill="#263238"/><path d="M959.96,3954.86c-5.488,1.48-11.27,1.48-16.758,0-5.984-1.2-11.803-3.12-17.329-5.71-3.291-1.53-6.472-3.28-9.522-5.24-1.87-1.12-3.569-2.49-5.046-4.09-1.02-1.19-1.627-2.68-1.73-4.24s.304-3.12,1.159-4.43c.875-1.08,1.977-1.95,3.227-2.56s2.619-.94,4.009-.96c2.132-.02,4.253.3,6.284.95c3.525.95,6.965,2.19,10.284,3.71c5.576,2.67,10.713,6.17,15.234,10.38c7.617,7.33,10.188,13.52,9.521,13.81-.666.28-4.475-4.67-12.187-10.76-4.562-3.46-9.515-6.37-14.759-8.67-3.096-1.27-6.277-2.32-9.521-3.14-3.523-.95-6.475-1.05-7.427.57s0,.77,0,1.81c1.049,1.16,2.27,2.16,3.618,2.95c2.813,1.92,5.738,3.67,8.76,5.24c5.122,2.65,10.477,4.81,15.996,6.48c5.475.94,10.882,2.25,16.187,3.9Z" fill="#263238"/><path d="M957.388,3957.14c-3.068-4.81-4.504-10.49-4.094-16.18-.176-6.2.693-12.38,2.571-18.28c1.17-3.5,2.668-6.88,4.475-10.1.933-2.17,2.415-4.07,4.3-5.51c1.886-1.43,4.111-2.36,6.459-2.67c1.496.03,2.949.5,4.183,1.34c1.234.85,2.196,2.03,2.768,3.42.802,1.95,1.346,4,1.619,6.09.527,3.76.527,7.57,0,11.33-1.043,6.25-3.628,12.14-7.522,17.14-6.665,8.47-13.521,10.28-13.616,9.52s5.237-3.9,10.379-12.09c2.915-4.76,4.797-10.08,5.522-15.62.411-3.16.411-6.36,0-9.52-.476-3.52-1.714-6.38-3.047-6.09-1.333.28-4.57,2.57-5.998,5.33-1.66,2.9-3.092,5.92-4.285,9.05-1.966,5.32-3.153,10.9-3.523,16.56-.19,9.91,1.047,16.09-.191,16.28Z" fill="#263238"/><path d="M1228.56,2244.89c0,0,264.13,681.65,242.32,872.93-21.8,191.29-161.19,809.05-161.19,809.05l-223.76-79.03l89.6-761.72-172.72-524.26l53.89-297.36l171.86-19.61Z" fill="#263238"/><path d="M721.351,2188.52c0,0,0,134.45,14.948,189.1l13.616,79.5c-9.521,437.99-6.951,1470.03-6.951,1470.03l298.976,3.62l93.6-1708.26-414.189-33.99Z" fill="#263238"/><path d="M1143.25,2382.19c.15,1.33.15,2.67,0,4c0,2.86,0,6.76-.76,11.71-.76,10.57-1.91,25.71-3.43,45.13-3.05,39.33-7.43,95.98-12.76,165.77-10.76,139.97-24.37,333.26-38.09,547.3-13.71,214.04-24.09,407.42-32.46,547.77-4.1,69.99-7.53,126.64-9.53,166.06-1.23,19.04-2.28,34.56-2.95,45.13-.38,4.95-.66,8.85-.85,11.71-.02,1.35-.18,2.69-.48,4-.12-1.33-.12-2.67,0-4c0-2.95,0-6.85,0-11.81.48-10.56,1.14-25.7,2-45.13c1.9-39.51,4.76-96.16,8.28-166.15c7.24-140.15,17.62-333.92,30.95-547.87s27.52-407.33,39.13-547.29c5.81-69.99,10.67-126.64,14.38-165.68c1.9-19.04,3.33-34.47,4.38-45.03c0-4.96.95-8.86,1.24-11.72.18-1.33.5-2.64.95-3.9Z" fill="#455a64"/><path d="M904.83,2423.23c0-.86,11.426-3.72,29.517-10c10.531-3.65,20.7-8.27,30.373-13.81c11.743-6.66,21.756-15.99,29.231-27.23c7.199-11.55,11.719-24.56,13.239-38.08c1.33-11.09,1.71-22.27,1.14-33.42-.95-19.05-2.29-31.04-1.52-31.14c1.1,2.6,1.78,5.37,2,8.19.95,5.33,2.19,13.04,3.04,22.76c1.14,11.36,1.14,22.81,0,34.18-1.32,14.17-5.95,27.84-13.519,39.89-7.904,11.91-18.59,21.72-31.135,28.57-10.001,5.53-20.567,9.96-31.516,13.23-9.522,2.76-16.948,4.48-22.281,5.52-2.776.86-5.663,1.31-8.569,1.34Z" fill="#455a64"/><path d="M1218.28,3204.47c-2.39-3.81-4.37-7.87-5.9-12.09-3.53-7.91-8.29-19.52-14-33.9-11.43-28.57-26.19-69.03-40.56-114.26-14.38-45.23-25.71-86.45-33.04-116.54-3.72-15.05-6.48-27.23-8.19-35.71-1.17-4.36-1.93-8.82-2.29-13.33c1.84,4.13,3.25,8.44,4.19,12.86c2.48,9.52,5.81,21.13,9.52,35.32c8.19,29.8,20,70.94,34.28,115.88s28.57,85.22,39.14,114.26c5.04,13.8,9.52,25.42,12.56,34.37c1.84,4.24,3.27,8.63,4.29,13.14Z" fill="#455a64"/><path d="M1096.31,1250.56c0,0,410.76,390.38,408.19,481.98-2.58,91.59-89.03,115.21-117.79,113.02-28.75-2.19-255.27-231.19-255.27-231.19l-35.13-363.81Z" fill="#af1ee0"/><g opacity="0.4"><path d="M1096.31,1250.56c0,0,410.76,390.38,408.19,481.98-2.58,91.59-89.03,115.21-117.79,113.02-28.75-2.19-255.27-231.19-255.27-231.19l-35.13-363.81Z"/></g><path d="M907.877,1162.77l25.518-92.17l201.665,81.79-4.47,96.45-96.93,32.66-99.408-54.46-26.375-64.27Z" fill="#af1ee0"/><path d="M1228.56,2244.89l-33.8-780.77c-4.57-93.4-34.75-203.37-95.69-274.31l-.57-12.57-167.677-32.75c0,0-199,45.89-210.33,218.14-9.522,136.72-20.662,681.64-20.662,882.26h528.729Z" fill="#af1ee0"/><path d="M967.862,1144.87c1.965-17.99,6.519-35.59,13.521-52.28-.339,9.08-1.975,18.06-4.856,26.67-1.639,8.91-4.557,17.53-8.665,25.61Z" fill="#263238"/><path d="M1043.56,1115.45c.47,8.87-.43,17.77-2.67,26.37-.88,8.83-3.13,17.47-6.66,25.61.61-17.7,3.82-35.21,9.52-51.98h-.19Z" fill="#263238"/><path d="M1102.31,1141.25c.51,7.98.19,15.99-.96,23.9.15,8.03-.61,16.04-2.28,23.9-3.22-15.87-2.1-32.32,3.24-47.61v-.19Z" fill="#263238"/><path d="M885.691,1748.25c-9.382,10.01-20.196,18.58-32.087,25.42-11.031,8.14-23.23,14.56-36.182,19.04c10.453-8.76,21.67-16.56,33.516-23.33c10.914-8.09,22.547-15.16,34.753-21.13Z" fill="#263238"/><path d="M794.666,1657.79c-2.164-10.64-2.773-21.55-1.809-32.37-.571-10.86.488-21.74,3.142-32.28c2.28,10.63,2.89,21.55,1.809,32.37.665,10.86-.396,21.76-3.142,32.28Z" fill="#263238"/><path d="M797.237,2000.19c-10.846-8.64-19.819-19.4-26.375-31.62-7.897-11.48-13.402-24.43-16.186-38.08c1.428-.57,8.664,16.19,20.471,35.23s23.233,33.51,22.09,34.47Z" fill="#263238"/><path d="M997.475,1946.39c-12.85,9.08-26.236,17.38-40.086,24.85-12.971,8.85-26.451,16.92-40.371,24.19c11.181-11.39,24.022-21.02,38.086-28.57c13.06-8.83,27.332-15.73,42.371-20.47Z" fill="#263238"/><path d="M961.388,1869.27c-11.02-3.75-21.467-9-31.04-15.62-10.453-5.19-20.079-11.89-28.565-19.9c11.02,3.74,21.467,9,31.04,15.62c10.416,5.24,20.034,11.94,28.565,19.9Z" fill="#263238"/><path d="M967.577,1783.95c3.136-8.86,7.845-17.09,13.901-24.28c4.701-8.08,10.756-15.29,17.901-21.33-3.148,8.83-7.857,17.02-13.901,24.19-4.683,8.12-10.739,15.37-17.901,21.42Z" fill="#263238"/><path d="M812.566,2231.08c-10.221-5.58-19.585-12.6-27.803-20.85-9.265-7.04-17.502-15.34-24.47-24.66c10.236,5.6,19.602,12.65,27.803,20.95c9.224,7.05,17.455,15.31,24.47,24.56Z" fill="#263238"/><path d="M942.916,2174.05c-10.278,19.47-25.773,35.69-44.751,46.85c6.584-8.57,13.947-16.51,21.995-23.71c6.826-8.43,14.447-16.18,22.756-23.14Z" fill="#263238"/><path d="M741.631,1706.64c2.64,25.37,1.936,50.98-2.095,76.17-2.15-12.58-2.631-25.38-1.428-38.09-.463-12.79.721-25.59,3.523-38.08Z" fill="#263238"/><path d="M766.958,1495.26c0,1.43-8.569,2.19-19.043,1.71-10.474-.47-19.043-1.9-19.043-3.23c12.61-2.84,25.743-2.31,38.086,1.52Z" fill="#263238"/><path d="M798.951,1266.55c-5.036,9.58-11.452,18.38-19.043,26.09-6.517,8.74-14.318,16.45-23.137,22.85c11.627-18.37,25.977-34.87,42.561-48.94h-.381Z" fill="#263238"/><path d="M921.968,1242.84c-3.84-9.16-6.557-18.75-8.093-28.56-3.173-9.24-5.219-18.83-6.094-28.56c5.567,8.25,9.3,17.6,10.95,27.42c3.188,9.56,4.292,19.68,3.237,29.7Z" fill="#263238"/><path d="M703.545,2102.73c-1.702.65-3.453,1.16-5.237,1.53-5.107,1.26-10.292,2.18-15.52,2.76-18.996,2.37-38.233,2.02-57.129-1.05-28.343-4.57-55.766-13.67-81.219-26.95-15.111-7.68-29.485-16.73-42.942-27.04-7.335-5.39-14.099-11.51-20.186-18.28-3.215-3.76-5.498-8.23-6.665-13.04-1.075-5.16-.156-10.54,2.571-15.05c2.78-4.13,6.498-7.54,10.851-9.96c4.352-2.41,9.215-3.76,14.191-3.94c9.064-.46,18.152-.04,27.136,1.24c45.504,5.45,88.863,22.43,125.97,49.32c16.124,10.78,29.97,24.63,40.752,40.75c2.787,4.47,4.995,9.27,6.57,14.29.702,1.73,1.12,3.56,1.238,5.42-2.587-6.62-5.774-13-9.522-19.04-11.184-15.45-25.169-28.66-41.228-38.94-36.833-26.06-79.628-42.43-124.446-47.61-8.638-1.23-17.377-1.62-26.089-1.14-4.205.08-8.328,1.16-12.035,3.15s-6.892,4.82-9.294,8.27c-1.908,3.66-2.577,7.84-1.908,11.91.67,4.06,2.643,7.81,5.622,10.66c5.796,6.41,12.17,12.28,19.043,17.52c13.235,10.14,27.315,19.12,42.085,26.85c24.979,13.23,51.866,22.48,79.695,27.42c18.84,3.43,38.052,4.32,57.129,2.67c13.14-.48,20.472-2.38,20.567-1.72Z" fill="#af1ee0"/><path d="M682.312,2066.65c-1.122-1.05-2.113-2.24-2.951-3.53l-7.713-10.47c-9.301-13.08-17.883-26.65-25.708-40.66-11.892-20.88-19.741-43.81-23.137-67.6-1.861-14.19-1.249-28.59,1.809-42.56.749-3.69,1.768-7.32,3.047-10.86c1.046-3.85,2.754-7.49,5.046-10.76c1.206-1.96,2.883-3.58,4.879-4.73c1.995-1.15,4.246-1.78,6.547-1.83c2.294.24,4.496,1.04,6.418,2.31c1.922,1.28,3.509,3,4.627,5.02c27.618,45.67,44.242,97.14,48.56,150.34c1.226,16.01,1.226,32.08,0,48.09c0,5.61-1.048,9.99-1.333,12.94-.033,1.53-.322,3.05-.857,4.48-.416-5.83-.416-11.69,0-17.52.397-15.89-.239-31.8-1.905-47.61-5.257-52.31-22.036-102.81-49.131-147.87-.688-1.37-1.697-2.55-2.941-3.44-1.243-.9-2.684-1.48-4.2-1.7-1.492.1-2.936.57-4.2,1.37-1.264.79-2.308,1.9-3.036,3.2-3.594,6.09-6.107,12.76-7.427,19.71-2.891,13.45-3.535,27.28-1.904,40.94c3.116,23.36,10.473,45.95,21.709,66.65c9.521,17.81,18.186,31.62,24.185,41.14l6.95,11.04c2.095,2.38,2.857,3.81,2.666,3.91Z" fill="#af1ee0"/><path d="M452.177,2289.16c16.437,6.67,34.034,10,51.769,9.8s35.254-3.91,51.539-10.94c20.782-9,39.631-21.93,55.511-38.08c28.444-29.84,51.251-64.59,67.317-102.55c6.284-13.81,11.426-25.33,15.425-34.28c1.635-4.31,3.675-8.45,6.093-12.38-.995,4.51-2.431,8.91-4.284,13.14-3.142,8.29-7.713,20.38-13.997,34.95-15.282,38.87-37.911,74.43-66.65,104.73-16.35,16.34-35.764,29.28-57.13,38.09-17.556,7.13-36.375,10.62-55.32,10.28-12.723-.26-25.31-2.68-37.229-7.14-3.28-1.18-6.463-2.61-9.521-4.28-1.246-.23-2.44-.68-3.523-1.34Z" fill="#af1ee0"/><path d="M662.221,2437.03c-1.49-4.29-2.543-8.72-3.142-13.23-.444-2.16-.92-4.54-1.428-7.14c0-2.76-.476-5.62-.857-8.67c0-6.19-1.523-13.23-1.428-21.04-.384-40.76,2.802-81.48,9.521-121.68c7.046-47.61,16.377-89.32,23.709-119.69c3.618-15.14,6.856-27.33,9.522-35.8.981-4.43,2.351-8.76,4.094-12.95-.281,4.54-1.047,9.04-2.285,13.42l-7.618,36.09c-6.474,30.47-15.139,72.65-22.185,119.69-6.547,39.95-10.143,80.34-10.759,120.83-.19,31.04,4.094,49.98,2.856,50.17Z" fill="#af1ee0"/><path d="M873.6,1165.62c0,0,.952-.85,3.142-2.18c3.01-1.87,6.2-3.44,9.521-4.67c13.044-4.13,26.887-5.08,40.372-2.76c19.986,3.2,39.048,10.67,55.891,21.9c20.324,13.7,39.184,29.46,56.274,47.03c31.43,31.75,55.69,69.87,71.12,111.79c3.15,7.99,5.05,15.42,7.05,21.9c2,6.47,3.05,12.28,3.9,16.94c1.07,4.83,1.77,9.73,2.1,14.67-1.14,0-3.81-20.85-16.28-52.28-16.25-40.95-40.57-78.22-71.51-109.59-16.88-17.3-35.372-32.96-55.225-46.75-16.247-11-34.596-18.52-53.892-22.09-12.991-2.57-26.392-2.21-39.228,1.05-8.475,2.19-12.95,5.04-13.235,5.04Z" fill="#fff"/><path d="M1109.73,1827.94c0,0,1.43,223.57-35.7,236.04-46.85,15.71-373.818,0-373.818,0v80.27c0,0,325.538-20.95,352.298,20.94c25.23,39.61,258.41,766.87,305.35,985.29h147.11c0,0-78.08-375.15-105.69-470.84-14.76-50.94-63.7-212.9-107.97-339.25-41.23-117.65-61.03-241.75-58.46-366.39l3.52-166.24-25.52-428.47h-94.07l-7.05,448.65Z" fill="#af1ee0"/><g opacity="0.7"><path d="M1109.73,1827.94c0,0,1.43,223.57-35.7,236.04-46.85,15.71-373.818,0-373.818,0v80.27c0,0,325.538-20.95,352.298,20.94c25.23,39.61,258.41,766.87,305.35,985.29h147.11c0,0-78.08-375.15-105.69-470.84-14.76-50.94-63.7-212.9-107.97-339.25-41.23-117.65-61.03-241.75-58.46-366.39l3.52-166.24-25.52-428.47h-94.07l-7.05,448.65Z" fill="#fff"/></g><path d="M1406.8,2350.39c4.15-1.77,7.89-4.37,10.99-7.65c3.1-3.27,5.48-7.15,7.01-11.4c1.46-4.32,1.98-8.91,1.54-13.46-.45-4.54-1.85-8.94-4.11-12.91-5.52-9.52-16.38-16.95-18.57-27.99-3.62,3-5.91,7.31-6.38,11.99-6.38-6.28.67-19.04-6.28-25.04-2.1-1.21-4.51-1.75-6.92-1.57-2.42.19-4.72,1.1-6.6,2.62-4.59,3.27-8.38,7.54-11.09,12.49-2.7,4.95-4.25,10.44-4.53,16.07-.69,8.63.79,17.29,4.32,25.2c3.52,7.9,8.98,14.79,15.87,20.03c7.46,4.44,14.67,9.27,21.61,14.47" fill="#af1ee0"/><path d="M1392.33,2354.48l-10.66,137.21c-.47,2.15-.17,4.4.83,6.36c1.01,1.96,2.67,3.51,4.69,4.39c2.02.87,4.28,1.02,6.4.41c2.12-.6,3.96-1.92,5.22-3.74c1.41-1.62,2.28-3.66,2.47-5.8l10.48-137.11-19.43-1.72Z" fill="#263238"/><path d="M1392.33,2354.48l-3.24-10.76l27.43,1.05-4.57,11.14-19.62-1.43Z" fill="#e0e0e0"/><path d="M1342.34,2451.98c-1.04-4.19-19.04-136.82-24.56-182.14-.25-1.88-.08-3.8.47-5.61s1.49-3.49,2.74-4.91c1.25-1.43,2.79-2.57,4.52-3.35s3.61-1.18,5.5-1.18c3.16,0,6.21,1.12,8.61,3.16c2.41,2.04,4.01,4.87,4.53,7.98l31.04,191.1-32.85-5.05Z" fill="#263238"/><path d="M1273.88,2411.71h154.44c0,0,47.61,200.9-29.51,267.93l-47.61-8.47-77.32-259.46Z" fill="#af1ee0"/><g opacity="0.7"><path d="M1273.88,2411.71h154.44c0,0,47.61,200.9-29.51,267.93l-47.61-8.47-77.32-259.46Z" fill="#fff"/></g><g id="egWRcs5fLoS133"><path d="M824.088,1286.36c-14.623,11.31-26.812,25.45-35.835,41.58-9.024,16.14-14.698,33.92-16.681,52.3-1.982,18.38-.234,36.97,5.142,54.66c5.375,17.68,14.266,34.1,26.141,48.27l293.355,349.91c30.84,36.3,73.24,60.86,120.08,69.53c46.83,8.67,95.22.93,137-21.92c35.58-19.6,64.6-49.24,83.44-85.22c18.85-35.98,26.68-76.71,22.54-117.11l-71.51-314.21-143.77,22.66l18.09,239.09-245.28-315.26c-22.317-28.68-55.095-47.33-91.147-51.89-36.052-4.55-72.438,5.38-101.185,27.61h-.38Z" fill="#af1ee0"/><path d="M1317.3,1895.93l-4,.76-11.52,1.71c-10.19,1.43-25.23,3.62-44.75,4.76-23.8,1.77-47.72-.35-70.84-6.28-30.23-9.66-57.72-26.41-80.17-48.85-27.23-26.68-52.98-54.85-77.12-84.36-26.38-31.51-53.992-65.51-82.842-101.59-28.85-36.09-58.653-74.18-89.407-114.26l-46.56-60.84c-3.999-5.15-7.903-10.38-11.807-15.52l-5.618-8.19c-1.958-2.72-3.709-5.59-5.237-8.57-6.594-11.72-11.377-24.37-14.187-37.52-2.958-13.11-3.89-26.59-2.761-39.99.525-6.62,1.479-13.21,2.857-19.71c1.512-6.48,3.484-12.84,5.903-19.04c2.307-6.14,5.011-12.11,8.093-17.9c3.252-5.63,6.879-11.04,10.855-16.19c7.725-10.28,16.897-19.38,27.231-27.04c10.159-7.55,21.268-13.73,33.04-18.37c34.409-12.9,72.511-11.74,106.07,3.23c20.783,9.6,38.92,24.11,52.84,42.28l38.66,50.46l69.41,90.65l100.36,131.39c11.71,15.43,20.76,27.52,27.04,35.9l7.05,9.52c.79,1.07,1.53,2.18,2.19,3.33l-2.57-3.04-7.24-9.52-27.71-35.42-101.31-130.73-69.79-90.36-38.94-49.52c-13.62-17.66-31.331-31.75-51.609-41.03-21.366-9.59-44.867-13.43-68.174-11.14-11.996,1.13-23.783,3.88-35.039,8.19-11.415,4.53-22.199,10.51-32.088,17.8-10.035,7.45-18.949,16.3-26.47,26.28-3.797,5.06-7.294,10.34-10.473,15.81-3.019,5.59-5.659,11.38-7.903,17.32-2.29,6-4.198,12.14-5.713,18.38-1.296,6.29-2.218,12.65-2.761,19.04-1.063,13.05-.164,26.17,2.666,38.95c2.741,12.75,7.396,25.01,13.806,36.37c6.65,11.12,14.097,21.75,22.28,31.8l46.561,60.84c30.659,39.71,60.461,77.89,89.216,114.26s56.271,70.27,82.551,101.79c23.84,29.48,49.27,57.64,76.17,84.36c22.04,22.32,49.11,39.03,78.94,48.75c22.82,6.12,46.49,8.47,70.07,6.95c19.05-.86,34.57-2.86,44.76-4l11.61-1.33c1.45-.3,2.91-.49,4.38-.57Z" fill="#263238"/><path d="M1283.41,1739.3c3.04-20.48,2.78-41.31-.77-61.7-4.91-20.2-13.01-39.48-23.99-57.13c4.58,4.19,8.44,9.12,11.43,14.57c15.52,25.7,21.84,55.92,17.9,85.69-.44,6.41-1.99,12.69-4.57,18.57Z" fill="#263238"/><path d="M910.734,1427.75c-13.123-4.38-25.683-10.29-37.42-17.61-12.558-5.89-24.356-13.27-35.134-22c13.149,4.39,25.74,10.3,37.514,17.62c12.52,5.9,24.284,13.28,35.04,21.99Z" fill="#263238"/><path d="M1010.33,1487.36c-2.34-14.8-2.34-29.87,0-44.66.89-14.97,4.1-29.72,9.52-43.7-.43,14.84-1.86,29.63-4.28,44.27-.8,14.79-2.55,29.52-5.24,44.09Z" fill="#263238"/><path d="M1021.37,1607.14c-24.222-2.04-47.572-10.02-67.98-23.23c11.699,2.66,23.138,6.35,34.182,11.04c11.573,3.16,22.878,7.23,33.798,12.19Z" fill="#263238"/><path d="M1136.49,1671.98c-1.11-13.76-.6-27.59,1.52-41.23.54-13.82,2.71-27.53,6.48-40.85c1.11,13.79.59,27.66-1.53,41.33-.47,13.8-2.65,27.48-6.47,40.75Z" fill="#263238"/><path d="M1158.29,1790.62c-10.65-8.83-20.23-18.86-28.56-29.9-9.62-9.99-18.03-21.08-25.04-33.04c10.66,8.78,20.24,18.78,28.56,29.8c9.64,10.01,18.05,21.13,25.04,33.14Z" fill="#263238"/><path d="M1314.92,1802.9c-12.02,2.89-24.19,5.08-36.47,6.57-11.95,3.13-24.1,5.49-36.37,7.05c10.89-6.3,22.94-10.35,35.42-11.91c12.22-3.15,24.96-3.73,37.42-1.71Z" fill="#263238"/><path d="M1333.77,1585.24c3.26-11.29,8.1-22.06,14.38-31.99c4.95-10.71,11.36-20.67,19.04-29.62-8.06,22.01-19.21,42.75-33.13,61.61h-.29Z" fill="#263238"/><path d="M1211.61,1165.63l161.87-86.94c2.23-1.21,4.83-1.56,7.29-.96c2.47.6,4.62,2.1,6.04,4.2.83,1.2,1.39,2.56,1.65,3.99.26,1.44.21,2.91-.14,4.32s-1,2.74-1.9,3.88c-.9,1.15-2.03,2.09-3.32,2.76l-147.87,77.5-23.62-8.75Z" fill="#263238"/><path d="M1335.11,1462.51c-8.91-2.19-17.33-6-24.85-11.24-8.36-3.87-15.97-9.19-22.47-15.71c8.91,2.29,17.35,6.12,24.94,11.33c8.32,3.84,15.9,9.13,22.38,15.62Z" fill="#263238"/><path d="M1181.05,1119.92c-19.9,11.24-33.61,39.71-45.8,58.37-4.07,5.48-6.9,11.78-8.28,18.47-.25,7.23,1.36,14.41,4.66,20.85c4.29,9.52,8.95,19.05,13.62,29.23c1.33,2.76,3.04,5.81,6.09,6.38s6.86-3.23,8.19-6.85c2.43-9.32,3.59-18.93,3.43-28.57-.04-4.83,1.11-9.6,3.35-13.89c2.24-4.28,5.51-7.95,9.5-10.67" fill="#eb996e"/><path d="M1217.04,1194.19l-20.66-13.9c-1.26-.93-2.83-1.33-4.37-1.11-1.55.21-2.95,1.02-3.91,2.25l-9.53,12.66l7.05,30.57c8.38,39.32-21.33,34.56-21.33,34.56l-2.66-7.52-15.24-47.61c-3.71-22.95-2-25.8,8.38-43.04l22.95-36.37c2.3-3.8,5.82-6.72,9.98-8.29s8.72-1.7,12.96-.37c36,11.33,113.31,31.32,123.78,60.84c18.28,53.7,37.23,188.81,37.61,191.29l-106.64,16.47-4.95-91.12c-9.74-5.46-17.3-14.1-21.42-24.47-5.38-24.8-9.38-49.88-12-75.13" fill="#ffbe9d"/><path d="M1292.36,1208.38c0,0-1.05,1.9-3.81,4.47-4.04,3.83-8.94,6.64-14.29,8.19-3.82.97-7.81,1.13-11.71.48-4.6-.84-8.79-3.18-11.9-6.67-6.66-7.24-8.09-17.9-14.09-25.42-3.35-3.43-7.2-6.32-11.43-8.57-4.01-2.29-8.14-4.36-12.37-6.19-3.48-1.77-7.34-2.65-11.24-2.57-3.21,1.22-6.1,3.14-8.47,5.62-9.53,9.52-14.38,16.56-14.95,15.99s.85-2,3.04-5.14c2.8-4.52,5.98-8.79,9.53-12.76c2.58-3.01,5.84-5.36,9.52-6.85c1.2-.19,2.42-.19,3.62,0l3.33.66c2.2.57,4.36,1.27,6.47,2.1c4.45,1.77,8.78,3.84,12.95,6.19c4.67,2.48,8.92,5.69,12.57,9.52c6.86,8.85,8.09,19.04,13.81,25.52c2.53,2.68,5.75,4.64,9.3,5.66s7.31,1.07,10.88.15c5.04-1.2,9.78-3.44,13.9-6.57c3.62-2.67,5.14-4.1,5.34-3.81Z" fill="#eb996e"/><path d="M1282.07,1241.8c-10.35.52-20.72-.74-30.66-3.72-10.04-1.8-19.7-5.31-28.56-10.37c10.13,1.36,20.13,3.56,29.9,6.56c9.94,1.79,19.75,4.3,29.32,7.53Z" fill="#eb996e"/><path d="M1237.13,1171.15c0-.48,2-1.05,4.95,0c1.96.81,3.69,2.1,5.04,3.74c1.34,1.64,2.26,3.59,2.66,5.68.41,2.08.29,4.23-.34,6.26s-1.75,3.87-3.26,5.36c-2.38,2.28-4.38,2.48-4.57,2.09-.19-.38,1.04-1.61,2.38-3.8c1.8-2.83,2.48-6.23,1.9-9.53-.7-3.11-2.53-5.86-5.14-7.71-2-.95-3.71-1.52-3.62-2.09Z" fill="#eb996e"/><path d="M1073.36,1241.8c-3.69-2.77-7.93-4.72-12.44-5.71-4.5-.99-9.17-1-13.68-.04-4.51.97-8.77,2.89-12.47,5.64-3.71,2.75-6.78,6.26-9.02,10.3-5.52,9.52-6.09,22.75-14.56,30.27c4.44,1.58,9.32,1.38,13.61-.57-2.09,8.67-16.95,9.52-18.18,18.19.01,2.42.76,4.77,2.16,6.75s3.37,3.47,5.64,4.29c5.13,2.2,10.68,3.25,16.26,3.07s11.05-1.59,16.02-4.11c7.77-3.84,14.45-9.57,19.44-16.65c4.99-7.09,8.13-15.31,9.13-23.92-.04-8.68.4-17.36,1.33-25.99" fill="#455a64"/><path d="M1084.22,1252.37L1208,1191.24c2.06-.73,3.8-2.15,4.94-4.01c1.14-1.87,1.61-4.07,1.32-6.23-.29-2.17-1.32-4.17-2.91-5.67s-3.65-2.4-5.83-2.56c-2.13-.45-4.35-.14-6.28.85l-123.12,61.13l8.1,17.62Z" fill="#263238"/><path d="M1084.22,1252.37l-7.53,8.28-13.14-23.99l11.91-1.91l8.76,17.62Z" fill="#e0e0e0"/><path d="M1241.32,1193.05c-28.56,1.43-31.52,0-63.41,3.42-4.79.31-9.5,1.3-14,2.96-2.28.85-4.33,2.22-5.98,4.01s-2.86,3.93-3.54,6.27c-1.81,8.85,7.43,16.38,16.28,18c8.86,1.61,18.19-.48,27.04,1.14c14,1.82,26.9,8.57,36.37,19.04c19.62,25.23,38.09,11.81,51.33,20.47l31.99-22.37-14-48.09-62.46-4.85" fill="#ffbe9d"/><path d="M1288.74,1268.27c-3.06-1.22-6.26-2.02-9.52-2.38-8.92.35-17.83-.77-26.38-3.34-5.63-2.61-10.6-6.45-14.57-11.23-4.05-5.41-9.21-9.89-15.14-13.14-6.6-3.57-13.74-6.05-21.13-7.33-8.13-.92-16.3-1.23-24.47-.95-4.53-.05-8.94-1.39-12.72-3.87-3.78-2.49-6.77-6-8.61-10.13-.69-2.18-.83-4.5-.4-6.74.44-2.25,1.42-4.35,2.87-6.12c2.73-3.13,6.3-5.41,10.29-6.57c6.92-1.5,13.96-2.43,21.04-2.76c6.47-.47,12.66-.85,18.19-1.04c11.14,0,20.09,0,26.28,0c3.16-.3,6.35-.3,9.52,0-3.12.79-6.31,1.2-9.52,1.23-6.19,0-15.24.77-26.28,1.43l-18,1.53c-6.79.48-13.54,1.47-20.19,2.95-6.47,1.81-12.66,8.09-10.28,14.76c1.65,3.39,4.22,6.26,7.42,8.26c3.2,2.01,6.9,3.07,10.67,3.07c8.3-.31,16.61.04,24.85,1.04c7.73,1.47,15.19,4.13,22.09,7.91c6.23,3.57,11.65,8.4,15.9,14.18c3.69,4.55,8.34,8.23,13.62,10.76c8.23,2.65,16.78,4.12,25.42,4.38c2.41.32,4.74,1.1,6.86,2.29c1.52,1.14,2.19,1.62,2.19,1.81Z" fill="#eb996e"/><g opacity="0.2"><path d="M805.044,1479.83c66.751,126.42,146.53,245.52,238.036,355.35c23.62,28.56,48.75,57.89,81.6,75.5c32.85,17.62,53.8,11.24,84.74-9.52-27.79-5.48-54.08-16.84-77.12-33.32-30.58-21.53-57.6-47.71-80.08-77.6-80.645-100.17-159.388-203.57-239.94-303.84"/></g></g><path d="M1404.9,2670.03c-3.34,1.1-6.89,1.42-10.38.95-9.64-.84-18.91-4.12-26.94-9.52-11.9-7.83-21.95-18.16-29.43-30.28-9.1-14.52-17.39-29.52-24.85-44.94-13.71-27.88-25.39-56.71-34.94-86.27-3.62-11.33-6.09-20.66-7.81-27.14-1.02-3.31-1.66-6.73-1.9-10.18c1.66,3,2.94,6.2,3.81,9.52l9.52,26.56c10.42,29.22,22.47,57.83,36.08,85.7c8.1,16.09,15.91,31.51,24.19,44.65c6.98,11.72,16.32,21.87,27.42,29.81c7.58,5.23,16.23,8.71,25.33,10.18c6.57.96,9.9.19,9.9.96Z" fill="#263238"/><path d="M1441.65,1636.56c.43-8.75,2.39-17.36,5.81-25.42c1.76-4.04,4.55-7.54,8.09-10.15c3.55-2.61,7.72-4.23,12.1-4.71c2.15-.09,4.3.26,6.31,1.05s3.83,1.99,5.35,3.52s2.69,3.37,3.46,5.39c.76,2.02,1.09,4.17.97,6.32-1.68,4.93-4.34,9.46-7.81,13.34-8.95,13.52-7.24,31.23-6.28,47.6.95,16.38,0,34.85-12.95,45.23" fill="#ffbe9d"/><path d="M1444.51,1787.57c-36.94-6.76-43.42-12.76-80.27-19.04-11.04-2-25.32-8.38-21.04-20.09c1.24-2.93,3.34-5.42,6.03-7.12s5.84-2.54,9.01-2.4c14.38.47,38.09,7.8,51.42,8.47c3.43,0,3.14-3.24,1.52-5.52-22.63-5.63-45.68-9.42-68.93-11.33-3.23-.33-6.3-1.59-8.83-3.62-2.53-2.04-4.41-4.76-5.42-7.85s-1.1-6.4-.26-9.54c.84-3.13,2.57-5.96,4.99-8.13c2.89-1.78,6.14-2.92,9.52-3.33c14.76,1.43,14.76,1.43,30.47,3.43c44.08,5.42,38.08-2.96,38.08-2.96c0-3.33-50.18-5.71-76.17-7.61-5.54.32-10.99-1.48-15.23-5.05-1.97-2.69-2.96-5.96-2.8-9.29.15-3.33,1.44-6.5,3.65-8.99c2.09-2.64,4.68-4.85,7.62-6.48s6.18-2.67,9.52-3.04c28.57-1.91,122.35,4,122.35,4s13.05,16.09,10.95,50.18c-3.39,26.65-12.31,52.3-26.18,75.31Z" fill="#ffbe9d"/></g><g><g id="egWRcs5fLoS162" transform="translate(.000001 0)"><path d="M3766.81,3464.79c9.04-31.42,28.56-61.7,58.37-74.65c29.8-12.95,67.22-5.72,99.11,5.81c31.9,11.52,63.23,27.13,97.12,29.23c33.9,2.09,72.08-14,82.27-46.37c9.52-30.47-8.85-62.94-31.8-85.03-24.28-23.37-54.04-40.25-86.56-49.09-32.51-8.84-66.73-9.35-99.49-1.48-32.76,7.86-63.02,23.84-87.98,46.48-24.96,22.63-43.82,51.18-54.85,83.02" fill="#af1ee0"/><g opacity="0.3"><path d="M3766.81,3464.79c9.04-31.42,28.56-61.7,58.37-74.65c29.8-12.95,67.22-5.72,99.11,5.81c31.9,11.52,63.23,27.13,97.12,29.23c33.9,2.09,72.08-14,82.27-46.37c9.52-30.47-8.85-62.94-31.8-85.03-24.28-23.37-54.04-40.25-86.56-49.09-32.51-8.84-66.73-9.35-99.49-1.48-32.76,7.86-63.02,23.84-87.98,46.48-24.96,22.63-43.82,51.18-54.85,83.02"/></g><path d="M3498.4,3600.85c-49.71-47.61-47.61-129.4-22.47-193.38c25.13-63.99,78.93-112.93,139.39-145.3c59.01-30.97,124.26-48.18,190.86-50.34s132.83,10.79,193.72,37.87c-29.89,1.24-59.02,9.82-84.82,24.96s-47.48,36.39-63.15,61.87c-27.23,45.23-33.32,100.17-55.79,147.97-25.39,53.84-70.43,95.92-125.87,117.6-55.44,21.67-117.08,21.29-172.25-1.06" fill="#af1ee0"/><path d="M3448.12,3850.12c-.24-2.5-.24-5.02,0-7.52c0-4.95,0-12.19,0-21.42.67-19.05,2.48-45.61,6.57-78.75c4.92-38.76,11.98-77.22,21.14-115.21c11.4-46.61,29.08-91.45,52.56-133.3c23.44-41.87,52.25-80.5,85.69-114.92c27.25-28.11,57.45-53.2,90.08-74.84c13.8-9.52,27.04-16.76,38.56-23.42c11.52-6.67,21.99-11.14,30.37-15.24l19.81-8.28c2.26-1.07,4.62-1.93,7.04-2.57-2.13,1.33-4.36,2.51-6.66,3.52l-19.04,9.04c-8.19,4.38-18.29,9.53-29.81,16-11.52,6.48-24.37,14.19-38.08,23.8-71.63,49-131.07,113.75-173.77,189.29-50.56,88.46-64.37,181.48-74.46,246.71-4.57,32.94-6.95,59.79-8.19,78.36-.57,8.85-.95,15.99-1.33,21.33c0,2.48-.16,4.96-.48,7.42Z" fill="#263238"/></g><g id="egWRcs5fLoS168" transform="matrix(.999184-.040392 0.040392 0.999184-149.466728 139.248543)"><path d="M2973.48,3060.88c-101.79,61.51-101.5,117.4-84.46,170.15s79.41,89.41,131.3,69.7c29.23-11.14,50.47-36.66,68.56-62.18c18.09-25.51,35.13-53.03,60.55-71.31c25.43-18.28,62.18-25.42,87.7-7.24"/><path d="M2973.48,3060.88c-101.79,61.51-101.5,117.4-84.46,170.15s79.41,89.41,131.3,69.7c29.23-11.14,50.47-36.66,68.56-62.18c18.09-25.51,35.13-53.03,60.55-71.31c25.43-18.28,62.18-25.42,87.7-7.24" fill="#af1ee0"/><path d="M2897.3,3128.3c26.57-36.76,92.36-47.61,133.88-29.14c41.51,18.47,71.98,54.75,99.12,91.12c27.13,36.37,53.79,74.74,91.5,99.98c37.7,25.23,90.36,34.46,127.97,8.95c11.97-8.93,21.99-20.21,29.45-33.14c7.47-12.93,12.22-27.25,13.96-42.08c3.37-29.73,1.37-59.82-5.9-88.84-9.04-42.66-23.71-87.22-57.89-114.26-38.09-30.28-90.83-31.7-139.49-30.09-55.7,1.81-112.35,6-164.72,25.33s-105.69,61.04-127.88,112.26" fill="#af1ee0"/><path d="M3363.48,3799.28c-.12-.76-.12-1.53,0-2.29c0-1.81,0-4,0-6.76l-.95-26.18c-.58-23.14-1.53-55.89-2.67-96.26-1.14-40.38-2.76-88.94-5.43-142.83-2.66-53.89-7.14-112.26-14.09-173.86-3.27-29.88-8.29-59.54-15.04-88.84-2.1-6.95-3.81-13.9-6-20.66s-4.86-13.42-7.43-19.9c-2.57-6.47-5.33-12.85-8-19.04l-8.66-18.38c-21.03-42.6-49.24-81.25-83.41-114.26-23.13-22.1-49.53-40.5-78.27-54.55-5.14-2.38-9.52-4.57-13.71-6.38l-10.57-3.91-6.28-2.57-2.1-1.05c.79.07,1.56.26,2.29.58l6.47,2.09l10.48,3.52c4.09,1.62,8.66,3.81,13.9,6c29.35,13.52,56.32,31.69,79.88,53.8c34.84,32.82,63.65,71.49,85.13,114.26c2.85,6.34,5.8,12.69,8.85,19.04c2.67,6.38,5.43,12.76,8.19,19.04c2.76,6.29,4.95,13.33,7.43,20.09c2.47,6.76,4.09,14,6.19,21.05c6.92,29.49,12,59.38,15.23,89.5c7.33,61.7,10.47,120.83,13.14,174.43c2.67,53.61,3.62,102.17,4.38,142.83.76,40.65,1.05,73.5,1.14,96.26c0,11.04,0,19.71,0,26.18c0,2.67,0,4.95,0,6.76.12.76.08,1.54-.09,2.29Z" fill="#263238"/></g><g id="egWRcs5fLoS173" transform="translate(0 0.000001)"><path d="M3470.5,3317.4c-55.03-65.03-62.36-169.29-54.27-254.03c8.1-84.74,27.81-169.96,14.38-254.03-7.9-49.8-27.23-97.41-33.71-147.4-6.47-49.99,2.67-106.54,41.42-138.82c44.56-37.14,114.26-28.57,161.01,6.47s73.13,89.6,92.84,144.06c43.03,119.88,58.84,252.8,23.42,375.06-35.42,122.25-118.45,231.46-240.32,268.69" fill="#af1ee0"/><path d="M3400.14,3814.51c-4.93-14.24-8.69-28.85-11.24-43.7-7.09-40.55-8.69-81.86-4.76-122.83c6.25-60.64,19.25-120.39,38.75-178.15c20.95-65.51,49.23-135.58,73.51-210.8c11.92-36.6,21.68-73.86,29.23-111.6c6.7-35.07,11.53-70.48,14.47-106.07c4.61-60.53,5.7-121.29,3.24-181.95-1.71-51.89-4.48-93.79-6.19-122.83-.76-14.19-1.43-25.33-1.9-33.33c0-3.61,0-6.47,0-8.66-.13-1.01-.13-2.03,0-3.05.29.96.45,1.95.47,2.96c0,2.28.57,5.14.86,8.66.76,8,1.71,19.04,2.86,33.33c2.38,28.56,5.61,70.84,7.8,122.73c2.96,60.83,2.2,121.79-2.28,182.53-2.74,35.87-7.47,71.57-14.19,106.92-7.62,37.8-17.54,75.1-29.71,111.69-24.28,75.51-52.75,145.49-73.79,210.71-19.63,57.41-32.91,116.8-39.61,177.1-4.25,40.72-3.2,81.81,3.14,122.26c2.48,14.28,4.76,25.32,6.76,32.66.86,3.52,1.53,6.28,2,8.47.33.95.52,1.95.58,2.95Z" fill="#263238"/></g><path d="M3652.55,3860.6h-478.07l-10.95-92.08h489.02v92.08Z" fill="#263238"/><path d="M3225.8,3850.12l59.7,276.03h259.84l55.89-276.03h-375.43Z" fill="#263238"/><path d="M3652.46,3860.22c0,1.33-104.74,2.19-234.71,1.8-129.97-.38-234.71-1.8-234.71-3.14c0-1.33,104.74-2.19,234.71-1.81s234.71,2.1,234.71,3.15Z" fill="#455a64"/><path d="M3570.48,3996.75c-13.1-9.58-27.26-17.63-42.19-23.99-16.32-6.32-33.62-9.77-51.13-10.19-21.61.14-43.03,4.18-63.22,11.9-21.8,7.43-42.18,16-61.98,20.67-17.62,3.8-35.79,4.35-53.61,1.61-12.01-1.75-23.65-5.45-34.47-10.95-2.88-1.58-5.65-3.36-8.28-5.33-1.81-1.33-2.67-2.19-2.57-2.28.09-.1,4.09,2.28,11.71,5.81c10.82,4.86,22.31,8.07,34.09,9.52c17.37,2.22,35,1.38,52.08-2.48c19.04-4.85,39.42-13.52,61.41-20.95c20.63-7.75,42.52-11.63,64.56-11.42c18.01.62,35.76,4.53,52.37,11.52c11.16,4.64,21.64,10.79,31.13,18.28c2.58,2,5.06,4.13,7.43,6.38c1.9,1.21,2.79,1.84,2.67,1.9Z" fill="#455a64"/><path d="M3566.86,4015.23c-12.62-9.35-26.22-17.3-40.57-23.71-15.65-6.34-32.34-9.76-49.22-10.1-20.76.09-41.35,3.8-60.84,10.95-21.05,7.05-40.85,15.24-59.7,20.29-16.72,4.83-34.14,6.76-51.52,5.71-11.76-.72-23.25-3.79-33.8-9.05-2.79-1.51-5.46-3.23-7.99-5.14-1.72-1.33-2.58-2.09-2.48-2.19.09-.09,4,2.19,11.33,5.62c10.51,4.43,21.74,6.91,33.13,7.33c16.95.44,33.85-1.81,50.09-6.66c18.47-5.24,38.08-13.43,59.32-20.57c20.03-7.35,41.22-11.03,62.55-10.86c17.43.56,34.59,4.44,50.56,11.43c10.7,4.71,20.72,10.83,29.81,18.19c2.49,1.96,4.87,4.05,7.14,6.28c1.62,1.52,2.28,2.38,2.19,2.48Z" fill="#fff"/><path d="M3575.24,3978.47c-13.53-9.91-28.05-18.4-43.33-25.32-16.65-7.13-34.39-11.38-52.46-12.57-22.15-.45-44.18,3.44-64.84,11.42-20.95,8.28-42.38,15.27-64.18,20.95-18.3,3.15-37.01,3.15-55.32,0-12.33-1.98-24.3-5.8-35.51-11.33-3.03-1.57-5.93-3.38-8.67-5.43-1.81-1.33-2.76-2.19-2.66-2.28.09-.1,4.28,2.38,12.09,6c11.28,4.69,23.12,7.89,35.23,9.52c17.94,2.53,36.17,2.15,53.99-1.15c21.49-5.92,42.66-12.98,63.41-21.13c21.24-8.2,43.9-12.05,66.65-11.33c18.55,1.45,36.69,6.15,53.61,13.9c11.36,5.04,22.07,11.43,31.89,19.04c2.7,2.04,5.24,4.26,7.62,6.67c1.71,2,3.05,2.95,2.48,3.04Z" fill="#fff"/></g><g id="egWRcs5fLoS182" transform="translate(0 70)"><path d="M2114.06,2766L1802.8,4129.58h73.89L2180.52,2766h-66.46Z" fill="#263238"/><path d="M2077.12,2766L1765.96,4129.58h73.79L2143.58,2766h-66.46Z" fill="#455a64"/><path d="M2917.58,2684.02c0,12.19,270.8,1442.04,270.8,1442.04h79.31L2991.57,2684.02h-73.99Z" fill="#263238"/><path d="M2884.35,2684.02c0,12.19,270.8,1442.04,270.8,1442.04h84.45L2958.43,2684.02h-74.08Z" fill="#455a64"/><path d="M2705.54,2766l-18.09,1363.58h99.79L2801.8,2766h-96.26Z" fill="#263238"/><path d="M1981.14,2684.02l-6.38,90.36l838.75,28.66l8.95-107.69-841.32-11.33Z" fill="#455a64"/><path d="M2813.51,2803.04h46.76l8.56-107.12-46.37-.57-8.95,107.69Z" fill="#263238"/><path d="M2037.8,3117.54l639.65,29.89v108.84l-658.13-32.57l18.48-106.16Z" fill="#455a64"/><path d="M2677.45,2766l-18.09,1363.58h99.79L2773.62,2766h-96.17Z" fill="#455a64"/><path d="M2253.08,2766c-1.38,24.39-1.38,48.84,0,73.22l345.06,19.81v-79.22L2253.08,2766Z" fill="#455a64"/><path d="M2553.48,167.959c4.1,9.522,57.8,370.197,57.8,370.197l64.27-4.38-51.89-365.817h-70.18Z" fill="#455a64"/><path d="M2654.7,195.477l-31.04-27.518l51.89,365.817l26.66-1.904-47.51-336.395Z" fill="#263238"/><path d="M2739.63,337.252c0,6.951-4.95,193.382-4.95,193.382l68.93-4.665v-188.717h-63.98Z" fill="#263238"/><path d="M2722.11,337.252c0,6.951-4.95,193.382-4.95,193.382l68.93-4.665v-188.717h-63.98Z" fill="#455a64"/><path d="M2512.16,342.965l-51.04,205.474l60.94-4.189l46.37-201.285h-56.27Z" fill="#263238"/><path d="M2485.88,342.965l-51.04,205.474l60.94-4.189l46.37-201.285h-56.27Z" fill="#455a64"/><path d="M3263.88,477.504l41.23,36.468-52.46,2186.238h-60.56l71.79-2222.706Z" fill="#e0e0e0"/><path d="M1889.74,593.857L1710.16,2675.74l1481.93,24.47l71.79-2222.706L1889.74,593.857Z" fill="#fafafa"/><path d="M1889.74,594.333l24.37-2.285l71.7-6.284l275.08-23.804l1002.8-85.694h2.19v2.19c-19.04,599.854-43.99,1370.054-70.84,2206.894c0,5.34,0,10.57-.47,15.81v2.38h-2.48l-1481.93-24.76h-2.38v-2.38c53.61-615.75,98.83-1136.39,130.73-1503.16c16.09-183.192,28.57-327.824,37.52-426.848c4.38-49.322,7.71-87.313,9.52-113.021c1.14-12.663,2.09-22.375,2.66-28.564s.96-9.522.96-9.522s0,3.428-.67,9.522c-.67,6.093-1.33,16.377-2.38,29.231-2.19,25.708-5.43,63.889-9.52,113.401-8.48,99.119-20.76,244.037-36.28,427.421-31.33,366.48-76.17,886.74-128.54,1502.02l-2.19-2.48l1481.93,24.28-2.48,2.39c0-5.15,0-10.48.48-15.72c27.23-836.94,52.37-1606.85,71.89-2206.989l2.09,1.999-1001.66,82.933-275.17,22.756-72.18,5.904-24.75,2.38Z" fill="#455a64"/></g><g><g><path id="egWRcs5fLoS204" d="M701.735,674.98c0,0-3.142,0-8.379,2.666-7.31,3.121-13.489,8.404-17.71,15.14-2.89,4.59-4.742,9.757-5.427,15.139-.687,6.155.438,12.376,3.237,17.9c2.858,6.564,7.663,12.092,13.765,15.836s13.207,5.523,20.353,5.097c7.147-.426,13.99-3.036,19.604-7.478s9.729-10.502,11.787-17.358c2.036-5.847,2.399-12.145,1.047-18.187-1.314-5.27-3.786-10.182-7.236-14.377-4.914-6.12-11.546-10.63-19.043-12.949-5.428-1.429-8.665-1.238-8.57-1.619.76-.083,1.526-.083,2.285,0c.919-.085,1.843-.085,2.762,0c1.287.107,2.561.33,3.808.666c8.061,1.904,15.281,6.383,20.567,12.759c3.761,4.337,6.466,9.486,7.903,15.044c1.531,6.3,1.233,12.906-.857,19.043-2.368,6.958-6.62,13.122-12.283,17.806-5.943,5.264-13.482,8.379-21.407,8.846-7.926.466-15.778-1.744-22.297-6.276-6.126-3.99-11.034-9.59-14.187-16.186-2.903-5.9-4.028-12.516-3.237-19.043c1.036-6.933,3.904-13.465,8.305-18.921c4.402-5.456,10.179-9.64,16.736-12.119c1.22-.412,2.459-.762,3.714-1.048.919-.067,1.842-.067,2.761,0c.652-.192,1.322-.319,1.999-.381Z" opacity="0" fill="#263238"/><path id="egWRcs5fLoS205" d="M794.38,767.149c0,0-1.999,0-5.237,1.809-4.5,1.999-8.285,5.32-10.854,9.521-1.986,2.983-3.155,6.435-3.389,10.01-.234,3.576.475,7.151,2.056,10.366c1.752,4.054,4.709,7.47,8.469,9.786c3.76,2.315,8.141,3.418,12.55,3.158c4.408-.26,8.629-1.87,12.091-4.611c3.463-2.742,5.997-6.482,7.261-10.713c1.185-3.382,1.466-7.015.814-10.539-.651-3.524-2.212-6.816-4.527-9.551-3.041-3.879-7.193-6.736-11.902-8.189-3.428-.952-5.428-.952-5.428-1.238c1.882-.419,3.832-.419,5.713,0c5.121,1.197,9.725,4,13.14,7.998c2.368,2.775,4.12,6.02,5.142,9.522c1.037,4.156.838,8.524-.572,12.568-1.403,4.726-4.227,8.904-8.089,11.968s-8.574,4.863-13.494,5.155c-4.921.291-9.812-.94-14.009-3.527-4.196-2.586-7.494-6.403-9.445-10.93-1.842-3.848-2.537-8.145-1.999-12.378.527-3.659,1.896-7.147,3.999-10.188c2.897-4.396,7.139-7.737,12.092-9.521c1.782-.722,3.74-.888,5.618-.476Z" opacity="0" fill="#263238"/></g><g id="egWRcs5fLoS206" opacity="0"><g id="egWRcs5fLoS207" transform="matrix(.965785-.259344 0.259344 0.965785-99.643243 116.65124)" opacity="0"><path d="M408.568,362.103c2.163,1.051,3.988,2.688,5.267,4.725c1.28,2.037,1.962,4.391,1.969,6.796v63.414c.004,1.972-.45,3.919-1.325,5.687-.876,1.768-2.15,3.308-3.721,4.501-1.577,1.171-3.399,1.968-5.329,2.331s-3.917.282-5.811-.237c-5.224-1.381-10.676-1.671-16.016-.852-5.341.819-10.455,2.73-15.024,5.613-4.207,2.417-7.879,5.663-10.792,9.543-2.913,3.879-5.008,8.31-6.157,13.023-.8,4.817-.64,9.745.471,14.5c1.111,4.756,3.151,9.244,6.004,13.208c2.986,4.491,6.841,8.338,11.338,11.314c4.497,2.977,9.545,5.022,14.846,6.015c10.72,1.087,21.492-1.495,30.555-7.323c9.063-5.829,15.88-14.559,19.338-24.765c1.115-3.119,3.4-5.682,6.371-7.147s6.395-1.717,9.548-.703c3.154,1.014,5.789,3.215,7.349,6.137c1.561,2.922,1.923,6.336,1.012,9.521-5.389,15.945-16.1,29.55-30.335,38.531-14.234,8.981-31.125,12.791-47.837,10.791-8.704-1.521-17.011-4.785-24.423-9.595-7.412-4.811-13.776-11.069-18.709-18.399-4.868-6.818-8.306-14.551-10.106-22.733-1.8-8.181-1.925-16.643-.368-24.874c1.847-8.137,5.332-15.811,10.243-22.556c4.911-6.744,11.145-12.417,18.321-16.673c10.574-6.355,22.704-9.652,35.04-9.522v-48.75c0-3.367,1.331-6.598,3.703-8.988s5.593-3.745,8.96-3.771c1.942-.01,3.861.413,5.618,1.238Z" fill="#af1ee0"/><path d="M391.049,335.443c-.056-2.074.505-4.119,1.613-5.874c1.107-1.755,2.711-3.141,4.608-3.983s4.001-1.101,6.046-.745c2.044.356,3.937,1.312,5.438,2.745c1.5,1.434,2.541,3.281,2.99,5.307s.286,4.14-.468,6.073c-.754,1.934-2.066,3.599-3.769,4.786-1.702,1.187-3.719,1.841-5.794,1.879-2.762.051-5.432-.99-7.429-2.899-1.998-1.908-3.16-4.528-3.235-7.289Z" fill="#af1ee0"/></g><path d="M686.311,486.264v-4.761c0-3.237,0-7.903,0-13.996c0-3.143,0-6.57,0-10.284c0-3.713-.571-7.998-.857-12.473s-.762-9.521-1.143-14.473c-.167-2.655-.517-5.295-1.047-7.902l-1.523-8.379c-4.668-28-13.561-55.128-26.375-80.457-16.707-33.676-39.721-63.833-67.793-88.836l-11.045-10.379c-4.19-3.237-8.665-6.284-13.045-9.521l-6.665-4.761c-2.205-1.687-4.528-3.214-6.951-4.57L535.3,206.998l-7.427-4.285-8.474-3.618-15.997-7.237c-5.427-2.285-11.14-3.903-16.853-5.998l-8.569-2.857c-1.428,0-2.856-1.047-4.38-1.428l-4.38-1.047c-12.049-3.206-24.294-5.624-36.658-7.236-6.284-.667-12.568-1.81-19.043-2.19h-19.043c-3.237,0-6.57,0-9.521,0l-9.522.761c-6.57.572-13.235.857-19.9,1.619-13.428,1.96-26.721,4.758-39.8,8.379l-9.521,2.856-5.047,1.429-4.856,1.904-19.043,7.617c-6.474,2.857-12.663,6.284-19.043,9.522-3.142,1.714-6.474,3.047-9.521,5.046l-9.522,5.713c-12.333,7.74-24.134,16.297-35.325,25.613l-17.71,14.377-3.999,3.809-3.713,4.189-7.427,8.475-7.427,8.474-5.998,8.76-6.665,9.521-3.333,4.57-2.856,4.952c-3.809,6.569-7.713,13.139-11.521,19.804-3.809,6.665-6.38,13.997-9.522,20.948-24.7818,58.229-29.8311,122.968-14.377,184.336c1.999,7.427,4.094,14.854,6.189,22.281l8.283,21.328l2.095,5.332l2.571,5.046l5.142,10.188l4.951,10.188l5.998,9.522l5.999,9.521l3.047,4.666l3.427,4.475l13.521,17.52c9.639,10.909,19.976,21.182,30.945,30.754l8.093,7.046c2.666,2.381,5.713,4.285,8.57,6.475c5.808,4.094,11.425,8.379,17.329,12.283l18.186,10.569l4.57,2.57c1.518.808,3.075,1.539,4.666,2.19l9.521,4.38c12.359,5.642,25.083,10.445,38.086,14.378c6.38,1.904,12.95,3.142,19.043,4.76l9.522,2.286c3.142.666,6.475.857,9.521,1.333l19.043,2.57c6.38.572,12.759,0,19.044.762c12.427.342,24.864-.135,37.229-1.428h4.57l4.57-.762l8.855-1.523c5.904-1.143,11.902-1.809,17.615-3.238l16.949-4.76l8.283-2.286l7.998-3.046l15.806-6.094c2.586-.999,5.099-2.176,7.522-3.523l7.332-3.618c4.856-2.571,9.521-4.856,14.377-7.427l13.425-8.379c31.868-20.404,59.481-46.789,81.314-77.696c2.476-3.427,4.856-6.665,7.141-9.521l5.904-10.093l5.808-9.521c.857-1.619,1.904-3.143,2.666-4.761l2.285-4.856l8.474-18.567c2.571-5.904,4.285-11.902,6.284-17.329.953-2.762,1.905-5.428,2.762-8.094.979-2.468,1.743-5.017,2.285-7.617c1.238-5.046,2.285-9.521,3.332-14.092c1.048-4.57,2.095-8.379,2.857-12.187.762-3.809.952-7.141,1.333-10.188.857-5.999,1.523-10.664,1.904-13.807.381-3.142.762-4.76.762-4.76s0,1.618,0,4.76c0,3.143-.952,7.808-1.619,13.902c0,3.047-.857,6.474-1.238,10.283-.38,3.809-1.713,7.713-2.666,12.092-.952,4.38-2.094,9.522-3.332,14.188-.508,2.628-1.241,5.208-2.19,7.712l-2.761,8.093c-1.905,5.523-3.618,11.521-6.094,17.52l-8.474,19.043c-.762,1.619-1.524,3.237-2.19,4.856-.667,1.619-1.809,3.237-2.761,4.856-1.81,3.237-3.714,6.475-5.713,9.521l-6.38,9.046-7.046,9.521c-21.762,30.947-49.271,57.421-81.028,77.982l-13.425,8.474c-4.761,2.666-9.522,4.951-14.473,7.522l-7.427,3.713c-2.448,1.335-4.994,2.481-7.617,3.428l-15.806,6.189c-2.666,1.047-5.332,2.19-8.093,3.142l-8.379,2.38-17.043,4.761c-5.713,1.428-11.712,2.19-17.71,3.333l-9.141,2.856-4.57.762h-4.571c-12.644,1.394-25.371,1.904-38.086,1.523-6.379,0-12.759,0-19.043-.761l-19.043-2.476c-3.237,0-6.57-.666-9.521-1.333l-9.522-2.285c-6.475-1.619-13.044-2.857-19.614-4.761-12.997-3.992-25.719-8.826-38.086-14.473l-9.522-4.38-4.761-2.19-4.475-2.666L233.753,712.4c-5.999-3.808-11.616-8.188-17.52-12.378-3.011-1.988-5.904-4.15-8.664-6.474l-8.189-7.142c-11.086-9.609-21.519-19.947-31.23-30.945l-13.711-17.71-3.428-4.38-2.952-4.76-6.094-9.522-6.093-9.521-5.142-10.188-5.142-10.188-2.666-5.142-2.094-5.427c-2.762-7.141-5.523-14.283-8.379-21.519l-6.284-22.471c-7.3516-30.814-10.0475-62.555-7.9986-94.168c2.8626-31.577,10.4366-62.548,22.4706-91.882c3.301-7.046,6.475-14.092,9.522-21.138s6.95-13.711,11.711-19.995l2.857-4.951l3.427-4.666l6.666-9.521l6.665-9.522l7.522-8.569l7.426-8.475c1.238-1.428,2.476-2.856,3.809-4.189l4.094-3.904l16.282-15.234c11.367-9.101,23.327-17.435,35.801-24.947l9.521-5.808c3.047-1.904,6.38-3.332,9.522-5.046c6.475-3.142,12.759-6.57,19.043-9.522l19.71-7.617l4.951-1.904l5.046-1.524l10.093-2.761c13.197-3.666,26.619-6.465,40.181-8.379c6.665-.857,13.425-1.142,20.09-1.618l9.522-.762c3.332,0,6.57,0,9.521,0l19.043.571c6.475.476,12.854,1.524,19.043,2.285c12.467,1.6,24.811,4.05,36.944,7.332l4.475,1.047c1.523,0,2.952.952,4.38,1.428l8.664,2.952c5.618,2.095,11.426,3.713,16.949,6.094l16.091,7.331l7.903,3.619l7.427,4.379l14.758,8.57c2.43,1.345,4.753,2.872,6.951,4.57l6.665,4.856c4.475,3.238,8.95,6.284,13.14,9.522l11.997,10.473c28.194,25.233,51.274,55.651,67.983,89.598c12.697,25.512,21.461,52.799,25.994,80.933l1.428,8.474c.577,2.599.927,5.243,1.048,7.903c0,5.237.666,9.521.952,14.568.286,5.046.762,8.569.762,12.378c0,3.808,0,7.236,0,10.378c0,6.094,0,10.76,0,13.997s.095,4.475.095,4.475Z" fill="#263238"/></g></g></g>
<script><![CDATA[
!function(t,n){"object"==typeof exports&&"undefined"!=typeof module?module.exports=n():"function"==typeof __SVGATOR_DEFINE__&&__SVGATOR_DEFINE__.amd?__SVGATOR_DEFINE__(n):((t="undefined"!=typeof globalThis?globalThis:t||self).__SVGATOR_PLAYER__=t.__SVGATOR_PLAYER__||{},t.__SVGATOR_PLAYER__["5c7f360c"]=n())}(this,(function(){"use strict";function t(t,n){var e=Object.keys(t);if(Object.getOwnPropertySymbols){var r=Object.getOwnPropertySymbols(t);n&&(r=r.filter((function(n){return Object.getOwnPropertyDescriptor(t,n).enumerable}))),e.push.apply(e,r)}return e}function n(n){for(var e=1;e<arguments.length;e++){var r=null!=arguments[e]?arguments[e]:{};e%2?t(Object(r),!0).forEach((function(t){u(n,t,r[t])})):Object.getOwnPropertyDescriptors?Object.defineProperties(n,Object.getOwnPropertyDescriptors(r)):t(Object(r)).forEach((function(t){Object.defineProperty(n,t,Object.getOwnPropertyDescriptor(r,t))}))}return n}function e(t){return(e="function"==typeof Symbol&&"symbol"==typeof Symbol.iterator?function(t){return typeof t}:function(t){return t&&"function"==typeof Symbol&&t.constructor===Symbol&&t!==Symbol.prototype?"symbol":typeof t})(t)}function r(t,n){if(!(t instanceof n))throw new TypeError("Cannot call a class as a function")}function i(t,n){for(var e=0;e<n.length;e++){var r=n[e];r.enumerable=r.enumerable||!1,r.configurable=!0,"value"in r&&(r.writable=!0),Object.defineProperty(t,r.key,r)}}function o(t,n,e){return n&&i(t.prototype,n),e&&i(t,e),t}function u(t,n,e){return n in t?Object.defineProperty(t,n,{value:e,enumerable:!0,configurable:!0,writable:!0}):t[n]=e,t}function a(t){return(a=Object.setPrototypeOf?Object.getPrototypeOf:function(t){return t.__proto__||Object.getPrototypeOf(t)})(t)}function l(t,n){return(l=Object.setPrototypeOf||function(t,n){return t.__proto__=n,t})(t,n)}function s(){if("undefined"==typeof Reflect||!Reflect.construct)return!1;if(Reflect.construct.sham)return!1;if("function"==typeof Proxy)return!0;try{return Boolean.prototype.valueOf.call(Reflect.construct(Boolean,[],(function(){}))),!0}catch(t){return!1}}function f(t,n,e){return(f=s()?Reflect.construct:function(t,n,e){var r=[null];r.push.apply(r,n);var i=new(Function.bind.apply(t,r));return e&&l(i,e.prototype),i}).apply(null,arguments)}function c(t,n){if(n&&("object"==typeof n||"function"==typeof n))return n;if(void 0!==n)throw new TypeError("Derived constructors may only return object or undefined");return function(t){if(void 0===t)throw new ReferenceError("this hasn't been initialised - super() hasn't been called");return t}(t)}function h(t,n,e){return(h="undefined"!=typeof Reflect&&Reflect.get?Reflect.get:function(t,n,e){var r=function(t,n){for(;!Object.prototype.hasOwnProperty.call(t,n)&&null!==(t=a(t)););return t}(t,n);if(r){var i=Object.getOwnPropertyDescriptor(r,n);return i.get?i.get.call(e):i.value}})(t,n,e||t)}function v(t){return function(t){if(Array.isArray(t))return y(t)}(t)||function(t){if("undefined"!=typeof Symbol&&null!=t[Symbol.iterator]||null!=t["@@iterator"])return Array.from(t)}(t)||function(t,n){if(!t)return;if("string"==typeof t)return y(t,n);var e=Object.prototype.toString.call(t).slice(8,-1);"Object"===e&&t.constructor&&(e=t.constructor.name);if("Map"===e||"Set"===e)return Array.from(t);if("Arguments"===e||/^(?:Ui|I)nt(?:8|16|32)(?:Clamped)?Array$/.test(e))return y(t,n)}(t)||function(){throw new TypeError("Invalid attempt to spread non-iterable instance.\nIn order to be iterable, non-array objects must have a [Symbol.iterator]() method.")}()}function y(t,n){(null==n||n>t.length)&&(n=t.length);for(var e=0,r=new Array(n);e<n;e++)r[e]=t[e];return r}function g(t,n,e){if(Number.isInteger(t))return t;var r=Math.pow(10,n);return Math[e]((+t+Number.EPSILON)*r)/r}Number.isInteger||(Number.isInteger=function(t){return"number"==typeof t&&isFinite(t)&&Math.floor(t)===t}),Number.EPSILON||(Number.EPSILON=2220446049250313e-31);var d=p(Math.pow(10,-6));function p(t){var n=arguments.length>1&&void 0!==arguments[1]?arguments[1]:6;return g(t,n,"round")}function m(t,n){var e=arguments.length>2&&void 0!==arguments[2]?arguments[2]:d;return Math.abs(t-n)<e}p(Math.pow(10,-2)),p(Math.pow(10,-4));var b=Math.PI/180;function w(t){return t}function A(t,n,e){var r=1-e;return 3*e*r*(t*r+n*e)+e*e*e}function _(){var t=arguments.length>0&&void 0!==arguments[0]?arguments[0]:0,n=arguments.length>1&&void 0!==arguments[1]?arguments[1]:0,e=arguments.length>2&&void 0!==arguments[2]?arguments[2]:1,r=arguments.length>3&&void 0!==arguments[3]?arguments[3]:1;return t<0||t>1||e<0||e>1?null:m(t,n)&&m(e,r)?w:function(i){if(i<=0)return t>0?i*n/t:0===n&&e>0?i*r/e:0;if(i>=1)return e<1?1+(i-1)*(r-1)/(e-1):1===e&&t<1?1+(i-1)*(n-1)/(t-1):1;for(var o,u=0,a=1;u<a;){var l=A(t,e,o=(u+a)/2);if(m(i,l))break;l<i?u=o:a=o}return A(n,r,o)}}function x(){return 1}function k(t){return 1===t?1:0}function S(){var t=arguments.length>0&&void 0!==arguments[0]?arguments[0]:1,n=arguments.length>1&&void 0!==arguments[1]?arguments[1]:0;if(1===t){if(0===n)return k;if(1===n)return x}var e=1/t;return function(t){return t>=1?1:(t+=n*e)-t%e}}var O=Math.sin,j=Math.cos,M=Math.acos,E=Math.asin,P=Math.tan,I=Math.atan2,R=Math.PI/180,F=180/Math.PI,N=Math.sqrt,T=function(){function t(){var n=arguments.length>0&&void 0!==arguments[0]?arguments[0]:1,e=arguments.length>1&&void 0!==arguments[1]?arguments[1]:0,i=arguments.length>2&&void 0!==arguments[2]?arguments[2]:0,o=arguments.length>3&&void 0!==arguments[3]?arguments[3]:1,u=arguments.length>4&&void 0!==arguments[4]?arguments[4]:0,a=arguments.length>5&&void 0!==arguments[5]?arguments[5]:0;r(this,t),this.m=[n,e,i,o,u,a],this.i=null,this.w=null,this.s=null}return o(t,[{key:"determinant",get:function(){var t=this.m;return t[0]*t[3]-t[1]*t[2]}},{key:"isIdentity",get:function(){if(null===this.i){var t=this.m;this.i=1===t[0]&&0===t[1]&&0===t[2]&&1===t[3]&&0===t[4]&&0===t[5]}return this.i}},{key:"point",value:function(t,n){var e=this.m;return{x:e[0]*t+e[2]*n+e[4],y:e[1]*t+e[3]*n+e[5]}}},{key:"translateSelf",value:function(){var t=arguments.length>0&&void 0!==arguments[0]?arguments[0]:0,n=arguments.length>1&&void 0!==arguments[1]?arguments[1]:0;if(!t&&!n)return this;var e=this.m;return e[4]+=e[0]*t+e[2]*n,e[5]+=e[1]*t+e[3]*n,this.w=this.s=this.i=null,this}},{key:"rotateSelf",value:function(){var t=arguments.length>0&&void 0!==arguments[0]?arguments[0]:0;if(t%=360){var n=O(t*=R),e=j(t),r=this.m,i=r[0],o=r[1];r[0]=i*e+r[2]*n,r[1]=o*e+r[3]*n,r[2]=r[2]*e-i*n,r[3]=r[3]*e-o*n,this.w=this.s=this.i=null}return this}},{key:"scaleSelf",value:function(){var t=arguments.length>0&&void 0!==arguments[0]?arguments[0]:1,n=arguments.length>1&&void 0!==arguments[1]?arguments[1]:1;if(1!==t||1!==n){var e=this.m;e[0]*=t,e[1]*=t,e[2]*=n,e[3]*=n,this.w=this.s=this.i=null}return this}},{key:"skewSelf",value:function(t,n){if(n%=360,(t%=360)||n){var e=this.m,r=e[0],i=e[1],o=e[2],u=e[3];t&&(t=P(t*R),e[2]+=r*t,e[3]+=i*t),n&&(n=P(n*R),e[0]+=o*n,e[1]+=u*n),this.w=this.s=this.i=null}return this}},{key:"resetSelf",value:function(){var t=arguments.length>0&&void 0!==arguments[0]?arguments[0]:1,n=arguments.length>1&&void 0!==arguments[1]?arguments[1]:0,e=arguments.length>2&&void 0!==arguments[2]?arguments[2]:0,r=arguments.length>3&&void 0!==arguments[3]?arguments[3]:1,i=arguments.length>4&&void 0!==arguments[4]?arguments[4]:0,o=arguments.length>5&&void 0!==arguments[5]?arguments[5]:0,u=this.m;return u[0]=t,u[1]=n,u[2]=e,u[3]=r,u[4]=i,u[5]=o,this.w=this.s=this.i=null,this}},{key:"recomposeSelf",value:function(){var t=arguments.length>0&&void 0!==arguments[0]?arguments[0]:null,n=arguments.length>1&&void 0!==arguments[1]?arguments[1]:null,e=arguments.length>2&&void 0!==arguments[2]?arguments[2]:null,r=arguments.length>3&&void 0!==arguments[3]?arguments[3]:null,i=arguments.length>4&&void 0!==arguments[4]?arguments[4]:null;return this.isIdentity||this.resetSelf(),t&&(t.x||t.y)&&this.translateSelf(t.x,t.y),n&&this.rotateSelf(n),e&&(e.x&&this.skewSelf(e.x,0),e.y&&this.skewSelf(0,e.y)),!r||1===r.x&&1===r.y||this.scaleSelf(r.x,r.y),i&&(i.x||i.y)&&this.translateSelf(i.x,i.y),this}},{key:"decompose",value:function(){var t=arguments.length>0&&void 0!==arguments[0]?arguments[0]:0,n=arguments.length>1&&void 0!==arguments[1]?arguments[1]:0,e=this.m,r=e[0]*e[0]+e[1]*e[1],i=[[e[0],e[1]],[e[2],e[3]]],o=N(r);if(0===o)return{origin:{x:p(e[4]),y:p(e[5])},translate:{x:p(t),y:p(n)},scale:{x:0,y:0},skew:{x:0,y:0},rotate:0};i[0][0]/=o,i[0][1]/=o;var u=e[0]*e[3]-e[1]*e[2]<0;u&&(o=-o);var a=i[0][0]*i[1][0]+i[0][1]*i[1][1];i[1][0]-=i[0][0]*a,i[1][1]-=i[0][1]*a;var l=N(i[1][0]*i[1][0]+i[1][1]*i[1][1]);if(0===l)return{origin:{x:p(e[4]),y:p(e[5])},translate:{x:p(t),y:p(n)},scale:{x:p(o),y:0},skew:{x:0,y:0},rotate:0};i[1][0]/=l,i[1][1]/=l,a/=l;var s=0;return i[1][1]<0?(s=M(i[1][1])*F,i[0][1]<0&&(s=360-s)):s=E(i[0][1])*F,u&&(s=-s),a=I(a,N(i[0][0]*i[0][0]+i[0][1]*i[0][1]))*F,u&&(a=-a),{origin:{x:p(e[4]),y:p(e[5])},translate:{x:p(t),y:p(n)},scale:{x:p(o),y:p(l)},skew:{x:p(a),y:0},rotate:p(s)}}},{key:"clone",value:function(){var t=this.m;return new this.constructor(t[0],t[1],t[2],t[3],t[4],t[5])}},{key:"toString",value:function(){var t=arguments.length>0&&void 0!==arguments[0]?arguments[0]:" ";if(null===this.s){var n=this.m.map((function(t){return p(t)}));1===n[0]&&0===n[1]&&0===n[2]&&1===n[3]?this.s="translate("+n[4]+t+n[5]+")":this.s="matrix("+n.join(t)+")"}return this.s}}],[{key:"create",value:function(t){return t?Array.isArray(t)?f(this,v(t)):t instanceof this?t.clone():(new this).recomposeSelf(t.origin,t.rotate,t.skew,t.scale,t.translate):new this}}]),t}();function q(t,n,e){return t>=.5?e:n}function B(t,n,e){return 0===t||n===e?n:t*(e-n)+n}function D(t,n,e){var r=B(t,n,e);return r<=0?0:r}function L(t,n,e){var r=B(t,n,e);return r<=0?0:r>=1?1:r}function C(t,n,e){return 0===t?n:1===t?e:{x:B(t,n.x,e.x),y:B(t,n.y,e.y)}}function V(t,n,e){var r=function(t,n,e){return Math.round(B(t,n,e))}(t,n,e);return r<=0?0:r>=255?255:r}function G(t,n,e){return 0===t?n:1===t?e:{r:V(t,n.r,e.r),g:V(t,n.g,e.g),b:V(t,n.b,e.b),a:B(t,null==n.a?1:n.a,null==e.a?1:e.a)}}function z(t,n){for(var e=[],r=0;r<t;r++)e.push(n);return e}function Y(t,n){if(--n<=0)return t;var e=(t=Object.assign([],t)).length;do{for(var r=0;r<e;r++)t.push(t[r])}while(--n>0);return t}var $,U=function(){function t(n){r(this,t),this.list=n,this.length=n.length}return o(t,[{key:"setAttribute",value:function(t,n){for(var e=this.list,r=0;r<this.length;r++)e[r].setAttribute(t,n)}},{key:"removeAttribute",value:function(t){for(var n=this.list,e=0;e<this.length;e++)n[e].removeAttribute(t)}},{key:"style",value:function(t,n){for(var e=this.list,r=0;r<this.length;r++)e[r].style[t]=n}}]),t}(),Q=/-./g,H=function(t,n){return n.toUpperCase()};function J(t){return"function"==typeof t?t:q}function Z(t){return t?"function"==typeof t?t:Array.isArray(t)?function(t){var n=arguments.length>1&&void 0!==arguments[1]?arguments[1]:w;if(!Array.isArray(t))return n;switch(t.length){case 1:return S(t[0])||n;case 2:return S(t[0],t[1])||n;case 4:return _(t[0],t[1],t[2],t[3])||n}return n}(t,null):function(t,n){var e=arguments.length>2&&void 0!==arguments[2]?arguments[2]:w;switch(t){case"linear":return w;case"steps":return S(n.steps||1,n.jump||0)||e;case"bezier":case"cubic-bezier":return _(n.x1||0,n.y1||0,n.x2||0,n.y2||0)||e}return e}(t.type,t.value,null):null}function K(t,n,e){var r=arguments.length>3&&void 0!==arguments[3]&&arguments[3],i=n.length-1;if(t<=n[0].t)return r?[0,0,n[0].v]:n[0].v;if(t>=n[i].t)return r?[i,1,n[i].v]:n[i].v;var o,u=n[0],a=null;for(o=1;o<=i;o++){if(!(t>n[o].t)){a=n[o];break}u=n[o]}return null==a?r?[i,1,n[i].v]:n[i].v:u.t===a.t?r?[o,1,a.v]:a.v:(t=(t-u.t)/(a.t-u.t),u.e&&(t=u.e(t)),r?[o,t,e(t,u.v,a.v)]:e(t,u.v,a.v))}function W(t,n){var e=arguments.length>2&&void 0!==arguments[2]?arguments[2]:null;return t&&t.length?"function"!=typeof n?null:("function"!=typeof e&&(e=null),function(r){var i=K(r,t,n);return null!=i&&e&&(i=e(i)),i}):null}function X(t,n){return t.t-n.t}function tt(t,n,r,i,o){var u,a="@"===r[0],l="#"===r[0],s=$[r],f=q;switch(a?(u=r.substr(1),r=u.replace(Q,H)):l&&(r=r.substr(1)),e(s)){case"function":if(f=s(i,o,K,Z,r,a,n,t),l)return f;break;case"string":f=W(i,J(s));break;case"object":if((f=W(i,J(s.i),s.f))&&"function"==typeof s.u)return s.u(n,f,r,a,t)}return f?function(t,n,e){if(arguments.length>3&&void 0!==arguments[3]&&arguments[3])return t instanceof U?function(r){return t.style(n,e(r))}:function(r){return t.style[n]=e(r)};if(Array.isArray(n)){var r=n.length;return function(i){var o=e(i);if(null==o)for(var u=0;u<r;u++)t[u].removeAttribute(n);else for(var a=0;a<r;a++)t[a].setAttribute(n,o)}}return function(r){var i=e(r);null==i?t.removeAttribute(n):t.setAttribute(n,i)}}(n,r,f,a):null}function nt(t,n,r,i){if(!i||"object"!==e(i))return null;var o=null,u=null;return Array.isArray(i)?u=function(t){if(!t||!t.length)return null;for(var n=0;n<t.length;n++)t[n].e&&(t[n].e=Z(t[n].e));return t.sort(X)}(i):(u=i.keys,o=i.data||null),u?tt(t,n,r,u,o):null}function et(t,n,e){if(!e)return null;var r=[];for(var i in e)if(e.hasOwnProperty(i)){var o=nt(t,n,i,e[i]);o&&r.push(o)}return r.length?r:null}function rt(t,n){if(!n.settings.duration||n.settings.duration<0)return null;var e,r,i,o,u,a=function(t,n){if(!n)return null;var e=[];if(Array.isArray(n))for(var r=n.length,i=0;i<r;i++){var o=n[i];if(2===o.length){var u=null;if("string"==typeof o[0])u=t.getElementById(o[0]);else if(Array.isArray(o[0])){u=[];for(var a=0;a<o[0].length;a++)if("string"==typeof o[0][a]){var l=t.getElementById(o[0][a]);l&&u.push(l)}u=u.length?1===u.length?u[0]:new U(u):null}if(u){var s=et(t,u,o[1]);s&&(e=e.concat(s))}}}else for(var f in n)if(n.hasOwnProperty(f)){var c=t.getElementById(f);if(c){var h=et(t,c,n[f]);h&&(e=e.concat(h))}}return e.length?e:null}(t,n.elements);return a?(e=a,r=n.settings,i=r.duration,o=e.length,u=null,function(t,n){var a=r.iterations||1/0,l=(r.alternate&&a%2==0)^r.direction>0?i:0,s=t%i,f=1+(t-s)/i;n*=r.direction,r.alternate&&f%2==0&&(n=-n);var c=!1;if(f>a)s=l,c=!0,-1===r.fill&&(s=r.direction>0?0:i);else if(n<0&&(s=i-s),s===u)return!1;u=s;for(var h=0;h<o;h++)e[h](s);return c}):null}function it(t,n){for(var e=n.querySelectorAll("svg"),r=0;r<e.length;r++)if(e[r].id===t.root&&!e[r].svgatorAnimation)return e[r].svgatorAnimation=!0,e[r];return null}function ot(t){var n=function(t){return t.shadowRoot};return document?Array.from(t.querySelectorAll(":not("+["a","area","audio","br","canvas","circle","datalist","embed","g","head","hr","iframe","img","input","link","object","path","polygon","rect","script","source","style","svg","title","track","video"].join()+")")).filter(n).map(n):[]}function ut(t){var n=arguments.length>1&&void 0!==arguments[1]?arguments[1]:document,e=arguments.length>2&&void 0!==arguments[2]?arguments[2]:0,r=it(t,n);if(r)return r;if(e>=20)return null;for(var i=ot(n),o=0;o<i.length;o++){var u=ut(t,i[o],e+1);if(u)return u}return null}function at(t,n){if($=n,!t||!t.root||!Array.isArray(t.animations))return null;var e=ut(t);if(!e)return null;var r=t.animations.map((function(t){return rt(e,t)})).filter((function(t){return!!t}));return r.length?{svg:e,animations:r,animationSettings:t.animationSettings,options:t.options||void 0}:null}function lt(t){var n=arguments.length>1&&void 0!==arguments[1]?arguments[1]:null,e=arguments.length>2&&void 0!==arguments[2]?arguments[2]:Number,r=arguments.length>3&&void 0!==arguments[3]?arguments[3]:"undefined"!=typeof BigInt&&BigInt,i="0x"+(t.replace(/[^0-9a-fA-F]+/g,"")||27);return n&&r&&e.isSafeInteger&&!e.isSafeInteger(+i)?e(r(i))%n+n:+i}function st(t,n,e){return!t||!e||n>t.length?t:t.substring(0,n)+st(t.substring(n+1),e,e)}function ft(t){var n=arguments.length>1&&void 0!==arguments[1]?arguments[1]:27;return!t||t%n?t%n:[0,1].includes(n)?n:ft(t/n,n)}function ct(t,n,e){if(t&&t.length){var r=lt(e),i=ft(r)+5,o=st(t,ft(r,5),i);return o=o.replace(/\x7c$/g,"==").replace(/\x2f$/g,"="),o=function(t,n,e){var r=+("0x"+t.substring(0,4));t=t.substring(4);for(var i=lt(n,r)%r+e%27,o=[],u=0;u<t.length;u+=2)if("|"!==t[u]){var a=+("0x"+t[u]+t[u+1])-i;o.push(a)}else{var l=+("0x"+t.substring(u+1,u+1+4))-i;u+=3,o.push(l)}return String.fromCharCode.apply(String,o)}(o=(o=atob(o)).replace(/[\x41-\x5A]/g,""),n,r),o=JSON.parse(o)}}var ht=[{key:"alternate",def:!1},{key:"fill",def:1},{key:"iterations",def:0},{key:"direction",def:1},{key:"speed",def:1},{key:"fps",def:100}],vt=function(){function t(n,e){var i=this,o=arguments.length>2&&void 0!==arguments[2]?arguments[2]:null;r(this,t),this._id=0,this._running=!1,this._rollingBack=!1,this._animations=n,this._settings=e,(!o||o<"2022-05-02")&&delete this._settings.speed,ht.forEach((function(t){i._settings[t.key]=i._settings[t.key]||t.def})),this.duration=e.duration,this.offset=e.offset||0,this.rollbackStartOffset=0}return o(t,[{key:"alternate",get:function(){return this._settings.alternate}},{key:"fill",get:function(){return this._settings.fill}},{key:"iterations",get:function(){return this._settings.iterations}},{key:"direction",get:function(){return this._settings.direction}},{key:"speed",get:function(){return this._settings.speed}},{key:"fps",get:function(){return this._settings.fps}},{key:"maxFiniteDuration",get:function(){return this.iterations>0?this.iterations*this.duration:this.duration}},{key:"_apply",value:function(t){for(var n=arguments.length>1&&void 0!==arguments[1]?arguments[1]:{},e=this._animations,r=e.length,i=0,o=0;o<r;o++)n[o]?i++:(n[o]=e[o](t,1),n[o]&&i++);return i}},{key:"_rollback",value:function(t){var n=this,e=1/0,r=null;this.rollbackStartOffset=t,this._rollingBack=!0,this._running=!0;this._id=window.requestAnimationFrame((function i(o){if(n._rollingBack){null==r&&(r=o);var u=Math.round(t-(o-r)*n.speed);if(u>n.duration&&e!==1/0){var a=!!n.alternate&&u/n.duration%2>1,l=u%n.duration;u=(l+=a?n.duration:0)||n.duration}var s=(n.fps?1e3/n.fps:0)*n.speed,f=Math.max(0,u);f<=e-s&&(n.offset=f,e=f,n._apply(f));var c=n.iterations>0&&-1===n.fill&&u>=n.maxFiniteDuration;(u<=0||n.offset<u||c)&&n.stop(),n._id=window.requestAnimationFrame(i)}}))}},{key:"_start",value:function(){var t=this,n=arguments.length>0&&void 0!==arguments[0]?arguments[0]:0,e=-1/0,r=null,i={};this._running=!0;var o=function o(u){null==r&&(r=u);var a=Math.round((u-r)*t.speed+n),l=(t.fps?1e3/t.fps:0)*t.speed;if(a>=e+l&&!t._rollingBack&&(t.offset=a,e=a,t._apply(a,i)===t._animations.length))return void t.pause(!0);t._id=window.requestAnimationFrame(o)};this._id=window.requestAnimationFrame(o)}},{key:"_pause",value:function(){this._id&&window.cancelAnimationFrame(this._id),this._running=!1}},{key:"play",value:function(){if(!this._running)return this._rollingBack?this._rollback(this.offset):this._start(this.offset)}},{key:"stop",value:function(){this._pause(),this.offset=0,this.rollbackStartOffset=0,this._rollingBack=!1,this._apply(0)}},{key:"reachedToEnd",value:function(){return this.iterations>0&&this.offset>=this.iterations*this.duration}},{key:"restart",value:function(){var t=arguments.length>0&&void 0!==arguments[0]&&arguments[0];this.stop(t),this.play(t)}},{key:"pause",value:function(){this._pause()}},{key:"reverse",value:function(){this.direction=-this.direction}}],[{key:"build",value:function(t,n){delete t.animationSettings,t.options=ct(t.options,t.root,"5c7f360c"),t.animations.map((function(n){n.settings=ct(n.s,t.root,"5c7f360c"),delete n.s,t.animationSettings||(t.animationSettings=n.settings)}));var e=t.version;if(!(t=at(t,n)))return null;var r=t.options||{},i=new this(t.animations,t.animationSettings,e);return{el:t.svg,options:r,player:i}}},{key:"push",value:function(t){return this.build(t)}},{key:"init",value:function(){var t=this,n=window.__SVGATOR_PLAYER__&&window.__SVGATOR_PLAYER__["5c7f360c"];Array.isArray(n)&&n.splice(0).forEach((function(n){return t.build(n)}))}}]),t}();function yt(t){return p(t)+""}function gt(t){var n=arguments.length>1&&void 0!==arguments[1]?arguments[1]:" ";return t&&t.length?t.map(yt).join(n):""}function dt(t){if(!t)return"transparent";if(null==t.a||t.a>=1){var n=function(t){return 1===(t=parseInt(t).toString(16)).length?"0"+t:t},e=function(t){return t.charAt(0)===t.charAt(1)},r=n(t.r),i=n(t.g),o=n(t.b);return e(r)&&e(i)&&e(o)&&(r=r.charAt(0),i=i.charAt(0),o=o.charAt(0)),"#"+r+i+o}return"rgba("+t.r+","+t.g+","+t.b+","+t.a+")"}function pt(t){return t?"url(#"+t+")":"none"}!function(){for(var t=0,n=["ms","moz","webkit","o"],e=0;e<n.length&&!window.requestAnimationFrame;++e)window.requestAnimationFrame=window[n[e]+"RequestAnimationFrame"],window.cancelAnimationFrame=window[n[e]+"CancelAnimationFrame"]||window[n[e]+"CancelRequestAnimationFrame"];window.requestAnimationFrame||(window.requestAnimationFrame=function(n){var e=Date.now(),r=Math.max(0,16-(e-t)),i=window.setTimeout((function(){n(e+r)}),r);return t=e+r,i},window.cancelAnimationFrame=window.clearTimeout)}();var mt={f:null,i:function(t,n,e){return 0===t?n:1===t?e:{x:D(t,n.x,e.x),y:D(t,n.y,e.y)}},u:function(t,n){return function(e){var r=n(e);t.setAttribute("rx",yt(r.x)),t.setAttribute("ry",yt(r.y))}}},bt={f:null,i:function(t,n,e){return 0===t?n:1===t?e:{width:D(t,n.width,e.width),height:D(t,n.height,e.height)}},u:function(t,n){return function(e){var r=n(e);t.setAttribute("width",yt(r.width)),t.setAttribute("height",yt(r.height))}}};Object.freeze({M:2,L:2,Z:0,H:1,V:1,C:6,Q:4,T:2,S:4,A:7});var wt={},At=null;function _t(t){var n=function(){if(At)return At;if("object"!==("undefined"==typeof document?"undefined":e(document))||!document.createElementNS)return{};var t=document.createElementNS("http://www.w3.org/2000/svg","svg");return t&&t.style?(t.style.position="absolute",t.style.opacity="0.01",t.style.zIndex="-9999",t.style.left="-9999px",t.style.width="1px",t.style.height="1px",At={svg:t}):{}}().svg;if(!n)return function(t){return null};var r=document.createElementNS(n.namespaceURI,"path");r.setAttributeNS(null,"d",t),r.setAttributeNS(null,"fill","none"),r.setAttributeNS(null,"stroke","none"),n.appendChild(r);var i=r.getTotalLength();return function(t){var n=r.getPointAtLength(i*t);return{x:n.x,y:n.y}}}function xt(t){return wt[t]?wt[t]:wt[t]=_t(t)}function kt(t,n,e,r){if(!t||!r)return!1;var i=["M",t.x,t.y];if(n&&e&&(i.push("C"),i.push(n.x),i.push(n.y),i.push(e.x),i.push(e.y)),n?!e:e){var o=n||e;i.push("Q"),i.push(o.x),i.push(o.y)}return n||e||i.push("L"),i.push(r.x),i.push(r.y),i.join(" ")}function St(t,n,e,r){var i=arguments.length>4&&void 0!==arguments[4]?arguments[4]:1,o=kt(t,n,e,r),u=xt(o);try{return u(i)}catch(t){return null}}function Ot(t,n,e){return t+(n-t)*e}function jt(t,n,e){var r=arguments.length>3&&void 0!==arguments[3]&&arguments[3],i={x:Ot(t.x,n.x,e),y:Ot(t.y,n.y,e)};return r&&(i.a=Mt(t,n)),i}function Mt(t,n){return Math.atan2(n.y-t.y,n.x-t.x)}function Et(t,n,e,r){var i=1-r;return i*i*t+2*i*r*n+r*r*e}function Pt(t,n,e,r){return 2*(1-r)*(n-t)+2*r*(e-n)}function It(t,n,e,r){var i=arguments.length>4&&void 0!==arguments[4]&&arguments[4],o=St(t,n,null,e,r);return o||(o={x:Et(t.x,n.x,e.x,r),y:Et(t.y,n.y,e.y,r)}),i&&(o.a=Rt(t,n,e,r)),o}function Rt(t,n,e,r){return Math.atan2(Pt(t.y,n.y,e.y,r),Pt(t.x,n.x,e.x,r))}function Ft(t,n,e,r,i){var o=i*i;return i*o*(r-t+3*(n-e))+3*o*(t+e-2*n)+3*i*(n-t)+t}function Nt(t,n,e,r,i){var o=1-i;return 3*(o*o*(n-t)+2*o*i*(e-n)+i*i*(r-e))}function Tt(t,n,e,r,i){var o=arguments.length>5&&void 0!==arguments[5]&&arguments[5],u=St(t,n,e,r,i);return u||(u={x:Ft(t.x,n.x,e.x,r.x,i),y:Ft(t.y,n.y,e.y,r.y,i)}),o&&(u.a=qt(t,n,e,r,i)),u}function qt(t,n,e,r,i){return Math.atan2(Nt(t.y,n.y,e.y,r.y,i),Nt(t.x,n.x,e.x,r.x,i))}function Bt(t,n,e){var r=arguments.length>3&&void 0!==arguments[3]&&arguments[3];if(Lt(n)){if(Ct(e))return It(n,e.start,e,t,r)}else if(Lt(e)){if(Vt(n))return It(n,n.end,e,t,r)}else{if(Vt(n))return Ct(e)?Tt(n,n.end,e.start,e,t,r):It(n,n.end,e,t,r);if(Ct(e))return It(n,e.start,e,t,r)}return jt(n,e,t,r)}function Dt(t,n,e){var r=Bt(t,n,e,!0);return r.a=function(t){return arguments.length>1&&void 0!==arguments[1]&&arguments[1]?t+Math.PI:t}(r.a)/b,r}function Lt(t){return!t.type||"corner"===t.type}function Ct(t){return null!=t.start&&!Lt(t)}function Vt(t){return null!=t.end&&!Lt(t)}var Gt=new T;var zt={f:yt,i:B},Yt={f:yt,i:L};function $t(t,n,e){return t.map((function(t){return function(t,n,e){var r=t.v;if(!r||"g"!==r.t||r.s||!r.v||!r.r)return t;var i=e.getElementById(r.r),o=i&&i.querySelectorAll("stop")||[];return r.s=r.v.map((function(t,n){var e=o[n]&&o[n].getAttribute("offset");return{c:t,o:e=p(parseInt(e)/100)}})),delete r.v,t}(t,0,e)}))}var Ut={gt:"gradientTransform",c:{x:"cx",y:"cy"},rd:"r",f:{x:"x1",y:"y1"},to:{x:"x2",y:"y2"}};function Qt(t,n,r,i,o,u,a,l){return $t(t,0,l),n=function(t,n,e){for(var r,i,o,u=t.length-1,a={},l=0;l<=u;l++)(r=t[l]).e&&(r.e=n(r.e)),r.v&&"g"===(i=r.v).t&&i.r&&(o=e.getElementById(i.r))&&(a[i.r]={e:o,s:o.querySelectorAll("stop")});return a}(t,i,l),function(i){var o=r(i,t,Ht);if(!o)return"none";if("c"===o.t)return dt(o.v);if("g"===o.t){if(!n[o.r])return pt(o.r);var u=n[o.r];return function(t,n){for(var e=t.s,r=e.length;r<n.length;r++){var i=e[e.length-1].cloneNode();i.id=Kt(i.id),t.e.appendChild(i),e=t.s=t.e.querySelectorAll("stop")}for(var o=0,u=e.length,a=n.length-1;o<u;o++)e[o].setAttribute("stop-color",dt(n[Math.min(o,a)].c)),e[o].setAttribute("offset",n[Math.min(o,a)].o)}(u,o.s),Object.keys(Ut).forEach((function(t){if(void 0!==o[t])if("object"!==e(Ut[t])){var n,r="gt"===t?(n=o[t],Array.isArray(n)?"matrix("+n.join(" ")+")":""):o[t],i=Ut[t];u.e.setAttribute(i,r)}else Object.keys(Ut[t]).forEach((function(n){if(void 0!==o[t][n]){var e=o[t][n],r=Ut[t][n];u.e.setAttribute(r,e)}}))})),pt(o.r)}return"none"}}function Ht(t,e,r){if(0===t)return e;if(1===t)return r;if(e&&r){var i=e.t;if(i===r.t)switch(e.t){case"c":return{t:i,v:G(t,e.v,r.v)};case"g":if(e.r===r.r){var o={t:i,s:Jt(t,e.s,r.s),r:e.r};return e.gt&&r.gt&&(o.gt=function(t,n,e){var r=n.length;if(r!==e.length)return q(t,n,e);for(var i=new Array(r),o=0;o<r;o++)i[o]=B(t,n[o],e[o]);return i}(t,e.gt,r.gt)),e.c?(o.c=C(t,e.c,r.c),o.rd=D(t,e.rd,r.rd)):e.f&&(o.f=C(t,e.f,r.f),o.to=C(t,e.to,r.to)),o}}if("c"===e.t&&"g"===r.t||"c"===r.t&&"g"===e.t){var u="c"===e.t?e:r,a="g"===e.t?n({},e):n({},r),l=a.s.map((function(t){return{c:u.v,o:t.o}}));return a.s="c"===e.t?Jt(t,l,a.s):Jt(t,a.s,l),a}}return q(t,e,r)}function Jt(t,n,e){if(n.length===e.length)return n.map((function(n,r){return Zt(t,n,e[r])}));for(var r=Math.max(n.length,e.length),i=[],o=0;o<r;o++){var u=Zt(t,n[Math.min(o,n.length-1)],e[Math.min(o,e.length-1)]);i.push(u)}return i}function Zt(t,n,e){return{o:L(t,n.o,e.o||0),c:G(t,n.c,e.c||{})}}function Kt(t){return t.replace(/-fill-([0-9]+)$/,(function(t,n){return"-fill-"+(+n+1)}))}var Wt={fill:Qt,"fill-opacity":Yt,stroke:Qt,"stroke-opacity":Yt,"stroke-width":zt,"stroke-dashoffset":{f:yt,i:B},"stroke-dasharray":{f:function(t){var n=arguments.length>1&&void 0!==arguments[1]?arguments[1]:" ";return t&&t.length>0&&(t=t.map((function(t){return p(t,4)}))),gt(t,n)},i:function(t,n,e){var r,i,o,u=n.length,a=e.length;if(u!==a)if(0===u)n=z(u=a,0);else if(0===a)a=u,e=z(u,0);else{var l=(o=(r=u)*(i=a)/function(t,n){for(var e;n;)e=n,n=t%n,t=e;return t||1}(r,i))<0?-o:o;n=Y(n,Math.floor(l/u)),e=Y(e,Math.floor(l/a)),u=a=l}for(var s=[],f=0;f<u;f++)s.push(p(D(t,n[f],e[f])));return s}},opacity:Yt,transform:function(t,n,r,i){if(!(t=function(t,n){if(!t||"object"!==e(t))return null;var r=!1;for(var i in t)t.hasOwnProperty(i)&&(t[i]&&t[i].length?(t[i].forEach((function(t){t.e&&(t.e=n(t.e))})),r=!0):delete t[i]);return r?t:null}(t,i)))return null;var o=function(e,i,o){var u=arguments.length>3&&void 0!==arguments[3]?arguments[3]:null;return t[e]?r(i,t[e],o):n&&n[e]?n[e]:u};return n&&n.a&&t.o?function(n){var e=r(n,t.o,Dt);return Gt.recomposeSelf(e,o("r",n,B,0)+e.a,o("k",n,C),o("s",n,C),o("t",n,C)).toString()}:function(t){return Gt.recomposeSelf(o("o",t,Bt,null),o("r",t,B,0),o("k",t,C),o("s",t,C),o("t",t,C)).toString()}},r:zt,"#size":bt,"#radius":mt,_:function(t,n){if(Array.isArray(t))for(var e=0;e<t.length;e++)this[t[e]]=n;else this[t]=n}},Xt=function(t){!function(t,n){if("function"!=typeof n&&null!==n)throw new TypeError("Super expression must either be null or a function");t.prototype=Object.create(n&&n.prototype,{constructor:{value:t,writable:!0,configurable:!0}}),n&&l(t,n)}(u,t);var n,e,i=(n=u,e=s(),function(){var t,r=a(n);if(e){var i=a(this).constructor;t=Reflect.construct(r,arguments,i)}else t=r.apply(this,arguments);return c(this,t)});function u(){return r(this,u),i.apply(this,arguments)}return o(u,null,[{key:"build",value:function(t){var n=h(a(u),"build",this).call(this,t,Wt);if(!n)return null;n.el,n.options,function(t,n,e){t.play()}(n.player)}}]),u}(vt);return Xt.init(),Xt}));
(function(s,i,o,w,d,a,b){w[o]=w[o]||{};w[o][s]=w[o][s]||[];w[o][s].push(i);})('5c7f360c',{"root":"egWRcs5fLoS1","version":"2022-05-04","animations":[{"elements":{"egWRcs5fLoS133":{"transform":{"data":{"o":{"x":877.6455,"y":1352.203735,"type":"corner"},"t":{"x":-877.6455,"y":-1352.203735}},"keys":{"r":[{"t":0,"v":0,"e":[0.42,0,0.58,1]},{"t":900,"v":4.59501,"e":[0.42,0,0.58,1]},{"t":1700,"v":-2.148968,"e":[0.42,0,0.58,1]},{"t":2500,"v":0.840057,"e":[0.42,0,0.58,1]},{"t":3000,"v":-0.077324}]}}},"egWRcs5fLoS162":{"transform":{"data":{"o":{"x":3447.939941,"y":3814.56,"type":"corner"},"t":{"x":-3447.93994,"y":-3814.56}},"keys":{"r":[{"t":0,"v":0,"e":[0.42,0,0.58,1]},{"t":600,"v":5.468351,"e":[0.42,0,0.58,1]},{"t":1200,"v":3.160089,"e":[0.42,0,0.58,1]},{"t":2000,"v":3.960786,"e":[0.42,0,0.58,1]},{"t":3000,"v":1.265168}]}}},"egWRcs5fLoS168":{"transform":{"data":{"o":{"x":3371.29,"y":3768.52,"type":"corner"},"t":{"x":-3371.29,"y":-3768.519999}},"keys":{"r":[{"t":100,"v":-2.31492,"e":[0.42,0,0.58,1]},{"t":600,"v":1.358437,"e":[0.42,0,0.58,1]},{"t":1200,"v":-1.017196,"e":[0.42,0,0.58,1]},{"t":1700,"v":-2.31492,"e":[0.42,0,0.58,1]},{"t":2200,"v":1.358437,"e":[0.42,0,0.58,1]},{"t":2800,"v":-1.017196}]}}},"egWRcs5fLoS173":{"transform":{"data":{"o":{"x":3383.613647,"y":3768.52,"type":"corner"},"t":{"x":-3383.613647,"y":-3768.519999}},"keys":{"r":[{"t":0,"v":0,"e":[0.42,0,0.58,1]},{"t":400,"v":-2.373377,"e":[0.42,0,0.58,1]},{"t":900,"v":1.045329,"e":[0.42,0,0.58,1]},{"t":1400,"v":0,"e":[0.42,0,0.58,1]},{"t":1800,"v":-2.373377,"e":[0.42,0,0.58,1]},{"t":2300,"v":1.045329,"e":[0.42,0,0.58,1]},{"t":2800,"v":1.045329,"e":[0.42,0,0.58,1]},{"t":3300,"v":0}]}}},"egWRcs5fLoS182":{"transform":{"data":{"t":{"x":-2506.445068,"y":-2148.769547}},"keys":{"o":[{"t":0,"v":{"x":2506.445068,"y":2218.769547,"type":"corner"},"e":[0,0,0.58,1]},{"t":600,"v":{"x":2506.445068,"y":2149.769547,"type":"corner"},"e":[0,0,0.58,1]},{"t":1400,"v":{"x":2506.445068,"y":2218.769547,"type":"corner"},"e":[0,0,0.58,1]},{"t":2000,"v":{"x":2506.445068,"y":2149.769547,"type":"corner"},"e":[0,0,0.58,1]},{"t":2700,"v":{"x":2506.445068,"y":2218.769547,"type":"corner"},"e":[0,0,0.58,1]},{"t":3300,"v":{"x":2506.445068,"y":2149.769547,"type":"corner"}}],"r":[{"t":0,"v":0},{"t":1100,"v":0.621826},{"t":2300,"v":-0.307359},{"t":3000,"v":-1.825692}]}}},"egWRcs5fLoS204":{"opacity":[{"t":300,"v":0,"e":[0.68,-0.55,0.265,1.55]},{"t":800,"v":1}]},"egWRcs5fLoS205":{"opacity":[{"t":0,"v":0,"e":[0.68,-0.55,0.265,1.55]},{"t":500,"v":1}]},"egWRcs5fLoS206":{"opacity":[{"t":700,"v":0,"e":[0.68,-0.55,0.265,1.55]},{"t":1200,"v":1}]},"egWRcs5fLoS207":{"transform":{"data":{"o":{"x":392.277375,"y":435.965653,"type":"corner"},"t":{"x":-392.277374,"y":-435.965653}},"keys":{"r":[{"t":900,"v":-15.031129,"e":[0.445,0.05,0.55,0.95]},{"t":1600,"v":180.052417}]}},"opacity":[{"t":900,"v":0,"e":[0.42,0,0.58,1]},{"t":1400,"v":1}]}},"s":"MXDA1ZGI2NWQ5ZmIwYWJQ5Y2FmYTRhYWE5NWQI3NTZlNmI2YjZiNjc1GZDlmYTRhZGEwOWVNYDWZhNGFhYTk1ZDc1NmJM2NzVkYTRhZmEwYWQQ5Y2FmYTRhYWE5YWU1CZDc1NmM2NzVkVWExYETRhN2E3NWQ3NTZjNjLc1ZDljTWE3YWZhMGFNkYTk5Y2FmYTA1ZDc1FYTE5Y2E3YWVRYTA2NYzVkVWFlYWJhMGEwOWHZDNWQ3NTZjNjdDNWRUhMWFiYWU1ZDc1NmM2GYjZiYjg/"}],"options":"MUDAxMDg4MmY4MDgxNmUVBN2Y4MUkyZjQ3MmYM3OVI3YzZlNzEyZjhhH"},'__SVGATOR_PLAYER__',window,document)
]]></script>
</svg>
