<svg id="exh3fG6Q0Wb1" xmlns="http://www.w3.org/2000/svg" xmlns:xlink="http://www.w3.org/1999/xlink" viewBox="0 0 4229 4314" shape-rendering="geometricPrecision" text-rendering="geometricPrecision"><g><g><path d="M425.912,2694.4l-131.699,2.81-66.853,1.1c-22.384,0-44.869,0-67.254.5h-4.417v-4.51l-.602-112.33v-5.02h5.019l132.903.6c44.368,0,88.635,1.11,132.903,1.61h2.811v2.71c0,19.07-.904,37.94-1.305,56.72l-1.506,55.81Zm0,0l-1.406-56.82c0-18.67-1.104-37.14-1.304-55.51l2.71,2.71c-44.268.5-88.535,1.61-132.903,1.61l-132.903.7l5.019-5.02v112.33l-4.517-4.52c21.883,0,43.765,0,65.749.6l66.05,1.11l133.505,2.81Z" fill="#ebebeb"/><path d="M277.651,2836.03l-131.698,2.81-66.8533,1.11c-22.3847,0-44.8698,0-67.2545.5h-4.41674v-4.52l-.60229-112.32v-5.12h5.01903l132.9028.6c44.268,0,88.636,1.1,132.903,1.61h2.811v2.71c0,19.07-.803,37.94-1.305,56.71l-1.506,55.91Zm0,0l-1.405-56.81c-.502-18.67-1.104-37.14-1.305-55.51l2.71,2.71c-44.267.5-88.635,1.6-132.903,1.6l-132.9028.71l5.019-5.02-.5019,112.32-4.5171-4.51c21.8828,0,43.7656,0,65.7488.6l66.05,1.1l134.007,2.81Z" fill="#ebebeb"/><path d="M2278.12,673.951l-131.8,2.81-66.85,1.104c-22.28,0-44.77,0-67.15.603h-4.52v-4.517l-.5-111.824v-5.019h5.12l132.9.703c44.27,0,88.53,1.104,132.9,1.606h2.71v2.71c0,19.073-.9,38.044-1.3,56.815l-1.51,55.009Zm0,0l-1.1-56.715c0-18.671-1.11-37.141-1.31-55.611l2.81,2.811c-44.36,0-88.63,1.606-132.9,1.606l-132.9.602l5.02-5.019-.61,112.326-4.41-4.417c21.88,0,43.66,0,65.65,0l66.05,1.104l133.7,3.313Z" fill="#ebebeb"/><path d="M2129.86,815.587l-131.8,2.81-66.85,1.104c-22.39,0-44.77,0-67.26.603h-4.41v-4.517l-.6-112.326v-5.019h5.01l132.91.703c44.37,0,88.63,1.104,132.9,1.606h2.81v2.71c0,19.073-.9,38.044-1.3,56.815l-1.41,55.511Zm0,0l-1.5-56.715c0-18.671-1.11-37.241-1.31-55.611l2.71,2.811c-44.27,0-88.53,1.606-132.9,1.606l-132.91.602l5.02-5.019v112.326l-4.51-4.417c21.98,0,43.76,0,65.75,0l65.74,1.907l133.91,2.51Z" fill="#ebebeb"/><path d="M1982.1,673.951l-131.7,2.81-66.85,1.104c-22.38,0-44.87,0-67.25.603h-4.42v-4.517l-.6-111.824v-5.019h5.02l132.9.703c44.27,0,88.63,1.104,132.9,1.606h2.81v2.71c0,19.073-.8,38.044-1.3,56.815l-1.51,55.009Zm0,0l-1.4-56.715c0-18.671-1.11-37.141-1.31-55.611l2.71,2.811c-44.27,0-88.63,1.606-132.9,1.606l-132.9.602l5.01-5.019v112.326l-4.51-4.417c21.88,0,43.76,0,65.75,0l66.05,1.104l133.5,3.313Z" fill="#ebebeb"/><path d="M4200.9,2836.03l-131.8,2.81-66.85,1.11c-22.29,0-44.77,0-67.16.5h-4.51v-4.52l-.51-112.32v-5.12h5.02l132.91.6c44.26,0,88.63,1.1,132.9,1.61h2.71v2.71c0,19.07-.8,37.94-1.31,56.71l-1.4,55.91Zm0,0l-1.41-56.81c0-18.67-1.2-37.14-1.3-55.51l2.71,2.71c-44.27.5-88.64,1.6-132.9,1.6l-132.91.71l5.02-5.02-.6,112.32-4.42-4.51c21.89,0,43.77,0,65.65.6l66.05,1.1l134.11,2.81Z" fill="#ebebeb"/><path d="M4052.64,117.043l-131.8,2.71-66.86,1.205c-22.28,0-44.76,0-67.15.502h-4.12v-4.517-112.22513-4.71787h5.12l132.91.602293c44.26,0,88.53,1.104177,132.9,1.606077h2.71v2.71026c0,18.97177-.9,37.94357-1.3,56.71457l-2.41,55.4098Zm0,0l-1.41-56.8151c-.5-18.6706-1.2-37.1405-1.4-55.51003l2.81,2.71026c-44.37,0-88.64,1.60607-132.91,1.60607l-132.9,1.0038l5.02-4.91864-.6,112.22464-4.42-4.417c21.88,0,43.67,0,65.65,0l66.05,1.205l134.11,2.911Z" fill="#ebebeb"/><path d="M4200.9,258.579l-131.8,2.409-66.85,1.204c-22.29,0-44.77,0-67.16.502h-4.51v-4.517l-.51-112.225v-5.119h5.02l132.91.602c44.26,0,88.63,1.104,132.9,1.606h2.71v2.711c0,18.971-.8,37.943-1.31,56.714l-1.4,56.113Zm0,0l-1.41-56.715c0-18.671-1.2-37.141-1.3-55.51l2.71,2.71c-44.27,0-88.64,1.606-132.9,1.606l-132.91.603l5.02-4.919-.6,112.225-4.42-4.417c21.89,0,43.77,0,65.65,0l66.05,1.204l134.11,3.213Z" fill="#ebebeb"/><path d="M2556.78,2456.8l-131.8,2.81-66.86,1.1c-22.28,0-44.77,0-67.15.5h-4.52v-4.51l-.5-112.33v-5.12h5.12l132.9.6c44.27,0,88.54,1.11,132.91,1.61h2.71v2.71c0,19.07-.91,37.94-1.31,56.72l-1.5,55.91Zm0,0l-1.41-56.82c-.5-18.67-1.2-37.14-1.4-55.51l2.81,2.71c-44.37.5-88.64,1.61-132.91,1.61l-132.9.7l5.02-5.02-.6,112.33-4.42-4.52c21.88,0,43.67,0,65.65.6l66.05,1.11l134.11,2.81Z" fill="#ebebeb"/><path d="M2705.04,2598.43l-131.8,2.71-66.85,1.21c-22.29,0-44.77,0-67.16.5h-4.52v-4.52-112.32-5.12h5.02l132.91.6c44.26,0,88.63,1.11,132.9,1.61h2.71v2.71c0,19.07-.8,37.94-1.3,56.71l-1.91,55.91Zm0,0l-1.41-56.81c-.5-18.67-1.2-37.14-1.3-55.51l2.71,2.71c-44.27.5-88.64,1.6-132.91,1.6l-132.9.71l5.02-5.02-.6,112.32-4.42-4.51c21.88,0,43.77,0,65.65.6l66.05,1.1l134.11,2.81Z" fill="#ebebeb"/><path d="M425.912,117.043l-131.699,2.71-66.853,1.205c-22.384,0-44.869,0-67.254.502h-4.417v-4.517L155.087,4.71787v-4.71787h5.019h132.903c44.368,0,88.635,1.10418,132.903,1.60608h2.811v2.71026c0,18.97176-.904,37.94356-1.305,56.71466l-1.506,56.012Zm0,0l-1.406-56.8151c0-18.6706-1.104-37.1405-1.304-55.51003l2.71,2.71026c-44.268,0-88.535,1.60607-132.903,1.60607L160.106,10.038l5.019-4.91864v112.22464l-4.517-4.417c21.883,0,43.765,0,65.749,0l66.05,1.205l133.505,2.911Z" fill="#ebebeb"/><path d="M1663.3,867.985h-1531.199v63.139h1531.199v-63.139Z" fill="#ebebeb"/><path d="M276.146,931.224h-63.24v208.886h63.24v-208.886Z" fill="#ebebeb"/><path d="M276.146,931.224h-63.24v64.544h63.24v-64.544Z" fill="#dbdbdb"/><path d="M1582.59,931.224h-63.24v208.886h63.24v-208.886Z" fill="#ebebeb"/><path d="M1582.59,931.224h-63.24v64.544h63.24v-64.544Z" fill="#dbdbdb"/><path d="M663.713,656.484l-12.347,32.423-7.428,19.675-12.347,32.523-47.881,126.98h-259.181l-48.082-126.98-12.246-32.523-7.429-19.675-12.346-32.423l95.662-139.327L290.5,425.209h327.339l-49.788,91.948l95.662,139.327Z" fill="#dbdbdb"/><path d="M663.713,656.484l-12.347,32.423h-394.594l-12.346-32.423h419.287Z" fill="#a6a6a6"/><path d="M643.937,708.582l-12.346,32.523h-355.145L264.2,708.582h379.737Z" fill="#a6a6a6"/><path d="M1475.68,264.401h-498.381v604.487h498.381v-604.487Z" fill="#dbdbdb"/><path d="M1418.67,319.509h-384.46v494.17h384.46v-494.17Z" fill="#fff"/><path d="M1049.17,319.509h-14.96v494.17h14.96v-494.17Z" fill="#c7c7c7"/><path d="M1490.64,264.401h-14.96v604.487h14.96v-604.487Z" fill="#c7c7c7"/><path d="M1108.8,868.386h-378.737L811.07,409.048h378.73l-81,459.338Z" fill="#dbdbdb"/><path d="M1072.86,826.428h-292.105l66.251-375.421h292.104l-66.25,375.421Z" fill="#fff"/><path d="M792.198,826.428h-11.443l66.251-375.421h11.342l-66.15,375.421Z" fill="#c7c7c7"/><path d="M1120.14,868.386h-11.34l81-459.338h11.35l-81.01,459.338Z" fill="#c7c7c7"/><path d="M4191.66,2229.54h-69.26v1726.03h69.26v-1726.03Z" fill="#c7c7c7"/><path d="M4122.4,2229.54h-1121.14v1726.03h1121.14v-1726.03Z" fill="#dbdbdb"/><path d="M4016.8,3839.53c-85.12,68.46-138.72-21.88-296.82-21.88s-158.1,19.27-316.3,19.27-208.09,141.94-321.21,31.52c-110.42-107.51,25.89-159.3,25.89-313.39c0-154.08-50.69-154.18-50.69-308.26c0-154.09-11.74-154.19-11.74-308.27s80.3-154.18,80.3-308.27c0-154.08-121.66-172.95-11.24-280.56c113.23-110.42,130.99-69.06,289.19-69.06s158.1,23.79,316.3,23.79s178.27-67.55,291.6,42.86c110.42,107.51-8.13,128.79-8.13,282.87c0,154.09,77.7,154.09,77.7,308.27s-30.12,154.08-30.12,308.27c0,154.18-25.89,152.57,8.94,302.74c38.34,166.13,36.54,225.56-43.67,290.1Z" fill="#c7c7c7"/><path d="M4042.7,2295.09c0,3.43,1.02,6.8,2.93,9.65c1.92,2.86,4.63,5.09,7.81,6.4s6.68,1.65,10.05.97s6.47-2.34,8.89-4.78s4.07-5.54,4.73-8.92c.66-3.37.3-6.87-1.03-10.04s-3.57-5.88-6.44-7.77c-2.87-1.9-6.24-2.9-9.68-2.88-2.27,0-4.52.45-6.63,1.32-2.1.88-4,2.16-5.61,3.77-1.6,1.62-2.87,3.53-3.74,5.64-.86,2.1-1.29,4.36-1.28,6.64Z" fill="#c7c7c7"/><path d="M3046.33,2295.09c0,3.43,1.02,6.79,2.93,9.64c1.9,2.86,4.62,5.08,7.79,6.4c3.17,1.31,6.66,1.66,10.03.99s6.47-2.33,8.89-4.76c2.43-2.42,4.09-5.52,4.76-8.89s.32-6.86-.99-10.03c-1.32-3.17-3.54-5.89-6.4-7.79-2.85-1.91-6.21-2.93-9.65-2.93-2.28-.01-4.54.43-6.66,1.29-2.11.87-4.03,2.15-5.64,3.77-1.62,1.61-2.9,3.53-3.77,5.64-.86,2.12-1.3,4.38-1.29,6.67Z" transform="translate(0 0.000001)" fill="#c7c7c7"/><path d="M4042.7,3890.12c-.02,3.45.98,6.82,2.88,9.69s4.62,5.11,7.79,6.44c3.18,1.32,6.68,1.68,10.06,1.01s6.48-2.32,8.91-4.76c2.44-2.43,4.09-5.54,4.76-8.91.67-3.38.32-6.88-1.01-10.06s-3.57-5.89-6.44-7.79-6.24-2.9-9.69-2.88c-2.26,0-4.51.44-6.6,1.31-2.1.87-4,2.14-5.6,3.74-1.61,1.61-2.88,3.51-3.75,5.6-.86,2.1-1.31,4.34-1.31,6.61Z" fill="#c7c7c7"/><path d="M3046.33,3890.12c-.02,3.44.98,6.81,2.88,9.68c1.89,2.87,4.6,5.11,7.77,6.44s6.67,1.69,10.04,1.03c3.38-.66,6.48-2.31,8.92-4.73c2.44-2.43,4.1-5.52,4.78-8.89s.34-6.87-.97-10.05-3.54-5.9-6.4-7.81c-2.85-1.91-6.22-2.93-9.66-2.93-2.27-.02-4.53.42-6.63,1.28-2.11.86-4.02,2.13-5.64,3.74-1.61,1.6-2.89,3.51-3.77,5.61-.87,2.1-1.32,4.36-1.32,6.63Z" fill="#c7c7c7"/><path d="M3649.01,3954.16h-851.82L2979.38,2642.7h851.82L3649.01,3954.16Z" fill="#ebebeb"/><path d="M3726.2,3954.16h-77.19L3831.2,2642.7h77.19L3726.2,3954.16Z" fill="#dbdbdb"/><path d="M2826.4,166.229h-524.39v636.007h524.39v-636.007Z" fill="#dbdbdb"/><path d="M2766.47,224.249h-404.53v519.967h404.53v-519.967Z" fill="#fff"/><path d="M2377.7,224.249h-15.76v519.967h15.76v-519.967Z" fill="#c7c7c7"/><path d="M2842.16,166.229h-15.76v636.007h15.76v-636.007Z" fill="#c7c7c7"/><path d="M2573.24,628.579h95.36v-284.176h-95.36v284.176Z" fill="#dbdbdb"/><path d="M2715.28,440.166h-264.4v-149.064h264.4v149.064Zm-254.37-10.038h244.33v-128.988h-244.33v128.988Z" fill="#ebebeb"/><path d="M4175.9,514.848h-524.38v636.012h524.38v-636.012Z" fill="#dbdbdb"/><path d="M4115.98,572.968h-404.53v519.972h404.53v-519.972Z" fill="#fff"/><path d="M3727.21,572.968h-15.76v519.972h15.76v-519.972Z" fill="#c7c7c7"/><path d="M4191.66,514.848h-15.76v636.012h15.76v-636.012Z" fill="#c7c7c7"/><path d="M3942.32,693.123h-95.36v284.175h95.36v-284.175Z" fill="#dbdbdb"/><path d="M4064.78,788.885h-264.4v-149.264h264.4v149.264Zm-254.36-10.038h244.33v-129.188h-244.33v129.188Z" fill="#ebebeb"/><path d="M3501.15,340.489h-524.38v636.006h524.38v-636.006Z" fill="#dbdbdb"/><path d="M3441.22,398.608h-404.53v519.968h404.53v-519.968Z" fill="#fff"/><path d="M3052.45,398.608h-15.76v519.968h15.76v-519.968Z" fill="#c7c7c7"/><path d="M3516.91,340.489h-15.76v636.006h15.76v-636.006Z" fill="#c7c7c7"/><path d="M3281.52,533.017h-81.71v206.582h81.71v-206.582Z" fill="#ebebeb"/><path d="M3372.56,806.051h-229.57v-152.478h229.57v152.478Zm-219.53-10.038h209.5v-132.402h-209.5v132.402Z" fill="#dbdbdb"/></g><g><path d="M2.30859,3955.57L528.4,3953.16l525.99-.9l1051.98-1.71l1051.98,1.71l525.99.9l526.09,2.41-526.09,2.51-525.99.9-1051.98,1.61-1051.98-1.71-525.99-.8-526.09141-2.51Z" fill="#263238"/><g><path d="M1790.38,4313.93c850.86,0,1540.63-47.87,1540.63-106.91s-689.77-106.9-1540.63-106.9c-850.871,0-1540.635,47.86-1540.635,106.9s689.764,106.91,1540.635,106.91Z" fill="#ebebeb"/></g></g><g><g id="exh3fG6Q0Wb63" transform="translate(.000002 0.000003)"><path d="M1965.24,2098.64c0,0-260.99-36.54-199.66-351.33c0,.2,291.2,65.55,199.66,351.33Z" fill="#af1ee0"/><path d="M1965.24,2098.64c0,0-260.99-36.54-199.66-351.33c0,.2,291.2,65.55,199.66,351.33Z" opacity="0.1"/><path d="M1952.09,2032.89c-5.09-15.93-11.02-31.57-17.77-46.87c0-2.01-.5-4.02-.6-5.93c0-4.31-.8-8.63-1.11-12.95-.7-9.43-1.3-18.87-1.9-28.2-1.11-18.77-2.31-37.64-2.61-56.42.04-.12.06-.25.04-.38-.02-.12-.06-.25-.14-.35-.07-.11-.17-.2-.28-.26-.12-.06-.25-.09-.38-.09s-.25.03-.37.09c-.11.06-.21.15-.29.26-.07.1-.12.23-.13.35-.02.13,0,.26.04.38c0,18.88-.5,37.65,0,56.52c0,9.33.9,18.77,1.61,28.21c0,2,0,4.11,0,6.22-14.62-31.34-32.13-61.25-52.3-89.34-8.88-12.52-18.4-24.58-28.51-36.14-10.04-11.94-21.28-23.28-31.82-35.03-.7-.8-1.81,0-1.1,1.21c18.72,20.67,35.52,43.02,50.19,66.75c7.93,11.94,15.46,24.29,22.58,36.74l-1.7-.4c-3.12-1.31-6.23-2.61-9.34-3.72l-21.28-8.13c-13.95-5.12-28.01-10.04-41.96-15.56-.8,0-1.4,1.11,0,1.51c13.85,5.52,27.51,11.34,41.26,17.26l20.07,8.64c3.32,1.5,6.73,2.81,10.04,4.21c2.2,1.08,4.53,1.89,6.93,2.41c5.22,9.44,10.04,18.97,15.26,28.61c12.1,24.36,22.73,49.44,31.82,75.08.7,1.81,1.3,3.62,1.9,5.42-6.86-3.88-14.01-7.24-21.38-10.03l-26.9-12.25c-18.27-8.43-36.44-16.96-54-26.8-.19-.11-.41-.14-.62-.08s-.38.19-.49.38-.13.41-.08.61c.06.21.2.39.38.49c17.97,10.04,35.54,20.08,53.4,30.12c9.04,4.82,18.07,9.53,27.21,14.05c7.58,4.61,15.85,8,24.49,10.04c8.68,23.87,14.41,48.72,17.07,73.98c2.91,35.53,2.6,71.47,3.41,107.1c0,.61.9.61,1,0c2.51-32.32,4.02-65.04,4.12-97.47-.26-30.74-5.59-61.23-15.76-90.24Z" fill="#263238"/><path d="M1911.93,1847.89c-2.49,18.39-3.33,36.97-2.5,55.51h.7c1.1-18.47,1.3-36.74,3.41-55.11.1-1.3-1.4-1.3-1.61-.4Z" fill="#263238"/><path d="M1837.45,1863.65c-11.64-4.47-22.87-9.98-33.52-16.46-.81-.6-1.61.8-.81,1.41c10.46,7.02,21.89,12.46,33.93,16.16.6.2,1.01-.81.4-1.11Z" fill="#263238"/></g><path d="M1973.57,2598.13c0-28.81-.7-57.51-1.01-86.32-.6-95.67-1.4-191.33-3.11-286.99-1.34-75.95-3.11-151.87-5.32-227.76c0-.21-.06-.41-.17-.58-.1-.18-.25-.32-.43-.43c0-20.77,0-41.45,0-62.23c0-.5-.6-.8-1.2-.8-.61,0-1.21,0-1.21.9c0,20.68,0,41.42,0,62.23c0,0-.6,0-.6.91-3.82,135.21-7.23,270.32-8.03,405.53c0,27.51,0,55.01,0,82.41-.87,88.14-1.21,176.27-1,264.41c0,14.05,0,28.1,0,42.15c0,80.31.8,161.21.8,241.92c0,4.32,4.82,6.42,10.04,6.63c5.22.2,12.14-2.11,12.14-7.03c0-88.94.6-177.87.6-266.71-1.2-56.11-1-112.13-1.5-168.24Z" fill="#263238"/><g id="exh3fG6Q0Wb70" transform="translate(.000003 0.000032)"><path d="M1864.76,2510.7c0,0-125.38-92.95-244.33-30.11s-137.72,304.65-137.72,304.65s174.76,25,284.78-79.7c106-100.98,97.27-194.84,97.27-194.84Z" fill="#af1ee0"/><path d="M1898.89,2516.42c-23.03-9.13-47.97-12.41-72.58-9.53-5.08-.85-10.21-1.36-15.36-1.51l-17.66-1.3c-12.25-.91-24.4-1.61-36.54-2.61-24.8-1.81-49.59-3.32-74.28-5.83-.91,0-1.01,1.51,0,1.61c24.49,3.11,48.78,6.63,73.27,9.03c12.65,1.31,25.2,2.61,37.85,3.52l9.23.9c-3.81.8-7.53,1.71-11.14,2.71-19.68,5.73-38.72,13.47-56.81,23.09-10.04,1.81-20.08,4.52-29.42,6.82-15.55,3.72-30.91,7.63-46.37,11.75-30.12,7.93-60.23,16.96-90.34,25.7-.12-.05-.26-.06-.38-.05-.13.02-.25.07-.36.14s-.19.17-.25.29c-.06.11-.1.24-.1.37s.04.26.1.37c.06.12.14.22.25.29s.23.12.36.14c.12.01.26,0,.38-.05c30.11-7.33,60.22-14.15,90.84-21.38c14.66-3.51,29.41-6.92,44.07-10.54l11.54-2.71c-33.68,20.88-63.78,47.04-89.14,77.49-24.45,29.98-45.24,62.77-61.93,97.67c0,.91.8,1.81,1.3.91c20.59-35.93,45.8-69,74.99-98.37-.5,1.7-1.11,3.31-1.61,5.01-2.41,7.33-4.72,14.76-7.02,22.09-4.62,14.85-9.34,29.51-13.76,44.37c0,1,1.21,1.3,1.61,0c5.22-14.26,10.04-28.71,15.36-43.07c2.41-7.12,4.92-14.15,7.43-21.18c1.3-3.71,2.5-7.32,3.71-11.04l1.2-3.31c13.99-13.59,28.85-26.27,44.47-37.95c20.67-15.19,43-27.98,66.55-38.14l-1.2,6.42c-1.31,5.73-2.51,11.45-3.71,17.17-2.51,11.84-4.82,23.79-7.13,35.63-4.72,24.3-7.63,48.89-12.15,73.08c0,1,1.31,1.41,1.51,0c5.62-24.39,12.85-48.38,18.37-72.87c2.71-12.25,5.42-24.4,7.93-36.64c1.2-5.83,2.41-11.55,3.51-17.27.7-3.21,1.41-6.32,1.81-9.53c2.21-.91,4.52-2.01,6.82-2.82c32.83-12.24,69.17-21.07,104.3-14.35c16.54,3.08,32.07,10.18,45.22,20.69c13.15,10.5,23.51,24.08,30.16,39.54c1.21,2.71,5.52,1,4.82-1.81-7.02-29.01-32.12-51.39-59.72-62.94Z" fill="#263238"/><path d="M1706.96,2619.91l-10.54,47.69c-3.96,15.24-6.88,30.73-8.73,46.37c0,.6.8.6,1,0c4.6-15.3,8.15-30.89,10.64-46.68c3.11-15.76,6.12-31.41,9.24-47.07.02-.11.01-.22-.01-.32-.02-.11-.06-.21-.12-.3-.06-.08-.14-.16-.23-.22s-.19-.1-.3-.12c-.1-.02-.21-.02-.32.01-.1.02-.2.06-.29.12s-.16.14-.22.23-.1.19-.12.29Z" fill="#263238"/><path d="M1585.7,2660.07c-15.96,8.13-31.42,17.36-48.08,23.99-.12.03-.22.08-.32.16-.09.08-.16.17-.21.28s-.07.23-.07.35.03.24.08.34c.06.11.13.2.23.28.09.07.2.12.32.15.12.02.24.02.35,0c.12-.03.23-.08.32-.16c16.36-7.4,32.31-15.68,47.78-24.79c0,0,0-.6-.4-.6Z" fill="#263238"/></g><g id="exh3fG6Q0Wb75" transform="translate(.000002 0.000001)"><path d="M1892.96,2340.06c0,0-153.28,10.03-224.55-91.25s-55.31-245.33-55.31-245.33s160.61,19.58,224.96,92.15c64.34,72.58,54.9,244.43,54.9,244.43Z" fill="#af1ee0"/><path d="M1964.84,2491.23c-5.32-16.36-11.85-32.53-18.07-48.69-6.23-16.16-12.35-30.71-19.07-45.87-13.66-30.92-28.97-61.07-45.88-90.34-10.84-18.67-22.38-36.74-34.33-54.51c0-2.71-.8-5.42-1.2-8.23-.71-4.72-1.41-9.43-2.21-14.15-1.51-10.04-3.21-19.38-4.82-29.11-3.51-21.18-7.83-42.16-11.24-63.34c0-1.01-1.71-1.01-1.61,0c3.11,20.98,5.22,41.96,8.13,62.94c1.51,10.03,2.81,20.57,4.42,30.81c0,3.72,1.1,7.43,1.71,11.14-23.39-34.19-48.7-67.03-75.79-98.37l-11.24-12.55c-.4-1.19-.87-2.37-1.41-3.51l-3.31-8.73-6.63-18.27c-4.31-12.05-8.13-24.09-11.44-36.44c0-1-1.71,0-1.51.5c3.12,12.55,6.33,25.1,10.04,37.55c1.81,5.92,3.72,11.84,5.82,17.76c0,1.01.81,2.01,1.11,3.01-19.58-21.38-40.15-41.96-60.23-62.33-.7-.7-1.81.5-1.1,1.2c39.65,41.41,75.96,85.88,108.61,133.01-3.72-1.2-7.51-2.17-11.35-2.92-11.84-2.3-23.68-3.91-35.63-5.42-24.99-3.21-50.19-6.32-74.68-10.03-1.01,0-1.41,1.4,0,1.6c23.69,4.62,47.28,10.04,70.87,15.46c11.04,2.51,22.28,4.72,33.42,6.93c9.12,1.97,18.11,4.52,26.9,7.63l7.53,10.64c11.24,16.36,21.99,33.02,32.63,50.19l-15.66-3.02c-11.85-2.3-23.69-4.51-35.64-6.42-23.39-3.91-46.78-7.93-70.26-13.15-.16.06-.29.16-.38.29-.1.14-.15.3-.15.46c0,.17.05.33.15.46.09.14.22.24.38.3c23.48,5.52,46.67,11.94,70.26,18.06c11.14,3.02,22.49,5.83,33.83,8.24l17.06,3.71c2.27.63,4.59,1.03,6.93,1.2c22.28,36.24,43.36,73.48,62.84,111.33c8.56,16.66,16.8,33.39,24.69,50.19c8.23,17.36,15.26,35.13,22.79,52.8.4,3.31,5.72,1.9,4.72-2.01Z" fill="#263238"/><path d="M1808.04,2139.1c-2.91-14.56-6.02-29.22-9.23-43.77c0-1-1.71-.5-1.51,0c2.81,14.35,5.62,28.71,8.23,43.16c2.17,14.47,5.08,28.81,8.74,42.97-1.04-14.26-3.12-28.41-6.23-42.36Z" fill="#263238"/><path d="M1718.6,2134.88c-7.16-3.48-14.5-6.6-21.98-9.34l-11.84-4.51-5.93-2.41c-2.26-.63-4.43-1.57-6.42-2.81-1.21-.91-1.91,1.2-.8,1.4c2.31.57,4.54,1.45,6.62,2.61l5.72,2.61l11.24,5.02c7.36,3.39,14.9,6.38,22.59,8.94.2.1.43.12.65.06.22-.07.4-.22.5-.42.11-.2.13-.43.07-.65-.07-.21-.22-.39-.42-.5Z" fill="#263238"/></g><path d="M2049.76,2219.6c0,0,92.75-173.26,233.88-200.06c141.14-26.8,227.36,118.55,227.36,118.55s-102.89,131.4-232.38,154.39c-129.49,22.98-228.86-72.88-228.86-72.88Z" fill="#af1ee0"/><path d="M2378.2,2097.14c-36.68-4.93-73.88-4.45-110.42,1.4c2.11-1.2,4.22-2.41,6.33-3.41l31.31-16.16c21.69-11.24,43.57-23.29,66.26-32.32.11-.03.22-.09.31-.17.09-.07.16-.17.21-.28s.08-.23.08-.35c-.01-.12-.04-.23-.09-.34s-.13-.2-.22-.27c-.1-.08-.21-.13-.32-.16-.12-.02-.24-.02-.36.01-.12.02-.22.08-.32.15-22.08,10.04-44.87,18.87-67.05,29.01-11.04,5.12-21.98,10.04-32.73,16.16-6.92,3.72-14.65,7.13-21.48,11.54-31.01,6.4-61.14,16.51-89.74,30.12c5.93-6.43,11.85-12.75,17.67-19.17c13.15-14.46,26.1-29.52,40.15-42.67.71-.7,0-1.8-1.2-1.1-14.76,13.45-30.12,25.8-44.67,40.15-6.93,6.83-13.55,13.75-20.08,20.98-3.21,3.62-6.42,7.33-9.53,11.14-48.46,25.94-90.57,62.31-123.27,106.48-32.7,44.18-55.19,95.07-65.85,148.99c0,1,1.21,1.51,1.51.5c19.83-66.03,55.42-126.24,103.69-175.46c51.91-52.94,117.25-90.76,189.01-109.42c42.6-10.85,86.65-14.84,130.5-11.84.46.04.93-.11,1.28-.41.36-.3.59-.73.63-1.2.04-.46-.11-.92-.41-1.28s-.73-.58-1.2-.62Z" fill="#263238"/><path d="M2511.1,2138.09c0,0-102.99,131.4-232.48,154.39-98.77,17.46-179.98-34.03-213-59.43l-7.13-11.64c0,0,66.85-56.32,193.13-88.84s259.48,5.52,259.48,5.52Z" opacity="0.1"/><path d="M2296.19,2035.4c-10.78,6.37-21.23,13.27-31.32,20.68-9.79,7.47-18.9,15.8-27.2,24.9-.08.16-.11.35-.08.54.03.18.12.35.25.48.14.14.31.22.49.26.18.03.37,0,.54-.08c9.34-8.13,18.77-16.26,28.51-23.99c9.56-7.78,19.62-14.92,30.11-21.38.19-.17.3-.41.31-.67.01-.25-.08-.5-.25-.69-.18-.18-.42-.29-.67-.3-.26-.01-.5.08-.69.25Z" fill="#263238"/><path d="M2373.68,2064.71c-5.22,2.21-10.64,4.12-15.86,6.23l-15.66,6.52c-1.1,0-.6,2.31.51,1.91l15.75-6.42c5.33-2.11,10.04-4.52,15.66-6.73c1.01-.3.51-1.91-.4-1.51Z" fill="#263238"/><g id="exh3fG6Q0Wb85" transform="translate(.000001 0)"><path d="M2031.29,2437.63c0,0,24.89,172.25,153.98,231.87c129.09,59.63,286.79,0,286.79,0s-62.04-371.7-440.77-231.87Z" fill="#af1ee0"/><path d="M2383.02,2557.78c-11.95-1.41-23.79-3.41-35.64-5.52l-17.36-3.31c-2.91-.61-5.92-1.31-9.04-1.81l-10.03-10.04c-24.51-21.48-50.95-40.63-79-57.21-15.3-9.07-31.12-17.21-47.38-24.4h2.11l42.56,1.91c28.3,1.31,56.71,1.91,85.02,3.71c1,0,1-1.5,0-1.6-28.51-1.91-56.82-5.02-85.22-7.43l-41.36-2.81-21.28-1.81-5.52-.6c-7.33-2.81-14.76-5.32-22.29-7.73-35.22-12.05-73.08-14.14-109.41-6.02-32.52,8.33-64.95,30.11-73.38,63.94c0,1.2,1.51,2.01,2.01.8c12.15-28.71,43.97-43.06,72.67-48.98c19.3-3.71,39.09-4.12,58.53-1.21c1.28,8.87,3.47,17.58,6.52,26c3.51,12.05,7.03,24.19,10.74,36.24c7.33,24.19,15.36,48.08,22.49,72.27.08.17.23.31.41.38.17.07.37.08.55.02.19-.06.34-.19.44-.35.1-.17.13-.36.1-.55-5.92-24.09-11.04-48.48-16.86-72.57-2.81-11.95-5.82-23.69-8.73-35.54-1.7-8.28-3.88-16.46-6.53-24.49c11.31,2.02,22.51,4.67,33.53,7.93c19.95,5.87,39.5,13.05,58.52,21.48c1.91,12.25,4.72,24.39,7.53,36.44c3.51,15.16,7.43,30.11,12.24,45.07.07.18.21.34.39.42.18.09.38.1.57.03.18-.07.34-.2.42-.38.09-.18.1-.39.03-.57-.06-.94-.06-1.88,0-2.81-2.91-14.06-5.92-28.11-8.93-42.16-2.41-11.25-4.62-22.69-7.03-33.93c16.09,7.16,31.8,15.13,47.08,23.89c0,3.41,1.2,7.02,1.7,10.04.91,5.92,2.01,11.74,3.01,17.66c2.51,13.25,5.12,26.4,8.34,39.55c5.78,25.35,13.19,50.29,22.18,74.69-.11.14-.18.31-.18.5c0,.18.07.36.18.5l.7.9c.13.11.29.18.46.2.17.01.34-.03.49-.12s.26-.22.32-.38c.07-.16.08-.33.04-.5-5.92-25.5-12.75-50.79-18.37-76.29-2.81-12.75-5.62-25.5-8.13-38.34-1.31-6.43-2.51-12.85-3.72-19.28c0-1.8-.3-3.71-.9-5.72c17.33,10.26,34.08,21.45,50.19,33.53c27.83,20.93,53.61,44.46,76.99,70.26.9,1.01,2.71,0,1.91-1.6-10.04-12.95-20.08-25.6-30.82-37.54-6.52-6.93-13.25-13.66-20.07-20.08h2.2c6.03,1,12.05,1.91,18.17,2.71c11.95,1.61,23.99,2.81,35.94,4.12.5.4.9-1.41-.1-1.51Z" fill="#263238"/><path d="M2292.17,2616c0-1.51,0-2.91-.7-4.42-.7-1.5-1.3-3.71-1.6-5.62-2.71-11.44-4.92-22.98-7.03-34.63c0-.8-1.41-.6-1.41,0c.91,15.4,4.3,30.55,10.04,44.87c0,.5,1.01,0,.9,0l-.2-.2Z" fill="#263238"/><path d="M2184.07,2613.29c-.03-.2-.12-.37-.27-.5s-.34-.2-.54-.2c-3.61-15.26-7.12-30.12-10.04-45.78-1.7-8.13-3.31-16.16-4.91-24.19l-2.41-13.05c-.34-3.86-1.25-7.65-2.71-11.24-.09-.12-.2-.23-.33-.3s-.28-.1-.43-.1-.29.03-.42.1c-.14.07-.25.18-.33.3-.13,7.78.95,15.54,3.21,22.99c1.61,8.43,3.21,16.76,5.12,25.09c3.72,16.97,7.93,33.93,12.75,50.19c0,.91,1.81.71,1.71,0-.1-.7-.3-2.11-.4-3.31Z" fill="#263238"/><path d="M2371.17,2508.29c-23.59-3.21-47.18-6.62-70.76-9.53-1.01,0-1.41,1.4,0,1.5c23.58,3.52,47.17,6.43,70.86,9.54.51-.3.91-1.41-.1-1.51Z" fill="#263238"/></g><g id="exh3fG6Q0Wb91" transform="translate(.000002 0.000002)"><path d="M1965.04,2034.6c0,0-79-346.91,293.71-487.24c0,0,103.29,456.62-293.71,487.24Z" fill="#af1ee0"/><path d="M2045.54,1837.86l4.02-2.41l21.08-11.75l43.16-24.19c28.51-15.96,56.51-32.52,85.22-48.08.91,0,0-1.81-.9-1.31-28.61,15.56-57.82,30.12-86.73,45.48l-42.66,22.58-17.47,9.14c12.45-23.49,25.7-46.68,40.15-68.97c19.48-30.11,40.86-58.02,63.04-85.62.17-.25.24-.55.21-.85s-.16-.58-.38-.79c-.21-.21-.49-.34-.78-.37-.3-.03-.6.04-.85.2-32.81,31.81-61.82,67.31-86.43,105.8c0-1.3,0-2.51,0-3.61c0-8.63.6-17.26.7-25.9c0-16.96-.5-33.93,0-50.79c0-.21-.08-.42-.23-.57s-.36-.23-.57-.23-.42.08-.57.23-.23.36-.23.57c-.71,16.66-2.71,33.23-3.62,50.19c0,8.33-.9,16.66-1.1,24.99c0,4.52-.6,10.04,0,14.56-7.73,12.15-15.06,24.59-21.99,37.14-12.52,22.72-23.65,46.19-33.32,70.27c0-8.64-.91-17.27-1.41-25.9-1.1-18.97-3.41-37.95-4.21-56.92c0-1-1.61-1-1.61,0c0,19.08-.5,38.05,0,57.02c0,9.53.6,18.97,1.21,28.51l.6,10.03c-11.83,31.01-21.23,62.9-28.11,95.37-6.42,34.67-11.04,69.64-13.85,104.79c3.97-31.67,10.69-62.94,20.08-93.45c4.61-16.36,9.43-32.63,14.65-48.79c15.56-7.32,30.11-16.46,45.37-24.79l46.78-25.5c31.02-17.06,62.13-34.43,94.16-49.48c1-.51,0-1.81-.81-1.41-32.52,14.76-65.24,28.71-97.17,44.77-15.86,7.93-31.51,16.46-46.97,25.2-12.95,7.32-26.2,14.65-38.55,22.98c3.61-10.74,7.33-21.58,11.44-32.12c11.41-29.31,24.31-58.03,38.65-86.02Z" fill="#263238"/><path d="M2014.12,1758.56c0-1.01-1.7-1.01-1.6,0c1.3,20.07,2,39.65,4.11,59.32c0,1.1,1.81,1.1,1.71,0-.6-19.88-2.31-39.55-4.22-59.32Z" fill="#263238"/><path d="M2192.8,1824.81c-23.29,9.33-46.88,18.27-70.27,28-.6,0,0,1.31,0,1.11c23.59-8.84,46.78-18.47,70.27-27.61c1.4-.4,1-1.91,0-1.5Z" fill="#263238"/></g><path d="M2228.23,1664.8c-22.79,10.47-44.92,22.34-66.25,35.53-1.1.71,0,2.41,1.01,1.71c21.58-12.65,43.66-24.79,66.05-35.83c1-.51.1-1.81-.81-1.41Z" fill="#263238"/><path d="M2222.61,2784.74h-537.53v566.54h537.53v-566.54Z" fill="#37474f"/><path d="M1675.64,2985.2h-27.5v970.47h27.5v-970.47Z" fill="#263238"/><path d="M2256.74,2985.2h-27.5v970.47h27.5v-970.47Z" fill="#263238"/><path d="M1980.8,2985.2h-27.51v970.47h27.51v-970.47Z" fill="#263238"/><path d="M2242.99,3314.95h-581.1v78.39h581.1v-78.39Z" fill="#263238"/></g><g><path d="M3072.03,3198.1h-840.69v39.75h840.69v-39.75Z" fill="#af1ee0"/><path d="M3072.03,3198.1h-840.69v39.75h840.69v-39.75Z" opacity="0.3"/><path d="M2048.05,4149.9h175.77L2750.91,312.483l-61.33,6.022L2048.05,4149.9Z" fill="#af1ee0"/><path d="M2048.05,4149.9h175.77L2750.91,312.483l-61.33,6.022L2048.05,4149.9Z" opacity="0.3"/><path d="M2627.54,2542.22h143.45L2943.34,35.4341l-51.3,5.5209-264.5,2501.265Z" fill="#af1ee0"/><path d="M2627.54,2542.22h143.45L2943.34,35.4341l-51.3,5.5209-264.5,2501.265Z" opacity="0.3"/><path d="M3018.42,4149.91h171.75L3094.41,274.439l-60.23,6.022-15.76,3869.449Z" fill="#af1ee0"/><g opacity="0.3"><path d="M3018.42,4149.91h171.75L3094.41,274.439l-60.23,6.022-15.76,3869.449Z"/></g><path d="M2460.61,2425.88l-8.23,60.23h-125.78l10.14-60.23h123.87Z" opacity="0.3"/><path d="M2779.02,2425.88l-3.92,60.23h-141.63l6.42-60.23h139.13Z" opacity="0.3"/><path d="M3149.12,2486.11h-123.87l.2-60.23h122.16l1.51,60.23Z" opacity="0.3"/><path d="M3315.55,1148.25v303.24l483.83,2403.7h138.52L3315.55,1148.25Z" fill="#af1ee0"/><g opacity="0.3"><path d="M3315.55,1148.25v303.24l483.83,2403.7h138.52L3315.55,1148.25Z"/></g><path d="M3529.26,2077.36l-29.11,291.1-184.6-916.97v-303.24l213.71,929.11Z" opacity="0.3"/><path d="M3420.44,2358.93h-1344.18L2278.12,583.809h1188v5.22L3420.44,2358.93ZM2087.3,2348.89h1323.31l45.17-1755.043h-1168.72L2087.3,2348.89Z" fill="#e9e9e9"/><g id="exh3fG6Q0Wb120" transform="translate(0 0.000001)"><path d="M3415.53,2353.91h-1333.85L2282.54,588.828h1178.46L3415.53,2353.91Z" fill="#fff"/><path d="M2012.32,2433.41h1533.5l-10.04-79.5h-1513.43l-10.03,79.5Z" opacity="0.3"/><path d="M3467.12,583.107l48.38,84.319-33.12,1686.484h-62.74l47.48-1770.803Z" fill="#dbdbdb"/><path d="M2493.94,599.067h790.69l-10.04-79.501h-770.61l-10.04,79.501Z" opacity="0.3"/></g><path d="M2012.32,2433.41h1533.5l-10.04-79.5h-1513.43l-10.03,79.5Z" fill="#af1ee0"/><path d="M2493.94,599.067h790.69l-10.04-79.501h-770.61l-10.04,79.501Z" fill="#af1ee0"/></g><g><path d="M1767.19,4208.33c-22.39,7.02-658.8-6.63-682.59-22.49-9.03-5.92-12.44-98.77-13.35-210.8c0-24.29,0-49.18,0-74.68c0-30.11,0-60.23.61-90.34c1.7-132.9,5.72-249.95,5.72-249.95l414.27,7.73-4.82,249.95-1.81,90.34-3.51,74.68c0,0,240.91,114.23,265.7,134.41c24.8,20.18,42.16,84.32,19.78,91.15Z" fill="#eb9481"/><path d="M1767.19,4208.33c-22.39,7.02-658.8-6.63-682.59-22.49-9.03-5.92-12.44-98.77-13.35-210.8c0-24.29,0-49.18,0-74.68c0-30.11,0-60.23.61-90.34l415.17,7.73-1.81,90.34-3.51,74.68c0,0,240.91,114.23,265.7,134.41c24.8,20.18,42.16,84.32,19.78,91.15Z" fill="#fff"/><path d="M1769.1,4209.33c-14.56,4.52-285.69.5-482.93-7.33-45.68-1.81-87.43-3.81-121.06-5.92-46.48-3.01-77.49-6.12-82.51-9.44-11.15-7.32-13.96-143.54-13.86-287.28l416.38,7.73-3.51,75.08c0,0,242.62,114.83,267.21,135.11s42.76,84.92,20.28,92.05Z" fill="#af1ee0"/><path d="M1760.46,4183.53c-107.2-4.92-540.04-14.65-646.44-11.44-.91,0-.91.6,0,.7c106.2,7.23,539.14,13.45,646.44,12.55c2.21-.1,2.31-1.71,0-1.81Z" fill="#263238"/><path d="M1497.27,3958.68c-42.06-8.83-93.76-3.41-126.68,25.9-1.31,1.2,0,3.01,1.7,2.61c40.61-12.18,82.41-19.95,124.67-23.19.63-.08,1.21-.38,1.64-.84s.69-1.06.73-1.69c.03-.64-.16-1.26-.53-1.77-.38-.51-.92-.87-1.53-1.02Z" fill="#263238"/><path d="M1527.38,3977.65c-42.06-8.83-93.86-3.41-126.78,26-1.2,1.11,0,2.91,1.81,2.51c40.6-12.19,82.4-19.96,124.67-23.19.63-.08,1.21-.38,1.64-.84s.68-1.06.72-1.69c.03-.63-.15-1.26-.53-1.77-.37-.5-.92-.87-1.53-1.02Z" fill="#263238"/><path d="M1557.39,3996.62c-42.06-8.73-93.75-3.41-126.68,26-1.3,1.21,0,2.91,1.71,2.51c40.66-12.09,82.48-19.86,124.77-23.19.63-.09,1.2-.4,1.62-.87s.66-1.07.68-1.7c.03-.63-.17-1.25-.55-1.75-.39-.5-.93-.85-1.55-1Z" fill="#263238"/><path d="M1587.51,4015.7c-42.06-8.84-93.86-3.42-126.68,26-1.31,1.1,0,2.91,1.71,2.51c40.6-12.18,82.4-19.96,124.67-23.19.62-.08,1.2-.38,1.63-.84.44-.47.69-1.07.73-1.7.03-.63-.15-1.25-.53-1.76s-.92-.87-1.53-1.02Z" fill="#263238"/><path d="M1577.37,3862.72c-16.16-23.19-47.28-13.65-65.15.8-30.37,25.34-53.53,58.23-67.15,95.36c0,.81,0,1.31,1,1.51-.06.82.08,1.65.41,2.42.32.76.83,1.43,1.46,1.96.64.53,1.4.9,2.2,1.08.81.18,1.65.17,2.46-.04c35.13-12.15,74.18-20.78,104.49-43.37c17.77-13.25,35.44-37.74,20.28-59.72Zm-75.29,73.78c-17.16,6.32-34.53,11.84-51.39,18.87c12.45-18.9,25.85-37.16,40.15-54.71c7.06-8.43,14.71-16.34,22.89-23.69c12.75-11.24,63.04-34.43,54.6,11.65-4.01,25.49-45.87,40.25-66.25,47.88Z" fill="#263238"/><path d="M1338.06,3945.53c34.43,15.56,74.49,15.66,111.43,20.08.82.01,1.64-.17,2.38-.52.75-.36,1.4-.89,1.91-1.54.5-.65.85-1.41,1.01-2.22s.13-1.65-.09-2.45c.16-.06.31-.16.43-.28.11-.13.2-.27.26-.43.06-.17.08-.34.07-.51-.02-.17-.07-.34-.15-.48-21.26-33.33-50.89-60.5-85.93-78.8-20.58-10.04-53.1-12.95-63.84,13.15s12.35,44.87,32.52,54Zm-18.47-30.11c-18.06-43.27,36.04-31.32,50.9-23.19c9.5,5.52,18.65,11.62,27.4,18.27c17.83,14.1,34.91,29.11,51.19,44.97-17.96-3.31-36.13-5.02-54.2-7.63-21.28-2.91-65.25-8.93-75.29-33.02v.6Z" fill="#263238"/><path d="M1443.86,4207.02c-53.5-1.3-107.7-3.11-157.29-5.02-45.57-1.7-87.33-3.81-120.96-5.92-46.37-3.01-77.59-6.02-82.51-9.44-10.04-6.42-13.15-111.72-13.65-234.28c93.95,62.84,279.56,190.02,374.41,254.66Z" opacity="0.2"/><path d="M1522.26,3977.25h-472.79c0,0,25.9-1294.9,20.78-1319.39-12.15-59.23-281.063-997.58-281.063-997.58l373.413,6.43l104.7,2.31c0,0,11.74,156.19,16.26,172.75c62.33,227.66,184.19,616.33,208.99,760.48c43.06,250.24,29.71,1375,29.71,1375Z" fill="#263238"/><path d="M1506.9,3898.25c-73.68-1.9-334.96-10.04-433.34-2.31-.7,0-.7,1.31,0,1.41c33.73,5.52,359.56,3.91,433.34,2.91.13,0,.27-.03.39-.08s.23-.12.32-.21c.1-.1.17-.21.22-.33s.08-.25.08-.38c0-.14-.03-.27-.08-.39s-.12-.23-.22-.32c-.09-.1-.2-.17-.32-.22s-.26-.08-.39-.08Z" fill="#37474f"/><path d="M1107.39,2634.87c-14.15-57.52-119.452-415.97-151.673-529.2-32.222-113.23-62.437-226.86-90.342-341.29-3.514-14.46-7.027-28.91-10.942-43.37c0-1.2-2.007-.6-1.807,0c10.641,57.62,24.694,114.64,38.145,171.55c13.451,56.92,28.006,113.73,43.163,170.65c30.516,113.76,63.808,226.59,99.876,338.48c18.07,55.81,47.78,170.64,63.64,226.96c15.86,56.31-10.04,1213.59-8.43,1228.55.14.79.55,1.51,1.17,2.03.61.51,1.39.8,2.19.8.81,0,1.59-.29,2.2-.8.62-.52,1.03-1.24,1.17-2.03c2.2-108.91,25.59-1165.51,11.64-1222.33Z" fill="#37474f"/><path d="M1162.8,1667.21c0,0-91.24,995.97-92.35,991.15-11.74-57.32-264.5-939.76-280.36-994.86c0-1.81-.702-2.71-.702-2.71l373.412,6.42Z" fill="#37474f"/><path d="M1264.79,4262.93c-22.49,6.93-658.897-6.72-682.587-22.48-9.034-5.92-12.548-98.88-13.451-210.8c0-24.19,0-49.19,0-74.68c0-30.12,0-60.23.602-90.34c1.707-133.01,15.358-249.95,15.358-249.95l404.632,7.63-4.818,249.94-1.707,90.35-3.513,74.68c0,0,240.914,114.23,265.604,134.51c24.69,20.27,42.16,84.32,19.88,91.14Z" fill="#eb9481"/><path d="M1264.79,4262.93c-22.49,6.93-658.897-6.72-682.587-22.48-9.034-5.92-12.548-98.88-13.451-210.8c0-24.19,0-49.19,0-74.68c0-30.12,0-60.23.602-90.34l415.172,7.62-1.707,90.35-3.513,74.68c0,0,240.914,114.23,265.604,134.51c24.69,20.27,42.16,84.32,19.88,91.14Z" fill="#fff"/><path d="M1266.69,4263.84c-14.65,4.51-285.677.5-483.024-7.23-45.673-1.81-87.431-3.92-121.058-5.92-46.376-3.02-77.493-6.13-82.512-9.44-11.042-7.43-13.953-143.64-13.752-287.29l416.375,7.63-3.613,75.09c0,0,242.714,114.83,267.214,135.21c24.49,20.38,42.76,84.92,20.37,91.95Z" fill="#af1ee0"/><path d="M1258.06,4238.04c-107.3-4.92-540.143-14.66-646.546-11.34-.803,0-.803.6,0,.6c106.202,7.23,539.136,13.55,646.446,12.55c2.31,0,2.31-1.61.1-1.81Z" fill="#263238"/><path d="M994.765,4013.19c-41.959-8.84-93.755-3.42-126.679,26-1.305,1.1,0,2.91,1.706,2.51c40.638-12.19,82.47-19.97,124.772-23.19.623-.1,1.194-.41,1.614-.88.419-.47.662-1.07.686-1.7s-.173-1.25-.556-1.75-.929-.85-1.543-.99Z" fill="#263238"/><path d="M1024.88,4032.16c-42.061-8.73-93.857-3.41-126.681,26-1.305,1.1,0,2.91,1.706,2.51c40.617-12.13,82.41-19.91,124.675-23.19.62-.08,1.2-.38,1.64-.84.43-.47.68-1.06.72-1.7.03-.63-.15-1.25-.53-1.76s-.92-.87-1.53-1.02Z" transform="translate(0 0.000001)" fill="#263238"/><path d="M1054.99,4051.23c-42.06-8.83-93.853-3.41-126.778,26-1.204,1.1,0,2.91,1.807,2.51c40.603-12.19,82.401-19.96,124.671-23.19.63-.08,1.21-.38,1.64-.84s.69-1.06.72-1.69c.04-.64-.15-1.26-.53-1.77-.37-.51-.91-.87-1.53-1.02Z" fill="#263238"/><path d="M1085.01,4070.2c-42.06-8.73-93.759-3.41-126.683,26-1.305,1.11,0,2.91,1.706,2.51c40.617-12.16,82.407-19.97,124.677-23.29.58-.12,1.1-.43,1.49-.88s.61-1.02.65-1.61c.03-.6-.13-1.18-.46-1.68-.34-.49-.82-.86-1.38-1.05Z" fill="#263238"/><path d="M1074.87,3917.22c-16.06-23.18-47.18-13.55-65.15.81-30.345,25.34-53.474,58.23-67.053,95.36-.089.15-.136.33-.135.51.002.18.051.35.143.51.093.15.224.28.382.36.157.09.335.13.514.12c0,3.22,2.911,6.73,6.524,5.42c35.133-12.14,74.185-20.77,104.595-43.36c17.77-13.15,35.44-37.74,20.18-59.73ZM999.583,3991c-17.165,6.43-34.431,11.95-51.395,18.98c12.424-18.96,25.826-37.25,40.152-54.81c7.058-8.43,14.71-16.35,22.89-23.69c12.74-11.14,63.04-34.43,54.6,11.74-4.31,25.4-45.77,40.15-66.247,47.78Z" fill="#263238"/><path d="M835.562,4000.04c34.531,15.56,74.482,15.66,111.422,20.07c3.814.51,5.822-3.51,5.22-6.72.171-.05.328-.14.458-.26s.228-.27.287-.44.077-.34.052-.52-.092-.34-.195-.49c-21.236-33.32-50.871-60.46-85.925-78.7-20.076-10.03-53.001-13.05-63.842,13.05s12.447,44.97,32.523,54.01Zm-18.369-30.12c-18.169-43.26,35.936-31.31,50.792-23.08c9.563,5.42,18.721,11.52,27.404,18.27c17.849,14.03,34.938,29.01,51.194,44.87-17.968-3.32-36.137-4.92-54.206-7.53-21.581-3.52-65.247-9.04-75.184-32.93v.4Z" fill="#263238"/><path d="M1006.71,4025.23l-458.736-8.43c0,0,118.649-1883.53,112.927-1972.46-7.227-109.02-3.915-307.37,65.147-385.06l446.992,8.23c0,0-11.85,144.95-26.4,190.72c0,0-57.02,34.53-77.59,45.88l-62.34,2121.12Z" fill="#263238"/><path d="M994.061,3944.03c-69.563-3.12-49.487-3.22-119.15-5.53-34.029-1.2-257.876-8.43-289.797-3.91-.187,0-.365.07-.497.21-.132.13-.206.31-.206.49c0,.19.074.37.206.5s.31.21.497.21c31.72,6.02,255.567,9.43,289.596,10.03c69.663.91,50.19,0,119.351,0c.267,0,.522-.1.71-.29s.294-.44.294-.71-.106-.52-.294-.71-.443-.29-.71-.29Z" fill="#37474f"/><path d="M1160.19,1847.59c-44.3,20.42-86.78,44.56-126.98,72.18-.33.18-.58.49-.68.86s-.06.76.13,1.09c.18.34.5.58.86.68.37.11.76.06,1.1-.13c42.96-22.68,86.92-44.76,128.48-69.76c3.31-1.91.5-6.42-2.91-4.92Z" fill="#37474f"/><path d="M1103.38,1840.16c-2.79,8.61-4.97,17.4-6.53,26.3-1.96,6.92-2.54,14.15-1.71,21.28c0,1.31,2.11,1.31,2.81,0c3.5-6.68,5.97-13.86,7.33-21.28c2.31-8.13,4.72-16.26,6.83-24.49c1.3-5.02-6.93-7.13-8.73-1.81Z" fill="#37474f"/><path d="M1100.16,1796.8c1.41-7.43,2.71-14.86,4.22-22.28c1.51-7.43,3.61-15.36,4.52-23.09c0-1.21,2.1-.91,1.9,0-1.3,7.43-1.6,15.16-2.3,22.68-.71,7.53-1.61,15.16-2.51,22.69-1.71,14.05-4.32,28.21-7.43,42.06c7.41-1.13,14.48-3.91,20.68-8.13c5.97-5.74,9.98-13.23,11.44-21.38c2.41-8.43,4.42-17.07,6.83-25.5c3.2-9.27,5.59-18.81,7.12-28.51c0-1.2,2.01-.8,1.91,0-2.17,20.45-6.37,40.62-12.55,60.23-1.28,7.87-5.38,15.01-11.54,20.08-7.82,4.04-16.41,6.4-25.2,6.92-1,.51-2.51,0-2.41-1.2c1.21-14.46,2.71-29.71,5.32-44.57Z" fill="#37474f"/><path d="M733.476,2039.92c-2.61-32.92-7.328-65.65-10.038-98.47-5.486-65.93-.231-132.31,15.559-196.55.016-.23-.05-.46-.186-.65s-.334-.33-.56-.39-.465-.04-.677.06-.384.27-.484.48c-11.945,56.92-22.485,113.93-20.678,172.35c1.806,58.42,10.941,115.34,10.74,173.46s-5.822,117.54-10.64,176.07l-14.655,176.87c-20.076,236.89-38.145,704.16-57.016,941.16-5.22,66.18-10.306,132.33-15.258,198.45-5.119,67.35-12.949,233.38-16.663,301.14c0,5.82,8.331,5.52,8.934,0c12.346-118.75,22.184-336.88,32.021-455.93s18.771-235.79,28.106-353.64c9.336-117.84,18.671-466.06,27.906-584.01c4.617-58.95,9.101-117.88,13.451-176.76c4.517-58.73,10.038-117.45,11.945-176.27c1.17-32.47.567-64.97-1.807-97.37Z" fill="#37474f"/><path d="M897.296,1743.7c-.082-.17-.211-.31-.371-.41-.159-.1-.344-.16-.533-.16-.188,0-.373.06-.533.16s-.288.24-.37.41c-2.823,7.69-4.382,15.8-4.617,23.99-1.497,8.8-3.713,17.46-6.626,25.9-5.207,17.04-14.754,32.43-27.704,44.67-28.609,25.79-66.452,34.83-102.89,43.06-1.405,0-.903,2.11,0,2.21c21.517,1.32,43.081-1.65,63.44-8.73c18.172-5.22,35.037-14.22,49.488-26.4c13.693-12.65,23.187-29.18,27.202-47.38c2.111-9.51,3.321-19.18,3.614-28.91c0-4.62,0-9.34,0-13.96.901-4.78.867-9.68-.1-14.45Z" fill="#37474f"/><path d="M978.704,495.575c39.246-29.411,137.016-44.066,199.356,21.181c93.15,97.669,43.97,413.966,20.98,457.933c0,0-215.919,43.561-395.298-63.24c0,0,108.712-208.991,128.286-314.289c11.644-62.938,24.292-85.223,46.676-101.585Z" fill="#263238"/><path d="M909.341,680.375c-.903,2.007-1.706,3.915-2.61,5.822-11.752,24.4-25.696,47.684-41.657,69.563-14.628,21.312-32.24,40.412-52.298,56.715c0,0-1.305,0-.703-.803c19.686-17.612,36.397-38.289,49.487-61.232c13.73-21.871,26.165-44.529,37.241-67.857c22.808-47.22,39.666-97.089,50.19-148.462c0-1.003,1.907-.702,1.807,0-.903,7.228-1.907,14.455-3.112,21.582.146-.02.294-.005.433.045.138.05.262.133.361.242s.17.24.206.383c.037.142.038.291.004.434-7.37,47.965-19.613,95.052-36.538,140.532-18.248,44.981-42.492,87.289-72.073,125.776-16.202,21.554-33.701,42.103-52.398,61.533c51.974-60.606,93.128-129.706,121.66-204.273Z" fill="#263238"/><path d="M1151.36,503.506c97.57,77.493,112.52,208.187,97.97,321.215-7.65,45.19-18.66,89.748-32.93,133.305c0,.602-1.2,0-1,0c14.66-59.124,32.02-149.566,29.31-210.798-2.51-56.715-10.64-115.939-36.54-167.835-13.61-28.516-33.32-53.7-57.72-73.779-.9-1.406,0-2.912.91-2.108Z" fill="#263238"/><g id="exh3fG6Q0Wb163" transform="translate(.000002 0.000001)"><path d="M1110.3,993.761c17.77,66.949,156.29,382.849,290.3,438.559c80.3,33.53,359.86-128.59,405.74-174.36c21.08-21.08-106.91-227.06-135.92-213.81-33.12,15.16-218.32,144.35-231.68,140.53-22.88-6.92-163.71-176.16-264.9-246.63-59.92-42.36-76.09,8.231-63.54,55.711Z" fill="#eb9481"/><path d="M1716.9,1300.02c20.07-3.51,100.38-16.46,157.09-79.8c6.02-52.2,25.7-161.91,31.92-189.02c1.91-31.416,13.65-77.491,16.67-76.788c5.62,1.405,25.49,6.023,50.19,10.038c32.52,4.919,73.17,8.332,100.38.502c6.43-1.081,12.45-3.909,17.39-8.175c4.93-4.266,8.61-9.806,10.61-16.017c5.22-22.184-42.86-35.735-98.47-56.915-75.69-28.809-162.32-67.957-200.76-46.877-56.31,31.218-85.12,115.135-100.38,140.531-21.88,36.141-56.51,82.011-56.51,82.011c6.12,156.19,58.12,243.02,71.87,240.51Z" fill="#eb9481"/><path d="M2152.95,990.75c0,0-100.38-19.173-202.57-43.465s-333.46-31.72-338.68-24.693c-5.22,7.026,223.65,61.131,327.34,72.775c103.69,11.643,208.69,16.963,208.69,16.963l5.22-21.58Z" fill="#af1ee0"/><path d="M2155.36,989.946l-68.26-16.261-5.12,37.645l68.96,4.01l4.42-25.394Z" fill="#dbdbdb"/><path d="M2155.36,989.946c8.06-3.41,16.81-4.852,25.54-4.207c8.73.646,17.18,3.362,24.65,7.921c6.12,4.012,13.01,6.72,20.23,7.94c7.22,1.23,14.62.95,21.73-.81c0,0-48.69,46.67-96.77,14.55l4.62-25.394Z" fill="#263238"/><path d="M2250.32,1000.08c-3.62-1.702-20.08,4.32-33.63-2.103-13.55-6.424-29.31,33.523-10.04,28.403c21.78-5.82,50.29-22.58,43.67-26.3Z" fill="#455a64"/><path d="M1840.16,1246.92c20.08-12.15,145.35-121.26,159.41-156.19c14.05-34.93,111.92-90.34,53.5-111.223-58.42-20.879-132.7,78.093-144.65,66.653-2.58-4.53-3.47-9.83-2.51-14.96-6.22,27.11-59.72,163.32-65.75,215.72Z" fill="#eb9481"/><path d="M1268.6,1346.19l105.8-246.63c0,0-98.67-101.483-197.25-168.637-98.57-67.154-107,35.334-35.53,180.077c71.47,144.75,126.98,235.19,126.98,235.19Z" fill="#af1ee0"/><path d="M1238.79,1277.64c20.58-54.21,45.07-107.01,70.26-159.31c7.16-14.79,14.69-29.38,22.59-43.76c0,0,.9,0,.7,0-10.94,26.9-22.88,53.3-34.73,80.3-11.84,27-23.89,53-36.54,79.2-7.12,14.86-14.15,30.11-21.58,44.27c0,.3-1,0-.7-.7Z" fill="#263238"/><path d="M1346.9,1163.8l-78.3,182.5c0,0-55.61-90.35-126.98-235.19-38.85-78.8-54.1-145.054-44.07-178.38c58.83,68.06,180.29,171.45,249.35,231.07Z" opacity="0.1"/></g><path d="M656.785,1753.03c1.506,1.81,680.875-3.51,687.005-10.03c8.53-10.04-152.88-744.22-223.55-834.462-15.16-19.273-64.44-24.091-106.2-18.47-10.89,1.388-21.635,3.705-32.124,6.927h-1.105c-8.427,2.63-16.363,6.632-23.489,11.844C841.986,1003,747.529,1328.83,725.746,1426.6c-36.137,160.81-74.883,320.01-68.961,326.43Z" fill="#af1ee0"/><path d="M836.064,1223.03l30.114,2.21c1.204-3.32,25.396-55.41,31.419-66.66c12.146-22.78,25.597-45.07,38.746-67.35.04-.07.093-.14.158-.19.064-.05.138-.09.217-.11.079-.03.162-.03.244-.02.082,0,.162.03.234.07.073.04.137.09.189.16.052.06.09.13.114.21.023.08.03.17.022.25-.009.08-.034.16-.074.23-9.335,19.48-18.369,39.15-28.006,58.62c2.41-2.61,4.718-5.22,6.927-7.93c4.617-5.42,8.833-11.24,13.149-16.86c0,0,1.205,0,.904.6-4.228,8.11-9.492,15.64-15.659,22.39-2.634,2.92-5.451,5.67-8.432,8.23l-2.409,4.82c-5.822,11.34-35.033,67.25-36.037,67.05s-29.411-3.41-32.423-3.91c-.2-.21-.1-1.91.603-1.81Z" fill="#263238"/><path d="M924.398,918.576c0,0,6.725,308.364,1.104,336.374-30.616,152.98-55.309,328.04-55.309,340.09c0,5.92-210.798,64.04-210.798,64.04l-3.614,26.5l120.456,7.23c0,0-37.341,543.75-64.444,721.63-6.826,44.37-56.012,327.24-56.012,327.24s202.968,93.55,423.499,86.32c87.84-2.91,467.47-105,467.47-105s21.58-240.4-30.11-452.61c-73.48-302.14-189.02-648.85-219.93-838.27-30.12-187.41-138.63-518.663-138.63-518.663L1122.65,898.3l54.3,223.14c-58.58,6.93-117.74,7.56-176.46,1.91L965.052,903.419l-40.654,15.157Z" fill="#455a64"/><path d="M936.344,1971.66c0,0,6.825,91.95,18.068,186.81s-6.224,303.25-13.15,307.16c-6.926,3.92-31.519-207.79-31.318-301.94.2-94.16,6.424-189.52,6.424-189.52l19.976-2.51Z" fill="#37474f"/><path d="M937.247,1969.65l7.528,63.04-34.33.71l3.514-62.44l23.288-1.31Z" fill="#dbdbdb"/><path d="M937.247,1969.65c3.943-6.92,6.182-14.68,6.531-22.64s-1.201-15.89-4.524-23.13c-2.973-5.9-4.695-12.35-5.057-18.95-.363-6.6.641-13.2,2.949-19.39c0,0-47.078,38.84-23.187,85.42l23.288-1.31Z" fill="#af1ee0"/><g opacity="0.2"><path d="M937.247,1969.65c3.943-6.92,6.182-14.68,6.531-22.64s-1.201-15.89-4.524-23.13c-2.973-5.9-4.695-12.35-5.057-18.95-.363-6.6.641-13.2,2.949-19.39c0,0-47.078,38.84-23.187,85.42l23.288-1.31Z"/></g><path d="M1086.01,2057.79c0,0-40.15,64.34-85.12,128.99-44.972,64.64-112.528,222.84-109.115,228.36s103.09-138.93,139.325-207.59c36.24-68.66,68.46-140.53,68.46-140.53l-13.55-9.23Z" fill="#a6a6a6"/><path d="M1086.21,2055.88l-29.91,42.96l24.79,13.86l21.48-46.88-16.36-9.94Z" fill="#dbdbdb"/><path d="M1086.21,2055.88c11.34-38.34,49.29-63.14,49.29-63.14s2.51,48.48-32.93,73.08l-16.36-9.94Z" fill="#af1ee0"/><g opacity="0.2"><path d="M1086.21,2055.88c11.34-38.34,49.29-63.14,49.29-63.14s2.51,48.48-32.93,73.08l-16.36-9.94Z"/></g><path d="M1029.4,1949.18c0,0-6.43,75.68-10.04,154.28-3.62,78.6-44.27,245.73-50.192,248.14s1.205-173.06,13.551-249.65c12.347-76.59,30.111-153.38,30.111-153.38l16.57.61Z" fill="#263238"/><path d="M1030.4,1947.67l-2.01,52.3-28-3.92l10.94-50.39l19.07,2.01Z" fill="#dbdbdb"/><path d="M1011.33,1945.66c0,0,17.97,2.21,19.07,2.01c9.29-15.98,17.53-32.54,24.69-49.59-.8-1.6-60.928-6.32-61.831-.8-.904,5.52,18.071,48.38,18.071,48.38Z" fill="#af1ee0"/><path d="M1011.33,1945.66c0,0,17.97,2.21,19.07,2.01c9.29-15.98,17.53-32.54,24.69-49.59-.8-1.6-60.928-6.32-61.831-.8-.904,5.52,18.071,48.38,18.071,48.38Z" opacity="0.2"/><path d="M822.112,2169.21l277.448-3.41c0,0,16.06,261.79,13.65,267.21s-122.059,66.75-152.775,59.32-131.096-44.47-136.818-60.23c-5.721-15.76-1.505-262.89-1.505-262.89Z" fill="#37474f"/><path d="M1000.99,1157.28c0,3.55-1.056,7.03-3.03,9.98-1.975,2.96-4.781,5.26-8.064,6.62s-6.896,1.72-10.382,1.02c-3.485-.69-6.687-2.4-9.2-4.92-2.512-2.51-4.224-5.71-4.917-9.2-.693-3.48-.338-7.09,1.022-10.38c1.36-3.28,3.664-6.09,6.618-8.06c2.955-1.97,6.429-3.03,9.983-3.03c4.765,0,9.335,1.89,12.705,5.26s5.265,7.94,5.265,12.71Z" fill="#af1ee0"/><path d="M1212.99,1139.91c-.16,2.68-1.07,5.27-2.63,7.45-1.55,2.19-3.69,3.9-6.17,4.94-2.48,1.03-5.2,1.35-7.85.91-2.65-.43-5.12-1.6-7.14-3.37s-3.5-4.07-4.28-6.64-.82-5.3-.12-7.9c.71-2.59,2.12-4.93,4.08-6.76c1.97-1.83,4.41-3.07,7.05-3.58c7.62-1.51,15.25,5.12,17.06,14.95Z" fill="#af1ee0"/><path d="M1104.68,1001.99c-37.04,11.04-104.696-42.459-132.903-87.429-1.907-3.112,1.004-36.94,2.61-78.196.903-25.095,1.205-53,0-78.497c0-5.22,162.313,29.411,162.313,29.411-7.39,32.422-10.76,65.63-10.04,98.875.32,3.384.89,6.74,1.71,10.038.03.568.03,1.138,0,1.706c4.82,20.076,12.05,93.353-23.69,104.092Z" fill="#eb9481"/><path d="M984.024,757.969c10.038,42.661,42.866,145.249,128.386,142.137c5.46-.148,10.9-.753,16.26-1.806.07-.567.07-1.14,0-1.707-.82-3.297-1.39-6.653-1.7-10.038-.73-33.245,2.64-66.453,10.03-98.874c0,0-117.94-25.497-152.976-29.712Z" fill="#263238"/><path d="M964.751,552.993c-21.783,55.309-4.818,220.836,32.623,260.987c54.206,57.518,149.366,70.266,199.956,3.514c48.89-64.645,22.99-280.562-19.37-317.301-62.44-54.105-181.088-28.408-213.209,52.8Z" fill="#eb9481"/><path d="M1111,669.233c0,0-.9.702-.8,1.104c1.41,11.142,1.21,24.191-8.53,28.909c0,0,0,.703,0,.603c12.35-2.911,12.45-20.277,9.33-30.616Z" fill="#263238"/><g><path d="M1099.86,658.592c-18.17,0-16.06,36.539.7,36.238c16.77-.302,14.46-36.539-.7-36.238Z" fill="#263238"/><path d="M1176.05,664.415c0,0,.9,0,.9.903c0,11.242,2.51,24.091,12.85,27.203v.703c-12.54-.603-15.25-18.069-13.75-28.809Z" fill="#263238"/><path d="M1185.69,653.573c17.96-2.409,21.18,32.624,4.51,34.832-16.66,2.209-19.57-33.125-4.51-34.832Z" fill="#263238"/></g><path id="exh3fG6Q0Wb202" d="M1086.71,648.454c4.97.485,9.96.719,14.96.703c5.18.986,10.54.245,15.26-2.108c1.34-1.053,2.3-2.515,2.73-4.163.44-1.649.32-3.395-.32-4.972-1.77-2.903-4.29-5.274-7.29-6.865-3.01-1.59-6.38-2.339-9.78-2.169-6.9-.767-13.84,1.058-19.47,5.119-1.22,1.008-2.12,2.344-2.59,3.848-.48,1.505-.51,3.115-.1,4.638s1.25,2.896,2.42,3.954c1.18,1.058,2.63,1.758,4.18,2.015Z" fill="#263238"/><path id="exh3fG6Q0Wb203" d="M1200.54,618.942c-4.94.302-9.91.302-14.85,0-5.25.794-10.61-.158-15.26-2.71-1.3-1.11-2.19-2.613-2.56-4.28-.36-1.667-.17-3.407.55-4.955c1.9-2.797,4.51-5.041,7.56-6.505c3.05-1.463,6.44-2.093,9.81-1.826c6.92-.526,13.79,1.55,19.27,5.822c1.28,1.023,2.21,2.407,2.69,3.971.48,1.565.47,3.237-.01,4.798-.49,1.561-1.44,2.939-2.72,3.953-1.29,1.014-2.85,1.618-4.48,1.732Z" fill="#263238"/><path d="M1103.98,772.925c2.81,2.51,5.72,6.023,10.04,6.123c4.14-.34,8.18-1.536,11.84-3.513c0,0,.8,0,.6,0-1.41,2.386-3.44,4.34-5.89,5.65-2.44,1.31-5.19,1.925-7.96,1.778-2.31-.473-4.44-1.622-6.1-3.302-1.66-1.679-2.79-3.814-3.23-6.134-.71-.602.3-.602.7-.602Z" fill="#263238"/><path d="M1113.82,738.796c3.11,4.272,7.07,7.858,11.63,10.534c4.56,2.677,9.62,4.387,14.87,5.025c4.56.652,9.19.652,13.75,0c.86.104,1.74.104,2.61,0c.83.085,1.67.085,2.51,0c.57-.165,1.09-.504,1.46-.971.38-.467.61-1.04.65-1.639.04-.366.04-.738,0-1.104v-1.004c0-8.633-1.91-21.782-1.91-21.782c3.31,1.405,20.07,7.729,19.27,3.212-3.26-38.873-10.46-77.315-21.48-114.735-.07-.224-.21-.421-.4-.56s-.42-.215-.65-.215c-.24,0-.47.076-.66.215s-.33.336-.4.56c2.81,35.936,11.95,71.17,15.36,107.206-5.9-2.292-12.08-3.778-18.37-4.417-1.2,0,3.61,25.296,3.41,29.211-7.02,1.1-14.19.778-21.09-.946s-13.38-4.816-19.06-9.092c-1.4-1.205-2.21-.402-1.5.502Z" fill="#263238"/><path d="M1148.85,750.741c-4.66,6.224-10.85,11.135-17.97,14.254-3.94,1.649-8.3,2.001-12.45,1.004-9.03-2.209-9.33-10.038-7.83-17.567.89-3.752,2.2-7.389,3.92-10.841c9.73,7.957,21.77,12.568,34.33,13.15Z" fill="#263238"/><path d="M1130.88,764.995c-3.94,1.649-8.3,2.001-12.45,1.004-9.03-2.209-9.33-10.038-7.83-17.567c4.75.106,9.32,1.794,12.99,4.795c3.67,3,6.24,7.142,7.29,11.768Z" fill="#ff99ba"/><path d="M1098.36,782.963c2.77,3.033,6.28,5.294,10.18,6.561c3.91,1.267,8.08,1.497,12.1.666-.38,3.572-1.47,7.033-3.19,10.185-1.72,3.153-4.05,5.934-6.85,8.185l2.11-7.027c-3.56,7.359-8.91,13.709-15.56,18.47-1.87-5.145-2.22-10.722-1-16.061l-2.61,8.432c-1.47-4.948-1.8-10.164-.96-15.257.83-5.093,2.81-9.932,5.78-14.154Z" fill="#263238"/><path d="M980.711,696.536c10.038-7.027,28.609-59.626,28.609-59.626s107.31-26.902,131.5-117.745c0,0,33.72,64.544,75.08,82.211c0,0,5.82-101.083-71.47-122.464c0,0-77.09-45.873-160.607,26.3-83.516,72.173-29.411,189.919-29.411,189.919l26.299,1.405Z" fill="#263238"/><path d="M1140.52,501.297c1.22,15.894-1.9,31.821-9.04,46.075-6.32,14.51-14.71,28.033-24.89,40.152-10.02,12.504-21.99,23.315-35.44,32.021-16.06,8.739-33.35,15-51.29,18.57c0,0,0,1.104,0,1.004c18.68-3.201,36.85-8.907,54-16.964c14.6-8.337,27.7-19.059,38.75-31.72c11.76-12.043,20.83-26.448,26.6-42.26c4.63-15.252,5.62-31.373,2.91-47.079.6-1.104-1.8-1.003-1.6.201Z" fill="#263238"/><path d="M989.144,689.108c0,0-33.929-55.109-58.722-43.364-24.794,11.744-1.506,90.342,26.098,102.488c3.436,1.804,7.202,2.893,11.071,3.2c3.868.308,7.759-.172,11.437-1.411c3.678-1.238,7.067-3.209,9.961-5.794c2.895-2.585,5.235-5.73,6.88-9.246l-6.725-45.873Z" fill="#eb9481"/><path d="M937.649,668.128c0,0-.603,0,0,.703c19.373,9.135,28.708,28.106,34.831,47.58-1.034-2.04-2.496-3.833-4.288-5.254-1.791-1.422-3.869-2.44-6.091-2.983-2.221-.544-4.534-.6-6.78-.166-2.245.434-4.37,1.349-6.229,2.682-.108.046-.199.124-.263.222-.065.098-.099.212-.099.33c0,.117.034.231.099.33.064.098.155.175.263.222c3.547-.89,7.281-.664,10.694.648c3.414,1.311,6.339,3.644,8.378,6.679c3.381,5.105,6.208,10.557,8.432,16.262.803,1.807,4.015,1.104,3.513-1.004c2.008-25.697-15.458-61.834-42.46-66.251Z" fill="#263238"/><path d="M978.804,508.525c14.054-5.321,27.506-84.219-24.392-121.862-51.896-37.642-118.448,5.32-90.342,70.266c17.667,40.654,84.821,62.738,114.734,51.596Z" fill="#263238"/><path d="M881.737,382.046c-15.456,12.816-26.079,30.521-30.114,50.19-2.068,9.12-1.701,18.623,1.066,27.556c2.766,8.933,7.834,16.981,14.694,23.336c14.573,12.955,32.418,21.669,51.595,25.196c9.735,2.15,19.648,3.393,29.612,3.714c10.156.73,20.36-.393,30.114-3.313-9.278,5.094-19.554,8.108-30.114,8.834-10.457,1.037-20.999.869-31.419-.502-21.473-2.426-41.67-11.437-57.818-25.798-8.156-7.709-14.055-17.495-17.065-28.307-2.717-10.767-2.51-22.064.602-32.724c2.818-10.269,7.721-19.848,14.405-28.138c6.684-8.289,15.004-15.113,24.442-20.044Z" fill="#263238"/><path d="M1112.61,1585.4c36.27,9.81,73.16,17.18,110.42,22.08c41.16,2.68,82.46,2.34,123.57-1c.26,0,.52.11.71.29.18.19.29.45.29.71c0,.27-.11.53-.29.71-.19.19-.45.3-.71.3-78.79,14.49-160.04,7.06-234.89-21.48-1.71-1.01-1.41-2.11.9-1.61Z" fill="#263238"/><path d="M1081.69,1657.67c36.34,6.53,100.38,17.67,213.91,1.31c0,0,.61,0,0,.6-70.08,19.93-144.33,19.93-214.41,0-2.01-.7-1.91-2.31.5-1.91Z" fill="#263238"/><path d="M1066.14,1696.92c62.13,8.73,102.48,6.43,167.93,0c0,0,.6.6,0,.7-73.68,15.26-102.19,12.45-168.74,1.51-2.11-.5-1.7-2.71.81-2.21Z" fill="#263238"/><g id="exh3fG6Q0Wb218" transform="translate(.000002 0.000002)"><path d="M1148.75,1452.5c157.29-45.37,609.7-18.97,611.71,89.13c2.41,128.79-696.23,123.37-696.43,36.24c0-48.48,161.21-41.46,160.6-69.76-.3-21.58-131.49-39.55-75.88-55.61Z" fill="#af1ee0"/><path d="M1148.75,1441.15c157.29-45.37,609.7-18.97,611.71,89.14c2.41,128.79-696.23,123.37-696.43,36.24c0-48.49,161.21-41.46,160.6-69.67-.3-21.28-131.49-39.65-75.88-55.71Z" fill="#af1ee0"/><path d="M959.23,994.363c-32.724,95.867-232.881,449.297-233.985,468.277c0,0-223.045,105.9-239.105-17.97-16.061-123.87,237.8-368.3,364.68-465.063c64.143-48.885,135.211-63.44,108.41,14.756Z" fill="#eb9481"/><path d="M964.651,1397.79c32.422,10.04.803,281.77-48.685,274.04-203.971-31.72-362.572-128.29-397.705-167.04-44.368-48.88-40.854-97.36-13.35-126.37c39.75-42.16,427.618,9.03,459.74,19.37Z" fill="#eb9481"/><path d="M1148.75,1452.5c157.29-45.37,609.7-18.97,611.71,89.13c2.41,128.79-696.23,123.37-696.43,36.24c0-48.48,161.21-41.46,160.6-69.76-.3-21.58-131.49-39.55-75.88-55.61Z" opacity="0.3"/><path d="M1148.75,1441.15c157.29-45.37,609.7-18.97,611.71,89.14c2.41,128.79-696.23,123.37-696.43,36.24c0-48.49,161.21-41.46,160.6-69.67-.3-21.28-131.49-39.65-75.88-55.71Z" opacity="0.2"/><path d="M872.703,1660.89c97.067,32.52,216.017,78.79,328.947,54.8c12.62-2.34,24.09-8.89,32.52-18.57c50.79-10.04,61.43-36.84,61.43-36.84c44.47-23.69,51.6-52.7,51.6-52.7s59.52-12.24,58.12-49.48c-1.51-41.76-84.82-16.37-139.13-30.12-124.57-32.32-311.175-117.84-345.806-130.49l-47.681,263.4Z" fill="#eb9481"/><path d="M1285.06,1546.35c9.65,1.36,18.62,5.75,25.6,12.55c1.87,1.75,3.31,3.92,4.2,6.32.9,2.4,1.22,4.98.95,7.53s-1.13,5-2.52,7.16c-1.38,2.16-3.24,3.97-5.44,5.29-20.08,12.95-72.68,10.64-78.4-19.07-5.12-27.01,31.42-26,55.61-19.78Z" fill="#455a64"/><path d="M1409.23,1584.8l-2.91-1.21c-3.18-1.02-6.19-2.51-8.93-4.41-2.76-1.9-5-4.45-6.53-7.43-1.23-1.83-1.83-4.02-1.7-6.23.06-3.13,1.04-6.17,2.83-8.74c1.78-2.58,4.29-4.56,7.21-5.71c9.35-3.31,19.18-5.07,29.11-5.22c14.25-2.21,24.39-10.74,39.24-9.54c16.37,1.41,35.54,10.04,38.85,24.9c8.73,39.35-75.18,31.62-97.17,23.59Z" fill="#263238"/><path d="M1294.5,1475.58c5.52,14.66,21.58,14.56,34.83,14.06s26.4-.81,39.55-1.41c8.56.91,17.18-.96,24.59-5.32l1.11-1.3c2.3-1.28,4.11-3.28,5.14-5.7c1.04-2.42,1.24-5.11.58-7.65-1.91-11.65-13.85-14.76-24.79-16.97-3.88-1.19-7.84-2.06-11.85-2.61-17.87-4.82-38.04-13.55-55.91-4.11-5.57,2.72-9.97,7.35-12.4,13.04s-2.73,12.07-.85,17.97Z" fill="#c7c7c7"/><path d="M1464.54,1456.31c-16.16,20.08,13.96,35.23,30.12,36.94s61.33,4.22,59.02-20.07c-1.2-14.76-16.96-19.58-32.12-20.08-19.88-7.03-46.08-10.44-57.02,3.21Z" fill="#af1ee0"/><path d="M1679.36,1504.49c18.97,22.09-6.63,46.68-28.31,50.8-17.09,2.49-34.41,2.93-51.6,1.3-5.5.37-10.96-1.09-15.54-4.16s-8.01-7.57-9.75-12.8c-4.92-23.39,18.07-32.43,39.45-35.84c22.78-10.24,51.09-16.96,65.75.7Z" fill="#ebebeb"/><path d="M1118.53,1479.3c-14.55-10.64-9.03-18.37,22.99-19.48c32.02-1.1,159.7,21.49,163.82-23.68c4.12-45.18-176.17-65.85-229.57-68.66-56.21-2.03-112.129,8.93-163.417,32.02c33.928,12.74,140.027,53.9,206.177,79.8Z" fill="#eb9481"/><path d="M600.673,1192.41l266.107,35.44c0,0,71.069-122.47,109.213-235.495c38.147-113.027-62.938-93.453-183.093,14.355-120.154,107.81-192.227,185.7-192.227,185.7Z" fill="#af1ee0"/><path d="M651.441,1153.01c57.819,5.22,115.236,14.55,172.453,24.99c16.161,2.91,32.222,6.23,48.282,10.04c0,0,0,.8,0,.7-28.809-3.21-57.417-7.63-86.125-11.84-28.709-4.22-57.518-8.74-86.126-13.85-16.162-2.82-32.323-5.73-48.484-8.84-.803-.3-.803-1.3,0-1.2Z" fill="#263238"/><path d="M767.681,1373.34c-40.514-7.64-81.85-9.97-122.965-6.93-.904,0-1.004,1.51,0,1.51c64.745,2.81,102.588,7.63,123.266,9.13c6.324.41,11.845-.8-.301-3.71Z" transform="translate(.000001 0)" fill="#263238"/></g></g></g>
<script><![CDATA[
!function(t,n){"object"==typeof exports&&"undefined"!=typeof module?module.exports=n():"function"==typeof __SVGATOR_DEFINE__&&__SVGATOR_DEFINE__.amd?__SVGATOR_DEFINE__(n):((t="undefined"!=typeof globalThis?globalThis:t||self).__SVGATOR_PLAYER__=t.__SVGATOR_PLAYER__||{},t.__SVGATOR_PLAYER__["5c7f360c"]=n())}(this,(function(){"use strict";function t(t,n){var e=Object.keys(t);if(Object.getOwnPropertySymbols){var r=Object.getOwnPropertySymbols(t);n&&(r=r.filter((function(n){return Object.getOwnPropertyDescriptor(t,n).enumerable}))),e.push.apply(e,r)}return e}function n(n){for(var e=1;e<arguments.length;e++){var r=null!=arguments[e]?arguments[e]:{};e%2?t(Object(r),!0).forEach((function(t){u(n,t,r[t])})):Object.getOwnPropertyDescriptors?Object.defineProperties(n,Object.getOwnPropertyDescriptors(r)):t(Object(r)).forEach((function(t){Object.defineProperty(n,t,Object.getOwnPropertyDescriptor(r,t))}))}return n}function e(t){return(e="function"==typeof Symbol&&"symbol"==typeof Symbol.iterator?function(t){return typeof t}:function(t){return t&&"function"==typeof Symbol&&t.constructor===Symbol&&t!==Symbol.prototype?"symbol":typeof t})(t)}function r(t,n){if(!(t instanceof n))throw new TypeError("Cannot call a class as a function")}function i(t,n){for(var e=0;e<n.length;e++){var r=n[e];r.enumerable=r.enumerable||!1,r.configurable=!0,"value"in r&&(r.writable=!0),Object.defineProperty(t,r.key,r)}}function o(t,n,e){return n&&i(t.prototype,n),e&&i(t,e),t}function u(t,n,e){return n in t?Object.defineProperty(t,n,{value:e,enumerable:!0,configurable:!0,writable:!0}):t[n]=e,t}function a(t){return(a=Object.setPrototypeOf?Object.getPrototypeOf:function(t){return t.__proto__||Object.getPrototypeOf(t)})(t)}function l(t,n){return(l=Object.setPrototypeOf||function(t,n){return t.__proto__=n,t})(t,n)}function s(){if("undefined"==typeof Reflect||!Reflect.construct)return!1;if(Reflect.construct.sham)return!1;if("function"==typeof Proxy)return!0;try{return Boolean.prototype.valueOf.call(Reflect.construct(Boolean,[],(function(){}))),!0}catch(t){return!1}}function f(t,n,e){return(f=s()?Reflect.construct:function(t,n,e){var r=[null];r.push.apply(r,n);var i=new(Function.bind.apply(t,r));return e&&l(i,e.prototype),i}).apply(null,arguments)}function c(t,n){if(n&&("object"==typeof n||"function"==typeof n))return n;if(void 0!==n)throw new TypeError("Derived constructors may only return object or undefined");return function(t){if(void 0===t)throw new ReferenceError("this hasn't been initialised - super() hasn't been called");return t}(t)}function h(t,n,e){return(h="undefined"!=typeof Reflect&&Reflect.get?Reflect.get:function(t,n,e){var r=function(t,n){for(;!Object.prototype.hasOwnProperty.call(t,n)&&null!==(t=a(t)););return t}(t,n);if(r){var i=Object.getOwnPropertyDescriptor(r,n);return i.get?i.get.call(e):i.value}})(t,n,e||t)}function v(t){return function(t){if(Array.isArray(t))return y(t)}(t)||function(t){if("undefined"!=typeof Symbol&&null!=t[Symbol.iterator]||null!=t["@@iterator"])return Array.from(t)}(t)||function(t,n){if(!t)return;if("string"==typeof t)return y(t,n);var e=Object.prototype.toString.call(t).slice(8,-1);"Object"===e&&t.constructor&&(e=t.constructor.name);if("Map"===e||"Set"===e)return Array.from(t);if("Arguments"===e||/^(?:Ui|I)nt(?:8|16|32)(?:Clamped)?Array$/.test(e))return y(t,n)}(t)||function(){throw new TypeError("Invalid attempt to spread non-iterable instance.\nIn order to be iterable, non-array objects must have a [Symbol.iterator]() method.")}()}function y(t,n){(null==n||n>t.length)&&(n=t.length);for(var e=0,r=new Array(n);e<n;e++)r[e]=t[e];return r}function g(t,n,e){if(Number.isInteger(t))return t;var r=Math.pow(10,n);return Math[e]((+t+Number.EPSILON)*r)/r}Number.isInteger||(Number.isInteger=function(t){return"number"==typeof t&&isFinite(t)&&Math.floor(t)===t}),Number.EPSILON||(Number.EPSILON=2220446049250313e-31);var d=p(Math.pow(10,-6));function p(t){var n=arguments.length>1&&void 0!==arguments[1]?arguments[1]:6;return g(t,n,"round")}function m(t,n){var e=arguments.length>2&&void 0!==arguments[2]?arguments[2]:d;return Math.abs(t-n)<e}p(Math.pow(10,-2)),p(Math.pow(10,-4));var b=Math.PI/180;function w(t){return t}function A(t,n,e){var r=1-e;return 3*e*r*(t*r+n*e)+e*e*e}function _(){var t=arguments.length>0&&void 0!==arguments[0]?arguments[0]:0,n=arguments.length>1&&void 0!==arguments[1]?arguments[1]:0,e=arguments.length>2&&void 0!==arguments[2]?arguments[2]:1,r=arguments.length>3&&void 0!==arguments[3]?arguments[3]:1;return t<0||t>1||e<0||e>1?null:m(t,n)&&m(e,r)?w:function(i){if(i<=0)return t>0?i*n/t:0===n&&e>0?i*r/e:0;if(i>=1)return e<1?1+(i-1)*(r-1)/(e-1):1===e&&t<1?1+(i-1)*(n-1)/(t-1):1;for(var o,u=0,a=1;u<a;){var l=A(t,e,o=(u+a)/2);if(m(i,l))break;l<i?u=o:a=o}return A(n,r,o)}}function x(){return 1}function k(t){return 1===t?1:0}function S(){var t=arguments.length>0&&void 0!==arguments[0]?arguments[0]:1,n=arguments.length>1&&void 0!==arguments[1]?arguments[1]:0;if(1===t){if(0===n)return k;if(1===n)return x}var e=1/t;return function(t){return t>=1?1:(t+=n*e)-t%e}}var O=Math.sin,j=Math.cos,M=Math.acos,E=Math.asin,P=Math.tan,I=Math.atan2,R=Math.PI/180,F=180/Math.PI,N=Math.sqrt,T=function(){function t(){var n=arguments.length>0&&void 0!==arguments[0]?arguments[0]:1,e=arguments.length>1&&void 0!==arguments[1]?arguments[1]:0,i=arguments.length>2&&void 0!==arguments[2]?arguments[2]:0,o=arguments.length>3&&void 0!==arguments[3]?arguments[3]:1,u=arguments.length>4&&void 0!==arguments[4]?arguments[4]:0,a=arguments.length>5&&void 0!==arguments[5]?arguments[5]:0;r(this,t),this.m=[n,e,i,o,u,a],this.i=null,this.w=null,this.s=null}return o(t,[{key:"determinant",get:function(){var t=this.m;return t[0]*t[3]-t[1]*t[2]}},{key:"isIdentity",get:function(){if(null===this.i){var t=this.m;this.i=1===t[0]&&0===t[1]&&0===t[2]&&1===t[3]&&0===t[4]&&0===t[5]}return this.i}},{key:"point",value:function(t,n){var e=this.m;return{x:e[0]*t+e[2]*n+e[4],y:e[1]*t+e[3]*n+e[5]}}},{key:"translateSelf",value:function(){var t=arguments.length>0&&void 0!==arguments[0]?arguments[0]:0,n=arguments.length>1&&void 0!==arguments[1]?arguments[1]:0;if(!t&&!n)return this;var e=this.m;return e[4]+=e[0]*t+e[2]*n,e[5]+=e[1]*t+e[3]*n,this.w=this.s=this.i=null,this}},{key:"rotateSelf",value:function(){var t=arguments.length>0&&void 0!==arguments[0]?arguments[0]:0;if(t%=360){var n=O(t*=R),e=j(t),r=this.m,i=r[0],o=r[1];r[0]=i*e+r[2]*n,r[1]=o*e+r[3]*n,r[2]=r[2]*e-i*n,r[3]=r[3]*e-o*n,this.w=this.s=this.i=null}return this}},{key:"scaleSelf",value:function(){var t=arguments.length>0&&void 0!==arguments[0]?arguments[0]:1,n=arguments.length>1&&void 0!==arguments[1]?arguments[1]:1;if(1!==t||1!==n){var e=this.m;e[0]*=t,e[1]*=t,e[2]*=n,e[3]*=n,this.w=this.s=this.i=null}return this}},{key:"skewSelf",value:function(t,n){if(n%=360,(t%=360)||n){var e=this.m,r=e[0],i=e[1],o=e[2],u=e[3];t&&(t=P(t*R),e[2]+=r*t,e[3]+=i*t),n&&(n=P(n*R),e[0]+=o*n,e[1]+=u*n),this.w=this.s=this.i=null}return this}},{key:"resetSelf",value:function(){var t=arguments.length>0&&void 0!==arguments[0]?arguments[0]:1,n=arguments.length>1&&void 0!==arguments[1]?arguments[1]:0,e=arguments.length>2&&void 0!==arguments[2]?arguments[2]:0,r=arguments.length>3&&void 0!==arguments[3]?arguments[3]:1,i=arguments.length>4&&void 0!==arguments[4]?arguments[4]:0,o=arguments.length>5&&void 0!==arguments[5]?arguments[5]:0,u=this.m;return u[0]=t,u[1]=n,u[2]=e,u[3]=r,u[4]=i,u[5]=o,this.w=this.s=this.i=null,this}},{key:"recomposeSelf",value:function(){var t=arguments.length>0&&void 0!==arguments[0]?arguments[0]:null,n=arguments.length>1&&void 0!==arguments[1]?arguments[1]:null,e=arguments.length>2&&void 0!==arguments[2]?arguments[2]:null,r=arguments.length>3&&void 0!==arguments[3]?arguments[3]:null,i=arguments.length>4&&void 0!==arguments[4]?arguments[4]:null;return this.isIdentity||this.resetSelf(),t&&(t.x||t.y)&&this.translateSelf(t.x,t.y),n&&this.rotateSelf(n),e&&(e.x&&this.skewSelf(e.x,0),e.y&&this.skewSelf(0,e.y)),!r||1===r.x&&1===r.y||this.scaleSelf(r.x,r.y),i&&(i.x||i.y)&&this.translateSelf(i.x,i.y),this}},{key:"decompose",value:function(){var t=arguments.length>0&&void 0!==arguments[0]?arguments[0]:0,n=arguments.length>1&&void 0!==arguments[1]?arguments[1]:0,e=this.m,r=e[0]*e[0]+e[1]*e[1],i=[[e[0],e[1]],[e[2],e[3]]],o=N(r);if(0===o)return{origin:{x:p(e[4]),y:p(e[5])},translate:{x:p(t),y:p(n)},scale:{x:0,y:0},skew:{x:0,y:0},rotate:0};i[0][0]/=o,i[0][1]/=o;var u=e[0]*e[3]-e[1]*e[2]<0;u&&(o=-o);var a=i[0][0]*i[1][0]+i[0][1]*i[1][1];i[1][0]-=i[0][0]*a,i[1][1]-=i[0][1]*a;var l=N(i[1][0]*i[1][0]+i[1][1]*i[1][1]);if(0===l)return{origin:{x:p(e[4]),y:p(e[5])},translate:{x:p(t),y:p(n)},scale:{x:p(o),y:0},skew:{x:0,y:0},rotate:0};i[1][0]/=l,i[1][1]/=l,a/=l;var s=0;return i[1][1]<0?(s=M(i[1][1])*F,i[0][1]<0&&(s=360-s)):s=E(i[0][1])*F,u&&(s=-s),a=I(a,N(i[0][0]*i[0][0]+i[0][1]*i[0][1]))*F,u&&(a=-a),{origin:{x:p(e[4]),y:p(e[5])},translate:{x:p(t),y:p(n)},scale:{x:p(o),y:p(l)},skew:{x:p(a),y:0},rotate:p(s)}}},{key:"clone",value:function(){var t=this.m;return new this.constructor(t[0],t[1],t[2],t[3],t[4],t[5])}},{key:"toString",value:function(){var t=arguments.length>0&&void 0!==arguments[0]?arguments[0]:" ";if(null===this.s){var n=this.m.map((function(t){return p(t)}));1===n[0]&&0===n[1]&&0===n[2]&&1===n[3]?this.s="translate("+n[4]+t+n[5]+")":this.s="matrix("+n.join(t)+")"}return this.s}}],[{key:"create",value:function(t){return t?Array.isArray(t)?f(this,v(t)):t instanceof this?t.clone():(new this).recomposeSelf(t.origin,t.rotate,t.skew,t.scale,t.translate):new this}}]),t}();function q(t,n,e){return t>=.5?e:n}function B(t,n,e){return 0===t||n===e?n:t*(e-n)+n}function D(t,n,e){var r=B(t,n,e);return r<=0?0:r}function L(t,n,e){var r=B(t,n,e);return r<=0?0:r>=1?1:r}function C(t,n,e){return 0===t?n:1===t?e:{x:B(t,n.x,e.x),y:B(t,n.y,e.y)}}function V(t,n,e){var r=function(t,n,e){return Math.round(B(t,n,e))}(t,n,e);return r<=0?0:r>=255?255:r}function G(t,n,e){return 0===t?n:1===t?e:{r:V(t,n.r,e.r),g:V(t,n.g,e.g),b:V(t,n.b,e.b),a:B(t,null==n.a?1:n.a,null==e.a?1:e.a)}}function z(t,n){for(var e=[],r=0;r<t;r++)e.push(n);return e}function Y(t,n){if(--n<=0)return t;var e=(t=Object.assign([],t)).length;do{for(var r=0;r<e;r++)t.push(t[r])}while(--n>0);return t}var $,U=function(){function t(n){r(this,t),this.list=n,this.length=n.length}return o(t,[{key:"setAttribute",value:function(t,n){for(var e=this.list,r=0;r<this.length;r++)e[r].setAttribute(t,n)}},{key:"removeAttribute",value:function(t){for(var n=this.list,e=0;e<this.length;e++)n[e].removeAttribute(t)}},{key:"style",value:function(t,n){for(var e=this.list,r=0;r<this.length;r++)e[r].style[t]=n}}]),t}(),Q=/-./g,H=function(t,n){return n.toUpperCase()};function J(t){return"function"==typeof t?t:q}function Z(t){return t?"function"==typeof t?t:Array.isArray(t)?function(t){var n=arguments.length>1&&void 0!==arguments[1]?arguments[1]:w;if(!Array.isArray(t))return n;switch(t.length){case 1:return S(t[0])||n;case 2:return S(t[0],t[1])||n;case 4:return _(t[0],t[1],t[2],t[3])||n}return n}(t,null):function(t,n){var e=arguments.length>2&&void 0!==arguments[2]?arguments[2]:w;switch(t){case"linear":return w;case"steps":return S(n.steps||1,n.jump||0)||e;case"bezier":case"cubic-bezier":return _(n.x1||0,n.y1||0,n.x2||0,n.y2||0)||e}return e}(t.type,t.value,null):null}function K(t,n,e){var r=arguments.length>3&&void 0!==arguments[3]&&arguments[3],i=n.length-1;if(t<=n[0].t)return r?[0,0,n[0].v]:n[0].v;if(t>=n[i].t)return r?[i,1,n[i].v]:n[i].v;var o,u=n[0],a=null;for(o=1;o<=i;o++){if(!(t>n[o].t)){a=n[o];break}u=n[o]}return null==a?r?[i,1,n[i].v]:n[i].v:u.t===a.t?r?[o,1,a.v]:a.v:(t=(t-u.t)/(a.t-u.t),u.e&&(t=u.e(t)),r?[o,t,e(t,u.v,a.v)]:e(t,u.v,a.v))}function W(t,n){var e=arguments.length>2&&void 0!==arguments[2]?arguments[2]:null;return t&&t.length?"function"!=typeof n?null:("function"!=typeof e&&(e=null),function(r){var i=K(r,t,n);return null!=i&&e&&(i=e(i)),i}):null}function X(t,n){return t.t-n.t}function tt(t,n,r,i,o){var u,a="@"===r[0],l="#"===r[0],s=$[r],f=q;switch(a?(u=r.substr(1),r=u.replace(Q,H)):l&&(r=r.substr(1)),e(s)){case"function":if(f=s(i,o,K,Z,r,a,n,t),l)return f;break;case"string":f=W(i,J(s));break;case"object":if((f=W(i,J(s.i),s.f))&&"function"==typeof s.u)return s.u(n,f,r,a,t)}return f?function(t,n,e){if(arguments.length>3&&void 0!==arguments[3]&&arguments[3])return t instanceof U?function(r){return t.style(n,e(r))}:function(r){return t.style[n]=e(r)};if(Array.isArray(n)){var r=n.length;return function(i){var o=e(i);if(null==o)for(var u=0;u<r;u++)t[u].removeAttribute(n);else for(var a=0;a<r;a++)t[a].setAttribute(n,o)}}return function(r){var i=e(r);null==i?t.removeAttribute(n):t.setAttribute(n,i)}}(n,r,f,a):null}function nt(t,n,r,i){if(!i||"object"!==e(i))return null;var o=null,u=null;return Array.isArray(i)?u=function(t){if(!t||!t.length)return null;for(var n=0;n<t.length;n++)t[n].e&&(t[n].e=Z(t[n].e));return t.sort(X)}(i):(u=i.keys,o=i.data||null),u?tt(t,n,r,u,o):null}function et(t,n,e){if(!e)return null;var r=[];for(var i in e)if(e.hasOwnProperty(i)){var o=nt(t,n,i,e[i]);o&&r.push(o)}return r.length?r:null}function rt(t,n){if(!n.settings.duration||n.settings.duration<0)return null;var e,r,i,o,u,a=function(t,n){if(!n)return null;var e=[];if(Array.isArray(n))for(var r=n.length,i=0;i<r;i++){var o=n[i];if(2===o.length){var u=null;if("string"==typeof o[0])u=t.getElementById(o[0]);else if(Array.isArray(o[0])){u=[];for(var a=0;a<o[0].length;a++)if("string"==typeof o[0][a]){var l=t.getElementById(o[0][a]);l&&u.push(l)}u=u.length?1===u.length?u[0]:new U(u):null}if(u){var s=et(t,u,o[1]);s&&(e=e.concat(s))}}}else for(var f in n)if(n.hasOwnProperty(f)){var c=t.getElementById(f);if(c){var h=et(t,c,n[f]);h&&(e=e.concat(h))}}return e.length?e:null}(t,n.elements);return a?(e=a,r=n.settings,i=r.duration,o=e.length,u=null,function(t,n){var a=r.iterations||1/0,l=(r.alternate&&a%2==0)^r.direction>0?i:0,s=t%i,f=1+(t-s)/i;n*=r.direction,r.alternate&&f%2==0&&(n=-n);var c=!1;if(f>a)s=l,c=!0,-1===r.fill&&(s=r.direction>0?0:i);else if(n<0&&(s=i-s),s===u)return!1;u=s;for(var h=0;h<o;h++)e[h](s);return c}):null}function it(t,n){for(var e=n.querySelectorAll("svg"),r=0;r<e.length;r++)if(e[r].id===t.root&&!e[r].svgatorAnimation)return e[r].svgatorAnimation=!0,e[r];return null}function ot(t){var n=function(t){return t.shadowRoot};return document?Array.from(t.querySelectorAll(":not("+["a","area","audio","br","canvas","circle","datalist","embed","g","head","hr","iframe","img","input","link","object","path","polygon","rect","script","source","style","svg","title","track","video"].join()+")")).filter(n).map(n):[]}function ut(t){var n=arguments.length>1&&void 0!==arguments[1]?arguments[1]:document,e=arguments.length>2&&void 0!==arguments[2]?arguments[2]:0,r=it(t,n);if(r)return r;if(e>=20)return null;for(var i=ot(n),o=0;o<i.length;o++){var u=ut(t,i[o],e+1);if(u)return u}return null}function at(t,n){if($=n,!t||!t.root||!Array.isArray(t.animations))return null;var e=ut(t);if(!e)return null;var r=t.animations.map((function(t){return rt(e,t)})).filter((function(t){return!!t}));return r.length?{svg:e,animations:r,animationSettings:t.animationSettings,options:t.options||void 0}:null}function lt(t){var n=arguments.length>1&&void 0!==arguments[1]?arguments[1]:null,e=arguments.length>2&&void 0!==arguments[2]?arguments[2]:Number,r=arguments.length>3&&void 0!==arguments[3]?arguments[3]:"undefined"!=typeof BigInt&&BigInt,i="0x"+(t.replace(/[^0-9a-fA-F]+/g,"")||27);return n&&r&&e.isSafeInteger&&!e.isSafeInteger(+i)?e(r(i))%n+n:+i}function st(t,n,e){return!t||!e||n>t.length?t:t.substring(0,n)+st(t.substring(n+1),e,e)}function ft(t){var n=arguments.length>1&&void 0!==arguments[1]?arguments[1]:27;return!t||t%n?t%n:[0,1].includes(n)?n:ft(t/n,n)}function ct(t,n,e){if(t&&t.length){var r=lt(e),i=ft(r)+5,o=st(t,ft(r,5),i);return o=o.replace(/\x7c$/g,"==").replace(/\x2f$/g,"="),o=function(t,n,e){var r=+("0x"+t.substring(0,4));t=t.substring(4);for(var i=lt(n,r)%r+e%27,o=[],u=0;u<t.length;u+=2)if("|"!==t[u]){var a=+("0x"+t[u]+t[u+1])-i;o.push(a)}else{var l=+("0x"+t.substring(u+1,u+1+4))-i;u+=3,o.push(l)}return String.fromCharCode.apply(String,o)}(o=(o=atob(o)).replace(/[\x41-\x5A]/g,""),n,r),o=JSON.parse(o)}}var ht=[{key:"alternate",def:!1},{key:"fill",def:1},{key:"iterations",def:0},{key:"direction",def:1},{key:"speed",def:1},{key:"fps",def:100}],vt=function(){function t(n,e){var i=this,o=arguments.length>2&&void 0!==arguments[2]?arguments[2]:null;r(this,t),this._id=0,this._running=!1,this._rollingBack=!1,this._animations=n,this._settings=e,(!o||o<"2022-05-02")&&delete this._settings.speed,ht.forEach((function(t){i._settings[t.key]=i._settings[t.key]||t.def})),this.duration=e.duration,this.offset=e.offset||0,this.rollbackStartOffset=0}return o(t,[{key:"alternate",get:function(){return this._settings.alternate}},{key:"fill",get:function(){return this._settings.fill}},{key:"iterations",get:function(){return this._settings.iterations}},{key:"direction",get:function(){return this._settings.direction}},{key:"speed",get:function(){return this._settings.speed}},{key:"fps",get:function(){return this._settings.fps}},{key:"maxFiniteDuration",get:function(){return this.iterations>0?this.iterations*this.duration:this.duration}},{key:"_apply",value:function(t){for(var n=arguments.length>1&&void 0!==arguments[1]?arguments[1]:{},e=this._animations,r=e.length,i=0,o=0;o<r;o++)n[o]?i++:(n[o]=e[o](t,1),n[o]&&i++);return i}},{key:"_rollback",value:function(t){var n=this,e=1/0,r=null;this.rollbackStartOffset=t,this._rollingBack=!0,this._running=!0;this._id=window.requestAnimationFrame((function i(o){if(n._rollingBack){null==r&&(r=o);var u=Math.round(t-(o-r)*n.speed);if(u>n.duration&&e!==1/0){var a=!!n.alternate&&u/n.duration%2>1,l=u%n.duration;u=(l+=a?n.duration:0)||n.duration}var s=(n.fps?1e3/n.fps:0)*n.speed,f=Math.max(0,u);f<=e-s&&(n.offset=f,e=f,n._apply(f));var c=n.iterations>0&&-1===n.fill&&u>=n.maxFiniteDuration;(u<=0||n.offset<u||c)&&n.stop(),n._id=window.requestAnimationFrame(i)}}))}},{key:"_start",value:function(){var t=this,n=arguments.length>0&&void 0!==arguments[0]?arguments[0]:0,e=-1/0,r=null,i={};this._running=!0;var o=function o(u){null==r&&(r=u);var a=Math.round((u-r)*t.speed+n),l=(t.fps?1e3/t.fps:0)*t.speed;if(a>=e+l&&!t._rollingBack&&(t.offset=a,e=a,t._apply(a,i)===t._animations.length))return void t.pause(!0);t._id=window.requestAnimationFrame(o)};this._id=window.requestAnimationFrame(o)}},{key:"_pause",value:function(){this._id&&window.cancelAnimationFrame(this._id),this._running=!1}},{key:"play",value:function(){if(!this._running)return this._rollingBack?this._rollback(this.offset):this._start(this.offset)}},{key:"stop",value:function(){this._pause(),this.offset=0,this.rollbackStartOffset=0,this._rollingBack=!1,this._apply(0)}},{key:"reachedToEnd",value:function(){return this.iterations>0&&this.offset>=this.iterations*this.duration}},{key:"restart",value:function(){var t=arguments.length>0&&void 0!==arguments[0]&&arguments[0];this.stop(t),this.play(t)}},{key:"pause",value:function(){this._pause()}},{key:"reverse",value:function(){this.direction=-this.direction}}],[{key:"build",value:function(t,n){delete t.animationSettings,t.options=ct(t.options,t.root,"5c7f360c"),t.animations.map((function(n){n.settings=ct(n.s,t.root,"5c7f360c"),delete n.s,t.animationSettings||(t.animationSettings=n.settings)}));var e=t.version;if(!(t=at(t,n)))return null;var r=t.options||{},i=new this(t.animations,t.animationSettings,e);return{el:t.svg,options:r,player:i}}},{key:"push",value:function(t){return this.build(t)}},{key:"init",value:function(){var t=this,n=window.__SVGATOR_PLAYER__&&window.__SVGATOR_PLAYER__["5c7f360c"];Array.isArray(n)&&n.splice(0).forEach((function(n){return t.build(n)}))}}]),t}();function yt(t){return p(t)+""}function gt(t){var n=arguments.length>1&&void 0!==arguments[1]?arguments[1]:" ";return t&&t.length?t.map(yt).join(n):""}function dt(t){if(!t)return"transparent";if(null==t.a||t.a>=1){var n=function(t){return 1===(t=parseInt(t).toString(16)).length?"0"+t:t},e=function(t){return t.charAt(0)===t.charAt(1)},r=n(t.r),i=n(t.g),o=n(t.b);return e(r)&&e(i)&&e(o)&&(r=r.charAt(0),i=i.charAt(0),o=o.charAt(0)),"#"+r+i+o}return"rgba("+t.r+","+t.g+","+t.b+","+t.a+")"}function pt(t){return t?"url(#"+t+")":"none"}!function(){for(var t=0,n=["ms","moz","webkit","o"],e=0;e<n.length&&!window.requestAnimationFrame;++e)window.requestAnimationFrame=window[n[e]+"RequestAnimationFrame"],window.cancelAnimationFrame=window[n[e]+"CancelAnimationFrame"]||window[n[e]+"CancelRequestAnimationFrame"];window.requestAnimationFrame||(window.requestAnimationFrame=function(n){var e=Date.now(),r=Math.max(0,16-(e-t)),i=window.setTimeout((function(){n(e+r)}),r);return t=e+r,i},window.cancelAnimationFrame=window.clearTimeout)}();var mt={f:null,i:function(t,n,e){return 0===t?n:1===t?e:{x:D(t,n.x,e.x),y:D(t,n.y,e.y)}},u:function(t,n){return function(e){var r=n(e);t.setAttribute("rx",yt(r.x)),t.setAttribute("ry",yt(r.y))}}},bt={f:null,i:function(t,n,e){return 0===t?n:1===t?e:{width:D(t,n.width,e.width),height:D(t,n.height,e.height)}},u:function(t,n){return function(e){var r=n(e);t.setAttribute("width",yt(r.width)),t.setAttribute("height",yt(r.height))}}};Object.freeze({M:2,L:2,Z:0,H:1,V:1,C:6,Q:4,T:2,S:4,A:7});var wt={},At=null;function _t(t){var n=function(){if(At)return At;if("object"!==("undefined"==typeof document?"undefined":e(document))||!document.createElementNS)return{};var t=document.createElementNS("http://www.w3.org/2000/svg","svg");return t&&t.style?(t.style.position="absolute",t.style.opacity="0.01",t.style.zIndex="-9999",t.style.left="-9999px",t.style.width="1px",t.style.height="1px",At={svg:t}):{}}().svg;if(!n)return function(t){return null};var r=document.createElementNS(n.namespaceURI,"path");r.setAttributeNS(null,"d",t),r.setAttributeNS(null,"fill","none"),r.setAttributeNS(null,"stroke","none"),n.appendChild(r);var i=r.getTotalLength();return function(t){var n=r.getPointAtLength(i*t);return{x:n.x,y:n.y}}}function xt(t){return wt[t]?wt[t]:wt[t]=_t(t)}function kt(t,n,e,r){if(!t||!r)return!1;var i=["M",t.x,t.y];if(n&&e&&(i.push("C"),i.push(n.x),i.push(n.y),i.push(e.x),i.push(e.y)),n?!e:e){var o=n||e;i.push("Q"),i.push(o.x),i.push(o.y)}return n||e||i.push("L"),i.push(r.x),i.push(r.y),i.join(" ")}function St(t,n,e,r){var i=arguments.length>4&&void 0!==arguments[4]?arguments[4]:1,o=kt(t,n,e,r),u=xt(o);try{return u(i)}catch(t){return null}}function Ot(t,n,e){return t+(n-t)*e}function jt(t,n,e){var r=arguments.length>3&&void 0!==arguments[3]&&arguments[3],i={x:Ot(t.x,n.x,e),y:Ot(t.y,n.y,e)};return r&&(i.a=Mt(t,n)),i}function Mt(t,n){return Math.atan2(n.y-t.y,n.x-t.x)}function Et(t,n,e,r){var i=1-r;return i*i*t+2*i*r*n+r*r*e}function Pt(t,n,e,r){return 2*(1-r)*(n-t)+2*r*(e-n)}function It(t,n,e,r){var i=arguments.length>4&&void 0!==arguments[4]&&arguments[4],o=St(t,n,null,e,r);return o||(o={x:Et(t.x,n.x,e.x,r),y:Et(t.y,n.y,e.y,r)}),i&&(o.a=Rt(t,n,e,r)),o}function Rt(t,n,e,r){return Math.atan2(Pt(t.y,n.y,e.y,r),Pt(t.x,n.x,e.x,r))}function Ft(t,n,e,r,i){var o=i*i;return i*o*(r-t+3*(n-e))+3*o*(t+e-2*n)+3*i*(n-t)+t}function Nt(t,n,e,r,i){var o=1-i;return 3*(o*o*(n-t)+2*o*i*(e-n)+i*i*(r-e))}function Tt(t,n,e,r,i){var o=arguments.length>5&&void 0!==arguments[5]&&arguments[5],u=St(t,n,e,r,i);return u||(u={x:Ft(t.x,n.x,e.x,r.x,i),y:Ft(t.y,n.y,e.y,r.y,i)}),o&&(u.a=qt(t,n,e,r,i)),u}function qt(t,n,e,r,i){return Math.atan2(Nt(t.y,n.y,e.y,r.y,i),Nt(t.x,n.x,e.x,r.x,i))}function Bt(t,n,e){var r=arguments.length>3&&void 0!==arguments[3]&&arguments[3];if(Lt(n)){if(Ct(e))return It(n,e.start,e,t,r)}else if(Lt(e)){if(Vt(n))return It(n,n.end,e,t,r)}else{if(Vt(n))return Ct(e)?Tt(n,n.end,e.start,e,t,r):It(n,n.end,e,t,r);if(Ct(e))return It(n,e.start,e,t,r)}return jt(n,e,t,r)}function Dt(t,n,e){var r=Bt(t,n,e,!0);return r.a=function(t){return arguments.length>1&&void 0!==arguments[1]&&arguments[1]?t+Math.PI:t}(r.a)/b,r}function Lt(t){return!t.type||"corner"===t.type}function Ct(t){return null!=t.start&&!Lt(t)}function Vt(t){return null!=t.end&&!Lt(t)}var Gt=new T;var zt={f:yt,i:B},Yt={f:yt,i:L};function $t(t,n,e){return t.map((function(t){return function(t,n,e){var r=t.v;if(!r||"g"!==r.t||r.s||!r.v||!r.r)return t;var i=e.getElementById(r.r),o=i&&i.querySelectorAll("stop")||[];return r.s=r.v.map((function(t,n){var e=o[n]&&o[n].getAttribute("offset");return{c:t,o:e=p(parseInt(e)/100)}})),delete r.v,t}(t,0,e)}))}var Ut={gt:"gradientTransform",c:{x:"cx",y:"cy"},rd:"r",f:{x:"x1",y:"y1"},to:{x:"x2",y:"y2"}};function Qt(t,n,r,i,o,u,a,l){return $t(t,0,l),n=function(t,n,e){for(var r,i,o,u=t.length-1,a={},l=0;l<=u;l++)(r=t[l]).e&&(r.e=n(r.e)),r.v&&"g"===(i=r.v).t&&i.r&&(o=e.getElementById(i.r))&&(a[i.r]={e:o,s:o.querySelectorAll("stop")});return a}(t,i,l),function(i){var o=r(i,t,Ht);if(!o)return"none";if("c"===o.t)return dt(o.v);if("g"===o.t){if(!n[o.r])return pt(o.r);var u=n[o.r];return function(t,n){for(var e=t.s,r=e.length;r<n.length;r++){var i=e[e.length-1].cloneNode();i.id=Kt(i.id),t.e.appendChild(i),e=t.s=t.e.querySelectorAll("stop")}for(var o=0,u=e.length,a=n.length-1;o<u;o++)e[o].setAttribute("stop-color",dt(n[Math.min(o,a)].c)),e[o].setAttribute("offset",n[Math.min(o,a)].o)}(u,o.s),Object.keys(Ut).forEach((function(t){if(void 0!==o[t])if("object"!==e(Ut[t])){var n,r="gt"===t?(n=o[t],Array.isArray(n)?"matrix("+n.join(" ")+")":""):o[t],i=Ut[t];u.e.setAttribute(i,r)}else Object.keys(Ut[t]).forEach((function(n){if(void 0!==o[t][n]){var e=o[t][n],r=Ut[t][n];u.e.setAttribute(r,e)}}))})),pt(o.r)}return"none"}}function Ht(t,e,r){if(0===t)return e;if(1===t)return r;if(e&&r){var i=e.t;if(i===r.t)switch(e.t){case"c":return{t:i,v:G(t,e.v,r.v)};case"g":if(e.r===r.r){var o={t:i,s:Jt(t,e.s,r.s),r:e.r};return e.gt&&r.gt&&(o.gt=function(t,n,e){var r=n.length;if(r!==e.length)return q(t,n,e);for(var i=new Array(r),o=0;o<r;o++)i[o]=B(t,n[o],e[o]);return i}(t,e.gt,r.gt)),e.c?(o.c=C(t,e.c,r.c),o.rd=D(t,e.rd,r.rd)):e.f&&(o.f=C(t,e.f,r.f),o.to=C(t,e.to,r.to)),o}}if("c"===e.t&&"g"===r.t||"c"===r.t&&"g"===e.t){var u="c"===e.t?e:r,a="g"===e.t?n({},e):n({},r),l=a.s.map((function(t){return{c:u.v,o:t.o}}));return a.s="c"===e.t?Jt(t,l,a.s):Jt(t,a.s,l),a}}return q(t,e,r)}function Jt(t,n,e){if(n.length===e.length)return n.map((function(n,r){return Zt(t,n,e[r])}));for(var r=Math.max(n.length,e.length),i=[],o=0;o<r;o++){var u=Zt(t,n[Math.min(o,n.length-1)],e[Math.min(o,e.length-1)]);i.push(u)}return i}function Zt(t,n,e){return{o:L(t,n.o,e.o||0),c:G(t,n.c,e.c||{})}}function Kt(t){return t.replace(/-fill-([0-9]+)$/,(function(t,n){return"-fill-"+(+n+1)}))}var Wt={fill:Qt,"fill-opacity":Yt,stroke:Qt,"stroke-opacity":Yt,"stroke-width":zt,"stroke-dashoffset":{f:yt,i:B},"stroke-dasharray":{f:function(t){var n=arguments.length>1&&void 0!==arguments[1]?arguments[1]:" ";return t&&t.length>0&&(t=t.map((function(t){return p(t,4)}))),gt(t,n)},i:function(t,n,e){var r,i,o,u=n.length,a=e.length;if(u!==a)if(0===u)n=z(u=a,0);else if(0===a)a=u,e=z(u,0);else{var l=(o=(r=u)*(i=a)/function(t,n){for(var e;n;)e=n,n=t%n,t=e;return t||1}(r,i))<0?-o:o;n=Y(n,Math.floor(l/u)),e=Y(e,Math.floor(l/a)),u=a=l}for(var s=[],f=0;f<u;f++)s.push(p(D(t,n[f],e[f])));return s}},opacity:Yt,transform:function(t,n,r,i){if(!(t=function(t,n){if(!t||"object"!==e(t))return null;var r=!1;for(var i in t)t.hasOwnProperty(i)&&(t[i]&&t[i].length?(t[i].forEach((function(t){t.e&&(t.e=n(t.e))})),r=!0):delete t[i]);return r?t:null}(t,i)))return null;var o=function(e,i,o){var u=arguments.length>3&&void 0!==arguments[3]?arguments[3]:null;return t[e]?r(i,t[e],o):n&&n[e]?n[e]:u};return n&&n.a&&t.o?function(n){var e=r(n,t.o,Dt);return Gt.recomposeSelf(e,o("r",n,B,0)+e.a,o("k",n,C),o("s",n,C),o("t",n,C)).toString()}:function(t){return Gt.recomposeSelf(o("o",t,Bt,null),o("r",t,B,0),o("k",t,C),o("s",t,C),o("t",t,C)).toString()}},r:zt,"#size":bt,"#radius":mt,_:function(t,n){if(Array.isArray(t))for(var e=0;e<t.length;e++)this[t[e]]=n;else this[t]=n}},Xt=function(t){!function(t,n){if("function"!=typeof n&&null!==n)throw new TypeError("Super expression must either be null or a function");t.prototype=Object.create(n&&n.prototype,{constructor:{value:t,writable:!0,configurable:!0}}),n&&l(t,n)}(u,t);var n,e,i=(n=u,e=s(),function(){var t,r=a(n);if(e){var i=a(this).constructor;t=Reflect.construct(r,arguments,i)}else t=r.apply(this,arguments);return c(this,t)});function u(){return r(this,u),i.apply(this,arguments)}return o(u,null,[{key:"build",value:function(t){var n=h(a(u),"build",this).call(this,t,Wt);if(!n)return null;n.el,n.options,function(t,n,e){t.play()}(n.player)}}]),u}(vt);return Xt.init(),Xt}));
(function(s,i,o,w,d,a,b){w[o]=w[o]||{};w[o][s]=w[o][s]||[];w[o][s].push(i);})('5c7f360c',{"root":"exh3fG6Q0Wb1","version":"2022-05-04","animations":[{"elements":{"exh3fG6Q0Wb63":{"transform":{"data":{"o":{"x":1970.078641,"y":2098.64,"type":"corner"},"t":{"x":-1970.078639,"y":-2098.639997}},"keys":{"r":[{"t":0,"v":0,"e":[0.42,0,0.58,1]},{"t":1000,"v":-3.577143,"e":[0.42,0,0.58,1]},{"t":2000,"v":0.338924,"e":[0.42,0,0.58,1]},{"t":3000,"v":-3.505064}]}}},"exh3fG6Q0Wb70":{"transform":{"data":{"o":{"x":1958.685547,"y":2567.569981,"type":"corner"},"t":{"x":-1958.685544,"y":-2567.569949}},"keys":{"r":[{"t":0,"v":0,"e":[0.42,0,0.58,1]},{"t":1000,"v":-3.217453,"e":[0.42,0,0.58,1]},{"t":2000,"v":-0.307886,"e":[0.42,0,0.58,1]},{"t":3000,"v":-3.249921}]}}},"exh3fG6Q0Wb75":{"transform":{"data":{"o":{"x":1953.845,"y":2465.63,"type":"corner"},"t":{"x":-1953.844998,"y":-2465.629999}},"keys":{"r":[{"t":0,"v":0,"e":[0.42,0,0.58,1]},{"t":500,"v":-0.718472,"e":[0.42,0,0.58,1]},{"t":1500,"v":1.279371,"e":[0.42,0,0.58,1]},{"t":2500,"v":-0.409545,"e":[0.42,0,0.58,1]},{"t":3300,"v":2.096549}]}}},"exh3fG6Q0Wb85":{"transform":{"data":{"o":{"x":1980.8,"y":2465.63,"type":"corner"},"t":{"x":-1980.799999,"y":-2465.63}},"keys":{"r":[{"t":0,"v":0,"e":[0.42,0,0.58,1]},{"t":500,"v":1.485097,"e":[0.42,0,0.58,1]},{"t":1500,"v":-1.378787,"e":[0.42,0,0.58,1]},{"t":2000,"v":0.866946,"e":[0.42,0,0.58,1]},{"t":3500,"v":-0.650324}]}}},"exh3fG6Q0Wb91":{"transform":{"data":{"o":{"x":1963.253079,"y":2072.031738,"type":"corner"},"t":{"x":-1963.253077,"y":-2072.031736}},"keys":{"r":[{"t":0,"v":0,"e":[0.42,0,0.58,1]},{"t":1000,"v":2.408633,"e":[0.42,0,0.58,1]},{"t":2000,"v":-1.20041,"e":[0.42,0,0.58,1]},{"t":3000,"v":0.021649}]}}},"exh3fG6Q0Wb120":{"transform":{"data":{"o":{"x":2779.070007,"y":1511.118958,"type":"corner"},"t":{"x":-2779.070007,"y":-1511.118957}},"keys":{"r":[{"t":0,"v":0},{"t":1000,"v":0.956328},{"t":2000,"v":-1.082765},{"t":3000,"v":-0.207035}]}}},"exh3fG6Q0Wb163":{"transform":{"data":{"o":{"x":1189.8,"y":1035.667,"type":"corner"},"t":{"x":-1189.799998,"y":-1035.666999}},"keys":{"r":[{"t":0,"v":0,"e":[0.42,0,0.58,1]},{"t":700,"v":2.531386,"e":[0.42,0,0.58,1]},{"t":1600,"v":-2.59607,"e":[0.42,0,0.58,1]},{"t":2400,"v":-0.158295,"e":[0.42,0,0.58,1]},{"t":3000,"v":-2.198649}]}}},"exh3fG6Q0Wb202":{"transform":{"data":{"t":{"x":-1099.873108,"y":-639.145264}},"keys":{"o":[{"t":0,"v":{"x":1099.873108,"y":639.145264,"type":"corner"}},{"t":1000,"v":{"x":1099.873108,"y":643.145264,"type":"corner"}},{"t":2000,"v":{"x":1099.873108,"y":638.145264,"type":"corner"}},{"t":3000,"v":{"x":1099.873108,"y":636.145264,"type":"corner"}}]}}},"exh3fG6Q0Wb203":{"transform":{"data":{"t":{"x":-1187.898743,"y":-608.900177}},"keys":{"o":[{"t":0,"v":{"x":1187.898743,"y":608.900177,"type":"corner"}},{"t":1000,"v":{"x":1187.898743,"y":617.900177,"type":"corner"}},{"t":2000,"v":{"x":1187.898743,"y":613.900177,"type":"corner"}},{"t":3000,"v":{"x":1187.898743,"y":610.900177,"type":"corner"}}]}}},"exh3fG6Q0Wb218":{"transform":{"data":{"o":{"x":943.82605,"y":983.283264,"type":"corner"},"t":{"x":-943.826048,"y":-983.283262}},"keys":{"r":[{"t":0,"v":0,"e":[0.42,0,0.58,1]},{"t":1000,"v":1.187856,"e":[0.42,0,0.58,1]},{"t":2000,"v":0,"e":[0.42,0,0.58,1]},{"t":3000,"v":1.187856}]}}}},"s":"MKDA1ZGRkODRjNmQ3ZDRRjM2Q2Y2JkMWQwODQL5Yzk1OTI5MjkyOGU4VNGM2Y2JkNFRjN2M1ZQDZjYmQxUGQwODQ5YzXkzOGU4NEpjYmQ2YzdSkNGMzZDZjYmQxVGQwVZDVRODQ5Y0U5MzhlWVDg0Q2M4Y2JjZWNlODMQ5YzkzOGU4NElQYzNBjZUlkNmM3ZDRkMGMzMVmQ2Yzc4NDljYzhjMT2NlZDVjNzhlODRkNWHQyYzdTYzdjNjg0OWMG5MzhlODRKYzhIZDJkCNVc4NEY5YzkzOTI5MTlZkZg|"}],"options":"MRDAxMDg4RTJmODA4MTEZlN2Y4MTJmNDdCMmYD3OTdjNmU3MTJmOGE/C"},'__SVGATOR_PLAYER__',window,document)
]]></script>
</svg>
