<svg width="4229" height="3975" viewBox="0 0 4229 3975" fill="none" xmlns="http://www.w3.org/2000/svg">
<path d="M2316.78 3149.94H1344.74V3899.67H2316.78V3149.94Z" fill="#EBEBEB"/>
<path d="M2073.29 3894.44C2071.98 3894.44 2070.86 3727.29 2070.86 3521.12C2070.86 3314.95 2071.98 3147.79 2073.29 3147.79C2074.59 3147.79 2075.71 3314.95 2075.71 3521.12C2075.71 3727.29 2074.59 3894.44 2073.29 3894.44Z" fill="#E0E0E0"/>
<path d="M2234.38 3729.06H2159.9V3813.34H2234.38V3729.06Z" fill="#FAFAFA"/>
<path d="M1751.76 3151.9H1641.35V3311.87H1751.76V3151.9Z" fill="#E0E0E0"/>
<path d="M1751.76 3737.46H1641.35V3897.43H1751.76V3737.46Z" fill="#E0E0E0"/>
<path d="M4080.64 2961.97H2854.93V3907.32H4080.64V2961.97Z" fill="#EBEBEB"/>
<path d="M3773.49 3900.6C3772.18 3900.6 3771.06 3689.95 3771.06 3430.03C3771.06 3170.1 3772.18 2959.45 3773.49 2959.45C3774.8 2959.45 3775.92 3170.1 3775.92 3430.03C3775.92 3689.95 3774.89 3900.6 3773.49 3900.6Z" fill="#E0E0E0"/>
<path d="M3976.67 3692.1H3882.69V3798.31H3976.67V3692.1Z" fill="#FAFAFA"/>
<path d="M3368.06 2964.4H3228.81V3166.09H3368.06V2964.4Z" fill="#E0E0E0"/>
<path d="M3368.06 3702.74H3228.81V3904.43H3368.06V3702.74Z" fill="#E0E0E0"/>
<path d="M546.299 2989.79C595.951 2964.21 654.376 2960.85 709.441 2970C739.027 2974.85 769.826 2983.72 789.985 3005.93C810.145 3028.15 813.878 3067.25 790.825 3086.38C777.012 3097.77 757.88 3099.45 739.96 3099.26C696.841 3098.7 649.056 3091.14 614.617 3117.09C594.924 3131.93 581.858 3156.48 558.618 3163.76C535.379 3171.04 509.713 3157.32 497.58 3136.6C486.355 3114.99 483.882 3089.89 490.674 3066.5C493.422 3050.3 499.87 3034.95 509.518 3021.64C519.165 3008.34 531.752 2997.44 546.299 2989.79Z" fill="#EBEBEB"/>
<path d="M432.622 2770.37C462.954 2813.67 521.939 2799.39 549.285 2772.89C576.631 2746.38 588.204 2708.12 598.657 2671.62C622.736 2588.09 646.909 2500.45 629.083 2415.43C624.791 2389.65 613.453 2365.55 596.324 2345.8C587.651 2336.11 576.596 2328.85 564.253 2324.74C551.909 2320.63 538.707 2319.81 525.952 2322.38C496.18 2330.22 477.7 2359.71 464.354 2387.06C425.005 2468.81 404.406 2558.31 404.062 2649.04C404.063 2691.32 408.822 2735.55 432.622 2770.37Z" fill="#EBEBEB"/>
<path d="M349.373 2832.53C382.319 2793.42 388.572 2736.49 373.919 2687.49C359.266 2638.49 326.134 2596.86 287.962 2562.8C243.065 2522.86 190.824 2492.05 134.153 2472.08C112.188 2463.21 88.5633 2459.2 64.9012 2460.32C53.0974 2461 41.6373 2464.55 31.5192 2470.66C21.4012 2476.78 12.932 2485.28 6.84951 2495.41C-9.39004 2526.31 6.19619 2563.73 22.9957 2594.35C52.5798 2648.21 86.3447 2699.67 123.98 2748.25C154.312 2787.26 189.311 2825.81 235.137 2843.44C280.962 2861.08 329.307 2859.03 353.76 2827.02" fill="#EBEBEB"/>
<path d="M430.571 3423.87C432.191 3417.45 433.13 3410.88 433.371 3404.27C434.771 3389.9 436.45 3371.88 438.597 3350.51C441.272 3324.07 445.291 3297.77 450.637 3271.74C457.65 3239.91 467.232 3208.69 479.289 3178.41C491.115 3148.32 507.106 3120.05 526.795 3094.41C542.89 3073.56 563.379 3056.52 586.806 3044.48C602.739 3036.63 619.81 3031.33 637.392 3028.8C644.01 3028.54 650.581 3027.57 656.991 3025.91C650.385 3025.18 643.718 3025.18 637.112 3025.91C618.854 3027.28 600.993 3031.93 584.38 3039.63C559.641 3051.3 537.948 3068.55 521.008 3090.02C500.402 3116 483.793 3144.91 471.729 3175.79C459.686 3206.44 450.318 3238.08 443.73 3270.34C438.653 3296.71 435.131 3323.35 433.184 3350.14C431.504 3373 430.851 3391.48 430.571 3404.27C429.883 3410.78 429.883 3417.35 430.571 3423.87Z" fill="#E0E0E0"/>
<path d="M434.302 3382.62C434.856 3379.54 435.044 3376.4 434.862 3373.28C434.862 3366.38 434.862 3357.7 434.862 3347.15C434.862 3324.47 434.862 3291.62 435.982 3251.11C438.036 3170.1 445.315 3083.12 458.475 2960.01C471.261 2844.38 488.341 2709.89 506.447 2622.44C510.274 2602.56 514.193 2584.64 517.927 2568.96C521.66 2553.28 524.366 2539.65 527.26 2528.73C530.153 2517.81 531.74 2510.07 533.42 2503.35C534.333 2500.31 534.866 2497.18 535.006 2494.01C533.6 2496.73 532.534 2499.62 531.833 2502.6C529.78 2509.23 527.26 2517.44 524.18 2527.61C521.1 2537.79 517.367 2551.97 513.447 2567.56C509.527 2583.14 505.047 2601.06 500.847 2620.94C478.427 2724.37 461.572 2828.93 450.355 2934.16C436.916 3057.36 430.849 3169.54 430.289 3250.74C430.289 3291.34 430.289 3324.28 431.689 3346.96C432.342 3357.51 432.902 3366.19 433.276 3373C433.23 3376.24 433.575 3379.46 434.302 3382.62Z" fill="#E0E0E0"/>
<path d="M434.862 3166.28C435.574 3157.17 435.574 3148.03 434.862 3138.93C433.836 3121.38 431.409 3096.09 426.463 3065.01C420.358 3028.68 412.194 2992.72 402.01 2957.31C390.24 2913.73 375.17 2871.11 356.931 2829.82C325.705 2753.73 280.891 2683.97 224.681 2623.93C214.929 2613.62 204.516 2603.96 193.509 2595C188.749 2590.89 184.176 2586.88 180.256 2583.71L168.683 2575.4C161.419 2569.85 153.709 2564.92 145.63 2560.65C144.324 2562.43 178.203 2582.4 220.948 2627.85C275.321 2688.45 318.942 2757.89 349.931 2833.18C367.856 2874.2 382.979 2916.39 395.197 2959.45C405.46 2994.54 413.964 3030.11 420.676 3066.04C426.276 3096.74 430.009 3122.04 431.502 3139.21C431.902 3148.31 433.025 3157.36 434.862 3166.28Z" fill="#E0E0E0"/>
<path d="M211.242 3514.96L232.895 3812.03H614.524L636.177 3514.96H211.242Z" fill="#EBEBEB"/>
<path d="M681.628 3397.92H174.375V3514.96H681.628V3397.92Z" fill="#EBEBEB"/>
<path d="M174.375 3800.64V3833.03H198.268H673.321V3800.64H174.375Z" fill="#E0E0E0"/>
<path d="M221.606 3886.6L198.273 3829.48H655.127L627.875 3886.6H221.606Z" fill="#E0E0E0"/>
<path d="M629.089 3612.02C628.613 3613.02 628.018 3613.96 627.316 3614.82C625.823 3616.78 623.863 3619.3 621.623 3622.38L599.41 3650.38L598.384 3651.69L597.45 3650.38L542.852 3574.88H545.932L492.173 3650.94L490.493 3653.37L488.627 3651.13L424.882 3575.25H428.522L425.068 3579.73L368.043 3651.13L366.083 3653.55L364.403 3651.03L310.552 3574.97H313.725L247.46 3650.38L246.34 3651.78L245.407 3650.19L224.687 3615.85C222.447 3612.12 220.767 3609.04 219.367 3606.52C218.664 3605.47 218.099 3604.34 217.688 3603.16C218.561 3604.05 219.314 3605.05 219.927 3606.14L225.807 3615.01L247.553 3649.26H245.5L310.832 3572.92L312.418 3570.96L313.912 3573.01L368.23 3648.79H364.683L421.522 3577.21C422.735 3575.72 423.948 3574.22 424.975 3572.82L426.842 3570.49L428.708 3572.73L492.267 3648.79H488.72L543.039 3573.1L544.625 3570.86L546.118 3573.1C567.678 3603.81 585.971 3629.85 599.597 3649.45H597.637L620.783 3621.45C623.303 3618.56 625.356 3616.22 626.943 3614.26C627.603 3613.46 628.32 3612.72 629.089 3612.02Z" fill="#F5F5F5"/>
<path d="M641.496 3513C641.496 3514.31 545.832 3515.43 427.955 3515.43C310.078 3515.43 214.414 3514.31 214.414 3513C214.414 3511.69 309.985 3510.67 427.955 3510.67C545.925 3510.67 641.496 3511.69 641.496 3513Z" fill="#F5F5F5"/>
<path d="M3317.87 145.169L3239.66 145.592L3241.76 534.775L3319.97 534.352L3317.87 145.169Z" fill="#E0E0E0"/>
<path d="M2764.62 146.205L2562.09 147.301L2563.26 362.145L2765.78 361.049L2764.62 146.205Z" fill="#EBEBEB"/>
<path d="M2966.2 145.115L2763.68 146.211L2764.84 361.055L2967.37 359.959L2966.2 145.115Z" fill="#F5F5F5"/>
<path d="M2562.34 206.756C2696.99 207.876 2831.69 207.254 2966.46 204.889C2967.03 204.889 2967.58 204.663 2967.98 204.261C2968.39 203.858 2968.61 203.312 2968.61 202.743C2968.61 202.173 2968.39 201.627 2967.98 201.225C2967.58 200.822 2967.03 200.596 2966.46 200.596C2831.88 199.849 2696.93 200.596 2562.34 203.116C2561.93 203.21 2561.56 203.441 2561.3 203.772C2561.03 204.103 2560.89 204.513 2560.89 204.936C2560.89 205.359 2561.03 205.769 2561.3 206.1C2561.56 206.431 2561.93 206.662 2562.34 206.756Z" fill="#E0E0E0"/>
<path d="M2803.84 357.478L2435.84 359.469L2436.79 534.555L2804.79 532.564L2803.84 357.478Z" fill="#EBEBEB"/>
<path d="M3170.06 355.497L2802.06 357.488L2803.01 532.574L3171.01 530.583L3170.06 355.497Z" fill="#F5F5F5"/>
<path d="M2436.06 408.352C2680.5 411.058 2925.77 408.352 3170.29 404.712C3170.86 404.712 3171.41 404.486 3171.81 404.083C3172.22 403.68 3172.44 403.134 3172.44 402.565C3172.44 401.996 3172.22 401.45 3171.81 401.047C3171.41 400.645 3170.86 400.419 3170.29 400.419C2925.86 399.112 2680.5 399.205 2436.06 404.618C2435.57 404.618 2435.09 404.815 2434.74 405.165C2434.39 405.515 2434.2 405.99 2434.2 406.485C2434.2 406.98 2434.39 407.455 2434.74 407.805C2435.09 408.155 2435.57 408.352 2436.06 408.352Z" fill="#E0E0E0"/>
<path d="M3724.12 534.721H2298.4V597.439H3724.12V534.721Z" fill="#E0E0E0"/>
<path d="M2589.69 564.867H2531.82V778.875H2589.69V564.867Z" fill="#E0E0E0"/>
<path d="M3453.65 564.867H3395.78V778.875H3453.65V564.867Z" fill="#E0E0E0"/>
<path d="M3394.17 0.000666809L3315.96 0.423828L3318.86 535.668L3397.07 535.245L3394.17 0.000666809Z" fill="#EBEBEB"/>
<path d="M3516.32 99.6687L3394.8 100.326L3397.15 534.121L3518.67 533.464L3516.32 99.6687Z" fill="#F5F5F5"/>
<path d="M3515.53 183.424C3475.13 186.277 3434.59 186.277 3394.2 183.424C3434.59 180.695 3475.13 180.695 3515.53 183.424Z" fill="#E0E0E0"/>
<path d="M3515.52 165.691C3495.34 167.733 3475.04 168.419 3454.77 167.744C3434.49 168.416 3414.19 167.73 3394.01 165.691C3434.4 162.837 3474.94 162.837 3515.34 165.691H3515.52Z" fill="#E0E0E0"/>
<path d="M3515.53 468.363C3475.13 471.217 3434.59 471.217 3394.2 468.363C3434.59 465.634 3475.13 465.634 3515.53 468.363Z" fill="#E0E0E0"/>
<path d="M3515.53 450.163C3475.13 452.893 3434.59 452.893 3394.2 450.163C3434.59 447.31 3475.13 447.31 3515.53 450.163Z" fill="#E0E0E0"/>
<path d="M3456.73 410.405C3455.61 410.405 3454.67 366.633 3454.67 312.688C3454.67 258.742 3455.61 214.877 3456.73 214.877C3457.85 214.877 3458.87 258.649 3458.87 312.688C3458.87 366.726 3457.94 410.405 3456.73 410.405Z" fill="#E0E0E0"/>
<path d="M3649.17 206.383H3516.92V533.787H3649.17V206.383Z" fill="#EBEBEB"/>
<path d="M3353.88 114.079C3366.3 114.079 3376.37 104.009 3376.37 91.5865C3376.37 79.1641 3366.3 69.0938 3353.88 69.0938C3341.45 69.0938 3331.38 79.1641 3331.38 91.5865C3331.38 104.009 3341.45 114.079 3353.88 114.079Z" fill="#E0E0E0"/>
<path d="M3360.87 153.465H3346.97V471.909H3360.87V153.465Z" fill="#E0E0E0"/>
<path d="M4122.74 3902.19C4122.74 3903.59 3225.64 3904.61 2119.39 3904.61C1013.14 3904.61 115.859 3903.59 115.859 3902.19C115.859 3900.79 1012.77 3899.76 2119.39 3899.76C3226.01 3899.76 4122.74 3900.88 4122.74 3902.19Z" fill="#263238"/>
<path d="M1178.62 476.949C1222.63 530.812 1246.46 598.347 1246 667.904C1245.54 707.29 1238.26 750.688 1261.22 782.701C1278.58 806.967 1310.31 819.193 1324.4 845.512C1341.39 877.151 1326.92 917.19 1337.37 951.536C1352.12 1000.25 1409.24 1020.69 1443.12 1058.68C1457.56 1075.48 1467.66 1095.56 1472.54 1117.17C1477.43 1138.77 1476.94 1161.25 1471.12 1182.62C1464.95 1203.91 1453.78 1223.41 1438.56 1239.52C1423.33 1255.62 1404.48 1267.85 1383.57 1275.21C1361.25 1284.01 1336.35 1283.6 1314.32 1274.09C1291.46 1262.7 1276.99 1239.27 1265.79 1216.41C1243.3 1171.42 1045.72 928.297 1034.52 879.205" fill="#263238"/>
<path d="M1034.88 419.644C954.059 406.578 876.221 460.243 842.342 534.721C808.463 609.199 807.343 693.383 805.01 775.514C802.677 857.645 796.704 942.763 754.985 1013.13C728.479 1057.84 687.413 1097.13 680.973 1148.56C675.187 1194.66 699.08 1241.14 691.147 1286.97C684.24 1326.91 653.814 1361.63 655.027 1402.04C656.521 1450.76 706.639 1487.44 755.265 1488.75C803.89 1490.05 849.435 1464.57 887.608 1434.34C949.8 1384.96 999.567 1321.7 1032.92 1249.63" fill="#263238"/>
<path d="M901.89 612.279C899.351 591.948 900.922 571.314 906.511 551.602C912.099 531.89 921.591 513.501 934.422 497.527C947.253 481.554 963.162 468.32 981.206 458.613C999.249 448.906 1019.06 442.922 1039.46 441.017C1120.94 433.177 1193.46 493.936 1205.68 574.947C1216.41 645.972 1225.56 717.65 1225.28 743.689C1224.25 822.18 1178.62 852.699 1159.95 861.939C1153.24 864.349 1146.29 866.069 1139.23 867.072V867.632L1156.59 957.79C1164.52 1016.87 1131.58 1069.79 1072.59 1078.09C1013.61 1086.4 967.221 1041.32 958.168 982.242L901.89 612.279Z" fill="#FFBE9D"/>
<path d="M1189.63 609.292C1188.32 611.159 1177.96 605.652 1164.71 607.612C1151.46 609.572 1142.59 617.599 1140.91 616.199C1139.23 614.799 1140.91 612.466 1145.02 608.732C1150.12 603.761 1156.64 600.499 1163.68 599.399C1170.59 598.334 1177.66 599.512 1183.84 602.759C1188.51 605.746 1190.28 608.546 1189.63 609.292Z" fill="#263238"/>
<path d="M1071.47 638.037C1070.17 639.904 1059.81 634.304 1046.46 636.264C1033.11 638.224 1024.43 646.344 1022.75 644.944C1021.07 643.544 1022.75 641.117 1026.86 637.477C1031.96 632.505 1038.49 629.244 1045.53 628.144C1052.44 627.16 1059.49 628.367 1065.69 631.597C1070.26 634.491 1072.13 637.197 1071.47 638.037Z" fill="#263238"/>
<path d="M1119.91 709.25C1126.58 706.038 1133.64 703.686 1140.91 702.25C1144.27 701.41 1147.35 700.29 1147.63 697.863C1147.32 694.454 1146.03 691.208 1143.89 688.53L1129.99 663.704C1110.67 628.985 1096.2 600.239 1097.6 599.399C1099 598.559 1116.27 626.279 1134.93 660.998C1139.69 669.584 1144.27 677.797 1148.37 685.544C1151.09 689.339 1152.4 693.955 1152.11 698.61C1151.8 699.884 1151.2 701.069 1150.36 702.072C1149.52 703.076 1148.45 703.872 1147.25 704.397C1145.43 705.193 1143.52 705.757 1141.56 706.077C1134.51 708.074 1127.23 709.141 1119.91 709.25Z" fill="#263238"/>
<path d="M1138.48 867.165C1138.48 867.165 1087.8 878.832 1017.99 849.619C1017.99 849.619 1048.14 914.484 1143.24 891.431L1138.48 867.165Z" fill="#EB996E"/>
<path d="M1064.66 603.226C1063.92 607.053 1050.38 607.239 1035.08 611.439C1019.77 615.639 1007.73 621.612 1005.21 618.719C1004.09 617.319 1005.77 613.586 1010.34 609.386C1016.5 604.119 1023.78 600.323 1031.62 598.286C1039.46 596.248 1047.67 596.023 1055.61 597.626C1061.77 599.026 1064.66 601.453 1064.66 603.226Z" fill="#263238"/>
<path d="M1178.71 579.892C1176.84 583.252 1167.23 581.479 1156.21 582.879C1145.2 584.279 1136.15 587.919 1133.53 585.025C1132.41 583.625 1133.53 580.452 1137.08 576.999C1141.98 572.66 1148.12 569.981 1154.63 569.346C1161.06 568.571 1167.57 569.776 1173.29 572.799C1177.77 575.319 1179.55 578.212 1178.71 579.892Z" fill="#263238"/>
<path d="M1042.63 655.211C1042.84 656.656 1043.33 658.045 1044.07 659.298C1044.82 660.551 1045.81 661.644 1046.98 662.512C1048.15 663.381 1049.49 664.007 1050.9 664.356C1052.32 664.705 1053.79 664.769 1055.23 664.544C1056.63 664.383 1057.99 663.944 1059.22 663.254C1060.45 662.564 1061.53 661.636 1062.4 660.525C1063.27 659.413 1063.91 658.14 1064.28 656.779C1064.65 655.418 1064.75 653.997 1064.57 652.598C1064.13 649.692 1062.56 647.078 1060.19 645.328C1057.83 643.579 1054.87 642.837 1051.97 643.265C1050.56 643.414 1049.2 643.845 1047.96 644.531C1046.72 645.217 1045.64 646.145 1044.77 647.26C1043.9 648.374 1043.26 649.653 1042.89 651.019C1042.53 652.385 1042.44 653.81 1042.63 655.211Z" fill="#263238"/>
<path d="M1160.32 629.731C1160.76 632.637 1162.33 635.251 1164.69 637C1167.05 638.75 1170.01 639.492 1172.92 639.064C1174.32 638.902 1175.68 638.464 1176.91 637.774C1178.14 637.084 1179.22 636.156 1180.09 635.044C1180.96 633.933 1181.59 632.659 1181.97 631.298C1182.34 629.938 1182.44 628.516 1182.25 627.118C1181.81 624.211 1180.24 621.597 1177.88 619.848C1175.52 618.098 1172.56 617.356 1169.65 617.784C1168.25 617.934 1166.88 618.364 1165.65 619.05C1164.41 619.737 1163.33 620.665 1162.45 621.779C1161.58 622.894 1160.95 624.172 1160.58 625.538C1160.21 626.904 1160.12 628.33 1160.32 629.731Z" fill="#263238"/>
<path d="M1140.82 735.008C1137.16 733.867 1133.21 734.046 1129.66 735.512C1126.12 736.978 1123.2 739.639 1121.41 743.034C1119.7 746.151 1119.01 749.724 1119.42 753.254C1119.84 756.784 1121.35 760.095 1123.74 762.727C1126.28 765.225 1129.63 766.738 1133.19 766.995C1136.75 767.251 1140.28 766.235 1143.15 764.127C1146.75 760.849 1148.93 756.294 1149.22 751.434C1149.85 746.978 1148.79 742.447 1146.23 738.741C1144.92 736.929 1143.05 735.6 1140.91 734.958C1138.77 734.317 1136.47 734.4 1134.38 735.194" fill="#EB996E"/>
<path d="M1195.32 511.015C1187.99 481.444 1169.71 455.759 1144.17 439.15C1123.27 424.05 1098.44 415.33 1072.68 414.044C1046.77 412.928 1021.46 422.123 1002.31 439.617C988.721 453.088 980.947 471.348 980.659 490.482L982.152 477.416C978.23 488.047 978.23 499.73 982.152 510.361C984.299 516.055 986.912 521.841 989.152 527.534C995.834 543.986 1008.23 557.474 1024.06 565.52C1031.23 569.365 1039.26 571.324 1047.39 571.213C1051.46 571.131 1055.47 570.162 1059.13 568.372C1062.79 566.583 1066.01 564.017 1068.58 560.853C1074.37 550.736 1076.17 538.817 1073.62 527.441C1079.74 538.683 1088.48 548.286 1099.1 555.44C1104.52 558.904 1110.96 560.396 1117.35 559.665C1123.75 558.934 1129.69 556.025 1134.19 551.427C1141.84 542.094 1138.85 527.348 1134.19 515.775C1141.41 526.691 1151.52 535.383 1163.4 540.88C1166.53 542.673 1169.99 543.798 1173.57 544.184C1177.15 544.57 1180.78 544.207 1184.21 543.12C1186.96 541.758 1189.36 539.791 1191.24 537.366C1193.11 534.941 1194.41 532.122 1195.04 529.121C1196.42 523.175 1196.52 517.001 1195.32 511.015Z" fill="#263238"/>
<path d="M1127.85 535.841C1127.01 535.841 1127.19 524.734 1123.55 507.841C1119.35 485.394 1108.07 464.884 1091.35 449.323C1082.17 440.969 1071.08 434.978 1059.06 431.87C1049.21 429.454 1038.96 429.199 1029.01 431.123C1019.83 433.268 1011.07 436.893 1003.06 441.856C1003.06 441.856 1004.65 439.523 1008.76 436.537C1014.65 432.414 1021.27 429.438 1028.26 427.764C1038.73 425.313 1049.62 425.313 1060.09 427.764C1072.98 430.983 1084.86 437.403 1094.62 446.43C1112.12 462.632 1123.55 484.337 1127.01 507.935C1128.12 514.911 1128.68 521.963 1128.69 529.027C1128.8 531.33 1128.52 533.635 1127.85 535.841Z" fill="#455A64"/>
<path d="M1987.42 1623.98L1628.57 1481.65C1628.57 1481.65 1444.8 1240.58 1448.62 1235.91L1319.55 1377.22L1507.14 1630.98L1941.97 1732.9L2016.63 1712.18C2000.21 1632.94 1987.42 1623.98 1987.42 1623.98Z" fill="#FFBE9D"/>
<path d="M1205.31 936.229L1156.4 917.562L945.286 944.348V981.681L939.22 982.427C893.712 992.103 850.063 1009.06 809.957 1032.64C772.389 1055.57 742.538 1089.22 724.244 1129.25C705.949 1169.28 700.046 1213.87 707.293 1257.29C715.879 1310.67 732.492 1375.54 764.598 1413.06C825.916 1484.83 881.915 1396.16 881.915 1396.16C881.915 1396.16 920.367 1483.89 918.127 1525.43C916.26 1560.24 900.954 1632.66 896.008 1655.25C895.804 1656.15 895.787 1657.09 895.957 1658C896.127 1658.91 896.48 1659.77 896.996 1660.54C897.511 1661.31 898.177 1661.96 898.954 1662.47C899.731 1662.97 900.602 1663.31 901.514 1663.46L1346.89 1745.87L1349.04 1636.96L1334.85 1188.97L1314.78 1015C1314.78 1015 1315.44 931.935 1205.31 936.229Z" fill="#AF1EE0"/>
<path d="M1307.97 986.068L1477.83 1231.43L1341.1 1397.94L1307.97 986.068Z" fill="#AF1EE0"/>
<path d="M1344.65 1502.37C1344.04 1497.11 1343.82 1491.81 1344 1486.51C1344 1475.49 1344 1461.03 1343.44 1443.39C1342.61 1396.05 1339.21 1348.78 1333.26 1301.81C1326.26 1246.74 1315.53 1197.56 1307.41 1161.81L1297.52 1119.81C1296.08 1114.73 1295.02 1109.55 1294.34 1104.32C1296.47 1109.17 1298.15 1114.2 1299.38 1119.34C1302.28 1128.68 1306.2 1143.33 1310.68 1161.06C1322.73 1207.11 1331.89 1253.87 1338.12 1301.06C1344.12 1348.23 1347.05 1395.74 1346.89 1443.3C1346.89 1461.96 1346.42 1476.33 1345.86 1486.51C1345.91 1491.82 1345.5 1497.13 1344.65 1502.37Z" fill="#263238"/>
<path d="M926.531 1129.33C926.531 1130.08 913.651 1129.98 893.025 1131.01C866.112 1132.47 839.346 1135.93 812.947 1141.37C786.556 1146.91 760.604 1154.36 735.296 1163.68C715.883 1170.86 704.217 1176.18 703.844 1175.44C706.236 1173.56 708.874 1172.02 711.684 1170.86C716.817 1168.06 724.47 1164.52 734.083 1160.5C784.444 1139.71 838.266 1128.56 892.745 1127.65C903.198 1127.65 911.411 1127.65 917.478 1128.21C920.535 1128.11 923.59 1128.49 926.531 1129.33Z" fill="#FAFAFA"/>
<path d="M1319.92 1241.61C1313.09 1244.09 1305.97 1245.66 1298.73 1246.27C1264.22 1251.31 1229.26 1252.5 1194.48 1249.82C1187.22 1249.7 1180 1248.63 1173.02 1246.65C1180.22 1246.01 1187.46 1246.01 1194.67 1246.65C1207.92 1246.65 1226.31 1246.65 1246.56 1246.65C1266.81 1246.65 1285.11 1244.59 1298.36 1243.38C1305.48 1242.14 1312.69 1241.54 1319.92 1241.61Z" fill="#FAFAFA"/>
<path d="M1397.85 1130.64C1387.56 1142.52 1375.24 1152.48 1361.45 1160.04C1348.44 1168.83 1333.92 1175.16 1318.61 1178.7C1318.05 1177.4 1337.28 1169.37 1358.93 1155.56C1380.59 1141.74 1396.92 1129.52 1397.85 1130.64Z" fill="#FAFAFA"/>
<path d="M1329.25 1016.87C1299.8 1043.36 1262.28 1059.14 1222.76 1061.67C1222.76 1060.17 1248.42 1056.25 1277.92 1043.65C1307.41 1031.05 1328.31 1015.65 1329.25 1016.87Z" fill="#FAFAFA"/>
<path d="M1338.49 1431.63C1335.75 1433.47 1332.8 1435.01 1329.72 1436.2C1323.84 1439 1315.35 1442.45 1304.52 1446.47C1276.39 1456.58 1247.36 1463.95 1217.82 1468.49C1188.28 1473.05 1158.36 1474.71 1128.5 1473.44C1117.02 1472.97 1107.78 1472.13 1101.43 1471.29C1098.11 1471.07 1094.82 1470.48 1091.63 1469.52C1091.63 1468.68 1105.82 1469.52 1128.97 1470.08C1188.3 1470.63 1247.34 1461.56 1303.77 1443.2C1325.05 1436.2 1338.21 1430.88 1338.49 1431.63Z" fill="#FAFAFA"/>
<path d="M1341.95 1558.09C1341.95 1558.09 1340.64 1559.03 1337.93 1560.43L1325.99 1565.65C1315.72 1570.5 1300.51 1576.85 1281.47 1584.32C1262.43 1591.78 1239.38 1598.97 1213.43 1606.06C1157.02 1621.25 1099.13 1630.24 1040.77 1632.85C1013.89 1633.88 989.716 1633.78 969.37 1632.85C949.024 1631.92 932.691 1630.42 921.398 1628.84L908.425 1627.06C906.897 1626.95 905.391 1626.64 903.945 1626.13C905.46 1625.89 907.004 1625.89 908.518 1626.13L921.585 1626.97C932.878 1627.9 949.584 1628.84 969.464 1629.4C989.343 1629.96 1013.89 1629.4 1040.58 1628.46C1067.27 1627.53 1096.58 1624.17 1127.1 1619.13C1157.62 1614.09 1186.36 1608.02 1212.31 1601.49C1238.26 1594.96 1261.22 1587.58 1280.25 1580.77C1299.29 1573.96 1314.79 1568.26 1325.24 1563.97L1337.37 1559.21C1338.85 1558.68 1340.39 1558.3 1341.95 1558.09Z" fill="#FAFAFA"/>
<path d="M523.34 3542.21L472.848 3770.22L380.731 3939.05C379.164 3941.94 378.206 3945.11 377.915 3948.38C377.624 3951.65 378.006 3954.94 379.038 3958.05C380.071 3961.17 381.731 3964.04 383.916 3966.48C386.102 3968.93 388.766 3970.9 391.744 3972.28C395.201 3973.87 398.989 3974.6 402.789 3974.42C406.588 3974.24 410.29 3973.16 413.583 3971.25C456.329 3946.61 613.218 3854.87 615.924 3837.98C619.191 3818.47 685.176 3601.01 685.176 3601.01L523.34 3542.21Z" fill="#AF1EE0"/>
<g opacity="0.6">
<path d="M391.742 3972.28L619.749 3822.95L617.323 3832.28C615.327 3840.61 610.43 3847.96 603.51 3853C584.843 3866.35 532.858 3902.19 414.328 3971.44C410.925 3973.43 407.082 3974.55 403.141 3974.7C399.2 3974.84 395.284 3974.01 391.742 3972.28Z" fill="white"/>
</g>
<g opacity="0.6">
<path d="M591.095 3738.11C587.802 3739.48 585.132 3742.03 583.599 3745.25C582.066 3748.47 581.777 3752.14 582.789 3755.56C584.035 3758.89 586.509 3761.62 589.703 3763.18C592.897 3764.75 596.568 3765.03 599.961 3763.96C603.487 3762.51 606.341 3759.78 607.964 3756.33C609.587 3752.88 609.862 3748.94 608.735 3745.3C607.082 3741.99 604.227 3739.45 600.756 3738.18C597.285 3736.91 593.461 3737.02 590.068 3738.48" fill="white"/>
</g>
<path d="M467.904 3885.85C464.139 3877.46 458.854 3869.84 452.318 3863.36C444.789 3858.12 436.333 3854.35 427.398 3852.26C427.398 3851.6 430.665 3850.58 436.172 3851.14C443.337 3852.06 450.081 3855.04 455.584 3859.72C461.13 3864.22 465.222 3870.26 467.344 3877.08C468.931 3882.4 468.464 3885.85 467.904 3885.85Z" fill="#263238"/>
<path d="M444.293 3912.27C442.986 3913.01 437.479 3903.87 426.56 3897.61C419.594 3894.38 412.423 3891.6 405.094 3889.31C409.123 3887.99 413.408 3887.65 417.596 3888.31C421.783 3888.98 425.752 3890.63 429.173 3893.13C441.586 3900.32 445.599 3911.99 444.293 3912.27Z" fill="#263238"/>
<path d="M507.476 3854.31C499.539 3845.5 490.927 3837.32 481.717 3829.86C471.57 3823.67 460.961 3818.27 449.984 3813.71C462.607 3813.45 474.911 3817.69 484.703 3825.66C495.5 3832.15 503.587 3842.33 507.476 3854.31Z" fill="#263238"/>
<path d="M528.661 3786.27C527.727 3787.48 516.434 3779.18 500.661 3774.6C484.889 3770.03 470.609 3770.78 470.516 3769.19C480.904 3766.5 491.825 3766.67 502.126 3769.67C512.427 3772.68 521.724 3778.41 529.034 3786.27H528.661Z" fill="#263238"/>
<path d="M545.178 3719.73C536.074 3714.1 526.247 3709.73 515.966 3706.75C505.375 3705.31 494.638 3705.31 484.047 3706.75C484.047 3706.19 486.94 3703.95 492.913 3702.18C500.765 3700.05 509.006 3699.78 516.979 3701.4C524.952 3703.02 532.436 3706.48 538.832 3711.51C543.592 3715.99 545.552 3719.35 545.178 3719.73Z" fill="#263238"/>
<path d="M519.418 3694.15C519.425 3691.19 520.061 3688.27 521.284 3685.57C523.929 3677.86 528.121 3670.78 533.604 3664.75C537.191 3659.98 542.237 3656.51 547.977 3654.86C549.931 3654.54 551.937 3654.81 553.734 3655.65C555.531 3656.48 557.037 3657.83 558.057 3659.53C559.772 3663.01 560.138 3667 559.083 3670.73C556.69 3678.21 551.769 3684.63 545.163 3688.89C538.557 3693.15 530.676 3694.97 522.871 3694.06C515.174 3692.96 507.973 3689.61 502.177 3684.43C496.381 3679.25 492.248 3672.47 490.299 3664.94C489.851 3663.03 489.81 3661.04 490.18 3659.11C490.55 3657.18 491.322 3655.35 492.445 3653.74C493.735 3652.24 495.47 3651.18 497.4 3650.73C499.33 3650.27 501.354 3650.45 503.178 3651.22C508.454 3653.85 512.956 3657.81 516.245 3662.7C521.191 3669.18 524.951 3676.47 527.351 3684.26C528.488 3687.04 529.029 3690.03 528.938 3693.03C525.175 3682.97 519.921 3673.53 513.351 3665.03C510.292 3661.05 506.325 3657.85 501.778 3655.7C500.779 3655.27 499.665 3655.17 498.605 3655.42C497.545 3655.67 496.595 3656.26 495.898 3657.1C495.246 3658.2 494.827 3659.42 494.666 3660.69C494.506 3661.96 494.607 3663.25 494.965 3664.47C496.912 3670.81 500.608 3676.46 505.627 3680.79C510.647 3685.12 516.786 3687.94 523.338 3688.93C529.939 3689.69 536.605 3688.2 542.25 3684.69C547.894 3681.18 552.183 3675.87 554.417 3669.61C555.321 3667.07 555.321 3664.3 554.417 3661.77C553.888 3660.81 553.072 3660.04 552.084 3659.58C551.096 3659.11 549.986 3658.96 548.91 3659.15C544.046 3660.49 539.712 3663.29 536.497 3667.18C529.338 3675.16 523.565 3684.27 519.418 3694.15Z" fill="#263238"/>
<g opacity="0.3">
<path d="M517.177 3566.94L506.258 3619.21L671.36 3646.65L685.173 3601.01L523.057 3542.21L517.177 3566.94Z" fill="black"/>
</g>
<path d="M1260.65 3626.58L1247.03 3808.76C1247.03 3808.76 1427.71 3883.43 1428.46 3917.77L1073.8 3904.05L1083.14 3619.21L1260.65 3626.58Z" fill="#AF1EE0"/>
<g opacity="0.6">
<path d="M1138.3 3789.16C1134.86 3790.09 1131.87 3792.24 1129.91 3795.22C1127.95 3798.19 1127.15 3801.78 1127.66 3805.31C1128.44 3808.78 1130.52 3811.82 1133.47 3813.81C1136.41 3815.81 1140.01 3816.6 1143.52 3816.04C1147.18 3815.07 1150.36 3812.78 1152.42 3809.61C1154.49 3806.44 1155.31 3802.61 1154.72 3798.87C1153.54 3795.33 1151.04 3792.38 1147.73 3790.64C1144.43 3788.9 1140.58 3788.5 1136.99 3789.54" fill="white"/>
</g>
<g opacity="0.6">
<path d="M1073.99 3904.05L1076.05 3875.31L1415.3 3898.92C1415.3 3898.92 1430.89 3906.39 1428.65 3917.59L1073.99 3904.05Z" fill="white"/>
</g>
<path d="M1253 3807.18C1253 3808.95 1244.23 3809.42 1235.55 3814.64C1226.87 3819.87 1222.02 3826.96 1220.43 3826.22C1218.84 3825.47 1221.83 3815.58 1232.47 3809.42C1243.11 3803.26 1253.47 3805.59 1253 3807.18Z" fill="#263238"/>
<path d="M1289.59 3824.26C1289.59 3826.03 1282.31 3828.64 1276.15 3835.74C1269.99 3842.83 1268.03 3850.48 1266.25 3850.39C1264.48 3850.3 1263.83 3840.4 1271.67 3831.72C1279.51 3823.04 1289.59 3822.39 1289.59 3824.26Z" fill="#263238"/>
<path d="M1309 3869.34C1307.41 3869.34 1305.36 3860.84 1310.12 3851.6C1314.88 3842.36 1323.18 3838.82 1323.84 3840.31C1324.49 3841.8 1319.36 3846.66 1315.53 3854.31C1311.7 3861.96 1310.68 3869.24 1309 3869.34Z" fill="#263238"/>
<path d="M1251.32 3765.36C1250.57 3766.86 1242.73 3764.15 1232.66 3764.43C1222.58 3764.71 1215.11 3767.51 1213.99 3766.02C1212.87 3764.52 1220.71 3758.64 1232.66 3758.46C1244.6 3758.27 1252.44 3764.06 1251.32 3765.36Z" fill="#263238"/>
<g opacity="0.3">
<path d="M1258.14 3662.7L1255.71 3695.18L1081.65 3686.78L1082.86 3649.26L1258.14 3662.7Z" fill="black"/>
</g>
<path d="M1253.65 3728.5C1247.79 3729.92 1241.64 3729.66 1235.92 3727.75C1229.45 3726.41 1223.18 3724.24 1217.25 3721.31C1213.8 3719.61 1210.46 3717.68 1207.27 3715.53C1205.32 3714.33 1203.56 3712.85 1202.04 3711.14C1201.01 3709.8 1200.45 3708.16 1200.45 3706.47C1200.45 3704.79 1201.01 3703.14 1202.04 3701.81C1202.95 3700.63 1204.12 3699.68 1205.47 3699.05C1206.82 3698.41 1208.3 3698.11 1209.79 3698.17C1212.03 3698.26 1214.26 3698.63 1216.41 3699.29C1220.15 3700.38 1223.77 3701.81 1227.24 3703.58C1233.13 3706.46 1238.52 3710.27 1243.2 3714.87C1251.13 3722.81 1253.65 3729.43 1253.09 3729.71C1252.53 3729.99 1248.52 3724.67 1240.4 3718.05C1235.63 3714.32 1230.43 3711.18 1224.91 3708.71C1221.61 3707.35 1218.25 3706.16 1214.83 3705.17C1211.09 3704.05 1207.92 3703.95 1206.89 3705.17C1205.87 3706.38 1206.89 3706.1 1206.89 3707.22C1208.01 3708.45 1209.3 3709.52 1210.72 3710.39C1213.71 3712.48 1216.83 3714.38 1220.05 3716.09C1225.44 3719.05 1231.09 3721.49 1236.95 3723.37C1242.63 3724.68 1248.21 3726.39 1253.65 3728.5Z" fill="#263238"/>
<path d="M1251.32 3730.93C1248.22 3725.69 1246.82 3719.63 1247.31 3713.57C1247.34 3707 1248.41 3700.48 1250.48 3694.25C1251.82 3690.59 1253.47 3687.07 1255.43 3683.7C1256.48 3681.39 1258.1 3679.39 1260.14 3677.89C1262.18 3676.38 1264.58 3675.43 1267.09 3675.11C1268.69 3675.22 1270.22 3675.77 1271.51 3676.71C1272.8 3677.66 1273.79 3678.95 1274.37 3680.43C1275.18 3682.53 1275.69 3684.73 1275.87 3686.97C1276.48 3690.92 1276.48 3694.95 1275.87 3698.91C1274.62 3705.51 1271.76 3711.69 1267.56 3716.93C1260.28 3726.26 1253 3727.66 1252.81 3727.1C1252.63 3726.54 1258.41 3723.09 1264.11 3714.41C1267.37 3709.46 1269.51 3703.85 1270.36 3697.98C1270.83 3694.57 1270.83 3691.12 1270.36 3687.71C1269.89 3683.98 1268.59 3680.81 1267.19 3681.18C1265.79 3681.55 1262.33 3683.79 1260.75 3686.78C1258.92 3689.76 1257.33 3692.89 1255.99 3696.11C1253.83 3701.75 1252.44 3707.65 1251.88 3713.66C1250.67 3724.11 1252.25 3730.93 1251.32 3730.93Z" fill="#263238"/>
<path d="M894.049 1661.78C894.049 1661.78 838.05 1664.3 800.718 1855.82C763.386 2047.33 478.82 3599.14 478.82 3599.14L685.175 3601.01L1073.99 2125.64L1048.14 3646.93L1257.76 3662.98C1257.76 3662.98 1415.02 1980.32 1416.42 1882.42C1418.29 1760.34 1348.2 1636.86 1348.2 1636.86L894.049 1661.78Z" fill="#263238"/>
<path d="M1177.68 1645.45C1178.99 1645.45 1157.52 1755.11 1129.81 1889.79C1102.09 2024.47 1078.57 2133.48 1077.26 2133.2C1075.95 2132.92 1097.33 2023.53 1125.05 1888.86C1152.76 1754.18 1176.66 1645.17 1177.68 1645.45Z" fill="#455A64"/>
<path d="M1209.79 1672.8C1209.79 1672.24 1215.39 1670.56 1221.83 1676.25C1223.66 1677.91 1225.1 1679.94 1226.07 1682.21C1227.04 1684.49 1227.5 1686.94 1227.43 1689.41C1227.19 1692.53 1226.08 1695.52 1224.21 1698.03C1222.34 1700.54 1219.8 1702.47 1216.88 1703.6C1214.03 1704.89 1210.88 1705.36 1207.77 1704.94C1204.67 1704.53 1201.75 1703.26 1199.33 1701.26C1197.53 1699.57 1196.11 1697.51 1195.16 1695.23C1194.21 1692.94 1193.75 1690.48 1193.83 1688.01C1193.83 1679.42 1199.61 1676.44 1199.71 1677C1198.13 1680.42 1197.31 1684.14 1197.28 1687.92C1197.41 1689.81 1197.91 1691.66 1198.76 1693.36C1199.61 1695.06 1200.79 1696.57 1202.23 1697.81C1204.07 1699.08 1206.2 1699.86 1208.42 1700.09C1210.65 1700.33 1212.9 1699.99 1214.96 1699.13C1217.02 1698.27 1218.83 1696.9 1220.23 1695.15C1221.63 1693.4 1222.56 1691.33 1222.95 1689.13C1223.08 1687.24 1222.84 1685.34 1222.23 1683.54C1221.62 1681.75 1220.66 1680.09 1219.4 1678.68C1214.83 1673.36 1209.69 1673.54 1209.79 1672.8Z" fill="#455A64"/>
<path d="M1200.92 1748.58C1200.92 1748.02 1206.71 1748.58 1210.25 1756.33C1211.16 1758.54 1211.57 1760.92 1211.45 1763.31C1211.34 1765.69 1210.71 1768.02 1209.6 1770.14C1208 1772.66 1205.74 1774.69 1203.06 1776.02C1200.39 1777.34 1197.41 1777.92 1194.43 1777.68C1191.46 1777.44 1188.61 1776.39 1186.18 1774.65C1183.76 1772.92 1181.85 1770.55 1180.67 1767.81C1179.92 1765.56 1179.68 1763.17 1179.95 1760.82C1180.23 1758.46 1181.01 1756.2 1182.26 1754.18C1186.64 1747.18 1192.62 1747.37 1192.43 1747.93C1192.24 1748.49 1187.95 1749.79 1185.24 1755.77C1183.87 1759.12 1183.87 1762.87 1185.24 1766.22C1186.22 1768.07 1187.64 1769.65 1189.39 1770.8C1191.14 1771.95 1193.15 1772.65 1195.23 1772.81C1197.32 1772.98 1199.41 1772.62 1201.32 1771.76C1203.23 1770.9 1204.89 1769.57 1206.15 1767.9C1207.91 1764.71 1208.34 1760.96 1207.36 1757.45C1204.65 1751.1 1200.46 1749.23 1200.92 1748.58Z" fill="#455A64"/>
<path d="M1003.16 1674.66C1002.77 1677.87 1001.96 1681.01 1000.73 1684C997.814 1692.54 994.16 1700.82 989.809 1708.73C975.569 1735.13 955.002 1757.59 929.951 1774.09C904.899 1790.59 876.146 1800.62 846.267 1803.27C837.293 1804.05 828.268 1804.05 819.294 1803.27C816.132 1803.17 812.996 1802.67 809.961 1801.78C809.961 1800.85 824.054 1802.43 846.36 1799.63C875.432 1796.1 903.289 1785.88 927.742 1769.77C952.196 1753.66 972.579 1732.09 987.289 1706.77C998.209 1687.92 1002.32 1674.38 1003.16 1674.66Z" fill="#455A64"/>
<path d="M1404.66 1810.83C1404.66 1810.83 1402.24 1809.71 1398.41 1807.1C1393.06 1803.25 1388.07 1798.94 1383.48 1794.22C1368.13 1778.68 1356.15 1760.14 1348.3 1739.76C1340.45 1719.38 1336.88 1697.6 1337.84 1675.78C1338.05 1669.21 1338.9 1662.68 1340.36 1656.28C1341.39 1651.7 1342.04 1649.28 1342.41 1649.37C1342.79 1649.46 1341.29 1659.54 1341.29 1675.88C1341.31 1718.75 1357.24 1760.09 1386 1791.89C1396.92 1803.93 1405.13 1810.09 1404.66 1810.83Z" fill="#455A64"/>
<path d="M2128.63 1816.24C2131.71 1808.78 2130.87 1811.76 2081.4 1778.91C2081.4 1778.91 2152.33 1825.58 2144.96 1803.36C2138.58 1794.95 2130.78 1787.72 2121.91 1781.99C2140.57 1793 2151.4 1794.22 2154.66 1789.74C2160.26 1781.99 2119.67 1752.41 2100.35 1739.06C2118.01 1751.7 2136.53 1763.08 2155.78 1773.13C2167.26 1776.67 2161.76 1763.23 2154.01 1753.43C2146.27 1743.63 2086.16 1685.77 2070.01 1668.5C2068.48 1667.19 2067.24 1665.56 2066.4 1663.72C2065.55 1661.88 2065.11 1659.88 2065.11 1657.86C2065.11 1655.84 2065.55 1653.84 2066.4 1652C2067.24 1650.17 2068.48 1648.54 2070.01 1647.22C2098.95 1628.56 2111.64 1598.78 2111.27 1588.98C2110.94 1586.78 2109.93 1584.73 2108.37 1583.13C2106.82 1581.54 2104.79 1580.48 2102.6 1580.11C2100.4 1579.73 2098.14 1580.07 2096.14 1581.06C2094.14 1582.05 2092.51 1583.65 2091.48 1585.62C2084.18 1594.7 2075.67 1602.74 2066.19 1609.52C2058.84 1615.25 2050.57 1619.7 2041.73 1622.68C2031.47 1626.04 1980.98 1623.24 1970.15 1617.73L1935.71 1734.49C1935.71 1734.49 2060.68 1792.91 2084.39 1804.3C2113.51 1818.11 2126.48 1821.94 2128.63 1816.24Z" fill="#FFBE9D"/>
<path d="M2058.91 1761.65C2057.89 1763.05 2074.13 1774.9 2095.13 1788.25C2116.13 1801.59 2133.76 1811.2 2134.6 1809.8C2135.44 1808.4 2119.2 1796.46 2098.3 1783.21C2077.39 1769.95 2059.85 1759.87 2058.91 1761.65Z" fill="#EB996E"/>
<path d="M2070.67 1738.78C2069.74 1740.18 2086.35 1753.81 2108 1769.3C2129.66 1784.79 2147.57 1796.27 2148.51 1794.97C2149.44 1793.66 2132.92 1779.94 2111.18 1764.45C2089.43 1748.95 2071.7 1737.47 2070.67 1738.78Z" fill="#EB996E"/>
<path d="M2083.09 1715.63C2082.15 1716.94 2097.65 1730.19 2117.71 1745.13C2137.78 1760.06 2155.05 1771.07 2155.79 1769.77C2156.54 1768.46 2141.33 1755.21 2121.26 1740.27C2101.19 1725.34 2084.11 1714.33 2083.09 1715.63Z" fill="#EB996E"/>
<path d="M812.01 1292.75L903.661 1297.79C910.153 1323.38 918.834 1348.36 929.607 1372.46C1003.43 1244.41 1060.27 1072.77 1074.83 1003.8C1072.78 997.02 1070.26 989.367 1067.27 980.843C1065.03 967.957 1065.41 954.752 1068.39 942.017C1070.91 926.711 1075.2 905.991 1076.42 896.472C1080.43 867.352 1085.1 862.686 1095.08 866.046C1108.9 870.526 1089.39 947.897 1100.68 949.577C1106.84 950.417 1114.22 923.911 1116.46 902.165C1118.7 880.419 1128.4 813.594 1135.59 808.834C1146.13 802.301 1155.28 812.661 1152.67 834.313C1150.05 855.966 1146.6 921.578 1158.08 922.418C1169.56 923.258 1178.89 812.38 1178.89 812.38C1178.89 812.38 1177.12 788.301 1190.37 788.861C1214.36 789.888 1195.69 906.831 1193.64 917.938C1192.15 925.591 1204.65 927.271 1205.77 918.684C1206.89 910.098 1212.68 807.714 1237.04 808.554C1255.7 809.207 1222.57 904.871 1233.12 927.084C1243.67 949.297 1250.94 851.766 1268.86 853.073C1275.49 853.633 1280.44 854.939 1268.21 910.098C1256.28 953.959 1241.98 997.141 1225.37 1039.45C1197.37 1192.52 1072.4 1682.13 877.155 1592.53C767.958 1542.41 716.906 1293.87 716.906 1293.87L812.01 1292.75Z" fill="#FFBE9D"/>
<path d="M1225.56 1040.29C1225.72 1039.14 1226.03 1038.01 1226.49 1036.93C1227.33 1034.51 1228.36 1031.33 1229.76 1027.6C1232.84 1018.73 1237.04 1006.41 1242.54 990.269C1248.05 974.122 1254.68 954.523 1261.21 931.377C1264.57 919.897 1267.37 907.391 1269.89 894.044C1271.2 887.325 1272.41 880.418 1273.25 873.325C1273.48 869.814 1273.48 866.29 1273.25 862.779C1273.25 859.139 1272.41 856.152 1269.52 856.059C1266.62 855.966 1264.57 857.739 1262.52 860.819C1260.66 864.114 1259.13 867.584 1257.94 871.178C1255.33 878.552 1253.28 886.392 1251.22 894.325C1249.17 902.258 1247.3 910.564 1244.88 918.964C1243.82 923.565 1241.92 927.931 1239.28 931.843C1238.61 932.61 1237.74 933.162 1236.76 933.43C1236.14 933.565 1235.5 933.56 1234.89 933.415C1234.27 933.269 1233.7 932.988 1233.21 932.59C1232.14 931.606 1231.25 930.437 1230.6 929.137C1229.61 926.845 1228.95 924.426 1228.64 921.95C1228.21 903.126 1230.09 884.32 1234.24 865.952C1235.82 856.619 1237.5 847.286 1238.72 837.953C1239.28 833.193 1239.84 828.62 1239.93 823.58C1240.02 818.54 1239.28 813.22 1237.32 812.38C1235.36 811.54 1230.6 814.153 1227.98 818.073C1225.4 822.214 1223.37 826.668 1221.92 831.326C1218.73 841.076 1216.33 851.062 1214.73 861.192C1212.96 871.459 1211.56 881.912 1210.34 892.551C1209.88 897.871 1209.32 903.191 1208.85 908.604L1208.1 916.724C1208.2 918.458 1207.92 920.193 1207.28 921.806C1206.63 923.419 1205.64 924.87 1204.37 926.057C1202.77 927.225 1200.84 927.855 1198.86 927.855C1196.88 927.855 1194.96 927.225 1193.36 926.057C1192.45 925.459 1191.69 924.676 1191.11 923.758C1190.53 922.841 1190.15 921.811 1190 920.737C1189.86 919.747 1189.86 918.741 1190 917.751V915.791L1192.52 899.458C1194.1 888.445 1195.41 877.432 1196.44 866.232C1197.46 855.032 1198.3 843.739 1198.49 832.446C1199.04 821.265 1197.91 810.066 1195.13 799.22C1194.49 796.468 1192.82 794.065 1190.46 792.501C1189.34 792.139 1188.13 792.143 1187 792.512C1185.88 792.881 1184.9 793.595 1184.21 794.554C1181.19 800.079 1179.95 806.403 1180.66 812.66C1178.61 834.593 1176.28 856.152 1173.11 877.338C1171.52 887.885 1169.75 898.431 1167.13 908.791C1166.39 911.311 1165.64 913.924 1164.71 916.537C1163.82 919.704 1161.96 922.512 1159.39 924.564C1158.25 925.122 1156.96 925.279 1155.72 925.007C1154.48 924.736 1153.37 924.053 1152.57 923.07C1151.43 921.873 1150.57 920.439 1150.05 918.871C1149.05 916.282 1148.33 913.59 1147.91 910.844C1145.72 890.534 1145.53 870.059 1147.35 849.712C1148.73 840.228 1149.26 830.639 1148.93 821.06C1148.63 816.971 1146.76 813.158 1143.71 810.42C1142.99 809.975 1142.19 809.679 1141.36 809.551C1140.52 809.422 1139.67 809.464 1138.85 809.674C1137.98 809.968 1137.14 810.343 1136.33 810.793C1135.49 811.54 1135.59 810.793 1135.03 812.38C1131.65 820.773 1129.18 829.503 1127.65 838.419C1125.79 847.753 1124.2 856.246 1122.8 865.019C1121.4 873.792 1120.09 882.378 1118.97 890.965C1117.85 899.551 1117.29 907.951 1115.61 916.351C1114.16 924.557 1111.98 932.616 1109.08 940.43C1108.31 942.418 1107.41 944.352 1106.37 946.217C1105.07 947.99 1104.32 950.23 1100.77 951.35C1099.87 951.516 1098.93 951.41 1098.08 951.045C1097.24 950.679 1096.52 950.071 1096.01 949.296C1095.36 948.219 1094.86 947.057 1094.52 945.843C1094.1 943.814 1093.85 941.754 1093.77 939.683C1093.77 923.724 1095.92 909.164 1096.76 895.071C1097.37 888.334 1097.37 881.556 1096.76 874.818C1096.76 871.832 1095.36 868.285 1093.68 867.632C1092.5 867.055 1091.21 866.755 1089.9 866.755C1088.59 866.755 1087.3 867.055 1086.12 867.632C1082.2 871.839 1079.78 877.217 1079.21 882.938C1077.81 888.631 1077.25 894.418 1076.23 899.924C1072.31 921.95 1068.2 940.99 1066.24 956.483C1065.32 963.296 1065.32 970.202 1066.24 977.016C1067.55 982.615 1069.51 987.655 1070.53 991.575C1071.56 995.495 1072.59 998.295 1073.24 1000.91C1073.59 1001.91 1073.84 1002.94 1073.99 1003.99C1073.43 1003.08 1072.99 1002.11 1072.68 1001.09L1069.51 991.762C1068.2 987.749 1066.24 983.269 1064.65 977.109C1063.66 970.113 1063.66 963.012 1064.65 956.016C1066.43 940.243 1070.16 921.391 1073.99 899.271C1075.01 893.765 1075.57 887.978 1076.79 882.005C1077.46 878.85 1078.3 875.734 1079.31 872.672C1080.24 869.277 1082.28 866.289 1085.09 864.179C1086.79 863.28 1088.68 862.81 1090.6 862.81C1092.52 862.81 1094.41 863.28 1096.11 864.179C1097.93 865.329 1099.43 866.929 1100.46 868.824C1101.49 870.72 1102.02 872.848 1101.99 875.005C1102.64 882.021 1102.64 889.082 1101.99 896.098C1101.33 910.284 1099.09 925.124 1099.47 940.243C1099.54 942.032 1099.75 943.811 1100.12 945.563C1100.12 947.336 1101.43 948.083 1101.24 947.71C1101.05 947.336 1103.01 946.216 1103.76 944.723C1104.68 943.067 1105.49 941.352 1106.19 939.59C1108.95 932.025 1110.98 924.211 1112.25 916.257C1113.84 908.137 1114.4 899.738 1115.52 891.058C1116.64 882.378 1117.76 873.792 1119.16 864.925C1120.56 856.059 1122.15 847.193 1123.92 838.139C1125.44 828.685 1128.07 819.443 1131.76 810.607C1132.51 809.125 1133.63 807.868 1135.03 806.967C1136.27 806.287 1137.58 805.754 1138.95 805.38C1140.51 804.933 1142.15 804.826 1143.76 805.068C1145.37 805.309 1146.91 805.893 1148.28 806.78C1150.44 808.5 1152.23 810.647 1153.53 813.087C1154.83 815.528 1155.62 818.21 1155.84 820.967C1156.54 826.045 1156.54 831.195 1155.84 836.273C1155.37 841.033 1154.91 845.606 1154.63 850.832C1152.81 870.711 1152.99 890.723 1155.19 910.564C1155.59 912.921 1156.21 915.234 1157.05 917.471C1157.33 918.374 1157.81 919.203 1158.45 919.897C1158.45 919.897 1158.45 919.897 1158.92 919.897C1158.92 922.044 1158.92 919.897 1158.92 920.737C1158.92 921.577 1158.92 920.737 1158.92 919.991C1160.08 918.431 1161 916.699 1161.63 914.857C1162.5 912.555 1163.24 910.129 1163.87 907.578C1166.39 897.685 1168.07 887.231 1169.65 876.778C1172.83 855.779 1175.16 834.219 1177.12 812.38V812.847C1176.29 805.154 1177.96 797.398 1181.88 790.727C1183.38 788.821 1185.43 787.428 1187.75 786.742C1190.08 786.056 1192.56 786.112 1194.85 786.901C1196.81 787.987 1198.53 789.456 1199.91 791.219C1201.29 792.983 1202.3 795.006 1202.88 797.167C1205.87 808.644 1207.09 820.508 1206.52 832.353C1206.52 843.926 1205.49 855.312 1204.46 866.605C1203.44 877.898 1202.04 889.005 1200.45 900.018C1199.61 905.618 1198.77 911.031 1197.93 916.537C1197.18 919.99 1197.37 920.084 1197.93 921.11C1198.58 921.548 1199.34 921.782 1200.12 921.782C1200.91 921.782 1201.67 921.548 1202.32 921.11C1203.44 920.271 1203.62 918.684 1203.9 915.604L1204.56 907.484L1206.24 891.338C1207.36 880.698 1208.85 870.059 1210.62 859.699C1212.35 849.293 1214.85 839.03 1218.09 828.993C1219.79 823.92 1222.07 819.064 1224.9 814.527C1226.45 812.081 1228.48 809.983 1230.88 808.367C1232.21 807.404 1233.75 806.775 1235.37 806.531C1237 806.287 1238.66 806.437 1240.21 806.967C1241.64 807.849 1242.85 809.049 1243.74 810.473C1244.63 811.898 1245.18 813.508 1245.34 815.18C1245.73 817.806 1245.88 820.46 1245.81 823.113C1245.81 828.246 1245.16 833.193 1244.6 838.139C1243.29 847.473 1241.52 857.366 1239.84 866.792C1235.83 884.521 1233.89 902.655 1234.05 920.831C1234.31 922.782 1234.81 924.694 1235.54 926.524C1235.88 927.186 1236.29 927.812 1236.76 928.39C1236.76 928.39 1236.76 928.39 1236.76 927.737C1238.85 924.363 1240.4 920.677 1241.33 916.817C1243.76 908.697 1245.72 900.484 1247.86 892.458C1249.79 884.472 1252.12 876.59 1254.86 868.845C1256.16 865.009 1257.84 861.318 1259.9 857.832C1261.02 855.932 1262.47 854.255 1264.2 852.886C1265.13 852.072 1266.25 851.496 1267.46 851.206C1268.67 851.017 1269.9 851.017 1271.1 851.206C1272.38 851.333 1273.59 851.798 1274.63 852.553C1275.66 853.307 1276.47 854.325 1276.98 855.499C1277.76 857.46 1278.17 859.548 1278.2 861.659C1278.27 865.434 1278.05 869.21 1277.54 872.952C1276.7 880.232 1275.3 887.138 1274 893.951C1271.29 907.298 1268.3 919.99 1264.66 931.284C1257.66 954.43 1250.66 974.029 1244.97 989.989C1239.28 1005.95 1234.42 1017.99 1231.16 1026.57C1229.57 1030.49 1228.26 1033.57 1227.33 1035.91C1226.91 1037.43 1226.32 1038.91 1225.56 1040.29Z" fill="#EB996E"/>
<path d="M716.07 1303.3C733.803 1365.92 768.522 1462.52 805.761 1564.63C806.935 1567.92 809.059 1570.78 811.864 1572.86C814.668 1574.94 818.028 1576.15 821.517 1576.32C825.005 1576.49 828.466 1575.62 831.459 1573.82C834.453 1572.02 836.846 1569.37 838.334 1566.21L929.611 1373.11C929.611 1373.11 907.585 1214.45 909.452 1220.14C911.318 1225.83 721.11 1240.67 721.11 1240.67L716.07 1303.3Z" fill="#AF1EE0"/>
<path d="M921.767 1272.22C921.767 1272.97 910.381 1276.33 892.368 1283.23C868.827 1292.17 846.147 1303.23 824.61 1316.27C803.1 1329.38 782.799 1344.37 763.945 1361.07C749.478 1373.86 741.172 1382.63 740.612 1382.07C740.052 1381.51 742.198 1379.46 745.745 1375.26C750.745 1369.42 756.04 1363.85 761.611 1358.55C780.008 1340.84 800.288 1325.19 822.09 1311.89C843.897 1298.75 867.051 1287.98 891.154 1279.78C898.44 1277.27 905.855 1275.15 913.367 1273.43C916.084 1272.58 918.92 1272.17 921.767 1272.22Z" fill="#FAFAFA"/>
<path d="M957.983 1320.38C952.053 1314.4 946.909 1307.69 942.677 1300.41C931.778 1283.41 922.408 1265.48 914.678 1246.83C906.943 1228.13 900.914 1208.76 896.665 1188.97C894.49 1180.87 893.392 1172.53 893.398 1164.14C896.182 1171.97 898.397 1179.98 900.025 1188.13C905.025 1207.45 911.26 1226.44 918.691 1244.97C926.455 1263.4 935.37 1281.32 945.384 1298.63C950.044 1305.6 954.253 1312.87 957.983 1320.38Z" fill="#263238"/>
<path d="M1018.83 465.283C1003 491.38 993.18 520.679 990.096 551.048C987.013 581.416 990.739 612.091 1001 640.838C1010.34 666.504 1025.27 691.796 1022.56 719.049C1019.86 746.302 998.577 773.274 1006.04 800.153C1010.52 816.113 1024.15 828.153 1029.47 843.645C1035.54 862.312 1029.47 882.004 1026.2 901.137C1018.74 950.043 1034.42 999.228 1038.24 1048.51C1042.07 1097.79 1028.91 1155.56 984.857 1177.02C971.511 1183.56 954.058 1185.42 942.952 1175.44C928.766 1162.84 932.686 1140.06 936.605 1121.4C975.244 934.736 855.874 752.555 883.127 563.653C887.513 533.414 904.406 482.082 926.152 460.989C947.898 439.897 1008.28 442.323 1028.82 464.723" fill="#263238"/>
<path d="M834.969 1006.79C834.969 1006.79 840.662 1000.07 849.062 986.816C860.849 968.098 869.106 947.379 873.421 925.684C876.237 910.74 877.209 895.506 876.314 880.325C874.682 862.673 874.027 844.944 874.354 827.22C874.911 817.513 876.699 807.917 879.674 798.661C883.085 789.126 887.398 779.938 892.554 771.222C903.007 753.582 916.166 737.156 928.299 719.61C940.759 703.027 949.425 683.911 953.685 663.611C955.755 644.491 954.651 625.16 950.419 606.399C946.888 588.963 945.509 571.16 946.312 553.388C947.423 537.864 950.561 522.552 955.645 507.842C962.775 486.497 973.997 466.747 988.684 449.697C992.586 445.062 996.829 440.726 1001.38 436.724C1002.82 435.187 1004.45 433.839 1006.23 432.711C1006.23 432.711 999.977 438.777 990.084 451.377C966.521 480.625 952.744 516.538 950.699 554.041C950.074 571.522 951.61 589.014 955.272 606.119C959.724 625.384 960.923 645.258 958.819 664.918C954.394 685.783 945.477 705.434 932.686 722.503C920.46 740.329 907.3 756.662 897.034 773.835C891.984 782.227 887.794 791.107 884.527 800.341C881.575 809.219 879.787 818.442 879.208 827.78C878.795 845.309 879.293 862.848 880.701 880.325C881.442 895.812 880.251 911.331 877.154 926.524C872.477 948.515 863.605 969.397 851.022 988.029C847.615 993.066 843.873 997.867 839.822 1002.4C838.37 1004.04 836.742 1005.51 834.969 1006.79Z" fill="#455A64"/>
<path d="M746.492 1020.69C747.244 1018.52 748.213 1016.42 749.385 1014.44C751.719 1010.05 754.705 1004.27 758.718 996.989C766.558 981.776 778.225 959.656 789.704 931.657C803.747 898.955 811.534 863.911 812.664 828.34C812.669 818.091 811.889 807.857 810.33 797.727C808.744 787.274 806.317 776.728 804.731 765.715C802.79 754.323 803.043 742.666 805.477 731.369C808.633 719.771 815.124 709.355 824.143 701.41C841.69 685.451 862.876 674.997 873.889 656.238C883.43 637.637 889.053 617.275 890.408 596.413C892.383 577.288 896.709 558.48 903.288 540.415C918.081 501.631 944.44 468.332 978.792 445.03C984.269 441.344 989.974 438.009 995.872 435.044C997.863 433.851 999.995 432.911 1002.22 432.244C1002.22 432.244 993.819 436.724 979.912 446.617C960.312 460.604 943.344 477.951 929.794 497.856C920.397 511.5 912.746 526.268 907.021 541.814C900.732 559.923 896.658 578.726 894.888 597.813C892.088 617.692 889.848 639.905 877.902 659.598C865.955 679.291 844.116 690.49 827.41 706.263C818.896 713.651 812.759 723.393 809.77 734.262C807.502 744.95 807.28 755.971 809.117 766.742C810.61 777.475 812.944 788.114 814.53 798.661C816.145 809.034 816.894 819.523 816.77 830.02C815.502 866.243 807.296 901.886 792.598 935.017C783.05 957.407 772.206 979.221 760.118 1000.35L750.225 1015C749.186 1017.03 747.934 1018.93 746.492 1020.69Z" fill="#455A64"/>
<path d="M3834.44 3657.94C3834.87 3656.58 3835.43 3655.27 3836.12 3654.02C3837.42 3651.22 3839.2 3647.49 3841.34 3642.73C3847.84 3628.15 3853.05 3613.04 3856.93 3597.56C3867.2 3557.42 3870.84 3496.1 3855.62 3423.31C3847.36 3383.61 3836.54 3344.48 3823.24 3306.18C3809.61 3264.64 3793.65 3220.59 3780.68 3172.9C3766.03 3123.16 3758.95 3071.5 3759.68 3019.65C3761.64 2965.43 3777.69 2911.39 3795.33 2857.44C3812.97 2803.5 3831.17 2750.95 3836.58 2697.75C3842.6 2646.74 3832.34 2595.13 3807.28 2550.29C3783.95 2507.27 3754.55 2470.4 3732.61 2432.32C3712.08 2396.94 3696.95 2358.69 3687.72 2318.83C3674.48 2261.13 3673.49 2201.29 3684.83 2143.18C3688.96 2121.92 3695.21 2101.13 3703.49 2081.12C3703.24 2082.52 3702.87 2083.89 3702.37 2085.22L3698.64 2097.08C3695.47 2107.53 3691.27 2123.21 3687.25 2143.74C3676.82 2201.59 3678.38 2260.96 3691.83 2318.18C3701.19 2357.55 3716.38 2395.3 3736.91 2430.17C3758.84 2467.51 3788.33 2504.84 3812.22 2548.05C3837.9 2593.8 3848.45 2646.49 3842.37 2698.59C3836.86 2752.54 3818.57 2805.64 3800.93 2859.5C3783.29 2913.35 3767.43 2966.83 3765.47 3020.12C3764.63 3071.45 3771.55 3122.61 3786 3171.87C3798.78 3219.29 3814.46 3263.34 3828 3305.06C3841.18 3343.57 3851.78 3382.92 3859.73 3422.84C3874.57 3496.2 3870.37 3558.17 3859.73 3598.4C3855.57 3613.91 3849.97 3629 3843.02 3643.47L3837.24 3654.58C3836.43 3655.8 3835.5 3656.93 3834.44 3657.94Z" fill="#263238"/>
<path d="M3762.48 2469.93C3762.48 2469.93 3717.86 2327.04 3797.94 2243.42C3798.56 2242.75 3799.36 2242.26 3800.24 2242.01C3801.12 2241.76 3802.06 2241.77 3802.94 2242.02C3803.82 2242.27 3804.61 2242.76 3805.23 2243.44C3805.85 2244.11 3806.26 2244.95 3806.44 2245.85C3810.73 2269.46 3816.05 2341.32 3762.48 2469.93Z" fill="#AF1EE0"/>
<path d="M3789.27 2291.02C3789.13 2299.87 3788.13 2308.68 3786.28 2317.34C3783.29 2335.54 3779.84 2356.82 3776.11 2380.34C3772.37 2403.85 3768.92 2425.23 3766.03 2443.33C3765.21 2452.16 3763.65 2460.9 3761.36 2469.47C3760.49 2460.64 3760.67 2451.74 3761.92 2442.96C3763.41 2426.63 3766.31 2404.23 3770.32 2379.59C3774.33 2354.95 3778.72 2332.92 3782.17 2316.78C3783.54 2307.95 3785.92 2299.3 3789.27 2291.02Z" fill="#263238"/>
<path d="M3814.93 2806.95C3814.93 2806.95 3842.28 2659.77 3952.22 2623.37C3953.09 2623.07 3954.02 2623.01 3954.92 2623.21C3955.81 2623.41 3956.64 2623.85 3957.29 2624.49C3957.95 2625.13 3958.42 2625.94 3958.65 2626.83C3958.87 2627.72 3958.84 2628.65 3958.57 2629.53C3951.29 2652.21 3922.45 2718.19 3814.93 2806.95Z" fill="#AF1EE0"/>
<path d="M3922.26 2661.17C3918 2668.94 3913 2676.29 3907.33 2683.1L3868.79 2733.97L3830.52 2785.02C3825.7 2792.42 3820.24 2799.39 3814.19 2805.83C3817.6 2797.62 3821.98 2789.85 3827.25 2782.68C3836.59 2768.96 3849.28 2750.49 3864.59 2730.61C3879.89 2710.73 3893.8 2693.27 3904.35 2680.58C3909.59 2673.47 3915.6 2666.96 3922.26 2661.17Z" fill="#263238"/>
<path d="M3785.25 3175.89C3785.25 3175.89 3768.64 3027.12 3863.28 2960.39C3864.01 2959.82 3864.89 2959.47 3865.81 2959.38C3866.73 2959.29 3867.66 2959.47 3868.48 2959.89C3869.31 2960.31 3869.99 2960.96 3870.46 2961.76C3870.93 2962.56 3871.16 2963.47 3871.12 2964.4C3870.84 2988.39 3862.35 3059.88 3785.25 3175.89Z" fill="#AF1EE0"/>
<path d="M3845.92 3005.37C3844.19 3014.06 3841.53 3022.54 3837.99 3030.66L3815.96 3090.58C3807.75 3112.98 3800.38 3133.23 3794.12 3150.5C3791.73 3159 3788.61 3167.27 3784.79 3175.23C3785.65 3166.38 3787.6 3157.67 3790.58 3149.29C3795.15 3133.61 3802.24 3111.95 3810.92 3088.62C3819.6 3065.29 3828.09 3044.29 3834.53 3029.26C3837.51 3020.93 3841.32 3012.93 3845.92 3005.37Z" fill="#263238"/>
<path d="M3868.04 3547.16C3868.04 3547.16 3856.84 3397.83 3953.71 3334.55C3954.47 3334.03 3955.36 3333.73 3956.28 3333.68C3957.2 3333.64 3958.11 3333.85 3958.92 3334.3C3959.72 3334.74 3960.39 3335.41 3960.83 3336.21C3961.28 3337.01 3961.5 3337.92 3961.46 3338.84C3960.34 3362.83 3949.33 3434.04 3868.04 3547.16Z" fill="#AF1EE0"/>
<path d="M3934.49 3378.97C3932.4 3387.59 3929.43 3395.98 3925.62 3403.99C3918.71 3420.97 3910.5 3441.32 3901.45 3463.07C3892.39 3484.81 3884.46 3505.06 3877.55 3522.14C3874.79 3530.57 3871.26 3538.72 3867.01 3546.5C3868.25 3537.68 3870.53 3529.03 3873.82 3520.74C3878.95 3505.25 3886.79 3483.97 3896.31 3460.92C3905.83 3437.87 3914.98 3417.15 3921.98 3402.4C3925.3 3394.17 3929.49 3386.32 3934.49 3378.97Z" fill="#263238"/>
<path d="M3698.27 2344.4C3698.27 2344.4 3565.92 2274.96 3563.03 2159.33C3563.02 2158.42 3563.26 2157.53 3563.72 2156.75C3564.18 2155.96 3564.84 2155.32 3565.63 2154.88C3566.42 2154.44 3567.32 2154.22 3568.22 2154.25C3569.13 2154.28 3570.01 2154.55 3570.78 2155.03C3590.47 2168.66 3645.16 2215.7 3698.27 2344.4Z" fill="#AF1EE0"/>
<path d="M3590.56 2199.09C3596.77 2205.44 3602.31 2212.41 3607.08 2219.9C3617.91 2234.74 3630.51 2252.29 3644.41 2271.61L3681.75 2323.12C3687.43 2329.9 3692.49 2337.18 3696.87 2344.87C3690.04 2339.19 3683.93 2332.7 3678.67 2325.55C3668.12 2313.04 3654.31 2295.13 3639.75 2274.87C3625.19 2254.62 3612.4 2235.86 3603.63 2222.14C3598.48 2214.93 3594.11 2207.21 3590.56 2199.09Z" fill="#263238"/>
<path d="M3840.78 2651.18C3840.78 2651.18 3704.15 2590.05 3694.53 2474.6C3694.46 2473.69 3694.63 2472.78 3695.04 2471.97C3695.44 2471.15 3696.07 2470.47 3696.84 2469.98C3697.61 2469.5 3698.5 2469.24 3699.41 2469.23C3700.32 2469.22 3701.22 2469.47 3702 2469.93C3722.44 2482.35 3779.84 2525.84 3840.78 2651.18Z" fill="#AF1EE0"/>
<path d="M3724.59 2512.68C3731.17 2518.6 3737.11 2525.2 3742.32 2532.37L3782.82 2581.74L3823.42 2630.93C3829.5 2637.36 3835 2644.33 3839.85 2651.74C3832.69 2646.45 3826.17 2640.35 3820.44 2633.54C3809.24 2621.59 3794.3 2604.61 3778.53 2585.29C3762.76 2565.97 3748.95 2547.96 3739.24 2534.8C3733.55 2527.99 3728.64 2520.57 3724.59 2512.68Z" fill="#263238"/>
<path d="M3761.92 2993.61C3761.92 2993.61 3668.59 2876.95 3712.17 2769.62C3712.52 2768.77 3713.09 2768.04 3713.82 2767.5C3714.56 2766.97 3715.42 2766.64 3716.33 2766.56C3717.24 2766.49 3718.15 2766.66 3718.96 2767.07C3719.78 2767.47 3720.46 2768.1 3720.95 2768.87C3733.92 2789.12 3765 2854.08 3761.92 2993.61Z" fill="#AF1EE0"/>
<path d="M3721.6 2817.03C3724.79 2825.32 3727.11 2833.92 3728.51 2842.7C3732.43 2860.61 3737 2881.71 3742.04 2905.04C3747.08 2928.37 3751.84 2949.37 3755.76 2967.29C3758.26 2975.8 3759.98 2984.51 3760.89 2993.33C3756.8 2985.4 3753.66 2977 3751.56 2968.32C3746.99 2952.55 3741.39 2930.99 3736.16 2906.16C3730.93 2881.33 3726.83 2859.49 3724.21 2843.44C3722.38 2834.76 3721.5 2825.9 3721.6 2817.03Z" fill="#263238"/>
<path d="M3855.25 3395.96C3855.25 3395.96 3719.64 3332.59 3711.98 3217.05C3711.89 3216.12 3712.06 3215.2 3712.48 3214.37C3712.89 3213.54 3713.52 3212.84 3714.31 3212.35C3715.1 3211.87 3716 3211.61 3716.93 3211.62C3717.86 3211.62 3718.76 3211.89 3719.54 3212.38C3739.61 3225.16 3796.26 3269.68 3855.25 3395.96Z" fill="#AF1EE0"/>
<path d="M3741.11 3255.5C3747.52 3261.62 3753.34 3268.34 3758.47 3275.56L3798.13 3325.5L3837.89 3375.43C3843.87 3381.96 3849.24 3389.02 3853.95 3396.52C3847 3391.07 3840.73 3384.8 3835.28 3377.85C3824.17 3365.72 3809.61 3348.46 3794.12 3328.86C3778.63 3309.26 3765.19 3291.06 3755.67 3277.71C3749.97 3270.9 3745.08 3263.44 3741.11 3255.5Z" fill="#263238"/>
<path d="M4125.07 2807.6C4125.07 2807.6 4125.07 2808.72 4125.07 2810.87C4125.07 2813.02 4125.07 2816.56 4125.07 2820.2C4125.07 2829.54 4124.13 2841.39 4123.48 2856.51C4121.8 2888.43 4119.28 2932.95 4116.39 2986.15C4107.05 3040.28 4079.05 3100.29 4041.72 3158.62C4014.56 3201.55 3985.72 3240.56 3961.46 3276.87C3939.31 3308.73 3919.41 3342.1 3901.91 3376.73C3890.33 3400.14 3880.95 3424.57 3873.91 3449.72C3871.58 3458.59 3869.71 3465.59 3868.69 3470.34C3868.25 3472.82 3867.59 3475.26 3866.73 3477.62C3866.76 3475.11 3867.07 3472.6 3867.66 3470.16C3868.31 3465.31 3869.71 3458.21 3871.86 3449.16C3878.14 3423.57 3887.05 3398.71 3898.46 3374.96C3915.81 3340.05 3935.68 3306.46 3957.91 3274.44C3982.36 3237.86 4010.64 3198.75 4037.71 3156.1C4074.57 3098.05 4102.01 3038.97 4112.37 2985.68C4116.11 2932.57 4119.19 2888.15 4121.71 2856.23C4122.92 2841.11 4123.95 2829.07 4124.69 2820.02C4124.69 2816.28 4125.35 2813.11 4125.63 2810.68C4125.31 2809.68 4125.12 2808.65 4125.07 2807.6Z" fill="#263238"/>
<path d="M4044.34 3147.89C4044.34 3147.89 4101.74 3009.76 4029.59 2919.13C4029.03 2918.41 4028.28 2917.85 4027.42 2917.53C4026.56 2917.2 4025.63 2917.12 4024.73 2917.3C4023.83 2917.47 4023 2917.89 4022.32 2918.51C4021.65 2919.13 4021.16 2919.93 4020.91 2920.81C4014.47 2943.96 4002.62 3014.98 4044.34 3147.89Z" fill="#AF1EE0"/>
<path d="M4033.88 2967.39C4036.36 2975.9 4037.89 2984.67 4038.46 2993.52C4040.51 3009.76 4042.75 3032.25 4044.52 3057.17C4046.3 3082.09 4047.14 3104.68 4047.14 3121.1C4047.7 3129.97 4047.16 3138.87 4045.55 3147.61C4043.94 3138.9 4043.16 3130.05 4043.22 3121.2C4042 3102.53 4040.51 3081.34 4038.92 3057.54C4037.34 3033.74 4035.84 3012.19 4034.54 2993.89C4033.45 2985.1 4033.23 2976.22 4033.88 2967.39Z" fill="#263238"/>
<g opacity="0.3">
<path d="M4044.34 3147.89C4044.34 3147.89 4101.74 3009.76 4029.59 2919.13C4029.03 2918.41 4028.28 2917.85 4027.42 2917.53C4026.56 2917.2 4025.63 2917.12 4024.73 2917.3C4023.83 2917.47 4023 2917.89 4022.32 2918.51C4021.65 2919.13 4021.16 2919.93 4020.91 2920.81C4014.47 2943.96 4002.62 3014.98 4044.34 3147.89Z" fill="black"/>
</g>
<path d="M3866.54 3480.99C3866.54 3480.99 3912.55 3338.56 3833.22 3254.19C3832.61 3253.52 3831.82 3253.03 3830.94 3252.78C3830.07 3252.53 3829.14 3252.52 3828.26 3252.76C3827.38 3253 3826.59 3253.48 3825.97 3254.15C3825.34 3254.81 3824.92 3255.63 3824.73 3256.53C3820.25 3280.04 3814.18 3351.91 3866.54 3480.99Z" fill="#AF1EE0"/>
<path d="M3841.44 3301.6C3844.67 3309.9 3846.93 3318.54 3848.16 3327.36C3851.52 3343.32 3855.53 3365.63 3859.36 3390.27C3863.18 3414.91 3865.8 3437.4 3867.2 3453.73C3868.41 3462.55 3868.57 3471.48 3867.66 3480.33C3865.45 3471.76 3863.95 3463.02 3863.18 3454.2C3860.48 3436 3857.3 3414.72 3853.85 3391.11C3850.4 3367.49 3847.04 3346.22 3844.52 3328.02C3842.63 3319.33 3841.59 3310.49 3841.44 3301.6Z" fill="#263238"/>
<g opacity="0.3">
<path d="M3866.54 3480.99C3866.54 3480.99 3912.55 3338.56 3833.22 3254.19C3832.61 3253.52 3831.82 3253.03 3830.94 3252.78C3830.07 3252.53 3829.14 3252.52 3828.26 3252.76C3827.38 3253 3826.59 3253.48 3825.97 3254.15C3825.34 3254.81 3824.92 3255.63 3824.73 3256.53C3820.25 3280.04 3814.18 3351.91 3866.54 3480.99Z" fill="black"/>
</g>
<path d="M4117.51 2979.05C4117.51 2979.05 4240.05 2893.19 4227.73 2778.02C4227.64 2777.11 4227.29 2776.25 4226.74 2775.53C4226.19 2774.8 4225.44 2774.25 4224.59 2773.92C4223.75 2773.59 4222.82 2773.5 4221.93 2773.67C4221.03 2773.83 4220.2 2774.24 4219.52 2774.84C4201.69 2790.9 4153.91 2844.28 4117.51 2979.05Z" fill="#AF1EE0"/>
<g opacity="0.3">
<path d="M4117.51 2979.05C4117.51 2979.05 4240.05 2893.19 4227.73 2778.02C4227.64 2777.11 4227.29 2776.25 4226.74 2775.53C4226.19 2774.8 4225.44 2774.25 4224.59 2773.92C4223.75 2773.59 4222.82 2773.5 4221.93 2773.67C4221.03 2773.83 4220.2 2774.24 4219.52 2774.84C4201.69 2790.9 4153.91 2844.28 4117.51 2979.05Z" fill="black"/>
</g>
<path d="M4205.52 2821.04C4203.09 2829.59 4199.68 2837.83 4195.35 2845.59C4188.35 2860.34 4178.18 2880.49 4166.33 2902.52C4154.47 2924.55 4143.09 2944.05 4134.31 2957.87C4130 2965.62 4124.76 2972.83 4118.73 2979.33C4122.01 2971.12 4126.07 2963.24 4130.86 2955.81C4139.63 2939.67 4149.99 2920.81 4161.38 2899.81L4191.8 2843.82C4195.62 2835.8 4200.22 2828.17 4205.52 2821.04Z" fill="#263238"/>
<path d="M3916.01 3339.78C3916.01 3339.78 4063.84 3316.72 4103.42 3207.9C4103.74 3207.05 4103.82 3206.13 4103.65 3205.24C4103.48 3204.35 4103.07 3203.52 4102.47 3202.84C4101.86 3202.17 4101.08 3201.67 4100.21 3201.41C4099.34 3201.15 4098.41 3201.14 4097.54 3201.37C4074.48 3208.27 4007.66 3234.87 3916.01 3339.78Z" fill="#AF1EE0"/>
<g opacity="0.3">
<path d="M3916.01 3339.78C3916.01 3339.78 4063.84 3316.72 4103.42 3207.9C4103.74 3207.05 4103.82 3206.13 4103.65 3205.24C4103.48 3204.35 4103.07 3203.52 4102.47 3202.84C4101.86 3202.17 4101.08 3201.67 4100.21 3201.41C4099.34 3201.15 4098.41 3201.14 4097.54 3201.37C4074.48 3208.27 4007.66 3234.87 3916.01 3339.78Z" fill="black"/>
</g>
<path d="M4064.59 3236.74C4058.6 3243.28 4051.9 3249.13 4044.62 3254.19C4031.84 3264.46 4013.82 3278.08 3993.57 3292.64C3973.32 3307.2 3954.37 3319.62 3940.37 3328.2C3933.07 3333.29 3925.17 3337.46 3916.85 3340.62C3923.48 3334.71 3930.63 3329.43 3938.22 3324.84L3990.3 3288.07L4042.29 3250.74C4049.21 3245.29 4056.68 3240.6 4064.59 3236.74Z" fill="#263238"/>
<path d="M3774.89 3611.93L3731.77 3902.19H4000.57L3965.75 3611.93H3774.89Z" fill="#455A64"/>
<path d="M3976.58 3701.81C3976.58 3703.39 3928.05 3704.6 3868.22 3704.6C3808.4 3704.6 3759.77 3703.39 3759.77 3701.81C3795.85 3699.04 3832.05 3698.1 3868.22 3699.01C3904.37 3698.11 3940.53 3699.04 3976.58 3701.81Z" fill="#263238"/>
<path d="M3981.81 3724.95C3981.81 3726.54 3931.69 3727.75 3869.81 3727.75C3807.93 3727.75 3757.81 3726.54 3757.81 3724.95C3757.81 3723.37 3807.93 3722.15 3869.81 3722.15C3931.69 3722.15 3981.81 3723.37 3981.81 3724.95Z" fill="#263238"/>
<path d="M2936.6 796.048C2936.6 796.048 2934.08 796.048 2929.23 796.048C2922.14 795.627 2915.03 795.627 2907.95 796.048C2880.53 797.652 2853.6 803.967 2828.33 814.714C2788.28 831.503 2753.42 858.66 2727.35 893.392C2711.27 915.078 2699.32 939.531 2692.07 965.536C2675.74 1027.48 2684.56 1093.37 2716.62 1148.84C2725.36 1164.19 2736.02 1178.37 2748.35 1191.02C2760.79 1204.43 2775.28 1215.77 2791.28 1224.62C2807.7 1233.86 2826.3 1238.54 2845.13 1238.16C2864.56 1237.92 2883.18 1230.39 2897.31 1217.06C2904.14 1209.91 2909.49 1201.48 2913.06 1192.25C2916.63 1183.03 2918.35 1173.19 2918.12 1163.3C2917.98 1142.76 2911.45 1122.77 2899.45 1106.09C2875.28 1072.03 2836.08 1049.16 2794.36 1036.84C2751.1 1024.69 2705.42 1024.05 2661.83 1034.97C2639.58 1040.76 2618.14 1049.29 2597.99 1060.36C2577.65 1071.84 2559.18 1086.35 2543.21 1103.39C2539.38 1107.77 2535 1111.79 2531.54 1116.64L2521 1130.83C2514.58 1140.82 2508.85 1151.24 2503.82 1162C2493.84 1183.85 2487.02 1207.01 2483.57 1230.78C2476.8 1278.28 2483.26 1326.72 2502.24 1370.78C2520.38 1413.83 2551.98 1449.85 2592.3 1473.44C2611.85 1484.61 2633.68 1491.22 2656.14 1492.76C2678.17 1493.99 2700.07 1488.74 2719.14 1477.64C2738.06 1467.18 2753.02 1450.78 2761.7 1430.98C2769.88 1411.46 2770.45 1389.58 2763.28 1369.66C2755.91 1350.44 2743.84 1333.37 2728.19 1320.01C2713.01 1306.89 2695.5 1296.72 2676.58 1290.05C2639.67 1278.41 2600.19 1277.73 2562.9 1288.09C2528.02 1297.54 2495.97 1315.39 2469.57 1340.07C2445.52 1363.11 2427.21 1391.46 2416.09 1422.86C2396.65 1477.33 2397.55 1536.99 2418.61 1590.85C2435.04 1631.06 2461.48 1666.4 2495.42 1693.52C2516.8 1710.66 2540.61 1724.53 2566.08 1734.67C2574.85 1737.94 2581.66 1740.37 2586.33 1741.67L2593.23 1743.91C2593.23 1743.91 2590.81 1743.45 2586.14 1742.14C2579.25 1740.3 2572.45 1738.08 2565.8 1735.51C2540 1725.82 2515.88 1712.15 2494.3 1695.01C2459.79 1667.92 2432.82 1632.4 2416 1591.88C2394.56 1537.51 2393.47 1477.22 2412.92 1422.11C2424.05 1390.24 2442.57 1361.46 2466.96 1338.11C2493.73 1312.93 2526.25 1294.67 2561.69 1284.91C2599.76 1274.29 2640.09 1274.94 2677.79 1286.78C2697.27 1293.57 2715.29 1303.99 2730.9 1317.49C2747.17 1331.29 2759.69 1348.98 2767.3 1368.91C2774.97 1389.72 2774.64 1412.64 2766.36 1433.22C2757.16 1453.8 2741.54 1470.86 2721.84 1481.84C2702.07 1493.37 2679.37 1498.88 2656.51 1497.71C2633.5 1496.1 2611.16 1489.27 2591.18 1477.74C2549.94 1453.81 2517.55 1417.17 2498.88 1373.3C2479.49 1328.43 2472.84 1279.09 2479.65 1230.69C2483.21 1206.43 2490.19 1182.81 2500.37 1160.5C2505.5 1149.51 2511.36 1138.88 2517.92 1128.68L2528.74 1114.21C2532.2 1109.27 2536.68 1104.88 2540.6 1100.59C2556.94 1083.22 2575.82 1068.43 2596.59 1056.72C2617.21 1045.44 2639.16 1036.78 2661.93 1030.96C2706.34 1019.83 2752.9 1020.51 2796.98 1032.92C2839.53 1045.61 2879.39 1068.85 2904.49 1104.13C2917.11 1121.5 2923.97 1142.39 2924.09 1163.86C2924.55 1184.99 2916.59 1205.44 2901.97 1220.7C2887.04 1234.72 2867.39 1242.61 2846.91 1242.82C2827.31 1243.27 2807.96 1238.4 2790.91 1228.73C2774.53 1219.69 2759.71 1208.06 2747.04 1194.29C2734.55 1181.35 2723.73 1166.9 2714.84 1151.26C2682.22 1094.77 2673.35 1027.63 2690.21 964.603C2697.68 938.297 2709.92 913.589 2726.32 891.712C2752.88 856.717 2788.33 829.483 2828.99 812.847C2854.47 802.308 2881.61 796.367 2909.16 795.301C2916.31 794.829 2923.48 794.829 2930.63 795.301L2936.6 796.048Z" fill="#263238"/>
<path d="M3248.23 1729.92H1939.64V2739.19H3248.23V1729.92Z" fill="#AF1EE0"/>
<path d="M1939.64 1729.92L2181.37 1955.4H3467.75L3248.23 1729.92H1939.64Z" fill="#AF1EE0"/>
<path d="M1939.64 1729.92L3248.6 1727.58H3249.63L3250.38 1728.24L3467.65 1951.39L3469.89 1953.72L3473.91 1957.83H3468.12L2181.74 1956.8H2181.18L1939.64 1729.92L2182.3 1953.91H2181.27L3467.65 1952.98L3465.97 1957.08L3463.64 1954.75L3246.46 1731.6L3248.14 1732.34L1939.64 1729.92Z" fill="#263238"/>
<path d="M2332.74 2195.36C2325.65 2195.61 2318.95 2198.64 2314.07 2203.79C2309.19 2208.94 2306.53 2215.8 2306.66 2222.89C2306.79 2229.99 2309.7 2236.74 2314.76 2241.71C2319.82 2246.68 2326.63 2249.47 2333.72 2249.47C2340.82 2249.47 2347.63 2246.68 2352.69 2241.71C2357.75 2236.74 2360.66 2229.99 2360.78 2222.89C2360.91 2215.8 2358.25 2208.94 2353.37 2203.79C2348.5 2198.64 2341.79 2195.61 2334.7 2195.36" fill="#263238"/>
<path d="M2641.95 2195.36C2634.89 2195.62 2628.22 2198.65 2623.37 2203.79C2618.52 2208.92 2615.88 2215.76 2616.01 2222.82C2616.15 2229.89 2619.05 2236.61 2624.09 2241.56C2629.13 2246.51 2635.92 2249.28 2642.98 2249.28C2650.04 2249.28 2656.83 2246.51 2661.87 2241.56C2666.91 2236.61 2669.81 2229.89 2669.95 2222.82C2670.08 2215.76 2667.44 2208.92 2662.59 2203.79C2657.74 2198.65 2651.07 2195.62 2644.01 2195.36" fill="#263238"/>
<path d="M2643.73 2436.9C2638.33 2416.28 2629.57 2396.69 2617.78 2378.94C2604.68 2359.95 2587.85 2343.82 2568.32 2331.52C2544.75 2315.89 2517.27 2307.19 2489.01 2306.41C2460.74 2305.64 2432.82 2312.82 2408.44 2327.14C2388.3 2338.38 2370.63 2353.55 2356.46 2371.75C2343.69 2388.85 2333.88 2407.97 2327.43 2428.31C2327.5 2426.79 2327.75 2425.29 2328.18 2423.83C2329.07 2419.62 2330.22 2415.48 2331.63 2411.42C2336.74 2396.42 2344.21 2382.34 2353.75 2369.7C2367.82 2350.65 2385.72 2334.75 2406.29 2323.03C2431.31 2308.1 2460.05 2300.59 2489.17 2301.39C2518.29 2302.18 2546.58 2311.24 2570.74 2327.51C2590.61 2340.28 2607.59 2357.07 2620.58 2376.79C2629.45 2389.95 2636.16 2404.45 2640.46 2419.72C2641.61 2423.87 2642.51 2428.07 2643.17 2432.32C2643.49 2433.83 2643.68 2435.36 2643.73 2436.9Z" fill="#263238"/>
<path opacity="0.5" d="M1942.62 1741.02L2174.09 2034.45H3248.23V1955.4H2181.36L1942.62 1741.02Z" fill="black"/>
<path d="M2990.17 2736.95C2988.86 2736.95 2987.74 2561.4 2987.74 2344.97C2987.74 2128.53 2988.86 1952.98 2990.17 1952.98C2991.48 1952.98 2992.69 2128.44 2992.69 2344.97C2992.69 2561.49 2991.57 2736.95 2990.17 2736.95Z" fill="#263238"/>
<path d="M3195.68 2508.11H3080.33V2638.49H3195.68V2508.11Z" fill="#F5F5F5"/>
<path d="M1939.64 1729.92L1671.03 1955.4H1939.64V1729.92Z" fill="#AF1EE0"/>
<g opacity="0.4">
<path d="M1939.64 1729.92L1671.03 1955.4H1939.64V1729.92Z" fill="black"/>
</g>
<path d="M3286.87 2739.19H1782.28V3899.67H3286.87V2739.19Z" fill="#AF1EE0"/>
<path opacity="0.3" d="M3286.87 2739.19H1782.28V3899.67H3286.87V2739.19Z" fill="black"/>
<path d="M2909.9 3891.45C2908.6 3891.45 2907.48 3632.84 2907.48 3313.83C2907.48 2994.83 2908.6 2736.11 2909.9 2736.11C2911.21 2736.11 2912.33 2994.73 2912.33 3313.83C2912.33 3632.93 2911.21 3891.45 2909.9 3891.45Z" fill="#263238"/>
<path d="M3159.29 3635.54H3043.93V3765.93H3159.29V3635.54Z" fill="#F5F5F5"/>
<path d="M2412.17 2742.27H2241.28V2989.88H2412.17V2742.27Z" fill="#263238"/>
<path d="M2412.17 3648.61H2241.28V3896.22H2412.17V3648.61Z" fill="#263238"/>
<path d="M3273.8 2739.19H3269.88H3258.59L3215.19 2739.66L3055.31 2740.41L2528.09 2741.62L2000.68 2740.97L1840.89 2740.22L1797.49 2739.75L1840.89 2739.29L2000.68 2738.54L2528.09 2737.79L3055.31 2738.54L3215.19 2739.29L3258.59 2739.75H3269.88L3273.8 2739.19Z" fill="#263238"/>
<path d="M695.257 730.062L531.368 689.743H532.582C490.265 716.66 441.331 731.356 391.186 732.208C361.499 732.343 331.959 728.034 303.548 719.422C253.599 703.384 209.285 673.382 175.844 632.961C142.402 592.54 121.231 543.391 114.833 491.322C109.808 451.942 113.507 411.939 125.669 374.148C137.83 336.358 158.156 301.706 185.205 272.648C199.424 257.03 215.36 243.066 232.71 231.022C241.483 225.516 250.256 219.822 259.403 215.063L273.309 208.343L280.215 204.983L287.495 202.37C324.972 187.843 365.173 181.695 405.279 184.357C459.027 187.847 510.54 207.169 553.325 239.889C596.109 272.608 628.251 317.261 645.699 368.218C655.392 396.724 660.496 426.589 660.818 456.696C661.052 506.731 647.454 555.858 621.526 598.652V597.159C667.071 679.383 690.031 720.915 695.164 730.062C689.844 720.729 666.045 679.943 618.913 598.559V597.812V597.065C643.91 554.686 656.821 506.268 656.245 457.069C655.812 427.444 650.645 398.079 640.939 370.085C623.681 320.169 592.081 276.455 550.096 244.414C508.11 212.373 457.606 193.43 404.905 189.957C365.59 187.394 326.189 193.446 289.455 207.689L282.362 210.209L275.549 213.569L261.923 220.102C252.59 224.862 244.376 230.369 235.697 235.782C218.681 247.503 203.029 261.089 189.031 276.287C162.477 304.813 142.518 338.828 130.567 375.923C118.616 413.017 114.965 452.286 119.873 490.948C128.526 561.779 164.866 626.305 220.95 670.423C246.024 690.291 274.48 705.467 304.948 715.222C332.849 723.847 361.889 728.22 391.092 728.195C440.637 727.664 489.076 713.488 531.089 687.223H531.648H532.675L695.257 730.062Z" fill="#263238"/>
<path d="M364.684 336.485L372.99 473.682C373.322 479.093 375.621 484.196 379.454 488.03C383.288 491.864 388.391 494.163 393.803 494.494C399.497 494.816 405.098 492.945 409.455 489.265C413.812 485.585 416.594 480.376 417.229 474.708L432.442 337.232C432.707 334.772 432.446 332.285 431.676 329.934C430.907 327.583 429.646 325.422 427.978 323.595C426.31 321.768 424.273 320.317 422.001 319.337C419.73 318.357 417.276 317.872 414.802 317.913H381.483C379.145 317.982 376.845 318.524 374.722 319.504C372.598 320.485 370.695 321.885 369.126 323.619C367.557 325.354 366.355 327.388 365.591 329.599C364.828 331.81 364.519 334.152 364.684 336.485Z" fill="#AF1EE0"/>
<path d="M430.01 571.12C427.921 577.387 424.022 582.895 418.804 586.947C413.586 590.998 407.285 593.413 400.695 593.884C394.106 594.356 387.525 592.863 381.784 589.596C376.042 586.328 371.399 581.432 368.439 575.526C365.48 569.62 364.337 562.969 365.156 556.414C365.975 549.859 368.719 543.694 373.041 538.697C377.363 533.701 383.069 530.098 389.438 528.344C395.807 526.59 402.553 526.763 408.823 528.841C412.993 530.223 416.848 532.414 420.17 535.287C423.492 538.161 426.215 541.661 428.183 545.588C430.15 549.515 431.325 553.791 431.638 558.172C431.952 562.553 431.398 566.953 430.01 571.12Z" fill="#AF1EE0"/>
</svg>
