<svg width="4229" height="4141" viewBox="0 0 4229 4141" fill="none" xmlns="http://www.w3.org/2000/svg">
<path d="M1641.51 2441.41H614.992V4140.53H1641.51V2441.41Z" fill="#E0E0E0"/>
<path d="M1607.42 2441.41H580.906V4140.53H1607.42V2441.41Z" fill="#EBEBEB"/>
<path d="M1563.72 2475.88H624.609V4106.16H1563.72V2475.88Z" fill="#FAFAFA"/>
<path d="M1380.81 2687.73H803.328V3894.3H1380.81V2687.73Z" fill="#EBEBEB"/>
<path d="M803.325 3467.36C801.992 3354.62 903.397 3244.65 1014.99 3228.84C1068.21 3221.32 1124.77 3231.89 1174.47 3211.51C1263.22 3175.14 1291.49 3057.17 1380.81 3022.23L1384.9 3894.3H803.325V3467.36Z" fill="#E0E0E0"/>
<path d="M1373.09 1963.05H69.8828V4120.25H1373.09V1963.05Z" fill="#E0E0E0"/>
<path d="M1329.77 1963.05H26.5625V4120.25H1329.77V1963.05Z" fill="#EBEBEB"/>
<path d="M1274.36 2006.85H82.0703V4076.54H1274.36V2006.85Z" fill="#FAFAFA"/>
<path d="M1042.22 2275.74H309.062V3807.56H1042.22V2275.74Z" fill="#EBEBEB"/>
<path d="M309.064 3265.5C307.35 3122.68 435.986 2982.71 577.761 2962.72C645.269 2953.19 717.061 2966.62 780.189 2940.72C892.923 2894.54 928.724 2744.77 1042.13 2700.4L1047.36 3807.56H309.064V3265.5Z" fill="#E0E0E0"/>
<path d="M1677.79 312.592H1230.66V960.722H1677.79V312.592Z" fill="#E0E0E0"/>
<path d="M1655.41 312.592H1208.28V960.722H1655.41V312.592Z" fill="#F5F5F5"/>
<path d="M1599.8 382.861H1263.79V890.549H1599.8V382.861Z" fill="white"/>
<path d="M1599.9 890.549C1599.9 890.549 1599.9 889.692 1599.9 888.073C1599.9 886.455 1599.9 883.979 1599.9 880.837C1599.9 874.458 1599.9 865.126 1599.9 853.034C1599.9 828.659 1599.9 793.239 1599.9 748.297C1599.9 658.7 1599.9 531.968 1599.33 382.671L1600.47 383.718H1264.36L1265.6 382.576C1265.6 574.054 1265.6 750.678 1265.6 890.263L1264.55 889.311H1509.16H1576.76H1509.45H1264.17H1263.22V888.359C1263.22 748.773 1263.22 572.149 1263.22 380.671V379.434H1601.52V380.576C1601.52 530.159 1601.52 657.176 1601.04 746.869C1601.04 791.62 1601.04 826.945 1601.04 851.606C1601.04 863.603 1601.04 872.934 1601.04 879.218V888.74L1599.9 890.549Z" fill="#E0E0E0"/>
<path d="M1656.65 312.592C1654.41 316.717 1651.76 320.608 1648.75 324.208C1643.51 331.159 1636.18 340.585 1627.71 350.868C1619.23 361.152 1611.42 369.911 1605.62 376.481C1602.72 380.101 1599.54 383.477 1596.09 386.574C1598.6 382.626 1601.43 378.899 1604.57 375.434L1626.09 349.25L1647.61 323.161C1650.33 319.398 1653.35 315.864 1656.65 312.592Z" fill="#E0E0E0"/>
<path d="M1601.61 888.93C1618.29 915.507 1637.93 940.104 1660.17 962.245L1601.61 888.93Z" fill="white"/>
<path d="M1660.17 962.244C1656.46 959.415 1653.05 956.226 1649.98 952.723C1634.42 936.818 1620.48 919.403 1608.37 900.735C1605.67 897.004 1603.4 892.979 1601.61 888.738C1604.59 892.224 1607.33 895.914 1609.8 899.783C1614.75 906.734 1621.7 916.16 1629.79 926.253C1637.89 936.346 1645.5 945.296 1651.22 951.58C1654.49 954.884 1657.48 958.451 1660.17 962.244Z" fill="#E0E0E0"/>
<path d="M1208.18 960.245L1266.74 887.977L1208.18 960.245Z" fill="white"/>
<path d="M1266.74 887.977C1257.92 900.819 1248.38 913.153 1238.17 924.921C1228.7 937.214 1218.6 949.005 1207.9 960.246C1207.42 960.246 1220.08 943.298 1236.46 923.302C1252.84 903.307 1266.26 887.597 1266.74 887.977Z" fill="#E0E0E0"/>
<path d="M1208.28 312.592C1218.38 323.427 1227.91 334.773 1236.85 346.584C1246.35 357.919 1255.22 369.776 1263.41 382.099C1253.24 371.329 1243.7 359.979 1234.85 348.107C1225.3 336.801 1216.43 324.942 1208.28 312.592Z" fill="#E0E0E0"/>
<path d="M1495.16 485.883H1382.62V805.33H1495.16V485.883Z" fill="#FAFAFA"/>
<path d="M4228.6 976.432H3559.14V1946.77H4228.6V976.432Z" fill="#E0E0E0"/>
<path d="M4195.08 976.432H3525.62V1946.77H4195.08V976.432Z" fill="#F5F5F5"/>
<path d="M4111.96 1081.55H3608.84V1841.75H4111.96V1081.55Z" fill="white"/>
<path d="M4111.96 1841.65C4111.96 1841.65 4111.96 1840.42 4111.96 1837.94C4111.96 1835.46 4111.96 1831.85 4111.96 1827.18C4111.96 1817.66 4111.96 1803.66 4111.96 1785.48C4111.96 1749.1 4111.96 1695.97 4111.96 1628.94C4111.96 1494.88 4111.48 1305.21 4111.1 1081.55L4112.82 1083.17H3609.7L3611.51 1081.36C3611.51 1368.15 3611.51 1632.47 3611.51 1841.46L3610.08 1840.03L3976.28 1840.8H4077.4H4103.96H4113.48C4113.48 1840.8 4110.53 1840.8 4104.63 1840.8H4078.25H3977.42L3610.37 1841.56H3608.94V1841.65C3608.94 1632.66 3608.94 1368.34 3608.94 1081.55V1079.93H4115.48V1081.65C4115.48 1305.59 4114.91 1495.83 4114.72 1630.09C4114.72 1696.74 4114.72 1749.96 4114.72 1786.33C4114.72 1804.33 4114.72 1818.23 4114.72 1827.66C4114.72 1832.32 4114.72 1835.85 4114.72 1838.23C4114.72 1840.61 4111.96 1841.65 4111.96 1841.65Z" fill="#E0E0E0"/>
<path d="M4196.99 976.432C4193.58 982.702 4189.63 988.66 4185.18 994.237C4177.37 1004.62 4166.14 1018.8 4153.76 1034.04C4141.38 1049.27 4129.38 1062.6 4120.62 1072.12C4116.26 1077.62 4111.34 1082.66 4105.96 1087.17C4109.69 1081.25 4113.89 1075.64 4118.53 1070.41L4150.71 1031.28L4182.99 992.142C4187.22 986.533 4191.9 981.278 4196.99 976.432Z" fill="#E0E0E0"/>
<path d="M4114.53 1839.27C4139.52 1879.04 4168.94 1915.84 4202.22 1948.96L4114.53 1839.27Z" fill="white"/>
<path d="M4202.22 1948.96C4196.68 1944.87 4191.57 1940.21 4186.99 1935.06C4175.29 1923.22 4164.23 1910.76 4153.86 1897.74C4143.45 1884.76 4133.72 1871.25 4124.72 1857.27C4120.73 1851.63 4117.32 1845.6 4114.53 1839.27C4119 1844.47 4123.1 1849.98 4126.81 1855.75C4134.24 1866.12 4144.62 1880.31 4156.71 1895.45C4168.8 1910.59 4180.33 1924.01 4188.8 1933.54C4193.65 1938.34 4198.14 1943.49 4202.22 1948.96Z" fill="#E0E0E0"/>
<path d="M3525.53 1946.39L3613.22 1838.22L3525.53 1946.39Z" fill="white"/>
<path d="M3613.22 1837.84C3600.07 1856.97 3585.92 1875.41 3570.85 1893.07C3556.68 1911.49 3541.55 1929.16 3525.53 1946.01C3538.73 1926.89 3552.91 1908.45 3568 1890.78C3582.12 1872.35 3597.22 1854.68 3613.22 1837.84Z" fill="#E0E0E0"/>
<path d="M3525.62 976.432C3540.74 992.581 3554.95 1009.56 3568.19 1027.28C3582.4 1044.23 3595.66 1061.97 3607.89 1080.41C3592.78 1064.25 3578.57 1047.28 3565.33 1029.56C3551.19 1012.55 3537.94 994.813 3525.62 976.432Z" fill="#E0E0E0"/>
<path d="M3955.14 1235.89H3786.7V1714.26H3955.14V1235.89Z" fill="#E0E0E0"/>
<path d="M3840.88 0H3393.75V648.13H3840.88V0Z" fill="#E0E0E0"/>
<path d="M3818.41 0H3371.28V648.13H3818.41V0Z" fill="#F5F5F5"/>
<path d="M3762.91 70.1738H3426.89V577.861H3762.91V70.1738Z" fill="white"/>
<path d="M3762.9 577.956C3762.9 577.956 3762.9 577.099 3762.9 575.48V568.244C3762.9 561.865 3762.9 552.534 3762.9 540.346C3762.9 516.066 3762.9 480.551 3762.9 435.609C3762.9 346.107 3762.9 219.28 3762.33 69.9829L3763.47 71.1255H3426.89L3428.12 69.8877C3428.12 261.461 3428.12 438.085 3428.12 577.671L3427.17 576.623L3671.78 577.194H3739.29H3757.09H3739.67H3672.35L3427.17 577.766H3426.22V576.814C3426.22 437.228 3426.22 260.604 3426.22 69.0308V67.793H3764.61V70.6494C3764.61 220.233 3764.61 347.345 3764.04 437.038C3764.04 481.694 3764.04 517.114 3764.04 541.774C3764.04 553.772 3764.04 563.007 3764.04 569.387V575.29C3763.72 576.203 3763.34 577.094 3762.9 577.956Z" fill="#E0E0E0"/>
<path d="M3819.74 0C3817.46 4.12074 3814.78 8.0109 3811.75 11.6163C3806.51 18.567 3799.18 27.9933 3790.8 38.1813C3782.42 48.3693 3774.52 57.2244 3768.71 63.8894C3765.85 67.51 3762.66 70.857 3759.19 73.887C3761.78 69.9755 3764.64 66.2528 3767.76 62.7468L3789.28 36.6579L3810.79 10.4737C3813.47 6.73064 3816.46 3.22632 3819.74 0Z" fill="#E0E0E0"/>
<path d="M3764.62 576.242C3781.33 602.849 3801.04 627.448 3823.37 649.558L3764.62 576.242Z" fill="white"/>
<path d="M3823.37 649.558C3819.57 646.806 3816.12 643.609 3813.08 640.037C3807.08 633.943 3799.18 625.279 3790.99 615.09C3782.8 604.902 3776.14 595.19 3771.95 588.049C3769.26 584.263 3766.96 580.211 3765.09 575.957C3768.11 579.47 3770.88 583.193 3773.38 587.097C3778.23 593.953 3785.18 603.474 3793.28 613.567C3801.37 623.66 3809.08 632.61 3814.7 638.799C3817.8 642.214 3820.69 645.807 3823.37 649.558Z" fill="#E0E0E0"/>
<path d="M3371.28 647.655L3429.84 575.291L3371.28 647.655Z" fill="white"/>
<path d="M3429.84 575.291C3420.95 588.046 3411.41 600.345 3401.28 612.139C3385.09 632.135 3371.57 647.94 3371.09 647.559C3379.91 634.718 3389.45 622.384 3399.66 610.616C3409.04 598.277 3419.12 586.483 3429.84 575.291Z" fill="#E0E0E0"/>
<path d="M3371.28 0C3381.45 10.7669 3390.99 22.1167 3399.84 33.9919C3409.33 45.3438 3418.2 57.1995 3426.41 69.5071C3416.26 58.715 3406.73 47.3669 3397.84 35.5153C3382.71 16.2818 3370.8 0.380861 3371.28 0Z" fill="#E0E0E0"/>
<path d="M3658.26 173.291H3545.72V492.738H3658.26V173.291Z" fill="#FAFAFA"/>
<path d="M4142.81 4126.06C4142.81 4127.49 3215.32 4128.63 2071.5 4128.63C927.682 4128.63 0 4127.49 0 4126.06C0 4124.63 927.301 4123.58 2071.5 4123.58C3215.7 4123.58 4142.81 4124.72 4142.81 4126.06Z" fill="#263238"/>
<path d="M959.012 825.041L931.304 1164.67C930.201 1178.37 931.89 1192.14 936.268 1205.17C940.646 1218.19 947.623 1230.19 956.774 1240.43C965.926 1250.68 977.062 1258.96 989.509 1264.78C1001.96 1270.59 1015.45 1273.82 1029.19 1274.27C1055.28 1275.18 1080.73 1266.01 1100.24 1248.65C1119.74 1231.29 1131.81 1207.08 1133.92 1181.05C1136.02 1155.44 1137.73 1134.11 1138.11 1131.54C1138.11 1131.54 1225.23 1130.4 1238.47 1045.84C1244.85 1004.71 1251.13 919.018 1255.89 841.322C1258.35 801.117 1245.58 761.461 1220.12 730.248C1194.66 699.035 1158.38 678.556 1118.5 672.887L1110.21 671.649C1020.33 663.746 964.058 735.443 959.012 825.041Z" fill="#FFBE9D"/>
<path d="M1138.3 1130.3C1098.84 1125.38 1061.75 1108.8 1031.76 1082.69C1031.76 1082.69 1049.28 1147.73 1135.35 1152.2L1138.3 1130.3Z" fill="#EB996E"/>
<path d="M1224 884.36C1223.59 887.53 1221.96 890.415 1219.44 892.391C1216.93 894.368 1213.75 895.28 1210.57 894.929C1209 894.833 1207.47 894.425 1206.06 893.728C1204.65 893.031 1203.39 892.06 1202.36 890.872C1201.34 889.684 1200.55 888.302 1200.07 886.808C1199.58 885.313 1199.39 883.737 1199.52 882.17C1199.95 878.992 1201.61 876.108 1204.13 874.133C1206.66 872.158 1209.86 871.25 1213.05 871.602C1214.62 871.684 1216.15 872.084 1217.56 872.778C1218.97 873.471 1220.23 874.444 1221.25 875.637C1222.28 876.83 1223.05 878.218 1223.52 879.717C1223.99 881.217 1224.15 882.796 1224 884.36Z" fill="#263238"/>
<path d="M1233.51 875.123C1231.7 876.551 1223.99 868.363 1210.38 866.553C1196.76 864.744 1186.76 869.886 1185.62 868.077C1184.48 866.268 1186.95 864.649 1191.52 862.174C1197.76 859.039 1204.82 857.94 1211.71 859.032C1218.52 859.932 1224.87 863.004 1229.8 867.791C1233.51 871.505 1234.47 874.552 1233.51 875.123Z" fill="#263238"/>
<path d="M1096.98 872.552C1096.55 875.737 1094.9 878.631 1092.38 880.621C1089.85 882.611 1086.66 883.542 1083.46 883.216C1081.9 883.108 1080.38 882.691 1078.98 881.989C1077.58 881.287 1076.33 880.314 1075.32 879.127C1074.3 877.94 1073.52 876.562 1073.04 875.074C1072.56 873.586 1072.38 872.016 1072.51 870.458C1072.92 867.281 1074.55 864.388 1077.05 862.395C1079.56 860.403 1082.75 859.47 1085.93 859.793C1087.5 859.889 1089.04 860.298 1090.45 860.994C1091.86 861.691 1093.11 862.662 1094.14 863.851C1095.17 865.039 1095.95 866.421 1096.44 867.915C1096.93 869.409 1097.11 870.986 1096.98 872.552Z" fill="#263238"/>
<path d="M1102.88 860.937C1101.07 862.27 1092.89 854.177 1079.75 852.368C1066.61 850.559 1056.13 855.7 1054.9 853.891C1053.66 852.082 1056.23 850.463 1060.89 847.988C1067.13 844.863 1074.18 843.733 1081.08 844.75C1087.89 845.741 1094.21 848.838 1099.17 853.605C1102.69 857.414 1103.65 860.937 1102.88 860.937Z" fill="#263238"/>
<path d="M1135.73 968.054C1142.93 966.833 1150.26 966.545 1157.53 967.197C1160.96 967.197 1164.2 967.197 1165.05 965.007C1165.85 961.581 1165.58 957.995 1164.29 954.724L1158.01 927.873C1149.44 889.787 1143.72 858.366 1145.34 858.08C1153.25 880.41 1159.36 903.334 1163.62 926.635C1165.62 936.157 1167.53 945.012 1169.43 953.676C1171.04 957.975 1171.04 962.708 1169.43 967.006C1168.79 968.123 1167.9 969.074 1166.82 969.785C1165.75 970.496 1164.52 970.946 1163.24 971.101C1161.32 971.34 1159.36 971.34 1157.44 971.101C1150.1 971.051 1142.8 970.027 1135.73 968.054Z" fill="#263238"/>
<path d="M1110.5 834.181C1108.69 837.609 1095.84 834.181 1080.22 834.181C1064.61 834.181 1051.66 836.181 1049.94 832.753C1049.28 831.039 1051.94 827.992 1057.37 825.326C1064.68 822.072 1072.63 820.511 1080.62 820.758C1088.62 821.005 1096.46 823.055 1103.55 826.754C1108.79 829.42 1111.26 832.372 1110.5 834.181Z" fill="#263238"/>
<path d="M1228.19 822.85C1225.52 825.516 1216.95 821.136 1206.1 819.422C1195.24 817.708 1185.72 818.565 1184.1 815.138C1183.34 813.519 1185.24 810.758 1189.62 808.472C1195.57 805.732 1202.24 804.933 1208.67 806.187C1215.02 807.231 1220.9 810.187 1225.52 814.661C1228.66 817.899 1229.42 821.136 1228.19 822.85Z" fill="#263238"/>
<path d="M957.388 889.502C956.055 888.645 901.306 863.794 894.832 922.351C888.357 980.909 948.438 975.291 948.724 973.672C949.009 972.054 957.388 889.502 957.388 889.502Z" fill="#FFBE9D"/>
<path d="M932.925 949.105C932.925 949.105 931.877 949.677 930.068 950.343C927.496 951.095 924.732 950.822 922.356 949.581C918.787 946.805 916.023 943.126 914.349 938.925C912.675 934.724 912.153 930.153 912.834 925.682C913.25 920.649 914.778 915.771 917.309 911.4C918.057 909.627 919.23 908.065 920.724 906.852C922.219 905.64 923.989 904.815 925.879 904.449C927.081 904.269 928.308 904.512 929.351 905.138C930.393 905.763 931.185 906.732 931.592 907.877C932.163 909.591 931.592 910.734 931.592 910.924C931.592 911.115 932.925 910.067 932.734 907.592C932.584 906.105 931.909 904.721 930.83 903.688C930.121 902.974 929.274 902.412 928.341 902.036C927.408 901.659 926.409 901.476 925.403 901.498C922.938 901.705 920.567 902.539 918.517 903.923C916.467 905.307 914.805 907.192 913.691 909.401C910.624 914.212 908.793 919.707 908.359 925.397C907.489 930.567 908.174 935.879 910.327 940.659C912.48 945.439 916.003 949.473 920.452 952.247C921.976 952.871 923.62 953.152 925.265 953.069C926.911 952.987 928.518 952.544 929.973 951.771C932.639 950.534 933.115 949.201 932.925 949.105Z" fill="#EB996E"/>
<path d="M924.831 882.55C930.425 882.961 935.801 884.889 940.381 888.127C944.961 891.365 948.572 895.79 950.824 900.927C953.49 909.782 952.919 919.303 955.49 928.158C958.061 937.013 965.583 945.773 974.533 944.916C977.677 944.406 980.629 943.071 983.088 941.047C985.547 939.023 987.425 936.382 988.53 933.395C990.709 927.293 991.68 920.825 991.386 914.352C991.862 886.644 989.958 858.842 992.814 831.324C994.528 803.45 1004.47 776.71 1021.38 754.486C1029.98 743.559 1041.35 735.143 1054.32 730.118C1067.28 725.093 1081.36 723.643 1095.08 725.921C1112.98 730.015 1128.21 741.822 1145.83 746.868C1156.33 749.817 1167.37 750.338 1178.11 748.391C1188.85 746.445 1199.01 742.082 1207.81 735.633C1208.76 734.932 1209.79 734.326 1210.86 733.824C1213.93 732.202 1216.39 729.625 1217.87 726.482C1219.34 723.338 1219.76 719.799 1219.05 716.4C1218.6 714.2 1217.7 712.122 1216.38 710.306C1185.43 672.22 1122.4 653.843 1073.56 658.985C1048.75 661.474 1024.77 669.329 1003.3 682.005C981.83 694.681 963.371 711.875 949.206 732.396C922.641 773.624 919.879 835.99 924.64 882.264" fill="#263238"/>
<path d="M1163.72 1006.14C1157.33 1006.15 1151.02 1004.86 1145.15 1002.33C1138.87 1001.02 1132.91 998.461 1127.63 994.809C1134.18 994.738 1140.66 996.035 1146.68 998.618C1152.81 999.942 1158.61 1002.5 1163.72 1006.14Z" fill="#263238"/>
<path d="M1229.99 1068.22C1229.18 1074 1226.95 1079.5 1223.52 1084.22C1215.95 1096.07 1205.58 1105.88 1193.33 1112.78C1181.22 1119.67 1168.21 1124.83 1154.67 1128.11C1149.18 1129.86 1143.48 1130.89 1137.73 1131.16C1142.89 1128.72 1148.28 1126.81 1153.82 1125.44C1166.86 1121.49 1179.44 1116.12 1191.33 1109.45C1203.08 1102.66 1213.26 1093.48 1221.23 1082.5C1227.23 1074.22 1229.32 1067.93 1229.99 1068.22Z" fill="#EB996E"/>
<path d="M965.102 712.4C976.713 719.637 988.949 725.819 1001.66 730.872C1014.9 734.308 1028.41 736.571 1042.04 737.632C1028.13 740.714 1013.65 739.997 1000.11 735.558C986.575 731.119 974.483 723.12 965.102 712.4Z" fill="#455A64"/>
<path d="M1153.06 746.678C1152.39 747.344 1144.97 739.251 1129.92 730.967C1110.28 720.11 1087.8 715.462 1065.46 717.637C1052.51 718.875 1040.04 721.636 1028.52 723.16C1018.25 724.761 1007.8 724.954 997.479 723.731C990.47 722.929 983.663 720.864 977.389 717.637C973.009 715.257 971.01 713.353 971.105 713.067C979.581 716.89 988.613 719.333 997.86 720.303C1007.89 720.991 1017.97 720.415 1027.85 718.589C1039.18 716.876 1051.56 714.019 1065.08 712.686C1088.37 710.354 1111.77 715.705 1131.73 727.92C1137.63 731.569 1143.03 735.952 1147.82 740.965C1151.63 744.393 1153.25 746.678 1153.06 746.678Z" fill="#455A64"/>
<path d="M969.963 716.21C971.439 704.13 971.439 691.917 969.963 679.837C968.331 667.705 962.781 656.438 954.157 647.75C948.336 642.784 941.387 639.32 933.918 637.66C926.449 636.001 918.687 636.196 911.31 638.228C896.445 642.441 883.828 652.322 876.176 665.746C870.936 674.314 868.076 684.126 867.892 694.168C867.708 704.21 870.206 714.12 875.129 722.875C880.461 731.435 888.708 737.778 898.35 740.735C907.992 743.692 918.377 743.064 927.592 738.966C933.972 735.633 939.208 730.397 945.588 726.969C948.635 725.039 952.169 724.014 955.776 724.014C959.383 724.014 962.916 725.039 965.964 726.969" fill="#263238"/>
<path d="M973.957 699.833C975.1 700.69 970.339 708.783 963.007 717.828C955.676 726.874 948.439 733.158 947.297 731.825C950.389 725.552 954.401 719.775 959.199 714.686C966.911 705.736 972.91 699.071 973.957 699.833Z" fill="#AF1EE0"/>
<path d="M902.456 641.941C898.137 645.78 894.415 650.241 891.411 655.176C888.497 660.457 887.299 666.513 887.983 672.505C889.513 679.813 893.272 686.467 898.742 691.549C909.227 700.779 922.034 706.969 935.781 709.449C941.688 710.278 947.474 711.812 953.015 714.019C947.025 714.583 940.984 714.198 935.115 712.877C920.302 711.251 906.361 705.062 895.219 695.167C889.042 689.332 884.931 681.645 883.508 673.267C882.909 666.342 884.616 659.412 888.364 653.558C894.839 643.846 902.456 641.941 902.456 641.941Z" fill="#455A64"/>
<path d="M934.066 637.657C930.366 640.257 927.145 643.479 924.545 647.179C921.956 651.337 920.481 656.092 920.26 660.985C920.463 667.013 922.06 672.912 924.926 678.219C930.39 688.123 938.246 696.503 947.777 702.594C955.109 707.45 960.346 709.354 960.06 710.116C955.038 709.962 950.159 708.413 945.968 705.641C935.133 700.012 926.241 691.254 920.45 680.504C917.255 674.43 915.619 667.657 915.69 660.795C916.142 655.12 918.225 649.697 921.688 645.179C927.401 637.562 934.162 636.991 934.066 637.657Z" fill="#455A64"/>
<path d="M1152.97 3611.61L1073.46 3973.71L1209.24 3974.95L1307.69 3657.79L1152.97 3611.61Z" fill="#FFBE9D"/>
<path d="M1272.27 3831.65L1222.66 3996.37C1222.66 3996.37 1373.39 4102.06 1367.2 4133.39L1044.42 4048.74L1111.07 3788.9L1272.27 3831.65Z" fill="#AF1EE0"/>
<path d="M1126.5 3955.43C1123.15 3955.58 1119.98 3956.96 1117.57 3959.29C1115.17 3961.62 1113.71 3964.76 1113.45 3968.1C1113.47 3971.44 1114.76 3974.64 1117.06 3977.07C1119.36 3979.49 1122.5 3980.95 1125.83 3981.14C1129.39 3980.98 1132.77 3979.52 1135.32 3977.02C1137.87 3974.53 1139.41 3971.18 1139.64 3967.62C1139.28 3964.12 1137.56 3960.89 1134.86 3958.63C1132.15 3956.37 1128.68 3955.26 1125.16 3955.53" fill="#E0E0E0"/>
<g opacity="0.4">
<path d="M1044.42 4048.27L1052.61 4022.08L1359.2 4112.92C1359.2 4112.92 1371.96 4122.91 1367.68 4132.63L1044.42 4048.27Z" fill="black"/>
</g>
<path d="M1228.28 3995.61C1228.28 3997.13 1219.8 3995.61 1210.66 3998.85C1201.52 4002.09 1195.71 4007.42 1194.48 4006.47C1193.24 4005.51 1197.9 3996.94 1208.95 3993.42C1219.99 3989.9 1229.04 3994.28 1228.28 3995.61Z" fill="#263238"/>
<path d="M1258.46 4018.46C1258.46 4020.08 1250.94 4021.03 1243.8 4026.27C1236.66 4031.51 1233.32 4038.17 1231.8 4037.7C1230.28 4037.22 1231.8 4028.18 1240.47 4021.7C1249.13 4015.23 1258.84 4017.04 1258.46 4018.46Z" fill="#263238"/>
<path d="M1267.13 4064.07C1265.6 4064.07 1265.41 4055.6 1271.79 4047.98C1278.17 4040.36 1286.36 4038.46 1286.65 4040.46C1286.93 4042.46 1281.22 4045.31 1276.08 4051.6C1270.94 4057.88 1268.65 4064.36 1267.13 4064.07Z" fill="#263238"/>
<path d="M1235.42 3956.86C1234.37 3958.1 1227.71 3954 1218.66 3952.29C1209.61 3950.58 1201.9 3951.53 1201.43 3950C1200.95 3948.48 1209.14 3944.58 1219.8 3946.77C1230.47 3948.96 1236.56 3955.43 1235.42 3956.86Z" fill="#263238"/>
<path d="M1244.84 3923.44C1239.15 3923.49 1233.55 3921.98 1228.66 3919.06C1223.1 3916.55 1217.89 3913.35 1213.14 3909.54C1210.31 3907.27 1207.64 3904.83 1205.14 3902.21C1203.56 3900.72 1202.24 3898.98 1201.23 3897.06C1200.49 3895.67 1200.24 3894.07 1200.52 3892.52C1200.79 3890.96 1201.58 3889.55 1202.76 3888.49C1203.85 3887.64 1205.11 3887.04 1206.46 3886.73C1207.81 3886.42 1209.21 3886.4 1210.57 3886.69C1212.6 3887.25 1214.56 3888.08 1216.37 3889.16C1219.73 3890.89 1222.92 3892.93 1225.9 3895.25C1230.7 3899.13 1234.85 3903.76 1238.18 3908.97C1241.76 3913.43 1243.88 3918.88 1244.27 3924.58C1243.42 3924.58 1241.03 3918.96 1234.75 3911.25C1231.16 3906.8 1227.03 3902.8 1222.47 3899.35C1219.78 3897.34 1216.91 3895.59 1213.9 3894.11C1210.76 3892.3 1207.8 3891.54 1206.57 3892.78C1205.33 3894.02 1206 3893.54 1206.57 3894.68C1207.32 3896.06 1208.28 3897.32 1209.42 3898.4C1211.69 3900.92 1214.11 3903.3 1216.66 3905.54C1221.01 3909.36 1225.73 3912.74 1230.75 3915.63C1235.64 3917.88 1240.35 3920.49 1244.84 3923.44Z" fill="#263238"/>
<path d="M1242.18 3925.15C1240.36 3919.72 1240.36 3913.83 1242.18 3908.39C1243.49 3902.34 1245.81 3896.54 1249.04 3891.26C1250.99 3888.14 1253.22 3885.21 1255.7 3882.5C1257.16 3880.61 1259.06 3879.13 1261.24 3878.18C1263.42 3877.23 1265.81 3876.85 1268.18 3877.07C1269.61 3877.49 1270.89 3878.3 1271.88 3879.41C1272.87 3880.52 1273.54 3881.89 1273.8 3883.35C1274.08 3885.47 1274.08 3887.62 1273.8 3889.73C1273.42 3893.48 1272.46 3897.14 1270.94 3900.59C1268.47 3906.44 1264.57 3911.58 1259.61 3915.54C1251.13 3922.2 1244.09 3922.39 1244.09 3921.82C1244.09 3921.25 1250.09 3919.25 1257.04 3912.3C1260.99 3908.38 1264.07 3903.68 1266.08 3898.49C1267.27 3895.44 1268 3892.23 1268.27 3888.97C1268.27 3885.35 1268.27 3882.31 1266.75 3882.31C1265.23 3882.31 1261.7 3883.73 1259.7 3886.11C1257.34 3888.48 1255.2 3891.06 1253.32 3893.83C1250.17 3898.56 1247.7 3903.73 1245.99 3909.16C1243.04 3918.77 1243.04 3925.15 1242.18 3925.15Z" fill="#263238"/>
<path d="M797.047 3673.59L805.331 4044.17L937.489 4013.32L958.246 3681.88L797.047 3673.59Z" fill="#FFBE9D"/>
<path d="M964.725 3858.79L955.203 4030.18C955.203 4030.18 1126.59 4097.3 1128.02 4129.2L794.766 4123.11L798.193 3854.88L964.725 3858.79Z" fill="#AF1EE0"/>
<path d="M852.655 4014.18C849.462 4015.15 846.734 4017.25 844.981 4020.09C843.229 4022.93 842.571 4026.31 843.133 4029.6C843.989 4032.81 846.025 4035.57 848.833 4037.34C851.641 4039.1 855.013 4039.74 858.272 4039.12C861.698 4038.14 864.638 4035.92 866.52 4032.9C868.402 4029.87 869.094 4026.25 868.461 4022.75C867.27 4019.45 864.854 4016.74 861.715 4015.18C858.575 4013.62 854.955 4013.33 851.607 4014.37" fill="#E0E0E0"/>
<g opacity="0.4">
<path d="M794.672 4123.49L796.005 4096.45L1115.45 4112.35C1115.45 4112.35 1130.21 4119.11 1128.31 4129.58L794.672 4123.49Z" fill="black"/>
</g>
<path d="M960.913 4028.94C960.913 4030.56 952.629 4031.13 944.536 4036.27C936.443 4041.41 932.063 4048.08 930.539 4047.41C929.016 4046.74 931.682 4037.41 941.584 4031.41C951.487 4025.41 961.294 4027.41 960.913 4028.94Z" fill="#263238"/>
<path d="M995.479 4043.98C995.479 4045.6 988.719 4048.27 983.006 4055.03C977.293 4061.79 975.674 4069.12 974.056 4069.02C972.437 4068.93 971.58 4059.5 978.721 4051.31C985.862 4043.12 995.479 4042.46 995.479 4043.98Z" fill="#263238"/>
<path d="M1014.52 4086.26C1012.99 4086.26 1010.9 4078.45 1015.18 4069.6C1019.47 4060.74 1027.28 4057.31 1027.94 4058.65C1028.61 4059.98 1023.75 4064.74 1020.32 4072.07C1016.9 4079.4 1016.42 4086.16 1014.52 4086.26Z" fill="#263238"/>
<path d="M958.723 3989.52C957.961 3991.04 950.535 3988.66 941.299 3989.04C932.063 3989.42 924.826 3992.28 924.065 3990.95C923.303 3989.61 930.254 3983.8 941.108 3983.42C951.963 3983.04 959.485 3988.28 958.723 3989.52Z" fill="#263238"/>
<path d="M959.963 3954.86C954.475 3956.34 948.693 3956.34 943.205 3954.86C937.22 3953.66 931.402 3951.74 925.876 3949.15C922.585 3947.62 919.404 3945.87 916.354 3943.91C914.484 3942.8 912.785 3941.42 911.308 3939.82C910.288 3938.63 909.681 3937.14 909.578 3935.58C909.475 3934.02 909.882 3932.46 910.737 3931.15C911.612 3930.07 912.714 3929.2 913.964 3928.59C915.214 3927.98 916.583 3927.65 917.973 3927.63C920.105 3927.61 922.225 3927.94 924.257 3928.58C927.782 3929.53 931.222 3930.77 934.54 3932.3C940.117 3934.96 945.254 3938.46 949.775 3942.67C957.392 3950.01 959.963 3956.19 959.296 3956.48C958.63 3956.77 954.821 3951.81 947.109 3945.72C942.547 3942.26 937.594 3939.35 932.35 3937.06C929.254 3935.79 926.073 3934.74 922.829 3933.91C919.306 3932.96 916.354 3932.87 915.402 3934.48C914.45 3936.1 915.402 3935.25 915.402 3936.29C916.451 3937.46 917.671 3938.45 919.02 3939.25C921.833 3941.17 924.758 3942.91 927.78 3944.48C932.902 3947.13 938.257 3949.29 943.776 3950.96C949.251 3951.91 954.658 3953.21 959.963 3954.86Z" fill="#263238"/>
<path d="M957.389 3957.15C954.321 3952.33 952.885 3946.65 953.295 3940.96C953.119 3934.76 953.988 3928.58 955.866 3922.68C957.036 3919.18 958.534 3915.8 960.341 3912.58C961.274 3910.41 962.756 3908.51 964.641 3907.07C966.527 3905.64 968.752 3904.72 971.1 3904.4C972.596 3904.43 974.049 3904.9 975.283 3905.74C976.517 3906.59 977.479 3907.78 978.051 3909.16C978.853 3911.11 979.397 3913.16 979.67 3915.25C980.197 3919.01 980.197 3922.82 979.67 3926.58C978.627 3932.83 976.042 3938.72 972.148 3943.72C965.483 3952.19 958.627 3954 958.532 3953.24C958.437 3952.48 963.769 3949.34 968.911 3941.15C971.826 3936.39 973.708 3931.07 974.433 3925.53C974.844 3922.37 974.844 3919.17 974.433 3916.01C973.957 3912.49 972.719 3909.63 971.386 3909.92C970.053 3910.2 966.816 3912.49 965.387 3915.25C963.728 3918.15 962.296 3921.18 961.103 3924.3C959.137 3929.62 957.95 3935.2 957.58 3940.86C957.389 3950.77 958.627 3956.96 957.389 3957.15Z" fill="#263238"/>
<path d="M1228.57 2244.89C1228.57 2244.89 1492.69 2926.54 1470.89 3117.82C1449.09 3309.11 1309.69 3926.87 1309.69 3926.87L1085.94 3847.84L1175.53 3086.12L1002.81 2561.86L1056.7 2264.5L1228.57 2244.89Z" fill="#263238"/>
<path d="M721.352 2188.52C721.352 2188.52 721.352 2322.97 736.3 2377.62L749.916 2457.13C740.395 2895.12 742.965 3927.15 742.965 3927.15L1041.94 3930.77L1135.54 2222.52L721.352 2188.52Z" fill="#263238"/>
<path d="M1143.25 2382.19C1143.4 2383.52 1143.4 2384.86 1143.25 2386.19C1143.25 2389.05 1143.25 2392.95 1142.49 2397.9C1141.73 2408.47 1140.59 2423.61 1139.06 2443.03C1136.02 2482.36 1131.64 2539.01 1126.31 2608.8C1115.55 2748.77 1101.93 2942.05 1088.22 3156.1C1074.51 3370.14 1064.13 3563.52 1055.75 3703.87C1051.66 3773.86 1048.23 3830.51 1046.23 3869.93C1044.99 3888.97 1043.94 3904.49 1043.28 3915.06C1042.9 3920.01 1042.61 3923.91 1042.42 3926.77C1042.4 3928.12 1042.24 3929.46 1041.94 3930.77C1041.82 3929.44 1041.82 3928.1 1041.94 3926.77C1041.94 3923.82 1041.94 3919.92 1041.94 3914.96C1042.42 3904.4 1043.09 3889.26 1043.94 3869.83C1045.85 3830.32 1048.7 3773.66 1052.23 3703.68C1059.46 3563.52 1069.84 3369.76 1083.17 3155.81C1096.5 2941.86 1110.69 2748.48 1122.31 2608.52C1128.11 2538.53 1132.97 2481.88 1136.68 2442.84C1138.59 2423.8 1140.02 2408.37 1141.06 2397.8C1141.06 2392.85 1142.02 2388.95 1142.3 2386.09C1142.48 2384.76 1142.8 2383.45 1143.25 2382.19Z" fill="#455A64"/>
<path d="M904.836 2423.23C904.836 2422.37 916.262 2419.51 934.353 2413.23C944.884 2409.58 955.053 2404.96 964.726 2399.42C976.469 2392.76 986.481 2383.43 993.957 2372.19C1001.16 2360.64 1005.68 2347.63 1007.19 2334.11C1008.53 2323.02 1008.91 2311.84 1008.33 2300.69C1007.38 2281.64 1006.05 2269.65 1006.81 2269.55C1007.92 2272.15 1008.59 2274.92 1008.81 2277.74C1009.76 2283.07 1011 2290.78 1011.86 2300.5C1013 2311.86 1013 2323.31 1011.86 2334.68C1010.54 2348.85 1005.9 2362.52 998.337 2374.57C990.433 2386.48 979.747 2396.29 967.202 2403.14C957.201 2408.67 946.635 2413.1 935.686 2416.37C926.164 2419.13 918.737 2420.85 913.405 2421.9C910.629 2422.75 907.742 2423.2 904.836 2423.23Z" fill="#455A64"/>
<path d="M1218.28 3204.47C1215.89 3200.66 1213.91 3196.6 1212.38 3192.38C1208.85 3184.47 1204.09 3172.86 1198.38 3158.48C1186.95 3129.92 1172.2 3089.45 1157.82 3044.22C1143.44 2998.99 1132.11 2957.77 1124.78 2927.68C1121.07 2912.63 1118.3 2900.45 1116.59 2891.97C1115.42 2887.61 1114.66 2883.15 1114.3 2878.64C1116.15 2882.77 1117.55 2887.08 1118.49 2891.5C1120.97 2901.02 1124.3 2912.63 1128.02 2926.82C1136.2 2956.62 1148.01 2997.76 1162.29 3042.7C1176.58 3087.64 1190.86 3127.92 1201.43 3156.96C1206.47 3170.76 1210.95 3182.38 1214 3191.33C1215.83 3195.57 1217.26 3199.97 1218.28 3204.47Z" fill="#455A64"/>
<path d="M1096.31 1250.56C1096.31 1250.56 1507.07 1640.94 1504.5 1732.54C1501.93 1824.13 1415.47 1847.75 1386.72 1845.56C1357.96 1843.37 1131.45 1614.37 1131.45 1614.37L1096.31 1250.56Z" fill="#AF1EE0"/>
<g opacity="0.4">
<path d="M1096.31 1250.56C1096.31 1250.56 1507.07 1640.94 1504.5 1732.54C1501.93 1824.13 1415.47 1847.75 1386.72 1845.56C1357.96 1843.37 1131.45 1614.37 1131.45 1614.37L1096.31 1250.56Z" fill="black"/>
</g>
<path d="M907.883 1162.77L933.4 1070.6L1135.07 1152.39L1130.59 1248.84L1033.66 1281.5L934.257 1227.04L907.883 1162.77Z" fill="#AF1EE0"/>
<path d="M1228.57 2244.89L1194.76 1464.13C1190.19 1370.72 1160.01 1260.75 1099.07 1189.81L1098.5 1177.24L930.828 1144.49C930.828 1144.49 731.828 1190.38 720.498 1362.63C710.976 1499.36 699.836 2044.27 699.836 2244.89H1228.57Z" fill="#AF1EE0"/>
<path d="M967.867 1144.87C969.832 1126.88 974.386 1109.28 981.388 1092.6C981.048 1101.67 979.413 1110.65 976.532 1119.26C974.893 1128.17 971.975 1136.79 967.867 1144.87Z" fill="#263238"/>
<path d="M1043.56 1115.45C1044.03 1124.32 1043.13 1133.22 1040.89 1141.82C1040.01 1150.65 1037.76 1159.29 1034.23 1167.43C1034.84 1149.73 1038.05 1132.22 1043.75 1115.45H1043.56Z" fill="#263238"/>
<path d="M1102.31 1141.25C1102.82 1149.23 1102.51 1157.24 1101.36 1165.15C1101.51 1173.18 1100.74 1181.19 1099.07 1189.05C1095.85 1173.18 1096.97 1156.73 1102.31 1141.44V1141.25Z" fill="#263238"/>
<g opacity="0.2">
<path d="M805.047 1479.84C871.798 1606.25 951.577 1725.35 1043.08 1835.18C1066.7 1863.74 1091.84 1893.07 1124.68 1910.68C1157.53 1928.3 1178.48 1921.92 1209.43 1901.16C1181.64 1895.68 1155.34 1884.32 1132.3 1867.84C1101.72 1846.31 1074.7 1820.13 1052.23 1790.24C971.578 1690.07 892.835 1586.67 812.283 1486.41" fill="black"/>
</g>
<path d="M885.691 1748.25C876.309 1758.26 865.495 1766.83 853.604 1773.67C842.573 1781.81 830.374 1788.23 817.422 1792.71C827.875 1783.95 839.092 1776.15 850.938 1769.39C861.852 1761.29 873.485 1754.22 885.691 1748.25Z" fill="#263238"/>
<path d="M794.667 1657.79C792.503 1647.15 791.894 1636.24 792.858 1625.42C792.287 1614.56 793.346 1603.68 796 1593.14C798.28 1603.77 798.89 1614.7 797.809 1625.52C798.474 1636.37 797.413 1647.27 794.667 1657.79Z" fill="#263238"/>
<path d="M797.241 2000.19C786.395 1991.55 777.422 1980.79 770.866 1968.57C762.969 1957.09 757.464 1944.14 754.68 1930.49C756.108 1929.92 763.344 1946.68 775.151 1965.72C786.958 1984.76 798.383 1999.23 797.241 2000.19Z" fill="#263238"/>
<path d="M997.48 1946.39C984.631 1955.47 971.245 1963.77 957.395 1971.24C944.424 1980.09 930.944 1988.16 917.023 1995.43C928.205 1984.04 941.046 1974.41 955.11 1966.86C968.17 1958.03 982.442 1951.13 997.48 1946.39Z" fill="#263238"/>
<path d="M961.394 1869.27C950.373 1865.52 939.927 1860.27 930.354 1853.65C919.901 1848.46 910.275 1841.76 901.789 1833.75C912.809 1837.49 923.256 1842.75 932.829 1849.37C943.245 1854.61 952.863 1861.31 961.394 1869.27Z" fill="#263238"/>
<path d="M967.578 1783.95C970.714 1775.09 975.423 1766.87 981.479 1759.67C986.18 1751.59 992.235 1744.38 999.38 1738.35C996.232 1747.17 991.523 1755.37 985.478 1762.53C980.796 1770.65 974.739 1777.9 967.578 1783.95Z" fill="#263238"/>
<path d="M812.57 2231.08C802.349 2225.5 792.985 2218.48 784.767 2210.23C775.502 2203.19 767.265 2194.89 760.297 2185.57C770.533 2191.17 779.899 2198.22 788.1 2206.52C797.324 2213.57 805.555 2221.83 812.57 2231.08Z" fill="#263238"/>
<path d="M942.915 2174.05C932.637 2193.52 917.142 2209.74 898.164 2220.9C904.748 2212.33 912.111 2204.4 920.159 2197.19C926.985 2188.76 934.606 2181.02 942.915 2174.05Z" fill="#263238"/>
<path d="M741.637 1706.64C744.277 1732.01 743.573 1757.62 739.542 1782.81C737.391 1770.23 736.911 1757.43 738.114 1744.72C737.65 1731.93 738.834 1719.13 741.637 1706.64Z" fill="#263238"/>
<path d="M766.961 1495.26C766.961 1496.69 758.392 1497.45 747.918 1496.97C737.444 1496.5 728.875 1495.07 728.875 1493.74C741.485 1490.9 754.618 1491.43 766.961 1495.26Z" fill="#263238"/>
<path d="M798.954 1266.55C793.918 1276.13 787.502 1284.92 779.911 1292.64C773.394 1301.38 765.593 1309.09 756.773 1315.49C768.4 1297.12 782.751 1280.62 799.335 1266.55H798.954Z" fill="#263238"/>
<path d="M921.968 1242.84C918.128 1233.68 915.411 1224.09 913.875 1214.28C910.702 1205.04 908.656 1195.45 907.781 1185.71C913.348 1193.97 917.081 1203.32 918.731 1213.14C921.919 1222.69 923.023 1232.82 921.968 1242.84Z" fill="#263238"/>
<path d="M1241.32 1193.05C1212.76 1194.48 1209.81 1193.05 1177.91 1196.47C1173.13 1196.78 1168.41 1197.77 1163.91 1199.43C1161.64 1200.28 1159.59 1201.65 1157.94 1203.44C1156.28 1205.23 1155.07 1207.37 1154.39 1209.71C1152.58 1218.56 1161.82 1226.09 1170.67 1227.71C1179.53 1229.32 1188.86 1227.23 1197.72 1228.85C1211.72 1230.67 1224.61 1237.42 1234.09 1247.89C1253.7 1273.12 1272.17 1259.7 1285.41 1268.36L1317.4 1245.99L1303.4 1197.9L1240.94 1193.05" fill="#FFBE9D"/>
<path d="M1288.74 1268.27C1285.68 1267.05 1282.48 1266.25 1279.22 1265.89C1270.3 1266.24 1261.39 1265.12 1252.84 1262.55C1247.21 1259.94 1242.23 1256.1 1238.27 1251.32C1234.22 1245.91 1229.06 1241.44 1223.13 1238.18C1216.53 1234.61 1209.39 1232.13 1202 1230.85C1193.87 1229.93 1185.69 1229.62 1177.53 1229.9C1173 1229.85 1168.59 1228.51 1164.81 1226.03C1161.03 1223.54 1158.04 1220.03 1156.2 1215.9C1155.51 1213.72 1155.37 1211.4 1155.8 1209.16C1156.23 1206.91 1157.22 1204.81 1158.67 1203.05C1161.39 1199.91 1164.97 1197.63 1168.96 1196.48C1175.88 1194.97 1182.92 1194.04 1190 1193.71C1196.47 1193.24 1202.66 1192.86 1208.18 1192.67C1219.33 1192.67 1228.28 1192.67 1234.46 1192.67C1237.63 1192.37 1240.82 1192.37 1243.99 1192.67C1240.87 1193.46 1237.68 1193.87 1234.46 1193.9C1228.28 1193.9 1219.23 1194.67 1208.18 1195.33L1190.19 1196.86C1183.4 1197.34 1176.65 1198.33 1170 1199.81C1163.53 1201.62 1157.34 1207.9 1159.72 1214.57C1161.37 1217.96 1163.94 1220.83 1167.14 1222.83C1170.34 1224.84 1174.04 1225.9 1177.81 1225.9C1186.11 1225.59 1194.42 1225.94 1202.66 1226.94C1210.39 1228.41 1217.85 1231.07 1224.75 1234.85C1230.98 1238.42 1236.4 1243.25 1240.65 1249.03C1244.34 1253.59 1248.99 1257.26 1254.27 1259.79C1262.5 1262.44 1271.05 1263.91 1279.69 1264.17C1282.1 1264.49 1284.43 1265.27 1286.55 1266.46C1288.07 1267.6 1288.74 1268.08 1288.74 1268.27Z" fill="#EB996E"/>
<path d="M1211.62 1165.63L1373.48 1078.69C1375.71 1077.48 1378.31 1077.13 1380.77 1077.73C1383.24 1078.33 1385.39 1079.83 1386.81 1081.93C1387.64 1083.13 1388.2 1084.49 1388.46 1085.92C1388.72 1087.36 1388.67 1088.83 1388.32 1090.24C1387.97 1091.66 1387.33 1092.98 1386.42 1094.12C1385.52 1095.27 1384.39 1096.21 1383.1 1096.88L1235.23 1174.39L1211.62 1165.63Z" fill="#263238"/>
<path d="M703.547 2102.73C701.845 2103.38 700.094 2103.89 698.31 2104.26C693.203 2105.52 688.018 2106.44 682.79 2107.02C663.794 2109.39 644.557 2109.04 625.661 2105.97C597.318 2101.4 569.895 2092.31 544.442 2079.03C529.331 2071.34 514.957 2062.29 501.5 2051.98C494.165 2046.6 487.401 2040.47 481.314 2033.7C478.099 2029.94 475.816 2025.47 474.649 2020.66C473.574 2015.5 474.493 2010.12 477.22 2005.61C480 2001.48 483.718 1998.07 488.071 1995.66C492.423 1993.24 497.286 1991.89 502.262 1991.71C511.326 1991.25 520.414 1991.67 529.398 1992.95C574.902 1998.4 618.261 2015.38 655.368 2042.27C671.492 2053.05 685.338 2066.9 696.12 2083.02C698.907 2087.49 701.115 2092.29 702.69 2097.31C703.392 2099.04 703.81 2100.87 703.928 2102.73C701.341 2096.11 698.154 2089.74 694.406 2083.69C683.222 2068.24 669.237 2055.03 653.178 2044.75C616.345 2018.69 573.55 2002.32 528.732 1997.14C520.094 1995.91 511.355 1995.52 502.643 1996C498.438 1996.09 494.314 1997.17 490.608 1999.15C486.901 2001.14 483.716 2003.97 481.314 2007.42C479.406 2011.08 478.737 2015.26 479.406 2019.33C480.076 2023.4 482.049 2027.14 485.028 2029.99C490.824 2036.4 497.198 2042.27 504.071 2047.51C517.306 2057.65 531.386 2066.63 546.156 2074.36C571.134 2087.59 598.022 2096.84 625.851 2101.78C644.691 2105.21 663.903 2106.1 682.98 2104.45C696.12 2103.97 703.451 2102.07 703.547 2102.73Z" fill="#AF1EE0"/>
<path d="M682.311 2066.65C681.189 2065.6 680.198 2064.41 679.36 2063.12L671.647 2052.65C662.346 2039.58 653.764 2026 645.939 2011.99C634.047 1991.11 626.198 1968.18 622.802 1944.39C620.941 1930.21 621.553 1915.81 624.611 1901.83C625.36 1898.14 626.379 1894.51 627.658 1890.98C628.704 1887.12 630.412 1883.48 632.704 1880.22C633.91 1878.26 635.587 1876.63 637.583 1875.48C639.578 1874.33 641.829 1873.7 644.13 1873.65C646.424 1873.89 648.626 1874.69 650.548 1875.96C652.47 1877.24 654.057 1878.96 655.175 1880.98C682.793 1926.65 699.417 1978.12 703.735 2031.32C704.961 2047.33 704.961 2063.4 703.735 2079.41C703.735 2085.02 702.687 2089.4 702.402 2092.36C702.37 2093.89 702.08 2095.4 701.545 2096.83C701.129 2091 701.129 2085.14 701.545 2079.31C701.942 2063.42 701.306 2047.52 699.641 2031.7C694.383 1979.39 677.604 1928.89 650.509 1883.83C649.821 1882.47 648.812 1881.28 647.568 1880.39C646.325 1879.49 644.884 1878.91 643.368 1878.69C641.876 1878.79 640.432 1879.26 639.168 1880.06C637.904 1880.86 636.86 1881.96 636.132 1883.26C632.538 1889.36 630.025 1896.02 628.705 1902.97C625.814 1916.42 625.17 1930.26 626.801 1943.92C629.917 1967.27 637.274 1989.86 648.51 2010.57C658.031 2028.37 666.696 2042.18 672.695 2051.7L679.645 2062.74C681.74 2065.12 682.502 2066.55 682.311 2066.65Z" fill="#AF1EE0"/>
<path d="M452.18 2289.17C468.617 2295.83 486.214 2299.16 503.949 2298.96C521.683 2298.77 539.203 2295.05 555.488 2288.02C576.27 2279.02 595.119 2266.09 610.999 2249.94C639.443 2220.1 662.249 2185.35 678.316 2147.39C684.6 2133.58 689.742 2122.06 693.741 2113.11C695.376 2108.8 697.416 2104.66 699.834 2100.73C698.838 2105.24 697.403 2109.64 695.55 2113.87C692.408 2122.16 687.837 2134.25 681.553 2148.82C666.271 2187.69 643.642 2223.25 614.902 2253.55C598.553 2269.89 579.138 2282.83 557.773 2291.64C540.217 2298.77 521.398 2302.27 502.453 2301.92C489.73 2301.66 477.143 2299.24 465.224 2294.78C461.944 2293.6 458.761 2292.17 455.703 2290.5C454.457 2290.27 453.263 2289.82 452.18 2289.17Z" fill="#AF1EE0"/>
<path d="M662.222 2437.03C660.731 2432.74 659.679 2428.31 659.08 2423.8C658.636 2421.64 658.16 2419.26 657.652 2416.66C657.652 2413.9 657.176 2411.04 656.795 2407.99C656.795 2401.8 655.272 2394.76 655.367 2386.95C654.983 2346.19 658.169 2305.47 664.888 2265.27C671.934 2217.66 681.265 2175.95 688.597 2145.58C692.215 2130.44 695.452 2118.25 698.119 2109.78C699.1 2105.35 700.47 2101.02 702.213 2096.83C701.932 2101.37 701.166 2105.87 699.928 2110.26L692.31 2146.34C685.836 2176.81 677.171 2218.99 670.125 2266.03C663.578 2305.98 659.982 2346.37 659.366 2386.86C659.175 2417.9 663.46 2436.84 662.222 2437.03Z" fill="#AF1EE0"/>
<path d="M873.602 1165.63C873.602 1165.63 874.554 1164.77 876.744 1163.44C879.754 1161.57 882.944 1160 886.265 1158.77C899.309 1154.64 913.152 1153.69 926.637 1156.01C946.623 1159.21 965.685 1166.68 982.528 1177.91C1002.85 1191.61 1021.71 1207.37 1038.8 1224.95C1070.24 1256.69 1094.49 1294.81 1109.93 1336.73C1113.07 1344.73 1114.97 1352.15 1116.97 1358.63C1118.97 1365.1 1120.02 1370.91 1120.88 1375.58C1121.94 1380.4 1122.64 1385.31 1122.97 1390.24C1121.83 1390.24 1119.16 1369.39 1106.69 1337.97C1090.44 1297.01 1066.13 1259.74 1035.18 1228.37C1018.3 1211.07 999.81 1195.41 979.957 1181.62C963.71 1170.62 945.361 1163.1 926.065 1159.53C913.074 1156.96 899.672 1157.32 886.836 1160.58C878.362 1162.77 873.887 1165.63 873.602 1165.63Z" fill="white"/>
<path d="M1109.74 1827.94C1109.74 1827.94 1111.17 2051.51 1074.03 2063.98C1027.19 2079.69 700.219 2063.98 700.219 2063.98V2144.25C700.219 2144.25 1025.76 2123.3 1052.52 2165.2C1077.75 2204.81 1310.93 2932.06 1357.87 3150.48H1504.98C1504.98 3150.48 1426.9 2775.33 1399.29 2679.64C1384.53 2628.7 1335.59 2466.74 1291.31 2340.39C1250.09 2222.74 1230.29 2098.65 1232.85 1974L1236.38 1807.76L1210.86 1379.29H1116.79L1109.74 1827.94Z" fill="#AF1EE0"/>
<g opacity="0.7">
<path d="M1109.74 1827.94C1109.74 1827.94 1111.17 2051.51 1074.03 2063.98C1027.19 2079.69 700.219 2063.98 700.219 2063.98V2144.25C700.219 2144.25 1025.76 2123.3 1052.52 2165.2C1077.75 2204.81 1310.93 2932.06 1357.87 3150.48H1504.98C1504.98 3150.48 1426.9 2775.33 1399.29 2679.64C1384.53 2628.7 1335.59 2466.74 1291.31 2340.39C1250.09 2222.74 1230.29 2098.65 1232.85 1974L1236.38 1807.76L1210.86 1379.29H1116.79L1109.74 1827.94Z" fill="white"/>
</g>
<path d="M1406.8 2350.39C1410.95 2348.62 1414.69 2346.02 1417.79 2342.75C1420.89 2339.47 1423.27 2335.59 1424.8 2331.35C1426.26 2327.02 1426.78 2322.43 1426.34 2317.88C1425.89 2313.34 1424.49 2308.94 1422.23 2304.97C1416.71 2295.45 1405.85 2288.02 1403.66 2276.98C1400.04 2279.98 1397.75 2284.29 1397.28 2288.98C1390.9 2282.69 1397.95 2269.93 1391 2263.93C1388.9 2262.72 1386.49 2262.18 1384.08 2262.36C1381.66 2262.55 1379.36 2263.46 1377.48 2264.98C1372.89 2268.25 1369.1 2272.52 1366.39 2277.47C1363.69 2282.42 1362.14 2287.91 1361.86 2293.55C1361.17 2302.17 1362.65 2310.84 1366.18 2318.74C1369.7 2326.64 1375.16 2333.53 1382.05 2338.77C1389.51 2343.21 1396.72 2348.04 1403.66 2353.25" fill="#AF1EE0"/>
<path d="M1392.33 2354.48L1381.67 2491.69C1381.2 2493.84 1381.5 2496.09 1382.5 2498.05C1383.51 2500.01 1385.17 2501.56 1387.19 2502.44C1389.21 2503.31 1391.47 2503.46 1393.59 2502.85C1395.71 2502.25 1397.55 2500.93 1398.81 2499.11C1400.22 2497.49 1401.09 2495.45 1401.28 2493.31L1411.76 2356.2L1392.33 2354.48Z" fill="#263238"/>
<path d="M1392.33 2354.48L1389.09 2343.72L1416.52 2344.77L1411.95 2355.91L1392.33 2354.48Z" fill="#E0E0E0"/>
<path d="M1342.35 2451.98C1341.3 2447.79 1323.31 2315.16 1317.78 2269.84C1317.54 2267.96 1317.7 2266.04 1318.25 2264.23C1318.81 2262.42 1319.74 2260.74 1320.99 2259.32C1322.25 2257.89 1323.79 2256.75 1325.52 2255.97C1327.25 2255.19 1329.12 2254.79 1331.02 2254.79C1334.17 2254.8 1337.22 2255.92 1339.63 2257.96C1342.03 2260 1343.64 2262.82 1344.16 2265.93L1375.2 2457.03L1342.35 2451.98Z" fill="#263238"/>
<path d="M1273.89 2411.71H1428.33C1428.33 2411.71 1475.94 2612.61 1398.81 2679.64L1351.21 2671.17L1273.89 2411.71Z" fill="#AF1EE0"/>
<g opacity="0.7">
<path d="M1273.89 2411.71H1428.33C1428.33 2411.71 1475.94 2612.61 1398.81 2679.64L1351.21 2671.17L1273.89 2411.71Z" fill="white"/>
</g>
<path d="M1404.9 2670.03C1401.56 2671.13 1398.01 2671.45 1394.52 2670.98C1384.88 2670.14 1375.61 2666.86 1367.58 2661.46C1355.68 2653.63 1345.63 2643.3 1338.16 2631.18C1329.05 2616.66 1320.76 2601.66 1313.3 2586.24C1299.59 2558.36 1287.91 2529.53 1278.36 2499.97C1274.74 2488.64 1272.27 2479.31 1270.55 2472.83C1269.53 2469.52 1268.9 2466.1 1268.65 2462.65C1270.31 2465.65 1271.59 2468.85 1272.46 2472.17L1281.98 2498.73C1292.4 2527.95 1304.45 2556.56 1318.07 2584.43C1326.16 2600.52 1333.97 2615.94 1342.25 2629.08C1349.24 2640.8 1358.57 2650.95 1369.67 2658.88C1377.25 2664.12 1385.91 2667.6 1395 2669.07C1401.57 2670.03 1404.9 2669.26 1404.9 2670.03Z" fill="#263238"/>
<path d="M1441.66 1636.56C1442.08 1627.81 1444.05 1619.2 1447.46 1611.14C1449.22 1607.1 1452.01 1603.6 1455.56 1600.99C1459.1 1598.38 1463.27 1596.76 1467.65 1596.28C1469.81 1596.19 1471.96 1596.54 1473.97 1597.33C1475.97 1598.12 1477.8 1599.32 1479.31 1600.85C1480.83 1602.38 1482.01 1604.22 1482.77 1606.24C1483.53 1608.26 1483.86 1610.41 1483.74 1612.56C1482.06 1617.49 1479.41 1622.02 1475.93 1625.9C1466.98 1639.42 1468.7 1657.13 1469.65 1673.5C1470.6 1689.88 1469.65 1708.35 1456.7 1718.73" fill="#FFBE9D"/>
<path d="M824.089 1286.36C809.466 1297.67 797.277 1311.81 788.253 1327.94C779.23 1344.08 773.556 1361.86 771.573 1380.24C769.591 1398.62 771.339 1417.21 776.715 1434.9C782.09 1452.58 790.981 1469 802.856 1483.17L1096.21 1833.08C1127.05 1869.38 1169.46 1893.94 1216.29 1902.61C1263.12 1911.28 1311.51 1903.54 1353.29 1880.69C1388.87 1861.09 1417.89 1831.45 1436.73 1795.47C1455.58 1759.49 1463.41 1718.76 1459.27 1678.36L1387.76 1364.15L1243.99 1386.81L1262.08 1625.89L1016.8 1310.64C994.484 1281.96 961.706 1263.3 925.654 1258.75C889.602 1254.2 853.216 1264.13 824.469 1286.36H824.089Z" fill="#AF1EE0"/>
<path d="M1444.52 1787.57C1407.57 1780.81 1401.1 1774.81 1364.25 1768.53C1353.2 1766.53 1338.92 1760.15 1343.21 1748.44C1344.45 1745.51 1346.55 1743.02 1349.24 1741.32C1351.93 1739.62 1355.07 1738.78 1358.25 1738.92C1372.63 1739.39 1396.34 1746.72 1409.67 1747.39C1413.09 1747.39 1412.81 1744.15 1411.19 1741.87C1388.56 1736.24 1365.5 1732.45 1342.25 1730.54C1339.02 1730.21 1335.96 1728.95 1333.43 1726.92C1330.9 1724.88 1329.02 1722.15 1328.01 1719.07C1327 1715.98 1326.91 1712.67 1327.75 1709.53C1328.59 1706.4 1330.32 1703.57 1332.73 1701.4C1335.63 1699.62 1338.88 1698.48 1342.25 1698.07C1357.01 1699.5 1357.01 1699.5 1372.72 1701.5C1416.81 1706.92 1410.81 1698.54 1410.81 1698.54C1410.81 1695.21 1360.63 1692.83 1334.64 1690.93C1329.1 1691.25 1323.65 1689.45 1319.4 1685.88C1317.43 1683.19 1316.45 1679.91 1316.6 1676.59C1316.76 1673.26 1318.05 1670.09 1320.26 1667.6C1322.34 1664.96 1324.93 1662.75 1327.87 1661.12C1330.82 1659.49 1334.05 1658.45 1337.4 1658.08C1365.96 1656.17 1459.75 1662.08 1459.75 1662.08C1459.75 1662.08 1472.79 1678.17 1470.7 1712.26C1467.3 1738.91 1458.38 1764.56 1444.52 1787.57Z" fill="#FFBE9D"/>
<path d="M1317.31 1895.93L1313.31 1896.69L1301.79 1898.4C1291.6 1899.83 1276.56 1902.02 1257.04 1903.16C1233.24 1904.93 1209.31 1902.81 1186.2 1896.88C1155.96 1887.22 1128.48 1870.47 1106.03 1848.03C1078.79 1821.35 1053.05 1793.18 1028.9 1763.67C1002.53 1732.15 974.915 1698.16 946.065 1662.08C917.215 1625.99 887.412 1587.9 856.658 1547.82L810.097 1486.98C806.098 1481.83 802.195 1476.6 798.291 1471.46L792.673 1463.27C790.714 1460.55 788.964 1457.68 787.436 1454.7C780.842 1442.98 776.059 1430.33 773.249 1417.18C770.29 1404.07 769.359 1390.59 770.488 1377.19C771.013 1370.57 771.967 1363.98 773.344 1357.48C774.856 1351 776.829 1344.64 779.248 1338.44C781.555 1332.3 784.258 1326.32 787.341 1320.54C790.593 1314.91 794.219 1309.5 798.196 1304.35C805.921 1294.07 815.093 1284.96 825.427 1277.31C835.586 1269.76 846.695 1263.58 858.467 1258.94C892.876 1246.04 930.978 1247.2 964.537 1262.17C985.32 1271.77 1003.46 1286.28 1017.38 1304.45L1056.04 1354.91L1125.45 1445.56L1225.81 1576.95C1237.52 1592.38 1246.56 1604.47 1252.85 1612.85L1259.89 1622.37C1260.69 1623.44 1261.42 1624.55 1262.08 1625.7L1259.51 1622.66L1252.28 1613.14L1224.57 1577.72L1123.26 1446.99L1053.47 1356.63L1014.52 1307.11C1000.91 1289.45 983.196 1275.36 962.918 1266.08C941.551 1256.49 918.051 1252.65 894.744 1254.94C882.748 1256.07 870.961 1258.82 859.705 1263.12C848.29 1267.66 837.506 1273.64 827.617 1280.93C817.582 1288.38 808.668 1297.23 801.147 1307.21C797.35 1312.27 793.853 1317.55 790.674 1323.02C787.655 1328.61 785.015 1334.4 782.771 1340.34C780.481 1346.34 778.573 1352.48 777.058 1358.72C775.762 1365.01 774.84 1371.37 774.297 1377.76C773.234 1390.81 774.133 1403.93 776.963 1416.71C779.704 1429.46 784.359 1441.72 790.769 1453.08C797.419 1464.2 804.865 1474.83 813.049 1484.88L859.609 1545.72C890.269 1585.43 920.071 1623.61 948.826 1659.98C977.581 1696.35 1005.1 1730.25 1031.38 1761.77C1055.22 1791.25 1080.64 1819.41 1107.55 1846.13C1129.59 1868.45 1156.66 1885.16 1186.48 1894.88C1209.31 1901 1232.98 1903.35 1256.56 1901.83C1275.6 1900.97 1291.12 1898.97 1301.31 1897.83L1312.93 1896.5C1314.37 1896.2 1315.84 1896.01 1317.31 1895.93Z" fill="#263238"/>
<path d="M1283.41 1739.3C1286.45 1718.82 1286.2 1697.99 1282.65 1677.6C1277.73 1657.4 1269.63 1638.12 1258.66 1620.47C1263.24 1624.66 1267.1 1629.59 1270.08 1635.04C1285.61 1660.74 1291.92 1690.96 1287.98 1720.73C1287.54 1727.14 1286 1733.42 1283.41 1739.3Z" fill="#263238"/>
<path d="M910.734 1427.75C897.611 1423.37 885.051 1417.46 873.314 1410.14C860.756 1404.25 848.958 1396.87 838.18 1388.14C851.329 1392.53 863.92 1398.44 875.694 1405.76C888.214 1411.66 899.978 1419.04 910.734 1427.75Z" fill="#263238"/>
<path d="M1010.33 1487.36C1007.99 1472.56 1007.99 1457.5 1010.33 1442.7C1011.23 1427.73 1014.44 1412.99 1019.86 1399C1019.42 1413.84 1017.99 1428.63 1015.57 1443.27C1014.77 1458.07 1013.02 1472.79 1010.33 1487.36Z" fill="#263238"/>
<path d="M1021.37 1607.14C997.149 1605.1 973.799 1597.12 953.391 1583.91C965.09 1586.57 976.529 1590.26 987.573 1594.95C999.146 1598.11 1010.45 1602.19 1021.37 1607.14Z" fill="#263238"/>
<path d="M1136.49 1671.98C1135.38 1658.22 1135.89 1644.39 1138.02 1630.75C1138.55 1616.93 1140.73 1603.22 1144.49 1589.9C1145.6 1603.69 1145.09 1617.56 1142.97 1631.23C1142.49 1645.03 1140.32 1658.71 1136.49 1671.98Z" fill="#263238"/>
<path d="M1158.29 1790.62C1147.65 1781.79 1138.06 1771.76 1129.73 1760.72C1120.11 1750.74 1111.7 1739.65 1104.69 1727.68C1115.35 1736.46 1124.94 1746.46 1133.25 1757.48C1142.89 1767.49 1151.3 1778.62 1158.29 1790.62Z" fill="#263238"/>
<path d="M1314.93 1802.9C1302.91 1805.79 1290.73 1807.98 1278.46 1809.47C1266.5 1812.6 1254.35 1814.96 1242.09 1816.52C1252.98 1810.22 1265.02 1806.17 1277.51 1804.61C1289.73 1801.46 1302.47 1800.88 1314.93 1802.9Z" fill="#263238"/>
<path d="M1333.78 1585.24C1337.04 1573.95 1341.88 1563.18 1348.16 1553.25C1353.1 1542.54 1359.51 1532.58 1367.2 1523.63C1359.14 1545.64 1347.98 1566.38 1334.07 1585.24H1333.78Z" fill="#263238"/>
<path d="M1335.11 1462.51C1326.21 1460.32 1317.78 1456.51 1310.26 1451.27C1301.9 1447.4 1294.29 1442.08 1287.79 1435.56C1296.7 1437.85 1305.15 1441.68 1312.74 1446.89C1321.06 1450.73 1328.63 1456.02 1335.11 1462.51Z" fill="#263238"/>
<path d="M1181.05 1119.92C1161.15 1131.16 1147.44 1159.63 1135.25 1178.29C1131.18 1183.77 1128.35 1190.07 1126.97 1196.76C1126.73 1203.99 1128.33 1211.17 1131.63 1217.61C1135.92 1227.13 1140.59 1236.66 1145.25 1246.84C1146.58 1249.61 1148.3 1252.65 1151.34 1253.22C1154.39 1253.79 1158.2 1249.99 1159.53 1246.37C1161.97 1237.05 1163.12 1227.44 1162.96 1217.8C1162.92 1212.97 1164.07 1208.2 1166.31 1203.91C1168.55 1199.63 1171.82 1195.96 1175.81 1193.24" fill="#EB996E"/>
<path d="M1217.04 1194.19L1196.38 1180.29C1195.12 1179.36 1193.56 1178.96 1192.01 1179.18C1190.46 1179.39 1189.06 1180.2 1188.1 1181.43L1178.58 1194.09L1185.62 1224.66C1194 1263.98 1164.29 1259.22 1164.29 1259.22L1161.63 1251.7L1146.39 1204.09C1142.68 1181.14 1144.39 1178.29 1154.77 1161.05L1177.72 1124.68C1180.03 1120.88 1183.54 1117.96 1187.7 1116.39C1191.86 1114.82 1196.42 1114.69 1200.67 1116.02C1236.66 1127.35 1313.97 1147.34 1324.45 1176.86C1342.73 1230.56 1361.68 1365.67 1362.06 1368.15L1255.42 1384.62L1250.46 1293.5C1240.73 1288.04 1233.16 1279.4 1229.04 1269.03C1223.67 1244.23 1219.66 1219.15 1217.04 1193.9" fill="#FFBE9D"/>
<path d="M1292.36 1208.38C1292.36 1208.38 1291.31 1210.28 1288.55 1212.85C1284.51 1216.68 1279.62 1219.49 1274.27 1221.04C1270.44 1222.01 1266.45 1222.17 1262.56 1221.52C1257.96 1220.69 1253.77 1218.34 1250.66 1214.85C1243.99 1207.62 1242.56 1196.95 1236.57 1189.43C1233.22 1186 1229.37 1183.11 1225.14 1180.86C1221.13 1178.57 1217 1176.5 1212.76 1174.67C1209.29 1172.9 1205.43 1172.02 1201.53 1172.1C1198.32 1173.32 1195.42 1175.24 1193.05 1177.72C1183.53 1187.24 1178.67 1194.29 1178.1 1193.71C1177.53 1193.14 1178.96 1191.71 1181.15 1188.57C1183.94 1184.05 1187.13 1179.78 1190.67 1175.81C1193.26 1172.8 1196.52 1170.45 1200.19 1168.96C1201.39 1168.77 1202.61 1168.77 1203.81 1168.96L1207.14 1169.63C1209.34 1170.19 1211.5 1170.89 1213.62 1171.72C1218.07 1173.49 1222.4 1175.56 1226.57 1177.91C1231.24 1180.39 1235.48 1183.6 1239.14 1187.43C1245.99 1196.29 1247.23 1206.47 1252.94 1212.95C1255.48 1215.63 1258.69 1217.59 1262.24 1218.61C1265.79 1219.63 1269.55 1219.68 1273.13 1218.76C1278.17 1217.56 1282.91 1215.32 1287.03 1212.19C1290.65 1209.52 1292.17 1208.09 1292.36 1208.38Z" fill="#EB996E"/>
<path d="M1282.08 1241.8C1271.72 1242.32 1261.35 1241.06 1251.42 1238.08C1241.37 1236.28 1231.71 1232.77 1222.85 1227.71C1232.98 1229.07 1242.98 1231.27 1252.75 1234.27C1262.7 1236.06 1272.5 1238.57 1282.08 1241.8Z" fill="#EB996E"/>
<path d="M1237.14 1171.15C1237.14 1170.67 1239.14 1170.1 1242.09 1171.15C1244.05 1171.96 1245.78 1173.25 1247.12 1174.89C1248.47 1176.53 1249.38 1178.49 1249.79 1180.57C1250.19 1182.65 1250.08 1184.81 1249.45 1186.83C1248.82 1188.86 1247.7 1190.7 1246.18 1192.19C1243.8 1194.48 1241.8 1194.67 1241.61 1194.29C1241.42 1193.91 1242.66 1192.67 1243.99 1190.48C1245.79 1187.65 1246.47 1184.26 1245.9 1180.96C1245.19 1177.84 1243.36 1175.09 1240.75 1173.24C1238.76 1172.29 1237.04 1171.72 1237.14 1171.15Z" fill="#EB996E"/>
<path d="M1073.36 1241.8C1069.67 1239.03 1065.43 1237.08 1060.92 1236.09C1056.42 1235.1 1051.75 1235.09 1047.24 1236.06C1042.73 1237.02 1038.48 1238.94 1034.77 1241.69C1031.06 1244.44 1027.99 1247.95 1025.76 1251.99C1020.23 1261.51 1019.66 1274.74 1011.19 1282.26C1015.63 1283.85 1020.51 1283.64 1024.8 1281.69C1022.71 1290.36 1007.85 1291.22 1006.62 1299.88C1006.63 1302.3 1007.39 1304.66 1008.78 1306.63C1010.18 1308.61 1012.15 1310.11 1014.42 1310.92C1019.55 1313.13 1025.1 1314.17 1030.68 1313.99C1036.26 1313.81 1041.73 1312.41 1046.7 1309.88C1054.47 1306.04 1061.16 1300.32 1066.15 1293.23C1071.14 1286.15 1074.27 1277.92 1075.27 1269.32C1075.23 1260.63 1075.68 1251.96 1076.6 1243.32" fill="#455A64"/>
<path d="M1084.22 1252.37L1208 1191.24C1210.06 1190.51 1211.81 1189.09 1212.95 1187.23C1214.09 1185.36 1214.55 1183.16 1214.26 1181C1213.97 1178.83 1212.94 1176.83 1211.35 1175.33C1209.76 1173.83 1207.7 1172.93 1205.52 1172.77C1203.39 1172.32 1201.17 1172.63 1199.24 1173.62L1076.12 1234.75L1084.22 1252.37Z" fill="#263238"/>
<path d="M1084.22 1252.37L1076.69 1260.65L1063.55 1236.66L1075.46 1234.75L1084.22 1252.37Z" fill="#E0E0E0"/>
<path d="M3766.81 3464.79C3775.86 3433.36 3795.38 3403.09 3825.18 3390.14C3854.98 3377.19 3892.4 3384.42 3924.3 3395.95C3956.19 3407.47 3987.52 3423.08 4021.42 3425.18C4055.31 3427.27 4093.5 3411.18 4103.68 3378.81C4113.2 3348.34 4094.83 3315.87 4071.88 3293.78C4047.61 3270.41 4017.84 3253.53 3985.33 3244.69C3952.81 3235.85 3918.6 3235.34 3885.83 3243.2C3853.07 3251.07 3822.81 3267.05 3797.85 3289.69C3772.89 3312.32 3754.03 3340.87 3743.01 3372.71" fill="#AF1EE0"/>
<g opacity="0.3">
<path d="M3766.81 3464.79C3775.86 3433.36 3795.38 3403.09 3825.18 3390.14C3854.98 3377.19 3892.4 3384.42 3924.3 3395.95C3956.19 3407.47 3987.52 3423.08 4021.42 3425.18C4055.31 3427.27 4093.5 3411.18 4103.68 3378.81C4113.2 3348.34 4094.83 3315.87 4071.88 3293.78C4047.61 3270.41 4017.84 3253.53 3985.33 3244.69C3952.81 3235.85 3918.6 3235.34 3885.83 3243.2C3853.07 3251.07 3822.81 3267.05 3797.85 3289.69C3772.89 3312.32 3754.03 3340.87 3743.01 3372.71" fill="black"/>
</g>
<path d="M3498.4 3600.85C3448.7 3553.24 3450.79 3471.45 3475.93 3407.47C3501.07 3343.48 3554.86 3294.54 3615.32 3262.17C3674.33 3231.2 3739.58 3213.99 3806.18 3211.83C3872.78 3209.67 3939.01 3222.62 3999.9 3249.69C3970.01 3250.94 3940.88 3259.51 3915.08 3274.66C3889.28 3289.8 3867.6 3311.05 3851.93 3336.53C3824.7 3381.76 3818.61 3436.7 3796.14 3484.5C3770.75 3538.34 3725.72 3580.42 3670.27 3602.1C3614.83 3623.77 3553.19 3623.39 3498.02 3601.04" fill="#AF1EE0"/>
<path d="M3474.5 3317.49C3419.46 3252.46 3412.13 3148.2 3420.22 3063.45C3428.32 2978.71 3448.03 2893.5 3434.6 2809.42C3426.7 2759.62 3407.37 2712.01 3400.9 2662.03C3394.42 2612.04 3403.56 2555.48 3442.31 2523.2C3486.88 2486.07 3556.57 2494.64 3603.32 2529.68C3650.07 2564.72 3676.45 2619.28 3696.16 2673.74C3739.2 2793.61 3755 2926.53 3719.58 3048.79C3684.16 3171.05 3601.13 3280.26 3479.26 3317.49" fill="#AF1EE0"/>
<path d="M3448.12 3850.12C3447.88 3847.62 3447.88 3845.1 3448.12 3842.6C3448.12 3837.65 3448.12 3830.41 3448.12 3821.18C3448.79 3802.13 3450.6 3775.57 3454.69 3742.43C3459.61 3703.67 3466.66 3665.21 3475.83 3627.22C3487.22 3580.61 3504.9 3535.77 3528.39 3493.92C3551.83 3452.05 3580.64 3413.42 3614.08 3379C3641.33 3350.89 3671.53 3325.8 3704.15 3304.16C3717.96 3294.64 3731.2 3287.4 3742.72 3280.74C3754.24 3274.07 3764.71 3269.6 3773.09 3265.5L3792.89 3257.22C3795.16 3256.15 3797.52 3255.29 3799.94 3254.65C3797.81 3255.98 3795.58 3257.16 3793.28 3258.17L3774.23 3267.21C3766.04 3271.59 3755.95 3276.74 3744.43 3283.21C3732.91 3289.69 3720.06 3297.4 3706.34 3307.01C3634.72 3356.01 3575.28 3420.76 3532.58 3496.3C3482.02 3584.76 3468.21 3677.78 3458.12 3743.01C3453.55 3775.95 3451.17 3802.8 3449.93 3821.37C3449.36 3830.22 3448.98 3837.36 3448.6 3842.7C3448.6 3845.18 3448.44 3847.66 3448.12 3850.12Z" fill="#263238"/>
<path d="M2973.48 3060.88C2871.69 3122.39 2871.98 3178.28 2889.02 3231.03C2906.06 3283.78 2968.43 3320.44 3020.32 3300.73C3049.55 3289.59 3070.79 3264.07 3088.88 3238.55C3106.97 3213.04 3124.01 3185.52 3149.43 3167.24C3174.86 3148.96 3211.61 3141.82 3237.13 3160" fill="#AF1EE0"/>
<g opacity="0.3">
<path d="M2973.48 3060.88C2871.69 3122.39 2871.98 3178.28 2889.02 3231.03C2906.06 3283.78 2968.43 3320.44 3020.32 3300.73C3049.55 3289.59 3070.79 3264.07 3088.88 3238.55C3106.97 3213.04 3124.01 3185.52 3149.43 3167.24C3174.86 3148.96 3211.61 3141.82 3237.13 3160" fill="black"/>
</g>
<path d="M2897.3 3128.3C2923.87 3091.54 2989.66 3080.69 3031.18 3099.16C3072.69 3117.63 3103.16 3153.91 3130.3 3190.28C3157.43 3226.65 3184.09 3265.02 3221.8 3290.26C3259.5 3315.49 3312.16 3324.72 3349.77 3299.21C3361.74 3290.28 3371.76 3279 3379.22 3266.07C3386.69 3253.14 3391.44 3238.82 3393.19 3223.99C3396.55 3194.26 3394.55 3164.17 3387.28 3135.15C3378.24 3092.49 3363.57 3047.93 3329.39 3020.89C3291.31 2990.61 3238.56 2989.19 3189.9 2990.8C3134.2 2992.61 3077.55 2996.8 3025.18 3016.13C2972.81 3035.46 2919.49 3077.16 2897.3 3128.39" fill="#AF1EE0"/>
<path d="M3363.48 3799.28C3363.36 3798.52 3363.36 3797.75 3363.48 3796.99C3363.48 3795.18 3363.48 3792.99 3363.48 3790.23L3362.53 3764.05C3361.96 3740.91 3361 3708.16 3359.86 3667.79C3358.72 3627.41 3357.1 3578.85 3354.43 3524.96C3351.77 3471.07 3347.29 3412.7 3340.34 3351.1C3337.07 3321.22 3332.05 3291.56 3325.3 3262.26C3323.2 3255.31 3321.49 3248.36 3319.3 3241.6C3317.11 3234.84 3314.44 3228.18 3311.87 3221.7C3309.3 3215.23 3306.54 3208.85 3303.87 3202.66L3295.21 3184.28C3274.19 3141.68 3245.97 3103.03 3211.8 3070.02C3188.67 3047.92 3162.27 3029.52 3133.53 3015.47C3128.39 3013.09 3124.01 3010.9 3119.82 3009.09L3109.25 3005.18L3102.97 3002.61L3100.88 3001.56C3101.66 3001.63 3102.43 3001.82 3103.16 3002.14L3109.63 3004.23L3120.11 3007.75C3124.2 3009.37 3128.77 3011.56 3134.01 3013.75C3163.36 3027.27 3190.33 3045.44 3213.9 3067.55C3248.73 3100.37 3277.54 3139.04 3299.02 3181.81C3301.87 3188.15 3304.83 3194.5 3307.87 3200.85C3310.54 3207.23 3313.3 3213.61 3316.06 3219.89C3318.82 3226.18 3321.01 3233.22 3323.49 3239.98C3325.96 3246.74 3327.58 3253.98 3329.68 3261.03C3336.6 3290.52 3341.69 3320.41 3344.91 3350.53C3352.24 3412.23 3355.39 3471.36 3358.05 3524.96C3360.72 3578.57 3361.67 3627.13 3362.43 3667.79C3363.19 3708.44 3363.48 3741.29 3363.57 3764.05C3363.57 3775.09 3363.57 3783.76 3363.57 3790.23C3363.57 3792.9 3363.57 3795.18 3363.57 3796.99C3363.69 3797.75 3363.65 3798.53 3363.48 3799.28Z" fill="#263238"/>
<path d="M3400.14 3814.51C3395.21 3800.27 3391.45 3785.66 3388.9 3770.81C3381.82 3730.26 3380.21 3688.95 3384.14 3647.98C3390.4 3587.34 3403.39 3527.59 3422.89 3469.83C3443.84 3404.32 3472.12 3334.25 3496.4 3259.03C3508.32 3222.43 3518.08 3185.17 3525.63 3147.43C3532.33 3112.36 3537.16 3076.95 3540.1 3041.36C3544.72 2980.83 3545.8 2920.07 3543.34 2859.41C3541.63 2807.52 3538.86 2765.62 3537.15 2736.58C3536.39 2722.39 3535.72 2711.25 3535.25 2703.25C3535.25 2699.64 3535.25 2696.78 3535.25 2694.59C3535.12 2693.58 3535.12 2692.55 3535.25 2691.54C3535.54 2692.5 3535.7 2693.49 3535.72 2694.49C3535.72 2696.78 3536.29 2699.64 3536.58 2703.16C3537.34 2711.16 3538.29 2722.2 3539.44 2736.48C3541.82 2765.05 3545.05 2807.32 3547.24 2859.22C3550.2 2920.05 3549.44 2981.01 3544.96 3041.74C3542.22 3077.62 3537.49 3113.32 3530.77 3148.67C3523.15 3186.47 3513.23 3223.77 3501.06 3260.36C3476.78 3335.86 3448.32 3405.85 3427.27 3471.07C3407.64 3528.48 3394.36 3587.87 3387.66 3648.17C3383.41 3688.89 3384.46 3729.98 3390.81 3770.43C3393.28 3784.71 3395.57 3795.75 3397.57 3803.09C3398.42 3806.61 3399.09 3809.37 3399.56 3811.56C3399.89 3812.51 3400.08 3813.51 3400.14 3814.51Z" fill="#263238"/>
<path d="M3652.55 3860.6H3174.47L3163.52 3768.52H3652.55V3860.6Z" fill="#263238"/>
<path d="M3225.8 3850.12L3285.5 4126.15H3545.34L3601.23 3850.12H3225.8Z" fill="#263238"/>
<path d="M3652.46 3860.22C3652.46 3861.55 3547.72 3862.41 3417.75 3862.02C3287.78 3861.64 3183.05 3860.22 3183.05 3858.88C3183.05 3857.55 3287.78 3856.69 3417.75 3857.07C3547.72 3857.45 3652.46 3859.17 3652.46 3860.22Z" fill="#455A64"/>
<path d="M3570.48 3996.75C3557.38 3987.17 3543.23 3979.12 3528.3 3972.76C3511.97 3966.44 3494.67 3962.99 3477.17 3962.57C3455.55 3962.71 3434.13 3966.75 3413.94 3974.47C3392.14 3981.9 3371.76 3990.47 3351.96 3995.14C3334.34 3998.94 3316.17 3999.49 3298.35 3996.75C3286.35 3995 3274.7 3991.3 3263.88 3985.8C3261 3984.22 3258.24 3982.44 3255.6 3980.47C3253.79 3979.14 3252.94 3978.28 3253.03 3978.19C3253.13 3978.09 3257.12 3980.47 3264.74 3984C3275.56 3988.86 3287.05 3992.07 3298.83 3993.52C3316.2 3995.74 3333.83 3994.9 3350.91 3991.04C3369.95 3986.19 3390.33 3977.52 3412.33 3970.09C3432.95 3962.34 3454.84 3958.46 3476.88 3958.67C3494.89 3959.29 3512.64 3963.2 3529.25 3970.19C3540.41 3974.83 3550.89 3980.98 3560.39 3988.47C3562.97 3990.47 3565.45 3992.6 3567.81 3994.85C3569.72 3996.06 3570.61 3996.69 3570.48 3996.75Z" fill="#455A64"/>
<path d="M3566.86 4015.22C3554.24 4005.87 3540.64 3997.92 3526.3 3991.52C3510.64 3985.18 3493.96 3981.76 3477.07 3981.42C3456.31 3981.51 3435.72 3985.22 3416.23 3992.37C3395.19 3999.42 3375.38 4007.61 3356.53 4012.65C3339.81 4017.49 3322.39 4019.42 3305.02 4018.37C3293.26 4017.65 3281.76 4014.58 3271.22 4009.32C3268.42 4007.81 3265.75 4006.09 3263.22 4004.18C3261.5 4002.85 3260.65 4002.09 3260.74 4001.99C3260.84 4001.89 3264.74 4004.18 3272.07 4007.61C3282.58 4012.04 3293.81 4014.52 3305.21 4014.94C3322.15 4015.38 3339.05 4013.13 3355.29 4008.27C3373.76 4003.04 3393.38 3994.85 3414.61 3987.71C3434.64 3980.36 3455.83 3976.68 3477.17 3976.85C3494.59 3977.41 3511.75 3981.29 3527.73 3988.28C3538.42 3992.99 3548.44 3999.11 3557.53 4006.47C3560.02 4008.43 3562.41 4010.52 3564.67 4012.75C3566.29 4014.27 3566.95 4015.13 3566.86 4015.22Z" fill="white"/>
<path d="M3575.23 3978.47C3561.71 3968.56 3547.19 3960.07 3531.91 3953.14C3515.26 3946.02 3497.52 3941.77 3479.45 3940.58C3457.3 3940.13 3435.27 3944.01 3414.61 3952C3393.66 3960.27 3372.23 3967.27 3350.43 3972.95C3332.12 3976.1 3313.42 3976.1 3295.11 3972.95C3282.77 3970.96 3270.8 3967.14 3259.59 3961.62C3256.56 3960.05 3253.66 3958.23 3250.93 3956.19C3249.12 3954.86 3248.17 3954 3248.26 3953.91C3248.36 3953.81 3252.55 3956.29 3260.36 3959.9C3271.63 3964.6 3283.48 3967.8 3295.59 3969.43C3313.53 3971.96 3331.76 3971.58 3349.57 3968.28C3371.07 3962.36 3392.24 3955.3 3412.99 3947.15C3434.22 3938.95 3456.89 3935.1 3479.64 3935.81C3498.18 3937.27 3516.33 3941.97 3533.24 3949.72C3544.6 3954.76 3555.31 3961.15 3565.14 3968.76C3567.84 3970.8 3570.38 3973.02 3572.76 3975.42C3574.47 3977.42 3575.8 3978.38 3575.23 3978.47Z" fill="white"/>
<path d="M2114.06 2766L1802.8 4129.58H1876.69L2180.52 2766H2114.06Z" fill="#263238"/>
<path d="M2077.12 2766L1765.96 4129.58H1839.75L2143.58 2766H2077.12Z" fill="#455A64"/>
<path d="M2917.59 2684.02C2917.59 2696.21 3188.38 4126.06 3188.38 4126.06H3267.69L2991.57 2684.02H2917.59Z" fill="#263238"/>
<path d="M2884.36 2684.02C2884.36 2696.21 3155.15 4126.06 3155.15 4126.06H3239.61L2958.44 2684.02H2884.36Z" fill="#455A64"/>
<path d="M2705.54 2766L2687.45 4129.58H2787.24L2801.81 2766H2705.54Z" fill="#263238"/>
<path d="M1981.15 2684.02L1974.77 2774.38L2813.52 2803.04L2822.47 2695.35L1981.15 2684.02Z" fill="#455A64"/>
<path d="M2813.52 2803.04H2860.27L2868.84 2695.92L2822.47 2695.35L2813.52 2803.04Z" fill="#263238"/>
<path d="M2037.8 3117.54L2677.46 3147.43V3256.26L2019.33 3223.7L2037.8 3117.54Z" fill="#455A64"/>
<path d="M2677.45 2766L2659.36 4129.58H2759.15L2773.62 2766H2677.45Z" fill="#455A64"/>
<path d="M2253.08 2766C2251.7 2790.39 2251.7 2814.84 2253.08 2839.22L2598.14 2859.03V2779.81L2253.08 2766Z" fill="#455A64"/>
<path d="M2553.48 167.959C2557.58 177.481 2611.28 538.156 2611.28 538.156L2675.55 533.776L2623.66 167.959H2553.48Z" fill="#455A64"/>
<path d="M2654.7 195.476L2623.66 167.959L2675.55 533.776L2702.21 531.872L2654.7 195.476Z" fill="#263238"/>
<path d="M2739.63 337.252C2739.63 344.203 2734.68 530.634 2734.68 530.634L2803.62 525.969V337.252H2739.63Z" fill="#263238"/>
<path d="M2722.11 337.252C2722.11 344.203 2717.16 530.634 2717.16 530.634L2786.09 525.969V337.252H2722.11Z" fill="#455A64"/>
<path d="M2512.16 342.965L2461.12 548.439L2522.06 544.25L2568.43 342.965H2512.16Z" fill="#263238"/>
<path d="M2485.88 342.965L2434.84 548.439L2495.78 544.25L2542.15 342.965H2485.88Z" fill="#455A64"/>
<path d="M3263.89 477.504L3305.11 513.971L3252.65 2700.21H3192.09L3263.89 477.504Z" fill="#E0E0E0"/>
<path d="M1889.74 593.857L1710.16 2675.74L3192.09 2700.21L3263.89 477.504L1889.74 593.857Z" fill="#FAFAFA"/>
<path d="M1889.74 594.333L1914.11 592.047L1985.81 585.763L2260.89 561.959L3263.69 476.266H3265.88V478.456C3246.84 1078.31 3221.89 1848.51 3195.04 2685.35C3195.04 2690.69 3195.04 2695.92 3194.57 2701.16V2703.54H3192.09L1710.16 2678.78H1707.78V2676.4C1761.39 2060.65 1806.61 1540.01 1838.51 1173.24C1854.6 990.047 1867.08 845.415 1876.03 746.391C1880.41 697.07 1883.74 659.079 1885.55 633.371C1886.69 620.707 1887.64 610.995 1888.21 604.806C1888.79 598.617 1889.17 595.285 1889.17 595.285C1889.17 595.285 1889.17 598.712 1888.5 604.806C1887.83 610.9 1887.17 621.183 1886.12 634.037C1883.93 659.745 1880.69 697.927 1876.6 747.439C1868.12 846.558 1855.84 991.475 1840.32 1174.86C1809 1541.34 1764.15 2061.6 1711.78 2676.88L1709.59 2674.4L3191.52 2698.68L3189.04 2701.06C3189.04 2695.92 3189.04 2690.59 3189.52 2685.35C3216.75 1848.41 3241.89 1078.5 3261.41 478.36L3263.5 480.36L2261.84 563.292L1986.67 586.049L1914.49 591.952L1889.74 594.333Z" fill="#455A64"/>
<path d="M408.568 362.103C410.731 363.154 412.556 364.791 413.835 366.828C415.115 368.865 415.797 371.219 415.804 373.624V437.038C415.808 439.01 415.354 440.957 414.479 442.725C413.603 444.493 412.329 446.033 410.758 447.226C409.181 448.397 407.359 449.194 405.429 449.557C403.499 449.92 401.512 449.839 399.618 449.32C394.394 447.939 388.942 447.649 383.602 448.468C378.261 449.287 373.147 451.198 368.578 454.081C364.371 456.498 360.699 459.744 357.786 463.624C354.873 467.503 352.778 471.934 351.629 476.647C350.829 481.464 350.989 486.392 352.1 491.147C353.211 495.903 355.251 500.391 358.104 504.355C361.09 508.846 364.945 512.693 369.442 515.669C373.939 518.646 378.987 520.691 384.288 521.684C395.008 522.771 405.78 520.189 414.843 514.361C423.906 508.532 430.723 499.802 434.181 489.596C435.296 486.477 437.581 483.914 440.552 482.449C443.523 480.984 446.947 480.732 450.1 481.746C453.254 482.76 455.889 484.961 457.449 487.883C459.01 490.805 459.372 494.219 458.461 497.404C453.072 513.349 442.361 526.954 428.126 535.935C413.892 544.916 397.001 548.726 380.289 546.726C371.585 545.205 363.278 541.941 355.866 537.131C348.454 532.32 342.09 526.062 337.157 518.732C332.289 511.914 328.851 504.181 327.051 495.999C325.251 487.818 325.126 479.356 326.683 471.125C328.53 462.988 332.015 455.314 336.926 448.569C341.837 441.825 348.071 436.152 355.247 431.896C365.821 425.541 377.951 422.244 390.287 422.374V373.624C390.287 370.257 391.618 367.026 393.99 364.636C396.362 362.246 399.583 360.891 402.95 360.865C404.892 360.855 406.811 361.278 408.568 362.103Z" fill="#AF1EE0"/>
<path d="M391.043 335.443C390.987 333.369 391.548 331.324 392.656 329.569C393.763 327.814 395.367 326.428 397.264 325.586C399.161 324.744 401.266 324.485 403.31 324.841C405.355 325.197 407.247 326.153 408.748 327.586C410.248 329.02 411.289 330.867 411.738 332.893C412.187 334.919 412.024 337.033 411.27 338.966C410.516 340.9 409.204 342.565 407.501 343.752C405.799 344.939 403.782 345.593 401.707 345.631C398.945 345.682 396.275 344.641 394.278 342.732C392.28 340.824 391.118 338.204 391.043 335.443Z" fill="#AF1EE0"/>
<path d="M701.731 674.981C701.731 674.981 698.588 674.981 693.352 677.647C686.042 680.768 679.862 686.051 675.642 692.786C672.751 697.377 670.899 702.544 670.214 707.925C669.527 714.08 670.653 720.301 673.452 725.826C676.309 732.39 681.114 737.917 687.216 741.661C693.318 745.405 700.423 747.185 707.569 746.759C714.716 746.333 721.559 743.722 727.173 739.28C732.787 734.838 736.902 728.779 738.96 721.922C740.996 716.076 741.359 709.777 740.007 703.736C738.693 698.465 736.221 693.554 732.771 689.358C727.857 683.238 721.225 678.729 713.728 676.409C708.3 674.981 705.063 675.171 705.158 674.79C705.918 674.707 706.684 674.707 707.443 674.79C708.362 674.705 709.286 674.705 710.205 674.79C711.492 674.897 712.766 675.12 714.013 675.457C722.074 677.361 729.294 681.84 734.58 688.216C738.341 692.552 741.047 697.702 742.483 703.26C744.014 709.56 743.716 716.166 741.626 722.303C739.258 729.26 735.006 735.424 729.343 740.108C723.4 745.373 715.861 748.488 707.936 748.954C700.01 749.42 692.158 747.21 685.639 742.679C679.513 738.689 674.605 733.088 671.452 726.492C668.549 720.593 667.424 713.977 668.215 707.449C669.252 700.516 672.119 693.985 676.52 688.529C680.922 683.073 686.699 678.889 693.256 676.409C694.476 675.998 695.715 675.648 696.97 675.362C697.889 675.295 698.812 675.295 699.731 675.362C700.383 675.17 701.053 675.042 701.731 674.981Z" fill="#263238"/>
<path d="M794.378 767.149C794.378 767.149 792.379 767.149 789.141 768.958C784.641 770.958 780.856 774.279 778.287 778.48C776.301 781.462 775.132 784.914 774.898 788.49C774.664 792.065 775.373 795.64 776.954 798.856C778.706 802.909 781.663 806.326 785.423 808.641C789.183 810.957 793.564 812.059 797.973 811.799C802.381 811.539 806.603 809.93 810.065 807.188C813.527 804.447 816.061 800.707 817.325 796.476C818.51 793.094 818.791 789.461 818.139 785.937C817.488 782.413 815.927 779.12 813.612 776.385C810.571 772.507 806.419 769.65 801.71 768.197C798.282 767.244 796.282 767.244 796.282 766.959C798.164 766.54 800.114 766.54 801.995 766.959C807.116 768.156 811.72 770.958 815.135 774.957C817.503 777.732 819.255 780.977 820.277 784.478C821.314 788.634 821.116 793.002 819.705 797.047C818.302 801.772 815.478 805.951 811.616 809.014C807.754 812.078 803.042 813.878 798.122 814.169C793.201 814.46 788.31 813.229 784.113 810.643C779.917 808.056 776.619 804.24 774.669 799.713C772.826 795.865 772.131 791.567 772.669 787.335C773.196 783.675 774.565 780.188 776.668 777.147C779.565 772.75 783.807 769.41 788.76 767.625C790.542 766.903 792.5 766.737 794.378 767.149Z" fill="#263238"/>
<path d="M686.309 486.264V481.504C686.309 478.266 686.309 473.601 686.309 467.507C686.309 464.365 686.309 460.937 686.309 457.224C686.309 453.51 685.738 449.226 685.452 444.751C685.166 440.276 684.69 435.229 684.309 430.278C684.142 427.623 683.792 424.982 683.262 422.375L681.739 413.996C677.072 385.996 668.179 358.868 655.364 333.539C638.657 299.863 615.643 269.706 587.571 244.703L576.526 234.325C572.336 231.088 567.861 228.041 563.481 224.803L556.816 220.043C554.611 218.356 552.288 216.829 549.865 215.472L535.298 206.998L527.871 202.714L519.397 199.095L503.4 191.859C497.973 189.574 492.26 187.955 486.547 185.86L477.978 183.004C476.55 183.004 475.122 181.957 473.598 181.576L469.218 180.528C457.169 177.322 444.924 174.905 432.56 173.292C426.276 172.626 419.992 171.483 413.517 171.102H394.474C391.237 171.102 387.904 171.102 384.953 171.102L375.431 171.864C368.861 172.435 362.196 172.721 355.531 173.482C342.103 175.442 328.81 178.241 315.731 181.861L306.21 184.718L301.163 186.146L296.307 188.05L277.264 195.668C270.79 198.524 264.601 201.952 258.221 205.189C255.079 206.903 251.747 208.236 248.7 210.236L239.178 215.948C226.845 223.689 215.044 232.245 203.853 241.561L186.143 255.939L182.144 259.747L178.431 263.937L171.004 272.411L163.577 280.885L157.579 289.645L150.914 299.167L147.581 303.737L144.725 308.688C140.916 315.258 137.012 321.828 133.204 328.493C129.395 335.158 126.824 342.489 123.682 349.44C98.9003 407.67 93.8509 472.409 109.305 533.777C111.304 541.204 113.399 548.63 115.494 556.057L123.777 577.385L125.872 582.717L128.443 587.764L133.585 597.952L138.536 608.14L144.534 617.661L150.533 627.183L153.58 631.849L157.007 636.324L170.528 653.843C180.167 664.753 190.504 675.026 201.473 684.598L209.566 691.644C212.232 694.024 215.279 695.928 218.136 698.118C223.944 702.213 229.562 706.497 235.465 710.401L253.651 720.97L258.221 723.541C259.739 724.348 261.296 725.079 262.887 725.731L272.408 730.111C284.767 735.752 297.491 740.556 310.494 744.488C316.874 746.392 323.444 747.63 329.537 749.249L339.059 751.534C342.201 752.201 345.534 752.391 348.58 752.867L367.624 755.438C374.003 756.009 380.382 755.438 386.667 756.2C399.094 756.541 411.531 756.064 423.896 754.771H428.466L433.036 754.01L441.891 752.486C447.795 751.344 453.793 750.677 459.506 749.249L476.455 744.488L484.738 742.203L492.736 739.156L508.542 733.062C511.128 732.064 513.641 730.887 516.064 729.539L523.396 725.921C528.252 723.35 532.917 721.065 537.773 718.494L551.198 710.115C583.066 689.711 610.68 663.327 632.512 632.42C634.988 628.992 637.368 625.755 639.653 622.898L645.557 612.806L651.365 603.284C652.222 601.665 653.269 600.142 654.031 598.523L656.316 593.667L664.79 575.1C667.361 569.197 669.075 563.198 671.074 557.771C672.027 555.01 672.979 552.344 673.836 549.678C674.815 547.209 675.579 544.661 676.121 542.061C677.359 537.014 678.406 532.539 679.453 527.969C680.501 523.398 681.548 519.59 682.31 515.781C683.072 511.973 683.262 508.64 683.643 505.593C684.5 499.595 685.166 494.929 685.547 491.787C685.928 488.645 686.309 487.026 686.309 487.026C686.309 487.026 686.309 488.645 686.309 491.787C686.309 494.929 685.357 499.595 684.69 505.688C684.69 508.735 683.833 512.163 683.453 515.972C683.072 519.78 681.739 523.684 680.786 528.064C679.834 532.444 678.692 537.585 677.454 542.251C676.946 544.88 676.213 547.46 675.264 549.963L672.503 558.057C670.598 563.579 668.885 569.578 666.409 575.576L657.935 594.619C657.173 596.238 656.411 597.857 655.745 599.475C655.078 601.094 653.936 602.713 652.984 604.331C651.174 607.569 649.27 610.806 647.271 613.853L640.891 622.898L633.845 632.42C612.083 663.366 584.574 689.84 552.817 710.401L539.392 718.875C534.631 721.541 529.87 723.826 524.919 726.397L517.492 730.111C515.044 731.446 512.498 732.591 509.875 733.538L494.069 739.727C491.403 740.775 488.737 741.917 485.976 742.87L477.597 745.25L460.554 750.011C454.841 751.439 448.842 752.201 442.844 753.343L433.703 756.2L429.133 756.961H424.562C411.918 758.356 399.192 758.865 386.476 758.485C380.097 758.485 373.717 758.485 367.433 757.723L348.39 755.247C345.153 755.247 341.82 754.581 338.869 753.914L329.347 751.629C322.872 750.011 316.303 748.773 309.733 746.869C296.736 742.877 284.014 738.042 271.647 732.396L262.125 728.016L257.364 725.826L252.889 723.16L233.751 712.401C227.752 708.592 222.135 704.212 216.231 700.023C213.22 698.034 210.327 695.872 207.567 693.548L199.378 686.407C188.292 676.797 177.859 666.459 168.148 655.462L154.437 637.752L151.009 633.372L148.057 628.611L141.964 619.09L135.87 609.568L130.728 599.38L125.586 589.192L122.92 584.05L120.826 578.623C118.064 571.482 115.303 564.341 112.447 557.105L106.163 534.634C98.8115 503.82 96.1155 472.078 98.1645 440.466C101.027 408.888 108.601 377.918 120.635 348.583C123.936 341.537 127.11 334.491 130.157 327.445C133.204 320.4 137.108 313.734 141.868 307.45L144.725 302.499L148.152 297.834L154.818 288.312L161.483 278.79L169.005 270.221L176.431 261.747C177.669 260.319 178.907 258.891 180.24 257.558L184.334 253.654L200.616 238.419C211.983 229.318 223.943 220.984 236.417 213.473L245.939 207.665C248.985 205.76 252.318 204.332 255.46 202.618C261.935 199.476 268.219 196.048 274.503 193.097L294.213 185.48L299.164 183.575L304.21 182.052L314.303 179.291C327.5 175.625 340.922 172.826 354.484 170.912C361.149 170.055 367.909 169.769 374.574 169.293L384.096 168.531C387.428 168.531 390.666 168.531 393.617 168.531L412.66 169.103C419.135 169.579 425.514 170.626 431.703 171.388C444.17 172.988 456.514 175.437 468.647 178.719L473.122 179.767C474.645 179.767 476.074 180.719 477.502 181.195L486.167 184.147C491.784 186.241 497.592 187.86 503.115 190.24L519.206 197.572L527.109 201.19L534.536 205.57L549.294 214.139C551.724 215.484 554.048 217.012 556.245 218.71L562.91 223.566C567.385 226.803 571.86 229.85 576.05 233.087L588.047 243.561C616.241 268.793 639.321 299.211 656.03 333.158C668.727 358.671 677.491 385.957 682.024 414.091L683.453 422.565C684.029 425.165 684.379 427.809 684.5 430.468C684.5 435.705 685.166 439.99 685.452 445.036C685.738 450.083 686.214 453.606 686.214 457.414C686.214 461.223 686.214 464.651 686.214 467.793C686.214 473.886 686.214 478.552 686.214 481.789C686.214 485.027 686.309 486.264 686.309 486.264Z" fill="#263238"/>
</svg>
