<svg width="2921" height="2967" viewBox="0 0 2921 2967" fill="none" xmlns="http://www.w3.org/2000/svg">
<path d="M2597.61 2052.09H2783.04V1973.73H2597.61V2052.09Z" fill="#EBEBEB"/>
<path d="M2701.11 2150.9L2794.59 2148.94L2840.67 2148.17C2856.01 2147.82 2871.27 2148.17 2886.54 2147.75L2883.39 2150.9V2072.54L2886.89 2076.04L2794.17 2075.62C2763.29 2075.62 2732.34 2074.78 2701.46 2074.43L2703.35 2072.54C2703.35 2085.35 2702.79 2098.24 2702.44 2111.26L2701.11 2150.9ZM2701.11 2150.9L2699.85 2112.45C2699.5 2099.43 2699.01 2086.19 2698.94 2072.89V2070.44H2700.9C2731.78 2070.02 2762.73 2069.32 2793.61 2069.25L2886.33 2068.83H2889.83V2072.33L2889.41 2150.69V2153.84H2886.33C2870.71 2153.84 2855.03 2153.84 2839.41 2153.49L2792.77 2152.72L2701.11 2150.9Z" fill="#EBEBEB"/>
<path d="M1335.32 1381.24L1428.88 1379.28L1474.88 1378.51C1490.22 1378.16 1505.48 1378.51 1520.75 1378.16L1517.6 1381.24L1517.25 1302.88L1520.75 1306.38L1428.03 1305.96C1397.15 1305.96 1366.2 1305.19 1335.32 1304.77L1337.21 1302.88C1337.21 1315.7 1336.65 1328.58 1336.3 1341.68L1335.32 1381.24ZM1335.32 1381.24L1334.34 1342.17C1333.99 1329.14 1333.57 1315.91 1333.43 1302.6V1300.71H1335.39C1366.27 1300.36 1397.22 1299.59 1428.1 1299.52L1520.82 1299.1H1524.32V1302.6L1523.97 1380.96V1384.18H1520.89C1505.27 1384.18 1489.59 1384.18 1474.04 1383.76L1427.33 1382.99L1335.32 1381.24Z" fill="#EBEBEB"/>
<path d="M1438.75 1480.05H1624.18V1401.69H1438.75V1480.05Z" fill="#EBEBEB"/>
<path d="M1230.28 1480.05L1323.84 1478.09L1369.91 1477.32C1385.25 1476.97 1400.44 1477.32 1415.71 1476.97L1412.63 1480.05L1412.21 1401.69L1415.71 1405.19L1323 1404.77C1292.11 1404.77 1261.23 1404 1230.28 1403.58L1232.24 1401.69C1232.24 1414.5 1231.61 1427.39 1231.33 1440.48L1230.28 1480.05ZM1230.28 1480.05L1229.3 1441.25C1229.3 1428.23 1228.53 1414.99 1228.39 1401.69V1399.8H1230.28C1261.23 1399.8 1292.11 1398.68 1323 1398.61L1415.71 1398.19H1419.28V1401.69L1418.93 1480.05V1483.2H1415.78C1400.16 1483.2 1384.48 1483.2 1368.93 1482.78L1322.3 1482.01L1230.28 1480.05Z" fill="#EBEBEB"/>
<path d="M1620.82 487.571H1806.25V409.212H1620.82V487.571Z" fill="#EBEBEB"/>
<path d="M34.2423 2150.9L127.797 2148.94L173.874 2148.17C189.14 2147.82 204.405 2148.17 219.671 2147.75L216.59 2150.9L216.17 2072.54L219.671 2076.04L126.957 2075.62C96.0751 2075.62 65.1237 2074.78 34.2423 2074.43L36.133 2072.54C36.133 2085.35 35.5728 2098.24 35.2226 2111.26L34.2423 2150.9ZM34.2423 2150.9L33.2619 2112.45C32.9118 2099.43 32.4916 2086.19 32.3516 2072.89V2070.44H34.2423C65.1237 2070.02 96.0751 2069.32 126.957 2069.25L219.671 2068.83H223.172V2072.33V2150.69V2153.84H220.021C204.405 2153.84 188.719 2153.84 173.174 2153.49L126.536 2152.72L34.2423 2150.9Z" fill="#EBEBEB"/>
<path d="M137.673 167.133L231.227 165.172L277.304 164.402C292.64 164.052 307.836 164.402 323.101 163.982L320.02 167.133L319.6 88.7037L323.101 92.205L230.387 91.7849C199.506 91.7849 168.624 90.9446 137.673 90.5944L139.634 88.7037C139.634 101.518 139.003 114.403 138.653 127.498L137.673 167.133ZM137.673 167.133L136.903 128.338C136.903 115.314 136.132 102.079 135.992 88.7738V86.8831H137.883C168.834 86.533 199.716 85.7627 230.597 85.6926L323.311 85.2725H326.883V88.7037L325.972 167.133V170.284H322.821C307.206 170.284 291.52 170.284 275.974 169.864L229.337 169.093L137.673 167.133Z" fill="#EBEBEB"/>
<path d="M34.2433 265.939H219.672V187.581L34.2433 187.581V265.939Z" fill="#EBEBEB"/>
<path d="M2701.11 167.133L2794.59 165.172L2840.67 164.402C2856.01 164.052 2871.27 164.402 2886.54 163.982L2883.39 167.133V88.7738L2886.89 92.2751L2794.17 91.8549C2763.29 91.8549 2732.34 91.0146 2701.46 90.6645L2703.35 88.7738C2703.35 101.588 2702.79 114.473 2702.44 127.568L2701.11 167.133ZM2701.11 167.133L2699.85 128.338C2699.5 115.314 2699.01 102.079 2698.94 88.7738V86.8831H2700.9C2731.78 86.533 2762.73 85.7627 2793.61 85.6926L2886.33 85.2725H2889.83V88.7037L2889.62 167.133V170.284H2886.54C2870.92 170.284 2855.24 170.284 2839.62 169.864L2792.98 169.093L2701.11 167.133Z" fill="#EBEBEB"/>
<path d="M895.071 2404.95H391.234V2962.85H895.071V2404.95Z" fill="#EBEBEB"/>
<path d="M131.158 2962.92H391.305L391.305 2404.95H131.158L131.158 2962.92Z" fill="#DBDBDB"/>
<path d="M149.016 2924.75C168.343 2885.07 187.437 2845.39 206.297 2805.71L262.948 2685.05L318.968 2564.54C337.642 2524.3 355.942 2483.92 373.869 2443.39C354.542 2483.08 335.448 2522.87 316.588 2562.79L260.147 2682.81L204.126 2803.33C185.499 2843.62 167.129 2884.09 149.016 2924.75Z" fill="#EBEBEB"/>
<path d="M149.016 2443.39C167.129 2483.96 185.429 2524.34 203.916 2564.54L259.937 2685.05L316.378 2805.08C335.285 2844.99 354.378 2884.67 373.659 2924.12C355.545 2883.6 337.245 2843.22 318.758 2802.98L262.738 2682.46L206.297 2562.44C187.39 2522.76 168.296 2483.08 149.016 2443.39Z" fill="#EBEBEB"/>
<path d="M895.071 1562.33H391.234V2081.78H895.071V1562.33Z" fill="#EBEBEB"/>
<path d="M131.158 2081.85H391.305L391.305 1562.33H131.158L131.158 2081.85Z" fill="#DBDBDB"/>
<path d="M600.398 1682.91H611.112H619.095L623.647 1673.6L630.089 1682.91L638.773 1663.8L647.036 1682.91H670.634H681.348L685.27 1670.17L688.911 1682.91H695.914V1562.33H600.398V1682.91Z" fill="#DBDBDB"/>
<path d="M149.016 2048.73C168.343 2011.85 187.437 1974.73 206.297 1937.39L262.738 1825.35L318.758 1713.3C337.432 1675.96 355.732 1638.35 373.659 1600.49C354.332 1637.47 335.238 1674.53 316.378 1711.69L259.937 1823.39L203.916 1935.43C185.429 1973.19 167.129 2010.96 149.016 2048.73Z" fill="#EBEBEB"/>
<path d="M149.016 1600.77C167.129 1638.45 185.429 1675.96 203.916 1713.3L259.937 1825.35L316.378 1937.39C335.285 1974.73 354.378 2011.8 373.659 2048.59C355.545 2010.87 337.245 1973.26 318.758 1935.78L262.738 1823.73L206.297 1712.04C187.39 1674.84 168.296 1637.75 149.016 1600.77Z" fill="#EBEBEB"/>
<path d="M424.424 2049.57H480.375V1993.62H424.424V2049.57Z" fill="white"/>
<path d="M861.532 2081.85H357.695V2404.95H861.532V2081.85Z" fill="#DBDBDB"/>
<path d="M97.5491 2404.95H357.695L357.695 2081.85H97.5491L97.5491 2404.95Z" fill="#C7C7C7"/>
<path d="M566.859 2202.44H577.503H585.556L590.108 2193.12L596.55 2202.44L605.234 2183.32L613.497 2202.44H637.025H647.809L651.661 2189.69L655.372 2202.44H662.375V2081.85H566.859V2202.44Z" fill="white"/>
<path d="M115.469 2385.55C134.749 2362.21 153.843 2338.66 172.75 2314.9L229.191 2243.89L285.212 2172.53C303.605 2148.73 321.882 2124.82 340.042 2100.83C320.808 2124.17 301.714 2147.72 282.761 2171.48L226.32 2242.56L170.299 2313.85C151.859 2337.8 133.582 2361.7 115.469 2385.55Z" fill="#DBDBDB"/>
<path d="M115.469 2101.04C133.629 2125.03 151.929 2148.94 170.369 2172.74L226.39 2244.1L282.831 2315.11C301.504 2338.73 320.551 2362.21 339.972 2385.55C321.905 2361.56 303.628 2337.66 285.141 2313.85L229.121 2242.56L172.68 2171.48C153.82 2148.05 134.749 2124.57 115.469 2101.04Z" fill="#DBDBDB"/>
<path d="M2823.23 2474.84H2319.4V2962.92H2823.23V2474.84Z" fill="#DBDBDB"/>
<path d="M2059.32 2962.92H2319.47V2474.84H2059.32V2962.92Z" fill="#C7C7C7"/>
<path d="M2528.56 2595.42H2539.21H2547.26L2551.81 2586.11L2558.25 2595.42L2566.94 2576.3L2575.2 2595.42H2598.73H2609.51L2613.43 2582.61L2617.08 2595.42H2624.08V2474.84H2528.56V2595.42Z" fill="white"/>
<path d="M2077.18 2933.86C2096.46 2898.42 2115.55 2862.85 2134.46 2827.14L2190.9 2719.86L2246.92 2612.16C2265.6 2576.16 2283.87 2540.08 2301.75 2503.9C2282.52 2539.33 2263.43 2574.9 2244.47 2610.62L2188.03 2717.83L2132.36 2825.6C2113.87 2861.59 2095.48 2897.68 2077.18 2933.86Z" fill="#DBDBDB"/>
<path d="M2077.18 2503.9C2095.34 2540.08 2113.64 2576.16 2132.08 2612.16L2187.75 2719.86L2244.19 2827.14C2263.1 2862.85 2282.19 2898.42 2301.47 2933.86C2283.41 2897.63 2265.13 2861.54 2246.64 2825.6L2190.62 2717.83L2134.18 2610.62C2115.46 2574.9 2096.46 2539.33 2077.18 2503.9Z" fill="#DBDBDB"/>
<path d="M1947.21 60.6934V1251.83H2766.93V60.6934H1947.21ZM2736.68 1221.23H1977.46V90.5944H2736.68V1221.23Z" fill="#EBEBEB"/>
<path d="M2736.68 90.5947H1977.46V1221.23H2736.68V90.5947Z" fill="white"/>
<path d="M1977.46 706.052L2736.68 706.052V675.801L1977.46 675.801V706.052Z" fill="#EBEBEB"/>
<path d="M1891.47 1338.25L2822.6 1338.25V1251.41H1891.47V1338.25Z" fill="#DBDBDB"/>
<path d="M1916.19 1372.98L2797.95 1391.47V1338.25H1916.19V1372.98Z" fill="#EBEBEB"/>
<path d="M1977.46 90.5947H2736.68V867.392H1977.46V90.5947ZM2708.67 118.605H2005.47V839.382H2708.67V118.605Z" fill="#DBDBDB"/>
<path d="M2494.39 90.5947H2479.27V839.382H2494.39V90.5947Z" fill="#DBDBDB"/>
<path d="M2234.88 90.5947H2219.75V839.382H2234.88V90.5947Z" fill="#DBDBDB"/>
<path d="M153.844 60.6934V1251.83H973.567V60.6934H153.844ZM943.316 1221.23H184.095V90.5944H943.316V1221.23Z" fill="#EBEBEB"/>
<path d="M943.322 90.5947H184.102V1221.23H943.322V90.5947Z" fill="white"/>
<path d="M184.099 706.052L943.32 706.052V675.801L184.099 675.801V706.052Z" fill="#EBEBEB"/>
<path d="M98.1078 1338.25L1029.24 1338.25V1251.41H98.1078V1338.25Z" fill="#DBDBDB"/>
<path d="M122.828 1372.98L1004.59 1391.47V1338.25H122.828V1372.98Z" fill="#EBEBEB"/>
<path d="M184.102 90.5947H943.322V867.392H184.102V90.5947ZM915.312 118.605H212.112V839.382H915.312V118.605Z" fill="#DBDBDB"/>
<path d="M701.032 90.5947H685.906V839.382H701.032V90.5947Z" fill="#DBDBDB"/>
<path d="M441.516 90.5947H426.391V839.382H441.516V90.5947Z" fill="#DBDBDB"/>
<path d="M2081.59 2385.9H1383.57V2962.64H2081.59V2385.9Z" fill="#AF1EE0"/>
<path opacity="0.1" d="M2081.59 2385.9H1383.57V2962.64H2081.59V2385.9Z" fill="black"/>
<path d="M2358.19 2385.97H2081.59V2962.71H2358.19V2385.97Z" fill="#AF1EE0"/>
<path opacity="0.2" d="M2358.19 2385.97H2081.59V2962.71H2358.19V2385.97Z" fill="black"/>
<path d="M2339.07 2922.93C2318.62 2881.94 2298.34 2840.81 2278.22 2799.55L2218.21 2675.46L2158.96 2550.88C2139.36 2509.29 2119.91 2467.55 2100.63 2425.68C2121.17 2466.71 2141.48 2507.84 2161.56 2549.06L2221.5 2673.15L2280.74 2797.73C2300.44 2839.32 2319.88 2881.06 2339.07 2922.93Z" fill="#AF1EE0"/>
<path d="M2339.07 2425.68C2319.84 2467.69 2300.39 2509.43 2280.74 2550.88L2221.5 2675.46L2161.56 2799.55C2141.43 2840.77 2121.13 2881.9 2100.63 2922.93C2119.91 2880.92 2139.36 2839.18 2158.96 2797.73L2218.21 2673.15L2278.22 2549.13C2298.34 2507.82 2318.62 2466.67 2339.07 2425.68Z" fill="#AF1EE0"/>
<path d="M1781.95 2510.55H1770.95H1762.62L1757.93 2500.96L1751.28 2510.55L1742.24 2490.8L1733.77 2510.55H1709.4H1698.27L1694.21 2497.38L1690.42 2510.55H1683.21V2385.97H1781.95V2510.55Z" fill="white"/>
<path d="M2123.67 1809.24H1602.89V2385.9H2123.67V1809.24Z" fill="#AF1EE0"/>
<path d="M2392.57 1809.24H2123.67V2385.97H2392.57V1809.24Z" fill="#AF1EE0"/>
<path opacity="0.1" d="M2392.57 1809.24H2123.67V2385.97H2392.57V1809.24Z" fill="black"/>
<g opacity="0.1">
<path d="M2085.51 2346.2C2047.28 2305.16 2009.37 2264.04 1971.79 2222.81L1859.54 2098.45L1748.97 1973.87C1712.27 1932.28 1675.95 1890.54 1640.01 1848.67C1678.29 1889.7 1716.2 1930.85 1753.73 1972.12L1865.77 2096.14L1976.34 2220.71C2013.18 2262.49 2049.57 2304.32 2085.51 2346.2Z" fill="black"/>
<path d="M2085.51 1848.95C2049.52 1890.96 2013.2 1932.7 1976.55 1974.15L1865.98 2098.45L1753.94 2222.53C1716.59 2263.76 1678.69 2304.88 1640.22 2345.92C1676.21 2303.9 1712.53 2262.17 1749.18 2220.71L1859.54 2096.42L1971.58 1972.4C2009.26 1931.09 2047.23 1889.93 2085.51 1848.95Z" fill="black"/>
</g>
<path d="M2354.76 2288.36H2307.63V2354.88H2354.76V2288.36Z" fill="white"/>
<path d="M0 2962.92L365.115 2961.17L730.23 2960.61L1460.39 2959.42L2190.55 2960.61L2555.67 2961.17L2920.78 2962.92L2555.67 2964.6L2190.55 2965.23L1460.39 2966.42L730.23 2965.23L365.115 2964.6L0 2962.92Z" fill="#263238"/>
<path d="M1738.54 976.632C1734.62 974.111 1730.69 971.66 1726.77 969.279L1729.5 964.728L1741.41 972.22L1738.54 976.632Z" fill="#263238"/>
<path d="M1567.53 1678.29H1562.49V1673.04C1571.84 1673.25 1581.2 1672.9 1590.5 1671.99L1591.06 1677.24C1583.43 1677.8 1575.45 1678.29 1567.53 1678.29ZM1619.49 1672.55L1618.37 1667.44C1627.48 1665.37 1636.42 1662.64 1645.12 1659.24L1647.01 1664.15C1638.06 1667.58 1628.86 1670.34 1619.49 1672.41V1672.55ZM1672.92 1651.54L1670.33 1646.99C1678.38 1642.29 1686.04 1636.95 1693.23 1631.02L1696.59 1635.02C1689.18 1641.2 1681.26 1646.75 1672.92 1651.61V1651.54ZM1717.25 1615.13L1713.4 1611.56C1719.68 1604.65 1725.46 1597.3 1730.69 1589.57L1735.04 1592.51C1729.67 1600.52 1723.72 1608.12 1717.25 1615.27V1615.13ZM1749.32 1567.58L1744.56 1565.34C1748.55 1556.91 1751.81 1548.14 1754.29 1539.15L1759.34 1540.55C1756.79 1549.86 1753.44 1558.93 1749.32 1567.65V1567.58ZM1764.45 1512.12L1759.2 1511.7C1759.2 1507.92 1759.69 1504.07 1759.69 1500.36C1759.67 1495.16 1759.36 1489.97 1758.77 1484.81C1753.33 1484.44 1747.9 1483.77 1742.53 1482.78L1743.44 1477.6C1751.99 1479.14 1760.66 1479.94 1769.35 1479.98H1771.17V1485.23H1769.28H1764.03C1764.59 1490.3 1764.87 1495.4 1764.87 1500.5C1764.94 1504.28 1764.73 1508.27 1764.45 1512.19V1512.12ZM1799.95 1481.73L1798.76 1476.62C1807.77 1474.48 1816.49 1471.29 1824.74 1467.09L1827.12 1471.78C1818.49 1476.19 1809.37 1479.55 1799.95 1481.8V1481.73ZM1714.66 1475.22C1705.6 1471.95 1696.82 1467.97 1688.4 1463.31L1690.99 1458.76C1699.14 1463.26 1707.64 1467.1 1716.41 1470.24L1714.66 1475.22ZM1752.33 1456.73C1749.26 1447.97 1745.22 1439.59 1740.29 1431.73L1744.7 1428.93C1749.89 1437.1 1754.12 1445.84 1757.3 1454.98L1752.33 1456.73ZM1851.21 1455.61L1847.85 1451.62C1854.95 1445.62 1861.45 1438.93 1867.25 1431.66L1871.31 1434.95C1865.32 1442.56 1858.59 1449.56 1851.21 1455.82V1455.61ZM1664.66 1447.21L1663.19 1445.81C1656.26 1439.72 1650.74 1432.19 1647.01 1423.75L1651.92 1421.79C1655.33 1429.51 1660.4 1436.4 1666.76 1441.95L1668.16 1443.21L1664.66 1447.21ZM1887.55 1411.42L1883.07 1408.69C1887.97 1400.57 1892.52 1392.24 1896.52 1384.04L1901.28 1386.35C1897.22 1394.69 1892.59 1403.16 1887.55 1411.42ZM1722.85 1410.37C1716.45 1404.18 1709.41 1398.68 1701.84 1393.99L1700.79 1393.29L1703.52 1388.8L1704.64 1389.5C1712.45 1394.43 1719.71 1400.18 1726.28 1406.66L1722.85 1410.37ZM1653.32 1396.86L1648.97 1393.92C1651.97 1389.7 1655.95 1386.28 1660.56 1383.94C1665.17 1381.6 1670.27 1380.41 1675.44 1380.47V1385.72C1671.14 1385.7 1666.89 1386.69 1663.04 1388.63C1659.19 1390.56 1655.86 1393.38 1653.32 1396.86ZM1912.41 1359.95L1907.51 1358.13C1910.75 1349.34 1913.53 1340.39 1915.84 1331.31L1920.88 1332.57C1918.63 1341.86 1915.82 1351 1912.48 1359.95H1912.41ZM1926.42 1304.42L1921.16 1303.72C1922.42 1294.43 1923.14 1285.08 1923.34 1275.71H1928.59C1928.4 1285.32 1927.67 1294.9 1926.42 1304.42ZM1922.36 1247.7C1921.51 1238.3 1920.18 1228.95 1918.36 1219.69L1923.55 1218.64C1925.37 1228.02 1926.73 1237.49 1927.61 1247L1922.36 1247.7ZM1911.5 1192.66C1908.84 1183.84 1905.69 1174.95 1902.05 1166.12L1906.95 1164.16C1910.59 1173.05 1913.95 1182.16 1916.54 1191.12L1911.5 1192.66ZM1890.49 1140.49C1886.29 1132.3 1881.6 1124.04 1876.49 1115.91L1880.97 1113.18C1886.01 1121.38 1890.77 1129.78 1894.98 1138.11L1890.49 1140.49ZM1861.01 1092.45C1855.62 1084.89 1849.81 1077.4 1843.79 1070.12L1847.85 1066.76C1853.94 1074.11 1859.82 1081.74 1865.28 1089.37L1861.01 1092.45ZM1825.16 1048.9C1818.79 1041.9 1812.06 1035.38 1805.2 1028.94L1808.77 1025.09C1815.78 1031.67 1822.78 1038.46 1828.94 1045.33L1825.16 1048.9ZM1784.05 1010.17C1777.05 1004.22 1769.42 998.34 1761.93 992.738L1765.01 988.536C1772.64 994.138 1780.2 1000.09 1787.42 1006.18L1784.05 1010.17Z" fill="#263238"/>
<path d="M1533.15 1675.77C1528.44 1675.19 1523.76 1674.34 1519.14 1673.25L1520.4 1668.14C1520.4 1668.14 1525.44 1669.4 1533.85 1670.59L1533.15 1675.77Z" fill="#263238"/>
<path d="M1462.49 1665.34C1459.2 1693.35 1516.41 1709.03 1520.75 1672.34C1525.09 1635.65 1465.78 1637.12 1462.49 1665.34Z" fill="#263238"/>
<path d="M1537.42 1711.69C1532.1 1722.27 1513.26 1723.74 1493.79 1710.15C1480.57 1700.06 1469.4 1687.53 1460.88 1673.25C1477.35 1671.53 1493.98 1672.98 1509.9 1677.52C1532.94 1685.29 1543.02 1700.98 1537.42 1711.69Z" fill="#EBEBEB"/>
<path d="M1461.09 1673.25C1472.16 1678.22 1483.01 1683.61 1493.87 1688.94C1504.72 1694.26 1515.43 1699.93 1526.01 1705.81C1514.94 1700.84 1504.09 1695.45 1493.24 1690.13C1482.38 1684.8 1471.67 1679.13 1461.09 1673.25Z" fill="#263238"/>
<path d="M1511.93 1711.48C1509.42 1708.57 1507.08 1705.5 1504.93 1702.31C1502.81 1699.14 1500.9 1695.84 1499.19 1692.44C1501.7 1695.35 1504.04 1698.42 1506.19 1701.61C1508.32 1704.77 1510.24 1708.07 1511.93 1711.48Z" fill="#263238"/>
<path d="M1488.4 1686.91C1492.25 1685.9 1496.15 1685.11 1500.09 1684.52C1504.06 1683.96 1508.06 1683.61 1512.07 1683.47C1504.31 1685.4 1496.38 1686.55 1488.4 1686.91Z" fill="#263238"/>
<path d="M1482.31 1691.53C1479.9 1688.53 1478.18 1685.04 1477.27 1681.3C1479.67 1684.3 1481.4 1687.79 1482.31 1691.53Z" fill="#263238"/>
<path d="M1546.67 1638.38C1543.94 1626.82 1526.01 1621.08 1503.95 1629.76C1488.73 1636.54 1474.94 1646.17 1463.34 1658.12C1479.08 1663.57 1495.72 1665.95 1512.35 1665.13C1535.95 1663.17 1549.47 1650.28 1546.67 1638.38Z" fill="#EBEBEB"/>
<path d="M1463.34 1658.12C1475.24 1655.88 1487.07 1653.08 1498.84 1650.35C1510.6 1647.62 1522.37 1644.68 1533.85 1641.39C1522.02 1643.63 1510.18 1646.43 1498.42 1649.16C1486.65 1651.89 1475.03 1654.83 1463.34 1658.12Z" fill="#263238"/>
<path d="M1521.67 1632.63C1518.62 1634.8 1515.7 1637.14 1512.91 1639.64C1510.13 1642.25 1507.49 1645.01 1505 1647.9C1508.08 1645.77 1511 1643.43 1513.75 1640.9C1516.55 1638.3 1519.19 1635.54 1521.67 1632.63Z" fill="#263238"/>
<path d="M1492.95 1651.12C1500.05 1654.81 1507.51 1657.75 1515.22 1659.87C1508.14 1656.15 1500.67 1653.22 1492.95 1651.12Z" fill="#263238"/>
<path d="M1488.4 1645.24C1486.87 1646.38 1485.49 1647.7 1484.27 1649.16C1483.06 1650.66 1482 1652.28 1481.12 1653.99C1482.64 1652.83 1484.03 1651.49 1485.25 1650C1486.52 1648.57 1487.58 1646.97 1488.4 1645.24Z" fill="#263238"/>
<path d="M1462.49 1665.34C1464.5 1665.57 1466.39 1666.39 1467.93 1667.7C1469.47 1669.01 1470.59 1670.74 1471.14 1672.68C1471.69 1674.63 1471.66 1676.69 1471.05 1678.61C1470.43 1680.53 1469.26 1682.23 1467.68 1683.49C1466.1 1684.75 1464.18 1685.51 1462.17 1685.68C1460.16 1685.85 1458.14 1685.42 1456.37 1684.44C1454.6 1683.47 1453.16 1681.99 1452.23 1680.2C1451.3 1678.41 1450.93 1676.38 1451.15 1674.37C1451.46 1671.67 1452.83 1669.21 1454.96 1667.52C1457.08 1665.82 1459.79 1665.04 1462.49 1665.34Z" fill="#455A64"/>
<path d="M1464.87 1644.96C1466.21 1645.12 1467.5 1645.53 1468.68 1646.19C1469.86 1646.85 1470.89 1647.73 1471.73 1648.79C1472.56 1649.84 1473.18 1651.05 1473.55 1652.35C1473.92 1653.64 1474.03 1655 1473.87 1656.34C1473.71 1657.68 1473.29 1658.97 1472.64 1660.15C1471.98 1661.32 1471.1 1662.36 1470.04 1663.19C1468.99 1664.03 1467.78 1664.65 1466.48 1665.02C1465.18 1665.38 1463.83 1665.49 1462.49 1665.34C1459.79 1665.02 1457.32 1663.64 1455.63 1661.51C1453.95 1659.38 1453.18 1656.66 1453.49 1653.96C1453.81 1651.26 1455.18 1648.79 1457.32 1647.1C1459.45 1645.41 1462.17 1644.64 1464.87 1644.96Z" fill="#455A64"/>
<path d="M830.158 2324.7C830.158 2324.7 680.863 2623.64 680.793 2623.64C668.468 2685.33 658.804 2739.74 656.353 2768.31C656.317 2768.48 656.317 2768.64 656.353 2768.8C655.061 2775.43 655.325 2782.26 657.124 2788.76C657.088 2788.92 657.088 2789.09 657.124 2789.25C673.02 2805.36 1163.62 2918.31 1182.32 2916.49C1201.01 2914.67 1197.02 2861.94 1181.48 2842.4C1165.93 2822.86 997.38 2695.35 997.38 2695.35L1143.31 2395.92L830.158 2324.7Z" fill="#D3766A"/>
<path d="M1174.9 2916.77C1156.48 2918.59 673.233 2805.57 657.407 2789.53C657.384 2789.37 657.384 2789.21 657.407 2789.04C655.574 2782.55 655.287 2775.71 656.567 2769.09C656.508 2768.93 656.508 2768.75 656.567 2768.6C658.948 2740.02 668.681 2685.61 680.936 2623.85L716.649 2552.29L1026.23 2637.16L997.663 2695.84C997.663 2695.84 1158.72 2823.08 1174.34 2842.89C1189.95 2862.71 1193.39 2915.02 1174.9 2916.77Z" fill="#EBEBEB"/>
<path d="M1181.62 2908.93C1162.92 2910.33 671.132 2784.98 655.446 2768.32C649.424 2762.08 663.499 2689.33 683.036 2601.93L683.667 2599.2L1001.86 2676.58L1000.39 2681.9C1000.39 2681.9 1167.13 2814.11 1182.46 2834.28C1197.8 2854.45 1200.25 2907.6 1181.62 2908.93Z" fill="#263238"/>
<path d="M1180.85 2888.41C1098.5 2865.3 764.059 2779.59 680.868 2762.92C680.168 2762.92 680.028 2763.27 680.868 2763.48C762.028 2788.2 1097.17 2871.18 1180.71 2889.53C1182.32 2890.16 1182.6 2888.9 1180.85 2888.41Z" fill="white"/>
<path d="M1026.79 2689.68C995.7 2675.25 954.525 2670.07 923.713 2687.02C922.523 2687.65 923.713 2689.33 924.554 2689.26C958.299 2687.14 992.175 2688.64 1025.6 2693.74C1026.09 2693.77 1026.58 2693.63 1026.98 2693.35C1027.38 2693.06 1027.68 2692.65 1027.81 2692.18C1027.95 2691.71 1027.93 2691.2 1027.74 2690.75C1027.56 2690.29 1027.22 2689.92 1026.79 2689.68Z" fill="white"/>
<path d="M1046.68 2709.84C1015.66 2695.49 974.483 2690.31 943.602 2707.18C942.412 2707.81 943.602 2709.49 944.512 2709.49C978.258 2707.34 1012.14 2708.84 1045.56 2713.97C1046.07 2714.02 1046.58 2713.89 1047 2713.6C1047.43 2713.31 1047.73 2712.88 1047.87 2712.38C1048 2711.89 1047.95 2711.36 1047.74 2710.9C1047.52 2710.43 1047.15 2710.06 1046.68 2709.84Z" fill="white"/>
<path d="M1066.64 2730.08C1035.55 2715.66 994.374 2710.47 963.563 2727.35C962.372 2728.05 963.563 2729.73 964.473 2729.66C998.196 2727.55 1032.05 2729.05 1065.45 2734.14C1065.94 2734.17 1066.43 2734.03 1066.83 2733.75C1067.23 2733.47 1067.53 2733.06 1067.66 2732.59C1067.8 2732.11 1067.78 2731.61 1067.59 2731.15C1067.41 2730.7 1067.07 2730.32 1066.64 2730.08Z" fill="white"/>
<path d="M1193.6 2893.24C1201.51 2898.84 1192.05 2927.9 1185.12 2928.67C1178.19 2929.44 642.561 2790.37 634.088 2785.96C625.615 2781.55 637.239 2749.76 648.093 2750.95C658.947 2752.14 1193.6 2893.24 1193.6 2893.24Z" fill="#AF1EE0"/>
<path d="M750.819 2674.97C719.727 2648.08 677.852 2696.4 708.803 2723.36C739.755 2750.32 781.98 2701.93 750.819 2674.97Z" fill="white"/>
<path d="M717.562 2528.41L1076.38 2618.88C1076.38 2618.88 1410.82 2015.33 1403.33 1861.9C1393.03 1650.28 1144.58 999.601 1144.58 999.601H847.11C847.11 999.601 1044.51 1703.01 1047.24 1821.35C1048.43 1883.26 717.562 2528.41 717.562 2528.41Z" fill="#455A64"/>
<path d="M1091.71 2546.05C1072.59 2538.42 901.796 2489.12 774.349 2462.02C774.209 2462.07 774.087 2462.16 774 2462.28C773.914 2462.4 773.867 2462.54 773.867 2462.69C773.867 2462.83 773.914 2462.98 774 2463.1C774.087 2463.22 774.209 2463.31 774.349 2463.35C814.474 2477.36 1067.69 2544.09 1091.43 2547.38C1091.99 2547.59 1092.55 2546.61 1091.71 2546.05Z" fill="#263238"/>
<path d="M1071.89 1670.24C1048.22 1570.94 1022.87 1471.93 996.263 1373.54C969.653 1275.15 941.153 1175.86 909.851 1078.24C906.07 1066.27 902.078 1054.43 898.227 1042.53C898.116 1042.15 897.857 1041.83 897.509 1041.63C897.161 1041.44 896.752 1041.4 896.371 1041.51C895.991 1041.62 895.67 1041.88 895.479 1042.23C895.289 1042.58 895.245 1042.99 895.356 1043.37C923.366 1140.63 951.377 1237.69 977.917 1335.31C1004.46 1432.92 1029.74 1530.82 1053.54 1629.41C1059.5 1653.78 1065.31 1678.08 1070.98 1702.52C1077.57 1727.57 1082.67 1752.99 1086.25 1778.64C1089.19 1803.15 1087.5 1828 1081.27 1851.89C1074.52 1875.36 1065.68 1898.19 1054.87 1920.09C1011.97 2013.23 969.093 2106.38 926.237 2199.56C883.382 2292.98 876.449 2314.27 835.204 2408.45C830.092 2420.15 824.98 2431.84 820.078 2443.46C820.078 2444.24 820.848 2444.94 821.269 2444.09C868.186 2351.8 875.399 2329.6 919.305 2235.63C963.211 2141.65 1006.84 2046.56 1050.39 1951.95C1070 1909.24 1093.04 1865.68 1095.98 1817.92C1098.92 1768.07 1083.24 1718.07 1071.89 1670.24Z" fill="#263238"/>
<path d="M1088.13 2442.9L1099.62 2772.03C1101.51 2835.05 1104.24 2890.16 1108.37 2918.52C1108.34 2918.68 1108.34 2918.85 1108.37 2919.01C1108.61 2925.74 1110.38 2932.33 1113.55 2938.27L1113.97 2938.69C1133.09 2950.8 1636.51 2950.52 1654.08 2944.57C1671.66 2938.62 1656.11 2888.2 1636.58 2872.58C1617.04 2856.97 1424.19 2770.91 1424.19 2770.91L1409.55 2442.13L1088.13 2442.9Z" fill="#D3766A"/>
<path d="M1097.24 2704.66C1097.24 2704.66 1099.62 2772.03 1099.62 2772.24C1101.51 2835.26 1104.24 2890.37 1108.38 2918.73C1108.34 2918.89 1108.34 2919.06 1108.38 2919.22C1109.33 2925.82 1111.07 2932.29 1113.56 2938.48L1113.98 2938.9C1133.1 2951.01 1636.51 2950.73 1654.09 2944.78C1671.66 2938.83 1656.12 2888.41 1636.58 2872.79C1617.04 2857.18 1424.19 2771.12 1424.19 2771.12L1422.72 2702.56L1097.24 2704.66Z" fill="#EBEBEB"/>
<path d="M1654.36 2944.22C1636.58 2949.89 1129.17 2942.05 1109.98 2929.44C1102.98 2924.75 1099.48 2850.8 1098.22 2761.38V2758.58L1425.66 2759.98V2765.58C1425.66 2765.58 1618.58 2855.43 1638.12 2871.46C1657.66 2887.5 1672.22 2938.76 1654.36 2944.22Z" fill="#263238"/>
<path d="M1648.97 2924.75C1563.47 2921.32 1218.24 2915.58 1133.44 2918.73C1132.74 2918.73 1132.74 2919.22 1133.44 2919.22C1218.1 2924.47 1563.4 2927.48 1648.97 2926.22C1650.72 2925.8 1650.79 2924.75 1648.97 2924.75Z" fill="white"/>
<path d="M1452.97 2766.84C1419.43 2759.84 1378.12 2764.53 1352.07 2787.85C1351.02 2788.76 1352.07 2790.16 1353.47 2789.88C1385.8 2780.01 1419.08 2773.61 1452.76 2770.76C1453.17 2770.63 1453.53 2770.38 1453.79 2770.05C1454.05 2769.71 1454.2 2769.3 1454.22 2768.88C1454.24 2768.45 1454.14 2768.03 1453.91 2767.67C1453.69 2767.3 1453.36 2767.02 1452.97 2766.84Z" fill="white"/>
<path d="M1477.06 2781.83C1443.45 2774.83 1402.2 2779.59 1376.15 2803.19C1375.1 2804.1 1376.15 2805.5 1377.49 2805.15C1409.83 2795.27 1443.14 2788.89 1476.85 2786.1C1477.36 2786.04 1477.83 2785.8 1478.18 2785.42C1478.52 2785.05 1478.73 2784.56 1478.75 2784.05C1478.78 2783.54 1478.62 2783.04 1478.31 2782.63C1478 2782.23 1477.56 2781.94 1477.06 2781.83Z" fill="white"/>
<path d="M1501.08 2796.89C1467.53 2789.88 1426.29 2794.58 1400.17 2817.89C1399.19 2818.8 1400.17 2820.2 1401.57 2819.92C1433.9 2810.06 1467.19 2803.66 1500.87 2800.81C1501.27 2800.68 1501.63 2800.43 1501.89 2800.09C1502.15 2799.75 1502.3 2799.34 1502.32 2798.92C1502.35 2798.49 1502.24 2798.07 1502.02 2797.71C1501.79 2797.35 1501.47 2797.06 1501.08 2796.89Z" fill="white"/>
<path d="M1662.42 2926.15C1671.45 2929.79 1669 2960.26 1662.42 2962.57C1655.84 2964.88 1102.21 2953.88 1093.18 2951.64C1084.15 2949.4 1087.79 2915.72 1098.78 2914.11C1109.78 2912.5 1662.42 2926.15 1662.42 2926.15Z" fill="#AF1EE0"/>
<path d="M1181.13 2816.56C1144.64 2797.59 1115.09 2854.31 1151.65 2873.28C1188.2 2892.26 1217.68 2835.54 1181.13 2816.56Z" fill="white"/>
<path d="M1140.87 999.04C1139.54 1005.13 1065.38 1298.33 1056.14 1303.79C1045.63 1310.02 1325.6 1686.69 1358.79 1871.63C1379.8 1989.91 1428.81 2679.31 1428.81 2679.31H1071.82C1071.82 2679.31 1036.81 2093.82 1025.18 1900.9C1020.63 1826.05 739.829 1479.98 713.149 1249.24C704.746 1176.56 756.986 998.76 756.986 998.76L1140.87 999.04Z" fill="#455A64"/>
<path d="M1062.79 2400.75C1058.59 2303.76 1054.74 2206.57 1047.66 2109.72C1043.67 2054.82 1035.83 2001.67 1030.37 1946.98C1030.37 1944.11 1027.78 1943.41 1027.85 1946.35C1030.37 2043.76 1038.42 2140.11 1043.6 2237.45C1048.78 2334.78 1053.75 2357.47 1059.29 2454.53C1062.37 2509.43 1065.1 2564.33 1069.37 2619.16C1069.42 2619.3 1069.51 2619.42 1069.63 2619.51C1069.74 2619.59 1069.89 2619.64 1070.04 2619.64C1070.18 2619.64 1070.33 2619.59 1070.45 2619.51C1070.57 2619.42 1070.66 2619.3 1070.7 2619.16C1070.91 2521.68 1067.06 2498.08 1062.79 2400.75Z" fill="#263238"/>
<path d="M1359.13 1876.25C1356.08 1850.64 1351.12 1825.29 1344.29 1800.42C1336.93 1776.31 1327.25 1752.97 1315.37 1730.74C1291.07 1684.1 1263.41 1639.01 1236.73 1593.7C1210.05 1548.39 1182.25 1502.11 1154.1 1456.87C1138.27 1431.47 1122.38 1406.1 1106.41 1380.75C1090.16 1355.19 1073.01 1330.12 1056.27 1304.91C1056.14 1304.7 1055.93 1304.55 1055.69 1304.49C1055.45 1304.43 1055.19 1304.47 1054.98 1304.6C1054.76 1304.73 1054.61 1304.94 1054.55 1305.18C1054.49 1305.42 1054.53 1305.68 1054.66 1305.89C1081.97 1351.69 1109 1397.56 1136.31 1443.35C1163.62 1489.15 1190.51 1535.09 1217.4 1581.03C1244.29 1626.96 1270.41 1671.5 1295.76 1717.44C1308.24 1739.25 1318.99 1762.01 1327.9 1785.5C1336.19 1809.85 1342.22 1834.91 1345.9 1860.36C1355.42 1919.67 1363.2 1979.4 1375.1 2038.15C1375.15 2038.29 1375.23 2038.42 1375.35 2038.5C1375.47 2038.59 1375.62 2038.64 1375.76 2038.64C1375.91 2038.64 1376.06 2038.59 1376.18 2038.5C1376.29 2038.42 1376.38 2038.29 1376.43 2038.15C1372.72 1984.09 1366.28 1929.96 1359.13 1876.25Z" fill="#263238"/>
<path d="M1397.37 2618.11C1376.99 2615.45 1221.46 2610.06 1091.35 2615.66C1090.51 2615.66 1090.58 2616.92 1091.35 2616.99C1133.72 2620.7 1373.28 2622.38 1397.16 2619.58C1397.79 2619.51 1398.07 2618.25 1397.37 2618.11Z" fill="#263238"/>
<path d="M1102.7 1283.77C1066.33 1297.02 1031.18 1313.42 997.662 1332.78C997.374 1332.91 997.149 1333.15 997.038 1333.45C996.926 1333.74 996.937 1334.07 997.067 1334.36C997.197 1334.65 997.436 1334.87 997.731 1334.98C998.026 1335.1 998.354 1335.08 998.642 1334.95C1034.08 1319.69 1070.28 1305.12 1104.87 1287.97C1105.43 1287.68 1105.85 1287.18 1106.04 1286.58C1106.23 1285.99 1106.17 1285.34 1105.89 1284.78C1105.6 1284.22 1105.1 1283.8 1104.5 1283.61C1103.91 1283.42 1103.26 1283.48 1102.7 1283.77Z" fill="#263238"/>
<path d="M1113.42 1041.06C1113.42 1039.86 1111.18 1039.58 1111.18 1041.06C1111.18 1080.62 1109.2 1120.17 1105.23 1159.54C1103.54 1177.82 1088.84 1278.58 1057.19 1271.58C1051.87 1270.32 1049.2 1265.14 1048.36 1257.09C1048.45 1246.63 1049.86 1236.23 1052.57 1226.13C1056.07 1205.13 1058.87 1184.12 1060.69 1162.48C1064.4 1122.72 1063.98 1082.69 1059.43 1043.02C1059.37 1042.79 1059.24 1042.59 1059.05 1042.45C1058.87 1042.31 1058.64 1042.23 1058.41 1042.23C1058.18 1042.23 1057.96 1042.31 1057.77 1042.45C1057.59 1042.59 1057.46 1042.79 1057.4 1043.02C1058.31 1098.13 1055.08 1153.23 1047.73 1207.86C1043.74 1234.12 1030.51 1273.68 1058.03 1277.88C1085.55 1282.08 1104.11 1215.77 1107.47 1197.63C1116.23 1145.92 1118.23 1093.29 1113.42 1041.06Z" fill="#263238"/>
<path d="M1058.03 1273.75C1055.22 1280.59 1052.88 1287.61 1051.02 1294.76C1049.01 1300.25 1048.01 1306.07 1048.08 1311.92C1048.12 1312.15 1048.22 1312.38 1048.39 1312.55C1048.55 1312.73 1048.76 1312.86 1049 1312.91C1049.23 1312.96 1049.48 1312.94 1049.7 1312.85C1049.93 1312.76 1050.12 1312.61 1050.25 1312.41C1053.56 1307.24 1056.04 1301.6 1057.61 1295.67C1060.06 1289.16 1062.58 1282.78 1064.61 1276.2C1064.93 1275.33 1064.9 1274.36 1064.51 1273.52C1064.12 1272.67 1063.41 1272.01 1062.54 1271.69C1061.67 1271.36 1060.7 1271.4 1059.86 1271.78C1059.01 1272.17 1058.35 1272.88 1058.03 1273.75Z" fill="#263238"/>
<path d="M1072.94 1995.02C1069.58 1945.16 1069.79 1892.57 1048.57 1846.35C1037.3 1823.83 1024.33 1802.2 1009.78 1781.65C995.307 1759.52 981.022 1737.28 966.923 1714.92C910.902 1625.49 856.842 1534.25 807.614 1440.76C783.875 1395.74 762.027 1349.24 750.123 1299.52C738.514 1247.2 736.309 1193.23 743.611 1140.14C745.291 1126.91 747.112 1113.74 749.283 1100.58C749.29 1100.4 749.235 1100.22 749.127 1100.08C749.019 1099.94 748.865 1099.84 748.691 1099.8C748.518 1099.76 748.335 1099.78 748.175 1099.86C748.014 1099.93 747.886 1100.07 747.812 1100.23C736.291 1150.72 732.349 1202.64 736.118 1254.29C741.507 1303.67 755.414 1351.74 777.223 1396.37C798.931 1443.36 824.771 1488.59 850.26 1533.62C876.543 1580.3 903.596 1626.31 931.42 1671.64C959.43 1716.88 988.281 1761.2 1017.2 1805.74C1031.95 1826.74 1043.45 1849.86 1051.3 1874.29C1057.67 1899.79 1061.33 1925.9 1062.23 1952.16C1069.23 2062.38 1097.24 2428.83 1107.19 2538.49C1108.38 2552.5 1109.64 2566.5 1110.97 2580.51C1110.93 2580.65 1110.92 2580.8 1110.95 2580.95C1110.98 2581.1 1111.04 2581.24 1111.13 2581.36C1111.22 2581.48 1111.34 2581.58 1111.48 2581.64C1111.61 2581.71 1111.76 2581.75 1111.91 2581.75C1112.06 2581.75 1112.21 2581.71 1112.35 2581.64C1112.48 2581.58 1112.6 2581.48 1112.69 2581.36C1112.78 2581.24 1112.85 2581.1 1112.87 2580.95C1112.9 2580.8 1112.9 2580.65 1112.86 2580.51C1108.66 2470.42 1080.16 2104.89 1072.94 1995.02Z" fill="#263238"/>
<path d="M901.587 1095.68C901.587 1094.91 900.327 1095.19 900.327 1095.68C899.277 1126.28 900.327 1157.93 888.353 1186.71C877.569 1213.25 855.861 1231.88 831.562 1245.81C817.43 1253.74 802.865 1260.87 787.935 1267.17C786.885 1267.66 787.305 1269.34 788.496 1268.99C816.506 1260.03 845.427 1250.29 868.885 1231.53C893.955 1211.36 904.949 1182.16 906.139 1150.65C906.569 1132.21 905.043 1113.79 901.587 1095.68Z" fill="#263238"/>
<path d="M1056.97 596.881C1097.03 719.847 1205.22 929.294 1243.87 954.573C1278.11 976.912 1439.24 951.983 1509.97 934.966C1536.3 928.594 1477.06 727.9 1448.98 735.252C1415.3 744.076 1314.95 766.694 1307.67 761.092C1300.38 755.49 1199.2 630.844 1127.49 557.457C1062.22 491.002 1041.85 550.384 1056.97 596.881Z" fill="#D3766A"/>
<path d="M1494.49 936.507C1508.01 934.827 1622.36 929.505 1674.81 901.004C1702.82 885.809 1774.32 835.53 1767.18 817.463C1760.66 801.007 1737.69 809.971 1737.69 809.971C1737.69 809.971 1769.28 787.072 1760.03 764.244C1750.79 741.415 1712.63 758.572 1712.63 758.572C1712.63 758.572 1743.37 732.662 1732.51 710.604C1721.66 688.546 1686.23 712.144 1686.23 712.144C1686.23 712.144 1715.43 689.806 1698.83 675.381C1678.8 658.014 1629.57 705.352 1596.31 716.416C1588.75 718.937 1439.73 756.611 1439.73 756.611L1494.49 936.507Z" fill="#D3766A"/>
<path d="M1684.97 711.514C1648.7 746.177 1626.78 755.07 1578.32 764.874C1577.41 764.874 1577.48 766.554 1578.32 766.414C1626.64 761.162 1655.7 753.95 1686.58 713.195C1688.26 711.164 1686.65 709.834 1684.97 711.514Z" fill="#263238"/>
<path d="M1711.44 757.731C1670.62 790.503 1646.95 800.307 1596.95 814.312C1596.25 814.312 1596.53 815.783 1597.3 815.643C1647.44 805.979 1676.29 798.136 1712.77 760.042C1714.45 758.362 1713.33 756.261 1711.44 757.731Z" fill="#263238"/>
<path d="M1735.24 810.531C1693.23 839.381 1667.95 851.356 1617.67 858.709C1617.43 858.709 1617.2 858.804 1617.02 858.975C1616.85 859.146 1616.76 859.377 1616.76 859.619C1616.76 859.86 1616.85 860.092 1617.02 860.263C1617.2 860.433 1617.43 860.529 1617.67 860.529C1669.7 858.008 1701.7 843.373 1735.8 811.931C1738.32 809.97 1737.83 808.78 1735.24 810.531Z" fill="#263238"/>
<path d="M1400.66 763.053C1400.66 763.053 1442.33 715.925 1465.16 699.259C1487.99 682.593 1596.11 651.782 1604.09 674.75C1614.38 704.441 1555.49 734.482 1524.75 745.406C1524.75 745.406 1548.63 814.032 1510.74 844.703C1472.86 875.374 1400.66 763.053 1400.66 763.053Z" fill="#D3766A"/>
<path d="M1604.3 683.924C1594.15 717.746 1552.83 729.511 1523.77 742.325C1523.34 742.511 1522.96 742.794 1522.66 743.153C1522.36 743.511 1522.14 743.935 1522.03 744.391C1521.93 744.846 1521.93 745.321 1522.03 745.777C1522.14 746.233 1522.35 746.657 1522.65 747.017C1530.77 776.428 1533.57 820.264 1512.99 845.053C1512.43 845.754 1513.34 846.734 1514.04 846.104C1539.74 822.575 1540.44 779.229 1529.51 747.577C1559.55 734.903 1600.45 721.248 1604.58 684.064C1604.65 683.924 1604.37 683.924 1604.3 683.924Z" fill="#263238"/>
<path d="M1494.43 971.029L1441.63 730.561L1310.96 754.299C1259.42 695.268 1156.41 577.274 1114.89 541.841C1065.87 500.245 1033.8 531.477 1051.86 594.5C1092.69 738.544 1212.08 950.022 1243.31 969.979C1288.62 999.04 1494.43 971.029 1494.43 971.029Z" fill="#AF1EE0"/>
<path opacity="0.1" d="M1307.88 827.477C1314.35 828.883 1320.94 829.657 1327.56 829.788C1341.56 831.678 1347.72 852.336 1334.98 860.179C1328.29 864.301 1320.72 866.797 1312.89 867.466C1305.06 868.135 1297.18 866.958 1289.88 864.03C1275.88 858.568 1264.04 844.983 1267.05 829.017C1267.58 826.041 1268.86 823.25 1270.78 820.917C1272.7 818.583 1275.19 816.786 1278.01 815.7C1280.83 814.615 1283.88 814.277 1286.87 814.721C1289.86 815.165 1292.68 816.375 1295.06 818.233C1298.94 821.823 1303.25 824.927 1307.88 827.477ZM1271.75 770.266C1266.7 794.074 1303.54 814.522 1322.37 801.847C1323.89 800.697 1325.13 799.22 1326 797.525C1326.87 795.83 1327.35 793.961 1327.39 792.057C1327.44 790.152 1327.06 788.262 1326.27 786.526C1325.49 784.79 1324.32 783.253 1322.86 782.03C1317.33 777.548 1312.71 776.848 1307.81 772.786C1306.1 771.448 1304.59 769.868 1303.33 768.095C1300.55 764.266 1296.99 761.068 1292.89 758.711C1290.76 757.8 1288.45 757.384 1286.13 757.496C1283.81 757.607 1281.55 758.243 1279.52 759.356C1277.48 760.468 1275.72 762.028 1274.38 763.917C1273.03 765.807 1272.13 767.978 1271.75 770.266ZM1212.99 771.526C1205.43 781.4 1211.1 796.245 1217.76 805.208C1220.75 809.672 1224.88 813.262 1229.71 815.612C1234.54 817.962 1239.92 818.987 1245.28 818.583C1247.23 818.308 1249.06 817.475 1250.55 816.182C1252.04 814.889 1253.13 813.193 1253.67 811.298C1254.22 809.404 1254.21 807.391 1253.64 805.502C1253.07 803.614 1251.96 801.931 1250.46 800.657C1246.25 797.454 1242.88 793.271 1240.65 788.472C1237.36 781.049 1235.19 771.456 1226.65 768.235C1224.32 767.275 1221.74 767.077 1219.29 767.668C1216.84 768.259 1214.63 769.609 1212.99 771.526ZM1368.1 927.264C1358.23 947.221 1388.27 969.909 1406.48 965.988C1412.57 964.657 1418.45 956.674 1413.06 950.932C1408.72 946.311 1403.53 942.669 1399.47 937.767C1394.5 931.815 1391.77 924.182 1384 921.171C1381.07 919.947 1377.79 919.897 1374.83 921.032C1371.87 922.167 1369.46 924.398 1368.1 927.264ZM1086.04 682.523C1084.31 679.244 1081.93 676.359 1079.03 674.05C1082.96 684.087 1087.09 694.147 1091.43 704.231C1091.66 696.637 1089.8 689.126 1086.04 682.523ZM1125.04 661.515C1123.67 644.217 1116.91 627.784 1105.71 614.528C1097.31 603.674 1082.75 586.518 1067.34 590.229C1065.7 590.74 1064.27 591.766 1063.26 593.153C1062.26 594.541 1061.72 596.216 1061.74 597.932C1060.76 609.766 1074.34 622.441 1080.22 631.894C1087.23 643.799 1092.76 656.964 1100.32 668.798C1101.9 671.231 1104.23 673.087 1106.95 674.09C1109.67 675.092 1112.65 675.187 1115.43 674.36C1118.21 673.532 1120.65 671.828 1122.38 669.5C1124.11 667.172 1125.05 664.347 1125.04 661.445V661.515ZM1120.49 736.793C1123.23 736.652 1125.85 735.637 1127.96 733.898C1130.08 732.158 1131.58 729.786 1132.25 727.13C1133.34 721.693 1132.98 716.066 1131.2 710.813C1130.16 705.812 1127.73 701.203 1124.2 697.509C1122.94 696.339 1121.39 695.518 1119.71 695.125C1118.04 694.733 1116.29 694.782 1114.64 695.27C1112.98 695.757 1111.49 696.664 1110.29 697.904C1109.1 699.143 1108.24 700.672 1107.81 702.34C1107.25 706.429 1107.25 710.576 1107.81 714.665C1107.81 716.416 1107.81 718.166 1107.81 719.987C1107.78 722.625 1108.06 725.259 1108.66 727.83C1109.41 730.388 1110.97 732.635 1113.1 734.237C1115.23 735.839 1117.82 736.711 1120.49 736.723V736.793Z" fill="#030402"/>
<path d="M1448.7 950.022C1442.68 936.017 1427.69 873.834 1424.4 858.358C1421.11 842.883 1408.92 780.279 1405.35 764.384C1405.35 763.473 1406.33 762.983 1406.54 763.823C1410.32 779.509 1427.2 841.272 1430.91 856.678C1434.62 872.083 1448.56 934.196 1449.54 949.812C1449.55 949.867 1449.55 949.925 1449.55 949.981C1449.54 950.037 1449.52 950.091 1449.49 950.14C1449.43 950.238 1449.33 950.309 1449.22 950.337C1449.11 950.365 1448.99 950.348 1448.89 950.289C1448.8 950.229 1448.73 950.134 1448.7 950.022Z" fill="#263238"/>
<path opacity="0.1" d="M1327.35 983.074C1290.58 983.074 1258.3 979.573 1243.32 969.979C1211.87 949.672 1092.48 738.894 1051.38 594.57C1041.01 558.437 1047.24 532.668 1063.63 525.175L1327.35 983.074Z" fill="black"/>
<path d="M734.782 1032.02C735.693 1033.35 1172.65 1089.37 1177.35 1085.31C1179.82 1073.15 1181.57 1060.85 1182.6 1048.48C1182.6 1048.48 1142.54 572.723 1121.82 544.782C1103.68 520.413 1048.64 502.767 1011.17 518.663C932.535 551.995 744.236 977.052 746.266 994.839C746.126 994.629 733.662 1030.34 734.782 1032.02Z" fill="#AF1EE0"/>
<path opacity="0.1" d="M892.344 974.112C899.083 977.384 906.117 980.01 913.352 981.954C927.917 987.767 929.248 1012.07 913.352 1016.97C904.902 1019.65 895.942 1020.32 887.188 1018.92C878.433 1017.52 870.127 1014.09 862.933 1008.91C848.928 999.111 839.894 980.904 847.457 964.658C848.845 961.567 851.005 958.884 853.729 956.869C856.454 954.854 859.651 953.574 863.013 953.152C866.375 952.73 869.789 953.18 872.927 954.46C876.065 955.739 878.821 957.804 880.93 960.456C884.851 965.008 887.232 971.03 892.344 974.112ZM868.395 901.775C856.421 926.494 891.083 958.776 915.102 950.023C917.114 949.218 918.912 947.958 920.354 946.341C921.797 944.724 922.844 942.794 923.414 940.703C923.984 938.613 924.062 936.419 923.64 934.293C923.219 932.168 922.309 930.169 920.984 928.455C916.223 922.082 911.321 920.051 906.979 914.449C905.481 912.513 904.277 910.366 903.408 908.077C901.338 903.188 898.314 898.76 894.515 895.052C886.182 886.999 872.807 892.671 868.395 901.775ZM827.92 875.445C814.825 880.347 811.464 897.993 812.444 910.458C812.646 916.513 814.45 922.406 817.673 927.537C820.897 932.667 825.423 936.85 830.791 939.659C832.817 940.564 835.062 940.863 837.254 940.519C839.446 940.175 841.491 939.204 843.143 937.723C844.795 936.241 845.982 934.313 846.561 932.171C847.141 930.029 847.087 927.766 846.407 925.654C844.184 920.055 843.413 913.984 844.166 908.007C845.356 899.044 848.928 888.54 842.976 880.487C841.319 878.166 838.971 876.428 836.266 875.522C833.562 874.616 830.641 874.589 827.92 875.445ZM971.473 958.776C968.158 958.492 964.861 959.487 962.256 961.558C959.652 963.628 957.939 966.616 957.468 969.91C957.109 973.448 957.998 977.001 959.979 979.954C961.961 982.908 964.912 985.076 968.322 986.086C973.097 987.662 978.252 987.662 983.027 986.086C985.471 985.12 987.485 983.305 988.7 980.974C990.105 978.719 990.675 976.043 990.31 973.411C989.922 970.956 988.797 968.676 987.084 966.875C985.37 965.074 983.15 963.837 980.717 963.327C980.276 962.746 979.757 962.228 979.176 961.787C976.953 960.06 974.278 959.014 971.473 958.776ZM864.123 789.803C852.359 801.848 857.121 829.228 870.566 838.471C872.297 839.787 874.342 840.627 876.498 840.908C878.654 841.189 880.847 840.902 882.857 840.073C884.868 839.245 886.627 837.905 887.959 836.187C889.292 834.469 890.151 832.432 890.453 830.278C890.66 827.504 890.66 824.719 890.453 821.945C890.453 818.934 890.033 817.043 890.453 814.943C891.501 808.955 891.713 802.852 891.083 796.806C890.539 793.939 889.192 791.285 887.198 789.154C885.204 787.022 882.646 785.501 879.821 784.768C876.996 784.034 874.021 784.118 871.242 785.009C868.463 785.901 865.994 787.563 864.123 789.803ZM788.145 964.028C771.969 983.215 798.649 1016.13 819.587 1016.76C826.59 1016.76 835.203 1009.75 830.861 1002.05C827.36 995.889 822.668 990.428 819.587 984.055C815.806 976.212 814.895 967.039 807.192 961.717C804.32 959.605 800.75 958.669 797.211 959.098C793.672 959.528 790.43 961.291 788.145 964.028ZM1174.48 957.936C1171.84 958.33 1169.38 959.5 1167.41 961.295C1165.44 963.091 1164.05 965.431 1163.41 968.019C1161.17 975.792 1160.89 982.725 1155.08 989.027C1148.79 993.975 1143.14 999.692 1138.27 1006.04C1137.46 1007.63 1137.08 1009.4 1137.15 1011.18C1137.23 1012.96 1137.77 1014.69 1138.71 1016.2C1139.66 1017.71 1140.98 1018.95 1142.55 1019.8C1144.12 1020.64 1145.88 1021.07 1147.66 1021.03C1159.89 1019.53 1171.08 1013.42 1178.96 1003.94C1177.56 990.638 1176.16 975.022 1174.55 957.655L1174.48 957.936ZM1139.47 900.164C1135.54 909.688 1136.24 920.472 1132.95 930.415C1130.06 939.531 1126.63 948.464 1122.66 957.165C1119.72 963.468 1125.6 973.411 1133.23 970.05C1145.65 965.285 1155.8 956.005 1161.66 944.07C1166.99 933.076 1172.87 914.59 1167.76 902.895C1162.64 891.201 1145.28 886.089 1139.33 899.884L1139.47 900.164ZM1099.55 995.609C1093.73 1003.13 1086.29 1009.23 1077.77 1013.47C1075.74 1014.1 1073.87 1015.15 1072.28 1016.56C1070.69 1017.97 1069.42 1019.7 1068.55 1021.63C1067.68 1023.57 1067.23 1025.67 1067.23 1027.79C1067.23 1029.92 1067.69 1032.02 1068.56 1033.95C1069.44 1035.89 1070.71 1037.62 1072.31 1039.02C1073.9 1040.42 1075.77 1041.47 1077.8 1042.1C1079.83 1042.72 1081.97 1042.91 1084.08 1042.65C1086.19 1042.38 1088.21 1041.67 1090.03 1040.57C1097.27 1037.46 1103.75 1032.8 1109 1026.92C1114.25 1021.04 1118.15 1014.08 1120.42 1006.53C1123.71 994.419 1107.32 986.506 1099.41 995.329L1099.55 995.609ZM1035.55 652.483C1039.46 653.31 1043.54 652.592 1046.93 650.477C1050.33 648.362 1052.77 645.015 1053.75 641.138C1057.67 626.083 1044.23 610.607 1033.59 601.224C1022.94 591.84 1007.96 583.297 993.041 588.129C991.055 588.772 989.267 589.912 987.846 591.441C986.424 592.969 985.416 594.836 984.918 596.863C984.42 598.89 984.448 601.01 985 603.024C985.551 605.037 986.608 606.876 988.069 608.366C994.582 616.489 1003.62 622.371 1010.55 630.354C1017.48 638.337 1023.22 650.172 1035.41 652.202L1035.55 652.483ZM1089.26 711.935C1095.14 703.461 1090.59 690.927 1086.39 682.874C1084.15 678.432 1080.67 674.734 1076.37 672.23C1073.48 670.379 1069.97 669.745 1066.62 670.467C1063.26 671.188 1060.32 673.206 1058.45 676.081C1056.54 680.063 1056.23 684.628 1057.6 688.826C1058.19 691.022 1058.99 693.157 1059.99 695.198V695.829V696.389C1061.24 703.076 1064.07 709.367 1068.25 714.736C1069.7 716.192 1071.46 717.294 1073.4 717.955C1075.34 718.617 1077.41 718.82 1079.45 718.549C1081.48 718.277 1083.43 717.539 1085.13 716.392C1086.83 715.244 1088.24 713.719 1089.26 711.935ZM1125.39 661.796C1124.02 644.498 1117.26 628.065 1106.06 614.809C1097.66 603.955 1083.09 586.798 1067.69 590.51C1066.05 591.021 1064.62 592.047 1063.61 593.434C1062.6 594.821 1062.07 596.497 1062.09 598.212C1061.11 610.047 1074.69 622.722 1080.57 632.175C1087.58 644.079 1093.11 657.244 1100.67 669.079C1102.32 671.378 1104.65 673.098 1107.33 673.995C1110.02 674.891 1112.92 674.919 1115.62 674.073C1118.31 673.228 1120.68 671.552 1122.37 669.285C1124.06 667.018 1125 664.275 1125.04 661.446L1125.39 661.796ZM1072.52 781.68C1075.08 782.24 1077.73 782.24 1080.29 781.68C1084.18 780.485 1087.46 777.856 1089.47 774.328C1091.35 770.572 1092.29 766.413 1092.2 762.213C1092.07 758.234 1090.99 754.343 1089.05 750.869L1086.74 747.998L1083.65 745.757C1081.73 744.763 1079.6 744.216 1077.43 744.157C1075.26 744.099 1073.11 744.529 1071.13 745.418C1069.15 746.306 1067.4 747.629 1066.01 749.288C1064.61 750.947 1063.6 752.9 1063.07 755C1061.9 759.079 1061.08 763.249 1060.62 767.465L1061.25 771.316C1061.74 773.249 1062.7 775.03 1064.05 776.498C1066.16 778.943 1069.01 780.638 1072.17 781.33L1072.52 781.68ZM1120.84 737.074C1123.57 736.932 1126.19 735.918 1128.31 734.178C1130.43 732.439 1131.93 730.067 1132.6 727.41C1133.69 721.974 1133.33 716.346 1131.55 711.094C1130.51 706.093 1128.08 701.484 1124.55 697.789C1123.29 696.62 1121.74 695.798 1120.06 695.406C1118.39 695.013 1116.64 695.063 1114.98 695.55C1113.33 696.037 1111.84 696.945 1110.64 698.185C1109.44 699.424 1108.59 700.953 1108.16 702.621C1107.6 706.71 1107.6 710.857 1108.16 714.946C1108.16 716.696 1108.16 718.447 1108.16 720.268C1108.13 722.906 1108.41 725.539 1109 728.111C1109.79 730.56 1111.31 732.706 1113.37 734.249C1115.43 735.792 1117.92 736.657 1120.49 736.724L1120.84 737.074Z" fill="#030402"/>
<path d="M1096.26 619.36C1069.58 616.909 1035.41 559.908 1028.89 523.704C1028.47 521.183 1039.12 500.106 1050.81 473.916C1057.82 458.02 1065.38 440.093 1070.98 423.287L1167.9 484.28C1154.82 503.305 1144.12 523.858 1136.03 545.482C1135.31 547.765 1134.79 550.109 1134.49 552.485C1134.52 552.881 1134.52 553.279 1134.49 553.675C1132.04 567.681 1122.1 621.741 1096.26 619.36Z" fill="#D3766A"/>
<path d="M1134.49 552.625C1134.52 553.022 1134.52 553.419 1134.49 553.816C1130.76 553.085 1127.08 552.078 1123.5 550.805C1062.86 528.956 1073.57 449.407 1077.84 427.419L1102 442.685L1168.18 484.7C1155.1 503.718 1144.43 524.273 1136.38 545.903C1135.55 548.081 1134.92 550.332 1134.49 552.625Z" fill="#263238"/>
<path d="M1081.13 311.036C1061.1 347.099 1057.6 462.922 1079.8 493.664C1111.87 538.2 1176.29 555.566 1217.12 514.671C1256.68 474.617 1258.51 323.571 1232.74 294.44C1194.64 251.164 1110.68 257.746 1081.13 311.036Z" fill="#D3766A"/>
<path d="M1174.13 404.66C1174.13 404.66 1173.5 404.66 1173.5 405.36C1173.5 413.343 1172.1 422.447 1164.81 424.828V425.318C1173.71 424.337 1175.39 412.223 1174.13 404.66Z" fill="#263238"/>
<path d="M1167.34 396.117C1154.52 394.716 1152.63 420.346 1164.46 421.676C1176.3 423.007 1178.05 397.307 1167.34 396.117Z" fill="#263238"/>
<path d="M1220.06 407.392C1220.06 407.392 1220.62 407.812 1220.62 408.162C1219.71 416.075 1220.06 425.318 1227 428.469C1227 428.469 1227 429.03 1227 428.96C1218.24 426.999 1217.96 414.744 1220.06 407.392Z" fill="#263238"/>
<path d="M1227.83 399.689C1240.65 399.689 1239.6 425.388 1227.83 425.388C1216.07 425.388 1217.05 399.619 1227.83 399.689Z" fill="#263238"/>
<path d="M1177.7 390.936C1174.13 391.706 1170.69 391.776 1167.19 392.196C1163.57 393.145 1159.73 392.874 1156.27 391.426C1155.26 390.763 1154.5 389.784 1154.11 388.644C1153.72 387.504 1153.71 386.267 1154.1 385.124C1155.25 383.035 1156.93 381.287 1158.97 380.058C1161.01 378.828 1163.34 378.16 1165.72 378.121C1170.56 377.191 1175.57 378.143 1179.73 380.782C1180.59 381.433 1181.26 382.314 1181.64 383.326C1182.03 384.337 1182.12 385.437 1181.91 386.498C1181.7 387.56 1181.19 388.539 1180.44 389.324C1179.7 390.11 1178.75 390.668 1177.7 390.936Z" fill="#263238"/>
<path d="M1239.32 375.81C1235.92 374.856 1232.58 373.71 1229.31 372.379C1225.62 371.684 1222.27 369.788 1219.78 366.987C1219.16 365.96 1218.9 364.756 1219.04 363.563C1219.18 362.371 1219.71 361.259 1220.55 360.404C1222.47 358.942 1224.74 358.027 1227.13 357.756C1229.52 357.484 1231.95 357.867 1234.14 358.864C1238.87 360.159 1242.96 363.15 1245.62 367.267C1246.18 368.244 1246.43 369.36 1246.37 370.481C1246.3 371.602 1245.91 372.68 1245.24 373.583C1244.58 374.487 1243.66 375.178 1242.61 375.573C1241.56 375.969 1240.42 376.051 1239.32 375.81Z" fill="#263238"/>
<path d="M1168.32 467.824C1178.63 465.355 1189.38 465.355 1199.69 467.824C1200.6 467.824 1201.51 466.003 1201.72 465.163L1202.28 448.356C1204.45 449.617 1215.37 455.359 1215.37 452.278C1216.51 424.963 1214.85 397.603 1210.4 370.628C1210.35 370.471 1210.26 370.334 1210.12 370.237C1209.99 370.139 1209.83 370.087 1209.67 370.087C1209.5 370.087 1209.34 370.139 1209.21 370.237C1209.08 370.334 1208.98 370.471 1208.93 370.628C1207.81 395.907 1211.03 421.116 1210.26 446.536C1206.4 444.394 1202.25 442.814 1197.94 441.844C1197.03 441.844 1197.94 459.701 1197.94 462.362C1188.3 459.041 1177.74 459.619 1168.53 463.972C1164.89 466.283 1163.41 469.364 1168.32 467.824Z" fill="#263238"/>
<path d="M1147.59 484.49C1149.34 486.45 1151.09 489.111 1153.89 489.531C1156.84 489.672 1159.77 489.17 1162.51 488.061C1162.51 488.061 1163 488.061 1162.51 488.481C1161.3 489.967 1159.71 491.093 1157.9 491.736C1156.1 492.378 1154.16 492.512 1152.28 492.122C1150.75 491.633 1149.39 490.712 1148.38 489.469C1147.36 488.227 1146.72 486.716 1146.54 485.12C1146.68 484.35 1147.31 484.209 1147.59 484.49Z" fill="#263238"/>
<path opacity="0.2" d="M1114.96 274.272C1113.91 292.269 1109.64 348.08 1100.95 359.424C1092.27 370.768 1073.92 397.168 1064.61 401.44C1065.87 364.256 1071.61 328.893 1081.21 310.406C1089.07 295.594 1100.72 283.127 1114.96 274.272Z" fill="#263238"/>
<path d="M1214.74 328.822C1209.85 333.806 1203.75 337.453 1197.05 339.414C1190.34 341.375 1183.25 341.586 1176.44 340.026C1169.47 338.476 1163.02 335.154 1157.7 330.383C1152.39 325.611 1148.4 319.55 1146.12 312.786C1146.12 312.366 1145.35 312.786 1145.49 312.786C1147.27 320.089 1151.01 326.765 1156.32 332.086C1161.63 337.407 1168.3 341.171 1175.6 342.967C1182.88 344.358 1190.41 343.795 1197.41 341.335C1204.41 338.875 1210.63 334.606 1215.44 328.962C1215.86 329.032 1215.3 328.402 1214.74 328.822Z" fill="#263238"/>
<path d="M1179.59 225.044C1168.83 224.316 1158.06 226.308 1148.27 230.836C1138.48 235.363 1129.99 242.282 1123.57 250.954C1118.11 259.779 1115.79 270.194 1116.99 280.505H1117.9C1118.03 271.457 1120.61 262.614 1125.35 254.91C1130.1 247.206 1136.84 240.927 1144.86 236.738C1153.63 231.831 1163.41 229.018 1173.44 228.52C1183.48 228.022 1193.49 229.852 1202.7 233.867C1211.76 237.602 1219.2 244.425 1223.71 253.124C1224.13 254.035 1225.95 253.615 1225.6 252.704C1219.86 237.439 1201.3 226.094 1179.59 225.044Z" fill="#263238"/>
<path d="M1313.34 286.106C1310.29 274.251 1303.15 263.857 1293.17 256.765C1279.16 246.752 1262.78 246.892 1246.39 247.452C1245.9 247.452 1245.97 248.152 1246.39 248.082C1260.32 246.628 1274.38 249.23 1286.87 255.575C1297.03 261.675 1304.77 271.1 1308.78 282.255C1312.6 293.696 1312.16 306.13 1307.54 317.271C1302.92 328.412 1294.44 337.512 1283.65 342.897C1277.36 345.849 1270.55 347.484 1263.61 347.701C1256.67 347.918 1249.76 346.712 1243.31 344.158C1242.82 344.158 1242.4 344.648 1242.89 344.928C1251.62 348.785 1261.26 350.124 1270.71 348.793C1280.16 347.462 1289.05 343.514 1296.38 337.396C1303.71 331.278 1309.18 323.233 1312.18 314.17C1315.17 305.106 1315.57 295.386 1313.34 286.106Z" fill="#263238"/>
<path d="M1074.13 333.794C1074.13 333.794 1054.8 289.748 1075.46 266.639C1087.16 253.614 1122.31 258.096 1122.31 258.096C1132.81 244.766 1148.17 236.152 1165.02 234.147C1195.07 229.455 1229.31 249.763 1229.31 249.763C1229.31 249.763 1258.58 235.758 1283.72 252.774C1318.73 276.513 1309.98 332.043 1271.74 347.169C1244.85 357.883 1211.38 332.253 1211.38 332.253C1208.02 332.253 1171.75 350.74 1147.87 317.828C1147.87 317.828 1125.18 335.124 1107.04 320.419C1103.59 325.758 1098.59 329.906 1092.7 332.299C1086.81 334.691 1080.33 335.214 1074.13 333.794Z" fill="#263238"/>
<path d="M1085.55 406.972C1085.55 406.972 1067.2 365.867 1049.06 371.959C1030.93 378.051 1039.75 433.932 1057.68 444.856C1059.86 446.375 1062.33 447.44 1064.93 447.989C1067.54 448.537 1070.23 448.557 1072.84 448.048C1075.45 447.538 1077.93 446.51 1080.14 445.023C1082.35 443.537 1084.23 441.623 1085.69 439.394L1085.55 406.972Z" fill="#D3766A"/>
<path d="M1052 387.784V388.274C1064.46 396.327 1069.16 410.263 1071.61 424.198C1071.08 422.696 1070.23 421.327 1069.13 420.185C1068.02 419.042 1066.67 418.154 1065.19 417.581C1063.7 417.009 1062.11 416.765 1060.53 416.868C1058.94 416.971 1057.39 417.417 1055.99 418.175C1055.57 418.175 1055.99 418.946 1055.99 418.946C1058.54 418.651 1061.12 419.169 1063.36 420.427C1065.6 421.684 1067.38 423.617 1068.46 425.948C1070.36 429.736 1071.81 433.731 1072.8 437.853C1072.8 439.183 1075.46 438.973 1075.32 437.853C1078.89 419.786 1070.14 393.106 1052 387.784Z" fill="#263238"/>
<path d="M2056.16 488.555L1302.24 719.482L1438.17 1163.26L2192.09 932.335L2056.16 488.555Z" fill="#AF1EE0"/>
<path opacity="0.2" d="M2056.16 488.555L1302.24 719.482L1438.17 1163.26L2192.09 932.335L2056.16 488.555Z" fill="black"/>
<path opacity="0.2" d="M2056.12 488.558L1802.77 566.163L1938.7 1009.94L2192.06 932.339L2056.12 488.558Z" fill="black"/>
<path d="M2043.99 511.17C2035.45 550.478 2027.14 589.786 2019.06 629.094L1995.18 747.297L1972.07 865.991C1964.51 905.486 1957.13 945.05 1949.95 984.685C1958.49 945.424 1966.8 906.116 1974.87 866.761L1998.75 748.558L2021.86 630.144C2029.42 590.463 2036.8 550.805 2043.99 511.17Z" fill="#AF1EE0"/>
<path d="M2168.42 917.461C2140.41 888.703 2112.15 860.063 2083.62 831.539L1998.19 746.387L1912.2 661.866C1883.44 633.856 1854.55 605.845 1825.51 577.835C1853.52 606.639 1881.79 635.28 1910.31 663.757L1995.74 748.908L2081.73 833.43C2110.54 861.72 2139.43 889.73 2168.42 917.461Z" fill="#AF1EE0"/>
<path d="M1447.04 776.671L1451.2 775.399L1433.33 717.081L1429.18 718.353L1447.04 776.671Z" fill="#263238"/>
<path d="M1437.18 779.633L1441.33 778.361L1423.47 720.043L1419.31 721.315L1437.18 779.633Z" fill="#263238"/>
<path d="M1427.23 782.809L1431.38 781.537L1413.52 723.219L1409.37 724.49L1427.23 782.809Z" fill="#263238"/>
<path d="M1417.38 785.666L1421.53 784.396L1403.68 726.074L1399.53 727.345L1417.38 785.666Z" fill="#263238"/>
<path d="M1407.44 788.753L1411.59 787.481L1393.73 729.163L1389.58 730.435L1407.44 788.753Z" fill="#263238"/>
<path d="M1397.56 791.718L1401.71 790.446L1383.85 732.128L1379.7 733.4L1397.56 791.718Z" fill="#263238"/>
<path d="M1387.56 794.981L1391.71 793.709L1373.85 735.391L1369.7 736.662L1387.56 794.981Z" fill="#263238"/>
<path d="M1377.67 797.924L1381.82 796.651L1363.95 738.336L1359.8 739.609L1377.67 797.924Z" fill="#263238"/>
<path d="M1367.68 801.067L1371.83 799.796L1353.97 741.478L1349.81 742.749L1367.68 801.067Z" fill="#263238"/>
<path d="M1475.31 709.063L1458.09 709.483L1495.41 697.929L1480.84 707.312L1487.43 728.74C1499.26 726.709 1507.24 736.583 1513.27 756.19L1475.94 767.955C1469.92 748.417 1470.97 735.743 1481.89 730.771L1475.31 709.063Z" fill="#263238"/>
<path d="M1512.84 723.978L1522.58 720.967L1513.82 692.397L1538.75 684.764L1547.51 713.334L1557.31 710.323L1544.15 746.877L1512.84 723.978Z" fill="#263238"/>
<path opacity="0.1" d="M1302.27 719.497L1313.41 755.91L1834.54 669.918L1802.75 566.21L1302.27 719.497Z" fill="black"/>
<path d="M2289.78 982.654L2036.36 1060.24L1938.67 1009.96L2192.1 932.306L2289.78 982.654Z" fill="#AF1EE0"/>
<path opacity="0.2" d="M2289.78 982.654L2036.36 1060.24L1938.67 1009.96L2192.1 932.306L2289.78 982.654Z" fill="black"/>
<path d="M1385.4 1259.68L1638.82 1182.02L1691.55 1085.66L1438.13 1163.25L1385.4 1259.68Z" fill="#AF1EE0"/>
<path opacity="0.1" d="M1385.4 1259.68L1638.82 1182.02L1691.55 1085.66L1438.13 1163.25L1385.4 1259.68Z" fill="black"/>
<path d="M968.325 651.012C1005.37 774.888 1108.38 987.136 1146.61 1013.05C1180.29 1036.22 1341.98 1015.15 1412.71 999.811C1439.18 994.139 1384.7 792.044 1356.69 798.696C1322.8 806.749 1221.89 826.707 1214.75 821.175C1207.6 815.643 1109.71 688.125 1039.68 613.338C976.098 545.273 954.32 604.164 968.325 651.012Z" fill="#D3766A"/>
<path d="M1342.12 815.152C1342.12 815.152 1395.69 754.79 1433.64 731.751C1473.7 708.82 1518.74 695.964 1564.87 694.288C1614.66 692.327 1736.43 721.878 1733.98 758.431C1731.81 791.554 1608.92 755 1608.92 755C1608.92 755 1740.35 771.596 1730.41 811.021C1720.47 850.445 1580.21 799.817 1580.21 799.817C1580.21 799.817 1714.87 819.844 1698.48 858.989C1685.87 888.469 1556.26 849.815 1556.26 849.815C1556.26 849.815 1671.94 867.882 1660.24 898.833C1647.36 932.936 1525.45 904.785 1525.45 904.785C1482.66 978.173 1432.17 995.819 1394.85 1003.73C1385.53 1005.34 1342.12 815.152 1342.12 815.152Z" fill="#D3766A"/>
<path d="M1563.82 746.316C1579.3 747.717 1595.06 749.047 1610.39 751.778C1625.73 754.509 1640.92 757.871 1655.98 762.072C1675.7 767.141 1694.78 774.448 1712.84 783.85C1679.58 769.495 1624.82 758.711 1609.48 755.84C1594.14 752.969 1578.95 749.538 1563.68 746.807C1563.26 746.947 1563.4 746.316 1563.82 746.316Z" fill="#263238"/>
<path d="M1552.83 801.567C1572.51 804.158 1592.25 806.049 1611.86 809.55C1631.47 813.052 1649.6 818.094 1668.86 822.925C1670.33 823.275 1669.63 823.976 1668.16 823.626C1648.69 819.564 1630.49 817.323 1611.02 813.542C1591.55 809.76 1572.23 805.139 1552.69 801.988C1552.41 801.988 1552.48 801.497 1552.83 801.567Z" fill="#263238"/>
<path d="M1534.83 847.224C1565.2 850.521 1595.14 856.95 1624.19 866.411C1625.66 866.831 1624.68 867.601 1623.14 867.251C1593.59 860.249 1570.41 854.647 1534.76 848.274C1534.2 848.204 1534.2 847.154 1534.83 847.224Z" fill="#263238"/>
<path d="M1396.67 1035.66L1349.61 793.935L1218.45 814.522C1168.31 754.3 1068.18 633.856 1027.28 597.442C979.313 554.656 946.471 585.188 962.927 648.561C1000.6 793.445 1114.88 1007.44 1145.83 1028.45C1190.23 1058.56 1396.67 1035.66 1396.67 1035.66Z" fill="#AF1EE0"/>
<path opacity="0.1" d="M1307.87 827.477C1314.34 828.883 1320.93 829.657 1327.55 829.788C1341.56 831.679 1347.72 852.336 1334.97 860.179C1328.28 864.302 1320.72 866.797 1312.88 867.466C1305.05 868.135 1297.17 866.958 1289.88 864.031C1275.87 858.569 1264.04 844.984 1267.05 829.018C1267.57 826.041 1268.85 823.251 1270.77 820.917C1272.69 818.583 1275.18 816.786 1278 815.701C1280.82 814.615 1283.88 814.278 1286.86 814.722C1289.85 815.165 1292.68 816.375 1295.06 818.234C1298.94 821.823 1303.24 824.928 1307.87 827.477ZM1293.87 802.688C1298.26 804.806 1303.1 805.835 1307.98 805.689C1312.85 805.543 1317.62 804.225 1321.88 801.848C1323.45 800.8 1324.71 799.348 1325.52 797.646L1293.87 802.688ZM1225.73 813.332C1231.31 817.405 1238.19 819.275 1245.06 818.584C1247.43 818.259 1249.61 817.114 1251.22 815.349C1252.83 813.583 1253.78 811.309 1253.88 808.92L1225.73 813.332ZM1374.19 921.242C1371.42 922.403 1369.17 924.548 1367.89 927.264C1362 939.098 1370.2 951.843 1381.89 959.476L1374.19 921.242ZM1163.27 967.739C1161.03 975.512 1160.75 982.444 1154.94 988.747C1148.68 993.791 1143.08 999.602 1138.27 1006.04C1137.46 1007.63 1137.07 1009.4 1137.15 1011.18C1137.22 1012.96 1137.76 1014.69 1138.71 1016.2C1139.65 1017.71 1140.98 1018.95 1142.54 1019.8C1144.11 1020.64 1145.87 1021.07 1147.65 1021.03C1159.86 1019.53 1171.05 1013.5 1179.01 1004.13C1186.97 994.768 1191.13 982.754 1190.65 970.47C1190.26 967.322 1188.81 964.401 1186.54 962.185C1184.27 959.97 1181.31 958.59 1178.15 958.273C1175 957.956 1171.83 958.719 1169.16 960.439C1166.5 962.159 1164.49 964.732 1163.48 967.739H1163.27ZM1139.11 899.884C1135.19 909.407 1135.89 920.191 1132.6 930.135C1129.71 939.251 1126.27 948.184 1122.31 956.885C1119.36 963.187 1125.25 973.131 1132.88 969.77C1145.29 965.004 1155.45 955.725 1161.31 943.79C1166.63 932.796 1172.51 914.309 1167.4 902.615C1162.29 890.921 1145.27 886.089 1139.32 899.884H1139.11ZM1035.19 652.202C1039.11 653.03 1043.19 652.311 1046.58 650.197C1049.98 648.082 1052.42 644.735 1053.4 640.858C1057.32 625.803 1043.88 610.327 1033.23 600.943C1022.59 591.56 1007.6 583.017 992.688 587.848C990.702 588.492 988.913 589.632 987.492 591.161C986.07 592.689 985.063 594.555 984.565 596.582C984.067 598.61 984.095 600.73 984.646 602.743C985.198 604.757 986.254 606.596 987.716 608.086C994.228 616.209 1003.26 622.091 1010.19 630.074C1017.13 638.057 1023.22 650.172 1035.4 652.202H1035.19ZM1089.25 711.934C1095.14 703.461 1090.58 690.927 1086.38 682.874C1084.14 678.431 1080.67 674.734 1076.37 672.23C1073.48 670.379 1069.97 669.745 1066.61 670.467C1063.26 671.188 1060.32 673.206 1058.44 676.081C1056.53 680.063 1056.23 684.628 1057.6 688.826C1058.19 691.022 1058.98 693.156 1059.98 695.198V695.828V696.389C1061.23 703.076 1064.07 709.366 1068.25 714.735C1069.69 716.192 1071.45 717.294 1073.4 717.955C1075.34 718.616 1077.41 718.82 1079.44 718.548C1081.48 718.277 1083.42 717.539 1085.12 716.392C1086.83 715.244 1088.24 713.719 1089.25 711.934ZM1072.52 781.96C1075.08 782.52 1077.73 782.52 1080.29 781.96C1084.17 780.765 1087.45 778.136 1089.46 774.608C1091.34 770.851 1092.28 766.693 1092.19 762.493C1092.07 758.514 1090.99 754.623 1089.04 751.149L1086.73 748.278L1083.65 746.037C1081.72 745.043 1079.6 744.496 1077.43 744.437C1075.26 744.379 1073.11 744.809 1071.13 745.698C1069.15 746.586 1067.4 747.909 1066 749.568C1064.61 751.227 1063.6 753.18 1063.06 755.28C1061.9 759.359 1061.08 763.529 1060.61 767.745L1061.24 771.596C1061.73 773.529 1062.7 775.309 1064.04 776.778C1066.2 779.12 1069.04 780.714 1072.17 781.33L1072.52 781.96ZM1131.27 710.884L1117.26 695.128C1115.03 694.862 1112.77 695.428 1110.92 696.72C1109.07 698.011 1107.77 699.937 1107.25 702.131C1106.69 706.22 1106.69 710.366 1107.25 714.455C1107.25 716.206 1107.25 717.957 1107.25 719.777C1107.21 722.416 1107.5 725.049 1108.09 727.62C1108.86 730.285 1110.49 732.617 1112.74 734.242C1114.99 735.867 1117.71 736.691 1120.48 736.584C1123.22 736.442 1125.84 735.427 1127.96 733.688C1130.07 731.949 1131.58 729.577 1132.25 726.92C1133.3 721.579 1132.96 716.057 1131.27 710.884Z" fill="#030402"/>
<path d="M1351.43 1013.47C1345.76 999.11 1332.46 936.787 1329.31 921.171C1326.16 905.556 1315.72 842.812 1312.57 826.776C1312.57 825.936 1313.55 825.376 1313.76 826.286C1317.12 842.042 1332.6 904.155 1335.89 919.701C1339.18 935.247 1351.71 997.57 1352.27 1013.26C1352.3 1013.37 1352.29 1013.48 1352.23 1013.58C1352.17 1013.68 1352.07 1013.75 1351.96 1013.78C1351.85 1013.81 1351.73 1013.79 1351.63 1013.73C1351.53 1013.67 1351.46 1013.58 1351.43 1013.47Z" fill="#263238"/>
<path d="M1308.16 1042.46C1286.66 1043.72 1265.16 1044.21 1243.67 1044.07C1222.09 1044.16 1200.53 1042.92 1179.1 1040.36C1168.12 1039.27 1157.39 1036.43 1147.31 1031.95C1138.25 1025.55 1130.38 1017.61 1124.06 1008.49C1111.37 990.97 1099.88 972.605 1089.68 953.523C1068.67 915.779 1050.6 876.494 1032.96 837.42C1015.31 798.346 999.276 758.151 984.57 717.676C1002.43 756.82 1020.07 796.035 1038.42 834.899C1056.77 873.763 1075.32 912.488 1095.35 950.372C1105.35 969.268 1116.38 987.596 1128.4 1005.27C1134.02 1014.07 1141.13 1021.82 1149.41 1028.17C1158.96 1032.57 1169.15 1035.43 1179.59 1036.64C1222.24 1041.81 1265.22 1043.75 1308.16 1042.46Z" fill="#263238"/>
<path d="M998.22 751.849C995.343 748.944 992.741 745.779 990.447 742.395C988.07 739.044 986.25 735.332 985.055 731.401C986.11 733.141 987.255 734.824 988.486 736.443L991.917 741.415C994.222 744.766 996.326 748.25 998.22 751.849Z" fill="#263238"/>
<path d="M1108.8 686.935C1126.51 704.721 1142.41 724.258 1158.87 742.955C1175.32 761.652 1191.08 781.4 1207.88 800.026L1214.12 807.029C1215.24 808.079 1216.29 809.27 1217.34 810.25C1218.39 811.231 1218.39 811.161 1218.88 811.581C1218.88 811.581 1219.37 811.581 1219.65 811.581C1224.97 811.581 1231.69 810.39 1237.71 809.62L1274.97 804.088C1299.76 800.447 1324.62 796.665 1349.48 793.304L1350.46 799.466L1348.99 793.374H1349.34C1324.76 798.626 1300.32 803.318 1275.39 807.869C1262.99 810.11 1250.6 812.071 1238.13 813.962C1231.76 815.067 1225.33 815.816 1218.88 816.202C1218.37 816.268 1217.85 816.268 1217.34 816.202C1216.65 815.996 1216.01 815.664 1215.45 815.222C1214.74 814.674 1214.06 814.089 1213.42 813.471L1209.98 810.11C1207.74 807.799 1205.64 805.488 1203.54 803.108C1187.09 783.991 1171.12 764.663 1155.43 745.056L1131.98 715.575C1124.27 706.402 1117.27 696.318 1108.8 686.935Z" fill="#263238"/>
<path d="M1117.97 689.035C1120.61 692.275 1122.95 695.743 1124.97 699.399C1126.95 703.01 1128.34 706.909 1129.1 710.953C1128.26 709.063 1127.21 707.382 1126.23 705.561L1123.36 700.169C1121.36 696.558 1119.56 692.841 1117.97 689.035Z" fill="#263238"/>
<path d="M278.071 2520.14C275.479 2454.62 276.391 2389.01 280.802 2323.58C290.459 2188.74 311.044 2054.9 342.355 1923.38C359.511 1849.3 380.659 1776.33 402.717 1703.64C403.347 1701.47 406.849 1702.1 406.289 1704.34C338.153 1960.92 282.203 2225.75 286.054 2492.41C287.175 2567.06 295.788 2640.38 302.86 2714.54C302.86 2716.57 299.779 2717.34 299.359 2715.31C285.284 2651.65 280.732 2584.99 278.071 2520.14Z" fill="#AF1EE0"/>
<path d="M406.292 1703.99C406.292 1703.99 509.51 1966.03 486.402 2027.58C463.293 2089.13 415.606 2102.3 415.606 2102.3C415.606 2102.3 478.629 2192.49 434.653 2277.36C390.676 2362.23 292.5 2357.89 285.918 2453.83C285.918 2453.55 280.456 2052.58 406.292 1703.99Z" fill="#AF1EE0"/>
<path d="M297.192 2288.01C297.02 2287.56 297.02 2287.06 297.192 2286.61C310.805 2107.72 344.417 1930.92 397.399 1759.52C397.399 1759.03 398.379 1759.17 398.239 1759.52C377.792 1836.13 359.725 1913.16 344.039 1990.61C357.833 1977.51 374.684 1968.07 393.057 1963.16C393.057 1963.16 393.548 1963.16 393.057 1963.65C373.664 1970.82 356.244 1982.48 342.219 1997.68C339.231 2012.8 336.313 2028 333.465 2043.27C356.504 2017.5 388.506 2004.68 420.508 1992.5C420.928 1992.5 421.208 1993.06 420.508 1993.2C387.175 2006.78 353.913 2024.29 331.365 2053C323.428 2096.46 316.426 2140.09 310.357 2183.88C327.045 2166.49 348.431 2154.32 371.91 2148.87C372.61 2148.87 373.03 2149.78 371.91 2149.99C347.677 2156.99 326.001 2170.88 309.517 2189.97H309.096C307.042 2205.38 305.105 2220.81 303.284 2236.26C316.586 2225.28 331.61 2216.57 347.751 2210.49C348.171 2210.49 348.381 2210.98 347.751 2211.12C331.944 2218.13 317.469 2227.82 304.965 2239.76C304.965 2239.76 304.965 2239.76 304.405 2239.76C302.724 2254.39 300.973 2269.1 299.503 2283.81C322.758 2255.72 352.925 2234.17 387.035 2221.27C387.104 2221.24 387.178 2221.23 387.252 2221.23C387.326 2221.23 387.4 2221.25 387.468 2221.28C387.536 2221.31 387.598 2221.35 387.65 2221.4C387.702 2221.46 387.743 2221.52 387.77 2221.59C387.798 2221.66 387.812 2221.73 387.811 2221.8C387.81 2221.88 387.795 2221.95 387.765 2222.02C387.736 2222.09 387.694 2222.15 387.64 2222.2C387.587 2222.25 387.524 2222.29 387.455 2222.32C353.763 2237.17 324.163 2259.94 301.183 2288.71C300.947 2289.04 300.607 2289.29 300.216 2289.42C299.824 2289.55 299.401 2289.54 299.013 2289.41C296.772 2311.96 294.741 2334.57 293.13 2357.19H292.57C293.691 2334.29 295.301 2311.12 297.192 2288.01Z" fill="#263238"/>
<path d="M380.1 1937.39C398.787 1925.74 420.149 1919.09 442.143 1918.06C442.633 1918.06 442.703 1918.76 442.143 1918.83C420.899 1922.76 400.271 1929.5 380.8 1938.86C380.617 1938.89 380.427 1938.87 380.26 1938.78C380.093 1938.7 379.959 1938.56 379.879 1938.4C379.798 1938.23 379.776 1938.04 379.816 1937.85C379.857 1937.67 379.956 1937.51 380.1 1937.39Z" fill="#263238"/>
<path d="M367.57 2214.76C381.943 2206.55 397.746 2201.16 414.137 2198.86C414.697 2198.86 414.767 2199.63 414.137 2199.7C398.08 2202.93 382.549 2208.38 367.99 2215.88C367.5 2216.16 366.939 2215.11 367.57 2214.76Z" fill="#263238"/>
<path d="M6.71934 2031.85C50.3635 2062.05 90.4411 2097.1 126.184 2136.33C163.141 2177.8 191.681 2226.05 210.215 2278.41C249.382 2387.54 270.457 2502.33 272.608 2618.25C273.949 2682.45 267.768 2746.59 254.191 2809.35C254.072 2809.79 253.793 2810.17 253.409 2810.41C253.026 2810.65 252.565 2810.75 252.117 2810.67C251.67 2810.59 251.268 2810.34 250.991 2809.98C250.714 2809.62 250.581 2809.17 250.62 2808.72C267.533 2697.95 266.966 2585.22 248.939 2474.63C231.152 2366.23 203.352 2248.3 134.447 2160.21C96.5626 2112.45 49.7853 2074.57 3.84828 2035.42C1.11727 2033.46 4.1984 2030.1 6.71934 2031.85Z" fill="#AF1EE0"/>
<path d="M257.205 2540.24C232.379 2500.03 203.188 2462.69 170.163 2428.9C118.484 2377.29 74.9977 2340.6 68.2753 2306.42C61.5528 2272.25 120.024 2247.18 120.024 2247.18C120.024 2247.18 48.5279 2260 28.9907 2229.96C9.45349 2199.91 0 2026.32 0 2026.32C0 2026.32 129.898 2119.45 190.61 2249.21C251.323 2378.97 257.205 2540.24 257.205 2540.24Z" fill="#AF1EE0"/>
<path d="M46.4276 2189.48C54.9842 2188.26 63.6491 2187.98 72.2671 2188.64C73.3175 2188.64 73.2475 2190.46 72.2671 2190.46C63.7239 2190.46 55.1808 2190.04 46.5676 2190.46C45.8673 2190.32 45.8674 2189.48 46.4276 2189.48Z" fill="#263238"/>
<path d="M139.982 2357.54C153.728 2357.83 167.314 2360.56 180.107 2365.6C180.107 2365.6 180.107 2366.23 180.107 2366.16C166.872 2363.01 153.497 2361.67 140.122 2359.5C138.792 2359.5 138.862 2357.54 139.982 2357.54Z" fill="#263238"/>
<path d="M168.059 2299.49C173.768 2299.44 179.467 2299.96 185.075 2301.03C185.635 2301.03 185.565 2302.08 185.075 2302.08C179.389 2302.37 173.689 2302.08 168.059 2301.24C167.868 2301.19 167.701 2301.07 167.582 2300.91C167.463 2300.76 167.398 2300.56 167.398 2300.37C167.398 2300.17 167.463 2299.98 167.582 2299.82C167.701 2299.66 167.868 2299.55 168.059 2299.49Z" fill="#263238"/>
<path d="M638.282 2216.23C595.999 2230.56 555.476 2249.64 517.488 2273.09C478.153 2298.22 444.034 2330.7 417 2368.75C360.079 2448.02 316.486 2536.06 287.943 2629.38C272.059 2681.03 262.236 2734.35 258.672 2788.27C258.672 2788.68 258.834 2789.07 259.123 2789.36C259.412 2789.65 259.804 2789.81 260.212 2789.81C260.621 2789.81 261.013 2789.65 261.302 2789.36C261.591 2789.07 261.753 2788.68 261.753 2788.27C273.586 2694.85 299.979 2603.86 339.972 2518.6C379.397 2434.99 429.185 2345.99 505.303 2290.67C546.758 2260.49 593.326 2240.81 639.753 2219.94C642.484 2218.82 641.083 2215.39 638.282 2216.23Z" fill="#AF1EE0"/>
<path d="M318.125 2569.72C347.491 2542.9 379.736 2519.42 414.271 2499.7C468.05 2469.86 511.677 2450.19 525.052 2424.14C538.426 2398.09 497.041 2364.2 497.041 2364.2C497.041 2364.2 551.871 2391.09 574.63 2371.2C597.388 2351.31 645.146 2213.01 645.146 2213.01C645.146 2213.01 518.539 2258.11 439.41 2349.42C360.281 2440.73 318.125 2569.72 318.125 2569.72Z" fill="#AF1EE0"/>
<path d="M423.236 2442.55C435.664 2441.69 448.144 2443.21 460 2447.04C460 2447.04 460 2447.67 460 2447.6C447.884 2445.56 435.651 2444.3 423.376 2443.82C423.209 2443.83 423.041 2443.79 422.91 2443.68C422.779 2443.58 422.694 2443.42 422.676 2443.26C422.657 2443.09 422.706 2442.92 422.811 2442.79C422.916 2442.66 423.069 2442.57 423.236 2442.55Z" fill="#263238"/>
<path d="M533.741 2297.6C539.408 2297.19 545.104 2297.52 550.687 2298.58C550.794 2298.62 550.886 2298.69 550.952 2298.79C551.017 2298.88 551.052 2298.99 551.052 2299.11C551.052 2299.22 551.017 2299.33 550.952 2299.43C550.886 2299.52 550.794 2299.59 550.687 2299.63C545.155 2299 539.623 2299.21 534.021 2299.07C533.848 2299.06 533.684 2299 533.554 2298.88C533.423 2298.77 533.335 2298.62 533.303 2298.45C533.27 2298.28 533.296 2298.1 533.375 2297.95C533.455 2297.79 533.583 2297.67 533.741 2297.6Z" fill="#263238"/>
<path d="M154.758 2962.92H440.604L399.848 2664.26L389.415 2587.72H205.947L195.513 2664.26L154.758 2962.92Z" fill="#455A64"/>
<path d="M195.516 2664.26H399.851L389.417 2587.72H205.949L195.516 2664.26Z" fill="#263238"/>
<path d="M179.615 2625.95H415.672V2561.11H179.615V2625.95Z" fill="#455A64"/>
<path d="M1677.47 157.119C1677.47 185.938 1669.46 214.188 1654.33 238.72C1639.21 263.251 1617.57 283.098 1591.82 296.047C1566.08 308.996 1537.24 314.537 1508.53 312.053C1479.82 309.568 1452.36 299.155 1429.23 281.976L1352.97 301.443L1384.69 230.507C1373.53 209.649 1367.26 186.521 1366.38 162.879C1365.5 139.238 1370.02 115.707 1379.6 94.0756C1389.18 72.444 1403.56 53.2814 1421.66 38.045C1439.76 22.8086 1461.09 11.8997 1484.04 6.14766C1506.99 0.395648 1530.94 -0.0479307 1554.09 4.85064C1577.23 9.74922 1598.96 19.861 1617.61 34.4169C1636.26 48.9729 1651.34 67.5899 1661.71 88.8521C1672.09 110.114 1677.48 133.462 1677.47 157.119Z" fill="white"/>
<path d="M1677.47 157.049C1677.46 185.903 1669.52 214.199 1654.5 238.839C1650.85 245.051 1646.83 251.037 1642.46 256.766C1637.81 262.251 1632.83 267.443 1627.54 272.312C1617.1 282.161 1605.31 290.483 1592.53 297.031C1579.71 303.573 1566.04 308.288 1551.92 311.036C1544.82 312.448 1537.64 313.337 1530.42 313.697C1523.22 314.292 1515.98 314.292 1508.78 313.697C1479.65 311.437 1451.73 301.134 1428.11 283.936L1430.21 284.356L1354.16 304.384L1348 305.994L1350.59 300.112L1382.03 229.036V231.977C1370.6 210.715 1364.2 187.106 1363.35 162.978C1362.5 138.85 1367.22 114.85 1377.13 92.8353C1387.06 70.8828 1401.83 51.4658 1420.34 36.0443C1438.82 20.8502 1460.51 10.0399 1483.77 4.42473C1507.03 -1.19046 1531.26 -1.46481 1554.65 3.62231C1577.82 8.89333 1599.52 19.2769 1618.16 34.0135C1636.7 48.7053 1651.67 67.4094 1661.95 88.7197C1672.22 110.03 1677.53 133.392 1677.47 157.049ZM1677.47 157.049C1677.46 121.475 1665.14 87.002 1642.59 59.4819C1620.05 31.9618 1588.68 13.091 1553.81 6.07323C1530.86 1.50575 1507.18 2.22417 1484.55 8.174C1462 13.9987 1441.08 24.9232 1423.42 40.1058C1405.91 55.4528 1391.96 74.4253 1382.52 95.7064C1373.22 116.927 1368.86 139.987 1369.78 163.141C1370.86 186.065 1376.98 208.468 1387.7 228.756L1388.47 230.226L1387.77 231.697L1355.77 302.563L1352.2 298.361L1428.6 279.454H1429.79L1430.7 280.155C1453.34 297.353 1480.33 307.902 1508.64 310.616C1515.63 311.13 1522.65 311.13 1529.65 310.616C1551.05 309.881 1572.04 304.555 1591.2 295C1603.98 288.777 1615.78 280.708 1626.21 271.051C1631.5 266.255 1636.48 261.133 1641.13 255.716C1645.59 250.144 1649.73 244.322 1653.52 238.279C1668.81 213.913 1677.09 185.81 1677.47 157.049Z" fill="#263238"/>
<path d="M1532.73 173.925V191.082C1532.78 192.796 1532.48 194.502 1531.84 196.096C1531.21 197.689 1530.26 199.137 1529.04 200.35C1527.83 201.562 1526.38 202.515 1524.79 203.149C1523.2 203.783 1521.49 204.085 1519.77 204.036C1518.08 204.036 1516.4 203.701 1514.83 203.049C1513.26 202.397 1511.84 201.442 1510.64 200.238C1509.44 199.034 1508.49 197.605 1507.85 196.034C1507.21 194.463 1506.88 192.78 1506.89 191.082V163.701C1506.89 163.701 1506.89 163.701 1506.89 163.141C1506.89 162.581 1506.89 163.141 1506.89 162.651C1506.98 159.255 1508.36 156.021 1510.76 153.612C1513.15 151.204 1516.38 149.802 1519.77 149.696C1523.77 149.891 1527.77 149.272 1531.52 147.877C1535.27 146.481 1538.7 144.338 1541.59 141.578C1544.49 138.818 1546.8 135.499 1548.37 131.82C1549.95 128.142 1550.76 124.182 1550.76 120.18C1550.76 116.179 1549.95 112.219 1548.37 108.54C1546.8 104.862 1544.49 101.542 1541.59 98.7823C1538.7 96.0224 1535.27 93.8797 1531.52 92.4843C1527.77 91.0889 1523.77 90.4697 1519.77 90.6645C1514.66 90.6483 1509.63 91.9795 1505.19 94.5241C1500.75 97.0687 1497.07 100.737 1494.5 105.16C1493.63 106.652 1492.48 107.959 1491.12 109.006C1489.75 110.053 1488.19 110.819 1486.52 111.262C1484.85 111.704 1483.12 111.813 1481.41 111.583C1479.7 111.354 1478.06 110.789 1476.57 109.922C1475.11 109.056 1473.83 107.91 1472.81 106.55C1471.8 105.19 1471.06 103.642 1470.64 101.995C1470.23 100.349 1470.14 98.6363 1470.39 96.9561C1470.64 95.2759 1471.21 93.6613 1472.09 92.2051C1476.69 84.2728 1483.2 77.6086 1491.02 72.8109C1498.83 68.0131 1507.72 65.232 1516.88 64.7172C1526.04 64.2024 1535.18 65.9701 1543.49 69.8614C1551.79 73.7528 1559 79.6461 1564.47 87.0122C1569.93 94.3782 1573.49 102.986 1574.8 112.064C1576.12 121.142 1575.16 130.404 1572.02 139.02C1568.87 147.637 1563.63 155.337 1556.78 161.429C1549.92 167.521 1541.66 171.815 1532.73 173.925ZM1532.73 231.697V236.458C1532.77 238.167 1532.46 239.866 1531.82 241.451C1531.18 243.036 1530.23 244.475 1529.02 245.68C1527.8 246.886 1526.36 247.832 1524.77 248.461C1523.18 249.091 1521.48 249.391 1519.77 249.343C1516.36 249.343 1513.08 247.986 1510.66 245.569C1508.25 243.153 1506.89 239.876 1506.89 236.458V231.697C1506.93 228.284 1508.29 225.02 1510.7 222.601C1513.11 220.181 1516.36 218.796 1519.77 218.742C1521.48 218.723 1523.17 219.045 1524.75 219.69C1526.33 220.334 1527.77 221.288 1528.98 222.494C1530.18 223.701 1531.14 225.137 1531.78 226.717C1532.43 228.297 1532.75 229.99 1532.73 231.697Z" fill="#AF1EE0"/>
</svg>
